<?xml version="1.0" encoding="UTF-8" standalone="no"?>
<svg
   width="9.030432243347168mm"
   height="2.2707670521736145mm"
   viewBox="0 0 9.030432243347168 2.2707670521736145"
   version="1.1"
   id="svg1"
   sodipodi:docname="condiment.svg"
   inkscape:version="1.3 (0e150ed6c4, 2023-07-21)"
   xmlns:inkscape="http://www.inkscape.org/namespaces/inkscape"
   xmlns:sodipodi="http://sodipodi.sourceforge.net/DTD/sodipodi-0.dtd"
   xmlns="http://www.w3.org/2000/svg"
   xmlns:svg="http://www.w3.org/2000/svg">
  <defs
     id="defs1" />
  <sodipodi:namedview
     id="namedview1"
     pagecolor="#ffffff"
     bordercolor="#000000"
     borderopacity="0.25"
     inkscape:showpageshadow="2"
     inkscape:pageopacity="0.0"
     inkscape:pagecheckerboard="0"
     inkscape:deskcolor="#d1d1d1"
     inkscape:document-units="mm"
     inkscape:zoom="24.054541"
     inkscape:cx="17.065385"
     inkscape:cy="4.3027218"
     inkscape:window-width="1854"
     inkscape:window-height="1177"
     inkscape:window-x="58"
     inkscape:window-y="-8"
     inkscape:window-maximized="1"
     inkscape:current-layer="svg1" />
  <path
     id="condiment001_f0000"
     style="fill:#cccccc;fill-opacity:1;fill-rule:evenodd;stroke-width:0.35;stroke-linecap:square;stroke-miterlimit:4;stroke-dasharray:none;stroke:none"
     d="M 4.5134196 0.088366699 L 4.3764771 0.093534342 L 4.2426351 0.1100708 L 4.1258464 0.1390096 L 4.0385132 0.17931722 L 3.9801188 0.23202718 L 3.9449788 0.29817301 L 3.924825 0.37413737 L 3.9093221 0.45940348 L 3.8917521 0.5575887 L 3.8648804 0.6692098 L 3.8281901 0.78548177 L 3.7796143 0.89451904 L 3.7201864 0.98805339 L 3.6514567 1.0588501 L 3.5811768 1.1074259 L 3.5155477 1.1373983 L 3.4561198 1.1518677 L 3.4013428 1.1523844 L 3.3470825 1.1430827 L 3.2923055 1.127063 L 3.2421794 1.1079427 L 3.201355 1.0841715 L 3.1687988 1.0552327 L 3.1393433 1.0221598 L 3.1047201 0.98391927 L 3.058728 0.93224284 L 3.0117025 0.86609701 L 2.9770793 0.78703206 L 2.9574422 0.7053833 L 2.9502075 0.631486 L 2.9471069 0.5648234 L 2.9398722 0.50436198 L 2.9279867 0.45216878 L 2.914034 0.41031087 L 2.8949137 0.37620443 L 2.8670085 0.34674886 L 2.8272176 0.32142741 L 2.7729574 0.30075684 L 2.7068115 0.2868042 L 2.633431 0.28111979 L 2.5528158 0.28370361 L 2.4665161 0.29455566 L 2.3802165 0.3085083 L 2.2975342 0.32039388 L 2.2045166 0.32917887 L 2.0892782 0.33693034 L 1.9616374 0.34829915 L 1.8391642 0.3679362 L 1.7383952 0.3896403 L 1.6706991 0.40669352 L 1.5807821 0.43666585 L 1.5420247 0.45371908 L 1.5084351 0.47232259 L 1.4841471 0.49299316 L 1.4665771 0.51211344 L 1.4562419 0.53381755 L 1.4474569 0.56223958 L 1.5399577 0.56223958 L 1.541508 0.83457438 L 1.4495239 0.83405762 L 1.4495239 0.83819173 L 1.4484904 0.91260579 L 1.4464233 0.98908691 L 1.4433228 1.0640177 L 1.4402222 1.135848 L 1.4360881 1.2030273 L 1.4304036 1.262972 L 1.4231689 1.3141317 L 1.4102498 1.3627075 L 1.390096 1.4138672 L 1.3642578 1.4614095 L 1.3348022 1.4986165 L 1.3006958 1.5296224 L 1.2598714 1.5585612 L 1.2128459 1.5823324 L 1.162203 1.5988688 L 1.1079427 1.6102376 L 1.0490316 1.6174723 L 0.99063721 1.6252238 L 0.93482666 1.6345256 L 0.88521729 1.6448608 L 0.83819173 1.6536458 L 0.79633382 1.659847 L 0.76171061 1.6629476 L 0.73328857 1.6629476 L 0.70951742 1.659847 L 0.68884684 1.6520955 L 0.67076009 1.6371094 L 0.65422363 1.6128215 L 0.64078776 1.5792318 L 0.6330363 1.5399577 L 0.63355306 1.497583 L 0.64543864 1.4526245 L 0.66869303 1.4050822 L 0.69246419 1.3549561 L 0.71158447 1.300179 L 0.72398682 1.2412679 L 0.72812093 1.1787394 L 0.72140299 1.1115601 L 0.70073242 1.0407633 L 0.66507568 0.97358398 L 0.61339925 0.9182902 L 0.550354 0.87539876 L 0.48214111 0.84335937 L 0.41702881 0.82475586 L 0.36121826 0.82062174 L 0.31367594 0.82785645 L 0.26923421 0.84284261 L 0.22634277 0.86558024 L 0.18551839 0.89813639 L 0.14882812 0.94412842 L 0.12092285 1.0035563 L 0.10076904 1.0712524 L 0.089400228 1.1430827 L 0.088366699 1.21698 L 0.10076904 1.2929443 L 0.12247314 1.3652913 L 0.15089518 1.4304036 L 0.18448486 1.4924154 L 0.22427572 1.5570109 L 0.2361613 1.5735474 L 0.26251628 1.5518433 L 0.43356527 1.7631999 L 0.42529704 1.7699178 L 0.45320231 1.7942057 L 0.5141805 1.8401978 L 0.58291016 1.8763713 L 0.66972656 1.9037598 L 0.78186442 1.9218465 L 0.91157227 1.9285645 L 1.0474813 1.9218465 L 1.1828735 1.9006592 L 1.3115479 1.8639689 L 1.425236 1.8164266 L 1.5130859 1.7616496 L 1.5750977 1.7017049 L 1.6185059 1.6376261 L 1.6458944 1.5750977 L 1.6613973 1.5187703 L 1.668632 1.4567586 L 1.6722493 1.3787272 L 1.6732829 1.2882935 L 1.6727661 1.1926921 L 1.6753499 1.1048421 L 1.686202 1.0350789 L 1.7027384 0.97875163 L 1.7239258 0.92810872 L 1.7507975 0.8821167 L 1.784904 0.84387614 L 1.8215942 0.81131999 L 1.8582845 0.78341471 L 1.9037598 0.75809326 L 1.9662882 0.73535563 L 2.0381185 0.71830241 L 2.1156331 0.70641683 L 2.1952148 0.69763184 L 2.2727295 0.68729655 L 2.3486938 0.67489421 L 2.4215576 0.66094157 L 2.4840861 0.64853923 L 2.5300781 0.64233805 L 2.5641846 0.64130452 L 2.5926066 0.64492187 L 2.6179281 0.65215658 L 2.6401489 0.66559245 L 2.659786 0.69608154 L 2.6778727 0.75344238 L 2.6954427 0.83354085 L 2.7119792 0.93017578 L 2.7290324 1.0392131 L 2.8184326 1.0164754 L 2.8840617 1.2795085 L 2.8029297 1.2986287 L 2.8111979 1.3151652 L 2.8778605 1.3807943 L 2.9781128 1.4319539 L 3.102653 1.4650269 L 3.2380452 1.4774292 L 3.3698201 1.4727783 L 3.4866089 1.4593424 L 3.5827271 1.4433228 L 3.6566243 1.4309204 L 3.7150187 1.416451 L 3.7651449 1.3937134 L 3.8137207 1.3585734 L 3.8648804 1.3094808 L 3.9134562 1.2474691 L 3.9532471 1.1746053 L 3.9873535 1.098641 L 4.0199097 1.0247437 L 4.0503988 0.95239665 L 4.0793376 0.88625081 L 4.1087931 0.8242391 L 4.1423828 0.76377767 L 4.1785563 0.70486654 L 4.2193807 0.64802246 L 4.2803589 0.59221191 L 4.3764771 0.53795166 L 4.5067017 0.49609375 L 4.6606974 0.47490641 L 4.8043579 0.46767171 L 4.9092611 0.46715495 L 4.9826416 0.47438965 L 5.0415527 0.49350993 L 5.0968465 0.5286499 L 5.1547241 0.58291016 L 5.2105347 0.65060628 L 5.2591105 0.72450358 L 5.2994181 0.80356852 L 5.330424 0.88470052 L 5.3552287 0.96634928 L 5.3779663 1.0531657 L 5.3976034 1.1327474 L 5.411556 1.1926921 L 5.4255086 1.2417847 L 5.4451457 1.289327 L 5.4699504 1.3337687 L 5.5004395 1.3714925 L 5.5510824 1.4071493 L 5.6342814 1.4464233 L 5.7397013 1.4831136 L 5.854423 1.5105021 L 5.9758626 1.5296224 L 6.1009196 1.5420247 L 6.2151245 1.5466756 L 6.3009074 1.5456421 L 6.3680868 1.5399577 L 6.4109782 1.5332397 L 6.5096802 1.3027629 L 6.6269857 1.3544393 L 6.6838298 1.2676229 L 6.7417074 1.1715047 L 6.801652 1.0826213 L 6.8641805 1.0149251 L 6.9298096 0.96376546 L 6.999056 0.92294108 L 7.0765706 0.89193522 L 7.1623535 0.87798258 L 7.2486532 0.88366699 L 7.3308187 0.91260579 L 7.4000651 0.95704753 L 7.4501912 1.0092407 L 7.4837809 1.0676351 L 7.5075521 1.1322306 L 7.5215047 1.2035441 L 7.5277059 1.2795085 L 7.5282227 1.3575399 L 7.5266724 1.4335042 L 7.5292562 1.506368 L 7.5411418 1.5756144 L 7.5674967 1.6412435 L 7.6134888 1.7032552 L 7.6775675 1.7611328 L 7.757666 1.8153931 L 7.8465495 1.8655192 L 7.9364665 1.9130615 L 8.0237996 1.9595703 L 8.1075155 2.0081462 L 8.1932983 2.0562052 L 8.2868327 2.1011637 L 8.3901855 2.1399211 L 8.5018066 2.1683431 L 8.6092936 2.1822957 L 8.7017944 2.1781616 L 8.7777588 2.1611084 L 8.8382202 2.137854 L 8.8578573 2.1244181 L 8.8604411 2.1177002 L 8.9327881 1.8598348 L 8.9420898 1.8624186 L 8.9229696 1.8081584 L 8.8836955 1.7502808 L 8.8190999 1.6991211 L 8.7265991 1.6629476 L 8.6123942 1.6448608 L 8.4863037 1.6448608 L 8.3565959 1.6505452 L 8.2320557 1.6495117 L 8.1209513 1.633492 L 8.0305176 1.5978353 L 7.9643717 1.5528768 L 7.9214803 1.5074015 L 7.8951253 1.4614095 L 7.8765218 1.4133504 L 7.8630859 1.3668416 L 7.8527507 1.3255005 L 7.8434489 1.2836426 L 7.8341471 1.2350667 L 7.8243286 1.1735718 L 7.8176107 1.1280965 L 7.7411296 1.1260295 L 7.7483643 0.89400228 L 7.722526 0.84542643 L 7.6630981 0.76636149 L 7.5876506 0.69453125 L 7.4972168 0.6330363 L 7.3938639 0.58187663 L 7.2822428 0.54105225 L 7.1804403 0.50952962 L 7.1024089 0.48834229 L 7.036263 0.47852376 L 6.9659831 0.478007 L 6.8946696 0.49092611 L 6.8264567 0.51624756 L 6.7675456 0.55345459 L 6.7194865 0.59686279 L 6.6802124 0.64853923 L 6.646106 0.71106771 L 6.6151001 0.78599854 L 6.5835775 0.87229818 L 6.549471 0.96014811 L 6.512264 1.0386963 L 6.4709229 1.1043254 L 6.4233805 1.1549683 L 6.3541341 1.190625 L 6.2549154 1.2087118 L 6.1479451 1.2149129 L 6.0461426 1.2112956 L 5.9469238 1.1999268 L 5.8492554 1.1797729 L 5.7634725 1.1472168 L 5.700944 1.0991577 L 5.6596029 1.0402466 L 5.6347982 0.97668457 L 5.6192952 0.91415609 L 5.6048258 0.85576172 L 5.5877726 0.79219971 L 5.565035 0.71571859 L 5.53868 0.63406982 L 5.5107747 0.56017253 L 5.4828695 0.49506022 L 5.4601318 0.43718262 L 5.4410116 0.38860677 L 5.4260254 0.34778239 L 5.4120728 0.315743 L 5.3970866 0.28887126 L 5.3779663 0.26768392 L 5.3526449 0.24701335 L 5.3071696 0.22117513 L 5.2327555 0.18655192 L 5.1392212 0.15192871 L 5.0369019 0.1245402 L 4.9232137 0.10645345 L 4.7955729 0.096634928 L 4.7966064 0.13022461 L 4.5216878 0.13487549 L 4.5206543 0.088883464 L 4.5134196 0.088366699 z " />
</svg>
