<?xml version="1.0" encoding="UTF-8" standalone="no"?>
<svg
   width="136.09998mm"
   height="75.124962mm"
   viewBox="0 0 136.09997 75.124963"
   version="1.1"
   id="svg1"
   sodipodi:docname="pcb-total.svg"
   inkscape:version="1.3 (0e150ed6c4, 2023-07-21)"
   xmlns:inkscape="http://www.inkscape.org/namespaces/inkscape"
   xmlns:sodipodi="http://sodipodi.sourceforge.net/DTD/sodipodi-0.dtd"
   xmlns="http://www.w3.org/2000/svg"
   xmlns:svg="http://www.w3.org/2000/svg">
  <defs
     id="defs1" />
  <sodipodi:namedview
     id="namedview1"
     pagecolor="#ffffff"
     bordercolor="#000000"
     borderopacity="0.25"
     inkscape:showpageshadow="2"
     inkscape:pageopacity="0.0"
     inkscape:pagecheckerboard="0"
     inkscape:deskcolor="#d1d1d1"
     inkscape:document-units="mm"
     inkscape:zoom="1.6946655"
     inkscape:cx="223.64295"
     inkscape:cy="133.65469"
     inkscape:window-width="1854"
     inkscape:window-height="1177"
     inkscape:window-x="58"
     inkscape:window-y="-8"
     inkscape:window-maximized="1"
     inkscape:current-layer="svg1" />
  <path
     id="pcb001_f0000"
     style="fill:#aa0000;fill-opacity:1;fill-rule:evenodd;stroke:none;stroke-width:3.67256;stroke-linecap:square;stroke-miterlimit:4;stroke-dasharray:none"
     d="m 1.8990971,46.243777 -0.4066813,1.095329 -0.62900129,2.109322 -0.45006057,2.08221 -0.27112091,2.049675 -0.0921812,2.055098 0.0921812,2.03883 v 0.0054 l 0.27112091,2.006296 0.45006057,1.957494 v 0.0054 l 0.62900129,1.892424 0.8025181,1.811089 0.9597688,1.708062 1.1224412,1.588771 1.2742691,1.447786 v 0.0054 l 1.4098295,1.295959 1.5399677,1.089907 1.6592608,0.905548 1.762287,0.721185 1.849046,0.520549 1.930382,0.319922 1.995451,0.119295 2.038831,-0.08132 2.071364,-0.287393 2.087633,-0.482596 2.93353,-0.824206 2.938953,-0.824206 2.938951,-0.818781 2.93353,-0.802518 2.938953,-0.775403 2.938952,-0.73745 2.93353,-0.688646 2.938953,-0.634419 2.93353,-0.563937 2.938953,-0.482596 2.938952,-0.395839 2.93353,-0.298232 2.938952,-0.184363 2.938953,-0.0596 h 2.93353 2.938952 l 2.938953,0.0596 2.93353,0.184363 2.938952,0.298232 2.938953,0.395839 2.93353,0.482596 2.938952,0.563937 2.938952,0.634419 2.93353,0.688646 2.938953,0.73745 2.933526,0.775403 2.93895,0.802518 2.93896,0.818781 2.93352,0.824206 2.93896,0.824206 2.08763,0.482596 2.07137,0.287393 v -0.0054 l 2.03882,0.08678 1.99004,-0.119296 1.93038,-0.319922 1.85446,-0.520548 1.7623,-0.721186 1.65925,-0.905548 1.53998,-1.089906 1.40982,-1.295959 v -0.0054 l 1.26885,-1.447787 1.12243,-1.58877 0.96515,-1.708062 0.80251,-1.811089 0.6236,-1.892425 v -0.0054 l 0.4555,-1.957494 0.27114,-2.006296 v -0.0054 l 0.0923,-2.038831 -0.0923,-2.055098 -0.27114,-2.049675 -0.4555,-2.08221 -0.6236,-2.109321 -0.40671,-1.09533 -1.36103,2.239461 -1.12244,1.409829 -1.26885,1.491166 -1.40982,1.458632 -1.54539,1.361027 -1.65384,1.003144 -1.76229,0.71576 -1.85447,0.525974 -1.93038,0.319922 -1.99003,0.119295 -2.03883,-0.08678 -2.07128,-0.287404 -2.08763,-0.482591 -2.93896,-0.818786 -2.93352,-0.824208 -2.93896,-0.818786 -2.93895,-0.802518 -2.933526,-0.775406 -2.938953,-0.742872 -2.93353,-0.688648 -2.938952,-0.634423 -2.938952,-0.563932 -2.93353,-0.482595 -2.938953,-0.395837 -2.938952,-0.298234 -2.93353,-0.184361 -2.938953,-0.06507 h -2.938952 -2.93353 l -2.938953,0.06506 -2.938952,0.184363 -2.93353,0.298233 -2.938952,0.395839 -2.938953,0.482595 -2.93353,0.563927 -2.938953,0.634418 -2.93353,0.688647 -2.938952,0.742875 -2.938953,0.775403 -2.93353,0.802517 -2.938951,0.818782 -2.938953,0.824206 -2.93353,0.818781 -2.087633,0.482595 -2.071364,0.287383 -2.038831,0.08678 -1.995451,-0.119274 -1.930382,-0.319922 -1.849046,-0.525976 -1.762287,-0.71576 L 8.60121,54.203891 7.0612423,52.842864 5.6514128,51.384233 4.3771437,49.893067 3.2547025,48.483237 Z m 68.0134329,11.750387 0.656108,0.06506 0.233165,0.07051 0.401264,0.12472 0.580202,0.309083 0.509709,0.417528 0.422953,0.509709 0.309082,0.585616 0.12472,0.406678 0.06506,0.222316 0.06506,0.656108 -0.06506,0.661533 -0.06506,0.216901 -0.12472,0.412103 -0.309082,0.580201 -0.422953,0.50971 -0.509709,0.422953 -0.580202,0.309082 -0.401264,0.12471 -0.233165,0.06506 -0.656108,0.06506 -0.656108,-0.06506 -0.629004,-0.189787 -0.178938,-0.09223 -0.406678,-0.216901 -0.509709,-0.422953 -0.417528,-0.509709 -0.309083,-0.580201 -0.195212,-0.629005 -0.06506,-0.661533 0.06506,-0.656108 0.195212,-0.629004 0.309083,-0.585616 0.417528,-0.509709 0.509709,-0.417528 0.406678,-0.216901 0.178938,-0.09223 0.629004,-0.195202 z" />
  <path
     id="pcb001_f0158"
     style="fill:#808080;fill-opacity:1;fill-rule:evenodd;stroke:none;stroke-width:3.67256;stroke-linecap:square;stroke-miterlimit:4;stroke-dasharray:none"
     d="m 65.113687,0.05016873 -3.004022,0.06506726 -3.242607,0.2006298 -3.421548,0.31992292 -1.198355,0.146405 -2.331642,0.27654369 -3.600488,0.5205527 -3.573376,0.5964667 -3.486617,0.6615349 -3.323944,0.7103369 -0.835056,0.2006298 -0.368725,0.092181 -1.876154,0.4500626 -2.792548,0.7699838 -2.548538,0.7808287 -2.375021,0.7916735 -2.288261,0.7916736 -2.26115,0.7916736 -1.637572,0.6723802 -1.670105,0.7808292 -1.72433,0.9706131 -1.800244,1.133286 -1.88158,1.274268 -1.849046,1.404408 -1.762287,1.523701 -1.659261,1.637571 -1.5399677,1.735175 -1.4098295,1.827355 -1.2742691,1.90327 -1.1224412,1.96834 -0.9597687,2.033408 -0.8025183,2.071365 -0.62900088,2.109322 -0.450061,2.082209 v 0.0054 l -0.2711209,2.049675 -0.0921812,2.055097 0.0921812,2.038831 0.2711209,2.011719 0.45006058,1.957494 0.6290013,1.892425 v 0.0054 l 0.4066813,0.883859 1.3556054,2.23946 1.1224412,1.40983 1.2742691,1.491166 1.4098295,1.458631 1.5399677,1.361027 1.6592613,1.003144 1.762287,0.715761 1.849046,0.525973 1.930382,0.319922 1.995451,0.119296 2.038831,-0.08678 2.071364,-0.287383 2.087633,-0.482595 2.93353,-0.818781 2.938953,-0.824207 2.938951,-0.818781 2.93353,-0.802517 2.938953,-0.775403 2.938952,-0.742875 2.93353,-0.688647 2.938953,-0.634419 2.93353,-0.563926 2.938953,-0.482595 2.938952,-0.395839 2.93353,-0.298233 2.938952,-0.184363 2.938953,-0.06506 h 2.93353 2.938952 l 2.938953,0.06506 2.93353,0.184363 2.938952,0.298233 2.938953,0.395839 2.93353,0.482595 2.938952,0.563926 2.938952,0.634419 2.93353,0.688647 2.938953,0.742875 2.933526,0.775403 2.93895,0.802517 2.93896,0.818781 2.93352,0.824207 2.93896,0.818781 2.08763,0.482595 2.07137,0.287383 2.03882,0.08678 1.99004,-0.119296 1.93038,-0.319922 1.85446,-0.525973 1.7623,-0.715761 1.65383,-1.003144 1.5454,-1.361027 1.40982,-1.458631 1.26885,-1.491166 1.12243,-1.40983 1.36103,-2.23946 0.40671,-0.889273 0.6236,-1.892426 0.45551,-1.957494 0.27114,-2.011719 0.0923,-2.03883 -0.0923,-2.055097 -0.27114,-2.049675 v -0.0054 l -0.45556,-2.082209 -0.62357,-2.109322 -0.80253,-2.071365 -0.96519,-2.033408 -1.12243,-1.96834 -1.26885,-1.90327 -1.40982,-1.827355 -1.5454,-1.735175 -1.65383,-1.637571 -1.7623,-1.523701 -1.85446,-1.404408 -1.87616,-1.274268 h -0.005 L 118.54623,10.640158 116.8219,9.6695449 115.15179,8.8887157 113.51421,8.2163355 111.24765,7.4246619 110.03844,7.0071354 109.6643,6.8769974 108.96481,6.6329883 106.58436,5.8413148 104.04125,5.0604861 101.2487,4.2905023 98.835726,3.7103032 98.163346,3.5476305 94.844823,2.8372934 91.358207,2.1757579 87.784831,1.5792915 84.184343,1.0587391 81.071874,0.68459198 80.648924,0.63579018 77.227377,0.31586737 73.990191,0.11523777 70.986169,0.05016873 H 68.047217 Z M 7.1371563,43.359049 l 0.3416131,0.03798 0.3145001,0.02707 0.634423,0.195212 0.3795695,0.200626 0.2006298,0.108446 0.5097082,0.417528 0.4229529,0.509709 0.2765441,0.520549 0.03253,0.06506 0.189787,0.629005 0.06506,0.656108 -0.06506,0.656108 -0.189787,0.634419 -0.03253,0.06506 -0.2765441,0.515134 -0.4229529,0.50971 -0.5097082,0.422953 -0.2006298,0.108445 -0.3795695,0.200627 -0.634423,0.189787 -0.3145001,0.03253 -0.3416131,0.03253 -0.6561132,-0.06506 -0.2331644,-0.07051 -0.3958369,-0.119295 -0.585622,-0.309083 -0.146405,-0.12472 -0.3633022,-0.298233 -0.4175269,-0.509709 -0.2385862,-0.444642 -0.070492,-0.135559 -0.195207,-0.634419 -0.065067,-0.656108 0.065067,-0.656108 0.195207,-0.629005 0.070492,-0.140984 0.2385862,-0.444642 0.4175269,-0.509709 0.3633022,-0.292808 0.146405,-0.12472 0.585622,-0.309083 0.3958369,-0.12472 0.2331644,-0.07051 z" />
  <path
     id="pcb001_f0000-4"
     style="fill:none;fill-opacity:1;fill-rule:evenodd;stroke:#191919;stroke-width:0.1;stroke-linecap:square;stroke-miterlimit:4;stroke-dasharray:none;stroke-opacity:1"
     d="m 65.113686,0.05 -3.004022,0.06505677 -3.242607,0.20062665 -3.421548,0.31992187 -1.198355,0.14640919 -2.331642,0.27654372 -3.600488,0.5205485 -3.573376,0.5964656 -3.486616,0.6615328 -3.323945,0.7103359 -0.835056,0.2006267 -0.368725,0.092129 -1.876154,0.4501372 -2.792547,0.7699835 -2.548539,0.7808291 -2.37502,0.7916736 -2.288262,0.7916726 -2.26115,0.7916736 -1.637571,0.6723805 -1.670105,0.7808294 -1.724331,0.9706128 -1.800244,1.133286 -1.88158,1.274268 -1.849046,1.404408 -1.762287,1.523701 -1.6592611,1.637571 -1.5399681,1.735175 -1.4098293,1.827356 -1.2742689,1.903269 -1.1224411,1.96834 -0.9597687,2.033408 -0.8025182,2.071365 -0.62900124,2.109322 -0.45006058,2.082209 v 0.0054 l -0.2711209,2.049675 -0.0921812,2.055098 0.0921812,2.038831 0.2711209,2.011718 0.45006058,1.957494 0.62900124,1.892425 v 0.0054 l 0.4066814,0.883859 -0.4066814,1.095329 -0.62900124,2.109322 -0.45006058,2.08221 -0.2711209,2.049676 -0.0921812,2.055097 0.0921812,2.038831 v 0.0054 l 0.2711209,2.0063 0.45006058,1.957495 v 0.0054 l 0.62900124,1.892428 0.8025182,1.811085 0.9597687,1.708066 1.1224411,1.58877 1.2742689,1.447786 v 0.0054 l 1.4098293,1.295963 1.5399681,1.0899 1.6592611,0.905548 1.762287,0.721186 1.849046,0.520559 1.930382,0.319932 1.995451,0.119306 2.038831,-0.08185 2.071365,-0.287404 2.087632,-0.482574 2.93353,-0.824227 2.938953,-0.824228 2.938951,-0.81877 2.93353,-0.802507 2.938953,-0.775435 2.938953,-0.73745 2.93353,-0.688657 2.938952,-0.634408 2.93353,-0.563895 2.938953,-0.482575 2.938953,-0.395797 2.93353,-0.298211 2.938951,-0.184363 2.938953,-0.05981 h 2.93353 2.938952 l 2.938953,0.05981 2.933527,0.184363 2.93896,0.298211 2.93895,0.395797 2.933524,0.482575 2.938961,0.563895 2.938949,0.634408 2.933525,0.688657 2.93896,0.73745 2.933523,0.775435 2.93895,0.802507 2.93896,0.81877 2.93352,0.824228 2.93895,0.824227 2.08764,0.482574 2.07137,0.287404 v -0.0049 l 2.03882,0.08709 1.99004,-0.119306 1.93038,-0.319932 1.85446,-0.520559 1.76229,-0.721186 1.65926,-0.905548 1.53996,-1.0899 1.40984,-1.295962 v -0.0054 l 1.26885,-1.447786 1.12243,-1.58877 0.96515,-1.708065 0.80251,-1.811086 0.6236,-1.892428 v -0.0054 l 0.4555,-1.957495 0.27114,-2.006299 v -0.0054 l 0.0923,-2.038831 -0.0923,-2.055097 -0.27114,-2.049676 -0.4555,-2.08221 -0.6236,-2.109322 -0.40671,-1.095329 0.40671,-0.889273 0.6236,-1.892426 0.4555,-1.957494 0.27114,-2.011718 0.0923,-2.03883 -0.0923,-2.055098 -0.27114,-2.049675 v -0.0057 l -0.45547,-2.082209 -0.62358,-2.109322 -0.80252,-2.071365 -0.96519,-2.033408 -1.12243,-1.96834 -1.26885,-1.903269 -1.40984,-1.827356 -1.54538,-1.735175 -1.65384,-1.637571 -1.76229,-1.523701 -1.85446,-1.404408 -1.87616,-1.274268 h -0.005 l -1.79482,-1.133286 -1.72433,-0.9706149 -1.6701,-0.780828 -1.63801,-0.6724109 -2.26656,-0.7916778 -1.20921,-0.417528 L 109.66426,6.8768229 108.9648,6.632818 106.58435,5.8411402 104.04124,5.0603122 101.24869,4.2903234 98.835714,3.710122 98.163331,3.5474487 94.844817,2.8371128 91.358194,2.17558 87.784815,1.5791144 84.184333,1.0585659 81.07186,0.68441602 80.648918,0.63562345 77.227362,0.31570158 73.99018,0.11507492 70.986158,0.05001816 h -2.938942 z m -57.9765313,43.30888 0.3416131,0.03798 0.3145001,0.02707 0.6344231,0.195212 0.3795694,0.200627 0.2006298,0.108445 0.5097082,0.417528 0.4229525,0.509709 0.2765441,0.520549 0.03253,0.06506 0.189788,0.629005 0.06506,0.656118 -0.06506,0.656108 -0.189788,0.634419 -0.03253,0.06506 -0.2765441,0.515134 -0.4229525,0.509709 -0.5097082,0.422953 -0.2006298,0.108446 -0.3795694,0.200626 -0.6344231,0.189788 -0.3145001,0.03253 -0.3416131,0.03253 -0.6561121,-0.06506 -0.2331645,-0.07051 -0.3958368,-0.119295 -0.5856221,-0.309082 -0.146405,-0.12472 -0.3633021,-0.298233 -0.4175269,-0.509709 -0.2385863,-0.444642 -0.070492,-0.13556 -0.195207,-0.634419 -0.065067,-0.656108 0.065067,-0.656118 0.195207,-0.629004 0.070492,-0.140985 0.2385863,-0.444642 0.4175269,-0.509709 0.3633021,-0.292808 0.146405,-0.12471 0.5856221,-0.309082 0.3958368,-0.12472 0.2331645,-0.07051 z m 62.7753743,14.635113 0.656108,0.06506 0.233165,0.0703 0.401264,0.124762 0.580202,0.309125 0.509709,0.417517 0.422953,0.509752 0.309082,0.585615 0.12472,0.40671 0.06506,0.222347 0.06506,0.656129 -0.06506,0.661586 -0.06506,0.21689 -0.12472,0.412061 -0.309082,0.58016 -0.422953,0.509751 -0.509709,0.422974 -0.580202,0.309125 -0.401264,0.124657 -0.233165,0.06506 -0.656108,0.06506 -0.656108,-0.06506 -0.629004,-0.189818 -0.178938,-0.09234 -0.406678,-0.216891 -0.509709,-0.422974 -0.417528,-0.509751 -0.309083,-0.580159 -0.195212,-0.628952 -0.06506,-0.661586 0.06506,-0.656129 0.195212,-0.628952 0.309083,-0.585615 0.417528,-0.509752 0.509709,-0.417517 0.406678,-0.216891 0.178938,-0.09234 0.629004,-0.195171 z" />
</svg>
