<?xml version="1.0" encoding="UTF-8" standalone="no"?>
<svg
   width="136.09998mm"
   height="75.124962mm"
   viewBox="0 0 136.09997 75.124963"
   version="1.1"
   id="svg1"
   sodipodi:docname="pcb-silk.svg"
   inkscape:version="1.3 (0e150ed6c4, 2023-07-21)"
   xmlns:inkscape="http://www.inkscape.org/namespaces/inkscape"
   xmlns:sodipodi="http://sodipodi.sourceforge.net/DTD/sodipodi-0.dtd"
   xmlns="http://www.w3.org/2000/svg"
   xmlns:svg="http://www.w3.org/2000/svg">
  <defs
     id="defs1" />
  <sodipodi:namedview
     id="namedview1"
     pagecolor="#ffffff"
     bordercolor="#000000"
     borderopacity="0.25"
     inkscape:showpageshadow="2"
     inkscape:pageopacity="0.0"
     inkscape:pagecheckerboard="0"
     inkscape:deskcolor="#d1d1d1"
     inkscape:document-units="mm"
     inkscape:zoom="1.6946655"
     inkscape:cx="223.64295"
     inkscape:cy="133.06461"
     inkscape:window-width="1854"
     inkscape:window-height="1177"
     inkscape:window-x="58"
     inkscape:window-y="-8"
     inkscape:window-maximized="1"
     inkscape:current-layer="svg1" />
  <path
     id="pcb001_f0158"
     style="fill:#808080;fill-opacity:1;fill-rule:evenodd;stroke:none;stroke-width:3.67256;stroke-linecap:square;stroke-miterlimit:4;stroke-dasharray:none"
     d="m 65.113687,0.05016873 -3.004022,0.06506726 -3.242607,0.2006298 -3.421548,0.31992292 -1.198355,0.146405 -2.331642,0.27654369 -3.600488,0.5205527 -3.573376,0.5964667 -3.486617,0.6615349 -3.323944,0.7103369 -0.835056,0.2006298 -0.368725,0.092181 -1.876154,0.4500626 -2.792548,0.7699838 -2.548538,0.7808287 -2.375021,0.7916735 -2.288261,0.7916736 -2.26115,0.7916736 -1.637572,0.6723802 -1.670105,0.7808292 -1.72433,0.9706131 -1.800244,1.133286 -1.88158,1.274268 -1.849046,1.404408 -1.762287,1.523701 -1.659261,1.637571 -1.5399677,1.735175 -1.4098295,1.827355 -1.2742691,1.90327 -1.1224412,1.96834 -0.9597687,2.033408 -0.8025183,2.071365 -0.62900088,2.109322 -0.450061,2.082209 v 0.0054 l -0.2711209,2.049675 -0.0921812,2.055097 0.0921812,2.038831 0.2711209,2.011719 0.45006058,1.957494 0.6290013,1.892425 v 0.0054 l 0.4066813,0.883859 1.3556054,2.23946 1.1224412,1.40983 1.2742691,1.491166 1.4098295,1.458631 1.5399677,1.361027 1.6592613,1.003144 1.762287,0.715761 1.849046,0.525973 1.930382,0.319922 1.995451,0.119296 2.038831,-0.08678 2.071364,-0.287383 2.087633,-0.482595 2.93353,-0.818781 2.938953,-0.824207 2.938951,-0.818781 2.93353,-0.802517 2.938953,-0.775403 2.938952,-0.742875 2.93353,-0.688647 2.938953,-0.634419 2.93353,-0.563926 2.938953,-0.482595 2.938952,-0.395839 2.93353,-0.298233 2.938952,-0.184363 2.938953,-0.06506 h 2.93353 2.938952 l 2.938953,0.06506 2.93353,0.184363 2.938952,0.298233 2.938953,0.395839 2.93353,0.482595 2.938952,0.563926 2.938952,0.634419 2.93353,0.688647 2.938953,0.742875 2.933526,0.775403 2.93895,0.802517 2.93896,0.818781 2.93352,0.824207 2.93896,0.818781 2.08763,0.482595 2.07137,0.287383 2.03882,0.08678 1.99004,-0.119296 1.93038,-0.319922 1.85446,-0.525973 1.7623,-0.715761 1.65383,-1.003144 1.5454,-1.361027 1.40982,-1.458631 1.26885,-1.491166 1.12243,-1.40983 1.36103,-2.23946 0.40671,-0.889273 0.6236,-1.892426 0.45551,-1.957494 0.27114,-2.011719 0.0923,-2.03883 -0.0923,-2.055097 -0.27114,-2.049675 v -0.0054 l -0.45556,-2.082209 -0.62357,-2.109322 -0.80253,-2.071365 -0.96519,-2.033408 -1.12243,-1.96834 -1.26885,-1.90327 -1.40982,-1.827355 -1.5454,-1.735175 -1.65383,-1.637571 -1.7623,-1.523701 -1.85446,-1.404408 -1.87616,-1.274268 h -0.005 L 118.54623,10.640158 116.8219,9.6695449 115.15179,8.8887157 113.51421,8.2163355 111.24765,7.4246619 110.03844,7.0071354 109.6643,6.8769974 108.96481,6.6329883 106.58436,5.8413148 104.04125,5.0604861 101.2487,4.2905023 98.835726,3.7103032 98.163346,3.5476305 94.844823,2.8372934 91.358207,2.1757579 87.784831,1.5792915 84.184343,1.0587391 81.071874,0.68459198 80.648924,0.63579018 77.227377,0.31586737 73.990191,0.11523777 70.986169,0.05016873 H 68.047217 Z M 7.1371563,43.359049 l 0.3416131,0.03798 0.3145001,0.02707 0.634423,0.195212 0.3795695,0.200626 0.2006298,0.108446 0.5097082,0.417528 0.4229529,0.509709 0.2765441,0.520549 0.03253,0.06506 0.189787,0.629005 0.06506,0.656108 -0.06506,0.656108 -0.189787,0.634419 -0.03253,0.06506 -0.2765441,0.515134 -0.4229529,0.50971 -0.5097082,0.422953 -0.2006298,0.108445 -0.3795695,0.200627 -0.634423,0.189787 -0.3145001,0.03253 -0.3416131,0.03253 -0.6561132,-0.06506 -0.2331644,-0.07051 -0.3958369,-0.119295 -0.585622,-0.309083 -0.146405,-0.12472 -0.3633022,-0.298233 -0.4175269,-0.509709 -0.2385862,-0.444642 -0.070492,-0.135559 -0.195207,-0.634419 -0.065067,-0.656108 0.065067,-0.656108 0.195207,-0.629005 0.070492,-0.140984 0.2385862,-0.444642 0.4175269,-0.509709 0.3633022,-0.292808 0.146405,-0.12472 0.585622,-0.309083 0.3958369,-0.12472 0.2331644,-0.07051 z" />
</svg>
