<?xml version="1.0" encoding="UTF-8" standalone="no"?>
<svg
   width="149.59999mm"
   height="82.576561mm"
   viewBox="0 0 149.59998 82.576562"
   version="1.1"
   id="svg1"
   sodipodi:docname="pcb-total.svg"
   inkscape:version="1.3.2 (091e20e, 2023-11-25, custom)"
   xmlns:inkscape="http://www.inkscape.org/namespaces/inkscape"
   xmlns:sodipodi="http://sodipodi.sourceforge.net/DTD/sodipodi-0.dtd"
   xmlns="http://www.w3.org/2000/svg"
   xmlns:svg="http://www.w3.org/2000/svg">
  <defs
     id="defs1" />
  <sodipodi:namedview
     id="namedview1"
     pagecolor="#ffffff"
     bordercolor="#000000"
     borderopacity="0.25"
     inkscape:showpageshadow="2"
     inkscape:pageopacity="0.0"
     inkscape:pagecheckerboard="0"
     inkscape:deskcolor="#d1d1d1"
     inkscape:document-units="mm"
     inkscape:zoom="2.0000001"
     inkscape:cx="282.99999"
     inkscape:cy="160.75"
     inkscape:window-width="1920"
     inkscape:window-height="1017"
     inkscape:window-x="-8"
     inkscape:window-y="-8"
     inkscape:window-maximized="1"
     inkscape:current-layer="layer1" />
  <path
     id="pcb001_f0000"
     style="display:inline;fill:#aa0000;fill-opacity:1;fill-rule:evenodd;stroke:none;stroke-width:4.03685;stroke-linecap:square;stroke-miterlimit:4;stroke-dasharray:none"
     d="m 2.0874723,50.83079 -0.4470209,1.203977 -0.69139318,2.31855 -0.49470298,2.288748 -0.29801394,2.252987 -0.10132484,2.258947 0.10132484,2.241066 v 0.0059 l 0.29801394,2.205305 0.49470298,2.151662 v 0.0059 l 0.69139318,2.080138 0.8821215,1.990734 1.0549702,1.877488 1.2337784,1.746365 1.4006664,1.591394 v 0.0059 l 1.5496733,1.424508 1.6927202,1.198017 1.8238466,0.995371 1.937091,0.792721 2.032457,0.572183 2.121861,0.351656 2.193383,0.131128 2.241067,-0.08939 2.276827,-0.3159 2.294709,-0.530466 3.224513,-0.905961 3.230474,-0.90596 3.230471,-0.899998 3.224513,-0.882121 3.230474,-0.852317 3.230472,-0.810599 3.224513,-0.756954 3.230473,-0.697349 3.224513,-0.619875 3.230474,-0.530465 3.230472,-0.435103 3.224513,-0.327815 3.230473,-0.20265 3.230473,-0.06551 h 3.224513 3.230473 l 3.230473,0.06551 3.224513,0.20265 3.230472,0.327815 3.230474,0.435103 3.224513,0.530465 3.230472,0.619875 3.230473,0.697349 3.22451,0.756954 3.23048,0.810599 3.2245,0.852317 3.23047,0.882121 3.23049,0.899998 3.2245,0.90596 3.23048,0.905961 2.29471,0.530466 2.27683,0.3159 v -0.0059 l 2.24105,0.09539 2.18744,-0.131129 2.12186,-0.351656 2.03841,-0.572182 1.9371,-0.792722 1.82384,-0.995371 1.69273,-1.198016 1.54966,-1.424508 v -0.0059 l 1.39471,-1.591396 1.23377,-1.746363 1.06088,-1.877488 0.88212,-1.990734 0.68545,-2.080139 v -0.0059 l 0.50068,-2.151661 0.29804,-2.205305 v -0.0059 l 0.10145,-2.241067 -0.10145,-2.258947 -0.29804,-2.252987 -0.50068,-2.288748 -0.68545,-2.318549 -0.44706,-1.203978 -1.49603,2.461597 -1.23378,1.549673 -1.39471,1.639078 -1.54966,1.603317 -1.69868,1.49603 -1.81789,1.102647 -1.93709,0.786758 -2.03842,0.578147 -2.12186,0.351655 -2.18742,0.131128 -2.24107,-0.09539 -2.27673,-0.315912 -2.29471,-0.53046 -3.23048,-0.900003 -3.2245,-0.905963 -3.23049,-0.900003 -3.23047,-0.882121 -3.2245,-0.85232 -3.23048,-0.816559 -3.22451,-0.756957 -3.230473,-0.697352 -3.230472,-0.61987 -3.224513,-0.530464 -3.230474,-0.435101 -3.230472,-0.327817 -3.224513,-0.202648 -3.230473,-0.07152 h -3.230473 -3.224513 l -3.230473,0.07151 -3.230473,0.202651 -3.224513,0.327815 -3.230472,0.435103 -3.230474,0.530464 -3.224513,0.619865 -3.230473,0.697347 -3.224513,0.756955 -3.230472,0.816562 -3.230474,0.852317 -3.224513,0.88212 -3.230471,0.899999 -3.230474,0.905961 -3.224513,0.899997 -2.294709,0.530465 -2.276827,0.315889 -2.241067,0.09539 L 17.369637,62.399728 15.247776,62.048072 13.215319,61.469923 11.278228,60.683166 9.4543812,59.580484 7.761661,58.084454 6.2119877,56.481138 4.8113213,54.84206 3.5775429,53.292387 Z m 74.7598217,12.915931 0.721189,0.07151 0.256293,0.0775 0.441066,0.137091 0.637753,0.339742 0.560269,0.458943 0.464906,0.560268 0.339741,0.643705 0.137091,0.447017 0.07151,0.244368 0.07151,0.721189 -0.07151,0.727151 -0.07151,0.238416 -0.137091,0.45298 -0.339741,0.637753 -0.464906,0.560269 -0.560269,0.464906 -0.637753,0.339741 -0.441066,0.13708 -0.256293,0.07151 -0.721189,0.07151 -0.721189,-0.07151 -0.691396,-0.208613 -0.196687,-0.101378 -0.447017,-0.238416 -0.560268,-0.464907 -0.458944,-0.560268 -0.339741,-0.637752 -0.214576,-0.691397 -0.07151,-0.727152 0.07151,-0.721189 0.214576,-0.691396 0.339741,-0.643704 0.458944,-0.560268 0.560268,-0.458944 0.447017,-0.238416 0.196687,-0.101378 0.691396,-0.214565 z" />
  <path
     id="pcb001_f0158"
     style="display:inline;fill:#808080;fill-opacity:1;fill-rule:evenodd;stroke:none;stroke-width:4.03685;stroke-linecap:square;stroke-miterlimit:4;stroke-dasharray:none"
     d="m 71.572375,0.05529378 -3.302124,0.07131348 -3.564123,0.22065836 -3.761011,0.35139974 -1.317232,0.16123047 -2.562634,0.30385747 -3.957898,0.5720581 -3.927926,0.6557739 -3.832324,0.7270874 -3.653524,0.7808309 -0.917773,0.2206583 -0.40566,0.1012859 -2.06189,0.4945434 -3.06958,0.84646 -2.801379,0.8583455 -2.610694,0.8702311 -2.515092,0.8702312 -2.485636,0.8702311 -1.79989,0.738973 -1.836064,0.8583459 -1.894975,1.066601 -1.979207,1.245919 -2.068091,1.400431 -2.032434,1.544092 -1.936833,1.674833 -1.8241777,1.79989 L 7.7618001,21.267952 6.2120239,23.276615 4.8110758,25.368477 3.5775594,27.53217 2.5223267,29.767175 1.64021,32.044039 0.94929606,34.36276 0.45423584,36.65151 v 0.0057 l -0.29765625,2.253092 -0.10180257,2.258777 0.10180257,2.241207 0.29765625,2.211235 0.49506022,2.151806 0.69091394,2.079977 v 0.0057 l 0.4475179,0.971517 1.4898315,2.461865 1.2335164,1.549777 1.4009481,1.638659 1.5497762,1.60352 1.6924032,1.496033 1.8241777,1.102775 1.936833,0.786515 2.032434,0.578259 2.121834,0.351917 2.193665,0.130741 2.24069,-0.09508 2.276864,-0.316259 2.29495,-0.5302 3.224609,-0.900204 3.230294,-0.905888 3.230294,-0.899686 3.224609,-0.882117 3.230811,-0.852661 3.230294,-0.816488 3.224609,-0.75706 3.230294,-0.697115 3.224609,-0.620117 3.230294,-0.5302 3.230811,-0.435116 3.224092,-0.328145 3.230811,-0.202572 3.230293,-0.07131 h 3.22461 3.230294 l 3.23081,0.07131 3.224093,0.202572 3.23081,0.328145 3.230294,0.435116 3.22461,0.5302 3.230293,0.620117 3.230811,0.697115 3.22409,0.75706 3.23081,0.816488 3.22461,0.852661 3.2303,0.882117 3.23029,0.899686 3.22461,0.905888 3.23029,0.900204 2.29495,0.5302 2.27687,0.316259 2.2412,0.09508 2.18747,-0.130741 2.12183,-0.351917 2.03812,-0.578259 1.93735,-0.786515 1.81798,-1.102775 1.6986,-1.496033 1.54926,-1.60352 1.39475,-1.638659 1.23403,-1.549777 1.49603,-2.461865 0.447,-0.977201 0.68523,-2.080493 0.50075,-2.15129 0.29817,-2.211235 0.10129,-2.241207 -0.10129,-2.258777 -0.29817,-2.253092 v -0.0062 l -0.50075,-2.288749 -0.68523,-2.318205 -0.88211,-2.276864 -1.06092,-2.235005 -1.23403,-2.163693 -1.39475,-2.092378 -1.54926,-2.008147 -1.6986,-1.907377 -1.81798,-1.79989 -1.93735,-1.674833 -2.03812,-1.544092 -2.0624,-1.400431 h -0.006 l -1.9727,-1.245952 -1.89549,-1.066601 -1.83554,-0.8583459 -1.80041,-0.738973 L 122.28246,8.161259 120.95334,7.7023722 120.542,7.5592285 119.77305,7.2910278 117.15667,6.4207967 114.36149,5.5624512 111.29191,4.7159912 108.63936,4.078304 107.90039,3.8995036 104.25255,3.1186727 100.42023,2.3915853 96.492301,1.7358114 92.53492,1.1637533 89.113424,0.75240885 88.648853,0.69866536 84.887842,0.34726562 81.329403,0.12660726 78.027279,0.05529378 H 74.796985 Z M 7.3768107,45.122827 l 0.3751709,0.04134 0.3457153,0.02997 0.6976319,0.214457 0.4170288,0.220658 0.2206584,0.119373 0.5601725,0.458886 0.4650875,0.560173 0.303858,0.572058 0.03566,0.07183 0.208772,0.691431 0.07131,0.720886 -0.07131,0.721403 -0.208772,0.697115 -0.03566,0.07183 -0.303858,0.565856 -0.4650875,0.560173 -0.5601725,0.465088 -0.2206584,0.119372 -0.4170288,0.220659 -0.6976319,0.208256 -0.3457153,0.03566 -0.039791,0.0036 -0.3353801,0.03256 -0.721403,-0.07183 -0.2563149,-0.0775 L 5.9639771,52.24539 5.3206055,51.905359 5.159375,51.768416 4.7599162,51.440271 4.3010295,50.880098 4.0390299,50.391239 3.9615153,50.242411 3.7470581,49.545296 l -0.07183,-0.721403 0.07183,-0.721403 0.2144572,-0.690914 0.077515,-0.155029 0.2619996,-0.488859 0.2268595,-0.276469 0.2320272,-0.283704 0.3994588,-0.321944 0.1612305,-0.136942 0.6433716,-0.340031 0.4351155,-0.136943 0.2563151,-0.07751 z"
     inkscape:label="Silk" />
  <path
     id="path13"
     style="display:inline;vector-effect:non-scaling-stroke;fill:#1a661f;fill-opacity:1;fill-rule:evenodd;stroke:#000000;stroke-width:0.264583;stroke-linecap:square;-inkscape-stroke:hairline"
     d="m 71.572375,0.05529378 -3.302124,0.07131348 -3.564123,0.22065836 -3.761011,0.35139974 -1.317232,0.16123047 -2.562634,0.30385747 -3.957898,0.5720581 -3.927926,0.6557739 -3.832324,0.7270874 -3.653524,0.7808309 -0.917773,0.2206583 -0.40566,0.1012859 -2.06189,0.4945434 -3.06958,0.84646 -2.801379,0.8583455 -2.610694,0.8702311 -2.515092,0.8702312 -2.485636,0.8702311 -1.79989,0.738973 -1.836064,0.8583459 -1.894975,1.066601 -1.979207,1.245919 -2.068091,1.400431 -2.032434,1.544092 -1.936833,1.674833 -1.8241777,1.79989 L 7.7618001,21.267952 6.2120239,23.276615 4.8110758,25.368477 3.5775594,27.53217 2.5223267,29.767175 1.64021,32.044039 0.94929606,34.36276 0.45423584,36.65151 v 0.0057 l -0.29765625,2.253092 -0.10180257,2.258777 0.10180257,2.241207 0.29765625,2.211235 0.49506022,2.151806 0.69091394,2.079977 v 0.0057 l 0.4475179,0.971517 1.4898315,2.461865 1.2335164,1.549777 1.4009481,1.638659 1.5497762,1.60352 1.6924032,1.496033 1.8241777,1.102775 1.936833,0.786515 2.032434,0.578259 2.121834,0.351917 2.193665,0.130741 1.0604,-0.04496 c -0.06655,0.07441 -0.135796,0.128422 -0.202054,0.208772 -0.08794,0.106648 -0.150891,0.235 -0.20929,0.358118 -0.106197,0.223975 -0.189078,0.455249 -0.254765,0.688847 -0.0676,0.240514 -0.117036,0.485122 -0.142627,0.730705 -0.026,0.24957 -0.03436,0.501228 -0.01033,0.750858 0.02511,0.259983 0.08634,0.51818 0.160714,0.772046 0.07302,0.24911 0.168158,0.493919 0.279569,0.733805 0.104819,0.225631 0.231083,0.444552 0.364319,0.660425 0.132266,0.214288 0.280142,0.423075 0.430981,0.629419 0.162255,0.221969 0.318132,0.508365 0.448035,0.683679 0.04828,0.05724 0.15206,0.220048 0.207739,0.272852 0.809156,0.666081 2.355293,1.810649 3.197738,2.444295 0.24843,0.187014 0.952187,0.410102 1.242818,0.484725 0.364696,0.09364 0.732022,0.204018 1.108976,0.273885 0.470347,0.08721 0.950428,0.140294 1.430921,0.179317 0.549444,0.04464 1.102301,0.06389 1.654679,0.06253 0.578689,-0.0014 1.158743,-0.02485 1.734261,-0.0739 0.579597,-0.04936 1.157659,-0.120035 1.72651,-0.221692 0.555426,-0.09928 1.10366,-0.226076 1.64021,-0.377755 0.494138,-0.139694 0.984057,-0.295154 1.449007,-0.488342 0.185735,-0.07717 0.930755,-0.441369 1.228866,-0.649573 0.298109,-0.208205 1.452634,-1.565664 1.630391,-2.086178 0.177757,-0.520509 0.217015,-0.762654 0.233577,-0.930692 0.02611,-0.263875 0.03522,-0.528649 0.04393,-0.793233 0.01023,-0.306321 0.0103,-0.612916 0.0098,-0.919324 -1.36e-4,-0.323918 -0.01305,-0.647618 -0.0098,-0.971517 0.003,-0.29776 -0.0034,-0.596341 0.02946,-0.892969 0.02679,-0.238286 0.07112,-0.475851 0.135909,-0.709517 0.05385,-0.194287 0.126453,-0.385356 0.20929,-0.573092 0.07741,-0.175545 0.165109,-0.348926 0.268717,-0.515731 0.100549,-0.161851 0.208349,-0.322272 0.341064,-0.468705 0.127648,-0.140866 0.280236,-0.267033 0.434082,-0.390157 0.147314,-0.117861 0.305843,-0.226203 0.466639,-0.332279 0.151117,-0.09971 0.303879,-0.199218 0.467671,-0.285254 0.184927,-0.09713 0.377674,-0.185474 0.578776,-0.259416 0.257047,-0.09447 0.525996,-0.167999 0.796851,-0.233577 0.300522,-0.07271 0.608239,-0.127811 0.916223,-0.176734 0.327172,-0.052 0.657526,-0.08873 0.988054,-0.12454 0.337443,-0.03654 0.67756,-0.05804 1.015441,-0.09198 0.330016,-0.03312 0.659748,-0.06907 0.988571,-0.109037 0.323692,-0.0394 0.646265,-0.08254 0.968416,-0.129191 0.310517,-0.04495 0.620166,-0.09554 0.929659,-0.144694 0.265975,-0.04221 0.530076,-0.09282 0.797367,-0.129192 0.194607,-0.02646 0.389353,-0.05103 0.586011,-0.06459 0.144602,-0.0095 0.290166,-0.017 0.435116,-0.01189 0.121778,0.0046 0.243867,0.01605 0.363285,0.03514 0.109742,0.01753 0.220196,0.03711 0.322978,0.07235 0.101428,0.03486 0.204831,0.07428 0.28422,0.135393 0.110871,0.08523 0.185747,0.198534 0.251664,0.309541 0.109305,0.184096 0.165958,0.385216 0.232544,0.581877 0.09091,0.268138 0.159138,0.541446 0.22686,0.813904 0.08091,0.325746 0.145967,0.653253 0.214457,0.980819 0.07714,0.368736 0.119238,0.74309 0.221175,1.107942 0.249254,0.891746 0.81132,2.062923 0.81132,2.062923 l 3.581693,2.042253 c 0,0 1.53813,0.316152 2.11615,0.327112 0.560581,0.0106 1.122458,-0.01732 1.681552,-0.05271 0.498443,-0.03149 0.994426,-0.08497 1.489314,-0.14211 0.410219,-0.04739 0.817217,-0.111071 1.225765,-0.166915 0.314174,-0.04296 0.630222,-0.07658 0.942062,-0.129191 0.157124,-0.02652 0.768502,-0.242927 1.032495,-0.356051 0.263991,-0.113124 1.243151,-0.768309 1.586983,-1.037663 0.343833,-0.26935 1.082297,-1.104253 1.156519,-1.224214 0.156646,-0.253206 0.2895,-0.515338 0.432531,-0.773596 0.138726,-0.250445 0.277325,-0.501221 0.412378,-0.752926 0.131336,-0.244719 0.256121,-0.491532 0.387057,-0.736389 0.120372,-0.225173 0.240222,-0.450876 0.366902,-0.673861 0.120416,-0.212033 0.24072,-0.423705 0.373621,-0.630969 0.133878,-0.208819 0.278604,-0.413158 0.426331,-0.615983 0.147655,-0.202715 0.29727,-0.404889 0.459403,-0.60048 0.164104,-0.19801 0.32181,-0.401858 0.518831,-0.57981 0.232745,-0.210192 0.492689,-0.404586 0.776697,-0.569991 0.379233,-0.220859 0.794676,-0.404165 1.224215,-0.555522 0.532318,-0.187583 1.092987,-0.326179 1.659847,-0.430981 0.644192,-0.119091 1.306212,-0.170275 1.964221,-0.221692 0.608914,-0.04756 1.220985,-0.0641 1.832446,-0.07958 0.445943,-0.01151 0.892707,-0.02513 1.33842,-0.0098 0.313274,0.01066 0.62924,0.02024 0.936377,0.07028 0.25797,0.04203 0.513782,0.103154 0.752409,0.191719 0.2524,0.09365 0.486303,0.219214 0.706933,0.354501 0.26718,0.163818 0.508481,0.354079 0.740007,0.54932 0.256027,0.21591 0.491875,0.447274 0.714168,0.685746 0.22406,0.240369 0.432842,0.490905 0.622701,0.749309 0.190533,0.259319 0.362535,0.527255 0.516764,0.801501 0.150932,0.268397 0.277803,0.545216 0.398426,0.823206 0.118556,0.273112 0.219677,0.55102 0.31936,0.82889 0.104722,0.292231 0.197949,0.587244 0.293005,0.8816 0.08681,0.26885 0.171021,0.537913 0.253215,0.807702 0.06178,0.202565 0.11374,0.407066 0.179834,0.608749 0.05487,0.167224 0.108109,0.335575 0.179834,0.498677 0.07235,0.164389 0.156936,0.32557 0.252698,0.482141 0.09472,0.154923 0.196135,0.308166 0.31781,0.450619 0.115952,0.135751 0.239154,0.270622 0.390157,0.382405 0.192798,0.142732 0.419019,0.255365 0.646989,0.360185 0.338672,0.15569 0.70039,0.279136 1.062984,0.395842 0.43991,0.141582 0.890722,0.263276 1.346688,0.367936 0.481783,0.110583 0.971666,0.1975 1.463993,0.273368 0.51316,0.07907 1.031529,0.13793 1.550293,0.189136 0.530291,0.05231 1.06302,0.09306 1.596285,0.120923 0.484989,0.02536 0.970703,0.03841 1.456759,0.04237 0.364826,0.0028 0.730132,0.0012 1.094507,-0.01447 0.27789,-0.01162 0.555739,-0.03244 0.83199,-0.05943 0,0 1.197199,-0.317831 1.662939,-0.595829 0.46576,-0.278002 1.63425,-1.271462 1.65882,-1.302246 0.23696,-0.296889 0.4887,-0.586193 0.72243,-0.884701 0.25273,-0.322755 0.47937,-0.658413 0.73484,-0.979785 0.24409,-0.307084 0.47968,-0.620129 0.76171,-0.905888 0.24239,-0.245647 0.50809,-0.478057 0.79582,-0.690397 0.25984,-0.191724 0.54301,-0.363395 0.83509,-0.522966 0.28212,-0.154158 0.57621,-0.296942 0.88264,-0.418062 0.31824,-0.125789 0.64569,-0.241489 0.98753,-0.318327 0.35587,-0.08 0.72484,-0.130428 1.09399,-0.145727 0.36736,-0.01524 0.74072,-0.0033 1.10123,0.05426 0.36311,0.05807 0.71627,0.161946 1.04955,0.290422 0.31481,0.121346 0.61383,0.272422 0.8847,0.448551 0.23826,0.154898 0.4565,0.333142 0.64182,0.52865 0.17253,0.181991 0.30843,0.385859 0.43046,0.592212 0.12473,0.210833 0.22573,0.430951 0.30541,0.655257 0.0841,0.236793 0.13722,0.480764 0.18035,0.724504 0.0452,0.255643 0.0666,0.513594 0.0816,0.771529 0.0155,0.264071 0.0104,0.528853 0.01,0.793233 -9.8e-4,0.257423 -0.0206,0.515146 -0.0171,0.772563 0.003,0.247012 0.002,0.494391 0.0351,0.740006 0.0315,0.236679 0.0723,0.474562 0.15452,0.703316 0.0828,0.230276 0.19043,0.457483 0.33796,0.66611 0.16106,0.227737 0.36773,0.434942 0.58911,0.627868 0.24757,0.215759 0.53,0.406466 0.81959,0.586011 0.32444,0.201167 0.67334,0.37639 1.02371,0.54777 0.36957,0.180774 0.75444,0.341482 1.13585,0.505912 0.3802,0.163908 0.76658,0.31881 1.14928,0.479041 0.37222,0.155884 0.74741,0.307533 1.1157,0.469222 0.36027,0.158165 0.71157,0.328669 1.0697,0.489893 0.3638,0.163779 0.7245,0.332329 1.09606,0.484724 0.39216,0.160838 0.78838,0.316038 1.19476,0.452686 0.43222,0.145352 0.87206,0.279711 1.32033,0.390157 0.46778,0.115261 0.94337,0.211939 1.42472,0.283704 0.45295,0.06757 0.91139,0.122999 1.37201,0.136942 0.39346,0.01191 0.79012,-0.0026 1.18029,-0.04547 0.32807,-0.03601 0.65126,-0.09923 0.9679,-0.176733 0.26346,-0.06449 0.52745,-0.136385 0.77101,-0.239262 0.0457,-0.01926 0.0826,-0.04821 0.12712,-0.07028 0,0 1.04777,-0.613662 1.21698,-1.745113 l -2.34507,-2.87166 c -0.14951,-0.04063 -0.28799,-0.103122 -0.43977,-0.135392 -0.47495,-0.100964 -0.96695,-0.149212 -1.45728,-0.178284 -0.53472,-0.0317 -1.07259,-0.0056 -1.60868,0.0052 -0.55199,0.01187 -1.10317,0.05389 -1.6552,0.06356 -0.52956,0.0088 -1.06028,0.0251 -1.58853,-0.0052 -0.47614,-0.02719 -0.95626,-0.06215 -1.418,-0.15813 -0.39988,-0.08315 -0.78896,-0.205957 -1.15497,-0.358634 -0.30114,-0.125614 -0.58597,-0.278831 -0.84543,-0.453719 -0.20279,-0.136687 -0.38982,-0.291397 -0.5488,-0.460954 -0.1348,-0.143789 -0.24041,-0.303822 -0.33797,-0.465604 -0.0948,-0.157294 -0.16865,-0.323128 -0.23926,-0.488343 -0.0662,-0.15519 -0.11903,-0.313615 -0.17311,-0.471806 -0.0476,-0.139249 -0.0912,-0.279757 -0.13333,-0.420129 -0.0424,-0.141251 -0.0827,-0.282632 -0.11989,-0.42478 -0.0432,-0.163949 -0.0835,-0.328076 -0.12041,-0.492993 -0.0466,-0.207659 -0.0867,-0.41689 -0.12764,-0.625285 -0.0303,-0.153842 -0.0446,-0.309531 -0.0873,-0.461471 -0.14768,-0.526403 -0.32949,-1.047615 -0.53692,-1.561662 l -2.16266,-2.648417 c -0.0862,-0.05982 -0.16006,-0.130261 -0.24908,-0.187068 -0.20561,-0.131214 -0.43454,-0.236744 -0.65525,-0.351917 l 1.95905,0.545703 3.22461,0.905888 3.23029,0.900204 2.29495,0.5302 2.27687,0.316259 2.2412,0.09508 2.18747,-0.130741 2.12183,-0.351917 2.03812,-0.578259 1.93735,-0.786515 1.81798,-1.102775 1.6986,-1.496033 1.54926,-1.60352 1.39475,-1.638659 1.23403,-1.549777 1.49603,-2.461865 0.447,-0.977201 0.68523,-2.080493 0.50075,-2.15129 0.29817,-2.211235 0.10129,-2.241207 -0.10129,-2.258777 -0.29817,-2.253092 v -0.0062 l -0.50075,-2.288749 -0.68523,-2.318205 -0.88211,-2.276864 -1.06092,-2.235005 -1.23403,-2.163693 -1.39475,-2.092378 -1.54926,-2.008147 -1.6986,-1.907377 -1.81798,-1.79989 -1.93735,-1.674833 -2.03812,-1.544092 -2.0624,-1.400431 h -0.006 L 130.30522,11.69541 128.40973,10.628809 126.57419,9.7704631 124.77378,9.0314901 122.28246,8.161259 120.95334,7.7023722 120.542,7.5592285 119.77305,7.2910278 117.15667,6.4207967 114.36149,5.5624512 111.29191,4.7159912 108.63936,4.078304 107.90039,3.8995036 104.25255,3.1186727 100.42023,2.3915853 96.492301,1.7358114 92.53492,1.1637533 89.113424,0.75240885 88.648853,0.69866536 84.887842,0.34726562 81.329403,0.12660726 78.027279,0.05529378 H 74.796985 Z M 72.509269,3.769279 c 1.314055,0.00688 2.756231,0.011273 4.21473,0.025838 4.63141,0.067955 9.198868,0.3459649 13.81156,0.8903849 10.037611,1.1910594 19.992411,3.331636 29.588891,6.6280191 2.30109,0.753767 4.18358,1.32151 6.27869,2.554883 1.19359,0.697584 3.63001,2.067391 4.14496,2.393652 3.34984,2.122405 6.33009,4.783019 8.80929,7.89926 4.34212,5.42504 7.07564,12.454366 6.30504,19.468062 -0.25428,3.00845 -1.43661,5.889769 -3.28094,8.27133 -1.52767,1.87987 -3.10131,3.8277 -5.22914,5.058606 -3.51226,2.112678 -7.86073,2.208971 -11.75225,1.249019 -3.33582,-0.831396 -6.67464,-1.66445 -9.97665,-2.628263 -0.59004,-0.172225 -3.16064,-0.856533 -4.53771,-1.251603 -0.24305,-0.06973 -0.94774,-0.242337 -1.19218,-0.306958 -5.0739,-1.341325 -9.67953,-2.44718 -14.848703,-3.379639 -8.065254,-1.525212 -16.310017,-1.799518 -24.498763,-1.598869 -5.86017,0.108402 -11.658061,0.852228 -17.396871,1.953886 -4.310816,0.82753 -8.698185,1.864088 -12.943913,2.978113 -1.406434,0.369031 -4.106209,1.120862 -4.106209,1.120862 0,0 -8.662666,2.665653 -13.136149,3.411161 -3.576833,0.623546 -7.585381,0.281989 -10.735779,-1.770951 C 10.410249,55.525153 8.9707222,54.080126 7.7121908,52.49292 L 7.3768107,52.525476 6.6554077,52.453646 6.3990926,52.376131 5.9639771,52.24539 5.3206055,51.905359 5.159375,51.768416 4.7599162,51.440271 4.3010295,50.880098 4.0390299,50.391239 3.9615153,50.242411 3.7470581,49.545296 3.6752279,48.823893 3.7470581,48.10249 3.9615153,47.411576 4.0390299,47.256547 4.3010295,46.767688 4.527889,46.491219 C 3.3040074,42.130684 3.7943158,37.297346 5.2286214,33.14268 7.0272716,27.952816 9.9651009,23.823995 14.04152,20.192566 l 3.152779,-2.612244 c 1.316852,-1.002775 2.183432,-1.578529 3.605465,-2.410189 3.4557,-1.993263 7.291362,-3.419922 11.121285,-4.657596 13.378212,-4.1963843 26.093529,-6.5697873 40.081274,-6.7355066 0.06851,-7.585e-4 0.431946,-0.00701 0.506946,-0.00775 z m -0.936894,48.921045 h 3.22461 3.230294 l 3.23081,0.07131 3.224093,0.202572 3.23081,0.328145 3.230294,0.435116 3.22461,0.5302 3.230293,0.620117 3.230811,0.697115 3.22409,0.75706 3.23081,0.816488 1.01389,0.2682 c -0.19062,-0.0044 -0.38141,-0.0149 -0.57102,-10e-4 -0.307,0.02214 -0.61296,0.06845 -0.91002,0.134359 -0.2982,0.06611 -0.5922,0.15021 -0.8692,0.260449 -0.26524,0.10557 -0.51423,0.237394 -0.74982,0.380855 -0.21897,0.133344 -0.42658,0.280665 -0.61237,0.442867 -0.18619,0.162584 -0.34925,0.341999 -0.49868,0.5271 -0.16392,0.203119 -0.30319,0.419006 -0.43305,0.63717 -0.14788,0.248397 -0.26899,0.506299 -0.39325,0.762744 -0.14079,0.290552 -0.26219,0.586729 -0.39895,0.8785 -0.14029,0.299259 -0.27458,0.600699 -0.43201,0.894519 -0.14518,0.270986 -0.29525,0.541246 -0.47232,0.799951 -0.15803,0.230871 -0.32401,0.460088 -0.52504,0.668693 -0.18002,0.186824 -0.36977,0.374244 -0.60513,0.516764 -0.26389,0.159798 -0.56882,0.279301 -0.882114,0.365353 -0.405695,0.111423 -0.839311,0.146578 -1.265039,0.188619 -0.452312,0.04463 -0.909133,0.06163 -1.364775,0.06718 -0.433181,0.0055 -0.867063,-0.0082 -1.299145,-0.03256 -0.423643,-0.02387 -0.846506,-0.05897 -1.266073,-0.111105 -0.418944,-0.05198 -0.839387,-0.108024 -1.246952,-0.201021 -0.374959,-0.08554 -0.753766,-0.176265 -1.095024,-0.326595 -0.293301,-0.12922 -0.567335,-0.293552 -0.799951,-0.485758 -0.212269,-0.1754 -0.38385,-0.382955 -0.529166,-0.59738 -0.137742,-0.203289 -0.230256,-0.424895 -0.318844,-0.644922 -0.0837,-0.207742 -0.133361,-0.422958 -0.199988,-0.634586 -0.06217,-0.197625 -0.121904,-0.395581 -0.186552,-0.592729 -0.07098,-0.215609 -0.143264,-0.431661 -0.220141,-0.645955 -0.09328,-0.25982 -0.191682,-0.518317 -0.293006,-0.776181 -0.108969,-0.277286 -0.21703,-0.554936 -0.33848,-0.828889 -0.111777,-0.252227 -0.232244,-0.501501 -0.358635,-0.749309 -0.113345,-0.222244 -0.242936,-0.439308 -0.358117,-0.660941 -0.1011,-0.194542 -0.195045,-0.391309 -0.292489,-0.587045 -0.05884,-0.118417 -0.117887,-0.237074 -0.176733,-0.355533 l -3.121257,-2.295468 c -0.267196,-0.08173 -0.532648,-0.166914 -0.805636,-0.235127 -0.429631,-0.107348 -0.866039,-0.200684 -1.306896,-0.273885 -0.479101,-0.07958 -0.964176,-0.134815 -1.450558,-0.178801 -0.540867,-0.04897 -1.085592,-0.07308 -1.629358,-0.09405 -1.168188,-0.04495 -2.339464,-0.02473 -3.507796,-0.06718 -0.0308,-8.96e-4 -0.06171,-0.0048 -0.0925,-0.0047 -0.582733,-0.0061 -1.165843,0.01922 -1.746663,0.05839 -0.571554,0.03863 -1.143186,0.08866 -1.706873,0.173633 -0.502895,0.0758 -1.006458,0.162532 -1.488798,0.299207 -0.385609,0.109253 -0.772829,0.232755 -1.113627,0.413411 -0.278727,0.147757 -0.537541,0.327623 -0.74259,0.538468 -0.195236,0.200757 -0.330963,0.437236 -0.446485,0.673861 -0.121173,0.248299 -0.182327,0.512954 -0.254248,0.773079 -0.07923,0.286836 -0.130356,0.577954 -0.19482,0.867131 -0.07427,0.33283 -0.135242,0.667869 -0.221175,0.998905 -0.09896,0.381044 -0.209077,0.760095 -0.338481,1.135332 -0.137446,0.398482 -0.281558,0.796514 -0.464054,1.18339 -0.178684,0.378765 -0.377652,0.75337 -0.6165,1.110527 -0.221745,0.331576 -0.463977,0.657241 -0.754993,0.952913 -0.259124,0.263274 -0.554822,0.505867 -0.874365,0.722953 -0.27667,0.187961 -0.579605,0.352571 -0.895036,0.496611 -0.266392,0.121635 -0.546464,0.226444 -0.836124,0.307474 -0.245525,0.06874 -0.49955,0.122811 -0.757577,0.149345 -0.231097,0.02379 -0.466888,0.02195 -0.699182,0.0078 -0.233425,-0.01412 -0.464209,-0.05066 -0.692464,-0.09198 -0.236631,-0.0427 -0.469427,-0.09986 -0.699699,-0.160714 -0.216439,-0.05717 -0.433646,-0.11455 -0.639754,-0.192236 -0.181506,-0.06838 -0.358922,-0.146427 -0.521932,-0.239779 -0.150305,-0.08617 -0.285108,-0.189146 -0.416512,-0.293005 -0.133601,-0.105598 -0.250505,-0.22313 -0.376721,-0.334347 -0.147023,-0.129515 -0.295888,-0.25749 -0.442867,-0.387056 -0.197133,-0.173717 -0.404674,-0.341296 -0.588595,-0.523999 -0.215781,-0.214347 -0.323535,-0.636661 -0.396875,-0.865581 -0.09525,-0.297315 -0.168256,-0.538341 -0.24443,-0.829406 -0.08506,-0.325005 -0.117384,-0.564795 -0.180867,-0.842843 -0.03545,-0.21851 -0.05336,-0.43363 -0.09043,-0.77928 -0.124747,-0.575384 -0.37452,-0.955799 -0.665592,-1.274858 -0.291072,-0.31906 -1.754464,-1.388664 -2.778642,-1.799373 -0.343726,-0.137839 -0.791755,-0.2033 -1.091406,-0.20774 -0.342936,-0.0048 -0.686472,0.0069 -1.028361,0.02946 -0.368688,0.02434 -0.73523,0.07106 -1.101225,0.114205 -0.367863,0.04334 -0.733323,0.09926 -1.100708,0.145211 -0.35102,0.04389 -0.701559,0.08993 -1.054199,0.12454 -0.394438,0.03873 -0.790525,0.06668 -1.186491,0.09353 -0.03183,0.0022 -0.06377,0.0031 -0.0956,0.0052 l 2.294434,-0.538469 3.230294,-0.697115 3.224609,-0.620117 3.230294,-0.5302 3.230811,-0.435116 3.224092,-0.328145 3.230811,-0.202572 z M 37.113497,58.59539 c -0.13887,0.884313 0.03656,1.784665 0.04392,2.676839 1.18e-4,0.014 8.3e-5,0.02786 0,0.04186 -0.0012,0.252139 -0.0055,0.504438 -0.01085,0.756543 -0.0061,0.259188 -0.01355,0.518114 -0.02377,0.777213 -0.01041,0.253982 -0.02457,0.507802 -0.03721,0.761711 -0.01201,0.243415 -0.02151,0.487397 -0.03669,0.730705 -0.01421,0.227785 -0.0285,0.455228 -0.05013,0.682645 -0.01911,0.203459 -0.04148,0.407082 -0.0708,0.609782 -0.02511,0.17394 -0.04721,0.348154 -0.09043,0.519865 -0.04194,0.167036 -0.09702,0.332535 -0.163298,0.494544 -0.0724,0.17723 -0.15698,0.351741 -0.255281,0.520898 -0.09674,0.16646 -0.20183,0.330807 -0.328146,0.484208 -0.110807,0.134528 -0.237279,0.261856 -0.374654,0.379822 -0.133406,0.114575 -0.281652,0.217882 -0.434082,0.31626 -0.165502,0.106802 -0.337888,0.20798 -0.519865,0.296106 -0.191642,0.09275 -0.392049,0.175031 -0.59893,0.243913 -0.209157,0.06961 -0.426692,0.122685 -0.645438,0.170015 -0.227609,0.04927 -0.459447,0.08629 -0.691948,0.117822 -0.248899,0.03374 -0.501086,0.05023 -0.751375,0.07648 -0.248408,0.02614 -0.497521,0.05028 -0.745174,0.08062 -0.237877,0.02921 -0.47518,0.06105 -0.711585,0.09715 -0.211693,0.03231 -0.421198,0.07302 -0.632519,0.106971 -0.199477,0.03208 -0.399422,0.06399 -0.599964,0.09147 -0.177429,0.0243 -0.354667,0.04761 -0.5333,0.06511 -0.146755,0.01439 -0.294159,0.02738 -0.441834,0.03307 -0.120747,0.0044 -0.242107,0.0066 -0.362768,0.001 -0.101889,-0.0047 -0.204343,-0.01126 -0.303341,-0.03049 -0.09116,-0.01779 -0.182708,-0.0403 -0.264067,-0.07751 -0.08653,-0.03961 -0.16408,-0.09333 -0.23151,-0.151929 -0.08435,-0.07332 -0.152358,-0.158825 -0.211357,-0.246496 -0.07277,-0.107956 -0.129068,-0.223164 -0.173116,-0.340548 -0.04874,-0.129889 -0.08367,-0.263933 -0.09973,-0.398942 -0.01688,-0.142927 -0.01847,-0.288626 0.0057,-0.430982 0.02628,-0.156199 0.08132,-0.30947 0.149862,-0.457336 0.07803,-0.168297 0.197956,-0.322335 0.295072,-0.484208 0.10185,-0.16969 0.212311,-0.33637 0.301274,-0.510563 0.09298,-0.182179 0.176782,-0.367485 0.242362,-0.557072 0.06794,-0.196714 0.121907,-0.397265 0.156063,-0.599447 0.03549,-0.210454 0.05536,-0.423869 0.05013,-0.636137 -0.0048,-0.228689 -0.03229,-0.457772 -0.08785,-0.682129 -0.06054,-0.245083 -0.147248,-0.487726 -0.266133,-0.718819 -0.122562,-0.238311 -0.268238,-0.472495 -0.45682,-0.681612 -0.187669,-0.208091 -0.41643,-0.393153 -0.661458,-0.559139 -0.240046,-0.162625 -0.509852,-0.297495 -0.783932,-0.42168 l 0.667143,-0.153995 3.224609,-0.900204 3.230294,-0.905888 3.230294,-0.899686 z"
     inkscape:label="Acrylic"
     sodipodi:nodetypes="ccccccccccccccccccccccccccccccccccccccccccccccccccccccscccccccscccscccccsssscccccccccccsccccccccccccccsccccccccccsssccccccsccssscccscsssssccsccccsscssscscccsssscccssscssscsccccccssssscssssscscsccccssccccsssccssccccccsccccccccccccccccccccccccccccccccccccccccccccccccccccccccccccccsccccscccccsscccsscccccccccccccccccccccccccccsscccccccccccccccssccssssssssccscssscccccscsscccsccccccsssscccccssssscccccccsccssscczaccccccccccccccccsccccsccccscccccccccccccccccccscccccccccccccccccc" />
  <g
     inkscape:groupmode="layer"
     id="layer1"
     inkscape:label="Board Outline"
     style="display:inline">
    <path
       style="display:none;fill:none;fill-opacity:1;fill-rule:evenodd;stroke:#191919;stroke-width:0.109919;stroke-linecap:square;stroke-miterlimit:4;stroke-dasharray:none;stroke-opacity:1"
       d="m 76.847293,63.746534 0.721189,0.07151 0.256293,0.07727 0.441066,0.137138 0.637753,0.339787 0.560268,0.458932 0.464907,0.560315 0.33974,0.643703 0.137092,0.447053 0.07151,0.244402 0.07151,0.721211 -0.07151,0.727211 -0.07151,0.238403 -0.137092,0.452934 -0.33974,0.637708 -0.464907,0.560314 -0.560268,0.46493 -0.637753,0.339787 -0.441066,0.137022 -0.256293,0.07151 -0.721189,0.07151 -0.721189,-0.07151 -0.691396,-0.208647 -0.196687,-0.101499 -0.447017,-0.238405 -0.560268,-0.46493 -0.458944,-0.560314 -0.339741,-0.637706 -0.214576,-0.691339 -0.07151,-0.72721 0.07151,-0.721212 0.214576,-0.691339 0.339741,-0.643703 0.458944,-0.560315 0.560268,-0.458932 0.447017,-0.238405 0.196687,-0.101499 0.691396,-0.21453 z"
       id="path12" />
    <path
       style="fill:none;fill-opacity:1;fill-rule:evenodd;stroke:#191919;stroke-width:0.109919;stroke-linecap:square;stroke-miterlimit:4;stroke-dasharray:none;stroke-opacity:1"
       d="M 71.572443,0.0549595 68.270446,0.12646938 64.706199,0.34699659 60.94526,0.69865215 59.628038,0.85958397 57.065116,1.1635586 53.107488,1.7357414 49.179662,2.3913716 45.347201,3.1185231 41.693548,3.8993187 40.775661,4.119846 l -0.4053,0.1012674 -2.062253,0.4947872 -3.069546,0.8463597 -2.801333,0.8582811 -2.610603,0.8702013 -2.51524,0.8702002 -2.485438,0.8702013 -1.800005,0.7390753 -1.835766,0.8582815 -1.895371,1.06689 -1.978813,1.245699 -2.068218,1.400665 -2.032457,1.543714 -1.937091,1.67484 -1.823847,1.800005 -1.6927207,1.90729 -1.5496731,2.008616 -1.4006661,2.092058 -1.2337783,2.163583 -1.0549701,2.235106 -0.8821216,2.276828 -0.69139315,2.31855 -0.49470299,2.288747 v 0.0059 l -0.29801392,2.252986 -0.10132484,2.258948 0.10132484,2.241066 0.29801392,2.211265 0.49470299,2.151661 0.69139315,2.080139 v 0.0059 l 0.4470209,0.971531 -0.4470209,1.203977 -0.69139315,2.31855 -0.49470299,2.288749 -0.29801392,2.252987 -0.10132484,2.258946 0.10132484,2.241067 v 0.0059 l 0.29801392,2.205309 0.49470299,2.151662 v 0.0059 l 0.69139315,2.080142 0.8821216,1.99073 1.0549701,1.877492 1.2337783,1.746364 1.4006661,1.591394 v 0.0059 l 1.5496731,1.424512 1.6927207,1.19801 1.823847,0.995371 1.937091,0.792722 2.032457,0.572194 2.12186,0.351667 2.193384,0.13114 2.241067,-0.08997 2.276828,-0.315912 2.294708,-0.530442 3.224513,-0.905983 3.230474,-0.905985 3.230471,-0.899986 3.224513,-0.882109 3.230473,-0.852352 3.230474,-0.810599 3.224513,-0.756966 3.230472,-0.697337 3.224513,-0.619828 3.230474,-0.530443 3.230473,-0.435057 3.224513,-0.327791 3.230472,-0.20265 3.230473,-0.06574 h 3.224513 3.230472 l 3.230474,0.06574 3.22451,0.20265 3.230481,0.327791 3.23047,0.435057 3.224506,0.530443 3.230483,0.619828 3.230468,0.697337 3.22451,0.756966 3.23048,0.810599 3.2245,0.852352 3.23047,0.882109 3.23049,0.899986 3.2245,0.905985 3.23047,0.905983 2.29472,0.530442 2.27683,0.315912 v -0.0054 l 2.24105,0.09573 2.18744,-0.131141 2.12186,-0.351666 2.03841,-0.572195 1.93709,-0.792721 1.82385,-0.995372 1.69271,-1.198009 1.54968,-1.424511 v -0.0059 l 1.39471,-1.591394 1.23377,-1.746364 1.06088,-1.877491 0.88212,-1.990731 0.68545,-2.080142 v -0.0059 l 0.50068,-2.151663 0.29804,-2.205307 v -0.0059 l 0.10145,-2.241067 -0.10145,-2.258946 -0.29804,-2.252988 -0.50068,-2.288748 -0.68545,-2.31855 -0.44706,-1.203977 0.44706,-0.977482 0.68545,-2.080139 0.50068,-2.151662 0.29804,-2.211264 0.10145,-2.241066 -0.10145,-2.258947 -0.29804,-2.252987 v -0.0063 l -0.50064,-2.288747 -0.68544,-2.31855 -0.88212,-2.276828 -1.06093,-2.235106 -1.23377,-2.163584 -1.39471,-2.092058 -1.54968,-2.008615 -1.69867,-1.90729 -1.81789,-1.800005 -1.93709,-1.67484 -2.03841,-1.543714 -2.06226,-1.400665 h -0.006 L 130.30553,11.695422 128.41016,10.628529 126.5744,9.7702495 124.77391,9.0311408 122.28253,8.1609349 120.95337,7.7019915 120.54208,7.5589487 119.77324,7.2907404 117.15667,6.4205345 114.3613,5.5622546 111.29175,4.7158891 108.63943,4.0781363 107.90035,3.8993272 104.25266,3.1185316 100.4202,2.39138 96.492367,1.7357498 92.534746,1.1635671 89.11354,0.75230452 88.648646,0.69867212 84.887699,0.34701655 81.329414,0.12648933 78.027417,0.05497946 h -3.230461 z"
       id="pcb001_f0000-4" />
  </g>
  <g
     inkscape:groupmode="layer"
     id="layer2"
     inkscape:label="LEDS"
     style="display:inline">
    <rect
       style="fill:#802b2b;fill-opacity:1;stroke-width:0.0433271;stroke-linecap:round;stroke-linejoin:round"
       id="rect6"
       width="4.0000858"
       height="1.5000323"
       x="79.585846"
       y="29.866472"
       transform="rotate(29.726354)" />
    <rect
       style="fill:#802b2b;fill-opacity:1;stroke-width:0.0433271;stroke-linecap:round;stroke-linejoin:round"
       id="rect7"
       width="4.0000858"
       height="1.5000323"
       x="121.68394"
       y="21.376415"
       transform="rotate(15.389263)" />
    <rect
       style="fill:#802b2b;fill-opacity:1;stroke-width:0.0433271;stroke-linecap:round;stroke-linejoin:round"
       id="rect8"
       width="4.0000858"
       height="1.5000323"
       x="20.194208"
       y="61.044907"
       transform="rotate(-15.248082)" />
    <rect
       style="fill:#802b2b;fill-opacity:1;stroke-width:0.0433271;stroke-linecap:round;stroke-linejoin:round"
       id="rect9"
       width="4.0000858"
       height="1.5000323"
       x="-1.9487749"
       y="24.549063"
       transform="rotate(-39.51603)" />
    <rect
       style="fill:#802b2b;fill-opacity:1;stroke-width:0.0433271;stroke-linecap:round;stroke-linejoin:round"
       id="rect10"
       width="4.0000858"
       height="1.5000323"
       x="72.624802"
       y="3.3717878"
       transform="rotate(0.3218708)" />
    <rect
       style="fill:#802b2b;fill-opacity:1;stroke-width:0.0433271;stroke-linecap:round;stroke-linejoin:round"
       id="rect11"
       width="4.0000858"
       height="1.5000323"
       x="117.21017"
       y="-50.78569"
       transform="rotate(29.810903)" />
    <rect
       style="fill:#802b2b;fill-opacity:1;stroke-width:0.0433271;stroke-linecap:round;stroke-linejoin:round"
       id="rect1-0-5-2"
       width="4.0000858"
       height="1.5000323"
       x="59.002651"
       y="41.896763"
       transform="rotate(37.189668)" />
    <rect
       style="fill:#802b2b;fill-opacity:1;stroke-width:0.0433271;stroke-linecap:round;stroke-linejoin:round"
       id="rect1-1-5-8"
       width="4.0000858"
       height="1.5000323"
       x="100.66798"
       y="-8.0717716"
       transform="rotate(36.338742)" />
    <rect
       style="fill:#802b2b;fill-opacity:1;stroke-width:0.0433271;stroke-linecap:round;stroke-linejoin:round"
       id="rect1-6-4-7"
       width="4.0000858"
       height="1.5000323"
       x="136.29431"
       y="-58.609802"
       transform="rotate(50.762553)" />
  </g>
</svg>
