  0
SECTION
  2
HEADER
  9
$ACADVER
  1
AC1014
  9
$HANDSEED
  5
FFFF
  9
$INSUNITS
 70
     4
  9
$MEASUREMENT
 70
     1
  0
ENDSEC
  0
SECTION
  2
TABLES
  0
TABLE
  2
VPORT
  5
8
330
0
100
AcDbSymbolTable
 70
     4
  0
VPORT
  5
2E
330
8
100
AcDbSymbolTableRecord
100
AcDbViewportTableRecord
  2
*ACTIVE
 70
     0
 10
0.0
 20
0.0
 11
1.0
 21
1.0
 12
210.0
 22
148.5
 13
0.0
 23
0.0
 14
10.0
 24
10.0
 15
10.0
 25
10.0
 16
0.0
 26
0.0
 36
1.0
 17
0.0
 27
0.0
 37
0.0
 40
341.0
 41
1.24
 42
50.0
 43
0.0
 44
0.0
 50
0.0
 51
0.0
 71
     0
 72
   100
 73
     1
 74
     3
 75
     0
 76
     0
 77
     0
 78
     0
  0
ENDTAB
  0
TABLE
  2
LTYPE
  5
5
330
0
100
AcDbSymbolTable
 70
     1
  0
LTYPE
  5
14
330
5
100
AcDbSymbolTableRecord
100
AcDbLinetypeTableRecord
  2
BYBLOCK
 70
     0
  3

 72
    65
 73
     0
 40
0.0
  0
LTYPE
  5
15
330
5
100
AcDbSymbolTableRecord
100
AcDbLinetypeTableRecord
  2
BYLAYER
 70
     0
  3

 72
    65
 73
     0
 40
0.0
  0
LTYPE
  5
16
330
5
100
AcDbSymbolTableRecord
100
AcDbLinetypeTableRecord
  2
CONTINUOUS
 70
     0
  3
Solid line
 72
    65
 73
     0
 40
0.0
  0
ENDTAB
  0
TABLE
  2
LAYER
  5
2
100
AcDbSymbolTable
 70
2
  0
LAYER
  5
50
100
AcDbSymbolTableRecord
100
AcDbLayerTableRecord
  2
0
 70
0
  6
CONTINUOUS
  0
LAYER
  5
51
100
AcDbSymbolTableRecord
100
AcDbLayerTableRecord
  2
keepout
 70
0
  6
CONTINUOUS
  0
ENDTAB
  0
TABLE
  2
STYLE
  5
3
330
0
100
AcDbSymbolTable
 70
     1
  0
STYLE
  5
11
330
3
100
AcDbSymbolTableRecord
100
AcDbTextStyleTableRecord
  2
STANDARD
 70
     0
 40
0.0
 41
1.0
 50
0.0
 71
     0
 42
2.5
  3
txt
  4

  0
ENDTAB
  0
TABLE
  2
VIEW
  5
6
330
0
100
AcDbSymbolTable
 70
     0
  0
ENDTAB
  0
TABLE
  2
UCS
  5
7
330
0
100
AcDbSymbolTable
 70
     0
  0
ENDTAB
  0
TABLE
  2
APPID
  5
9
330
0
100
AcDbSymbolTable
 70
     2
  0
APPID
  5
12
330
9
100
AcDbSymbolTableRecord
100
AcDbRegAppTableRecord
  2
ACAD
 70
     0
  0
ENDTAB
  0
TABLE
  2
DIMSTYLE
  5
A
330
0
100
AcDbSymbolTable
 70
     1
  0
DIMSTYLE
105
27
330
A
100
AcDbSymbolTableRecord
100
AcDbDimStyleTableRecord
  2
ISO-25
 70
     0
  3

  4

  5

  6

  7

 40
1.0
 41
2.5
 42
0.625
 43
3.75
 44
1.25
 45
0.0
 46
0.0
 47
0.0
 48
0.0
140
2.5
141
2.5
142
0.0
143
0.03937007874016
144
1.0
145
0.0
146
1.0
147
0.625
 71
     0
 72
     0
 73
     0
 74
     0
 75
     0
 76
     0
 77
     1
 78
     8
170
     0
171
     3
172
     1
173
     0
174
     0
175
     0
176
     0
177
     0
178
     0
270
     2
271
     2
272
     2
273
     2
274
     3
340
11
275
     0
280
     0
281
     0
282
     0
283
     0
284
     8
285
     0
286
     0
287
     3
288
     0
  0
ENDTAB
  0
TABLE
  2
BLOCK_RECORD
  5
1
330
0
100
AcDbSymbolTable
 70
     1
  0
BLOCK_RECORD
  5
1F
330
1
100
AcDbSymbolTableRecord
100
AcDbBlockTableRecord
  2
*MODEL_SPACE
  0
BLOCK_RECORD
  5
1B
330
1
100
AcDbSymbolTableRecord
100
AcDbBlockTableRecord
  2
*PAPER_SPACE
  0
ENDTAB
  0
ENDSEC
  0
SECTION
  2
BLOCKS
  0
BLOCK
  5
20
330
1F
100
AcDbEntity
  8
0
100
AcDbBlockBegin
  2
*MODEL_SPACE
 70
     0
 10
0.0
 20
0.0
 30
0.0
  3
*MODEL_SPACE
  1

  0
ENDBLK
  5
21
330
1F
100
AcDbEntity
  8
0
100
AcDbBlockEnd
  0
BLOCK
  5
1C
330
1B
100
AcDbEntity
 67
     1
  8
0
100
AcDbBlockBegin
  2
*PAPER_SPACE
  1

  0
ENDBLK
  5
1D
330
1B
100
AcDbEntity
 67
     1
  8
0
100
AcDbBlockEnd
  0
ENDSEC
  0
SECTION
  2
ENTITIES
  0
SPLINE
  5
100
100
AcDbEntity
  8
keepout
 62
1
100
AcDbSpline
 70
8
 71
3
 72
8
 73
4
 74
0
 40
0
 40
0
 40
0
 40
0
 40
1
 40
1
 40
1
 40
1
 10
109.140112
 20
32.587678
 30
0.0
 10
109.404012
 20
32.587754
 30
0.0
 10
109.657133
 20
32.482989
 30
0.0
 10
109.843787
 20
32.296431
 30
0.0
  0
SPLINE
  5
101
100
AcDbEntity
  8
keepout
 62
1
100
AcDbSpline
 70
8
 71
3
 72
8
 73
4
 74
0
 40
0
 40
0
 40
0
 40
0
 40
1
 40
1
 40
1
 40
1
 10
109.843787
 20
32.296431
 30
0.0
 10
110.030441
 20
32.109874
 30
0.0
 10
110.135337
 20
31.856808
 30
0.0
 10
110.135398
 20
31.592908
 30
0.0
  0
SPLINE
  5
102
100
AcDbEntity
  8
keepout
 62
1
100
AcDbSpline
 70
8
 71
3
 72
8
 73
4
 74
0
 40
0
 40
0
 40
0
 40
0
 40
1
 40
1
 40
1
 40
1
 10
110.135398
 20
31.592908
 30
0.0
 10
110.135475
 20
31.328918
 30
0.0
 10
110.030639
 20
31.075719
 30
0.0
 10
109.843970
 20
30.889049
 30
0.0
  0
SPLINE
  5
103
100
AcDbEntity
  8
keepout
 62
1
100
AcDbSpline
 70
8
 71
3
 72
8
 73
4
 74
0
 40
0
 40
0
 40
0
 40
0
 40
1
 40
1
 40
1
 40
1
 10
109.843970
 20
30.889049
 30
0.0
 10
109.657302
 20
30.702380
 30
0.0
 10
109.404102
 20
30.597544
 30
0.0
 10
109.140112
 20
30.597620
 30
0.0
  0
SPLINE
  5
104
100
AcDbEntity
  8
keepout
 62
1
100
AcDbSpline
 70
8
 71
3
 72
8
 73
4
 74
0
 40
0
 40
0
 40
0
 40
0
 40
1
 40
1
 40
1
 40
1
 10
109.140112
 20
30.597620
 30
0.0
 10
108.876211
 20
30.597680
 30
0.0
 10
108.623144
 20
30.702576
 30
0.0
 10
108.436586
 20
30.889231
 30
0.0
  0
SPLINE
  5
105
100
AcDbEntity
  8
keepout
 62
1
100
AcDbSpline
 70
8
 71
3
 72
8
 73
4
 74
0
 40
0
 40
0
 40
0
 40
0
 40
1
 40
1
 40
1
 40
1
 10
108.436586
 20
30.889231
 30
0.0
 10
108.250028
 20
31.075885
 30
0.0
 10
108.145263
 20
31.329007
 30
0.0
 10
108.145340
 20
31.592908
 30
0.0
  0
SPLINE
  5
106
100
AcDbEntity
  8
keepout
 62
1
100
AcDbSpline
 70
8
 71
3
 72
8
 73
4
 74
0
 40
0
 40
0
 40
0
 40
0
 40
1
 40
1
 40
1
 40
1
 10
108.145340
 20
31.592908
 30
0.0
 10
108.145467
 20
32.142253
 30
0.0
 10
108.590768
 20
32.587552
 30
0.0
 10
109.140112
 20
32.587678
 30
0.0
  0
SPLINE
  5
107
100
AcDbEntity
  8
keepout
 62
1
100
AcDbSpline
 70
8
 71
3
 72
8
 73
4
 74
0
 40
0
 40
0
 40
0
 40
0
 40
1
 40
1
 40
1
 40
1
 10
44.140460
 20
32.587678
 30
0.0
 10
44.689804
 20
32.587551
 30
0.0
 10
45.135103
 20
32.142252
 30
0.0
 10
45.135230
 20
31.592908
 30
0.0
  0
SPLINE
  5
108
100
AcDbEntity
  8
keepout
 62
1
100
AcDbSpline
 70
8
 71
3
 72
8
 73
4
 74
0
 40
0
 40
0
 40
0
 40
0
 40
1
 40
1
 40
1
 40
1
 10
45.135230
 20
31.592908
 30
0.0
 10
45.135307
 20
31.329007
 30
0.0
 10
45.030542
 20
31.075886
 30
0.0
 10
44.843985
 20
30.889232
 30
0.0
  0
SPLINE
  5
109
100
AcDbEntity
  8
keepout
 62
1
100
AcDbSpline
 70
8
 71
3
 72
8
 73
4
 74
0
 40
0
 40
0
 40
0
 40
0
 40
1
 40
1
 40
1
 40
1
 10
44.843985
 20
30.889232
 30
0.0
 10
44.657427
 20
30.702577
 30
0.0
 10
44.404361
 20
30.597681
 30
0.0
 10
44.140460
 20
30.597620
 30
0.0
  0
SPLINE
  5
10a
100
AcDbEntity
  8
keepout
 62
1
100
AcDbSpline
 70
8
 71
3
 72
8
 73
4
 74
0
 40
0
 40
0
 40
0
 40
0
 40
1
 40
1
 40
1
 40
1
 10
44.140460
 20
30.597620
 30
0.0
 10
43.876470
 20
30.597543
 30
0.0
 10
43.623270
 20
30.702379
 30
0.0
 10
43.436601
 20
30.889048
 30
0.0
  0
SPLINE
  5
10b
100
AcDbEntity
  8
keepout
 62
1
100
AcDbSpline
 70
8
 71
3
 72
8
 73
4
 74
0
 40
0
 40
0
 40
0
 40
0
 40
1
 40
1
 40
1
 40
1
 10
43.436601
 20
30.889048
 30
0.0
 10
43.249931
 20
31.075718
 30
0.0
 10
43.145095
 20
31.328918
 30
0.0
 10
43.145172
 20
31.592908
 30
0.0
  0
SPLINE
  5
10c
100
AcDbEntity
  8
keepout
 62
1
100
AcDbSpline
 70
8
 71
3
 72
8
 73
4
 74
0
 40
0
 40
0
 40
0
 40
0
 40
1
 40
1
 40
1
 40
1
 10
43.145172
 20
31.592908
 30
0.0
 10
43.145233
 20
31.856808
 30
0.0
 10
43.250129
 20
32.109875
 30
0.0
 10
43.436784
 20
32.296432
 30
0.0
  0
SPLINE
  5
10d
100
AcDbEntity
  8
keepout
 62
1
100
AcDbSpline
 70
8
 71
3
 72
8
 73
4
 74
0
 40
0
 40
0
 40
0
 40
0
 40
1
 40
1
 40
1
 40
1
 10
43.436784
 20
32.296432
 30
0.0
 10
43.623438
 20
32.482990
 30
0.0
 10
43.876560
 20
32.587754
 30
0.0
 10
44.140460
 20
32.587678
 30
0.0
  0
LWPOLYLINE
  5
10e
100
AcDbEntity
  8
keepout
 62
1
100
AcDbPolyline
 90
1
 70
1
 10
109.140112
 20
32.587678
 30
0.0
  0
SPLINE
  5
10f
100
AcDbEntity
  8
keepout
 62
1
100
AcDbSpline
 70
8
 71
3
 72
8
 73
4
 74
0
 40
0
 40
0
 40
0
 40
0
 40
1
 40
1
 40
1
 40
1
 10
109.140112
 20
84.577789
 30
0.0
 10
109.404013
 20
84.577865
 30
0.0
 10
109.657134
 20
84.473099
 30
0.0
 10
109.843788
 20
84.286542
 30
0.0
  0
SPLINE
  5
110
100
AcDbEntity
  8
keepout
 62
1
100
AcDbSpline
 70
8
 71
3
 72
8
 73
4
 74
0
 40
0
 40
0
 40
0
 40
0
 40
1
 40
1
 40
1
 40
1
 10
109.843788
 20
84.286542
 30
0.0
 10
110.030442
 20
84.099984
 30
0.0
 10
110.135338
 20
83.846917
 30
0.0
 10
110.135398
 20
83.583016
 30
0.0
  0
SPLINE
  5
111
100
AcDbEntity
  8
keepout
 62
1
100
AcDbSpline
 70
8
 71
3
 72
8
 73
4
 74
0
 40
0
 40
0
 40
0
 40
0
 40
1
 40
1
 40
1
 40
1
 10
110.135398
 20
83.583016
 30
0.0
 10
110.135475
 20
83.319026
 30
0.0
 10
110.030639
 20
83.065827
 30
0.0
 10
109.843970
 20
82.879158
 30
0.0
  0
SPLINE
  5
112
100
AcDbEntity
  8
keepout
 62
1
100
AcDbSpline
 70
8
 71
3
 72
8
 73
4
 74
0
 40
0
 40
0
 40
0
 40
0
 40
1
 40
1
 40
1
 40
1
 10
109.843970
 20
82.879158
 30
0.0
 10
109.657302
 20
82.692488
 30
0.0
 10
109.404102
 20
82.587652
 30
0.0
 10
109.140112
 20
82.587728
 30
0.0
  0
SPLINE
  5
113
100
AcDbEntity
  8
keepout
 62
1
100
AcDbSpline
 70
8
 71
3
 72
8
 73
4
 74
0
 40
0
 40
0
 40
0
 40
0
 40
1
 40
1
 40
1
 40
1
 10
109.140112
 20
82.587728
 30
0.0
 10
108.876211
 20
82.587788
 30
0.0
 10
108.623144
 20
82.692685
 30
0.0
 10
108.436586
 20
82.879339
 30
0.0
  0
SPLINE
  5
114
100
AcDbEntity
  8
keepout
 62
1
100
AcDbSpline
 70
8
 71
3
 72
8
 73
4
 74
0
 40
0
 40
0
 40
0
 40
0
 40
1
 40
1
 40
1
 40
1
 10
108.436586
 20
82.879339
 30
0.0
 10
108.250028
 20
83.065994
 30
0.0
 10
108.145263
 20
83.319115
 30
0.0
 10
108.145340
 20
83.583016
 30
0.0
  0
SPLINE
  5
115
100
AcDbEntity
  8
keepout
 62
1
100
AcDbSpline
 70
8
 71
3
 72
8
 73
4
 74
0
 40
0
 40
0
 40
0
 40
0
 40
1
 40
1
 40
1
 40
1
 10
108.145340
 20
83.583016
 30
0.0
 10
108.145466
 20
84.132362
 30
0.0
 10
108.590767
 20
84.577663
 30
0.0
 10
109.140112
 20
84.577789
 30
0.0
  0
LWPOLYLINE
  5
116
100
AcDbEntity
  8
keepout
 62
1
100
AcDbPolyline
 90
1
 70
1
 10
44.140460
 20
32.587678
 30
0.0
  0
SPLINE
  5
117
100
AcDbEntity
  8
keepout
 62
1
100
AcDbSpline
 70
8
 71
3
 72
8
 73
4
 74
0
 40
0
 40
0
 40
0
 40
0
 40
1
 40
1
 40
1
 40
1
 10
44.140460
 20
84.577789
 30
0.0
 10
44.689805
 20
84.577662
 30
0.0
 10
45.135104
 20
84.132361
 30
0.0
 10
45.135230
 20
83.583016
 30
0.0
  0
SPLINE
  5
118
100
AcDbEntity
  8
keepout
 62
1
100
AcDbSpline
 70
8
 71
3
 72
8
 73
4
 74
0
 40
0
 40
0
 40
0
 40
0
 40
1
 40
1
 40
1
 40
1
 10
45.135230
 20
83.583016
 30
0.0
 10
45.135307
 20
83.319116
 30
0.0
 10
45.030542
 20
83.065994
 30
0.0
 10
44.843985
 20
82.879340
 30
0.0
  0
SPLINE
  5
119
100
AcDbEntity
  8
keepout
 62
1
100
AcDbSpline
 70
8
 71
3
 72
8
 73
4
 74
0
 40
0
 40
0
 40
0
 40
0
 40
1
 40
1
 40
1
 40
1
 10
44.843985
 20
82.879340
 30
0.0
 10
44.657427
 20
82.692686
 30
0.0
 10
44.404361
 20
82.587789
 30
0.0
 10
44.140460
 20
82.587728
 30
0.0
  0
SPLINE
  5
11a
100
AcDbEntity
  8
keepout
 62
1
100
AcDbSpline
 70
8
 71
3
 72
8
 73
4
 74
0
 40
0
 40
0
 40
0
 40
0
 40
1
 40
1
 40
1
 40
1
 10
44.140460
 20
82.587728
 30
0.0
 10
43.876470
 20
82.587651
 30
0.0
 10
43.623270
 20
82.692487
 30
0.0
 10
43.436601
 20
82.879157
 30
0.0
  0
SPLINE
  5
11b
100
AcDbEntity
  8
keepout
 62
1
100
AcDbSpline
 70
8
 71
3
 72
8
 73
4
 74
0
 40
0
 40
0
 40
0
 40
0
 40
1
 40
1
 40
1
 40
1
 10
43.436601
 20
82.879157
 30
0.0
 10
43.249931
 20
83.065826
 30
0.0
 10
43.145095
 20
83.319026
 30
0.0
 10
43.145172
 20
83.583016
 30
0.0
  0
SPLINE
  5
11c
100
AcDbEntity
  8
keepout
 62
1
100
AcDbSpline
 70
8
 71
3
 72
8
 73
4
 74
0
 40
0
 40
0
 40
0
 40
0
 40
1
 40
1
 40
1
 40
1
 10
43.145172
 20
83.583016
 30
0.0
 10
43.145232
 20
83.846917
 30
0.0
 10
43.250128
 20
84.099985
 30
0.0
 10
43.436783
 20
84.286542
 30
0.0
  0
SPLINE
  5
11d
100
AcDbEntity
  8
keepout
 62
1
100
AcDbSpline
 70
8
 71
3
 72
8
 73
4
 74
0
 40
0
 40
0
 40
0
 40
0
 40
1
 40
1
 40
1
 40
1
 10
43.436783
 20
84.286542
 30
0.0
 10
43.623438
 20
84.473100
 30
0.0
 10
43.876559
 20
84.577865
 30
0.0
 10
44.140460
 20
84.577789
 30
0.0
  0
LWPOLYLINE
  5
11e
100
AcDbEntity
  8
keepout
 62
1
100
AcDbPolyline
 90
1
 70
1
 10
109.140112
 20
84.577789
 30
0.0
  0
SPLINE
  5
11f
100
AcDbEntity
  8
keepout
 62
1
100
AcDbSpline
 70
8
 71
3
 72
8
 73
4
 74
0
 40
0
 40
0
 40
0
 40
0
 40
1
 40
1
 40
1
 40
1
 10
102.635083
 20
104.991530
 30
0.0
 10
102.899073
 20
104.991607
 30
0.0
 10
103.152273
 20
104.886771
 30
0.0
 10
103.338942
 20
104.700102
 30
0.0
  0
SPLINE
  5
120
100
AcDbEntity
  8
keepout
 62
1
100
AcDbSpline
 70
8
 71
3
 72
8
 73
4
 74
0
 40
0
 40
0
 40
0
 40
0
 40
1
 40
1
 40
1
 40
1
 10
103.338942
 20
104.700102
 30
0.0
 10
103.525612
 20
104.513432
 30
0.0
 10
103.630447
 20
104.260232
 30
0.0
 10
103.630371
 20
103.996242
 30
0.0
  0
SPLINE
  5
121
100
AcDbEntity
  8
keepout
 62
1
100
AcDbSpline
 70
8
 71
3
 72
8
 73
4
 74
0
 40
0
 40
0
 40
0
 40
0
 40
1
 40
1
 40
1
 40
1
 10
103.630371
 20
103.996242
 30
0.0
 10
103.630311
 20
103.732341
 30
0.0
 10
103.525414
 20
103.479274
 30
0.0
 10
103.338760
 20
103.292716
 30
0.0
  0
SPLINE
  5
122
100
AcDbEntity
  8
keepout
 62
1
100
AcDbSpline
 70
8
 71
3
 72
8
 73
4
 74
0
 40
0
 40
0
 40
0
 40
0
 40
1
 40
1
 40
1
 40
1
 10
103.338760
 20
103.292716
 30
0.0
 10
103.152105
 20
103.106158
 30
0.0
 10
102.898983
 20
103.001393
 30
0.0
 10
102.635083
 20
103.001470
 30
0.0
  0
SPLINE
  5
123
100
AcDbEntity
  8
keepout
 62
1
100
AcDbSpline
 70
8
 71
3
 72
8
 73
4
 74
0
 40
0
 40
0
 40
0
 40
0
 40
1
 40
1
 40
1
 40
1
 10
102.635083
 20
103.001470
 30
0.0
 10
102.085737
 20
103.001595
 30
0.0
 10
101.640436
 20
103.446896
 30
0.0
 10
101.640310
 20
103.996242
 30
0.0
  0
SPLINE
  5
124
100
AcDbEntity
  8
keepout
 62
1
100
AcDbSpline
 70
8
 71
3
 72
8
 73
4
 74
0
 40
0
 40
0
 40
0
 40
0
 40
1
 40
1
 40
1
 40
1
 10
101.640310
 20
103.996242
 30
0.0
 10
101.640234
 20
104.260143
 30
0.0
 10
101.744999
 20
104.513265
 30
0.0
 10
101.931556
 20
104.699919
 30
0.0
  0
SPLINE
  5
125
100
AcDbEntity
  8
keepout
 62
1
100
AcDbSpline
 70
8
 71
3
 72
8
 73
4
 74
0
 40
0
 40
0
 40
0
 40
0
 40
1
 40
1
 40
1
 40
1
 10
101.931556
 20
104.699919
 30
0.0
 10
102.118114
 20
104.886574
 30
0.0
 10
102.371182
 20
104.991470
 30
0.0
 10
102.635083
 20
104.991530
 30
0.0
  0
LWPOLYLINE
  5
126
100
AcDbEntity
  8
keepout
 62
1
100
AcDbPolyline
 90
1
 70
1
 10
44.140460
 20
84.577789
 30
0.0
  0
SPLINE
  5
127
100
AcDbEntity
  8
keepout
 62
1
100
AcDbSpline
 70
8
 71
3
 72
8
 73
4
 74
0
 40
0
 40
0
 40
0
 40
0
 40
1
 40
1
 40
1
 40
1
 10
50.645490
 20
104.991530
 30
0.0
 10
50.909391
 20
104.991469
 30
0.0
 10
51.162457
 20
104.886573
 30
0.0
 10
51.349015
 20
104.699918
 30
0.0
  0
SPLINE
  5
128
100
AcDbEntity
  8
keepout
 62
1
100
AcDbSpline
 70
8
 71
3
 72
8
 73
4
 74
0
 40
0
 40
0
 40
0
 40
0
 40
1
 40
1
 40
1
 40
1
 10
51.349015
 20
104.699918
 30
0.0
 10
51.535572
 20
104.513264
 30
0.0
 10
51.640336
 20
104.260142
 30
0.0
 10
51.640260
 20
103.996242
 30
0.0
  0
SPLINE
  5
129
100
AcDbEntity
  8
keepout
 62
1
100
AcDbSpline
 70
8
 71
3
 72
8
 73
4
 74
0
 40
0
 40
0
 40
0
 40
0
 40
1
 40
1
 40
1
 40
1
 10
51.640260
 20
103.996242
 30
0.0
 10
51.640134
 20
103.446897
 30
0.0
 10
51.194835
 20
103.001597
 30
0.0
 10
50.645490
 20
103.001470
 30
0.0
  0
SPLINE
  5
12a
100
AcDbEntity
  8
keepout
 62
1
100
AcDbSpline
 70
8
 71
3
 72
8
 73
4
 74
0
 40
0
 40
0
 40
0
 40
0
 40
1
 40
1
 40
1
 40
1
 10
50.645490
 20
103.001470
 30
0.0
 10
50.381589
 20
103.001393
 30
0.0
 10
50.128467
 20
103.106158
 30
0.0
 10
49.941813
 20
103.292716
 30
0.0
  0
SPLINE
  5
12b
100
AcDbEntity
  8
keepout
 62
1
100
AcDbSpline
 70
8
 71
3
 72
8
 73
4
 74
0
 40
0
 40
0
 40
0
 40
0
 40
1
 40
1
 40
1
 40
1
 10
49.941813
 20
103.292716
 30
0.0
 10
49.755158
 20
103.479274
 30
0.0
 10
49.650262
 20
103.732341
 30
0.0
 10
49.650202
 20
103.996242
 30
0.0
  0
SPLINE
  5
12c
100
AcDbEntity
  8
keepout
 62
1
100
AcDbSpline
 70
8
 71
3
 72
8
 73
4
 74
0
 40
0
 40
0
 40
0
 40
0
 40
1
 40
1
 40
1
 40
1
 10
49.650202
 20
103.996242
 30
0.0
 10
49.650125
 20
104.260232
 30
0.0
 10
49.754961
 20
104.513432
 30
0.0
 10
49.941630
 20
104.700102
 30
0.0
  0
SPLINE
  5
12d
100
AcDbEntity
  8
keepout
 62
1
100
AcDbSpline
 70
8
 71
3
 72
8
 73
4
 74
0
 40
0
 40
0
 40
0
 40
0
 40
1
 40
1
 40
1
 40
1
 10
49.941630
 20
104.700102
 30
0.0
 10
50.128300
 20
104.886771
 30
0.0
 10
50.381500
 20
104.991607
 30
0.0
 10
50.645490
 20
104.991530
 30
0.0
  0
LWPOLYLINE
  5
12e
100
AcDbEntity
  8
keepout
 62
1
100
AcDbPolyline
 90
1
 70
1
 10
102.635083
 20
104.991530
 30
0.0
  0
LWPOLYLINE
  5
12f
100
AcDbEntity
  8
keepout
 62
1
100
AcDbPolyline
 90
1
 70
1
 10
50.645490
 20
104.991530
 30
0.0
  0
SPLINE
  5
130
100
AcDbEntity
  8
keepout
 62
1
100
AcDbSpline
 70
8
 71
3
 72
8
 73
4
 74
0
 40
0
 40
0
 40
0
 40
0
 40
1
 40
1
 40
1
 40
1
 10
15.478126
 20
96.936725
 30
0.0
 10
15.478126
 20
96.936725
 30
0.0
 10
16.376422
 20
94.463059
 30
0.0
 10
17.861443
 20
90.339194
 30
0.0
  0
SPLINE
  5
131
100
AcDbEntity
  8
keepout
 62
1
100
AcDbSpline
 70
8
 71
3
 72
8
 73
4
 74
0
 40
0
 40
0
 40
0
 40
0
 40
1
 40
1
 40
1
 40
1
 10
17.861443
 20
90.339194
 30
0.0
 10
21.390946
 20
80.537861
 30
0.0
 10
27.936147
 20
62.268834
 30
0.0
 10
31.238922
 20
51.838184
 30
0.0
  0
SPLINE
  5
132
100
AcDbEntity
  8
keepout
 62
1
100
AcDbSpline
 70
8
 71
3
 72
8
 73
4
 74
0
 40
0
 40
0
 40
0
 40
0
 40
1
 40
1
 40
1
 40
1
 10
31.238922
 20
51.838184
 30
0.0
 10
35.570135
 20
38.159580
 30
0.0
 10
39.299411
 20
17.697113
 30
0.0
 10
39.299411
 20
17.697113
 30
0.0
  0
LWPOLYLINE
  5
133
100
AcDbEntity
  8
keepout
 62
1
100
AcDbPolyline
 90
2
 70
0
 10
38.745439
 20
120.809169
 30
0.0
 10
15.478126
 20
96.936725
 30
0.0
  0
SPLINE
  5
134
100
AcDbEntity
  8
keepout
 62
1
100
AcDbSpline
 70
8
 71
3
 72
8
 73
4
 74
0
 40
0
 40
0
 40
0
 40
0
 40
1
 40
1
 40
1
 40
1
 10
54.381695
 20
6.216160
 30
0.0
 10
54.381695
 20
6.216160
 30
0.0
 10
51.040902
 20
21.031525
 30
0.0
 10
47.436899
 20
50.061547
 30
0.0
  0
SPLINE
  5
135
100
AcDbEntity
  8
keepout
 62
1
100
AcDbSpline
 70
8
 71
3
 72
8
 73
4
 74
0
 40
0
 40
0
 40
0
 40
0
 40
1
 40
1
 40
1
 40
1
 10
47.436899
 20
50.061547
 30
0.0
 10
45.851365
 20
62.832942
 30
0.0
 10
46.180646
 20
74.525689
 30
0.0
 10
46.180646
 20
74.525689
 30
0.0
  0
LWPOLYLINE
  5
136
100
AcDbEntity
  8
keepout
 62
1
100
AcDbPolyline
 90
2
 70
0
 10
39.299411
 20
17.697113
 30
0.0
 10
54.381695
 20
6.216160
 30
0.0
  0
SPLINE
  5
137
100
AcDbEntity
  8
keepout
 62
1
100
AcDbSpline
 70
8
 71
3
 72
8
 73
4
 74
0
 40
0
 40
0
 40
0
 40
0
 40
1
 40
1
 40
1
 40
1
 10
107.077188
 20
74.525689
 30
0.0
 10
107.077188
 20
74.525689
 30
0.0
 10
107.406472
 20
62.832942
 30
0.0
 10
105.820933
 20
50.061547
 30
0.0
  0
SPLINE
  5
138
100
AcDbEntity
  8
keepout
 62
1
100
AcDbSpline
 70
8
 71
3
 72
8
 73
4
 74
0
 40
0
 40
0
 40
0
 40
0
 40
1
 40
1
 40
1
 40
1
 10
105.820933
 20
50.061547
 30
0.0
 10
102.216935
 20
21.031525
 30
0.0
 10
98.875621
 20
6.216160
 30
0.0
 10
98.875621
 20
6.216160
 30
0.0
  0
LWPOLYLINE
  5
139
100
AcDbEntity
  8
keepout
 62
1
100
AcDbPolyline
 90
5
 70
0
 10
46.180646
 20
74.525689
 30
0.0
 10
75.886327
 20
56.030692
 30
0.0
 10
76.628917
 20
56.030692
 30
0.0
 10
77.371507
 20
56.030692
 30
0.0
 10
107.077188
 20
74.525689
 30
0.0
  0
SPLINE
  5
13a
100
AcDbEntity
  8
keepout
 62
1
100
AcDbSpline
 70
8
 71
3
 72
8
 73
4
 74
0
 40
0
 40
0
 40
0
 40
0
 40
1
 40
1
 40
1
 40
1
 10
113.958421
 20
17.697113
 30
0.0
 10
113.958421
 20
17.697113
 30
0.0
 10
117.687696
 20
38.159580
 30
0.0
 10
122.018912
 20
51.838184
 30
0.0
  0
SPLINE
  5
13b
100
AcDbEntity
  8
keepout
 62
1
100
AcDbSpline
 70
8
 71
3
 72
8
 73
4
 74
0
 40
0
 40
0
 40
0
 40
0
 40
1
 40
1
 40
1
 40
1
 10
122.018912
 20
51.838184
 30
0.0
 10
125.321688
 20
62.268834
 30
0.0
 10
131.866886
 20
80.537861
 30
0.0
 10
135.396391
 20
90.339194
 30
0.0
  0
SPLINE
  5
13c
100
AcDbEntity
  8
keepout
 62
1
100
AcDbSpline
 70
8
 71
3
 72
8
 73
4
 74
0
 40
0
 40
0
 40
0
 40
0
 40
1
 40
1
 40
1
 40
1
 10
135.396391
 20
90.339194
 30
0.0
 10
136.881413
 20
94.463059
 30
0.0
 10
137.779707
 20
96.936725
 30
0.0
 10
137.779707
 20
96.936725
 30
0.0
  0
LWPOLYLINE
  5
13d
100
AcDbEntity
  8
keepout
 62
1
100
AcDbPolyline
 90
2
 70
0
 10
98.875621
 20
6.216160
 30
0.0
 10
113.958421
 20
17.697113
 30
0.0
  0
SPLINE
  5
13e
100
AcDbEntity
  8
keepout
 62
1
100
AcDbSpline
 70
8
 71
3
 72
8
 73
4
 74
0
 40
0
 40
0
 40
0
 40
0
 40
1
 40
1
 40
1
 40
1
 10
114.512392
 20
120.809169
 30
0.0
 10
114.512392
 20
120.809169
 30
0.0
 10
101.992010
 20
106.619215
 30
0.0
 10
95.789505
 20
97.778534
 30
0.0
  0
SPLINE
  5
13f
100
AcDbEntity
  8
keepout
 62
1
100
AcDbSpline
 70
8
 71
3
 72
8
 73
4
 74
0
 40
0
 40
0
 40
0
 40
0
 40
1
 40
1
 40
1
 40
1
 10
95.789505
 20
97.778534
 30
0.0
 10
89.586997
 20
88.937855
 30
0.0
 10
78.056220
 20
70.705248
 30
0.0
 10
78.056220
 20
70.705248
 30
0.0
  0
LWPOLYLINE
  5
140
100
AcDbEntity
  8
keepout
 62
1
100
AcDbPolyline
 90
2
 70
0
 10
137.779707
 20
96.936725
 30
0.0
 10
114.512392
 20
120.809169
 30
0.0
  0
SPLINE
  5
141
100
AcDbEntity
  8
keepout
 62
1
100
AcDbSpline
 70
8
 71
3
 72
8
 73
4
 74
0
 40
0
 40
0
 40
0
 40
0
 40
1
 40
1
 40
1
 40
1
 10
75.201614
 20
70.705248
 30
0.0
 10
75.201614
 20
70.705248
 30
0.0
 10
63.670832
 20
88.937855
 30
0.0
 10
57.468330
 20
97.778534
 30
0.0
  0
SPLINE
  5
142
100
AcDbEntity
  8
keepout
 62
1
100
AcDbSpline
 70
8
 71
3
 72
8
 73
4
 74
0
 40
0
 40
0
 40
0
 40
0
 40
1
 40
1
 40
1
 40
1
 10
57.468330
 20
97.778534
 30
0.0
 10
51.265824
 20
106.619215
 30
0.0
 10
38.745439
 20
120.809169
 30
0.0
 10
38.745439
 20
120.809169
 30
0.0
  0
LWPOLYLINE
  5
143
100
AcDbEntity
  8
keepout
 62
1
100
AcDbPolyline
 90
3
 70
0
 10
78.056220
 20
70.705248
 30
0.0
 10
76.628917
 20
69.507390
 30
0.0
 10
75.201614
 20
70.705248
 30
0.0
  0
LWPOLYLINE
  5
144
100
AcDbEntity
  8
keepout
 62
1
100
AcDbPolyline
 90
1
 70
1
 10
38.745439
 20
120.809169
 30
0.0
  0
ENDSEC
  0
SECTION
  2
OBJECTS
  0
DICTIONARY
  5
C
330
0
100
AcDbDictionary
  3
ACAD_GROUP
350
D
  3
ACAD_MLINESTYLE
350
17
  0
DICTIONARY
  5
D
330
C
100
AcDbDictionary
  0
DICTIONARY
  5
1A
330
C
100
AcDbDictionary
  0
DICTIONARY
  5
17
330
C
100
AcDbDictionary
  3
STANDARD
350
18
  0
DICTIONARY
  5
19
330
C
100
AcDbDictionary
  0
ENDSEC
  0
EOF
