<?xml version="1.0" encoding="UTF-8" standalone="no"?>
<!-- Created with Inkscape (http://www.inkscape.org/) -->

<svg
   width="140.10083mm"
   height="94.328743mm"
   viewBox="0 0 140.10083 94.328743"
   version="1.1"
   id="svg1"
   inkscape:version="1.3 (0e150ed6c4, 2023-07-21)"
   sodipodi:docname="board--outline.svg"
   xmlns:inkscape="http://www.inkscape.org/namespaces/inkscape"
   xmlns:sodipodi="http://sodipodi.sourceforge.net/DTD/sodipodi-0.dtd"
   xmlns="http://www.w3.org/2000/svg"
   xmlns:svg="http://www.w3.org/2000/svg">
  <sodipodi:namedview
     id="namedview1"
     pagecolor="#ffffff"
     bordercolor="#000000"
     borderopacity="0.25"
     inkscape:showpageshadow="2"
     inkscape:pageopacity="0.0"
     inkscape:pagecheckerboard="0"
     inkscape:deskcolor="#d1d1d1"
     inkscape:document-units="mm"
     inkscape:zoom="0.854328"
     inkscape:cx="263.36489"
     inkscape:cy="178.50287"
     inkscape:window-width="1920"
     inkscape:window-height="1177"
     inkscape:window-x="1912"
     inkscape:window-y="-8"
     inkscape:window-maximized="1"
     inkscape:current-layer="layer1" />
  <defs
     id="defs1" />
  <g
     inkscape:label="Layer 1"
     inkscape:groupmode="layer"
     id="layer1"
     transform="translate(-35.139515,-101.2852)">
    <path
       id="path4-6-1"
       style="opacity:0.683;mix-blend-mode:normal;fill:none;fill-opacity:1;stroke:#000000;stroke-width:0.1;stroke-dasharray:none;stroke-opacity:1"
       d="m 108.53808,101.34317 c -29.180999,0.48572 -56.382557,14.19963 -67.076528,32.81453 -12.563727,21.87898 -2.917403,32.84166 0.35295,34.85162 2.662894,1.623 6.577486,1.13232 10.795207,-0.41496 -8.430319,16.32168 -1.18264,24.58355 1.356506,26.14414 3.759408,2.29129 10.578173,-0.53415 16.466178,-4.2571 5.901922,-3.72104 19.872123,-12.32875 40.306587,-10.7549 23.68008,1.82732 39.35235,19.24926 46.96509,11.30163 5.0265,-5.24091 5.71149,-11.57284 0.23823,-22.18056 -0.62883,-1.21737 -1.4578,-2.52747 -2.41588,-3.87779 6.25161,2.41453 11.13541,3.10348 14.6358,-0.55088 6.21887,-6.48421 7.06622,-14.31813 0.29456,-27.44225 -7.11125,-13.76694 -31.92405,-36.12508 -61.9187,-35.63348 z" />
  </g>
</svg>
