<?xml version="1.0" encoding="UTF-8" standalone="no"?>
<!-- Created with Inkscape (http://www.inkscape.org/) -->

<svg
   width="24.317141mm"
   height="25.66017mm"
   viewBox="0 0 24.317141 25.66017"
   version="1.1"
   id="svg1"
   inkscape:version="1.4.2 (ebf0e940d0, 2025-05-08)"
   sodipodi:docname="joystick.svg"
   xmlns:inkscape="http://www.inkscape.org/namespaces/inkscape"
   xmlns:sodipodi="http://sodipodi.sourceforge.net/DTD/sodipodi-0.dtd"
   xmlns="http://www.w3.org/2000/svg"
   xmlns:svg="http://www.w3.org/2000/svg">
  <sodipodi:namedview
     id="namedview1"
     pagecolor="#ffffff"
     bordercolor="#000000"
     borderopacity="0.25"
     inkscape:showpageshadow="2"
     inkscape:pageopacity="0.0"
     inkscape:pagecheckerboard="0"
     inkscape:deskcolor="#d1d1d1"
     inkscape:document-units="mm"
     inkscape:zoom="4.5657194"
     inkscape:cx="11.060688"
     inkscape:cy="48.623224"
     inkscape:window-width="1854"
     inkscape:window-height="1131"
     inkscape:window-x="0"
     inkscape:window-y="0"
     inkscape:window-maximized="1"
     inkscape:current-layer="layer1" />
  <defs
     id="defs1" />
  <g
     inkscape:label="Layer 1"
     inkscape:groupmode="layer"
     id="layer1"
     transform="translate(-150.8125,-146.84375)">
    <path
       d="m 159.61368,160.51772 c 0.0544,-0.0363 0.11796,-0.0545 0.1724,-0.0545 h 6.37876 c 0.0635,0 0.12704,0.0182 0.17241,0.0545 0.16332,0.0998 0.28128,0.33573 0.28128,0.60793 0,0.27222 -0.11796,0.50812 -0.28128,0.60793 -0.0544,0.0363 -0.11796,0.0544 -0.17241,0.0544 h -6.36968 c -0.0635,0 -0.12703,-0.0182 -0.1724,-0.0544 -0.16333,-0.0998 -0.28129,-0.33571 -0.28129,-0.60793 -0.009,-0.2722 0.10889,-0.49906 0.27221,-0.60793 z m 13.48343,0.49905 c 0.0363,-0.49905 0.0272,-0.9981 -0.009,-1.47901 l 2.01434,-0.18147 -0.009,-0.10889 c -0.0816,-0.94365 -0.27222,-1.84194 -0.54442,-2.68579 l -0.0363,-0.0998 -1.92362,0.62609 c -0.14515,-0.44462 -0.34477,-0.90737 -0.58069,-1.37013 l 1.79659,-0.94365 -0.0453,-0.0907 c -0.42646,-0.81663 -0.94365,-1.5788 -1.53344,-2.26841 l -0.0725,-0.0816 -1.54251,1.31568 c -0.32666,-0.38109 -0.68053,-0.72588 -1.05254,-1.04346 l 1.29752,-1.54252 -0.0816,-0.0725 c -0.68052,-0.57164 -1.45178,-1.07976 -2.28656,-1.50622 l -0.0998,-0.0453 -0.91644,1.80566 c -0.47183,-0.23592 -0.92551,-0.41739 -1.37012,-0.56257 l 0.59886,-1.93268 -0.0998,-0.0272 c -0.35387,-0.10888 -0.71682,-0.19961 -1.08884,-0.28128 l -0.0182,0.52628 c 0.17241,0.0363 0.34481,0.0817 0.5172,0.12703 l -0.54442,1.95083 0.0998,0.0272 c 0.72589,0.19963 1.39734,0.4809 2.00528,0.81663 l 0.0907,0.0544 0.97995,-1.7875 c 0.48091,0.26313 0.97088,0.58979 1.45179,0.9618 l -1.25216,1.58789 0.0816,0.0635 c 0.48998,0.39016 0.95273,0.83477 1.37012,1.32474 0.0635,0.0725 0.11795,0.13611 0.16332,0.19963 l 0.0635,0.0907 1.57882,-1.27031 c 0.36295,0.46276 0.68959,0.94366 0.97088,1.43363 l -1.76029,0.98903 0.0545,0.0907 c 0.34479,0.60794 0.62608,1.27939 0.84384,1.9962 l 0.0272,0.0998 1.94176,-0.57163 c 0.16332,0.58978 0.28128,1.16142 0.35387,1.70584 l -2.01435,0.23591 0.009,0.10889 c 0.0816,0.67144 0.0907,1.35197 0.0272,2.02342 l -0.0272,0.24498 2.01434,0.21777 c -0.0635,0.5535 -0.1724,1.12513 -0.32665,1.70584 l -1.87824,-0.52627 v 0.20869 0.74404 h -0.0544 c 0.0635,0.0453 0.11795,0.0907 0.1724,0.14517 0.0635,-0.16332 0.12703,-0.32665 0.1724,-0.49904 l 1.93269,0.59886 0.0363,-0.0998 c 0.0453,-0.14517 0.0907,-0.29942 0.12704,-0.4446 0.0181,-0.0725 0.0363,-0.14518 0.0635,-0.21776 l 0.009,-0.0635 c 0.0453,-0.19961 0.0907,-0.39922 0.13611,-0.60792 0.009,-0.0725 0.0272,-0.14518 0.0363,-0.21777 0.0272,-0.14518 0.0544,-0.29943 0.0725,-0.45368 l 0.0635,-0.50812 0.0272,-0.26314 z m -19.6172,2.958 c 0.12703,-0.12703 0.28128,-0.22685 0.45368,-0.29943 -0.0725,-0.19962 -0.14518,-0.40831 -0.2087,-0.61701 l -0.0272,-0.0998 -1.94176,0.57164 c -0.16333,-0.58979 -0.28129,-1.16142 -0.35388,-1.70584 l 2.01435,-0.23592 -0.009,-0.10887 c -0.0725,-0.61702 -0.0816,-1.25217 -0.0363,-1.8964 0.009,-0.0907 0.009,-0.18148 0.0272,-0.27221 l 0.0181,-0.10888 -2.02342,-0.21777 c 0.0635,-0.55349 0.1724,-1.12513 0.32665,-1.70584 l 1.95083,0.54442 0.0272,-0.0998 c 0.19963,-0.72588 0.48091,-1.39733 0.81663,-2.00527 l 0.0544,-0.0907 -1.77843,-0.97087 c 0.26313,-0.4809 0.58979,-0.97089 0.9618,-1.45178 l 1.58789,1.25217 0.0635,-0.0816 c 0.39016,-0.48998 0.83477,-0.95274 1.32476,-1.37012 0.0635,-0.0635 0.1361,-0.11796 0.19961,-0.16333 l 0.0907,-0.0635 -1.27031,-1.57881 c 0.46275,-0.36295 0.94366,-0.6896 1.43363,-0.97088 l 0.98903,1.76936 0.0907,-0.0544 c 0.60792,-0.3448 1.27938,-0.62608 1.99619,-0.84385 l 0.0998,-0.0272 -0.57164,-1.94176 c 0.22684,-0.0635 0.44461,-0.11795 0.66238,-0.16332 l -0.0272,-0.53535 c -0.42646,0.0907 -0.83477,0.19963 -1.23401,0.32665 l -0.0998,0.0363 0.62608,1.9236 c -0.4446,0.14519 -0.90736,0.3448 -1.37012,0.58071 l -0.94366,-1.79658 -0.0907,0.0453 c -0.81662,0.42648 -1.57881,0.94367 -2.2684,1.53346 l -0.0816,0.0725 1.31568,1.54253 c -0.3811,0.33571 -0.72589,0.68959 -1.04347,1.05253 l -1.55159,-1.29752 -0.0725,0.0816 c -0.57164,0.68052 -1.07976,1.45178 -1.50622,2.28655 l -0.0453,0.0998 1.80566,0.91644 c -0.23592,0.47182 -0.41739,0.92551 -0.56257,1.37012 l -1.93269,-0.59886 -0.0272,0.0998 c -0.2722,0.85292 -0.4446,1.75121 -0.51719,2.6858 l -0.009,0.10887 2.02342,0.15426 c -0.0363,0.50812 -0.0272,1.00717 0.009,1.48807 l -2.02341,0.18148 0.009,0.10888 c 0.0816,0.94366 0.27222,1.84195 0.54442,2.6858 l 0.0363,0.0998 1.92361,-0.62608 c 0.0453,0.12703 0.0907,0.25406 0.14518,0.38109 z m 19.34498,1.86917 0.32666,0.17239 c -0.0998,0.18148 -0.2087,0.36295 -0.32666,0.53535 v 0.93458 c 0.36295,-0.50812 0.70774,-1.05254 0.9981,-1.62418 l 0.0453,-0.0998 -1.04347,-0.53534 z m -6.71448,5.58028 0.0363,0.13611 c -0.58979,0.16332 -1.16142,0.28128 -1.70585,0.35386 l -0.0545,-0.48997 h -0.53535 l 0.0908,1.06162 0.10887,-0.009 c 0.94367,-0.0816 1.84196,-0.27221 2.6858,-0.54442 l 0.0998,-0.0362 -0.15425,-0.47182 z m -13.00252,-4.86347 c -0.0907,-0.1361 -0.1724,-0.28128 -0.25406,-0.41738 l 0.25406,-0.14518 v -0.60794 l -0.97995,0.51721 0.0453,0.0907 c 0.27222,0.52626 0.58979,1.01625 0.9346,1.49715 z m 8.56551,4.86347 -0.0544,0.49906 c -0.55349,-0.0635 -1.12514,-0.1724 -1.70584,-0.32666 l 0.0453,-0.1724 h -0.57164 l -0.16333,0.5172 0.0998,0.0363 c 0.85291,0.27222 1.7512,0.44461 2.68579,0.5172 l 0.10888,0.009 0.0817,-1.07069 z m 6.07933,-8.85587 c 0.13611,-0.0635 0.28128,-0.11795 0.43554,-0.16331 0.0544,-0.0182 0.10888,-0.0272 0.17239,-0.0453 0.0998,-0.0272 0.19056,-0.0544 0.29036,-0.0725 0.0635,-0.009 0.12703,-0.0182 0.19963,-0.0272 0.0998,-0.0182 0.19053,-0.0363 0.28128,-0.0363 0.0725,-0.009 0.14517,-0.009 0.21777,-0.009 0.0907,-0.009 0.19054,-0.009 0.28128,-0.009 0.0998,0 0.19054,0.009 0.29035,0.009 0.0725,0 0.14518,0 0.21777,0.009 0.10888,0.009 0.21777,0.0272 0.31758,0.0453 0.0635,0.009 0.11795,0.009 0.18147,0.0272 0.11795,0.0181 0.23591,0.0544 0.35387,0.0816 0.0453,0.009 0.0907,0.0182 0.13611,0.0363 0.16332,0.0453 0.31758,0.0998 0.47182,0.16332 0,0.36295 0,1.12513 0,1.12513 h -3.83814 c -0.009,0 -0.009,-0.49905 -0.009,-1.13421 z m -6.59653,-14.75372 v -0.44461 c 0,-0.29036 0.29036,-0.52627 0.64422,-0.52627 h 2.33193 c 0.35388,0 0.64423,0.23591 0.64423,0.52627 v 0.44461 l -0.29943,10.16247 h -3.03059 z m -0.97088,10.78855 c 0.0453,-0.0363 0.0907,-0.0544 0.14517,-0.0544 h 5.27179 c 0.0544,0 0.0998,0.0181 0.14518,0.0544 0.1361,0.0998 0.22685,0.33572 0.22685,0.60794 0,0.27221 -0.0998,0.50812 -0.22685,0.60792 -0.0453,0.0363 -0.0907,0.0544 -0.14518,0.0544 h -5.27179 c -0.0544,0 -0.0998,-0.0181 -0.14517,-0.0544 -0.1361,-0.0998 -0.22683,-0.33571 -0.22683,-0.60792 -0.009,-0.27222 0.0907,-0.50812 0.22683,-0.60794 z m -1.33382,4.1648 c 0.0544,-0.23591 0.19054,-0.40832 0.34479,-0.40832 h 7.53112 c 0.15425,0 0.29036,0.16333 0.3448,0.40832 0.0181,0.0816 0.0272,0.16332 0.0272,0.25405 0,0.36295 -0.17241,0.66238 -0.37203,0.66238 h -7.53111 c -0.20868,0 -0.37201,-0.29943 -0.37201,-0.66238 0,-0.0907 0.009,-0.17239 0.0272,-0.25405 z m -4.99957,2.11415 c 0,-0.0725 0.0182,-0.14517 0.0453,-0.2087 0.0816,-0.19054 0.27221,-0.33572 0.49905,-0.33572 h 17.14009 c 0.0725,0 0.14518,0.0182 0.2087,0.0453 0.19054,0.0816 0.32664,0.27222 0.32664,0.49905 v 5.25364 0 c 0,0.0725 -0.0181,0.14518 -0.0453,0.20869 -0.0817,0.19055 -0.27221,0.32666 -0.49906,0.32666 h -17.13101 c -0.22685,0 -0.41739,-0.13611 -0.49905,-0.32666 -0.0272,-0.0635 -0.0453,-0.1361 -0.0453,-0.20869 z"
       id="path1"
       style="stroke-width:0.0907357" />
  </g>
</svg>
