<?xml version="1.0" encoding="UTF-8" standalone="no"?>
<!-- Created with Inkscape (http://www.inkscape.org/) -->

<svg
   width="128.52176mm"
   height="37.911663mm"
   viewBox="0 0 128.52176 37.911663"
   version="1.1"
   id="svg1"
   inkscape:version="1.3 (0e150ed6c4, 2023-07-21)"
   sodipodi:docname="sausage-outline.svg"
   xmlns:inkscape="http://www.inkscape.org/namespaces/inkscape"
   xmlns:sodipodi="http://sodipodi.sourceforge.net/DTD/sodipodi-0.dtd"
   xmlns="http://www.w3.org/2000/svg"
   xmlns:svg="http://www.w3.org/2000/svg">
  <sodipodi:namedview
     id="namedview1"
     pagecolor="#ffffff"
     bordercolor="#000000"
     borderopacity="0.25"
     inkscape:showpageshadow="2"
     inkscape:pageopacity="0.0"
     inkscape:pagecheckerboard="0"
     inkscape:deskcolor="#d1d1d1"
     inkscape:document-units="mm"
     inkscape:zoom="0.854328"
     inkscape:cx="242.88095"
     inkscape:cy="71.986403"
     inkscape:window-width="1854"
     inkscape:window-height="1177"
     inkscape:window-x="58"
     inkscape:window-y="-8"
     inkscape:window-maximized="1"
     inkscape:current-layer="layer1" />
  <defs
     id="defs1" />
  <g
     inkscape:label="Layer 1"
     inkscape:groupmode="layer"
     id="layer1"
     transform="translate(-40.878336,-129.51354)">
    <path
       id="path7-5"
       style="color:#000000;opacity:0.683;mix-blend-mode:normal;fill:none;stroke:#000000;stroke-width:0.264583;stroke-linecap:round;stroke-linejoin:round;stroke-opacity:1;-inkscape-stroke:none"
       d="m 107.34338,129.65898 c -22.757443,-0.41759 -38.376962,9.21231 -45.222552,13.52836 -6.663161,4.21301 -14.280595,7.48096 -19.092889,5.84149 a 11.726571,11.726571 0 0 0 0.553958,13.90407 11.726571,11.726571 0 0 0 16.490473,1.75805 c 0,0 19.108764,-15.10554 45.0515,-15.10554 25.94274,0 45.05153,15.10554 45.05153,15.10554 a 11.726571,11.726571 0 0 0 16.49045,-1.75805 11.726571,11.726571 0 0 0 -1.75802,-16.49045 c 0,0 -0.0851,-0.0653 -0.0899,-0.0693 -10.58944,0.92478 -28.20998,-14.59221 -52.82882,-16.492 -1.58012,-0.12171 -3.12854,-0.19437 -4.64572,-0.2222 z" />
  </g>
</svg>
