<?xml version="1.0" encoding="UTF-8" standalone="no"?>
<svg
   viewBox="0 0 581.18391 499.26802"
   version="1.1"
   id="svg76"
   sodipodi:docname="SwadgeDesign-13-Export-01.svg"
   width="581.1839"
   height="499.26804"
   inkscape:version="1.4.2 (f4327f4, 2025-05-13)"
   xml:space="preserve"
   xmlns:inkscape="http://www.inkscape.org/namespaces/inkscape"
   xmlns:sodipodi="http://sodipodi.sourceforge.net/DTD/sodipodi-0.dtd"
   xmlns="http://www.w3.org/2000/svg"
   xmlns:svg="http://www.w3.org/2000/svg"><sodipodi:namedview
     id="namedview76"
     pagecolor="#ffffff"
     bordercolor="#000000"
     borderopacity="0.25"
     inkscape:showpageshadow="2"
     inkscape:pageopacity="0.0"
     inkscape:pagecheckerboard="0"
     inkscape:deskcolor="#d1d1d1"
     inkscape:zoom="6.0957154"
     inkscape:cx="293.64888"
     inkscape:cy="461.06156"
     inkscape:window-width="1920"
     inkscape:window-height="1009"
     inkscape:window-x="1912"
     inkscape:window-y="198"
     inkscape:window-maximized="1"
     inkscape:current-layer="svg76" /><defs
     id="defs1"><style
       id="style1">
      .cls-1 {
        fill: #fff;
      }
    </style><style
       id="style1-9">
      .cls-1 {
        fill: #010101;
      }
    </style></defs><g
     id="Silk-White"
     transform="matrix(1.3378387,0,0,1.3378387,0,-1.6990551)"><g
       id="g76"><g
         id="g37"><g
           id="g6"><path
             class="cls-1"
             d="m 387.73,230.29 v 0 c 0.52,0 0.95,-0.42 0.95,-0.95 0,-0.53 -0.42,-0.95 -0.95,-0.95 -0.53,0 -0.95,0.42 -0.95,0.95 0,0.53 0.42,0.95 0.95,0.95 z"
             id="path1" /><path
             id="path2"
             class="cls-1"
             d="M 324.56004 32.040537 C 323.16004 33.630537 288.75025 72.729566 271.53025 97.279566 C 270.26025 99.099566 268.90067 101.06067 267.49067 103.12067 L 267.51987 103.12067 L 264.3796 107.70041 C 264.3396 107.76041 264.30011 107.80976 264.27011 107.86976 L 256.33988 119.74029 C 256.29988 119.81029 256.24994 119.8703 256.20994 119.9403 L 239.80931 145.05952 L 221.2699 174.02999 L 217.22011 177.43012 L 213.17032 174.02999 L 194.62945 145.05952 L 178.22006 119.93008 C 178.18006 119.87008 178.14056 119.81927 178.11056 119.75927 L 170.15989 107.85954 C 170.15989 107.85954 170.09937 107.76939 170.06937 107.71939 L 166.92035 103.12943 L 166.94955 103.12943 C 165.53955 101.06943 164.17997 99.099785 162.90997 97.289785 C 145.68997 72.749785 111.30018 33.659516 109.88018 32.059516 C 109.76018 32.119516 109.63958 32.189304 109.51958 32.249304 L 55.419669 87.850003 C 78.349669 147.46 96.730255 208.73053 111.88025 270.75053 C 117.08025 292.07053 122.04067 314.20072 126.34067 335.71072 L 154.16949 356.80059 C 172.90949 367.71059 205.67033 374.45967 217.23033 374.45967 C 228.79033 374.45967 260.65971 368.74059 280.28971 356.80059 L 308.13021 335.71072 C 312.43021 314.17072 317.3704 292.10053 322.5804 270.75053 L 322.55996 270.74031 C 337.71996 208.72031 356.10055 147.45978 379.02055 87.839783 L 324.92064 32.240545 C 324.80064 32.170545 324.68004 32.110537 324.56004 32.040537 z M 99.819933 51.480708 L 101.25064 53.109968 L 112.88029 66.360117 L 124.42965 79.509533 L 125.65013 80.899368 L 124.35957 82.220587 L 108.91956 98.139453 L 121.2193 109.57931 L 135.2505 95.120358 L 136.76005 93.559713 L 138.1893 95.190433 L 149.82041 108.44058 L 161.36977 121.59 L 162.59025 122.97983 L 161.29969 124.29959 L 149.79997 136.14969 L 162.09972 147.58955 L 172.19062 137.1906 L 173.70017 135.62996 L 175.12942 137.26068 L 186.76053 150.50937 L 198.30989 163.66024 L 199.53037 165.05008 L 198.23981 166.36984 L 190.70959 174.13072 L 217.24055 198.0207 L 243.77004 174.13072 L 236.23983 166.36984 L 234.95072 165.05008 L 236.16975 163.66024 L 247.72056 150.50937 L 259.35021 137.26068 L 260.77946 135.62996 L 262.29047 137.1906 L 272.37991 147.58955 L 284.67966 136.14969 L 273.17995 124.29959 L 271.88938 122.97983 L 273.10987 121.59 L 284.66068 108.44058 L 296.29033 95.190433 L 297.71958 93.559713 L 299.23059 95.120358 L 313.26033 109.57931 L 325.56008 98.139453 L 310.12007 82.220587 L 308.8295 80.899368 L 310.04999 79.509533 L 321.59934 66.360117 L 333.23045 53.109968 L 334.6597 51.480708 L 336.17071 53.039892 L 354.14951 71.570539 L 358.8694 67.180587 L 365.30031 73.8407 L 365.33973 73.799822 L 366.73978 75.230535 L 366.69014 75.269952 L 355.0094 85.590061 L 353.58015 86.849964 L 352.25017 85.480568 L 334.88015 67.580603 L 329.17044 73.760405 L 323.39065 80.010282 L 339.43069 96.539391 L 340.8906 98.040179 L 339.31974 99.430014 L 313.1304 122.5696 L 311.69969 123.8295 L 310.36971 122.4601 L 296.93999 108.62015 L 291.23028 114.79995 L 285.45049 121.04983 L 297.55023 133.52039 L 299.01015 135.01972 L 297.43928 136.40955 L 271.24994 159.5506 L 269.82069 160.8105 L 268.49071 159.43964 L 259.01005 149.66992 L 253.30034 155.84972 L 247.52056 162.0996 L 255.66978 170.49993 L 257.12969 172.00071 L 255.56028 173.39055 L 218.57929 206.06043 L 217.25953 207.22982 L 215.93977 206.06043 L 178.96023 173.39055 L 177.38937 172.00071 L 178.84928 170.49993 L 186.99996 162.0996 L 181.22017 155.84972 L 175.51046 149.66992 L 166.0298 159.43964 L 164.69982 160.8105 L 163.27057 159.5506 L 137.07977 136.40955 L 135.51037 135.01972 L 136.97028 133.52039 L 149.07002 121.04983 L 143.29023 114.79995 L 137.58052 108.62015 L 124.14934 122.4601 L 122.81937 123.8295 L 121.39011 122.5696 L 95.199315 99.430014 L 93.629911 98.040179 L 95.089822 96.539391 L 111.12986 80.010282 L 105.35007 73.760405 L 99.640364 67.580603 L 82.270346 85.480568 L 80.940368 86.849964 L 80.889271 86.860183 L 79.460018 85.60028 L 67.779273 75.280172 L 67.739855 75.239294 L 69.13991 73.810042 L 69.179327 73.8407 L 75.610234 67.180587 L 80.330125 71.570539 L 98.310385 53.039892 L 99.819933 51.480708 z M 89.969915 137.5293 L 130.92041 163.20037 L 215.1193 215.63014 L 219.32968 215.63014 L 303.54025 163.20037 L 344.7798 137.5293 L 328.52954 157.00013 C 326.96954 178.83013 322.26004 233.5801 311.45004 282.3101 C 310.88004 281.8601 310.18033 281.58015 309.40033 281.58015 C 309.05033 281.58015 308.72051 281.6495 308.41051 281.7495 C 318.79051 223.5995 315.3699 163.20037 315.3699 163.20037 L 303.6293 170.27948 L 303.6293 175.59939 L 303.57967 175.59063 L 303.42929 184.29024 L 303.07016 194.69065 L 302.4205 206.42979 L 301.96938 212.7001 L 301.42046 219.17043 L 300.76058 225.79988 L 299.97953 232.54029 L 296.38961 260.04063 C 275.92961 268.25063 248.01033 273.30976 217.23033 273.30976 C 186.45033 273.30976 158.52937 268.25063 138.05937 260.04063 L 136.38048 247.49999 L 134.47967 232.54029 L 133.0402 219.17043 L 132.02994 206.44001 L 131.38028 194.6994 L 131.01968 184.30046 L 130.86055 170.27948 L 130.84011 170.27948 L 119.09951 163.20037 C 119.09951 163.20037 115.69037 223.6095 126.06037 281.7495 C 125.75037 281.6495 125.42055 281.58015 125.07055 281.58015 C 124.29055 281.58015 123.57937 281.8601 123.01937 282.3101 C 112.14937 233.3001 107.44068 178.19931 105.91068 156.62931 L 89.969915 137.5293 z M 235.34052 343.30225 L 238.18005 343.30225 L 236.93182 346.31551 L 241.2444 346.31551 L 236.08799 348.3404 L 235.93032 348.72144 L 236.37852 348.72144 L 236.40918 349.62659 L 236.61064 349.38716 L 238.77861 349.38716 L 238.80781 350.20909 L 238.81511 350.20179 L 239.35382 350.20179 L 237.17125 355.50857 L 226.49054 355.50857 L 226.07885 356.52466 L 225.27882 356.56992 L 225.76497 357.3028 L 225.05545 359.03717 L 223.82913 359.93356 L 221.92978 360.00801 L 223.0072 360.64453 L 219.29172 360.846 L 217.25077 360.95841 L 213.89443 361.13798 L 214.71782 360.427 L 213.83458 360.47226 L 213.31923 359.69413 L 212.98345 360.51752 L 209.63441 360.69563 L 210.24758 359.18608 L 204.36414 354.41071 L 204.40939 354.41071 L 206.06931 354.3202 L 209.84318 354.10413 L 212.46664 353.96106 L 215.4799 353.80485 L 221.16041 353.50557 L 227.17816 353.18439 L 227.85848 351.56243 L 228.97093 348.90831 L 229.33007 348.05718 L 230.19726 348.05718 L 232.16376 346.31551 L 234.08354 346.31551 L 235.34052 343.30225 z M 235.73616 343.85556 L 234.72006 346.29945 L 233.60615 348.96817 L 234.45727 348.96817 L 235.21351 348.96817 L 235.36242 348.60903 L 236.31866 346.29945 L 237.33622 343.85556 L 235.73616 343.85556 z M 212.96009 345.26145 L 215.32223 345.26145 L 215.72662 345.92571 L 216.01714 345.32131 L 232.04404 345.32131 L 230.93743 346.29945 L 229.48774 347.59293 L 228.70231 347.59293 L 226.6015 352.7289 L 224.07585 352.86321 L 224.50214 351.83835 L 223.05829 352.91576 L 215.67406 353.3041 L 216.95149 350.54487 L 216.17481 350.56823 L 214.85213 353.3406 L 206.15837 353.82675 L 206.59196 352.43691 L 206.32334 352.45151 L 205.26198 353.87931 L 205.24738 353.87201 L 197.4354 354.3056 L 198.13762 352.81795 L 196.68063 354.3348 L 193.17538 354.52167 L 198.05586 349.27475 L 200.23113 346.94327 L 199.59607 346.29945 L 198.63837 345.33591 L 204.19333 345.33591 L 203.84879 346.13594 L 204.52181 345.33591 L 207.07811 345.33591 L 206.68247 346.29945 L 205.18753 349.95507 L 207.9453 346.29945 L 208.68547 345.32131 L 211.5177 345.32131 L 211.21842 346.29945 L 211.20382 346.35201 L 211.28557 346.29945 L 212.96009 345.26145 z M 213.17032 345.99287 L 212.65351 346.30675 L 211.60091 346.95787 L 209.05191 351.92886 L 209.03585 351.92886 L 209.64901 352.90701 L 211.525 352.80335 L 213.11776 351.7347 L 214.4857 348.93897 L 212.071 348.99882 L 212.90899 349.96237 L 212.19802 351.39746 L 210.45634 351.47191 L 211.70457 349.00612 L 212.55715 347.32431 L 214.23167 347.30971 L 213.67837 348.42216 L 214.76162 348.40026 L 215.4799 346.91991 L 215.10616 346.30675 L 214.91929 345.99287 L 213.17032 345.99287 z M 223.97804 346.03813 L 223.597 346.29945 L 223.6116 346.29945 L 222.96194 346.7491 L 222.04949 348.80466 L 222.46119 349.50687 L 223.72401 349.46892 L 223.09625 350.92737 L 222.05679 350.97116 L 222.41593 350.14923 L 221.43633 350.18719 L 220.82463 351.57703 L 221.24216 352.28654 L 222.77507 352.20479 L 223.82183 351.42812 L 224.73281 349.26745 L 224.32987 348.57983 L 223.08165 348.60903 L 223.69481 347.20459 L 224.72551 347.18999 L 224.43499 347.86155 L 225.33137 347.84695 L 225.81022 346.72574 L 225.5708 346.29945 L 225.42043 346.03813 L 223.97804 346.03813 z M 226.66865 346.03813 L 226.5577 346.29945 L 226.5504 346.29945 L 226.29491 346.89801 L 227.31977 346.89801 L 225.1591 352.08508 L 226.09345 352.03252 L 228.20886 346.88341 L 229.20306 346.88341 L 229.84542 346.29945 L 230.1447 346.03813 L 226.66865 346.03813 z M 209.02855 346.04542 L 208.83438 346.30675 L 203.60206 353.24424 L 204.86489 353.17709 L 205.92624 351.7493 L 207.56426 351.68214 L 207.13067 353.05738 L 208.40079 352.99022 L 210.44904 346.30675 L 210.5308 346.04542 L 209.02855 346.04542 z M 200.36544 346.05272 L 200.60487 346.29945 L 201.22533 346.91991 L 198.61647 349.72294 L 194.91705 353.69974 L 196.36675 353.62528 L 199.45446 350.41056 L 200.14207 349.70104 L 200.35084 349.84265 L 199.90995 350.777 L 198.60917 353.52747 L 200.12602 353.46031 L 201.35234 351.95076 L 203.00496 349.91711 L 203.22103 350.04412 L 202.15237 352.60042 L 201.83849 353.35666 L 203.01226 353.3041 L 203.01956 353.3041 L 203.03416 353.3041 L 205.89704 346.29945 L 205.99486 346.05272 L 204.84299 346.05272 L 204.64152 346.29945 L 201.81513 349.68644 L 201.59907 349.55213 L 202.9889 346.29945 L 203.09401 346.05272 L 200.36544 346.05272 z M 216.4668 346.05272 L 216.33978 346.30675 L 216.33978 346.29945 L 213.23747 352.70554 L 214.37328 352.64568 L 215.70326 349.86601 L 217.22887 349.82075 L 217.67706 348.87181 L 216.16751 348.90831 L 217.08726 346.97977 L 218.91799 346.96517 L 219.22457 346.30675 L 219.34428 346.05272 L 216.4668 346.05272 z M 219.80707 346.05272 L 219.68736 346.31551 L 216.80987 352.51867 L 220.36038 352.3318 L 220.24066 351.41206 L 218.32818 351.50257 L 219.18661 349.61929 L 220.71952 349.57403 L 221.13121 348.66158 L 219.6129 348.69954 L 220.40563 346.95787 L 222.22906 346.94327 L 222.87142 346.31551 L 223.13421 346.05272 L 219.80707 346.05272 z M 194.38565 346.29945 L 198.4077 346.29945 L 199.07196 346.97247 L 197.4135 348.7594 L 194.38565 346.29945 z M 208.30443 348.51997 L 208.5278 348.63239 L 207.90004 350.68064 L 206.66642 350.72444 L 208.30443 348.51997 z M 232.7083 349.28205 L 232.22361 349.84265 L 231.6849 350.46311 L 231.6995 350.46311 L 235.87047 350.46311 L 235.82521 349.28205 L 235.56389 349.28205 L 233.6514 349.28205 L 233.02218 349.28205 L 232.7083 349.28205 z M 236.87197 349.94777 L 236.43107 350.46311 L 236.43837 350.46311 L 238.2472 350.46311 L 238.2253 349.94777 L 236.87197 349.94777 z M 228.81472 350.7697 L 228.60595 351.26315 L 228.05995 352.56393 L 227.06575 354.92606 L 236.78291 354.92606 L 238.49393 350.7697 L 236.14785 350.7697 L 235.96828 350.7697 L 229.86148 350.7697 L 228.81472 350.7697 z M 223.91088 354.27494 L 221.75021 354.39465 L 222.04219 354.63408 L 220.09175 356.39035 L 219.70342 354.76839 L 219.79247 354.72459 L 220.24066 354.47787 L 217.96174 354.60488 L 218.31942 354.83555 L 218.43913 355.25454 L 219.0158 357.2955 L 215.17331 360.62117 L 217.34128 360.50146 L 217.12376 360.29999 L 219.32968 358.36415 L 219.77787 360.13502 L 219.27712 360.39781 L 221.50495 360.27809 L 221.10055 360.04597 L 220.36768 357.41521 L 223.91088 354.27494 z M 225.66715 354.59758 L 224.44229 354.66474 L 223.42473 355.41221 L 222.0057 358.90286 L 222.44659 359.56712 L 223.67145 359.49996 L 224.68901 358.75249 L 224.80873 358.44591 L 225.25692 357.34805 L 224.81602 356.68233 L 223.64956 356.74219 L 224.09045 355.65018 L 225.21896 355.59032 L 225.00289 356.12903 L 225.77227 356.08377 L 226.10659 355.25892 L 225.66715 354.59758 z M 217.28143 355.04577 L 216.0624 355.11293 L 215.0463 355.8604 L 214.69446 356.72759 L 213.63311 359.35105 L 214.074 360.01677 L 215.29303 359.94815 L 216.30913 359.20068 L 216.67556 358.2897 L 216.92229 357.68383 L 217.72232 355.71003 L 217.6245 355.56842 L 217.28143 355.04577 z M 214.09736 355.21658 L 212.89293 355.2852 L 212.0783 355.8823 L 211.70457 356.80205 L 212.46664 356.75679 L 212.68417 356.21954 L 213.5061 356.17429 L 213.0433 357.3101 L 212.04181 357.36265 L 211.22718 357.96122 L 211.16732 358.10283 L 210.30743 360.21094 L 212.67687 360.08393 L 213.0798 359.08973 L 211.50602 359.17148 L 211.5031 359.17878 L 211.4958 359.17148 L 211.50602 359.17148 L 211.83888 358.34955 L 212.84038 358.297 L 213.65647 357.69843 L 213.93239 357.02687 L 214.44774 355.75529 L 214.09736 355.21658 z M 216.84053 356.03997 L 215.65946 358.95396 L 214.53095 359.01381 L 215.60691 356.36115 L 215.71202 356.09983 L 216.36168 356.06187 L 216.84053 356.03997 z M 224.37513 357.67653 L 224.03789 358.49116 L 224.03789 358.50576 L 222.90938 358.56562 L 223.24516 357.73639 L 224.37513 357.67653 z " /><path
             class="cls-1"
             d="m 103.84,310.43 c -0.45,-2.8 -2.66,-5.09 -5.44,-5.62 -0.46,-0.09 -0.91,-0.13 -1.35,-0.13 -4.24,0 -7.58,3.83 -6.75,8.22 0.52,2.74 2.74,4.93 5.48,5.42 0.43,0.08 0.85,0.11 1.27,0.11 0.39,0 0.78,-0.03 1.15,-0.1 3.6,-0.61 6.26,-4.02 5.64,-7.91 z"
             id="path3" /><path
             class="cls-1"
             d="m 68.65,257.72 v -1.05 c 0,-0.14 -0.07,-0.21 -0.21,-0.21 h -1.3 v 1.47 h 1.3 c 0.14,0 0.21,-0.07 0.21,-0.21 z"
             id="path4" /><polygon
             class="cls-1"
             points="72.13,256.46 72.02,256.46 71.4,258.49 72.75,258.49 "
             id="polygon4" /><path
             class="cls-1"
             d="m 412.67,134.64 c -12.88,-8.71 -28.88,-16.26 -28.88,-16.26 l 6.74,-18.7 -7.03,-7.22 c -31.69,78.49 -55.92,159.95 -74.43,242.52 l 14.15,-10.72 9.52,-46.77 5.34,-22.63 6.55,-23.24 18.43,-54.94 19.48,-54.78 c 4.2,1.8 12.57,5.66 21.81,11.49 -4.28,8.82 -12.06,26.41 -19.13,50.61 0,0 11.02,-30.51 22.65,-48.33 6.9,2.87 14.89,10.45 20.64,17.84 2.35,3.02 3.62,6.74 3.65,10.57 0.16,16.82 -1.07,50.68 -7.05,94.81 0.26,-9.52 -0.57,-19.47 -3.02,-28.66 v 0 l 0.29,-0.29 0.32,-0.32 h 0.53 l 0.29,-0.29 1.06,-1.06 0.29,-0.29 v -6.9 l -0.29,-0.29 -1.06,-1.06 -0.29,-0.29 h -0.53 l -0.32,-0.32 -0.29,-0.29 h -4.14 c -2.86,-6.03 -6.69,-11.4 -11.69,-15.63 -7.78,-6.58 -15.57,-9.83 -22.64,-10.21 -5.71,15.63 -11.14,31.36 -16.22,47.2 -1.62,0.45 -3.2,0.99 -4.73,1.63 4.73,-16.27 9.91,-32.41 15.2,-48.48 -28.7,-6.1 -53.42,131.29 -53.68,131.21 1.56,0.45 4.89,1.37 9.28,2.42 0.15,-0.75 0.98,-4.91 1.48,-7.38 -3.51,-1.05 -5.96,-4.26 -5.96,-8.01 0,-4.62 3.76,-8.38 8.38,-8.38 4.62,0 8.38,3.76 8.38,8.38 0,4.62 -3.76,8.38 -8.38,8.38 -0.15,0 -0.3,-0.01 -0.45,-0.02 -0.54,2.71 -1.39,6.93 -1.5,7.49 7.98,1.83 18.74,3.85 28.73,4.29 16.03,0.71 47.35,-10.48 47.35,-10.48 0,0 8.42,-21.74 16.89,-70.38 4.15,-23.86 6.03,-92.64 6.03,-92.64 0,0 -6.97,-13.57 -21.76,-23.57 z m -24.94,93 c 0.94,0 1.7,0.76 1.7,1.7 0,0.81 -0.57,1.48 -1.32,1.65 v 3.91 l 0.51,0.51 h 4.34 v -2.66 l 1.06,-1.06 h 0.53 l 0.62,-0.62 h 7.2 l 0.62,0.62 h 0.53 l 1.06,1.06 v 6.07 l -1.06,1.06 h -0.53 l -0.62,0.62 h -7.2 l -0.62,-0.62 h -0.53 l -1.06,-1.06 v -2.66 h -4.65 l -0.95,-0.95 v -4.22 c -0.76,-0.17 -1.32,-0.85 -1.32,-1.65 0,-0.94 0.76,-1.7 1.7,-1.7 z m 27.61,68.13 c -2,4.74 -4.87,8.99 -8.53,12.65 -3.66,3.66 -7.91,6.52 -12.65,8.53 -4.91,2.08 -10.12,3.13 -15.49,3.13 -5.37,0 -10.58,-1.05 -15.49,-3.13 -4.74,-2 -8.99,-4.87 -12.65,-8.53 -3.66,-3.66 -6.52,-7.91 -8.53,-12.65 -2.08,-4.91 -3.13,-10.12 -3.13,-15.49 0,-5.37 1.05,-10.58 3.13,-15.49 2,-4.74 4.87,-8.99 8.53,-12.65 3.66,-3.66 7.91,-6.52 12.65,-8.53 4.91,-2.08 10.12,-3.13 15.49,-3.13 v 0 c 5.37,0 10.58,1.05 15.49,3.13 4.74,2 8.99,4.87 12.65,8.53 3.66,3.66 6.52,7.91 8.53,12.65 2.08,4.91 3.13,10.12 3.13,15.49 0,5.37 -1.05,10.58 -3.13,15.49 z m -0.85,-66.53 -0.62,-0.62 h -0.53 l -1.06,-1.06 v -2.66 h -4.46 l -0.95,-0.95 v -4.15 c -0.76,-0.17 -1.32,-0.85 -1.32,-1.65 0,-0.94 0.76,-1.7 1.7,-1.7 0.94,0 1.7,0.76 1.7,1.7 0,0.81 -0.57,1.48 -1.32,1.65 v 3.84 l 0.51,0.51 h 4.15 v -2.66 l 1.06,-1.06 h 0.53 l 0.62,-0.62 h 7.2 l 0.62,0.62 h 0.53 l 1.06,1.06 v 6.07 l -1.06,1.06 h -0.53 l -0.62,0.62 h -7.2 z"
             id="path5" /><path
             class="cls-1"
             d="m 344.26,311.56 c 0,-3.8 -3.08,-6.88 -6.88,-6.88 -3.8,0 -6.88,3.08 -6.88,6.88 0,3.41 2.48,6.23 5.73,6.78 0.37,0.06 0.76,0.1 1.15,0.1 3.8,0 6.88,-3.08 6.88,-6.88 z"
             id="path6" /><circle
             class="cls-1"
             cx="407.23999"
             cy="218.14999"
             r="0.94999999"
             id="circle6" /></g><g
           id="g11"><path
             class="cls-1"
             d="m 388.4,265.52 c -0.19,0 -0.37,-0.05 -0.53,-0.15 -0.76,-0.47 -1.55,-0.88 -2.36,-1.22 -2.17,-0.92 -4.47,-1.38 -6.83,-1.38 -2.36,0 -4.67,0.46 -6.83,1.38 -0.81,0.34 -1.61,0.75 -2.36,1.22 -0.16,0.1 -0.34,0.15 -0.53,0.15 -0.34,0 -0.66,-0.17 -0.85,-0.46 -0.15,-0.23 -0.2,-0.5 -0.14,-0.77 0.06,-0.27 0.22,-0.5 0.46,-0.64 0.84,-0.52 1.73,-0.97 2.63,-1.36 2.42,-1.02 4.98,-1.54 7.62,-1.54 2.64,0 5.2,0.52 7.62,1.54 0.91,0.38 1.79,0.84 2.63,1.36 0.23,0.14 0.4,0.37 0.46,0.64 0.06,0.27 0.01,0.54 -0.14,0.77 -0.19,0.29 -0.5,0.46 -0.84,0.46 z"
             id="path7" /><path
             class="cls-1"
             d="m 390.11,262.91 c -0.19,0 -0.37,-0.05 -0.53,-0.15 -0.91,-0.56 -1.87,-1.06 -2.85,-1.47 -2.55,-1.08 -5.26,-1.63 -8.05,-1.63 -2.79,0 -5.5,0.55 -8.05,1.63 -0.98,0.42 -1.94,0.91 -2.85,1.47 -0.16,0.1 -0.34,0.15 -0.53,0.15 -0.34,0 -0.66,-0.17 -0.84,-0.46 v -0.02 c -0.15,-0.22 -0.2,-0.49 -0.14,-0.75 0.06,-0.27 0.22,-0.49 0.45,-0.64 1,-0.62 2.05,-1.16 3.13,-1.62 2.8,-1.19 5.78,-1.79 8.83,-1.79 3.05,0 6.03,0.6 8.83,1.79 1.08,0.46 2.13,1 3.13,1.62 0.23,0.14 0.39,0.37 0.45,0.64 0.06,0.27 0,0.54 -0.14,0.77 v 0 c -0.19,0.29 -0.5,0.46 -0.84,0.46 z"
             id="path8" /><g
             id="g10"><path
               class="cls-1"
               d="m 387.64,266.97 c -0.06,-0.27 -0.22,-0.5 -0.46,-0.64 -1.83,-1.12 -3.9,-1.86 -6.02,-2.19 l 0.23,0.13 c 0,0 0.01,0 0.02,0.01 0,0 0,0 0.01,0 0,0 0.01,0 0.02,0.01 0,0 0,0 0,0 0,0 0,0.01 0.01,0.02 0,0 0,0 0,0.01 0,0 0,0.01 0.01,0.02 0,0 0,0 0,0.01 0,0 0,0.01 0,0.02 0,0 0,0 0,0.01 0,0 0,0.01 0,0.02 0,0 0,0 0,0.01 0,0 0,0.01 0,0.02 0,0 0,0 0,0.01 0,0.01 0,0.02 0,0.03 v 1.75 c 1.63,0.33 3.21,0.94 4.62,1.8 0.16,0.1 0.34,0.15 0.52,0.15 0.34,0 0.66,-0.17 0.84,-0.46 0.15,-0.23 0.2,-0.51 0.14,-0.77 z"
               id="path9" /><path
               class="cls-1"
               d="m 370.17,266.32 c -0.24,0.14 -0.4,0.37 -0.46,0.64 -0.06,0.27 -0.01,0.54 0.14,0.77 0.19,0.29 0.5,0.46 0.84,0.46 0.18,0 0.36,-0.05 0.52,-0.15 1.42,-0.86 2.99,-1.47 4.62,-1.8 v -1.75 c 0,0 0,-0.02 0,-0.03 0,0 0,0 0,-0.01 0,0 0,-0.01 0,-0.02 0,0 0,0 0,-0.01 0,0 0,-0.01 0,-0.02 0,0 0,0 0,-0.01 0,0 0,-0.01 0,-0.02 0,0 0,0 0,-0.01 0,0 0,-0.01 0.01,-0.02 0,0 0,0 0,-0.01 0,0 0,-0.01 0.01,-0.01 0,0 0,0 0.01,0 0,0 0,0 0.02,-0.01 0,0 0,0 0.01,0 0,0 0.01,0 0.02,-0.01 l 0.23,-0.13 c -2.13,0.32 -4.19,1.07 -6.02,2.19 z"
               id="path10" /></g><path
             class="cls-1"
             d="m 401.25,270.79 c -1.23,-2.92 -3,-5.54 -5.25,-7.79 -0.07,-0.07 -0.16,-0.11 -0.26,-0.11 -0.1,0 -0.19,0.04 -0.26,0.11 l -2.07,2.07 -4.74,4.74 c -0.07,0.07 -0.11,0.16 -0.11,0.26 0,0.1 0.04,0.19 0.11,0.26 2.36,2.36 3.78,5.4 4.08,8.68 l 0.05,0.03 -3.69,-2.15 v -1.19 c 0,0 0,-0.02 0,-0.03 0,0 0,0 0,-0.01 0,0 0,-0.01 0,-0.02 0,0 0,0 0,-0.01 0,0 0,-0.01 0,-0.02 0,0 0,0 0,-0.01 0,0 0,-0.01 0,-0.02 0,0 0,0 0,-0.01 0,0 0,-0.01 -0.01,-0.02 0,0 0,0 0,-0.01 0,0 0,-0.01 -0.01,-0.02 0,0 0,0 0,0 0,0 -0.01,0 -0.02,-0.01 0,0 0,0 -0.01,0 0,0 -0.01,0 -0.02,-0.01 l -0.93,-0.54 v -0.85 c 0,0 0,-0.02 0,-0.03 0,0 0,0 0,-0.01 0,0 0,-0.01 0,-0.02 0,0 0,0 0,-0.01 0,0 0,-0.01 0,-0.02 0,0 0,0 0,-0.01 0,0 0,-0.01 0,-0.02 0,0 0,0 0,-0.01 0,0 0,-0.01 -0.01,-0.02 0,0 0,0 0,-0.01 0,0 0,-0.01 -0.01,-0.02 0,0 0,0 0,0 0,0 -0.01,0 -0.02,-0.01 0,0 0,0 -0.01,0 0,0 -0.01,0 -0.02,-0.01 l -1.99,-1.16 c -0.08,-0.05 -0.18,-0.05 -0.26,0 l -0.72,0.42 -3.44,-2.01 v -6.63 c 0,0 0,-0.02 0,-0.03 0,0 0,0 0,-0.01 0,0 0,-0.01 0,-0.02 0,0 0,0 0,-0.01 0,0 0,-0.01 0,-0.02 0,0 0,0 0,-0.01 0,0 0,-0.01 0,-0.02 0,0 0,0 0,-0.01 0,0 0,-0.01 -0.01,-0.02 0,0 0,0 0,-0.01 0,0 0,-0.01 -0.01,-0.02 0,0 0,0 0,0 0,0 -0.01,0 -0.02,-0.01 0,0 0,0 -0.01,0 0,0 -0.01,0 -0.02,-0.01 l -2.58,-1.5 c -0.08,-0.05 -0.18,-0.05 -0.26,0 l -2.58,1.5 c 0,0 -0.01,0 -0.02,0.01 0,0 0,0 -0.01,0 0,0 -0.01,0 -0.02,0.01 0,0 0,0 -0.01,0 0,0 0,0 -0.01,0.01 0,0 0,0 0,0.01 0,0 0,0.01 -0.01,0.02 0,0 0,0 0,0.01 0,0 0,0.01 0,0.02 0,0 0,0 0,0.01 0,0 0,0.01 0,0.02 0,0 0,0 0,0.01 0,0 0,0.01 0,0.02 0,0 0,0 0,0.01 0,0.01 0,0.02 0,0.03 v 6.63 l -7.47,4.35 c 0,0 -0.01,0 -0.02,0.01 0,0 0,0 -0.01,0 0,0 -0.01,0 -0.02,0.01 0,0 0,0 -0.01,0 0,0 0,0 -0.01,0.01 0,0 0,0 0,0.01 0,0 0,0.01 -0.01,0.02 0,0 0,0 0,0.01 0,0 0,0.01 0,0.02 0,0 0,0 0,0.01 0,0 0,0.01 0,0.02 0,0 0,0 0,0.01 0,0 0,0.01 0,0.02 0,0 0,0 0,0.01 0,0.01 0,0.02 0,0.03 v 1.19 l -3.64,2.12 c 0.3,-3.28 1.72,-6.32 4.08,-8.68 0.07,-0.07 0.11,-0.16 0.11,-0.26 0,-0.1 -0.04,-0.19 -0.11,-0.26 l -4.74,-4.74 -2.07,-2.07 c -0.07,-0.07 -0.16,-0.11 -0.26,-0.11 -0.1,0 -0.19,0.04 -0.26,0.11 -2.25,2.25 -4.02,4.87 -5.25,7.79 -1.28,3.02 -1.92,6.23 -1.92,9.53 0,3.3 0.65,6.51 1.92,9.53 1.23,2.92 3,5.54 5.25,7.79 3.04,3.04 6.84,5.24 10.98,6.34 0.03,0 0.06,0.01 0.09,0.01 0.16,0 0.31,-0.11 0.35,-0.27 l 2.23,-8.33 v 0 c 0,0 3.53,2.09 3.53,2.09 0,0 0,0 0,0 0,0 0,0 0,0 0,0 0.01,0 0.02,0 0,0 0,0 0.01,0 0,0 0.01,0 0.02,0 0,0 0,0 0.01,0 0,0 0.01,0 0.02,0 0,0 0,0 0.01,0 0.01,0 0.02,0 0.03,0 0.01,0 0.02,0 0.03,0 0,0 0,0 0.01,0 0,0 0.01,0 0.02,0 0,0 0,0 0.01,0 0,0 0.01,0 0.02,0 0,0 0,0 0.01,0 0,0 0.01,0 0.02,0 0,0 0,0 0,0 0,0 0,0 0,0 l 3.54,-2.06 2.22,8.3 c 0.04,0.16 0.19,0.27 0.35,0.27 0.03,0 0.06,0 0.09,-0.01 4.14,-1.11 7.93,-3.3 10.98,-6.34 2.25,-2.25 4.02,-4.87 5.25,-7.79 1.28,-3.02 1.92,-6.23 1.92,-9.53 0,-3.3 -0.65,-6.51 -1.92,-9.53 z m -13.71,3.85 v 0.43 l -0.14,0.08 -0.63,0.37 -0.51,0.3 -0.18,-0.11 v -0.31 l 0.24,-0.14 0.63,-0.37 0.51,-0.3 z m -2.07,-1.21 0.34,-0.2 1.48,0.86 -0.34,0.2 -0.51,0.3 -0.62,0.36 v 0 c 0,0 -0.01,0 -0.01,0 l -1.92,-1.12 c 0,0 0.05,0.01 0.07,0.03 l 0.38,0.22 0.62,-0.36 0.51,-0.3 z m 0.08,1.97 v 0 0.53 l -1.47,-0.86 v -0.51 0 c 0,0 1.47,0.85 1.47,0.85 z m -4.04,-0.53 0.74,0.43 -0.74,0.43 z m -2.83,-11.58 2.07,1.2 -2.07,1.2 -2.07,-1.2 z m 2.32,1.65 v 11.08 l -0.09,0.05 -0.51,0.3 -1.26,0.74 -0.2,0.11 v -11.08 z m -4.64,9.63 v -9.62 l 2.06,1.2 v 11.08 l -0.13,-0.07 -1.33,-0.78 -0.51,-0.3 -0.09,-0.05 z m -0.52,-2.84 v 2.54 l -1.38,0.8 c -0.08,0.05 -0.13,0.13 -0.13,0.22 0,0.09 0.05,0.18 0.13,0.22 l 1.47,0.86 0.04,0.02 c 0,0 0,0 0,0 l 0.48,0.28 2.1,1.22 c 0,0 0,0 0,0 0,0 0,0 0,0 0,0 0,0 0.01,0 0,0 0.01,0 0.02,0 0,0 0.01,0 0.02,0 0,0 0.01,0 0.02,0 0,0 0.01,0 0.02,0 0,0 0,0 0.01,0 0.01,0 0.02,0 0.03,0 0.01,0 0.02,0 0.03,0 0,0 0.01,0 0.02,0 0,0 0.01,0 0.02,0 0,0 0.01,0 0.02,0 0,0 0,0 0.01,0 0,0 0.01,0 0.02,0 0,0 0,0 0.01,0 0,0 0,0 0,0 0,0 0,0 0,0 l 2.1,-1.22 0.48,-0.28 c 0,0 0,0 0,0 l 0.04,-0.02 1.47,-0.86 c 0.08,-0.05 0.13,-0.13 0.13,-0.22 0,-0.09 -0.05,-0.18 -0.13,-0.22 l -1.38,-0.8 v -2.54 l 2.93,1.71 -0.63,0.37 -0.12,0.07 c 0,0 -0.01,0 -0.02,0.01 0,0 0,0 -0.01,0 0,0 -0.01,0 -0.02,0.01 0,0 0,0 -0.01,0 0,0 0,0 -0.01,0.01 0,0 0,0 0,0.01 0,0 0,0.01 -0.01,0.02 0,0 0,0 0,0.01 0,0 0,0.01 0,0.02 0,0 0,0 0,0.01 0,0 0,0.01 0,0.02 0,0 0,0 0,0.01 0,0 0,0.01 0,0.02 0,0 0,0 0,0.01 0,0.01 0,0.02 0,0.03 v 1.13 c 0,0.09 0.05,0.18 0.13,0.22 l 1.99,1.16 c 0,0 0,0 0,0 0,0 0,0 0,0 0,0 0,0 0.01,0 0,0 0.01,0 0.02,0 0,0 0.01,0 0.02,0 0,0 0.01,0 0.02,0 0,0 0.01,0 0.02,0 0,0 0,0 0.01,0 0.01,0 0.02,0 0.03,0 0.01,0 0.02,0 0.03,0 0,0 0.01,0 0.02,0 0,0 0.01,0 0.02,0 0,0 0.01,0 0.02,0 0,0 0,0 0.01,0 0,0 0.01,0 0.02,0 0,0 0,0 0.01,0 0,0 0,0 0,0 0,0 0,0 0,0 l 0.82,-0.48 0.51,-0.3 0.63,-0.37 0.43,0.25 -0.63,0.37 -0.51,0.3 -2.89,1.69 -0.51,0.3 -5.11,2.98 -5.11,-2.98 -0.51,-0.3 -2.89,-1.69 -0.51,-0.3 -0.63,-0.37 6.82,-3.98 z m 0,3.14 v 0.86 l -0.74,-0.43 z m 12.75,1.72 v 4.27 l -0.25,0.15 -9.4,5.48 v -4.71 l 5.36,-3.13 0.51,-0.3 2.89,-1.69 0.51,-0.3 0.38,0.22 z m -19.83,3.97 v -3.97 l 0.38,-0.22 0.51,0.3 2.89,1.69 0.51,0.3 5.36,3.13 v 4.71 l -9.4,-5.48 -0.25,-0.15 v -0.3 z m 3.31,22.44 c -3.79,-1.11 -7.27,-3.16 -10.09,-5.98 -2.17,-2.17 -3.87,-4.69 -5.06,-7.51 -1.23,-2.91 -1.86,-6 -1.86,-9.19 0,-3.19 0.62,-6.28 1.86,-9.19 1.12,-2.65 2.7,-5.05 4.7,-7.14 l 1.95,1.95 c 0,0 -0.01,0.01 -0.02,0.02 -0.07,0.07 -0.14,0.14 -0.21,0.22 v 0 c 0,0 0,0 0,0 -0.01,0.01 -0.02,0.03 -0.04,0.04 -0.03,0.03 -0.05,0.05 -0.08,0.08 v 0 c 0,0 0,0 0,0 l -0.1,0.12 -0.21,0.24 -0.21,0.24 -0.1,0.12 c 0,0 -0.05,0.07 -0.08,0.09 -0.01,0.01 -0.02,0.03 -0.03,0.04 l -0.22,0.28 0.28,0.23 2.23,1.82 -0.06,0.07 -0.14,0.17 c 0,0 -0.07,0.09 -0.1,0.13 -0.01,0.02 -0.03,0.04 -0.04,0.06 v 0 c 0,0 0,0 0,0 l -0.26,0.37 c 0,0 -0.03,0.04 -0.05,0.06 -0.03,0.04 -0.06,0.08 -0.09,0.13 v 0 c 0,0 0,0 0,0 l -0.12,0.19 c -0.04,0.06 -0.08,0.12 -0.12,0.18 -0.12,0.19 -0.25,0.39 -0.36,0.59 l -0.22,0.38 c 0,0 -0.04,0.06 -0.05,0.09 l -2.55,-1.32 -0.32,-0.17 -0.17,0.32 -0.14,0.28 -0.07,0.14 -0.04,0.07 v 0 c 0,0 0,0.02 0,0.02 l -0.03,0.07 -0.26,0.58 c 0,0 -0.03,0.07 -0.05,0.1 -0.03,0.06 -0.06,0.13 -0.09,0.2 v 0 c 0,0 0,0 0,0 l -0.12,0.29 -0.23,0.59 -0.14,0.34 0.35,0.13 2.71,0.99 c -0.06,0.17 -0.12,0.35 -0.17,0.52 v 0 c 0,0 0,0.02 0,0.02 l -0.12,0.43 -0.06,0.21 c 0,0 0,0.03 -0.01,0.05 -0.02,0.06 -0.04,0.12 -0.05,0.19 l -0.1,0.43 -0.05,0.22 -0.03,0.11 v 0 c 0,0 0,0.02 0,0.02 l -0.02,0.11 -0.08,0.44 c 0,0 -0.01,0.06 -0.02,0.09 l -2.85,-0.41 -0.36,-0.05 -0.05,0.37 -0.08,0.63 -0.02,0.16 v 0.08 c 0,0 -0.01,0 -0.01,0 v 0 c 0,0 0,0.09 0,0.09 l -0.02,0.31 -0.05,0.63 v 0 c 0,0 0,0.02 0,0.02 l -0.02,0.63 v 0.36 c 0,0 0.35,0 0.35,0 l 2.87,0.06 c 0,0 0,0.07 0,0.11 v 0.45 c 0,0 0.02,0.22 0.02,0.22 v 0 c 0,0.09 0,0.17 0.01,0.25 l 0.03,0.44 0.02,0.22 v 0.11 c 0,0 0,0 0,0 v 0 c 0,0 0.01,0.12 0.01,0.12 l 0.06,0.44 0.03,0.22 v 0 c 0,0 0,0 0,0 0,0.01 0,0.02 0,0.03 0,0.03 0,0.06 0.01,0.09 v 0 c 0,0 0,0 0,0 l 0.02,0.11 0.02,0.08 -2.83,0.53 -0.35,0.07 0.06,0.35 0.06,0.31 v 0 c 0,0 0,0 0,0 0.01,0.07 0.03,0.14 0.05,0.21 0,0.03 0.02,0.07 0.02,0.1 l 0.14,0.61 c 0.02,0.09 0.04,0.17 0.06,0.24 0,0.03 0.02,0.05 0.02,0.08 v 0 c 0,0 0,0 0,0 l 0.09,0.3 0.09,0.3 0.04,0.15 v 0 c 0,0 0,0.02 0,0.02 l 0.05,0.15 0.11,0.34 v 0 c 2.17,6.4 7.35,11.4 13.86,13.32 l -0.71,2.67 z m 6.35,-13.02 v 6.84 l -15.54,-9.21 v -6.69 0 z m 0.26,-0.45 v 0 c 0,0 0,0 0,0 l -15.55,-9.06 v 0 c 0,0 5.11,-2.98 5.11,-2.98 v 3.52 c 0,0.09 0.05,0.18 0.13,0.22 l 10.17,5.93 c 0,0 0,0 0,0 0,0 0,0 0,0 0,0 0,0 0.01,0 0,0 0,0 0,0 0,0 0,0 0.01,0 0,0 0,0 0,0 0,0 0,0 0.01,0 0,0 0,0 0,0 0,0 0.01,0 0.02,0 v 0 c 0,0 0.01,0 0.02,0 0,0 0.01,0 0.02,0 0.01,0 0.02,0 0.03,0 0.01,0 0.02,0 0.03,0 0,0 0.01,0 0.02,0 0,0 0.01,0 0.02,0 v 0 c 0,0 0.01,0 0.02,0 0,0 0,0 0,0 0,0 0,0 0.01,0 0,0 0,0 0,0 0,0 0,0 0.01,0 0,0 0,0 0,0 0,0 0,0 0.01,0 0,0 0,0 0,0 0,0 0,0 0,0 l 10.17,-5.93 c 0.08,-0.05 0.13,-0.13 0.13,-0.22 v -3.52 l 5.11,2.98 v 0 c 0,0 -15.55,9.06 -15.55,9.06 z m 0.26,7.29 v -6.85 0 c 0,0 15.54,-9.06 15.54,-9.06 v 0 6.85 z m 21.5,-7.3 c -1.19,2.81 -2.89,5.34 -5.06,7.51 -2.81,2.81 -6.29,4.87 -10.09,5.98 l -0.71,-2.67 c 6.51,-1.92 11.7,-6.92 13.86,-13.32 v 0 c 0,0 0.11,-0.34 0.11,-0.34 l 0.05,-0.15 v 0 c 0,0 0,-0.02 0,-0.02 l 0.04,-0.15 0.09,-0.3 0.09,-0.3 v 0 c 0,0 0,0 0,0 0,-0.03 0.02,-0.05 0.02,-0.08 0.02,-0.08 0.04,-0.16 0.06,-0.24 l 0.14,-0.61 c 0,0 0.02,-0.07 0.02,-0.1 0.02,-0.07 0.03,-0.14 0.05,-0.21 v 0 c 0,0 0,0 0,0 l 0.06,-0.31 0.06,-0.35 -0.35,-0.07 -2.83,-0.53 0.02,-0.08 0.02,-0.11 v 0 c 0,0 0,0 0,0 0,-0.03 0,-0.06 0.01,-0.09 0,-0.01 0,-0.02 0,-0.03 v 0 c 0,0 0,0 0,0 l 0.03,-0.22 0.06,-0.44 v -0.11 c 0,0 0.02,0 0.02,0 v 0 c 0,0 0,-0.12 0,-0.12 l 0.02,-0.22 0.03,-0.44 c 0,-0.08 0,-0.16 0.01,-0.24 v 0 c 0,0 0,-0.24 0,-0.24 v -0.45 c 0,0 0.01,-0.07 0.01,-0.11 l 2.87,-0.06 h 0.36 c 0,0 0,-0.37 0,-0.37 l -0.02,-0.63 v 0 c 0,0 0,-0.02 0,-0.02 l -0.05,-0.63 -0.02,-0.31 v -0.08 c 0,0 0,0 0,0 v 0 c 0,0 0,-0.09 0,-0.09 l -0.02,-0.16 -0.08,-0.63 -0.05,-0.37 -0.36,0.05 -2.85,0.41 c 0,0 -0.01,-0.06 -0.02,-0.09 l -0.08,-0.44 -0.02,-0.11 v 0 c 0,0 0,-0.02 0,-0.02 l -0.03,-0.11 -0.05,-0.22 -0.1,-0.43 c -0.01,-0.07 -0.03,-0.13 -0.05,-0.19 0,-0.02 0,-0.03 -0.01,-0.05 l -0.06,-0.21 -0.12,-0.43 v 0 c 0,0 0,-0.02 0,-0.02 -0.06,-0.17 -0.12,-0.35 -0.17,-0.52 l 2.71,-0.99 0.35,-0.13 -0.14,-0.34 -0.23,-0.59 -0.12,-0.29 v 0 c 0,0 0,0 0,0 -0.03,-0.07 -0.06,-0.13 -0.09,-0.2 -0.01,-0.03 -0.03,-0.07 -0.05,-0.1 l -0.26,-0.58 -0.03,-0.07 v 0 c 0,0 0,-0.02 0,-0.02 l -0.04,-0.07 -0.07,-0.14 -0.14,-0.28 -0.17,-0.32 -0.32,0.17 -2.55,1.32 c 0,0 -0.03,-0.06 -0.05,-0.09 l -0.22,-0.38 c -0.11,-0.21 -0.24,-0.4 -0.36,-0.59 -0.04,-0.06 -0.08,-0.12 -0.12,-0.18 l -0.12,-0.19 v 0 c 0,0 0,0 0,0 -0.03,-0.05 -0.06,-0.09 -0.09,-0.13 -0.02,-0.02 -0.03,-0.04 -0.05,-0.06 l -0.26,-0.37 v 0 c 0,0 0,0 0,0 -0.01,-0.02 -0.03,-0.04 -0.04,-0.06 -0.03,-0.04 -0.06,-0.09 -0.1,-0.13 l -0.14,-0.17 -0.06,-0.07 2.23,-1.82 0.28,-0.23 -0.22,-0.28 c 0,0 -0.02,-0.03 -0.03,-0.04 -0.02,-0.03 -0.05,-0.06 -0.08,-0.09 l -0.1,-0.12 -0.21,-0.24 -0.21,-0.24 -0.1,-0.12 v 0 c 0,0 0,0 0,0 -0.03,-0.03 -0.05,-0.05 -0.08,-0.08 -0.01,-0.01 -0.02,-0.03 -0.04,-0.04 v 0 c 0,0 0,0 0,0 -0.07,-0.07 -0.14,-0.14 -0.21,-0.22 0,0 -0.01,-0.01 -0.02,-0.02 l 1.95,-1.95 c 2,2.08 3.58,4.48 4.7,7.14 1.23,2.91 1.86,6 1.86,9.19 0,3.19 -0.62,6.28 -1.86,9.19 z"
             id="path11" /></g><g
           id="g18"><polygon
             class="cls-1"
             points="374.76,310.72 382.6,310.72 378.68,315 "
             id="polygon11" /><polygon
             class="cls-1"
             points="374.76,249.86 378.68,245.57 382.6,249.86 "
             id="polygon12" /><polygon
             class="cls-1"
             points="343.96,280.29 348.25,276.37 348.25,284.21 "
             id="polygon13" /><polygon
             class="cls-1"
             points="409.11,276.37 413.39,280.29 409.11,284.21 "
             id="polygon14" /><g
             id="g17"><path
               class="cls-1"
               d="m 409.76,273.7 c -2.59,-12.27 -12.28,-21.96 -24.55,-24.56 l 1.1,1.2 c 1.46,0.38 2.87,0.86 4.24,1.44 v 1.51 c 6.72,2.98 12.12,8.4 15.09,15.12 h 1.51 c 0.56,1.35 1.04,2.75 1.41,4.19 z"
               id="path14" /><path
               class="cls-1"
               d="m 372.16,249.11 c -12.39,2.56 -22.17,12.34 -24.73,24.72 l 1.2,-1.1 c 0.38,-1.49 0.87,-2.93 1.45,-4.32 h 1.5 c 2.99,-6.77 8.43,-12.21 15.21,-15.18 v -1.5 c 1.38,-0.57 2.8,-1.06 4.27,-1.43 l 1.1,-1.2 z"
               id="path15" /><path
               class="cls-1"
               d="m 371.06,310.27 c -1.47,-0.37 -2.89,-0.85 -4.27,-1.43 v -1.5 c -6.77,-2.97 -12.22,-8.41 -15.21,-15.18 h -1.5 c -0.58,-1.39 -1.07,-2.83 -1.45,-4.32 l -1.2,-1.1 c 2.56,12.39 12.34,22.17 24.73,24.73 z"
               id="path16" /><path
               class="cls-1"
               d="m 408.56,287.98 c -0.37,1.44 -0.85,2.84 -1.41,4.19 h -1.51 c -2.97,6.73 -8.37,12.14 -15.09,15.12 v 1.51 c -1.37,0.57 -2.78,1.06 -4.24,1.44 l -1.1,1.2 c 12.27,-2.6 21.96,-12.28 24.55,-24.56 z"
               id="path17" /></g></g><g
           id="g28"><path
             class="cls-1"
             d="m 345.88,272.89 -4.01,-2.79 0.42,-0.61 4.01,2.79 z"
             id="path18" /><path
             class="cls-1"
             d="m 346.42,270.81 -3.82,-3.04 0.46,-0.58 3.82,3.04 z"
             id="path19" /><path
             class="cls-1"
             d="m 344.6,265.64 -0.7,-0.34 1.48,-3.04 0.7,0.34 -0.55,1.13 3.02,1.47 -0.38,0.78 -3.02,-1.47 z"
             id="path20" /><path
             class="cls-1"
             d="m 348.45,263.17 -1.79,-1.14 c -0.57,-0.36 -0.67,-0.82 -0.31,-1.39 l 0.73,-1.16 c 0.36,-0.57 0.82,-0.67 1.39,-0.31 l 1.79,1.14 c 0.57,0.36 0.67,0.82 0.31,1.39 l -0.73,1.16 c -0.36,0.57 -0.82,0.67 -1.39,0.31 z m 0.5,-0.7 c 0.1,0.06 0.18,0.05 0.25,-0.06 l 0.69,-1.09 c 0.06,-0.1 0.05,-0.18 -0.06,-0.25 l -1.88,-1.19 c -0.1,-0.06 -0.18,-0.05 -0.25,0.06 l -0.69,1.09 c -0.06,0.1 -0.05,0.18 0.06,0.25 z"
             id="path21" /><path
             class="cls-1"
             d="m 350.74,259.64 -2.43,-1.98 0.55,-0.67 2.46,2.01 c 0.09,0.08 0.18,0.07 0.25,-0.03 l 0.74,-0.91 c 0.08,-0.09 0.07,-0.18 -0.03,-0.25 l -2.46,-2.01 0.55,-0.67 2.43,1.98 c 0.52,0.42 0.57,0.9 0.14,1.42 l -0.79,0.97 c -0.42,0.52 -0.9,0.57 -1.42,0.14 z"
             id="path22" /><path
             class="cls-1"
             d="m 353.38,256.51 -1.49,-1.52 c -0.47,-0.48 -0.46,-0.96 0.01,-1.43 l 1.14,-1.12 0.51,-0.06 0.33,0.33 -1.41,1.38 c -0.09,0.08 -0.09,0.17 0,0.25 l 1.55,1.59 c 0.08,0.09 0.17,0.09 0.25,0 l 1.41,-1.38 0.33,0.33 -0.07,0.5 -1.14,1.12 c -0.48,0.47 -0.96,0.47 -1.43,-0.01 z"
             id="path23" /><path
             class="cls-1"
             d="m 356.71,254.69 -2.54,-3.27 0.68,-0.53 1,1.28 1.21,-0.94 -1,-1.28 0.68,-0.53 2.54,3.27 -0.68,0.53 -1.07,-1.37 -1.21,0.94 1.07,1.37 z"
             id="path24" /><path
             class="cls-1"
             d="m 358.99,251.14 -0.38,-0.6 1.52,-0.97 0.38,0.6 z"
             id="path25" /><path
             class="cls-1"
             d="m 361.81,251.09 -1.92,-3.67 1.79,-0.94 c 0.6,-0.31 1.05,-0.17 1.36,0.42 l 0.37,0.71 c 0.31,0.59 0.17,1.05 -0.42,1.36 l -1.02,0.53 0.61,1.17 -0.77,0.4 z m -0.21,-2.26 0.99,-0.52 c 0.11,-0.06 0.13,-0.14 0.08,-0.24 l -0.42,-0.8 c -0.06,-0.11 -0.14,-0.13 -0.24,-0.08 l -0.99,0.52 z"
             id="path26" /><path
             class="cls-1"
             d="m 364.46,249.5 -0.32,-4.15 1.23,-0.49 2.61,3.25 -0.04,0.19 -0.67,0.26 -0.54,-0.69 -1.51,0.6 0.08,0.87 -0.67,0.27 -0.16,-0.11 z m 0.69,-1.84 1.07,-0.42 -1.13,-1.42 -0.09,0.04 0.15,1.81 z"
             id="path27" /><path
             class="cls-1"
             d="m 368.44,248.15 -1.07,-4 1.52,-0.41 c 1.09,-0.29 1.78,0.11 2.07,1.2 l 0.2,0.73 c 0.29,1.09 -0.11,1.78 -1.2,2.07 z m 0.63,-0.98 0.73,-0.2 c 0.5,-0.13 0.69,-0.45 0.55,-0.96 l -0.26,-0.99 c -0.13,-0.5 -0.45,-0.69 -0.96,-0.55 l -0.73,0.19 0.67,2.49 z"
             id="path28" /></g><path
           class="cls-1"
           d="m 303.53,40.21 c 0.25,-3.18 -6.08,-7.32 -8.81,-5.79 -8.67,-5.26 -17.83,-9.63 -27.32,-13.06 0.07,-1.9 -2.38,-3.54 -4.97,-4.2 v 0 c -1.18,-4.19 -2.6,-8.29 -4.31,-12.25 -1.17,-0.28 -2.35,-0.55 -3.52,-0.8 2.14,4.07 3.9,8.34 5.34,12.74 v 0 c -1.25,0.03 -2.32,0.37 -2.88,1.15 -3.71,-1.05 -7.45,-1.94 -11.22,-2.68 -2.34,-4.9 -5,-9.61 -8,-14.05 7.33,16.57 10.38,34.57 11.97,52.47 0.25,3.24 0.43,6.48 0.56,9.73 -7.84,-7.19 -19.29,-11.61 -33.15,-11.61 -13.86,0 -25.31,4.42 -33.15,11.61 0.13,-3.25 0.31,-6.49 0.56,-9.73 1.59,-17.9 4.65,-35.9 11.97,-52.47 -2.99,4.42 -5.64,9.11 -7.97,13.99 -3.87,0.76 -7.72,1.66 -11.53,2.75 -0.53,-0.74 -1.52,-1.08 -2.68,-1.14 0.03,0 0.05,0 0.08,0 1.44,-4.4 3.2,-8.67 5.34,-12.74 -1.18,0.26 -2.35,0.52 -3.52,0.8 -1.7,3.93 -3.11,8 -4.29,12.16 -2.69,0.61 -5.35,2.31 -5.27,4.28 -9.49,3.43 -18.65,7.79 -27.32,13.06 -2.73,-1.53 -9.06,2.61 -8.81,5.79 -2.81,2 -5.56,4.09 -8.24,6.29 -1.04,0.89 1.43,2.24 2.32,3.29 0,0 0.28,-0.26 0.29,-0.26 2.58,-2.53 5.3,-4.94 8.12,-7.23 1.52,0.14 3.25,-0.61 4.45,-1.37 1.27,-0.88 2.64,-2.46 2.84,-4.11 8.32,-5.78 17.37,-10.57 26.83,-14.31 0.71,0.94 1.89,1.29 3.11,1.34 -2.87,13.26 -3.55,27.16 -3.23,40.33 0.14,3.08 0.35,6.16 0.52,9.24 -0.05,-3.09 -0.14,-6.17 -0.15,-9.25 0.1,-9.16 0.75,-18.52 2.26,-27.56 0.76,-4.3 1.65,-8.63 2.75,-12.91 -0.46,0.08 -0.93,0.12 -1.41,0.14 0.77,-0.05 1.53,-0.19 2.17,-0.37 1.9,-0.63 4.3,-2.34 4.14,-4.57 3.57,-1.11 7.19,-2.04 10.85,-2.83 -10.1,21.51 -14.25,46.69 -15.47,69.78 0,0 0,0.04 0,0.09 -0.25,2.57 -0.24,5.23 0.08,7.95 0,0.07 0.02,0.14 0.02,0.21 1.39,11.84 5.88,23.08 12.67,32.88 1.69,2.43 3.44,4.82 5.25,7.16 l 0.02,0.03 c -5.16,-8.2 -8.62,-17.38 -9.83,-27.04 -0.89,-7.07 -0.12,-14.78 3.17,-21.42 0,0.05 0,0.14 0,0.14 0,-0.05 0,-0.1 0,-0.14 4.78,-9.64 14.9,-17.04 33.05,-17.04 18.15,0 28.27,7.4 33.05,17.04 0,0.05 0,0.1 0,0.14 0,0 0,-0.06 0,-0.14 3.29,6.64 4.06,14.34 3.17,21.42 -1.21,9.65 -4.67,18.84 -9.83,27.04 l 0.02,-0.03 c 1.82,-2.34 3.57,-4.73 5.25,-7.16 6.79,-9.8 11.28,-21.04 12.67,-32.88 0,-0.07 0.02,-0.14 0.02,-0.21 0.31,-2.72 0.32,-5.37 0.08,-7.94 0,-0.05 0,-0.09 0,-0.09 -1.22,-23.07 -5.36,-48.22 -15.44,-69.71 3.55,0.78 7.06,1.69 10.53,2.76 -0.15,2.23 2.24,3.95 4.14,4.57 0.32,0.09 0.67,0.17 1.04,0.24 1.11,4.27 2,8.61 2.75,12.91 1.51,9.04 2.16,18.4 2.26,27.56 -0.01,3.08 -0.1,6.16 -0.15,9.25 0.17,-3.08 0.39,-6.16 0.52,-9.24 0.33,-13.17 -0.36,-27.08 -3.23,-40.34 1.12,-0.09 2.17,-0.46 2.83,-1.33 9.45,3.74 18.51,8.53 26.83,14.31 0.2,1.64 1.57,3.23 2.84,4.11 1.19,0.76 2.92,1.51 4.45,1.37 2.82,2.29 5.53,4.69 8.12,7.23 0,0 0.4,0.4 0.4,0.4 0.89,-1.05 3.95,-2.08 2.2,-3.43 -2.68,-2.2 -5.43,-4.3 -8.24,-6.29 z M 132.38,39.32 c -0.67,-1.03 0.8,-2.73 1.73,-3.38 0.96,-0.73 3.06,-1.51 3.88,-0.45 0.7,1.61 -4.36,4.97 -5.61,3.83 z M 168.73,20.5 c -0.36,-1.19 1.55,-2.41 2.64,-2.78 1.14,-0.43 3.4,-0.6 3.89,0.67 0.22,1.76 -5.64,3.57 -6.53,2.11 z m 96.69,0 c -0.89,1.46 -6.75,-0.35 -6.53,-2.11 0.5,-1.26 2.75,-1.1 3.89,-0.67 1.08,0.37 2.99,1.58 2.64,2.78 z m 36.35,18.82 c -1.26,1.14 -6.31,-2.22 -5.61,-3.83 0.82,-1.06 2.92,-0.27 3.88,0.45 0.93,0.65 2.4,2.34 1.73,3.38 z"
           id="path29" /><path
           class="cls-1"
           d="m 415.25,227.36 1.84,-5.97 h 1.98 l 1.84,5.97 -0.16,0.24 h -1.08 l -0.38,-1.26 h -2.43 l -0.38,1.26 h -1.08 l -0.16,-0.24 z m 1.97,-2.18 h 1.73 l -0.79,-2.61 h -0.14 l -0.79,2.61 z"
           id="path30" /><path
           class="cls-1"
           d="m 396.56,238.99 v -6.21 h 2.93 c 1.01,0 1.51,0.5 1.51,1.51 v 0.54 c 0,0.2 -0.06,0.38 -0.18,0.52 l -0.31,0.38 0.38,0.31 c 0.2,0.16 0.3,0.4 0.3,0.72 v 0.71 c 0,1.01 -0.5,1.51 -1.51,1.51 h -3.11 z m 1.3,-3.78 h 1.58 c 0.18,0 0.27,-0.09 0.27,-0.27 v -0.72 c 0,-0.18 -0.09,-0.27 -0.27,-0.27 h -1.58 z m 0,2.61 h 1.76 c 0.18,0 0.27,-0.09 0.27,-0.27 v -0.9 c 0,-0.18 -0.09,-0.27 -0.27,-0.27 h -1.76 z"
           id="path31" /><circle
           class="cls-1"
           cx="217.22"
           cy="111.93"
           r="22.02"
           transform="rotate(-80.78,217.21935,111.93132)"
           id="circle31" /><g
           id="g36"><polygon
             class="cls-1"
             points="136.8,183.56 137.88,187.56 138.72,187.33 138.03,184.81 139.51,186.56 140.22,186.36 140.62,184.11 141.3,186.63 142.13,186.41 141.05,182.41 140.06,182.68 139.58,185.4 137.8,183.29 "
             id="polygon31" /><rect
             class="cls-1"
             x="141.95"
             y="184.12"
             width="4.1399999"
             height="0.86000001"
             transform="rotate(-85.85,144.02593,184.54697)"
             id="rect31" /><path
             class="cls-1"
             d="m 146.5,187.11 1.51,0.54 0.48,-0.16 0.16,-0.44 -1.85,-0.67 c -0.11,-0.04 -0.15,-0.12 -0.11,-0.23 l 0.75,-2.09 c 0.04,-0.11 0.12,-0.15 0.23,-0.11 l 1.85,0.67 0.16,-0.44 -0.27,-0.43 -1.51,-0.54 c -0.63,-0.23 -1.06,-0.02 -1.29,0.61 l -0.72,2 c -0.23,0.63 -0.02,1.06 0.61,1.29 z"
             id="path32" /><path
             class="cls-1"
             d="m 133.19,195.62 h 1.04 c 0.12,-0.44 0.29,-0.86 0.47,-1.26 h 1.67 c 0.68,-1.19 1.66,-2.18 2.85,-2.85 v -1.67 c 0.41,-0.19 0.83,-0.35 1.26,-0.47 v -1.03 c -3.57,0.9 -6.39,3.72 -7.3,7.29 z"
             id="path33" /><path
             class="cls-1"
             d="m 151.2,201.81 h -1.67 c -0.68,1.19 -1.66,2.18 -2.85,2.85 v 1.67 c -0.41,0.19 -0.83,0.35 -1.26,0.47 v 1.03 c 3.57,-0.9 6.39,-3.72 7.3,-7.29 h -1.04 c -0.12,0.44 -0.29,0.86 -0.47,1.26 z"
             id="path34" /><path
             class="cls-1"
             d="m 146.68,191.5 c 1.19,0.68 2.18,1.66 2.85,2.85 h 1.67 c 0.19,0.41 0.35,0.83 0.47,1.26 h 1.04 c -0.9,-3.57 -3.72,-6.38 -7.3,-7.29 v 1.03 c 0.44,0.12 0.86,0.29 1.26,0.47 v 1.67 z"
             id="path35" /><path
             class="cls-1"
             d="m 139.22,204.66 c -1.19,-0.68 -2.18,-1.66 -2.85,-2.85 h -1.67 c -0.19,-0.41 -0.35,-0.83 -0.47,-1.26 h -1.04 c 0.9,3.57 3.72,6.38 7.3,7.29 v -1.03 c -0.44,-0.12 -0.86,-0.29 -1.26,-0.47 v -1.67 z"
             id="path36" /></g></g><g
         id="g75"><polygon
           class="cls-1"
           points="22.72,305.97 25.7,306.53 25.67,305.16 22.45,304.22 "
           id="polygon37" /><path
           class="cls-1"
           d="m 24.04,302.3 c -0.83,-0.5 -1.15,-1.63 -2.19,-1.83 l 0.14,1.37 c 0.52,0.19 1.07,0.37 1.62,0.5 0.18,0.04 0.4,0.23 0.43,-0.04 z"
           id="path37" /><path
           class="cls-1"
           d="m 22.13,302.43 0.1,1.39 3.45,1.01 c -0.01,-1.81 -2.07,-2.27 -3.55,-2.4 z"
           id="path38" /><path
           class="cls-1"
           d="m 47.63,298.47 c 0.17,-0.72 0.39,-1.41 0.61,-2.12 0.06,-0.18 0.3,-0.54 0.01,-0.59 -0.62,0.77 -0.86,1.62 -1.09,2.57 z"
           id="path39" /><path
           class="cls-1"
           d="m 48.6,298.07 c 1.24,-0.34 2.55,-0.53 3.79,-0.9 0.18,-0.05 0.47,-0.06 0.48,-0.32 -1.02,-2.03 -3.41,0.02 -4.27,1.22 z"
           id="path40" /><path
           class="cls-1"
           d="m 50.4,295.96 1.15,-0.42 c -1.83,-1.18 -2.92,0.13 -3.29,1.93 z"
           id="path41" /><path
           class="cls-1"
           d="m 22.84,311.65 -0.05,1.34 2.91,0.51 c 0.05,-0.33 0.23,-1.16 -0.05,-1.36 l -2.81,-0.5 z"
           id="path42" /><polygon
           class="cls-1"
           points="22.78,310.11 22.79,311.29 25.69,311.8 25.83,310.67 "
           id="polygon42" /><path
           class="cls-1"
           d="m 50.36,300.59 c 0.15,0.07 0.38,0.02 0.54,0 l 0.43,-1.38 -1.66,0.45 c -0.15,0.17 0.62,0.89 0.69,0.93 z"
           id="path43" /><path
           class="cls-1"
           d="m 23.76,316.35 c 0.61,0.16 1.2,0.36 1.8,0.52 l 0.16,-1.14 -2.85,-0.74 c -0.2,1.52 -0.14,1.1 0.88,1.36 z"
           id="path44" /><path
           class="cls-1"
           d="m 25.81,308.44 -3.11,-0.4 v 1.71 c 1.04,0.05 2.11,0.26 3.08,0.55 z"
           id="path45" /><polygon
           class="cls-1"
           points="25.71,315.22 25.69,314.04 22.85,313.36 22.8,314.71 "
           id="polygon45" /><path
           class="cls-1"
           d="m 20.36,301.48 -0.55,-0.42 c -0.41,0.87 -0.41,3.15 0.57,3.57 0.39,0.17 0.29,-0.22 0.37,-0.4 -0.24,-0.1 -0.52,-0.19 -0.68,-0.42 -0.26,-0.38 -0.4,-2.14 0.29,-2.34 z"
           id="path46" /><path
           class="cls-1"
           d="m 46.78,315.08 0.22,-0.45 -2.12,-1.47 c -0.07,0.25 -0.22,0.49 -0.05,0.75 0.16,0.24 1.72,1.38 1.96,1.17 z"
           id="path47" /><path
           class="cls-1"
           d="m 58.16,297.38 c 0.2,-0.07 0.57,-0.02 0.61,-0.33 0.04,-0.39 -0.34,-0.21 -0.5,-0.2 -1.04,0.05 -2.6,0.45 -3.58,0.79 0.32,0.03 0.64,0.33 0.93,0.34 0.26,0 2.19,-0.47 2.55,-0.6 z"
           id="path48" /><path
           class="cls-1"
           d="m 50.93,92.45 -7.03,7.22 6.74,18.7 c 0,0 -16,7.55 -28.88,16.26 C 6.97,144.64 0,158.21 0,158.21 c 0,0 1.88,68.78 6.03,92.64 8.47,48.64 16.89,70.38 16.89,70.38 0,0 31.32,11.18 47.35,10.48 9.88,-0.44 20.51,-2.42 28.46,-4.23 l -1.51,-7.54 c -0.06,0 -0.11,0 -0.17,0 -0.51,0 -1.02,-0.05 -1.53,-0.14 -3.37,-0.6 -6.06,-3.26 -6.69,-6.61 -0.47,-2.5 0.17,-5.04 1.77,-6.97 1.6,-1.93 3.95,-3.04 6.45,-3.04 0.54,0 1.09,0.05 1.63,0.15 3.42,0.65 6.09,3.4 6.64,6.86 0.68,4.29 -2.02,8.37 -6.12,9.46 l 1.48,7.37 c 4.29,-1.02 7.6,-1.92 9.29,-2.41 l -0.03,-0.1 c 0,0 -0.02,-0.07 -0.04,-0.14 v 0 c 0,0 0,0 0,0 -0.79,-3.42 -10.82,-57.46 -25.2,-95.11 0.74,-2.42 1.25,-4.95 1.5,-7.54 l 3.32,9.91 6.55,23.24 5.34,22.63 9.49,46.66 0.04,0.19 c 0.17,-0.05 0.27,-0.08 0.27,-0.08 l 14.15,10.72 C 106.85,252.42 82.62,170.96 50.93,92.47 Z m 43.3,181.2 h 0.99 c 0.82,0 1.48,-0.67 1.48,-1.48 0,-0.81 -0.66,-1.48 -1.48,-1.48 h -0.99 v -1 h 0.99 c 1.37,0 2.48,1.11 2.48,2.48 0,1.37 -1.11,2.48 -2.48,2.48 h -0.99 z m 0,20.47 h 0.99 c 0.82,0 1.48,-0.67 1.48,-1.48 0,-0.81 -0.66,-1.48 -1.48,-1.48 h -0.99 v -1 h 0.99 c 1.37,0 2.48,1.11 2.48,2.48 0,1.37 -1.11,2.48 -2.48,2.48 H 94.23 Z M 74.21,273.65 h 0.99 v 1 h -0.99 c -1.2,0 -2.2,-0.85 -2.43,-1.98 H 68.9 l -7.84,-7.84 v -7.56 h 3.24 v 1 h -2.24 v 6.14 l 7.26,7.26 h 2.47 c 0.23,-1.13 1.23,-1.98 2.43,-1.98 h 0.99 v 1 h -0.99 c -0.82,0 -1.48,0.67 -1.48,1.48 0,0.81 0.66,1.48 1.48,1.48 z m -8.08,-13.27 v -4.83 h 2.35 c 0.78,0 1.18,0.39 1.18,1.18 v 0.94 c 0,0.78 -0.39,1.18 -1.18,1.18 h -1.34 v 1.54 h -1.01 z m 8.02,0 h -0.84 l -0.29,-0.98 h -1.89 l -0.29,0.98 H 70 l -0.13,-0.19 1.44,-4.64 h 1.54 l 1.44,4.64 -0.13,0.19 z m -19.17,-8.76 1.2,-1.31 c 1.51,-0.4 2.97,-0.9 4.39,-1.49 v -1.63 c 7.28,-3.23 13.13,-9.1 16.35,-16.38 h 1.63 c 0.58,-1.4 1.08,-2.84 1.47,-4.33 l 1.31,-1.2 c -2.86,13.14 -13.22,23.5 -26.35,26.36 z m -2.82,36.02 c -0.88,-0.12 -0.9,-1.15 0.01,-1.44 0.49,-0.15 5.01,-0.66 5.47,-0.6 1.2,0.16 1.2,1 0.22,1.36 -0.42,0.16 -5.28,0.73 -5.7,0.68 z m 3.78,5.44 c -1.44,-0.27 -2.75,-1.05 -4.16,-1.42 -0.56,-0.4 0.08,-1.31 0.33,-1.24 1.18,0.34 2.86,0.68 3.92,1.15 1.18,0.52 1.4,1.79 -0.09,1.52 z m -9.74,-106.76 1.51,-1.65 1.51,1.65 h -3.01 z m 3.01,63.22 -1.51,1.65 -1.51,-1.65 H 49.2 Z M 48.44,184 47.7,183.19 46.96,184 l -1.21,1.32 h -3.6 l 5.55,-6.07 5.55,6.07 h -3.6 z m -2.68,66.54 1.21,1.32 0.74,0.81 0.74,-0.81 1.21,-1.32 h 3.6 l -5.55,6.07 -5.55,-6.07 z m 4.67,32.49 c 0.37,-0.55 4.16,-3.67 4.69,-3.74 0.26,-0.03 0.58,0.11 0.7,0.34 0.14,0.26 0.05,0.69 -0.17,0.88 -1.47,0.9 -2.79,2.56 -4.15,3.49 -0.9,0.62 -1.57,-0.23 -1.07,-0.97 z m 8.2,-39.54 c 6.56,-2.88 11.69,-8.01 14.52,-14.49 l 0.96,-0.99 0.41,0.27 c -2.93,7.58 -8.96,13.61 -16.54,16.54 l -0.27,-0.41 0.91,-0.91 z m -0.81,-51.99 0.27,-0.41 c 7.49,2.93 13.47,8.9 16.39,16.39 l -0.41,0.27 -0.92,-0.92 C 70.28,200.37 65.21,195.3 58.82,192.48 Z m 21.5,27.94 v -3.01 l 1.65,1.51 -1.65,1.51 z m -0.77,-14.37 h -1.63 c -3.21,-7.29 -9.07,-13.15 -16.35,-16.38 v -1.63 c -1.48,-0.62 -3.01,-1.15 -4.59,-1.56 l -1.19,-1.3 c 13.23,2.8 23.67,13.2 26.54,26.4 l -1.31,-1.2 c -0.39,-1.49 -0.88,-2.93 -1.47,-4.33 z M 9.03,258.9 c -5.97,-44.13 -7.2,-77.99 -7.04,-94.81 0.04,-3.83 1.3,-7.55 3.65,-10.57 5.75,-7.39 13.74,-14.97 20.64,-17.84 7.93,12.16 15.57,30.2 19.63,40.45 l 0.45,-0.5 C 40.04,155.74 33.56,141.16 29.79,133.39 39.04,127.57 47.4,123.7 51.6,121.9 l 19.48,54.78 5.04,15.01 C 69.64,184.66 60.59,180.03 50.45,179.3 l -1.28,-1.4 -1.48,-1.61 -2.75,3 c -19.25,1.32 -34.63,16.7 -35.95,35.95 l -1.33,1.21 -1.61,1.48 1.61,1.48 1.33,1.21 c 0.28,4.02 1.17,7.87 2.58,11.46 -2.09,8.67 -2.8,17.94 -2.56,26.82 z m 4.84,-33.98 1.3,1.19 c 0.41,1.61 0.94,3.17 1.57,4.68 h 1.63 c 3.23,7.33 9.14,13.22 16.47,16.44 v 1.62 c 1.43,0.59 2.9,1.09 4.42,1.48 l 1.2,1.31 C 27.13,248.81 16.63,238.26 13.87,224.91 Z m 4.48,51.01 c -0.21,0.01 -0.35,-0.08 -0.5,-0.21 -0.28,-0.25 -0.74,-3.63 -0.82,-4.3 -0.08,-0.64 -0.64,-2.86 0.31,-2.9 0.39,0.01 0.72,0.17 0.82,0.56 0.17,1.62 0.59,3.25 0.74,4.86 0.07,0.73 0.39,1.79 -0.56,1.97 z m -3.26,-59.95 -1.32,1.21 -0.81,0.74 0.81,0.74 1.32,1.21 v 3.6 l -6.07,-5.55 6.07,-5.55 z m 1,0.44 v 3.01 l -1.65,-1.51 1.65,-1.51 z m 5.08,11.59 0.91,0.91 c 2.88,6.56 8.01,11.69 14.49,14.52 l 0.99,0.96 -0.27,0.41 C 29.71,241.88 23.68,235.85 20.75,228.27 L 21.16,228 Z M 20.8,207.48 c 2.93,-7.49 8.9,-13.47 16.39,-16.39 l 0.27,0.41 -0.92,0.92 c -6.46,2.87 -11.53,7.94 -14.35,14.33 l -0.98,1 z m 18.66,-22.02 c -1.59,0.4 -3.13,0.92 -4.62,1.54 v 1.62 c -7.34,3.22 -13.24,9.11 -16.47,16.44 h -1.63 c -0.63,1.51 -1.16,3.07 -1.57,4.68 l -1.3,1.19 c 2.77,-13.42 13.37,-24.01 26.79,-26.78 l -1.19,1.3 z m -26.73,87.53 c 0.13,-0.07 0.42,-0.08 0.56,-0.03 0.47,0.17 2.98,3.26 3.3,3.84 0.57,1.04 -0.2,1.8 -1.04,1.1 -0.32,-0.85 -3.2,-3.75 -3.18,-4.33 0,-0.19 0.19,-0.49 0.36,-0.58 z m -0.06,5.39 c 0.59,0.2 2.16,0.82 2.37,1.13 0.39,0.56 -0.15,1.07 -0.73,1.05 -0.21,-0.13 -0.7,-0.29 -1.26,-0.47 -0.12,-0.56 -0.25,-1.14 -0.37,-1.71 z m 7.7,26.74 c -1.2,-0.04 -1.72,-3.84 -0.54,-4.37 1.77,-0.17 2.09,4.42 0.54,4.37 z m 11.78,17.17 c -0.08,0.27 -1.58,-0.13 -1.91,-0.13 -0.17,0 -0.25,0.02 -0.29,0.07 -0.16,-0.05 -0.33,-0.1 -0.49,-0.16 -0.13,-0.43 -1.17,-0.2 -1.42,-0.82 0.55,-0.4 1.03,0.35 1.59,0.38 0.11,-0.33 0.18,-0.69 0.3,-1.02 0.06,-0.18 0.09,-0.72 0.39,-0.48 l -0.22,1.64 c 0.51,0.01 1.01,0.1 1.5,0.22 0.12,0.03 0.65,-0.03 0.55,0.3 z m 28.49,-25.8 -1.44,0.34 0.34,3.42 -0.14,0.47 -2.36,1.1 0.71,1.32 c 0.09,0.37 0.21,0.84 0.17,1.22 -0.08,0.97 -0.72,2.49 -0.97,3.56 -0.09,0.39 -1.39,3.17 -1.39,3.17 l 0.09,0.34 c 0.2,0.69 0.19,1.42 0,2.11 0,0 -1.4,2.94 -2.44,3.42 -0.29,0.13 -0.69,0.08 -0.92,0.25 -0.3,0.22 -0.94,1.31 -1.3,1.72 -2.08,2.33 -4.79,2.57 -7.64,1.46 -1.1,-0.43 -1.43,-0.95 -2.22,-1.68 -0.13,-0.11 -0.04,-0.3 -0.32,-0.09 l -2.66,6.11 c -0.48,-0.14 -0.94,-0.27 -1.41,-0.41 1.92,-4.13 3.63,-8.14 4.95,-12.52 0.42,-1.4 0.32,-1.62 0.54,-2.92 0.31,-1.78 0.62,-1.68 1.45,-2.83 0.28,-0.39 0.39,-1.12 0.75,-1.52 0.33,-0.36 1.72,-0.61 1.84,-0.92 -0.11,-0.55 -0.36,-1.07 -0.28,-1.66 0.06,-0.5 0.83,-2.34 0.12,-2.57 -0.81,1.31 -1.76,2.28 -3.04,3.12 0.01,1.26 -0.41,2.35 -0.69,3.54 -0.9,3.78 -2,7.79 -3.35,11.45 -0.84,2.25 -2,4.39 -2.77,6.68 -0.18,-0.05 -0.36,-0.11 -0.54,-0.16 l 0.07,-0.4 c -0.41,-0.05 -1.05,-0.27 -1.37,0.01 -0.12,-0.04 -0.24,-0.07 -0.36,-0.11 1.82,-5.06 3.54,-10.16 4.17,-15.53 -0.44,0.08 -0.7,0.27 -0.88,0.67 -0.59,1.34 -0.82,3.78 -1.18,5.27 -0.78,3.17 -1.62,6.32 -2.73,9.4 -0.17,-0.05 -0.34,-0.1 -0.5,-0.15 0.29,-0.85 0.91,-1.39 0.29,-2.36 -1,-1.57 -4.51,-2.02 -6.17,-1.25 l -0.25,1.65 c -0.17,-0.06 -0.34,-0.11 -0.5,-0.17 0.38,-3.74 0.81,-7.64 0.81,-11.38 0,-1.54 0.15,-3.72 -0.96,-4.88 0.27,5.34 0.05,10.71 -0.48,16.04 -0.16,-0.05 -0.3,-0.1 -0.44,-0.15 l 0.06,-0.46 c -0.55,-0.08 -1.07,-0.35 -1.57,-0.58 -0.05,-0.13 -0.09,-0.26 -0.15,-0.42 l 1.67,0.63 0.04,-1.01 -2.05,-0.6 c -0.04,-0.12 -0.08,-0.25 -0.13,-0.38 l 2.35,0.69 0.09,-1.17 c -0.16,-0.47 -2.08,-0.64 -2.6,-0.75 l -0.08,0.54 c -0.15,-0.44 -0.31,-0.93 -0.47,-1.45 0.08,-4.41 0.09,-8.87 -0.59,-13.16 -0.22,-1.42 -0.61,-3.49 -1.03,-4.84 -0.19,-0.6 -0.51,-0.93 -0.56,-1.47 -1.12,0.38 -2.67,-0.28 -3.49,-1.05 -0.06,-0.05 -0.11,-0.11 -0.16,-0.17 -0.14,-0.58 -0.29,-1.15 -0.44,-1.75 0.34,0.86 0.83,1.57 1.48,1.97 2.5,1.52 2.51,0.49 3.1,-1.83 0.54,-2.14 0.95,-4.68 0.78,-6.88 -0.16,-2.09 -0.65,-3.75 -3.01,-2.13 -0.38,0.26 -1.75,1.45 -2,1.78 -0.8,1.06 -1.1,3.07 -0.87,4.96 -0.19,-0.78 -0.38,-1.58 -0.57,-2.39 0.01,0 0.02,0.02 0.04,0.03 l 0.66,-2.27 c 0.11,-0.36 -0.56,-0.42 -1.3,-0.31 -0.11,-0.46 -0.21,-0.92 -0.32,-1.39 0.6,-0.1 1.22,-0.08 1.89,0.14 0.33,-0.64 0.93,-1.25 1.53,-1.66 0.91,-0.63 2.07,-0.5 2.32,-1.53 0.84,-3.52 0.62,-8.03 1.48,-11.5 0.34,-1.38 1.04,-1.13 2.25,-1.17 6.49,-0.21 16.5,2.25 22.49,4.75 0.6,0.25 1.85,0.76 2.33,1.1 0.54,0.38 0.43,0.79 0.4,1.36 -0.16,2.74 -1.02,5.79 -1.39,8.54 0,0.54 1.61,1.68 1.61,2.41 0,1 -1.15,2.11 -1.39,3.1 0.93,1.03 0.73,2.49 0.86,3.77 1.44,-0.86 3.25,-0.32 4.47,0.72 0.42,0.36 0.85,1.24 1.37,1.31 l 6.74,-1.07 -0.41,1.41 z m -44.11,-7.27 c 0.08,-0.68 0.48,-2.69 1.33,-2.66 1.23,0.04 0.94,3.71 0.76,4.55 -0.96,4.48 -2.34,0.22 -2.1,-1.88 z m 48.76,18.32 h -4.24 v -7.56 l 7.84,-7.84 h 2.88 C 72,291.01 73,290.16 74.2,290.16 h 0.99 v 1 H 74.2 c -0.82,0 -1.48,0.67 -1.48,1.48 0,0.81 0.66,1.48 1.48,1.48 h 0.99 v 1 H 74.2 c -1.2,0 -2.2,-0.85 -2.43,-1.99 H 69.3 l -7.26,7.26 v 6.14 h 3.24 v 1 z m 7.14,2.01 h -1.01 v -3.05 l -1.13,2.42 h -0.85 l -1.13,-2.42 v 3.05 H 67.3 v -4.83 h 1.2 l 1.37,2.92 1.36,-2.92 h 1.2 z m 4.45,-3.92 h -2.3 v 0.98 h 2.09 v 0.91 h -2.09 v 1.12 h 2.3 v 0.91 h -3.3 v -4.83 h 3.3 z m -0.77,-45.25 c -0.78,0 -1.18,-0.39 -1.18,-1.18 v -3.65 h 1.01 v 3.71 c 0,0.14 0.07,0.21 0.21,0.21 h 1.37 c 0.14,0 0.21,-0.07 0.21,-0.21 v -3.71 h 1.01 v 3.65 c 0,0.78 -0.39,1.18 -1.18,1.18 H 76.1 Z m 5.71,49.17 h -1.09 l -1.92,-3.17 v 3.17 H 77.8 v -4.83 h 1.09 l 1.92,3.17 v -3.17 h 1.01 z m 0.03,-49.17 h -1.74 l -0.47,-0.36 v -0.55 h 2.17 c 0.14,0 0.21,-0.07 0.21,-0.21 v -0.51 c 0,-0.13 -0.06,-0.21 -0.18,-0.23 l -1.36,-0.27 c -0.56,-0.11 -0.84,-0.49 -0.84,-1.13 v -0.39 c 0,-0.78 0.39,-1.18 1.18,-1.18 h 1.6 l 0.47,0.36 v 0.55 h -2.03 c -0.14,0 -0.21,0.07 -0.21,0.21 v 0.46 c 0,0.13 0.06,0.21 0.17,0.23 l 1.37,0.27 c 0.56,0.11 0.84,0.49 0.84,1.13 v 0.45 c 0,0.78 -0.39,1.18 -1.18,1.18 z m 4.89,47.99 c 0,0.78 -0.39,1.18 -1.18,1.18 H 84.1 c -0.78,0 -1.18,-0.39 -1.18,-1.18 v -3.65 h 1.01 v 3.71 c 0,0.14 0.07,0.21 0.21,0.21 h 1.37 c 0.14,0 0.21,-0.07 0.21,-0.21 v -3.71 h 1.01 v 3.65 z m 0.53,-52.82 v 0.91 h -2.3 v 0.98 h 2.09 v 0.91 h -2.09 v 1.12 h 2.3 v 0.91 h -3.3 v -4.83 z m -6.95,-32.07 v -3.6 l 1.32,-1.21 0.81,-0.74 -0.81,-0.74 -1.32,-1.21 v -3.6 l 6.07,5.55 z"
           id="path49" /><path
           class="cls-1"
           d="m 56.38,300 0.89,1.28 c 1.1,-0.61 1.95,-0.48 1.71,-2.05 l -2.41,0.47 -0.19,0.29 z"
           id="path50" /><path
           class="cls-1"
           d="m 46.7,299.9 c 0.77,-0.6 1.59,-0.29 2.32,-0.44 0.47,-0.1 2.05,-0.49 2.41,-0.65 0.55,-0.23 1.26,-1.13 1.94,-1.38 l -6.43,1.61 -0.25,0.86 z"
           id="path51" /><path
           class="cls-1"
           d="m 52.94,299.39 c -0.69,0.87 -0.36,2.03 -0.85,2.78 -0.06,0.09 -1.5,1.47 -1.6,1.52 -0.31,0.16 -0.82,-0.1 -0.95,-0.03 -0.08,0.24 -0.34,0.38 -0.59,0.31 h -0.03 c 0.79,-0.79 0.42,-3.46 -0.97,-3.1 -1.43,0.37 0.13,2.9 0.02,3.24 -0.06,0.21 -0.49,0.37 -0.64,0.67 -1.96,3.81 4.36,8.1 7.25,4.58 0.69,-0.84 2.36,-4.45 0.26,-4.09 -0.67,0.11 -0.93,1.36 -1.33,1.67 -0.29,0.22 -1.65,0.37 -2.16,0.63 -0.42,0.22 -0.69,0.64 -1.11,0.87 -0.13,-1.55 2.27,-1.39 2.92,-1.88 0.83,-0.62 1.3,-2.95 2.98,-1.16 0.68,-0.75 0.45,-2.76 -0.83,-2.36 -1.33,0.42 -1.15,2.09 -2.46,2.72 -0.71,0.34 -0.68,-0.05 -0.15,-0.5 0.94,-0.79 0.5,-0.52 1.05,-1.46 0.23,-0.4 0.75,-0.9 1.27,-1.15 0.36,-0.17 0.59,-0.52 0.58,-0.91 v -0.59 c 0,0 -0.87,-0.22 -1.22,-0.02 -0.28,0.16 -0.56,0.31 -0.74,0.54 -0.47,0.61 -0.41,1.4 -0.8,1.9 -0.08,0.11 -1.25,1.03 -1.34,0.81 0,-0.65 0.76,-0.82 0.99,-1.2 0.36,-0.6 0.37,-1.26 0.91,-1.94 0.53,-0.66 1.43,-0.67 1.43,-1.51 0,-1.14 -1.38,-1.02 -1.91,-0.34 z"
           id="path52" /><path
           class="cls-1"
           d="m 22.69,306.33 -0.05,1.35 3.11,0.4 c 0.05,-0.27 0.21,-1.2 -0.03,-1.33 l -3.04,-0.42 z"
           id="path53" /><path
           class="cls-1"
           d="m 43.96,315.11 -0.16,0.61 c 0.41,0.1 1.69,1.44 1.99,1.28 0.65,-0.35 -1.47,-1.78 -1.83,-1.89 z"
           id="path54" /><path
           class="cls-1"
           d="m 45.2,317.85 c 0,0 0.35,-0.44 0.16,-0.55 L 43.53,316 c -0.78,0.7 1.53,1.91 1.67,1.85 z"
           id="path55" /><path
           class="cls-1"
           d="m 46.09,304.32 c -0.33,0.18 -1,0.27 -1.24,0.5 -0.27,0.25 -1.11,2.21 -1.11,2.56 0,0.65 1.55,3.88 2.05,4.16 l 0.95,-0.4 c 1.53,1.68 3.59,2.86 5.88,3.05 0.16,0.01 1.07,0.02 1.11,-0.01 0.44,-0.24 1.11,-2 0.51,-2.54 -4.41,1.9 -10.36,-2.57 -8.15,-7.32 z"
           id="path56" /><path
           class="cls-1"
           d="m 44.75,310.91 c -0.54,-0.81 -0.89,-1.77 -1.36,-2.61 -0.07,2.61 2.43,5.62 4.81,6.52 1.49,0.57 4.36,1.64 5.25,-0.17 -2.62,-0.08 -5.07,-1.1 -6.87,-3.02 -0.93,0.96 -1.29,0.09 -1.83,-0.72 z"
           id="path57" /><path
           class="cls-1"
           d="m 56.11,299.23 c 0.23,0.24 2.32,-0.45 2.78,-0.52 l 0.03,-1.02 -3.03,0.48 z"
           id="path58" /><path
           class="cls-1"
           d="m 36.52,317.33 c 0.5,0.45 1.19,0.53 1.81,0.72 l 0.5,-1.73 -1.88,-0.55 -0.43,1.55 z"
           id="path59" /><path
           class="cls-1"
           d="m 29.13,299.2 c 3.06,0.25 6.48,1.51 9.46,2.24 -1.53,-3.31 -5.75,-5.09 -9.15,-3.59 -0.75,0.33 -2.79,1.61 -1.96,2.56 0.38,-0.7 0.75,-1.28 1.64,-1.21 z"
           id="path60" /><polygon
           class="cls-1"
           points="38.33,309.88 38,311.65 40.23,312.14 40.73,310.42 "
           id="polygon60" /><path
           class="cls-1"
           d="m 31.87,294.84 c 1.12,-0.01 2.89,0.24 3.97,0.52 0.82,0.22 4.58,1.87 4.98,1.34 l 0.71,-1.87 c -2.89,-1.47 -6.59,-2.38 -9.85,-2.49 -1.06,-0.04 -3.22,0.09 -3.4,1.38 -0.31,2.17 2.41,1.15 3.59,1.13 z"
           id="path61" /><path
           class="cls-1"
           d="m 39.04,306.89 c 0.62,-0.64 2.73,-5.49 3.39,-6.74 0.86,-1.64 2.66,-4.17 3.17,-5.77 0.4,-1.24 -0.88,-1.66 -0.58,-2.71 0.27,-0.93 2.36,-3.59 2.4,-4.21 -0.54,-1.21 -1.77,-2 -2.26,-3.25 -0.89,-2.3 0.28,-5.11 -2.12,-6.61 -3.87,-2.43 -10.56,-2.41 -15.05,-2.37 -0.66,0.99 -2.03,2.22 -1.97,3.12 0.03,0.4 0.8,2.08 0.77,2.19 l -2.75,2.12 -0.83,6.2 -0.25,0.27 -1.05,0.05 c -0.18,2.01 -0.83,3.95 -1.2,5.92 -0.05,0.28 -0.16,1.01 -0.11,1.24 0.1,0.47 1.43,1.78 1.7,2.36 0.25,0.55 0.04,1.02 0.2,1.34 0.25,0.51 2.66,2.7 3.25,3.36 0.95,1.06 1.86,2.25 2.73,3.38 2.47,0.86 5.07,1.3 7.63,1.79 0.8,-0.39 1.53,-0.92 2.26,-1.42 0.21,-0.14 0.52,-0.1 0.68,-0.26 z M 23.2,298.61 c -0.07,0.3 0,0.48 -0.39,0.6 -0.55,-0.18 0.9,-4.99 0.51,-5.81 -0.14,-0.3 -1.03,-1.05 -1.07,-1.19 -0.06,-0.19 0.04,-0.57 0.33,-0.38 0.32,0.21 1.32,1.51 1.33,1.91 0.03,0.87 -0.49,3.94 -0.71,4.87 z m 22.63,-9.76 c -0.21,1.43 -0.85,3.14 -2.53,3.04 -0.73,-0.05 -2.48,-0.35 -3.21,-0.54 -0.27,-0.07 -0.45,-0.2 -0.65,-0.38 -0.05,0.5 0.3,1.02 0.2,1.55 -0.05,0.25 -0.07,0.4 -0.38,0.42 l -5.53,-1.66 c -0.56,-1.03 0.88,-1.5 1.53,-2.03 0.32,-0.04 0.23,0.26 0.1,0.43 -0.16,0.2 -1.51,0.97 -1.36,1.25 1.86,0.03 3.39,1.3 5.18,1.51 -0.51,-2.04 0.01,-4.16 -0.21,-6.26 0.87,-1.3 2.35,-2.15 3.81,-2.56 -0.05,0.14 -0.04,0.32 -0.16,0.43 -0.08,0.07 -1.54,0.62 -1.93,0.91 -1.33,1.01 -1.3,1.54 -1.25,3.12 0.95,-0.66 1.55,-1.33 2.74,-1.62 1.93,-0.47 4.02,-0.02 3.66,2.39 z m -7.32,-11.73 c 1.01,0.14 2.24,0.55 3.05,1.16 0.76,0.57 2.02,2.43 1.38,3.32 -0.62,0.86 -2.59,1.93 -3.26,2.96 -0.97,0.37 -2.2,0.35 -2.91,-0.5 l -2.99,-5.04 c 0.9,-1.37 3.13,-2.13 4.72,-1.9 z m -13.98,6.6 c 1.85,-0.27 4.28,-0.84 6.07,-0.1 1.5,0.62 2.73,2.82 4.09,3.75 l 1.93,-2.5 c -1.56,-0.79 -2.5,-2.62 -3.83,-3.76 l 0.19,-0.37 4.12,4.2 c -0.26,0.61 -2.01,3.05 -2.6,2.88 -0.15,-0.04 -0.45,-0.36 -0.52,-0.31 -0.23,0.57 -0.12,1.42 -0.64,1.85 -0.54,0.45 -3.48,-0.72 -4.33,-0.92 -1.03,-0.24 -2.42,-0.15 -3.38,-0.64 -0.88,-0.45 -0.41,-2.23 -0.01,-2.9 0.28,-0.47 0.86,-0.58 1.07,-1.04 l -2.08,0.41 -0.1,-0.53 z m 1.08,13.85 c -0.92,1.83 -0.33,-1.48 -0.22,-2.13 0.16,-0.95 0.66,-4.12 1.06,-4.74 0.43,-0.68 3.12,-0.9 3.91,-0.68 -0.04,0.44 -0.17,0.25 -0.43,0.29 -1,0.18 -2.09,0.06 -3.05,0.52 -0.65,2.19 -0.99,4.47 -1.27,6.74 z m 12.14,9.08 c -0.54,-0.04 -0.16,-0.61 -0.42,-0.89 -0.19,-0.21 -3.33,-0.78 -3.9,-0.86 -1.15,-0.15 -2.39,-0.27 -3.47,0.15 -0.25,0.1 -0.8,0.77 -1.04,0.38 -0.15,-0.25 1.47,-1.01 1.72,-1.06 l 2.68,-0.03 c -1.69,-0.5 -4.31,-1.4 -5.55,-2.69 -0.37,-0.38 -0.41,-0.9 -0.94,-1.13 -0.11,-1.33 -0.15,-2.68 -0.02,-4.01 0.25,-2.5 0.14,-3.65 2.78,-4.4 2.46,-0.69 9.34,0.67 11.49,1.98 0.17,0.1 1.35,1 1.39,1.08 0.18,0.32 -0.29,1.66 -0.45,2.09 -0.68,1.84 -2.36,4.15 -2.88,5.82 -0.12,0.37 0.1,0.71 -0.01,0.93 -0.43,0.81 -2.85,0.79 -3.68,0.61 -0.12,0.25 0.33,0.28 0.51,0.32 1.13,0.29 2.44,-0.02 1.79,1.71 z"
           id="path62" /><path
           class="cls-1"
           d="m 38.22,309.68 c 0.89,-0.3 1.74,0.23 2.6,0.42 l 0.5,-1.73 -2.87,-0.67 -0.24,1.97 z"
           id="path63" /><path
           class="cls-1"
           d="m 37.59,313.58 2.09,0.44 0.46,-1.57 c -0.77,0.11 -1.5,-0.32 -2.24,-0.49 l -0.3,1.62 z"
           id="path64" /><polygon
           class="cls-1"
           points="34.92,322.16 34.64,323.11 35.92,323.4 36.28,322.73 "
           id="polygon64" /><polygon
           class="cls-1"
           points="36.35,317.82 35.99,319.07 37.71,319.58 38.24,318.37 "
           id="polygon65" /><path
           class="cls-1"
           d="m 37.12,315.29 1.97,0.77 0.5,-1.73 c -0.71,-0.1 -1.47,-0.06 -2.04,-0.6 l -0.43,1.55 z"
           id="path65" /><rect
           class="cls-1"
           x="35.84"
           y="319.42999"
           width="1.3099999"
           height="1.64"
           transform="rotate(-73.7,36.514747,320.25899)"
           id="rect65" /><polygon
           class="cls-1"
           points="40.26,305.7 39.22,307.42 41.42,308.06 41.94,306 "
           id="polygon66" /><polygon
           class="cls-1"
           points="35.28,320.91 34.96,322.01 36.45,322.2 36.85,321.37 "
           id="polygon67" /><path
           class="cls-1"
           d="m 38.74,303.79 c -0.51,-0.64 0.24,-1.53 -0.53,-1.94 -1.84,-0.46 -3.64,-1.18 -5.49,-1.62 -0.51,-0.12 -3.87,-0.72 -4.11,-0.64 l -1.01,1.11 c -0.19,0.64 3.13,2.29 3.74,2.54 2.24,0.91 5.09,1.49 7.4,0.55 z"
           id="path67" /><path
           class="cls-1"
           d="m 51.06,316.16 c -1.16,-0.28 -2.31,-0.67 -3.45,-1.01 -0.04,-0.01 -0.08,-0.2 -0.19,-0.23 l -2.06,3.47 c -0.4,0.12 -2.38,-1.23 -2.46,-1.72 l 1.73,-3.97 -1.59,-2.63 c -0.69,1.98 -1.45,4.39 -1.2,6.52 0.36,3.1 5.28,3.82 7.44,2.1 0.43,-0.34 1.71,-1.91 1.98,-2.39 0.24,-0.43 -0.19,-0.14 -0.21,-0.14 z"
           id="path68" /><path
           class="cls-1"
           d="m 39.6,288.77 c -0.29,0.66 -0.05,1.34 -0.28,2 1.09,-0.07 4.04,1.01 4.9,0.53 0.59,-0.32 1.14,-2.21 1.19,-2.88 0.24,-2.82 -4.92,-1.67 -5.82,0.35 z"
           id="path69" /><path
           class="cls-1"
           d="m 41.49,280.43 c 0.03,-0.53 -2.36,-1.3 -2.86,-1.39 -0.95,-0.17 -1.96,-0.09 -2.8,0.41 l 2.35,3.82 c 0.41,0.05 2.94,-2.34 3.32,-2.84 z"
           id="path70" /><path
           class="cls-1"
           d="m 44.23,314.82 c 0.4,0.06 1.81,1.39 1.99,1.28 l 0.16,-0.61 -1.99,-1.28 z"
           id="path71" /><polygon
           class="cls-1"
           points="34.09,313.09 33.54,313.51 35.27,315.12 35.57,314.03 "
           id="polygon71" /><rect
           class="cls-1"
           x="31.26"
           y="308.12"
           width="1.3099999"
           height="1.47"
           transform="rotate(-73.71,31.894669,308.84714)"
           id="rect71" /><path
           class="cls-1"
           d="m 35.81,310.68 c -2.27,1.41 -5.41,0.6 -7.24,-1.18 -0.37,-0.36 -0.57,-0.91 -1.02,-1.15 l -0.11,4.48 c 0.39,0.04 1.11,0.02 1.3,-0.38 0.3,-0.61 -1.61,-0.12 -0.96,-0.8 0.86,0.06 1.44,-0.24 1.35,0.86 -0.11,1.28 -1.42,0.29 -1.75,1.07 -0.38,0.91 0.1,3.17 -0.38,4.23 0.74,-0.1 1.42,-0.41 2.18,-0.47 1.95,-0.15 3.81,0.48 5.01,2.06 l 1.05,-3.61 c -1.01,-0.85 -3.24,-2.24 -1.17,-3.21 l 1.61,1.12 0.9,-3.65 c -0.31,0.05 -0.44,0.42 -0.77,0.63 z"
           id="path72" /><polygon
           class="cls-1"
           points="41.8,302.38 41.2,303.57 42.49,303.75 42.76,302.32 "
           id="polygon72" /><polygon
           class="cls-1"
           points="41.08,303.95 40.34,305.36 42.11,305.71 42.52,304.3 "
           id="polygon73" /><path
           class="cls-1"
           d="m 26.91,287.46 c 0.31,0.32 1.13,0.46 1.14,0.46 0.72,0.09 1.4,0.16 1.74,0.23 1.05,0.22 2.06,0.68 3.12,0.89 0.63,-0.02 0.71,-1.89 0.36,-2.4 -0.16,-0.23 -2.08,-2.14 -2.32,-2.29 -0.76,-0.48 -1.68,-0.68 -2.54,-0.61 -0.97,0.33 -1.37,0.85 -1.73,1.76 -0.36,0.92 -0.08,1.64 0.23,1.96 z"
           id="path73" /><path
           class="cls-1"
           d="m 39.52,284.02 c 0.25,-0.15 3.02,-2.58 3.1,-2.77 0.2,-0.49 -0.45,-1.69 -0.77,-2.08 -1.54,-1.86 -4.87,-2.09 -6.83,-0.84 -0.23,0.15 -0.84,0.64 -0.76,0.91 l 2.88,4.49 c 0.56,0.71 1.65,0.72 2.39,0.29 z m -0.43,-5.37 c 0.74,0.18 3.16,1.05 2.82,2.07 -0.11,0.32 -3.58,3.22 -3.89,3.16 l -2.68,-4.43 c 0.64,-1.07 2.67,-1.06 3.75,-0.8 z"
           id="path74" /><path
           class="cls-1"
           d="m 46.23,290.74 c -1.79,1.43 0.38,2.2 -0.16,3.77 l -4.05,7.42 c 1.55,0.24 3.43,-1.92 3.84,-3.22 0.11,-0.34 0.03,-0.68 0.11,-0.98 0.66,-2.35 1.28,-4.62 0.25,-6.99 z"
           id="path75" /></g></g></g><path
     class="cls-1"
     d="m 264.10694,464.88439 -4.05,-3.29 h 5.38 l 0.89,0.9 z m 10.48,6.84 v 0 l -10.45,0.58 0.94,-1.99 -1.95,2.03 -4.69,0.25 6.53,-7.02 2.91,-3.12 -0.85,-0.86 -1.28,-1.29 h 7.43 c 0,0 -0.46,1.07 -0.46,1.07 l 0.9,-1.07 h 3.42 c 0,0 -0.53,1.29 -0.53,1.29 l -2,4.89 3.69,-4.89 0.99,-1.31 h 3.79 c 0,0 -0.4,1.31 -0.4,1.31 l -0.02,0.07 0.11,-0.07 2.24,-1.39 h 3.16 l 0.54,0.89 0.39,-0.81 h 21.44 c 0,0 -1.48,1.31 -1.48,1.31 l -1.94,1.73 h -1.05 c 0,0 -2.81,6.87 -2.81,6.87 l -3.38,0.18 0.57,-1.37 -1.93,1.44 -9.88,0.52 1.71,-3.69 -1.04,0.03 -1.77,3.71 v 0 l -11.63,0.65 0.58,-1.86 -0.36,0.02 -1.42,1.91 z m 28.5,-10.13 -0.34,0.8 h 1.37 c 0,0 -2.89,6.94 -2.89,6.94 l 1.25,-0.07 2.83,-6.89 h 1.33 c 0,0 0.86,-0.78 0.86,-0.78 l 0.4,-0.35 h -4.65 c 0,0 -0.15,0.35 -0.15,0.35 z m -3.93,0 -0.87,0.6 -1.22,2.75 0.55,0.94 1.69,-0.05 -0.84,1.95 -1.39,0.06 0.48,-1.1 -1.31,0.05 -0.82,1.86 0.56,0.95 2.05,-0.11 1.4,-1.04 1.22,-2.89 -0.54,-0.92 -1.67,0.04 0.82,-1.88 1.38,-0.02 -0.39,0.9 1.2,-0.02 0.64,-1.5 -0.32,-0.57 -0.2,-0.35 h -1.93 c 0,0 -0.51,0.35 -0.51,0.35 z m -5.24,0 -3.86,8.32 4.75,-0.25 -0.16,-1.23 -2.56,0.12 1.15,-2.52 2.05,-0.06 0.55,-1.22 -2.03,0.05 1.06,-2.33 2.44,-0.02 0.86,-0.84 0.35,-0.35 h -4.45 c 0,0 -0.16,0.35 -0.16,0.35 z m -4.49,0 -4.15,8.57 1.52,-0.08 1.78,-3.72 2.04,-0.06 0.6,-1.27 -2.02,0.05 1.23,-2.58 2.45,-0.02 0.41,-0.88 0.16,-0.34 h -3.85 c 0,0 -0.17,0.34 -0.17,0.34 z m -9.77,7.53 0.82,1.31 2.51,-0.14 2.13,-1.43 1.83,-3.74 -3.23,0.08 1.12,1.29 -0.95,1.92 -2.33,0.1 1.67,-3.3 1.14,-2.25 2.24,-0.02 -0.74,1.49 1.45,-0.03 0.96,-1.98 -0.5,-0.82 -0.25,-0.42 h -2.34 l -0.69,0.42 -1.41,0.87 -3.41,6.65 z m -8.06,1.84 h 0.03 c 0,0 3.83,-9.37 3.83,-9.37 l 0.13,-0.33 h -1.54 c 0,0 -0.27,0.33 -0.27,0.33 l -3.78,4.53 -0.29,-0.18 1.86,-4.35 0.14,-0.33 h -3.65 c 0,0 0.32,0.33 0.32,0.33 l 0.83,0.83 -3.49,3.75 -4.95,5.32 1.94,-0.1 4.13,-4.3 0.92,-0.95 0.28,0.19 -0.59,1.25 -1.74,3.68 2.03,-0.09 1.64,-2.02 2.21,-2.72 0.29,0.17 -1.43,3.42 -0.42,1.01 1.58,-0.07 z m 2.48,-0.17 1.42,-1.91 2.19,-0.09 -0.58,1.84 1.7,-0.09 2.74,-8.94 0.11,-0.35 h -2.01 c 0,0 -0.26,0.35 -0.26,0.35 l -7,9.28 z m 4.9,-6.08 -0.3,-0.15 -2.19,2.95 1.65,-0.06 z m 11.12,9.91 -0.64,0.03 -0.87,0.05 -0.14,0.35 -1.44,3.55 1.51,-0.08 z m 8.12,3.38 1.51,-0.08 v -0.02 c 0,0 0.45,-1.09 0.45,-1.09 l -1.51,0.08 z m 21.28,-11.19 h 0.72 c 0,0 -2.92,7.1 -2.92,7.1 h -14.29 c 0,0 -0.55,1.36 -0.55,1.36 l -1.07,0.06 0.65,0.98 -0.95,2.32 -1.64,1.2 -2.54,0.1 1.44,0.85 -4.97,0.27 -2.73,0.15 -4.49,0.24 1.1,-0.95 -1.18,0.06 -0.69,-1.04 -0.45,1.1 -4.48,0.24 0.82,-2.02 -7.87,-6.39 h 0.06 c 0,0 2.22,-0.12 2.22,-0.12 l 5.05,-0.29 3.51,-0.19 4.03,-0.21 7.6,-0.4 8.05,-0.43 0.91,-2.17 1.49,-3.55 0.48,-1.14 v 0 c 0,0 1.16,0 1.16,0 l 2.63,-2.33 h 2.57 l 1.68,-4.03 h 3.8 c 0,0 -1.67,4.03 -1.67,4.03 h 5.77 l -6.9,2.71 -0.21,0.51 h 0.6 l 0.04,1.21 0.27,-0.32 h 2.9 c 0,0 0.04,1.1 0.04,1.1 z m -36.54,12.01 0.45,-1.11 1.34,-0.07 1.09,-0.8 0.37,-0.9 0.69,-1.7 -0.47,-0.72 -1.61,0.09 -1.09,0.8 -0.5,1.23 1.02,-0.06 0.29,-0.72 1.1,-0.06 -0.62,1.52 -1.34,0.07 -1.09,0.8 -0.08,0.19 -1.15,2.82 3.17,-0.17 0.54,-1.33 -2.12,0.11 z m 5.07,1.03 1.36,-1 0.49,-1.22 v 0 c 0,0 0.33,-0.81 0.33,-0.81 l 1.07,-2.64 -0.13,-0.19 -0.46,-0.7 -1.63,0.09 -1.36,1 -0.47,1.16 -1.42,3.51 0.59,0.89 z m 8.31,0.44 -0.54,-0.31 -0.98,-3.52 4.74,-4.2 -2.89,0.16 0.39,0.32 -2.61,2.35 -0.52,-2.17 0.12,-0.06 0.6,-0.33 -3.05,0.17 0.48,0.31 0.16,0.56 0.77,2.73 -5.14,4.45 2.9,-0.16 -0.29,-0.27 2.95,-2.59 0.6,2.37 -0.67,0.35 2.99,-0.16 z m 6.16,-6.71 -0.59,-0.89 -1.64,0.09 -1.36,1 -1.9,4.67 0.59,0.89 1.64,-0.09 1.36,-1 0.16,-0.41 v 0 c 0,0 0.6,-1.47 0.6,-1.47 l -0.59,-0.89 -1.56,0.08 0.59,-1.46 1.51,-0.08 -0.29,0.72 1.03,-0.06 0.45,-1.11 z m 13.82,-6.42 h 2.42 c 0,0 -0.03,-0.69 -0.03,-0.69 h -1.81 c 0,0 -0.59,0.69 -0.59,0.69 z m -3.79,-2 h 1.14 c 0,0 1.01,0 1.01,0 l 0.2,-0.48 1.28,-3.09 1.36,-3.27 h -2.14 c 0,0 -1.36,3.27 -1.36,3.27 z m -2.55,2 h 5.58 c 0,0 -0.06,-1.58 -0.06,-1.58 h -0.35 c 0,0 0,0 0,0 h -2.56 c 0,0 -0.84,0 -0.84,0 v 0 c 0,0 -0.42,0 -0.42,0 l -0.65,0.75 -0.72,0.83 z m 9.1,0.41 h -3.15 c 0,0 -0.24,0 -0.24,0 h -8.17 c 0,0 -1.4,0 -1.4,0 l -0.28,0.66 -0.73,1.74 -1.33,3.16 h 13 c 0,0 2.29,-5.56 2.29,-5.56 z"
     id="path76"
     style="fill:#ff6600" /></svg>
