<?xml version="1.0" standalone="no"?>
 <!DOCTYPE svg PUBLIC "-//W3C//DTD SVG 1.1//EN" 
 "http://www.w3.org/Graphics/SVG/1.1/DTD/svg11.dtd"> 
<svg
  xmlns:svg="http://www.w3.org/2000/svg"
  xmlns="http://www.w3.org/2000/svg"
  xmlns:xlink="http://www.w3.org/1999/xlink"
  version="1.1"
  width="271.6022mm" height="139.3190mm" viewBox="0.0000 0.0000 271.6022 139.3190">
<title>SVG Image created as Swadge-HW-F_Courtyard.svg date 2025/09/07 22:28:08 </title>
  <desc>Image generated by PCBNEW </desc>
<g style="fill:#000000; fill-opacity:1.0000;stroke:#000000; stroke-opacity:1.0000;
stroke-linecap:round; stroke-linejoin:round;"
 transform="translate(0 0) scale(1 1)">
<path style="fill:none; 
stroke:#000000; stroke-width:0.0100; stroke-opacity:1; 
stroke-linecap:round; stroke-linejoin:round;fill:none"
d="M 158.9850,28.7221
158.9849,28.7221
158.9852,28.7221
Z" /> 
<path style="fill:none; 
stroke:#000000; stroke-width:0.0100; stroke-opacity:1; 
stroke-linecap:round; stroke-linejoin:round;fill:none"
d="M 210.9746,28.7221
210.9745,28.7221
210.9747,28.7221
Z" /> 
<path style="fill:none; 
stroke:#000000; stroke-width:0.0100; stroke-opacity:1; 
stroke-linecap:round; stroke-linejoin:round;fill:none"
d="M 147.0848,12.9044
149.1380,15.2597
154.1203,21.1045
157.1580,24.7630
160.2656,28.6069
163.2224,32.4072
165.8077,35.9351
168.3505,39.6366
171.1952,43.8949
177.0003,52.7870
183.5410,63.0083
184.9683,64.2062
186.3956,63.0083
192.9363,52.7870
198.7414,43.8949
201.5861,39.6366
204.1289,35.9351
205.3613,34.2195
206.7142,32.4072
209.6710,28.6069
212.7786,24.7630
215.8163,21.1045
220.7985,15.2597
222.8518,12.9044
246.1191,36.7769
243.7358,43.3744
236.9620,62.3889
233.3455,72.8375
230.3583,81.8754
229.5540,84.5130
228.7684,87.2697
227.2716,92.9806
225.9045,98.6890
224.7038,104.0754
223.7062,108.8207
222.9482,112.6055
222.2978,116.0165
207.2150,127.4974
207.7934,124.7289
209.3362,116.4610
211.5547,102.7499
212.8271,93.8708
214.1603,83.6520
214.4357,81.2726
214.6695,78.9341
214.8650,76.6519
215.0255,74.4416
215.2546,70.2990
215.3830,66.6307
215.4371,63.5611
215.4432,61.2145
215.4166,59.1879
185.7109,77.6829
184.9683,77.6829
184.2257,77.6829
154.5200,59.1879
154.4933,61.2145
154.5536,66.6307
154.6820,70.2990
154.9111,74.4416
155.2671,78.9341
155.7763,83.6520
156.4482,88.9284
157.1094,93.8708
158.3818,102.7499
159.5574,110.2823
160.6002,116.4610
161.4740,121.2789
162.1428,124.7289
162.7211,127.4974
147.6388,116.0165
146.9884,112.6055
145.2328,104.0754
144.0321,98.6890
142.6650,92.9806
141.1682,87.2697
139.5783,81.8754
136.5911,72.8375
132.9746,62.3889
126.2008,43.3744
123.8175,36.7769
147.0848,12.9044
Z" /> 
<path style="fill:none; 
stroke:#000000; stroke-width:0.0100; stroke-opacity:1; 
stroke-linecap:round; stroke-linejoin:round;fill:none"
d="M 159.0342,28.7233
159.0832,28.7269
159.1318,28.7330
159.1799,28.7414
159.2274,28.7521
159.2743,28.7651
159.3204,28.7804
159.3656,28.7979
159.4100,28.8176
159.4534,28.8394
159.4957,28.8633
159.5369,28.8894
159.5768,28.9174
159.6154,28.9475
159.6526,28.9796
159.6884,29.0137
159.7224,29.0494
159.7545,29.0867
159.7846,29.1253
159.8126,29.1652
159.8386,29.2064
159.8625,29.2488
159.8844,29.2922
159.9040,29.3365
159.9215,29.3818
159.9367,29.4279
159.9497,29.4748
159.9604,29.5223
159.9688,29.5704
159.9748,29.6190
159.9784,29.6680
159.9796,29.7173
159.9783,29.7685
159.9745,29.8190
159.9682,29.8688
159.9594,29.9177
159.9483,29.9658
159.9349,30.0130
159.9193,30.0592
159.9015,30.1044
159.8816,30.1484
159.8596,30.1913
159.8357,30.2330
159.8098,30.2733
159.7821,30.3123
159.7526,30.3499
159.7213,30.3860
159.6884,30.4205
159.6538,30.4535
159.6177,30.4848
159.5802,30.5143
159.5412,30.5420
159.5008,30.5679
159.4592,30.5919
159.4163,30.6139
159.3722,30.6338
159.3271,30.6516
159.2809,30.6673
159.2337,30.6807
159.1856,30.6918
159.1366,30.7006
159.0868,30.7069
159.0363,30.7108
158.9851,30.7121
158.9357,30.7109
158.8867,30.7073
158.8381,30.7012
158.7899,30.6929
158.7424,30.6822
158.6955,30.6692
158.6494,30.6539
158.6041,30.6365
158.5597,30.6168
158.5163,30.5950
158.4740,30.5711
158.4328,30.5451
158.3928,30.5170
158.3542,30.4869
158.3170,30.4549
158.2812,30.4209
158.2472,30.3851
158.2151,30.3479
158.1850,30.3093
158.1569,30.2693
158.1309,30.2282
158.1069,30.1859
158.0851,30.1425
158.0654,30.0981
158.0479,30.0528
158.0327,30.0067
158.0196,29.9599
158.0089,29.9124
158.0005,29.8643
157.9945,29.8157
157.9908,29.7667
157.9896,29.7173
157.9908,29.6679
157.9945,29.6189
158.0005,29.5702
158.0089,29.5221
158.0196,29.4745
158.0326,29.4276
158.0479,29.3815
158.0654,29.3362
158.0851,29.2918
158.1069,29.2484
158.1308,29.2060
158.1569,29.1649
158.1850,29.1249
158.2151,29.0863
158.2472,29.0490
158.2812,29.0133
158.3170,28.9793
158.3542,28.9472
158.3929,28.9171
158.4329,28.8890
158.4741,28.8630
158.5164,28.8391
158.5598,28.8173
158.6042,28.7976
158.6495,28.7802
158.6957,28.7649
158.7425,28.7519
158.7901,28.7412
158.8382,28.7329
158.8868,28.7269
158.9358,28.7232
158.9850,28.7221
Z" /> 
<path style="fill:none; 
stroke:#000000; stroke-width:0.0100; stroke-opacity:1; 
stroke-linecap:round; stroke-linejoin:round;fill:none"
d="M 211.0238,28.7233
211.0728,28.7269
211.1215,28.7329
211.1696,28.7413
211.2171,28.7520
211.2640,28.7650
211.3101,28.7803
211.3554,28.7977
211.3998,28.8174
211.4432,28.8392
211.4855,28.8632
211.5267,28.8892
211.5667,28.9173
211.6053,28.9474
211.6426,28.9794
211.6783,29.0135
211.7124,29.0492
211.7445,29.0865
211.7745,29.1251
211.8026,29.1651
211.8287,29.2063
211.8526,29.2486
211.8744,29.2920
211.8941,29.3364
211.9115,29.3817
211.9268,29.4278
211.9398,29.4747
211.9505,29.5222
211.9589,29.5704
211.9649,29.6190
211.9685,29.6680
211.9698,29.7173
211.9685,29.7666
211.9649,29.8156
211.9589,29.8642
211.9505,29.9122
211.9397,29.9597
211.9267,30.0066
211.9115,30.0527
211.8940,30.0979
211.8743,30.1423
211.8525,30.1857
211.8286,30.2280
211.8026,30.2692
211.7745,30.3091
211.7444,30.3477
211.7123,30.3849
211.6783,30.4207
211.6426,30.4547
211.6053,30.4868
211.5667,30.5169
211.5268,30.5450
211.4856,30.5710
211.4433,30.5949
211.3999,30.6167
211.3555,30.6364
211.3102,30.6539
211.2641,30.6691
211.2172,30.6821
211.1697,30.6928
211.1216,30.7012
211.0730,30.7072
211.0240,30.7109
210.9747,30.7121
210.9235,30.7108
210.8730,30.7070
210.8232,30.7006
210.7742,30.6919
210.7260,30.6807
210.6788,30.6673
210.6326,30.6517
210.5874,30.6339
210.5433,30.6140
210.5004,30.5920
210.4588,30.5680
210.4184,30.5422
210.3794,30.5144
210.3418,30.4849
210.3057,30.4536
210.2712,30.4207
210.2382,30.3861
210.2069,30.3500
210.1774,30.3125
210.1497,30.2735
210.1238,30.2331
210.0998,30.1915
210.0779,30.1486
210.0579,30.1045
210.0401,30.0593
210.0245,30.0131
210.0111,29.9659
209.9999,29.9178
209.9912,29.8688
209.9849,29.8190
209.9810,29.7685
209.9797,29.7173
209.9809,29.6679
209.9846,29.6189
209.9906,29.5703
209.9990,29.5221
210.0097,29.4746
210.0227,29.4277
210.0380,29.3816
210.0554,29.3363
210.0751,29.2919
210.0969,29.2485
210.1209,29.2062
210.1469,29.1650
210.1749,29.1251
210.2050,29.0864
210.2371,29.0492
210.2711,29.0135
210.3069,28.9794
210.3441,28.9474
210.3828,28.9173
210.4227,28.8892
210.4639,28.8632
210.5062,28.8393
210.5496,28.8174
210.5940,28.7978
210.6392,28.7803
210.6854,28.7650
210.7322,28.7520
210.7797,28.7413
210.8278,28.7329
210.8764,28.7269
210.9254,28.7233
210.9746,28.7221
Z" /> 
<path style="fill:none; 
stroke:#000000; stroke-width:0.0100; stroke-opacity:1; 
stroke-linecap:round; stroke-linejoin:round;fill:none"
d="M 152.5310,49.1371
152.5815,49.1409
152.6313,49.1473
152.6803,49.1560
152.7284,49.1672
152.7756,49.1806
152.8218,49.1962
152.8670,49.2140
152.9111,49.2340
152.9540,49.2559
152.9956,49.2799
153.0360,49.3058
153.0750,49.3335
153.1125,49.3630
153.1486,49.3943
153.1832,49.4272
153.2161,49.4618
153.2474,49.4979
153.2769,49.5354
153.3047,49.5744
153.3305,49.6148
153.3545,49.6564
153.3765,49.6993
153.3964,49.7434
153.4142,49.7886
153.4298,49.8348
153.4432,49.8820
153.4544,49.9301
153.4631,49.9791
153.4695,50.0289
153.4733,50.0794
153.4746,50.1306
153.4734,50.1800
153.4697,50.2290
153.4637,50.2776
153.4553,50.3258
153.4446,50.3733
153.4316,50.4202
153.4163,50.4663
153.3989,50.5116
153.3792,50.5560
153.3574,50.5994
153.3334,50.6417
153.3074,50.6829
153.2794,50.7228
153.2493,50.7615
153.2172,50.7987
153.1832,50.8344
153.1474,50.8685
153.1102,50.9005
153.0715,50.9306
153.0316,50.9587
152.9904,50.9847
152.9481,51.0087
152.9047,51.0305
152.8603,51.0501
152.8151,51.0676
152.7689,51.0829
152.7221,51.0959
152.6746,51.1066
152.6265,51.1150
152.5779,51.1210
152.5289,51.1246
152.4795,51.1258
152.4302,51.1246
152.3813,51.1210
152.3327,51.1150
152.2846,51.1066
152.2371,51.0959
152.1903,51.0829
152.1442,51.0676
152.0989,51.0502
152.0545,51.0305
152.0111,51.0087
151.9688,50.9847
151.9276,50.9587
151.8876,50.9306
151.8490,50.9005
151.8118,50.8685
151.7760,50.8344
151.7419,50.7987
151.7099,50.7614
151.6798,50.7228
151.6517,50.6828
151.6257,50.6416
151.6017,50.5993
151.5799,50.5559
151.5602,50.5115
151.5428,50.4662
151.5275,50.4201
151.5145,50.3732
151.5038,50.3257
151.4954,50.2776
151.4894,50.2289
151.4858,50.1799
151.4846,50.1306
151.4858,50.0813
151.4894,50.0323
151.4955,49.9837
151.5038,49.9357
151.5146,49.8882
151.5276,49.8413
151.5428,49.7953
151.5603,49.7500
151.5800,49.7056
151.6018,49.6622
151.6257,49.6199
151.6517,49.5787
151.6798,49.5388
151.7099,49.5002
151.7420,49.4630
151.7760,49.4272
151.8118,49.3932
151.8490,49.3611
151.8876,49.3310
151.9276,49.3029
151.9687,49.2769
152.0111,49.2530
152.0544,49.2312
152.0988,49.2115
152.1441,49.1940
152.1902,49.1788
152.2371,49.1658
152.2846,49.1551
152.3327,49.1467
152.3813,49.1407
152.4303,49.1370
152.4796,49.1358
152.4798,49.1358
Z" /> 
<path style="fill:none; 
stroke:#000000; stroke-width:0.0100; stroke-opacity:1; 
stroke-linecap:round; stroke-linejoin:round;fill:none"
d="M 152.5310,101.1272
152.5815,101.1311
152.6313,101.1374
152.6803,101.1462
152.7284,101.1573
152.7756,101.1707
152.8218,101.1863
152.8670,101.2041
152.9111,101.2241
152.9540,101.2460
152.9956,101.2700
153.0360,101.2959
153.0750,101.3236
153.1125,101.3531
153.1486,101.3844
153.1832,101.4173
153.2161,101.4519
153.2474,101.4880
153.2769,101.5255
153.3047,101.5645
153.3305,101.6049
153.3545,101.6466
153.3765,101.6894
153.3964,101.7335
153.4142,101.7787
153.4298,101.8249
153.4432,101.8721
153.4544,101.9202
153.4631,101.9692
153.4695,102.0190
153.4733,102.0695
153.4746,102.1207
153.4734,102.1701
153.4697,102.2191
153.4637,102.2677
153.4553,102.3159
153.4446,102.3634
153.4316,102.4103
153.4163,102.4564
153.3989,102.5017
153.3792,102.5461
153.3574,102.5895
153.3334,102.6318
153.3074,102.6730
153.2794,102.7129
153.2493,102.7516
153.2172,102.7888
153.1832,102.8246
153.1474,102.8586
153.1102,102.8907
153.0715,102.9207
153.0316,102.9488
152.9904,102.9748
152.9481,102.9988
152.9047,103.0206
152.8603,103.0402
152.8151,103.0577
152.7689,103.0730
152.7221,103.0860
152.6746,103.0967
152.6265,103.1051
152.5779,103.1111
152.5289,103.1147
152.4795,103.1160
152.4302,103.1148
152.3813,103.1111
152.3327,103.1051
152.2846,103.0967
152.2371,103.0860
152.1903,103.0730
152.1442,103.0578
152.0989,103.0403
152.0545,103.0206
152.0111,102.9988
151.9688,102.9749
151.9276,102.9488
151.8876,102.9208
151.8490,102.8907
151.8118,102.8586
151.7760,102.8245
151.7419,102.7888
151.7099,102.7515
151.6798,102.7129
151.6517,102.6729
151.6257,102.6317
151.6017,102.5894
151.5799,102.5460
151.5602,102.5016
151.5428,102.4563
151.5275,102.4102
151.5145,102.3633
151.5038,102.3158
151.4954,102.2677
151.4894,102.2191
151.4858,102.1700
151.4846,102.1207
151.4858,102.0714
151.4894,102.0224
151.4955,101.9738
151.5038,101.9258
151.5146,101.8783
151.5276,101.8315
151.5428,101.7854
151.5603,101.7401
151.5800,101.6957
151.6018,101.6523
151.6257,101.6100
151.6517,101.5689
151.6798,101.5289
151.7099,101.4903
151.7420,101.4531
151.7760,101.4173
151.8118,101.3833
151.8490,101.3512
151.8876,101.3211
151.9276,101.2931
151.9687,101.2670
152.0111,101.2431
152.0544,101.2213
152.0988,101.2016
152.1441,101.1842
152.1902,101.1689
152.2371,101.1559
152.2846,101.1452
152.3327,101.1368
152.3813,101.1308
152.4303,101.1271
152.4796,101.1259
152.4798,101.1259
Z" /> 
<path style="fill:none; 
stroke:#000000; stroke-width:0.0100; stroke-opacity:1; 
stroke-linecap:round; stroke-linejoin:round;fill:none"
d="M 217.5288,49.1370
217.5778,49.1406
217.6264,49.1467
217.6745,49.1550
217.7220,49.1657
217.7689,49.1787
217.8150,49.1940
217.8603,49.2114
217.9047,49.2311
217.9481,49.2529
217.9904,49.2768
218.0316,49.3028
218.0715,49.3309
218.1102,49.3610
218.1474,49.3930
218.1832,49.4270
218.2172,49.4628
218.2493,49.5000
218.2794,49.5386
218.3075,49.5786
218.3335,49.6197
218.3575,49.6620
218.3793,49.7054
218.3990,49.7498
218.4164,49.7951
218.4317,49.8412
218.4447,49.8880
218.4554,49.9355
218.4638,49.9836
218.4699,50.0322
218.4735,50.0812
218.4748,50.1306
218.4736,50.1800
218.4699,50.2290
218.4639,50.2777
218.4555,50.3258
218.4448,50.3734
218.4317,50.4203
218.4165,50.4664
218.3990,50.5117
218.3793,50.5561
218.3575,50.5995
218.3335,50.6419
218.3075,50.6831
218.2794,50.7230
218.2493,50.7616
218.2172,50.7989
218.1831,50.8346
218.1474,50.8687
218.1101,50.9007
218.0715,50.9308
218.0315,50.9589
217.9903,50.9849
217.9480,51.0088
217.9046,51.0306
217.8602,51.0503
217.8149,51.0677
217.7687,51.0830
217.7219,51.0960
217.6743,51.1067
217.6262,51.1150
217.5776,51.1210
217.5286,51.1247
217.4792,51.1258
217.4299,51.1246
217.3810,51.1210
217.3324,51.1149
217.2844,51.1065
217.2369,51.0958
217.1900,51.0828
217.1440,51.0675
217.0987,51.0500
217.0543,51.0303
217.0110,51.0085
216.9686,50.9846
216.9275,50.9585
216.8876,50.9305
216.8489,50.9004
216.8117,50.8683
216.7760,50.8342
216.7420,50.7985
216.7099,50.7612
216.6798,50.7226
216.6517,50.6827
216.6257,50.6415
216.6018,50.5991
216.5800,50.5558
216.5604,50.5114
216.5429,50.4661
216.5277,50.4200
216.5147,50.3731
216.5040,50.3256
216.4956,50.2775
216.4896,50.2289
216.4859,50.1799
216.4847,50.1306
216.4860,50.0794
216.4899,50.0289
216.4962,49.9791
216.5049,49.9302
216.5160,49.8821
216.5294,49.8349
216.5451,49.7887
216.5629,49.7435
216.5828,49.6995
216.6047,49.6566
216.6287,49.6149
216.6546,49.5746
216.6823,49.5356
216.7118,49.4980
216.7431,49.4619
216.7760,49.4274
216.8105,49.3944
216.8466,49.3631
216.8842,49.3336
216.9232,49.3059
216.9635,49.2800
217.0052,49.2560
217.0481,49.2340
217.0921,49.2141
217.1373,49.1963
217.1835,49.1806
217.2307,49.1672
217.2788,49.1561
217.3278,49.1473
217.3776,49.1410
217.4281,49.1371
217.4793,49.1358
217.4795,49.1358
Z" /> 
<path style="fill:none; 
stroke:#000000; stroke-width:0.0100; stroke-opacity:1; 
stroke-linecap:round; stroke-linejoin:round;fill:none"
d="M 217.5288,101.1271
217.5778,101.1307
217.6264,101.1368
217.6745,101.1451
217.7220,101.1558
217.7689,101.1688
217.8150,101.1841
217.8603,101.2015
217.9047,101.2212
217.9481,101.2430
217.9904,101.2669
218.0316,101.2929
218.0715,101.3210
218.1102,101.3511
218.1474,101.3831
218.1832,101.4172
218.2172,101.4529
218.2493,101.4901
218.2794,101.5287
218.3075,101.5687
218.3335,101.6098
218.3575,101.6522
218.3793,101.6955
218.3990,101.7399
218.4164,101.7852
218.4317,101.8313
218.4447,101.8781
218.4554,101.9257
218.4638,101.9737
218.4699,102.0223
218.4735,102.0713
218.4748,102.1207
218.4736,102.1701
218.4699,102.2192
218.4639,102.2678
218.4555,102.3159
218.4448,102.3635
218.4317,102.4104
218.4165,102.4565
218.3990,102.5018
218.3793,102.5462
218.3575,102.5896
218.3335,102.6320
218.3075,102.6732
218.2794,102.7131
218.2493,102.7518
218.2172,102.7890
218.1831,102.8247
218.1474,102.8588
218.1101,102.8908
218.0715,102.9209
218.0315,102.9490
217.9903,102.9750
217.9480,102.9989
217.9046,103.0207
217.8602,103.0404
217.8149,103.0579
217.7687,103.0731
217.7219,103.0861
217.6743,103.0968
217.6262,103.1051
217.5776,103.1111
217.5286,103.1148
217.4792,103.1160
217.4299,103.1147
217.3810,103.1111
217.3324,103.1050
217.2844,103.0966
217.2369,103.0859
217.1900,103.0729
217.1440,103.0576
217.0987,103.0401
217.0543,103.0205
217.0110,102.9986
216.9686,102.9747
216.9275,102.9487
216.8876,102.9206
216.8489,102.8905
216.8117,102.8584
216.7760,102.8244
216.7420,102.7886
216.7099,102.7514
216.6798,102.7127
216.6517,102.6728
216.6257,102.6316
216.6018,102.5893
216.5800,102.5459
216.5604,102.5015
216.5429,102.4562
216.5277,102.4101
216.5147,102.3632
216.5040,102.3157
216.4956,102.2676
216.4896,102.2190
216.4859,102.1700
216.4847,102.1207
216.4860,102.0695
216.4899,102.0190
216.4962,101.9693
216.5049,101.9203
216.5160,101.8722
216.5294,101.8250
216.5451,101.7788
216.5629,101.7336
216.5828,101.6896
216.6047,101.6467
216.6287,101.6050
216.6546,101.5647
216.6823,101.5257
216.7118,101.4881
216.7431,101.4520
216.7760,101.4175
216.8105,101.3845
216.8466,101.3533
216.8842,101.3237
216.9232,101.2960
216.9635,101.2701
217.0052,101.2461
217.0481,101.2242
217.0921,101.2042
217.1373,101.1864
217.1835,101.1707
217.2307,101.1573
217.2788,101.1462
217.3278,101.1374
217.3776,101.1311
217.4281,101.1272
217.4793,101.1259
217.4795,101.1259
Z" /> 
</g>
<g style="fill:none; 
stroke:#000000; stroke-width:0.0500; stroke-opacity:1; 
stroke-linecap:round; stroke-linejoin:round;">
<path d="M260.9611 72.0773
L258.9693 73.2273
" />
<path d="M260.1193 75.2191
L258.0408 76.4191
" />
<path d="M258.9693 73.2273
L260.1193 75.2191
" />
<path d="M258.0408 76.4191
L256.8908 74.4273
" />
<path d="M255.7891 77.7191
L254.6391 75.7273
" />
<path d="M255.7891 77.7191
L253.7107 78.9191
" />
<path d="M254.9611 61.6849
L260.9611 72.0773
" />
<path d="M254.6391 75.7273
L256.8908 74.4273
" />
<path d="M253.7107 78.9191
L252.5607 76.9273
" />
<path d="M252.9693 62.8349
L254.9611 61.6849
" />
<path d="M252.5607 76.9273
L250.5688 78.0773
" />
<path d="M251.8193 60.8431
L252.9693 62.8349
" />
<path d="M251.8193 60.8431
L249.7408 62.0431
" />
<path d="M250.8908 64.0349
L248.6391 65.3349
" />
<path d="M250.5688 78.0773
L244.5638 67.6763
" />
<path d="M249.7408 62.0431
L250.8908 64.0349
" />
<path d="M247.4891 63.3431
L248.6391 65.3349
" />
<path d="M247.4891 63.3431
L245.4107 64.5431
" />
<path d="M246.5557 66.5263
L245.4107 64.5431
" />
<path d="M244.5638 67.6763
L246.5557 66.5263
" />
<path d="M249.5296 78.6773
L247.5377 79.8273
" />
<path d="M248.6877 81.8191
L246.6093 83.0191
" />
<path d="M247.5377 79.8273
L248.6877 81.8191
" />
<path d="M246.6093 83.0191
L245.4593 81.0273
" />
<path d="M244.3576 84.3191
L243.2076 82.3273
" />
<path d="M244.3576 84.3191
L242.2791 85.5191
" />
<path d="M243.5296 68.2849
L249.5296 78.6773
" />
<path d="M243.2076 82.3273
L245.4593 81.0273
" />
<path d="M242.2791 85.5191
L241.1291 83.5273
" />
<path d="M241.5377 69.4350
L243.5296 68.2849
" />
<path d="M241.1291 83.5273
L239.1373 84.6773
" />
<path d="M240.3877 67.4431
L241.5377 69.4350
" />
<path d="M240.3877 67.4431
L238.3093 68.6431
" />
<path d="M239.4593 70.6350
L237.2076 71.9350
" />
<path d="M239.1373 84.6773
L233.1323 74.2763
" />
<path d="M238.3093 68.6431
L239.4593 70.6350
" />
<path d="M236.0576 69.9431
L237.2076 71.9350
" />
<path d="M236.0576 69.9431
L233.9791 71.1431
" />
<path d="M235.1241 73.1263
L233.9791 71.1431
" />
<path d="M233.1323 74.2763
L235.1241 73.1263
" />
<path d="M206.7186 26.7350
L207.6570 25.6166
" />
<path d="M207.6570 25.6166
L209.9245 27.5193
" />
<path d="M208.9860 28.6377
L206.7186 26.7350
" />
<path d="M209.9245 27.5193
L208.9860 28.6377
" />
<path d="M169.2057 84.7825
L171.2987 82.6895
" />
<path d="M170.2381 85.8149
L169.2057 84.7825
" />
<path d="M171.2987 82.6895
L172.3311 83.7219
" />
<path d="M172.3311 83.7219
L170.2381 85.8149
" />
<path d="M203.9678 78.7940
L206.0608 76.7010
" />
<path d="M205.0002 79.8264
L203.9678 78.7940
" />
<path d="M206.0608 76.7010
L207.0932 77.7333
" />
<path d="M207.0932 77.7333
L205.0002 79.8264
" />
<path d="M175.2057 90.7825
L177.2987 88.6895
" />
<path d="M176.2381 91.8149
L175.2057 90.7825
" />
<path d="M177.2987 88.6895
L178.3311 89.7219
" />
<path d="M178.3311 89.7219
L176.2381 91.8149
" />
<path d="M197.9678 78.7940
L200.0608 76.7010
" />
<path d="M199.0002 79.8264
L197.9678 78.7940
" />
<path d="M200.0608 76.7010
L201.0932 77.7333
" />
<path d="M201.0932 77.7333
L199.0002 79.8264
" />
<path d="M163.2057 81.7825
L165.2987 79.6895
" />
<path d="M164.2381 82.8149
L163.2057 81.7825
" />
<path d="M165.2987 79.6895
L166.3311 80.7219
" />
<path d="M166.3311 80.7219
L164.2381 82.8149
" />
<path d="M166.2057 90.7825
L168.2987 88.6895
" />
<path d="M167.2381 91.8149
L166.2057 90.7825
" />
<path d="M168.2987 88.6895
L169.3311 89.7219
" />
<path d="M169.3311 89.7219
L167.2381 91.8149
" />
<path d="M200.9678 78.7940
L203.0608 76.7010
" />
<path d="M202.0002 79.8264
L200.9678 78.7940
" />
<path d="M203.0608 76.7010
L204.0932 77.7333
" />
<path d="M204.0932 77.7333
L202.0002 79.8264
" />
<path d="M244.4825 59.3375
L246.5756 57.2445
" />
<path d="M245.5149 60.3699
L244.4825 59.3375
" />
<path d="M246.5756 57.2445
L247.6079 58.2768
" />
<path d="M247.6079 58.2768
L245.5149 60.3699
" />
<path d="M169.2057 81.7825
L171.2987 79.6895
" />
<path d="M170.2381 82.8149
L169.2057 81.7825
" />
<path d="M171.2987 79.6895
L172.3311 80.7219
" />
<path d="M172.3311 80.7219
L170.2381 82.8149
" />
<path d="M194.9678 78.7940
L197.0608 76.7010
" />
<path d="M196.0002 79.8264
L194.9678 78.7940
" />
<path d="M197.0608 76.7010
L198.0932 77.7333
" />
<path d="M198.0932 77.7333
L196.0002 79.8264
" />
<path d="M182.0384 87.3847
L183.4984 87.3847
" />
<path d="M182.0384 90.3447
L182.0384 87.3847
" />
<path d="M183.4984 87.3847
L183.4984 90.3447
" />
<path d="M183.4984 90.3447
L182.0384 90.3447
" />
<path d="M197.9678 75.7940
L200.0608 73.7010
" />
<path d="M199.0002 76.8264
L197.9678 75.7940
" />
<path d="M200.0608 73.7010
L201.0932 74.7333
" />
<path d="M201.0932 74.7333
L199.0002 76.8264
" />
<path d="M172.2057 75.7825
L174.2987 73.6895
" />
<path d="M173.2381 76.8149
L172.2057 75.7825
" />
<path d="M174.2987 73.6895
L175.3311 74.7219
" />
<path d="M175.3311 74.7219
L173.2381 76.8149
" />
<path d="M207.8578 22.5167
L209.7605 20.2492
" />
<path d="M208.9763 23.4552
L207.8578 22.5167
" />
<path d="M209.7605 20.2492
L210.8789 21.1877
" />
<path d="M210.8789 21.1877
L208.9763 23.4552
" />
<path d="M160.2057 90.7825
L162.2987 88.6895
" />
<path d="M161.2381 91.8149
L160.2057 90.7825
" />
<path d="M162.2987 88.6895
L163.3311 89.7219
" />
<path d="M163.3311 89.7219
L161.2381 91.8149
" />
<path d="M203.9678 84.7940
L206.0608 82.7010
" />
<path d="M205.0002 85.8264
L203.9678 84.7940
" />
<path d="M206.0608 82.7010
L207.0932 83.7333
" />
<path d="M207.0932 83.7333
L205.0002 85.8264
" />
<path d="M191.9678 75.7940
L194.0608 73.7010
" />
<path d="M193.0002 76.8264
L191.9678 75.7940
" />
<path d="M194.0608 73.7010
L195.0932 74.7333
" />
<path d="M195.0932 74.7333
L193.0002 76.8264
" />
<path d="M163.2057 78.7825
L165.2987 76.6895
" />
<path d="M164.2381 79.8149
L163.2057 78.7825
" />
<path d="M165.2987 76.6895
L166.3311 77.7219
" />
<path d="M166.3311 77.7219
L164.2381 79.8149
" />
<path d="M191.9678 81.7940
L194.0608 79.7010
" />
<path d="M193.0002 82.8264
L191.9678 81.7940
" />
<path d="M194.0608 79.7010
L195.0932 80.7333
" />
<path d="M195.0932 80.7333
L193.0002 82.8264
" />
<path style="fill:none; 
stroke:#000000; stroke-width:0.0500; stroke-opacity:1; 
stroke-linecap:round; stroke-linejoin:round;fill:none"
d="M 161.2137,26.1242
159.6050,27.4741
156.3911,23.6438
157.9998,22.2940
Z" /> 
<path d="M172.2057 84.7825
L174.2987 82.6895
" />
<path d="M173.2381 85.8149
L172.2057 84.7825
" />
<path d="M174.2987 82.6895
L175.3311 83.7219
" />
<path d="M175.3311 83.7219
L173.2381 85.8149
" />
<path d="M160.2057 78.7825
L162.2987 76.6895
" />
<path d="M161.2381 79.8149
L160.2057 78.7825
" />
<path d="M162.2987 76.6895
L163.3311 77.7219
" />
<path d="M163.3311 77.7219
L161.2381 79.8149
" />
<path d="M175.2057 81.7825
L177.2987 79.6895
" />
<path d="M176.2381 82.8149
L175.2057 81.7825
" />
<path d="M177.2987 79.6895
L178.3311 80.7219
" />
<path d="M178.3311 80.7219
L176.2381 82.8149
" />
<path d="M194.9678 87.7940
L197.0608 85.7010
" />
<path d="M196.0002 88.8264
L194.9678 87.7940
" />
<path d="M197.0608 85.7010
L198.0932 86.7333
" />
<path d="M198.0932 86.7333
L196.0002 88.8264
" />
<path d="M175.2057 78.7825
L177.2987 76.6895
" />
<path d="M176.2381 79.8149
L175.2057 78.7825
" />
<path d="M177.2987 76.6895
L178.3311 77.7219
" />
<path d="M178.3311 77.7219
L176.2381 79.8149
" />
<path d="M166.2057 75.7825
L168.2987 73.6895
" />
<path d="M167.2381 76.8149
L166.2057 75.7825
" />
<path d="M168.2987 73.6895
L169.3311 74.7219
" />
<path d="M169.3311 74.7219
L167.2381 76.8149
" />
<path style="fill:none; 
stroke:#000000; stroke-width:0.0500; stroke-opacity:1; 
stroke-linecap:round; stroke-linejoin:round;fill:none"
d="M 213.6816,23.5350
210.4677,27.3652
208.8590,26.0154
212.0729,22.1851
Z" /> 
<path d="M204.4884 70.5640
L207.4484 70.5640
" />
<path d="M204.4884 72.0240
L204.4884 70.5640
" />
<path d="M207.4484 70.5640
L207.4484 72.0240
" />
<path d="M207.4484 72.0240
L204.4884 72.0240
" />
<path d="M200.9678 90.7940
L203.0608 88.7010
" />
<path d="M202.0002 91.8264
L200.9678 90.7940
" />
<path d="M203.0608 88.7010
L204.0932 89.7333
" />
<path d="M204.0932 89.7333
L202.0002 91.8264
" />
<path d="M172.2057 78.7825
L174.2987 76.6895
" />
<path d="M173.2381 79.8149
L172.2057 78.7825
" />
<path d="M174.2987 76.6895
L175.3311 77.7219
" />
<path d="M175.3311 77.7219
L173.2381 79.8149
" />
<path d="M172.2057 90.7825
L174.2987 88.6895
" />
<path d="M173.2381 91.8149
L172.2057 90.7825
" />
<path d="M174.2987 88.6895
L175.3311 89.7219
" />
<path d="M175.3311 89.7219
L173.2381 91.8149
" />
<path d="M160.2057 84.7825
L162.2987 82.6895
" />
<path d="M161.2381 85.8149
L160.2057 84.7825
" />
<path d="M162.2987 82.6895
L163.3311 83.7219
" />
<path d="M163.3311 83.7219
L161.2381 85.8149
" />
<path d="M169.2057 78.9825
L171.2987 76.8895
" />
<path d="M170.2381 80.0149
L169.2057 78.9825
" />
<path d="M171.2987 76.8895
L172.3311 77.9219
" />
<path d="M172.3311 77.9219
L170.2381 80.0149
" />
</g>
<g style="fill:#000000; fill-opacity:1.0000; stroke:none;">
<circle cx="166.2535" cy="97.5627" r="0.0250" /> 
</g>
<g style="fill:none; 
stroke:#000000; stroke-width:0.0500; stroke-opacity:1; 
stroke-linecap:round; stroke-linejoin:round;">
<path d="M166.2535 97.5627
L166.2535 119.9416
" />
<path d="M166.2535 119.9416
L166.2585 120.1396
" />
<path d="M166.2585 120.1396
L166.2734 120.3349
" />
<path d="M166.2585 97.3648
L166.2535 97.5627
" />
<path d="M166.2734 120.3349
L166.2978 120.5273
" />
<path d="M166.2734 97.1695
L166.2585 97.3648
" />
<path d="M166.2978 120.5273
L166.3316 120.7167
" />
<path d="M166.2978 96.9771
L166.2734 97.1695
" />
<path d="M166.3316 120.7167
L166.3746 120.9028
" />
<path d="M166.3316 96.7877
L166.2978 96.9771
" />
<path d="M166.3746 120.9028
L166.4264 121.0853
" />
<path d="M166.3746 96.6016
L166.3316 96.7877
" />
<path d="M166.4264 121.0853
L166.4868 121.2640
" />
<path d="M166.4264 96.4191
L166.3746 96.6016
" />
<path d="M166.4868 121.2640
L166.5557 121.4386
" />
<path d="M166.4868 96.2404
L166.4264 96.4191
" />
<path d="M166.5557 121.4386
L166.6327 121.6090
" />
<path d="M166.5557 96.0658
L166.4868 96.2404
" />
<path d="M166.6327 121.6090
L166.7176 121.7748
" />
<path d="M166.6327 95.8954
L166.5557 96.0658
" />
<path d="M166.7176 121.7748
L166.8102 121.9359
" />
<path d="M166.7176 95.7296
L166.6327 95.8954
" />
<path d="M166.8102 121.9359
L166.9102 122.0919
" />
<path d="M166.8102 95.5685
L166.7176 95.7296
" />
<path d="M166.9102 122.0919
L167.0174 122.2427
" />
<path d="M166.9102 95.4125
L166.8102 95.5685
" />
<path d="M167.0174 122.2427
L167.1316 122.3880
" />
<path d="M167.0174 95.2617
L166.9102 95.4125
" />
<path d="M167.1316 122.3880
L167.2525 122.5275
" />
<path d="M167.1316 95.1164
L167.0174 95.2617
" />
<path d="M167.2525 122.5275
L167.3798 122.6611
" />
<path d="M167.2525 94.9769
L167.1316 95.1164
" />
<path d="M167.3798 122.6611
L167.5134 122.7884
" />
<path d="M167.3798 94.8433
L167.2525 94.9769
" />
<path d="M167.5134 122.7884
L167.6529 122.9093
" />
<path d="M167.5134 94.7160
L167.3798 94.8433
" />
<path d="M167.6529 122.9093
L167.7982 123.0234
" />
<path d="M167.6529 94.5951
L167.5134 94.7160
" />
<path d="M167.7982 123.0234
L167.9490 123.1307
" />
<path d="M167.7982 94.4809
L167.6529 94.5951
" />
<path d="M167.9490 123.1307
L168.1050 123.2307
" />
<path d="M167.9490 94.3737
L167.7982 94.4809
" />
<path d="M168.1050 123.2307
L168.2661 123.3233
" />
<path d="M168.1050 94.2737
L167.9490 94.3737
" />
<path d="M168.2661 123.3233
L168.4319 123.4082
" />
<path d="M168.2661 94.1811
L168.1050 94.2737
" />
<path d="M168.4319 123.4082
L168.6023 123.4852
" />
<path d="M168.4319 94.0962
L168.2661 94.1811
" />
<path d="M168.6023 123.4852
L168.7769 123.5541
" />
<path d="M168.6023 94.0192
L168.4319 94.0962
" />
<path d="M168.7769 123.5541
L168.9556 123.6145
" />
<path d="M168.7769 93.9503
L168.6023 94.0192
" />
<path d="M168.9556 93.8899
L168.7769 93.9503
" />
<path d="M168.9556 123.6145
L169.1381 123.6663
" />
<path d="M169.1381 123.6663
L169.3242 123.7093
" />
<path d="M169.1381 93.8380
L168.9556 93.8899
" />
<path d="M169.3242 123.7093
L169.5136 123.7431
" />
<path d="M169.3242 93.7951
L169.1381 93.8380
" />
<path d="M169.5136 93.7613
L169.3242 93.7951
" />
<path d="M169.5136 123.7431
L169.7060 123.7675
" />
<path d="M169.7060 123.7675
L169.9013 123.7824
" />
<path d="M169.7135 93.7369
L169.5136 93.7613
" />
<path d="M169.7135 93.7369
L175.8135 93.7170
" />
<path d="M169.9013 123.7824
L170.0992 123.7873
" />
</g>
<g style="fill:#000000; fill-opacity:1.0000; stroke:none;">
<circle cx="170.0992" cy="123.7873" r="0.0250" /> 
</g>
<g style="fill:none; 
stroke:#000000; stroke-width:0.0500; stroke-opacity:1; 
stroke-linecap:round; stroke-linejoin:round;">
<path d="M170.0992 123.7873
L199.8395 123.7873
" />
<path d="M199.8395 93.7170
L175.8135 93.7170
" />
</g>
<g style="fill:#000000; fill-opacity:1.0000; stroke:none;">
<circle cx="199.8395" cy="93.7170" r="0.0250" /> 
<circle cx="199.8395" cy="123.7873" r="0.0250" /> 
</g>
<g style="fill:none; 
stroke:#000000; stroke-width:0.0500; stroke-opacity:1; 
stroke-linecap:round; stroke-linejoin:round;">
<path d="M199.8395 123.7873
L200.0373 123.7823
" />
<path d="M200.0373 93.7221
L199.8395 93.7170
" />
<path d="M200.0373 123.7823
L200.2325 123.7673
" />
<path d="M200.2325 93.7370
L200.0373 93.7221
" />
<path d="M200.2325 123.7673
L200.4249 123.7428
" />
<path d="M200.4249 93.7616
L200.2325 93.7370
" />
<path d="M200.4249 123.7428
L200.6142 123.7089
" />
<path d="M200.6142 93.7955
L200.4249 93.7616
" />
<path d="M200.6142 123.7089
L200.8002 123.6659
" />
<path d="M200.8002 93.8384
L200.6142 93.7955
" />
<path d="M200.8002 123.6659
L200.9826 123.6141
" />
<path d="M200.9826 93.8903
L200.8002 93.8384
" />
<path d="M200.9826 123.6141
L201.1613 123.5536
" />
<path d="M201.1613 93.9508
L200.9826 93.8903
" />
<path d="M201.1613 123.5536
L201.3358 123.4847
" />
<path d="M201.3358 94.0197
L201.1613 93.9508
" />
<path d="M201.3358 123.4847
L201.5061 123.4076
" />
<path d="M201.5061 94.0968
L201.3358 94.0197
" />
<path d="M201.5061 123.4076
L201.6718 123.3227
" />
<path d="M201.6718 94.1817
L201.5061 94.0968
" />
<path d="M201.6718 123.3227
L201.8328 123.2300
" />
<path d="M201.8328 94.2743
L201.6718 94.1817
" />
<path d="M201.8328 123.2300
L201.9888 123.1300
" />
<path d="M201.9888 94.3744
L201.8328 94.2743
" />
<path d="M201.9888 123.1300
L202.1395 123.0228
" />
<path d="M202.1395 94.4816
L201.9888 94.3744
" />
<path d="M202.1395 123.0228
L202.2847 122.9086
" />
<path d="M202.2847 94.5958
L202.1395 94.4816
" />
<path d="M202.2847 122.9086
L202.4241 122.7877
" />
<path d="M202.4241 94.7167
L202.2847 94.5958
" />
<path d="M202.4241 122.7877
L202.5576 122.6604
" />
<path d="M202.5576 94.8440
L202.4241 94.7167
" />
<path d="M202.5576 122.6604
L202.6849 122.5268
" />
<path d="M202.6849 94.9776
L202.5576 94.8440
" />
<path d="M202.6849 122.5268
L202.8057 122.3873
" />
<path d="M202.8057 95.1171
L202.6849 94.9776
" />
<path d="M202.8057 122.3873
L202.9198 122.2420
" />
<path d="M202.9198 95.2624
L202.8057 95.1171
" />
<path d="M202.9198 122.2420
L203.0270 122.0913
" />
<path d="M203.0270 95.4131
L202.9198 95.2624
" />
<path d="M203.0270 122.0913
L203.1269 121.9353
" />
<path d="M203.1269 95.5691
L203.0270 95.4131
" />
<path d="M203.1269 121.9353
L203.2195 121.7743
" />
<path d="M203.2195 95.7301
L203.1269 95.5691
" />
<path d="M203.2195 121.7743
L203.3043 121.6085
" />
<path d="M203.3043 95.8959
L203.2195 95.7301
" />
<path d="M203.3043 121.6085
L203.3813 121.4381
" />
<path d="M203.3813 96.0662
L203.3043 95.8959
" />
<path d="M203.3813 121.4381
L203.4501 121.2636
" />
<path d="M203.4501 96.2408
L203.3813 96.0662
" />
<path d="M203.4501 121.2636
L203.5105 121.0849
" />
<path d="M203.5105 96.4195
L203.4501 96.2408
" />
<path d="M203.5105 121.0849
L203.5623 120.9025
" />
<path d="M203.5623 96.6019
L203.5105 96.4195
" />
<path d="M203.5623 120.9025
L203.6052 120.7165
" />
<path d="M203.6052 96.7879
L203.5623 96.6019
" />
<path d="M203.6052 120.7165
L203.6390 120.5271
" />
<path d="M203.6390 96.9773
L203.6052 96.7879
" />
<path d="M203.6390 120.5271
L203.6634 120.3347
" />
<path d="M203.6634 97.1697
L203.6390 96.9773
" />
<path d="M203.6634 120.3347
L203.6782 120.1395
" />
<path d="M203.6782 97.3649
L203.6634 97.1697
" />
<path d="M203.6782 120.1395
L203.6832 119.9416
" />
<path d="M203.6832 97.5627
L203.6782 97.3649
" />
</g>
<g style="fill:#000000; fill-opacity:1.0000; stroke:none;">
<circle cx="203.6832" cy="97.5627" r="0.0250" /> 
</g>
<g style="fill:none; 
stroke:#000000; stroke-width:0.0500; stroke-opacity:1; 
stroke-linecap:round; stroke-linejoin:round;">
<path d="M203.6832 119.9416
L203.6832 97.5627
" />
</g>
<g style="fill:#000000; fill-opacity:1.0000; stroke:none;">
<circle cx="203.6832" cy="119.9416" r="0.0250" /> 
</g>
<g style="fill:none; 
stroke:#000000; stroke-width:0.0500; stroke-opacity:1; 
stroke-linecap:round; stroke-linejoin:round;">
<path d="M126.3295 76.3174
L125.5516 77.0952
" />
<path d="M126.3295 76.3174
L127.5669 77.5549
" />
<path d="M126.6477 78.4741
L130.8903 82.7167
" />
<path d="M126.7891 78.3327
L125.5516 77.0952
" />
<path d="M126.7891 78.3327
L126.6477 78.4741
" />
<path d="M127.5669 77.5549
L129.9711 75.1507
" />
<path d="M129.5114 73.1354
L128.7336 73.9133
" />
<path d="M129.5114 73.1354
L130.7489 74.3729
" />
<path d="M129.9711 75.1507
L128.7336 73.9133
" />
<path d="M130.8903 74.2315
L130.7489 74.3729
" />
<path d="M130.8903 74.2315
L135.1329 78.4741
" />
<path d="M131.0317 82.5753
L130.8903 82.7167
" />
<path d="M131.0317 82.5753
L132.2692 83.8128
" />
<path d="M131.8095 81.7975
L134.2137 79.3933
" />
<path d="M132.2692 83.8128
L133.0470 83.0349
" />
<path d="M133.0470 83.0349
L131.8095 81.7975
" />
<path d="M134.2137 79.3933
L135.4511 80.6308
" />
<path d="M135.1329 78.4741
L134.9915 78.6155
" />
<path d="M135.4511 80.6308
L136.2289 79.8530
" />
<path d="M136.2289 79.8530
L134.9915 78.6155
" />
<path d="M133.4753 97.4012
L133.4753 98.5012
" />
<path d="M133.4753 98.5012
L135.2253 98.5012
" />
<path d="M133.4753 101.9012
L133.4753 103.0012
" />
<path d="M133.4753 103.0012
L135.2253 103.0012
" />
<path d="M135.2253 97.4012
L133.4753 97.4012
" />
<path d="M135.2253 97.4012
L135.2253 97.2012
" />
<path d="M135.2253 98.5012
L135.2253 101.9012
" />
<path d="M135.2253 101.9012
L133.4753 101.9012
" />
<path d="M135.2253 103.2012
L135.2253 103.0012
" />
<path d="M141.2253 97.2012
L135.2253 97.2012
" />
<path d="M141.2253 97.4012
L141.2253 97.2012
" />
<path d="M141.2253 97.4012
L142.9753 97.4012
" />
<path d="M141.2253 98.5012
L141.2253 101.9012
" />
<path d="M141.2253 101.9012
L142.9753 101.9012
" />
<path d="M141.2253 103.2012
L135.2253 103.2012
" />
<path d="M141.2253 103.2012
L141.2253 103.0012
" />
<path d="M142.9753 98.5012
L141.2253 98.5012
" />
<path d="M142.9753 98.5012
L142.9753 97.4012
" />
<path d="M142.9753 103.0012
L141.2253 103.0012
" />
<path d="M142.9753 103.0012
L142.9753 101.9012
" />
<circle cx="241.9284" cy="100.4940" r="14.7000" /> 
<path d="M191.9678 90.7940
L194.0608 88.7010
" />
<path d="M193.0002 91.8264
L191.9678 90.7940
" />
<path d="M194.0608 88.7010
L195.0932 89.7333
" />
<path d="M195.0932 89.7333
L193.0002 91.8264
" />
<path d="M175.2057 87.7825
L177.2987 85.6895
" />
<path d="M176.2381 88.8149
L175.2057 87.7825
" />
<path d="M177.2987 85.6895
L178.3311 86.7219
" />
<path d="M178.3311 86.7219
L176.2381 88.8149
" />
<path d="M160.2057 75.7825
L162.2987 73.6895
" />
<path d="M161.2381 76.8149
L160.2057 75.7825
" />
<path d="M162.2987 73.6895
L163.3311 74.7219
" />
<path d="M163.3311 74.7219
L161.2381 76.8149
" />
<circle cx="158.7684" cy="71.4940" r="1.8028" /> 
<path d="M194.9678 84.7940
L197.0608 82.7010
" />
<path d="M196.0002 85.8264
L194.9678 84.7940
" />
<path d="M197.0608 82.7010
L198.0932 83.7333
" />
<path d="M198.0932 83.7333
L196.0002 85.8264
" />
<path d="M206.9678 84.7940
L209.0608 82.7010
" />
<path d="M208.0002 85.8264
L206.9678 84.7940
" />
<path d="M209.0608 82.7010
L210.0932 83.7333
" />
<path d="M210.0932 83.7333
L208.0002 85.8264
" />
<path d="M197.9678 90.7940
L200.0608 88.7010
" />
<path d="M199.0002 91.8264
L197.9678 90.7940
" />
<path d="M200.0608 88.7010
L201.0932 89.7333
" />
<path d="M201.0932 89.7333
L199.0002 91.8264
" />
<path d="M241.8206 62.0372
L243.9136 59.9441
" />
<path d="M242.8530 63.0696
L241.8206 62.0372
" />
<path d="M243.9136 59.9441
L244.9460 60.9765
" />
<path d="M244.9460 60.9765
L242.8530 63.0696
" />
<path d="M182.0384 84.1847
L183.4984 84.1847
" />
<path d="M182.0384 87.1447
L182.0384 84.1847
" />
<path d="M183.4984 84.1847
L183.4984 87.1447
" />
<path d="M183.4984 87.1447
L182.0384 87.1447
" />
<path d="M200.9678 84.7940
L203.0608 82.7010
" />
<path d="M202.0002 85.8264
L200.9678 84.7940
" />
<path d="M203.0608 82.7010
L204.0932 83.7333
" />
<path d="M204.0932 83.7333
L202.0002 85.8264
" />
<path d="M206.9678 78.7940
L209.0608 76.7010
" />
<path d="M208.0002 79.8264
L206.9678 78.7940
" />
<path d="M209.0608 76.7010
L210.0932 77.7333
" />
<path d="M210.0932 77.7333
L208.0002 79.8264
" />
<path d="M203.9678 90.7940
L206.0608 88.7010
" />
<path d="M205.0002 91.8264
L203.9678 90.7940
" />
<path d="M206.0608 88.7010
L207.0932 89.7333
" />
<path d="M207.0932 89.7333
L205.0002 91.8264
" />
<path d="M197.9678 84.7940
L200.0608 82.7010
" />
<path d="M199.0002 85.8264
L197.9678 84.7940
" />
<path d="M200.0608 82.7010
L201.0932 83.7333
" />
<path d="M201.0932 83.7333
L199.0002 85.8264
" />
<path d="M175.2057 84.7825
L177.2987 82.6895
" />
<path d="M176.2381 85.8149
L175.2057 84.7825
" />
<path d="M177.2987 82.6895
L178.3311 83.7219
" />
<path d="M178.3311 83.7219
L176.2381 85.8149
" />
<path d="M166.2057 87.7825
L168.2987 85.6895
" />
<path d="M167.2381 88.8149
L166.2057 87.7825
" />
<path d="M168.2987 85.6895
L169.3311 86.7219
" />
<path d="M169.3311 86.7219
L167.2381 88.8149
" />
<path d="M203.9678 81.7940
L206.0608 79.7010
" />
<path d="M205.0002 82.8264
L203.9678 81.7940
" />
<path d="M206.0608 79.7010
L207.0932 80.7333
" />
<path d="M207.0932 80.7333
L205.0002 82.8264
" />
<path d="M191.9678 84.7940
L194.0608 82.7010
" />
<path d="M193.0002 85.8264
L191.9678 84.7940
" />
<path d="M194.0608 82.7010
L195.0932 83.7333
" />
<path d="M195.0932 83.7333
L193.0002 85.8264
" />
<path d="M175.2057 75.7825
L177.2987 73.6895
" />
<path d="M176.2381 76.8149
L175.2057 75.7825
" />
<path d="M177.2987 73.6895
L178.3311 74.7219
" />
<path d="M178.3311 74.7219
L176.2381 76.8149
" />
<path d="M197.9678 81.7940
L200.0608 79.7010
" />
<path d="M199.0002 82.8264
L197.9678 81.7940
" />
<path d="M200.0608 79.7010
L201.0932 80.7333
" />
<path d="M201.0932 80.7333
L199.0002 82.8264
" />
<path d="M200.9678 75.7940
L203.0608 73.7010
" />
<path d="M202.0002 76.8264
L200.9678 75.7940
" />
<path d="M203.0608 73.7010
L204.0932 74.7333
" />
<path d="M204.0932 74.7333
L202.0002 76.8264
" />
<path d="M163.2057 87.7825
L165.2987 85.6895
" />
<path d="M164.2381 88.8149
L163.2057 87.7825
" />
<path d="M165.2987 85.6895
L166.3311 86.7219
" />
<path d="M166.3311 86.7219
L164.2381 88.8149
" />
<path d="M206.9678 90.7940
L209.0608 88.7010
" />
<path d="M208.0002 91.8264
L206.9678 90.7940
" />
<path d="M209.0608 88.7010
L210.0932 89.7333
" />
<path d="M210.0932 89.7333
L208.0002 91.8264
" />
<path d="M191.9678 87.7940
L194.0608 85.7010
" />
<path d="M193.0002 88.8264
L191.9678 87.7940
" />
<path d="M194.0608 85.7010
L195.0932 86.7333
" />
<path d="M195.0932 86.7333
L193.0002 88.8264
" />
<path d="M194.9678 90.7940
L197.0608 88.7010
" />
<path d="M196.0002 91.8264
L194.9678 90.7940
" />
<path d="M197.0608 88.7010
L198.0932 89.7333
" />
<path d="M198.0932 89.7333
L196.0002 91.8264
" />
<path style="fill:none; 
stroke:#000000; stroke-width:0.0500; stroke-opacity:1; 
stroke-linecap:round; stroke-linejoin:round;fill:none"
d="M 207.7867,66.6201
203.5464,69.2697
202.4336,67.4888
206.6739,64.8392
Z" /> 
<path d="M133.4753 104.5212
L133.4753 105.6212
" />
<path d="M133.4753 105.6212
L135.2253 105.6212
" />
<path d="M133.4753 109.0212
L133.4753 110.1212
" />
<path d="M133.4753 110.1212
L135.2253 110.1212
" />
<path d="M135.2253 104.5212
L133.4753 104.5212
" />
<path d="M135.2253 104.5212
L135.2253 104.3212
" />
<path d="M135.2253 105.6212
L135.2253 109.0212
" />
<path d="M135.2253 109.0212
L133.4753 109.0212
" />
<path d="M135.2253 110.3212
L135.2253 110.1212
" />
<path d="M141.2253 104.3212
L135.2253 104.3212
" />
<path d="M141.2253 104.5212
L141.2253 104.3212
" />
<path d="M141.2253 104.5212
L142.9753 104.5212
" />
<path d="M141.2253 105.6212
L141.2253 109.0212
" />
<path d="M141.2253 109.0212
L142.9753 109.0212
" />
<path d="M141.2253 110.3212
L135.2253 110.3212
" />
<path d="M141.2253 110.3212
L141.2253 110.1212
" />
<path d="M142.9753 105.6212
L141.2253 105.6212
" />
<path d="M142.9753 105.6212
L142.9753 104.5212
" />
<path d="M142.9753 110.1212
L141.2253 110.1212
" />
<path d="M142.9753 110.1212
L142.9753 109.0212
" />
<path d="M191.9678 78.7940
L194.0608 76.7010
" />
<path d="M193.0002 79.8264
L191.9678 78.7940
" />
<path d="M194.0608 76.7010
L195.0932 77.7333
" />
<path d="M195.0932 77.7333
L193.0002 79.8264
" />
<path d="M163.2057 90.7825
L165.2987 88.6895
" />
<path d="M164.2381 91.8149
L163.2057 90.7825
" />
<path d="M165.2987 88.6895
L166.3311 89.7219
" />
<path d="M166.3311 89.7219
L164.2381 91.8149
" />
<path d="M169.2057 75.7825
L171.2987 73.6895
" />
<path d="M170.2381 76.8149
L169.2057 75.7825
" />
<path d="M171.2987 73.6895
L172.3311 74.7219
" />
<path d="M172.3311 74.7219
L170.2381 76.8149
" />
<path d="M166.2057 81.7825
L168.2987 79.6895
" />
<path d="M167.2381 82.8149
L166.2057 81.7825
" />
<path d="M168.2987 79.6895
L169.3311 80.7219
" />
<path d="M169.3311 80.7219
L167.2381 82.8149
" />
<path d="M119.8297 74.1311
L120.6075 74.9089
" />
<path d="M119.8297 74.1311
L121.0672 72.8936
" />
<path d="M120.9257 72.7522
L121.0672 72.8936
" />
<path d="M120.9257 72.7522
L125.1684 68.5096
" />
<path d="M121.8450 73.6714
L120.6075 74.9089
" />
<path d="M123.0117 77.3130
L123.7895 78.0908
" />
<path d="M123.0117 77.3130
L124.2491 76.0756
" />
<path d="M124.2491 76.0756
L121.8450 73.6714
" />
<path d="M125.0270 76.8534
L123.7895 78.0908
" />
<path d="M125.0270 76.8534
L125.1684 76.9948
" />
<path d="M125.1684 68.5096
L125.3098 68.6510
" />
<path d="M125.1684 76.9948
L129.4110 72.7522
" />
<path d="M126.0876 69.4288
L127.3251 68.1914
" />
<path d="M126.5472 67.4135
L125.3098 68.6510
" />
<path d="M127.3251 68.1914
L126.5472 67.4135
" />
<path d="M128.4918 71.8330
L126.0876 69.4288
" />
<path d="M129.2696 72.6108
L129.4110 72.7522
" />
<path d="M129.2696 72.6108
L130.5070 71.3733
" />
<path d="M129.7292 70.5955
L128.4918 71.8330
" />
<path d="M130.5070 71.3733
L129.7292 70.5955
" />
<path d="M160.2057 81.7825
L162.2987 79.6895
" />
<path d="M161.2381 82.8149
L160.2057 81.7825
" />
<path d="M162.2987 79.6895
L163.3311 80.7219
" />
<path d="M163.3311 80.7219
L161.2381 82.8149
" />
<path d="M163.2057 84.7825
L165.2987 82.6895
" />
<path d="M164.2381 85.8149
L163.2057 84.7825
" />
<path d="M165.2987 82.6895
L166.3311 83.7219
" />
<path d="M166.3311 83.7219
L164.2381 85.8149
" />
<path d="M206.9678 81.7940
L209.0608 79.7010
" />
<path d="M208.0002 82.8264
L206.9678 81.7940
" />
<path d="M209.0608 79.7010
L210.0932 80.7333
" />
<path d="M210.0932 80.7333
L208.0002 82.8264
" />
<path d="M166.2057 84.7825
L168.2987 82.6895
" />
<path d="M167.2381 85.8149
L166.2057 84.7825
" />
<path d="M168.2987 82.6895
L169.3311 83.7219
" />
<path d="M169.3311 83.7219
L167.2381 85.8149
" />
<path style="fill:none; 
stroke:#000000; stroke-width:0.0500; stroke-opacity:1; 
stroke-linecap:round; stroke-linejoin:round;fill:none"
d="M 232.3416,82.9065
230.8797,87.6880
228.8715,87.0740
230.3333,82.2925
Z" /> 
<path d="M203.9678 87.7940
L206.0608 85.7010
" />
<path d="M205.0002 88.8264
L203.9678 87.7940
" />
<path d="M206.0608 85.7010
L207.0932 86.7333
" />
<path d="M207.0932 86.7333
L205.0002 88.8264
" />
<path d="M160.2057 87.7825
L162.2987 85.6895
" />
<path d="M161.2381 88.8149
L160.2057 87.7825
" />
<path d="M162.2987 85.6895
L163.3311 86.7219
" />
<path d="M163.3311 86.7219
L161.2381 88.8149
" />
<path d="M119.7852 85.6194
L120.5630 86.3972
" />
<path d="M120.5630 86.3972
L121.8004 85.1598
" />
<path d="M121.0226 84.3820
L119.7852 85.6194
" />
<path d="M121.0226 84.3820
L120.8812 84.2406
" />
<path d="M121.8004 85.1598
L124.2046 87.5640
" />
<path d="M122.9672 88.8014
L123.7450 89.5792
" />
<path d="M123.7450 89.5792
L124.9824 88.3418
" />
<path d="M124.2046 87.5640
L122.9672 88.8014
" />
<path d="M125.1238 79.9979
L120.8812 84.2406
" />
<path d="M125.1238 88.4832
L124.9824 88.3418
" />
<path d="M125.2653 80.1393
L125.1238 79.9979
" />
<path d="M125.2653 80.1393
L126.5027 78.9019
" />
<path d="M126.0431 80.9172
L128.4472 83.3213
" />
<path d="M127.2805 79.6797
L126.0431 80.9172
" />
<path d="M127.2805 79.6797
L126.5027 78.9019
" />
<path d="M128.4472 83.3213
L129.6847 82.0839
" />
<path d="M129.3665 84.2406
L125.1238 88.4832
" />
<path d="M129.3665 84.2406
L129.2251 84.0991
" />
<path d="M130.4625 82.8617
L129.2251 84.0991
" />
<path d="M130.4625 82.8617
L129.6847 82.0839
" />
<path d="M114.0633 77.1398
L115.3007 78.3772
" />
<path d="M114.8411 76.3620
L114.0633 77.1398
" />
<path d="M115.1593 78.5186
L115.3007 78.3772
" />
<path d="M116.0785 77.5994
L114.8411 76.3620
" />
<path d="M117.2453 73.9578
L118.4827 75.1952
" />
<path d="M118.0231 73.1800
L117.2453 73.9578
" />
<path d="M118.4827 75.1952
L116.0785 77.5994
" />
<path d="M119.2605 74.4174
L118.0231 73.1800
" />
<path d="M119.2605 74.4174
L119.4019 74.2760
" />
<path d="M119.4019 82.7613
L115.1593 78.5186
" />
<path d="M119.4019 82.7613
L119.5433 82.6199
" />
<path d="M120.3212 81.8421
L121.5586 83.0795
" />
<path d="M120.7808 83.8573
L119.5433 82.6199
" />
<path d="M120.7808 83.8573
L121.5586 83.0795
" />
<path d="M122.7253 79.4379
L120.3212 81.8421
" />
<path d="M123.5031 78.6601
L123.6446 78.5186
" />
<path d="M123.5031 78.6601
L124.7406 79.8975
" />
<path d="M123.6446 78.5186
L119.4019 74.2760
" />
<path d="M123.9628 80.6753
L122.7253 79.4379
" />
<path d="M123.9628 80.6753
L124.7406 79.8975
" />
<path d="M169.2057 90.7825
L171.2987 88.6895
" />
<path d="M170.2381 91.8149
L169.2057 90.7825
" />
<path d="M171.2987 88.6895
L172.3311 89.7219
" />
<path d="M172.3311 89.7219
L170.2381 91.8149
" />
<path d="M206.9678 87.7940
L209.0608 85.7010
" />
<path d="M208.0002 88.8264
L206.9678 87.7940
" />
<path d="M209.0608 85.7010
L210.0932 86.7333
" />
<path d="M210.0932 86.7333
L208.0002 88.8264
" />
<path d="M194.9678 75.7940
L197.0608 73.7010
" />
<path d="M196.0002 76.8264
L194.9678 75.7940
" />
<path d="M197.0608 73.7010
L198.0932 74.7333
" />
<path d="M198.0932 74.7333
L196.0002 76.8264
" />
<path d="M200.9678 87.7940
L203.0608 85.7010
" />
<path d="M202.0002 88.8264
L200.9678 87.7940
" />
<path d="M203.0608 85.7010
L204.0932 86.7333
" />
<path d="M204.0932 86.7333
L202.0002 88.8264
" />
<path d="M163.2057 75.7825
L165.2987 73.6895
" />
<path d="M164.2381 76.8149
L163.2057 75.7825
" />
<path d="M165.2987 73.6895
L166.3311 74.7219
" />
<path d="M166.3311 74.7219
L164.2381 76.8149
" />
</g>
<g style="fill:none; 
stroke:#000000; stroke-width:0.1000; stroke-opacity:1; 
stroke-linecap:round; stroke-linejoin:round;">
<circle cx="185.1684" cy="40.9522" r="11.5000" /> 
</g>
<g style="fill:none; 
stroke:#000000; stroke-width:0.0500; stroke-opacity:1; 
stroke-linecap:round; stroke-linejoin:round;">
<path d="M197.9678 87.7940
L200.0608 85.7010
" />
<path d="M199.0002 88.8264
L197.9678 87.7940
" />
<path d="M200.0608 85.7010
L201.0932 86.7333
" />
<path d="M201.0932 86.7333
L199.0002 88.8264
" />
<path d="M200.9678 81.7940
L203.0608 79.7010
" />
<path d="M202.0002 82.8264
L200.9678 81.7940
" />
<path d="M203.0608 79.7010
L204.0932 80.7333
" />
<path d="M204.0932 80.7333
L202.0002 82.8264
" />
<path d="M134.5776 86.3509
L137.3590 85.3385
" />
<path d="M135.0769 87.7228
L134.5776 86.3509
" />
<path d="M137.3590 85.3385
L137.8584 86.7105
" />
<path d="M137.8584 86.7105
L135.0769 87.7228
" />
<path d="M169.2057 87.7825
L171.2987 85.6895
" />
<path d="M170.2381 88.8149
L169.2057 87.7825
" />
<path d="M171.2987 85.6895
L172.3311 86.7219
" />
<path d="M172.3311 86.7219
L170.2381 88.8149
" />
<path d="M194.9678 81.7940
L197.0608 79.7010
" />
<path d="M196.0002 82.8264
L194.9678 81.7940
" />
<path d="M197.0608 79.7010
L198.0932 80.7333
" />
<path d="M198.0932 80.7333
L196.0002 82.8264
" />
<path d="M172.2057 81.7825
L174.2987 79.6895
" />
<path d="M173.2381 82.8149
L172.2057 81.7825
" />
<path d="M174.2987 79.6895
L175.3311 80.7219
" />
<path d="M175.3311 80.7219
L173.2381 82.8149
" />
<path style="fill:none; 
stroke:#000000; stroke-width:0.0500; stroke-opacity:1; 
stroke-linecap:round; stroke-linejoin:round;fill:none"
d="M 141.0509,86.9543
139.0427,87.5683
137.5808,82.7868
139.5891,82.1728
Z" /> 
<path d="M206.9678 75.7940
L209.0608 73.7010
" />
<path d="M208.0002 76.8264
L206.9678 75.7940
" />
<path d="M209.0608 73.7010
L210.0932 74.7333
" />
<path d="M210.0932 74.7333
L208.0002 76.8264
" />
<path d="M185.0084 85.6022
L185.0084 89.8422
" />
<path d="M185.0084 89.8422
L189.2484 89.8422
" />
<path d="M189.2484 85.6022
L185.0084 85.6022
" />
<path d="M189.2484 89.8422
L189.2484 85.6022
" />
<path d="M166.2057 78.9825
L168.2987 76.8895
" />
<path d="M167.2381 80.0149
L166.2057 78.9825
" />
<path d="M168.2987 76.8895
L169.3311 77.9219
" />
<path d="M169.3311 77.9219
L167.2381 80.0149
" />
<path style="fill:none; 
stroke:#000000; stroke-width:0.0500; stroke-opacity:1; 
stroke-linecap:round; stroke-linejoin:round;fill:none"
d="M 166.8449,67.0694
165.7321,68.8503
161.4918,66.2007
162.6047,64.4198
Z" /> 
<path d="M203.9678 75.7940
L206.0608 73.7010
" />
<path d="M205.0002 76.8264
L203.9678 75.7940
" />
<path d="M206.0608 73.7010
L207.0932 74.7333
" />
<path d="M207.0932 74.7333
L205.0002 76.8264
" />
<path d="M172.2057 87.7825
L174.2987 85.6895
" />
<path d="M173.2381 88.8149
L172.2057 87.7825
" />
<path d="M174.2987 85.6895
L175.3311 86.7219
" />
<path d="M175.3311 86.7219
L173.2381 88.8149
" />
<circle cx="158.9734" cy="29.7223" r="0.7650" /> 
<circle cx="210.9634" cy="29.7223" r="0.7650" /> 
<circle cx="152.4684" cy="50.1358" r="0.7650" /> 
<circle cx="152.4684" cy="102.1258" r="0.7650" /> 
<circle cx="217.4684" cy="50.1358" r="0.7650" /> 
<circle cx="217.4684" cy="102.1258" r="0.7650" /> 
</g> 
</svg>
