  0
SECTION
  2
HEADER
  9
$ACADVER
  1
AC1014
  9
$HANDSEED
  5
FFFF
  9
$INSUNITS
 70
     4
  9
$MEASUREMENT
 70
     1
  0
ENDSEC
  0
SECTION
  2
TABLES
  0
TABLE
  2
VPORT
  5
8
330
0
100
AcDbSymbolTable
 70
     4
  0
VPORT
  5
2E
330
8
100
AcDbSymbolTableRecord
100
AcDbViewportTableRecord
  2
*ACTIVE
 70
     0
 10
0.0
 20
0.0
 11
1.0
 21
1.0
 12
210.0
 22
148.5
 13
0.0
 23
0.0
 14
10.0
 24
10.0
 15
10.0
 25
10.0
 16
0.0
 26
0.0
 36
1.0
 17
0.0
 27
0.0
 37
0.0
 40
341.0
 41
1.24
 42
50.0
 43
0.0
 44
0.0
 50
0.0
 51
0.0
 71
     0
 72
   100
 73
     1
 74
     3
 75
     0
 76
     0
 77
     0
 78
     0
  0
ENDTAB
  0
TABLE
  2
LTYPE
  5
5
330
0
100
AcDbSymbolTable
 70
     1
  0
LTYPE
  5
14
330
5
100
AcDbSymbolTableRecord
100
AcDbLinetypeTableRecord
  2
BYBLOCK
 70
     0
  3

 72
    65
 73
     0
 40
0.0
  0
LTYPE
  5
15
330
5
100
AcDbSymbolTableRecord
100
AcDbLinetypeTableRecord
  2
BYLAYER
 70
     0
  3

 72
    65
 73
     0
 40
0.0
  0
LTYPE
  5
16
330
5
100
AcDbSymbolTableRecord
100
AcDbLinetypeTableRecord
  2
CONTINUOUS
 70
     0
  3
Solid line
 72
    65
 73
     0
 40
0.0
  0
ENDTAB
  0
TABLE
  2
LAYER
  5
2
100
AcDbSymbolTable
 70
1
  0
LAYER
  5
50
100
AcDbSymbolTableRecord
100
AcDbLayerTableRecord
  2
0
 70
0
  6
CONTINUOUS
  0
ENDTAB
  0
TABLE
  2
STYLE
  5
3
330
0
100
AcDbSymbolTable
 70
     1
  0
STYLE
  5
11
330
3
100
AcDbSymbolTableRecord
100
AcDbTextStyleTableRecord
  2
STANDARD
 70
     0
 40
0.0
 41
1.0
 50
0.0
 71
     0
 42
2.5
  3
txt
  4

  0
ENDTAB
  0
TABLE
  2
VIEW
  5
6
330
0
100
AcDbSymbolTable
 70
     0
  0
ENDTAB
  0
TABLE
  2
UCS
  5
7
330
0
100
AcDbSymbolTable
 70
     0
  0
ENDTAB
  0
TABLE
  2
APPID
  5
9
330
0
100
AcDbSymbolTable
 70
     2
  0
APPID
  5
12
330
9
100
AcDbSymbolTableRecord
100
AcDbRegAppTableRecord
  2
ACAD
 70
     0
  0
ENDTAB
  0
TABLE
  2
DIMSTYLE
  5
A
330
0
100
AcDbSymbolTable
 70
     1
  0
DIMSTYLE
105
27
330
A
100
AcDbSymbolTableRecord
100
AcDbDimStyleTableRecord
  2
ISO-25
 70
     0
  3

  4

  5

  6

  7

 40
1.0
 41
2.5
 42
0.625
 43
3.75
 44
1.25
 45
0.0
 46
0.0
 47
0.0
 48
0.0
140
2.5
141
2.5
142
0.0
143
0.03937007874016
144
1.0
145
0.0
146
1.0
147
0.625
 71
     0
 72
     0
 73
     0
 74
     0
 75
     0
 76
     0
 77
     1
 78
     8
170
     0
171
     3
172
     1
173
     0
174
     0
175
     0
176
     0
177
     0
178
     0
270
     2
271
     2
272
     2
273
     2
274
     3
340
11
275
     0
280
     0
281
     0
282
     0
283
     0
284
     8
285
     0
286
     0
287
     3
288
     0
  0
ENDTAB
  0
TABLE
  2
BLOCK_RECORD
  5
1
330
0
100
AcDbSymbolTable
 70
     1
  0
BLOCK_RECORD
  5
1F
330
1
100
AcDbSymbolTableRecord
100
AcDbBlockTableRecord
  2
*MODEL_SPACE
  0
BLOCK_RECORD
  5
1B
330
1
100
AcDbSymbolTableRecord
100
AcDbBlockTableRecord
  2
*PAPER_SPACE
  0
ENDTAB
  0
ENDSEC
  0
SECTION
  2
BLOCKS
  0
BLOCK
  5
20
330
1F
100
AcDbEntity
  8
0
100
AcDbBlockBegin
  2
*MODEL_SPACE
 70
     0
 10
0.0
 20
0.0
 30
0.0
  3
*MODEL_SPACE
  1

  0
ENDBLK
  5
21
330
1F
100
AcDbEntity
  8
0
100
AcDbBlockEnd
  0
BLOCK
  5
1C
330
1B
100
AcDbEntity
 67
     1
  8
0
100
AcDbBlockBegin
  2
*PAPER_SPACE
  1

  0
ENDBLK
  5
1D
330
1B
100
AcDbEntity
 67
     1
  8
0
100
AcDbBlockEnd
  0
ENDSEC
  0
SECTION
  2
ENTITIES
  0
SPLINE
  5
100
100
AcDbEntity
  8
0
 62
7
100
AcDbSpline
 70
8
 71
3
 72
8
 73
4
 74
0
 40
0
 40
0
 40
0
 40
0
 40
1
 40
1
 40
1
 40
1
 10
25.708527
 20
20.833590
 30
0.0
 10
25.982607
 20
20.709405
 30
0.0
 10
26.252413
 20
20.574535
 30
0.0
 10
26.492459
 20
20.411910
 30
0.0
  0
SPLINE
  5
101
100
AcDbEntity
  8
0
 62
7
100
AcDbSpline
 70
8
 71
3
 72
8
 73
4
 74
0
 40
0
 40
0
 40
0
 40
0
 40
1
 40
1
 40
1
 40
1
 10
26.492459
 20
20.411910
 30
0.0
 10
26.737487
 20
20.245924
 30
0.0
 10
26.966248
 20
20.060862
 30
0.0
 10
27.153917
 20
19.852771
 30
0.0
  0
SPLINE
  5
102
100
AcDbEntity
  8
0
 62
7
100
AcDbSpline
 70
8
 71
3
 72
8
 73
4
 74
0
 40
0
 40
0
 40
0
 40
0
 40
1
 40
1
 40
1
 40
1
 10
27.153917
 20
19.852771
 30
0.0
 10
27.342499
 20
19.643654
 30
0.0
 10
27.488175
 20
19.409470
 30
0.0
 10
27.610737
 20
19.171159
 30
0.0
  0
SPLINE
  5
103
100
AcDbEntity
  8
0
 62
7
100
AcDbSpline
 70
8
 71
3
 72
8
 73
4
 74
0
 40
0
 40
0
 40
0
 40
0
 40
1
 40
1
 40
1
 40
1
 10
27.610737
 20
19.171159
 30
0.0
 10
27.729622
 20
18.940066
 30
0.0
 10
27.816330
 20
18.697423
 30
0.0
 10
27.876870
 20
18.452340
 30
0.0
  0
SPLINE
  5
104
100
AcDbEntity
  8
0
 62
7
100
AcDbSpline
 70
8
 71
3
 72
8
 73
4
 74
0
 40
0
 40
0
 40
0
 40
0
 40
1
 40
1
 40
1
 40
1
 10
27.876870
 20
18.452340
 30
0.0
 10
27.932430
 20
18.227983
 30
0.0
 10
27.959920
 20
17.998900
 30
0.0
 10
27.964720
 20
17.770211
 30
0.0
  0
SPLINE
  5
105
100
AcDbEntity
  8
0
 62
7
100
AcDbSpline
 70
8
 71
3
 72
8
 73
4
 74
0
 40
0
 40
0
 40
0
 40
0
 40
1
 40
1
 40
1
 40
1
 10
27.964720
 20
17.770211
 30
0.0
 10
27.969920
 20
17.557943
 30
0.0
 10
27.950080
 20
17.344528
 30
0.0
 10
27.914590
 20
17.134074
 30
0.0
  0
SPLINE
  5
106
100
AcDbEntity
  8
0
 62
7
100
AcDbSpline
 70
8
 71
3
 72
8
 73
4
 74
0
 40
0
 40
0
 40
0
 40
0
 40
1
 40
1
 40
1
 40
1
 10
27.914590
 20
17.134074
 30
0.0
 10
27.880430
 20
16.931892
 30
0.0
 10
27.826470
 20
16.731341
 30
0.0
 10
27.758527
 20
16.534627
 30
0.0
  0
SPLINE
  5
107
100
AcDbEntity
  8
0
 62
7
100
AcDbSpline
 70
8
 71
3
 72
8
 73
4
 74
0
 40
0
 40
0
 40
0
 40
0
 40
1
 40
1
 40
1
 40
1
 10
27.758527
 20
16.534627
 30
0.0
 10
27.692947
 20
16.345040
 30
0.0
 10
27.609145
 20
16.159734
 30
0.0
 10
27.516165
 20
15.977555
 30
0.0
  0
SPLINE
  5
108
100
AcDbEntity
  8
0
 62
7
100
AcDbSpline
 70
8
 71
3
 72
8
 73
4
 74
0
 40
0
 40
0
 40
0
 40
0
 40
1
 40
1
 40
1
 40
1
 10
27.516165
 20
15.977555
 30
0.0
 10
27.427205
 20
15.803362
 30
0.0
 10
27.316741
 20
15.636682
 30
0.0
 10
27.214891
 20
15.466992
 30
0.0
  0
SPLINE
  5
109
100
AcDbEntity
  8
0
 62
7
100
AcDbSpline
 70
8
 71
3
 72
8
 73
4
 74
0
 40
0
 40
0
 40
0
 40
0
 40
1
 40
1
 40
1
 40
1
 10
27.214891
 20
15.466992
 30
0.0
 10
27.117771
 20
15.305119
 30
0.0
 10
26.997849
 20
15.151081
 30
0.0
 10
26.919819
 20
14.982784
 30
0.0
  0
SPLINE
  5
10a
100
AcDbEntity
  8
0
 62
7
100
AcDbSpline
 70
8
 71
3
 72
8
 73
4
 74
0
 40
0
 40
0
 40
0
 40
0
 40
1
 40
1
 40
1
 40
1
 10
26.919819
 20
14.982784
 30
0.0
 10
26.851279
 20
14.834918
 30
0.0
 10
26.796237
 20
14.681647
 30
0.0
 10
26.769957
 20
14.525448
 30
0.0
  0
SPLINE
  5
10b
100
AcDbEntity
  8
0
 62
7
100
AcDbSpline
 70
8
 71
3
 72
8
 73
4
 74
0
 40
0
 40
0
 40
0
 40
0
 40
1
 40
1
 40
1
 40
1
 10
26.769957
 20
14.525448
 30
0.0
 10
26.745787
 20
14.383092
 30
0.0
 10
26.747377
 20
14.237393
 30
0.0
 10
26.764257
 20
14.094466
 30
0.0
  0
SPLINE
  5
10c
100
AcDbEntity
  8
0
 62
7
100
AcDbSpline
 70
8
 71
3
 72
8
 73
4
 74
0
 40
0
 40
0
 40
0
 40
0
 40
1
 40
1
 40
1
 40
1
 10
26.764257
 20
14.094466
 30
0.0
 10
26.780317
 20
13.959457
 30
0.0
 10
26.815247
 20
13.825413
 30
0.0
 10
26.863987
 20
13.695524
 30
0.0
  0
SPLINE
  5
10d
100
AcDbEntity
  8
0
 62
7
100
AcDbSpline
 70
8
 71
3
 72
8
 73
4
 74
0
 40
0
 40
0
 40
0
 40
0
 40
1
 40
1
 40
1
 40
1
 10
26.863987
 20
13.695524
 30
0.0
 10
26.908037
 20
13.578140
 30
0.0
 10
26.964333
 20
13.462932
 30
0.0
 10
27.037103
 20
13.354976
 30
0.0
  0
SPLINE
  5
10e
100
AcDbEntity
  8
0
 62
7
100
AcDbSpline
 70
8
 71
3
 72
8
 73
4
 74
0
 40
0
 40
0
 40
0
 40
0
 40
1
 40
1
 40
1
 40
1
 10
27.037103
 20
13.354976
 30
0.0
 10
27.096103
 20
13.267306
 30
0.0
 10
27.164110
 20
13.181800
 30
0.0
 10
27.248460
 20
13.108480
 30
0.0
  0
SPLINE
  5
10f
100
AcDbEntity
  8
0
 62
7
100
AcDbSpline
 70
8
 71
3
 72
8
 73
4
 74
0
 40
0
 40
0
 40
0
 40
0
 40
1
 40
1
 40
1
 40
1
 10
27.248460
 20
13.108480
 30
0.0
 10
27.315890
 20
13.049880
 30
0.0
 10
27.393440
 20
12.996161
 30
0.0
 10
27.479970
 20
12.956551
 30
0.0
  0
SPLINE
  5
110
100
AcDbEntity
  8
0
 62
7
100
AcDbSpline
 70
8
 71
3
 72
8
 73
4
 74
0
 40
0
 40
0
 40
0
 40
0
 40
1
 40
1
 40
1
 40
1
 10
27.479970
 20
12.956551
 30
0.0
 10
27.561330
 20
12.919341
 30
0.0
 10
27.652877
 20
12.896831
 30
0.0
 10
27.744037
 20
12.879041
 30
0.0
  0
SPLINE
  5
111
100
AcDbEntity
  8
0
 62
7
100
AcDbSpline
 70
8
 71
3
 72
8
 73
4
 74
0
 40
0
 40
0
 40
0
 40
0
 40
1
 40
1
 40
1
 40
1
 10
27.744037
 20
12.879041
 30
0.0
 10
27.843037
 20
12.859811
 30
0.0
 10
27.945489
 20
12.853251
 30
0.0
 10
28.047378
 20
12.848551
 30
0.0
  0
SPLINE
  5
112
100
AcDbEntity
  8
0
 62
7
100
AcDbSpline
 70
8
 71
3
 72
8
 73
4
 74
0
 40
0
 40
0
 40
0
 40
0
 40
1
 40
1
 40
1
 40
1
 10
28.047378
 20
12.848551
 30
0.0
 10
28.168039
 20
12.842951
 30
0.0
 10
28.289399
 20
12.845151
 30
0.0
 10
28.410146
 20
12.849551
 30
0.0
  0
SPLINE
  5
113
100
AcDbEntity
  8
0
 62
7
100
AcDbSpline
 70
8
 71
3
 72
8
 73
4
 74
0
 40
0
 40
0
 40
0
 40
0
 40
1
 40
1
 40
1
 40
1
 10
28.410146
 20
12.849551
 30
0.0
 10
28.557821
 20
12.855251
 30
0.0
 10
28.705225
 20
12.868231
 30
0.0
 10
28.851980
 20
12.882621
 30
0.0
  0
SPLINE
  5
114
100
AcDbEntity
  8
0
 62
7
100
AcDbSpline
 70
8
 71
3
 72
8
 73
4
 74
0
 40
0
 40
0
 40
0
 40
0
 40
1
 40
1
 40
1
 40
1
 10
28.851980
 20
12.882621
 30
0.0
 10
29.030613
 20
12.900121
 30
0.0
 10
29.207851
 20
12.923431
 30
0.0
 10
29.385280
 20
12.947731
 30
0.0
  0
SPLINE
  5
115
100
AcDbEntity
  8
0
 62
7
100
AcDbSpline
 70
8
 71
3
 72
8
 73
4
 74
0
 40
0
 40
0
 40
0
 40
0
 40
1
 40
1
 40
1
 40
1
 10
29.385280
 20
12.947731
 30
0.0
 10
29.585822
 20
12.975211
 30
0.0
 10
29.785767
 20
13.007121
 30
0.0
 10
29.985244
 20
13.039201
 30
0.0
  0
SPLINE
  5
116
100
AcDbEntity
  8
0
 62
7
100
AcDbSpline
 70
8
 71
3
 72
8
 73
4
 74
0
 40
0
 40
0
 40
0
 40
0
 40
1
 40
1
 40
1
 40
1
 10
29.985244
 20
13.039201
 30
0.0
 10
30.196565
 20
13.073151
 30
0.0
 10
30.406070
 20
13.113861
 30
0.0
 10
30.617763
 20
13.146172
 30
0.0
  0
SPLINE
  5
117
100
AcDbEntity
  8
0
 62
7
100
AcDbSpline
 70
8
 71
3
 72
8
 73
4
 74
0
 40
0
 40
0
 40
0
 40
0
 40
1
 40
1
 40
1
 40
1
 10
30.617763
 20
13.146172
 30
0.0
 10
30.854168
 20
13.182272
 30
0.0
 10
31.091471
 20
13.214112
 30
0.0
 10
31.329348
 20
13.243322
 30
0.0
  0
SPLINE
  5
118
100
AcDbEntity
  8
0
 62
7
100
AcDbSpline
 70
8
 71
3
 72
8
 73
4
 74
0
 40
0
 40
0
 40
0
 40
0
 40
1
 40
1
 40
1
 40
1
 10
31.329348
 20
13.243322
 30
0.0
 10
31.577001
 20
13.273662
 30
0.0
 10
31.826114
 20
13.297802
 30
0.0
 10
32.074522
 20
13.323942
 30
0.0
  0
SPLINE
  5
119
100
AcDbEntity
  8
0
 62
7
100
AcDbSpline
 70
8
 71
3
 72
8
 73
4
 74
0
 40
0
 40
0
 40
0
 40
0
 40
1
 40
1
 40
1
 40
1
 10
32.074522
 20
13.323942
 30
0.0
 10
32.324811
 20
13.350192
 30
0.0
 10
32.576998
 20
13.366682
 30
0.0
 10
32.825897
 20
13.400422
 30
0.0
  0
SPLINE
  5
11a
100
AcDbEntity
  8
0
 62
7
100
AcDbSpline
 70
8
 71
3
 72
8
 73
4
 74
0
 40
0
 40
0
 40
0
 40
0
 40
1
 40
1
 40
1
 40
1
 10
32.825897
 20
13.400422
 30
0.0
 10
33.058398
 20
13.431952
 30
0.0
 10
33.290236
 20
13.468972
 30
0.0
 10
33.517845
 20
13.518244
 30
0.0
  0
SPLINE
  5
11b
100
AcDbEntity
  8
0
 62
7
100
AcDbSpline
 70
8
 71
3
 72
8
 73
4
 74
0
 40
0
 40
0
 40
0
 40
0
 40
1
 40
1
 40
1
 40
1
 10
33.517845
 20
13.518244
 30
0.0
 10
33.736591
 20
13.565574
 30
0.0
 10
33.954126
 20
13.618649
 30
0.0
 10
34.163283
 20
13.688259
 30
0.0
  0
SPLINE
  5
11c
100
AcDbEntity
  8
0
 62
7
100
AcDbSpline
 70
8
 71
3
 72
8
 73
4
 74
0
 40
0
 40
0
 40
0
 40
0
 40
1
 40
1
 40
1
 40
1
 10
34.163283
 20
13.688259
 30
0.0
 10
34.370164
 20
13.757139
 30
0.0
 10
34.570571
 20
13.839422
 30
0.0
 10
34.762213
 20
13.932172
 30
0.0
  0
SPLINE
  5
11d
100
AcDbEntity
  8
0
 62
7
100
AcDbSpline
 70
8
 71
3
 72
8
 73
4
 74
0
 40
0
 40
0
 40
0
 40
0
 40
1
 40
1
 40
1
 40
1
 10
34.762213
 20
13.932172
 30
0.0
 10
34.944190
 20
14.020302
 30
0.0
 10
35.116576
 20
14.121476
 30
0.0
 10
35.282078
 20
14.228278
 30
0.0
  0
SPLINE
  5
11e
100
AcDbEntity
  8
0
 62
7
100
AcDbSpline
 70
8
 71
3
 72
8
 73
4
 74
0
 40
0
 40
0
 40
0
 40
0
 40
1
 40
1
 40
1
 40
1
 10
35.282078
 20
14.228278
 30
0.0
 10
35.434508
 20
14.326658
 30
0.0
 10
35.582754
 20
14.429963
 30
0.0
 10
35.716160
 20
14.544538
 30
0.0
  0
SPLINE
  5
11f
100
AcDbEntity
  8
0
 62
7
100
AcDbSpline
 70
8
 71
3
 72
8
 73
4
 74
0
 40
0
 40
0
 40
0
 40
0
 40
1
 40
1
 40
1
 40
1
 10
35.716160
 20
14.544538
 30
0.0
 10
35.853535
 20
14.662504
 30
0.0
 10
35.980007
 20
14.789832
 30
0.0
 10
36.090814
 20
14.924360
 30
0.0
  0
SPLINE
  5
120
100
AcDbEntity
  8
0
 62
7
100
AcDbSpline
 70
8
 71
3
 72
8
 73
4
 74
0
 40
0
 40
0
 40
0
 40
0
 40
1
 40
1
 40
1
 40
1
 10
36.090814
 20
14.924360
 30
0.0
 10
36.217130
 20
15.077761
 30
0.0
 10
36.322220
 20
15.242108
 30
0.0
 10
36.418960
 20
15.408568
 30
0.0
  0
SPLINE
  5
121
100
AcDbEntity
  8
0
 62
7
100
AcDbSpline
 70
8
 71
3
 72
8
 73
4
 74
0
 40
0
 40
0
 40
0
 40
0
 40
1
 40
1
 40
1
 40
1
 10
36.418960
 20
15.408568
 30
0.0
 10
36.517260
 20
15.577725
 30
0.0
 10
36.601841
 20
15.752236
 30
0.0
 10
36.674241
 20
15.929466
 30
0.0
  0
SPLINE
  5
122
100
AcDbEntity
  8
0
 62
7
100
AcDbSpline
 70
8
 71
3
 72
8
 73
4
 74
0
 40
0
 40
0
 40
0
 40
0
 40
1
 40
1
 40
1
 40
1
 10
36.674241
 20
15.929466
 30
0.0
 10
36.740521
 20
16.091475
 30
0.0
 10
36.795599
 20
16.256974
 30
0.0
 10
36.837539
 20
16.424010
 30
0.0
  0
SPLINE
  5
123
100
AcDbEntity
  8
0
 62
7
100
AcDbSpline
 70
8
 71
3
 72
8
 73
4
 74
0
 40
0
 40
0
 40
0
 40
0
 40
1
 40
1
 40
1
 40
1
 10
36.837539
 20
16.424010
 30
0.0
 10
36.880759
 20
16.595721
 30
0.0
 10
36.902859
 20
16.769935
 30
0.0
 10
36.927969
 20
16.943875
 30
0.0
  0
SPLINE
  5
124
100
AcDbEntity
  8
0
 62
7
100
AcDbSpline
 70
8
 71
3
 72
8
 73
4
 74
0
 40
0
 40
0
 40
0
 40
0
 40
1
 40
1
 40
1
 40
1
 10
36.927969
 20
16.943875
 30
0.0
 10
36.957289
 20
17.146575
 30
0.0
 10
36.979659
 20
17.350198
 30
0.0
 10
36.998769
 20
17.553657
 30
0.0
  0
SPLINE
  5
125
100
AcDbEntity
  8
0
 62
7
100
AcDbSpline
 70
8
 71
3
 72
8
 73
4
 74
0
 40
0
 40
0
 40
0
 40
0
 40
1
 40
1
 40
1
 40
1
 10
36.998769
 20
17.553657
 30
0.0
 10
37.020399
 20
17.781074
 30
0.0
 10
37.034689
 20
18.008517
 30
0.0
 10
37.048899
 20
18.236302
 30
0.0
  0
SPLINE
  5
126
100
AcDbEntity
  8
0
 62
7
100
AcDbSpline
 70
8
 71
3
 72
8
 73
4
 74
0
 40
0
 40
0
 40
0
 40
0
 40
1
 40
1
 40
1
 40
1
 10
37.048899
 20
18.236302
 30
0.0
 10
37.064079
 20
18.479610
 30
0.0
 10
37.073579
 20
18.723592
 30
0.0
 10
37.085589
 20
18.967007
 30
0.0
  0
SPLINE
  5
127
100
AcDbEntity
  8
0
 62
7
100
AcDbSpline
 70
8
 71
3
 72
8
 73
4
 74
0
 40
0
 40
0
 40
0
 40
0
 40
1
 40
1
 40
1
 40
1
 10
37.085589
 20
18.967007
 30
0.0
 10
37.098229
 20
19.220916
 30
0.0
 10
37.112389
 20
19.474736
 30
0.0
 10
37.122799
 20
19.728718
 30
0.0
  0
SPLINE
  5
128
100
AcDbEntity
  8
0
 62
7
100
AcDbSpline
 70
8
 71
3
 72
8
 73
4
 74
0
 40
0
 40
0
 40
0
 40
0
 40
1
 40
1
 40
1
 40
1
 10
37.122799
 20
19.728718
 30
0.0
 10
37.133019
 20
19.987817
 30
0.0
 10
37.140469
 20
20.246743
 30
0.0
 10
37.146569
 20
20.505931
 30
0.0
  0
SPLINE
  5
129
100
AcDbEntity
  8
0
 62
7
100
AcDbSpline
 70
8
 71
3
 72
8
 73
4
 74
0
 40
0
 40
0
 40
0
 40
0
 40
1
 40
1
 40
1
 40
1
 10
37.146569
 20
20.505931
 30
0.0
 10
37.151869
 20
20.758036
 30
0.0
 10
37.156269
 20
21.010335
 30
0.0
 10
37.157419
 20
21.262474
 30
0.0
  0
SPLINE
  5
12a
100
AcDbEntity
  8
0
 62
7
100
AcDbSpline
 70
8
 71
3
 72
8
 73
4
 74
0
 40
0
 40
0
 40
0
 40
0
 40
1
 40
1
 40
1
 40
1
 10
37.157419
 20
21.262474
 30
0.0
 10
37.157502
 20
21.276474
 30
0.0
 10
37.157537
 20
21.290334
 30
0.0
 10
37.157419
 20
21.304334
 30
0.0
  0
SPLINE
  5
12b
100
AcDbEntity
  8
0
 62
7
100
AcDbSpline
 70
8
 71
3
 72
8
 73
4
 74
0
 40
0
 40
0
 40
0
 40
0
 40
1
 40
1
 40
1
 40
1
 10
37.157419
 20
21.304334
 30
0.0
 10
37.150019
 20
22.196508
 30
0.0
 10
36.974629
 20
23.096861
 30
0.0
 10
37.113499
 20
23.981174
 30
0.0
  0
LWPOLYLINE
  5
12c
100
AcDbEntity
  8
0
 62
7
100
AcDbPolyline
 90
5
 70
0
 10
36.060867
 20
23.693364
 30
0.0
 10
32.830573
 20
22.793678
 30
0.0
 10
29.600279
 20
21.887789
 30
0.0
 10
26.375670
 20
20.987585
 30
0.0
 10
25.708527
 20
20.833590
 30
0.0
  0
LWPOLYLINE
  5
12d
100
AcDbEntity
  8
0
 62
7
100
AcDbPolyline
 90
2
 70
0
 10
37.113499
 20
23.981174
 30
0.0
 10
36.060867
 20
23.693364
 30
0.0
  0
SPLINE
  5
12e
100
AcDbEntity
  8
0
 62
7
100
AcDbSpline
 70
8
 71
3
 72
8
 73
4
 74
0
 40
0
 40
0
 40
0
 40
0
 40
1
 40
1
 40
1
 40
1
 10
46.676747
 20
26.463135
 30
0.0
 10
46.708577
 20
26.465235
 30
0.0
 10
47.203538
 20
26.449595
 30
0.0
 10
47.235368
 20
26.451795
 30
0.0
  0
SPLINE
  5
12f
100
AcDbEntity
  8
0
 62
7
100
AcDbSpline
 70
8
 71
3
 72
8
 73
4
 74
0
 40
0
 40
0
 40
0
 40
0
 40
1
 40
1
 40
1
 40
1
 10
47.235368
 20
26.451795
 30
0.0
 10
47.631334
 20
26.478645
 30
0.0
 10
47.792414
 20
26.520205
 30
0.0
 10
48.186852
 20
26.558938
 30
0.0
  0
SPLINE
  5
130
100
AcDbEntity
  8
0
 62
7
100
AcDbSpline
 70
8
 71
3
 72
8
 73
4
 74
0
 40
0
 40
0
 40
0
 40
0
 40
1
 40
1
 40
1
 40
1
 10
48.186852
 20
26.558938
 30
0.0
 10
48.431332
 20
26.605238
 30
0.0
 10
48.662017
 20
26.642508
 30
0.0
 10
49.013037
 20
26.686401
 30
0.0
  0
SPLINE
  5
131
100
AcDbEntity
  8
0
 62
7
100
AcDbSpline
 70
8
 71
3
 72
8
 73
4
 74
0
 40
0
 40
0
 40
0
 40
0
 40
1
 40
1
 40
1
 40
1
 10
49.013037
 20
26.686401
 30
0.0
 10
49.380422
 20
26.732351
 30
0.0
 10
49.745882
 20
26.788272
 30
0.0
 10
50.113745
 20
26.831612
 30
0.0
  0
SPLINE
  5
132
100
AcDbEntity
  8
0
 62
7
100
AcDbSpline
 70
8
 71
3
 72
8
 73
4
 74
0
 40
0
 40
0
 40
0
 40
0
 40
1
 40
1
 40
1
 40
1
 10
50.113745
 20
26.831612
 30
0.0
 10
50.479740
 20
26.874762
 30
0.0
 10
50.846282
 20
26.921482
 30
0.0
 10
51.214970
 20
26.945817
 30
0.0
  0
SPLINE
  5
133
100
AcDbEntity
  8
0
 62
7
100
AcDbSpline
 70
8
 71
3
 72
8
 73
4
 74
0
 40
0
 40
0
 40
0
 40
0
 40
1
 40
1
 40
1
 40
1
 10
51.214970
 20
26.945817
 30
0.0
 10
51.556859
 20
26.968377
 30
0.0
 10
51.900395
 20
26.980077
 30
0.0
 10
52.243331
 20
26.975277
 30
0.0
  0
SPLINE
  5
134
100
AcDbEntity
  8
0
 62
7
100
AcDbSpline
 70
8
 71
3
 72
8
 73
4
 74
0
 40
0
 40
0
 40
0
 40
0
 40
1
 40
1
 40
1
 40
1
 10
52.243331
 20
26.975277
 30
0.0
 10
52.542983
 20
26.970877
 30
0.0
 10
52.991012
 20
26.905377
 30
0.0
 10
53.334738
 20
26.767537
 30
0.0
  0
SPLINE
  5
135
100
AcDbEntity
  8
0
 62
7
100
AcDbSpline
 70
8
 71
3
 72
8
 73
4
 74
0
 40
0
 40
0
 40
0
 40
0
 40
1
 40
1
 40
1
 40
1
 10
53.334738
 20
26.767537
 30
0.0
 10
54.358916
 20
26.356828
 30
0.0
 10
55.822308
 20
25.287224
 30
0.0
 10
56.113380
 20
24.968164
 30
0.0
  0
SPLINE
  5
136
100
AcDbEntity
  8
0
 62
7
100
AcDbSpline
 70
8
 71
3
 72
8
 73
4
 74
0
 40
0
 40
0
 40
0
 40
0
 40
1
 40
1
 40
1
 40
1
 10
56.113380
 20
24.968164
 30
0.0
 10
56.404452
 20
24.649105
 30
0.0
 10
56.654225
 20
24.268690
 30
0.0
 10
56.778972
 20
23.693306
 30
0.0
  0
SPLINE
  5
137
100
AcDbEntity
  8
0
 62
7
100
AcDbSpline
 70
8
 71
3
 72
8
 73
4
 74
0
 40
0
 40
0
 40
0
 40
0
 40
1
 40
1
 40
1
 40
1
 10
56.778972
 20
23.693306
 30
0.0
 10
56.816042
 20
23.347656
 30
0.0
 10
56.833952
 20
23.132536
 30
0.0
 10
56.869402
 20
22.914026
 30
0.0
  0
SPLINE
  5
138
100
AcDbEntity
  8
0
 62
7
100
AcDbSpline
 70
8
 71
3
 72
8
 73
4
 74
0
 40
0
 40
0
 40
0
 40
0
 40
1
 40
1
 40
1
 40
1
 10
56.869402
 20
22.914026
 30
0.0
 10
56.932882
 20
22.635978
 30
0.0
 10
56.965212
 20
22.396187
 30
0.0
 10
57.050269
 20
22.071182
 30
0.0
  0
SPLINE
  5
139
100
AcDbEntity
  8
0
 62
7
100
AcDbSpline
 70
8
 71
3
 72
8
 73
4
 74
0
 40
0
 40
0
 40
0
 40
0
 40
1
 40
1
 40
1
 40
1
 10
57.050269
 20
22.071182
 30
0.0
 10
57.126439
 20
21.780117
 30
0.0
 10
57.199449
 20
21.539091
 30
0.0
 10
57.294699
 20
21.241776
 30
0.0
  0
SPLINE
  5
13a
100
AcDbEntity
  8
0
 62
7
100
AcDbSpline
 70
8
 71
3
 72
8
 73
4
 74
0
 40
0
 40
0
 40
0
 40
0
 40
1
 40
1
 40
1
 40
1
 10
57.294699
 20
21.241776
 30
0.0
 10
57.368039
 20
21.012856
 30
0.0
 10
57.475793
 20
20.590542
 30
0.0
 10
57.691574
 20
20.376195
 30
0.0
  0
SPLINE
  5
13b
100
AcDbEntity
  8
0
 62
7
100
AcDbSpline
 70
8
 71
3
 72
8
 73
4
 74
0
 40
0
 40
0
 40
0
 40
0
 40
1
 40
1
 40
1
 40
1
 10
57.691574
 20
20.376195
 30
0.0
 10
57.875495
 20
20.193492
 30
0.0
 10
58.083036
 20
20.025913
 30
0.0
 10
58.280169
 20
19.852196
 30
0.0
  0
SPLINE
  5
13c
100
AcDbEntity
  8
0
 62
7
100
AcDbSpline
 70
8
 71
3
 72
8
 73
4
 74
0
 40
0
 40
0
 40
0
 40
0
 40
1
 40
1
 40
1
 40
1
 10
58.280169
 20
19.852196
 30
0.0
 10
58.427148
 20
19.722630
 30
0.0
 10
58.576013
 20
19.594655
 30
0.0
 10
58.723036
 20
19.465140
 30
0.0
  0
SPLINE
  5
13d
100
AcDbEntity
  8
0
 62
7
100
AcDbSpline
 70
8
 71
3
 72
8
 73
4
 74
0
 40
0
 40
0
 40
0
 40
0
 40
1
 40
1
 40
1
 40
1
 10
58.723036
 20
19.465140
 30
0.0
 10
58.849252
 20
19.353923
 30
0.0
 10
58.966156
 20
19.236391
 30
0.0
 10
59.099757
 20
19.130793
 30
0.0
  0
SPLINE
  5
13e
100
AcDbEntity
  8
0
 62
7
100
AcDbSpline
 70
8
 71
3
 72
8
 73
4
 74
0
 40
0
 40
0
 40
0
 40
0
 40
1
 40
1
 40
1
 40
1
 10
59.099757
 20
19.130793
 30
0.0
 10
59.231161
 20
19.026934
 30
0.0
 10
59.365964
 20
18.923958
 30
0.0
 10
59.516269
 20
18.837788
 30
0.0
  0
SPLINE
  5
13f
100
AcDbEntity
  8
0
 62
7
100
AcDbSpline
 70
8
 71
3
 72
8
 73
4
 74
0
 40
0
 40
0
 40
0
 40
0
 40
1
 40
1
 40
1
 40
1
 10
59.516269
 20
18.837788
 30
0.0
 10
59.679279
 20
18.744438
 30
0.0
 10
59.856695
 20
18.666389
 30
0.0
 10
60.038201
 20
18.598009
 30
0.0
  0
SPLINE
  5
140
100
AcDbEntity
  8
0
 62
7
100
AcDbSpline
 70
8
 71
3
 72
8
 73
4
 74
0
 40
0
 40
0
 40
0
 40
0
 40
1
 40
1
 40
1
 40
1
 10
60.038201
 20
18.598009
 30
0.0
 10
60.244309
 20
18.520319
 30
0.0
 10
60.461516
 20
18.462943
 30
0.0
 10
60.677955
 20
18.405773
 30
0.0
  0
SPLINE
  5
141
100
AcDbEntity
  8
0
 62
7
100
AcDbSpline
 70
8
 71
3
 72
8
 73
4
 74
0
 40
0
 40
0
 40
0
 40
0
 40
1
 40
1
 40
1
 40
1
 10
60.677955
 20
18.405773
 30
0.0
 10
60.908227
 20
18.344923
 30
0.0
 10
61.141023
 20
18.287759
 30
0.0
 10
61.377654
 20
18.245059
 30
0.0
  0
SPLINE
  5
142
100
AcDbEntity
  8
0
 62
7
100
AcDbSpline
 70
8
 71
3
 72
8
 73
4
 74
0
 40
0
 40
0
 40
0
 40
0
 40
1
 40
1
 40
1
 40
1
 10
61.377654
 20
18.245059
 30
0.0
 10
61.605909
 20
18.203739
 30
0.0
 10
61.836693
 20
18.167199
 30
0.0
 10
62.070118
 20
18.153079
 30
0.0
  0
SPLINE
  5
143
100
AcDbEntity
  8
0
 62
7
100
AcDbSpline
 70
8
 71
3
 72
8
 73
4
 74
0
 40
0
 40
0
 40
0
 40
0
 40
1
 40
1
 40
1
 40
1
 10
62.070118
 20
18.153079
 30
0.0
 10
62.302412
 20
18.138929
 30
0.0
 10
62.538203
 20
18.137089
 30
0.0
 10
62.769300
 20
18.160879
 30
0.0
  0
SPLINE
  5
144
100
AcDbEntity
  8
0
 62
7
100
AcDbSpline
 70
8
 71
3
 72
8
 73
4
 74
0
 40
0
 40
0
 40
0
 40
0
 40
1
 40
1
 40
1
 40
1
 10
62.769300
 20
18.160879
 30
0.0
 10
63.027327
 20
18.187409
 30
0.0
 10
63.281352
 20
18.241479
 30
0.0
 10
63.526877
 20
18.310224
 30
0.0
  0
SPLINE
  5
145
100
AcDbEntity
  8
0
 62
7
100
AcDbSpline
 70
8
 71
3
 72
8
 73
4
 74
0
 40
0
 40
0
 40
0
 40
0
 40
1
 40
1
 40
1
 40
1
 10
63.526877
 20
18.310224
 30
0.0
 10
63.816537
 20
18.391254
 30
0.0
 10
64.096609
 20
18.496063
 30
0.0
 10
64.363001
 20
18.617698
 30
0.0
  0
SPLINE
  5
146
100
AcDbEntity
  8
0
 62
7
100
AcDbSpline
 70
8
 71
3
 72
8
 73
4
 74
0
 40
0
 40
0
 40
0
 40
0
 40
1
 40
1
 40
1
 40
1
 10
64.363001
 20
18.617698
 30
0.0
 10
64.678432
 20
18.761738
 30
0.0
 10
64.981367
 20
18.926348
 30
0.0
 10
65.258037
 20
19.114309
 30
0.0
  0
SPLINE
  5
147
100
AcDbEntity
  8
0
 62
7
100
AcDbSpline
 70
8
 71
3
 72
8
 73
4
 74
0
 40
0
 40
0
 40
0
 40
0
 40
1
 40
1
 40
1
 40
1
 10
65.258037
 20
19.114309
 30
0.0
 10
65.577580
 20
19.331395
 30
0.0
 10
65.873278
 20
19.573988
 30
0.0
 10
66.132402
 20
19.837262
 30
0.0
  0
SPLINE
  5
148
100
AcDbEntity
  8
0
 62
7
100
AcDbSpline
 70
8
 71
3
 72
8
 73
4
 74
0
 40
0
 40
0
 40
0
 40
0
 40
1
 40
1
 40
1
 40
1
 10
66.132402
 20
19.837262
 30
0.0
 10
66.423418
 20
20.132934
 30
0.0
 10
66.665650
 20
20.458599
 30
0.0
 10
66.887395
 20
20.790175
 30
0.0
  0
SPLINE
  5
149
100
AcDbEntity
  8
0
 62
7
100
AcDbSpline
 70
8
 71
3
 72
8
 73
4
 74
0
 40
0
 40
0
 40
0
 40
0
 40
1
 40
1
 40
1
 40
1
 10
66.887395
 20
20.790175
 30
0.0
 10
67.126243
 20
21.147332
 30
0.0
 10
67.325212
 20
21.521937
 30
0.0
 10
67.503896
 20
21.900702
 30
0.0
  0
SPLINE
  5
14a
100
AcDbEntity
  8
0
 62
7
100
AcDbSpline
 70
8
 71
3
 72
8
 73
4
 74
0
 40
0
 40
0
 40
0
 40
0
 40
1
 40
1
 40
1
 40
1
 10
67.503896
 20
21.900702
 30
0.0
 10
67.686392
 20
22.287578
 30
0.0
 10
67.830504
 20
22.685611
 30
0.0
 10
67.967950
 20
23.084093
 30
0.0
  0
SPLINE
  5
14b
100
AcDbEntity
  8
0
 62
7
100
AcDbSpline
 70
8
 71
3
 72
8
 73
4
 74
0
 40
0
 40
0
 40
0
 40
0
 40
1
 40
1
 40
1
 40
1
 10
67.967950
 20
23.084093
 30
0.0
 10
68.097354
 20
23.459330
 30
0.0
 10
68.207471
 20
23.838381
 30
0.0
 10
68.306431
 20
24.219425
 30
0.0
  0
SPLINE
  5
14c
100
AcDbEntity
  8
0
 62
7
100
AcDbSpline
 70
8
 71
3
 72
8
 73
4
 74
0
 40
0
 40
0
 40
0
 40
0
 40
1
 40
1
 40
1
 40
1
 10
68.306431
 20
24.219425
 30
0.0
 10
68.392361
 20
24.550461
 30
0.0
 10
68.453336
 20
24.885500
 30
0.0
 10
68.527606
 20
25.218330
 30
0.0
  0
SPLINE
  5
14d
100
AcDbEntity
  8
0
 62
7
100
AcDbSpline
 70
8
 71
3
 72
8
 73
4
 74
0
 40
0
 40
0
 40
0
 40
0
 40
1
 40
1
 40
1
 40
1
 10
68.527606
 20
25.218330
 30
0.0
 10
68.592066
 20
25.507507
 30
0.0
 10
68.643196
 20
25.798625
 30
0.0
 10
68.722426
 20
26.085461
 30
0.0
  0
SPLINE
  5
14e
100
AcDbEntity
  8
0
 62
7
100
AcDbSpline
 70
8
 71
3
 72
8
 73
4
 74
0
 40
0
 40
0
 40
0
 40
0
 40
1
 40
1
 40
1
 40
1
 10
68.722426
 20
26.085461
 30
0.0
 10
68.794346
 20
26.345586
 30
0.0
 10
68.855501
 20
26.610241
 30
0.0
 10
68.976674
 20
26.858540
 30
0.0
  0
SPLINE
  5
14f
100
AcDbEntity
  8
0
 62
7
100
AcDbSpline
 70
8
 71
3
 72
8
 73
4
 74
0
 40
0
 40
0
 40
0
 40
0
 40
1
 40
1
 40
1
 40
1
 10
68.976674
 20
26.858540
 30
0.0
 10
69.092196
 20
27.095165
 30
0.0
 10
69.227923
 20
27.331644
 30
0.0
 10
69.423159
 20
27.532401
 30
0.0
  0
SPLINE
  5
150
100
AcDbEntity
  8
0
 62
7
100
AcDbSpline
 70
8
 71
3
 72
8
 73
4
 74
0
 40
0
 40
0
 40
0
 40
0
 40
1
 40
1
 40
1
 40
1
 10
69.423159
 20
27.532401
 30
0.0
 10
69.628208
 20
27.743246
 30
0.0
 10
69.887022
 20
27.923112
 30
0.0
 10
70.165749
 20
28.070869
 30
0.0
  0
SPLINE
  5
151
100
AcDbEntity
  8
0
 62
7
100
AcDbSpline
 70
8
 71
3
 72
8
 73
4
 74
0
 40
0
 40
0
 40
0
 40
0
 40
1
 40
1
 40
1
 40
1
 10
70.165749
 20
28.070869
 30
0.0
 10
70.506547
 20
28.251525
 30
0.0
 10
70.893767
 20
28.375027
 30
0.0
 10
71.279376
 20
28.484280
 30
0.0
  0
SPLINE
  5
152
100
AcDbEntity
  8
0
 62
7
100
AcDbSpline
 70
8
 71
3
 72
8
 73
4
 74
0
 40
0
 40
0
 40
0
 40
0
 40
1
 40
1
 40
1
 40
1
 10
71.279376
 20
28.484280
 30
0.0
 10
71.761716
 20
28.620955
 30
0.0
 10
72.265279
 20
28.707687
 30
0.0
 10
72.768174
 20
28.783487
 30
0.0
  0
SPLINE
  5
153
100
AcDbEntity
  8
0
 62
7
100
AcDbSpline
 70
8
 71
3
 72
8
 73
4
 74
0
 40
0
 40
0
 40
0
 40
0
 40
1
 40
1
 40
1
 40
1
 10
72.768174
 20
28.783487
 30
0.0
 10
73.331861
 20
28.868457
 30
0.0
 10
73.903493
 20
28.918490
 30
0.0
 10
74.475047
 20
28.957120
 30
0.0
  0
SPLINE
  5
154
100
AcDbEntity
  8
0
 62
7
100
AcDbSpline
 70
8
 71
3
 72
8
 73
4
 74
0
 40
0
 40
0
 40
0
 40
0
 40
1
 40
1
 40
1
 40
1
 10
74.475047
 20
28.957120
 30
0.0
 10
75.055867
 20
28.996290
 30
0.0
 10
75.638977
 20
29.021610
 30
0.0
 10
76.221710
 20
29.015510
 30
0.0
  0
SPLINE
  5
155
100
AcDbEntity
  8
0
 62
7
100
AcDbSpline
 70
8
 71
3
 72
8
 73
4
 74
0
 40
0
 40
0
 40
0
 40
0
 40
1
 40
1
 40
1
 40
1
 10
76.221710
 20
29.015510
 30
0.0
 10
76.252500
 20
29.015610
 30
0.0
 10
76.283410
 20
29.011710
 30
0.0
 10
76.314210
 20
29.010810
 30
0.0
  0
SPLINE
  5
156
100
AcDbEntity
  8
0
 62
7
100
AcDbSpline
 70
8
 71
3
 72
8
 73
4
 74
0
 40
0
 40
0
 40
0
 40
0
 40
1
 40
1
 40
1
 40
1
 10
76.314210
 20
29.010810
 30
0.0
 10
77.482542
 20
28.968360
 30
0.0
 10
78.653818
 20
28.988580
 30
0.0
 10
79.822006
 20
28.943630
 30
0.0
  0
SPLINE
  5
157
100
AcDbEntity
  8
0
 62
7
100
AcDbSpline
 70
8
 71
3
 72
8
 73
4
 74
0
 40
0
 40
0
 40
0
 40
0
 40
1
 40
1
 40
1
 40
1
 10
79.822006
 20
28.943630
 30
0.0
 10
80.365772
 20
28.922660
 30
0.0
 10
80.910497
 20
28.898550
 30
0.0
 10
81.451364
 20
28.849580
 30
0.0
  0
SPLINE
  5
158
100
AcDbEntity
  8
0
 62
7
100
AcDbSpline
 70
8
 71
3
 72
8
 73
4
 74
0
 40
0
 40
0
 40
0
 40
0
 40
1
 40
1
 40
1
 40
1
 10
81.451364
 20
28.849580
 30
0.0
 10
81.937746
 20
28.805590
 30
0.0
 10
82.422822
 20
28.750360
 30
0.0
 10
82.901923
 20
28.670779
 30
0.0
  0
SPLINE
  5
159
100
AcDbEntity
  8
0
 62
7
100
AcDbSpline
 70
8
 71
3
 72
8
 73
4
 74
0
 40
0
 40
0
 40
0
 40
0
 40
1
 40
1
 40
1
 40
1
 10
82.901923
 20
28.670779
 30
0.0
 10
83.342780
 20
28.597579
 30
0.0
 10
83.779188
 20
28.504242
 30
0.0
 10
84.208819
 20
28.396894
 30
0.0
  0
SPLINE
  5
15a
100
AcDbEntity
  8
0
 62
7
100
AcDbSpline
 70
8
 71
3
 72
8
 73
4
 74
0
 40
0
 40
0
 40
0
 40
0
 40
1
 40
1
 40
1
 40
1
 10
84.208819
 20
28.396894
 30
0.0
 10
84.481807
 20
28.328684
 30
0.0
 10
85.472228
 20
27.717310
 30
0.0
 10
85.739424
 20
27.635580
 30
0.0
  0
LWPOLYLINE
  5
15b
100
AcDbEntity
  8
0
 62
7
100
AcDbPolyline
 90
8
 70
0
 10
68.342094
 20
29.814869
 30
0.0
 10
65.111282
 20
29.612297
 30
0.0
 10
61.887190
 20
29.284152
 30
0.0
 10
58.656379
 20
28.849036
 30
0.0
 10
55.426085
 20
28.318836
 30
0.0
 10
52.201475
 20
27.698719
 30
0.0
 10
48.971181
 20
27.001604
 30
0.0
 10
46.676747
 20
26.463135
 30
0.0
  0
SPLINE
  5
15c
100
AcDbEntity
  8
0
 62
7
100
AcDbSpline
 70
8
 71
3
 72
8
 73
4
 74
0
 40
0
 40
0
 40
0
 40
0
 40
1
 40
1
 40
1
 40
1
 10
89.188086
 20
25.082865
 30
0.0
 10
89.509875
 20
24.549887
 30
0.0
 10
89.518943
 20
23.430600
 30
0.0
 10
89.953172
 20
21.908400
 30
0.0
  0
SPLINE
  5
15d
100
AcDbEntity
  8
0
 62
7
100
AcDbSpline
 70
8
 71
3
 72
8
 73
4
 74
0
 40
0
 40
0
 40
0
 40
0
 40
1
 40
1
 40
1
 40
1
 10
89.953172
 20
21.908400
 30
0.0
 10
90.030052
 20
21.694106
 30
0.0
 10
90.102333
 20
21.478054
 30
0.0
 10
90.173313
 20
21.262445
 30
0.0
  0
SPLINE
  5
15e
100
AcDbEntity
  8
0
 62
7
100
AcDbSpline
 70
8
 71
3
 72
8
 73
4
 74
0
 40
0
 40
0
 40
0
 40
0
 40
1
 40
1
 40
1
 40
1
 10
90.173313
 20
21.262445
 30
0.0
 10
90.237963
 20
21.065297
 30
0.0
 10
90.297695
 20
20.867341
 30
0.0
 10
90.359865
 20
20.669716
 30
0.0
  0
SPLINE
  5
15f
100
AcDbEntity
  8
0
 62
7
100
AcDbSpline
 70
8
 71
3
 72
8
 73
4
 74
0
 40
0
 40
0
 40
0
 40
0
 40
1
 40
1
 40
1
 40
1
 10
90.359865
 20
20.669716
 30
0.0
 10
90.426495
 20
20.458088
 30
0.0
 10
90.476153
 20
20.242872
 30
0.0
 10
90.559853
 20
20.035130
 30
0.0
  0
SPLINE
  5
160
100
AcDbEntity
  8
0
 62
7
100
AcDbSpline
 70
8
 71
3
 72
8
 73
4
 74
0
 40
0
 40
0
 40
0
 40
0
 40
1
 40
1
 40
1
 40
1
 10
90.559853
 20
20.035130
 30
0.0
 10
90.648443
 20
19.815103
 30
0.0
 10
90.740955
 20
19.593497
 30
0.0
 10
90.878697
 20
19.390208
 30
0.0
  0
SPLINE
  5
161
100
AcDbEntity
  8
0
 62
7
100
AcDbSpline
 70
8
 71
3
 72
8
 73
4
 74
0
 40
0
 40
0
 40
0
 40
0
 40
1
 40
1
 40
1
 40
1
 10
90.878697
 20
19.390208
 30
0.0
 10
91.024013
 20
19.175783
 30
0.0
 10
91.195594
 20
18.968228
 30
0.0
 10
91.407863
 20
18.792828
 30
0.0
  0
SPLINE
  5
162
100
AcDbEntity
  8
0
 62
7
100
AcDbSpline
 70
8
 71
3
 72
8
 73
4
 74
0
 40
0
 40
0
 40
0
 40
0
 40
1
 40
1
 40
1
 40
1
 10
91.407863
 20
18.792828
 30
0.0
 10
91.640479
 20
18.600622
 30
0.0
 10
91.914513
 20
18.436290
 30
0.0
 10
92.207814
 20
18.307070
 30
0.0
  0
SPLINE
  5
163
100
AcDbEntity
  8
0
 62
7
100
AcDbSpline
 70
8
 71
3
 72
8
 73
4
 74
0
 40
0
 40
0
 40
0
 40
0
 40
1
 40
1
 40
1
 40
1
 10
92.207814
 20
18.307070
 30
0.0
 10
92.549072
 20
18.156740
 30
0.0
 10
92.927879
 20
18.066015
 30
0.0
 10
93.302838
 20
17.980475
 30
0.0
  0
SPLINE
  5
164
100
AcDbEntity
  8
0
 62
7
100
AcDbSpline
 70
8
 71
3
 72
8
 73
4
 74
0
 40
0
 40
0
 40
0
 40
0
 40
1
 40
1
 40
1
 40
1
 10
93.302838
 20
17.980475
 30
0.0
 10
93.710403
 20
17.887475
 30
0.0
 10
94.130846
 20
17.831434
 30
0.0
 10
94.549790
 20
17.779454
 30
0.0
  0
SPLINE
  5
165
100
AcDbEntity
  8
0
 62
7
100
AcDbSpline
 70
8
 71
3
 72
8
 73
4
 74
0
 40
0
 40
0
 40
0
 40
0
 40
1
 40
1
 40
1
 40
1
 10
94.549790
 20
17.779454
 30
0.0
 10
94.969357
 20
17.727324
 30
0.0
 10
95.392220
 20
17.692224
 30
0.0
 10
95.815863
 20
17.668349
 30
0.0
  0
SPLINE
  5
166
100
AcDbEntity
  8
0
 62
7
100
AcDbSpline
 70
8
 71
3
 72
8
 73
4
 74
0
 40
0
 40
0
 40
0
 40
0
 40
1
 40
1
 40
1
 40
1
 10
95.815863
 20
17.668349
 30
0.0
 10
96.247945
 20
17.643989
 30
0.0
 10
96.681827
 20
17.630289
 30
0.0
 10
97.115008
 20
17.635789
 30
0.0
  0
SPLINE
  5
167
100
AcDbEntity
  8
0
 62
7
100
AcDbSpline
 70
8
 71
3
 72
8
 73
4
 74
0
 40
0
 40
0
 40
0
 40
0
 40
1
 40
1
 40
1
 40
1
 10
97.115008
 20
17.635789
 30
0.0
 10
97.570651
 20
17.641289
 30
0.0
 10
98.027472
 20
17.658339
 30
0.0
 10
98.479784
 20
17.702969
 30
0.0
  0
SPLINE
  5
168
100
AcDbEntity
  8
0
 62
7
100
AcDbSpline
 70
8
 71
3
 72
8
 73
4
 74
0
 40
0
 40
0
 40
0
 40
0
 40
1
 40
1
 40
1
 40
1
 10
98.479784
 20
17.702969
 30
0.0
 10
98.905512
 20
17.745009
 30
0.0
 10
99.339128
 20
17.780169
 30
0.0
 10
99.744823
 20
17.891588
 30
0.0
  0
SPLINE
  5
169
100
AcDbEntity
  8
0
 62
7
100
AcDbSpline
 70
8
 71
3
 72
8
 73
4
 74
0
 40
0
 40
0
 40
0
 40
0
 40
1
 40
1
 40
1
 40
1
 10
99.744823
 20
17.891588
 30
0.0
 10
100.058117
 20
17.977638
 30
0.0
 10
100.363047
 20
18.097143
 30
0.0
 10
100.626937
 20
18.256941
 30
0.0
  0
SPLINE
  5
16a
100
AcDbEntity
  8
0
 62
7
100
AcDbSpline
 70
8
 71
3
 72
8
 73
4
 74
0
 40
0
 40
0
 40
0
 40
0
 40
1
 40
1
 40
1
 40
1
 10
100.626937
 20
18.256941
 30
0.0
 10
100.862297
 20
18.399461
 30
0.0
 10
101.052047
 20
18.586881
 30
0.0
 10
101.232067
 20
18.773705
 30
0.0
  0
SPLINE
  5
16b
100
AcDbEntity
  8
0
 62
7
100
AcDbSpline
 70
8
 71
3
 72
8
 73
4
 74
0
 40
0
 40
0
 40
0
 40
0
 40
1
 40
1
 40
1
 40
1
 10
101.232067
 20
18.773705
 30
0.0
 10
101.433097
 20
18.982310
 30
0.0
 10
101.599077
 20
19.211527
 30
0.0
 10
101.757107
 20
19.442398
 30
0.0
  0
SPLINE
  5
16c
100
AcDbEntity
  8
0
 62
7
100
AcDbSpline
 70
8
 71
3
 72
8
 73
4
 74
0
 40
0
 40
0
 40
0
 40
0
 40
1
 40
1
 40
1
 40
1
 10
101.757107
 20
19.442398
 30
0.0
 10
101.934177
 20
19.701103
 30
0.0
 10
102.084247
 20
19.971363
 30
0.0
 10
102.229427
 20
20.242349
 30
0.0
  0
SPLINE
  5
16d
100
AcDbEntity
  8
0
 62
7
100
AcDbSpline
 70
8
 71
3
 72
8
 73
4
 74
0
 40
0
 40
0
 40
0
 40
0
 40
1
 40
1
 40
1
 40
1
 10
102.229427
 20
20.242349
 30
0.0
 10
102.386857
 20
20.536169
 30
0.0
 10
102.521147
 20
20.837609
 30
0.0
 10
102.661437
 20
21.136868
 30
0.0
  0
SPLINE
  5
16e
100
AcDbEntity
  8
0
 62
7
100
AcDbSpline
 70
8
 71
3
 72
8
 73
4
 74
0
 40
0
 40
0
 40
0
 40
0
 40
1
 40
1
 40
1
 40
1
 10
102.661437
 20
21.136868
 30
0.0
 10
102.798197
 20
21.428639
 30
0.0
 10
102.919597
 20
21.724816
 30
0.0
 10
103.060387
 20
22.015368
 30
0.0
  0
SPLINE
  5
16f
100
AcDbEntity
  8
0
 62
7
100
AcDbSpline
 70
8
 71
3
 72
8
 73
4
 74
0
 40
0
 40
0
 40
0
 40
0
 40
1
 40
1
 40
1
 40
1
 10
103.060387
 20
22.015368
 30
0.0
 10
103.184647
 20
22.271813
 30
0.0
 10
103.305757
 20
22.529716
 30
0.0
 10
103.453637
 20
22.778113
 30
0.0
  0
SPLINE
  5
170
100
AcDbEntity
  8
0
 62
7
100
AcDbSpline
 70
8
 71
3
 72
8
 73
4
 74
0
 40
0
 40
0
 40
0
 40
0
 40
1
 40
1
 40
1
 40
1
 10
103.453637
 20
22.778113
 30
0.0
 10
103.583497
 20
22.996277
 30
0.0
 10
103.722767
 20
23.212164
 30
0.0
 10
103.886687
 20
23.415283
 30
0.0
  0
SPLINE
  5
171
100
AcDbEntity
  8
0
 62
7
100
AcDbSpline
 70
8
 71
3
 72
8
 73
4
 74
0
 40
0
 40
0
 40
0
 40
0
 40
1
 40
1
 40
1
 40
1
 10
103.886687
 20
23.415283
 30
0.0
 10
104.036117
 20
23.600384
 30
0.0
 10
104.199177
 20
23.779799
 30
0.0
 10
104.385367
 20
23.942383
 30
0.0
  0
SPLINE
  5
172
100
AcDbEntity
  8
0
 62
7
100
AcDbSpline
 70
8
 71
3
 72
8
 73
4
 74
0
 40
0
 40
0
 40
0
 40
0
 40
1
 40
1
 40
1
 40
1
 10
104.385367
 20
23.942383
 30
0.0
 10
104.571157
 20
24.104585
 30
0.0
 10
104.778767
 20
24.251906
 30
0.0
 10
104.997737
 20
24.385250
 30
0.0
  0
SPLINE
  5
173
100
AcDbEntity
  8
0
 62
7
100
AcDbSpline
 70
8
 71
3
 72
8
 73
4
 74
0
 40
0
 40
0
 40
0
 40
0
 40
1
 40
1
 40
1
 40
1
 10
104.997737
 20
24.385250
 30
0.0
 10
105.233327
 20
24.528711
 30
0.0
 10
105.482317
 20
24.660535
 30
0.0
 10
105.747557
 20
24.766105
 30
0.0
  0
SPLINE
  5
174
100
AcDbEntity
  8
0
 62
7
100
AcDbSpline
 70
8
 71
3
 72
8
 73
4
 74
0
 40
0
 40
0
 40
0
 40
0
 40
1
 40
1
 40
1
 40
1
 10
105.747557
 20
24.766105
 30
0.0
 10
106.024557
 20
24.876344
 30
0.0
 10
106.318557
 20
24.960444
 30
0.0
 10
106.616757
 20
25.026554
 30
0.0
  0
SPLINE
  5
175
100
AcDbEntity
  8
0
 62
7
100
AcDbSpline
 70
8
 71
3
 72
8
 73
4
 74
0
 40
0
 40
0
 40
0
 40
0
 40
1
 40
1
 40
1
 40
1
 10
106.616757
 20
25.026554
 30
0.0
 10
106.913817
 20
25.092464
 30
0.0
 10
107.219777
 20
25.138773
 30
0.0
 10
107.526777
 20
25.160913
 30
0.0
  0
SPLINE
  5
176
100
AcDbEntity
  8
0
 62
7
100
AcDbSpline
 70
8
 71
3
 72
8
 73
4
 74
0
 40
0
 40
0
 40
0
 40
0
 40
1
 40
1
 40
1
 40
1
 10
107.526777
 20
25.160913
 30
0.0
 10
107.716387
 20
25.174813
 30
0.0
 10
107.907177
 20
25.164313
 30
0.0
 10
108.097797
 20
25.159913
 30
0.0
  0
LWPOLYLINE
  5
177
100
AcDbEntity
  8
0
 62
7
100
AcDbPolyline
 90
2
 70
0
 10
85.739424
 20
27.635580
 30
0.0
 10
89.188086
 20
25.082865
 30
0.0
  0
SPLINE
  5
178
100
AcDbEntity
  8
0
 62
7
100
AcDbSpline
 70
8
 71
3
 72
8
 73
4
 74
0
 40
0
 40
0
 40
0
 40
0
 40
1
 40
1
 40
1
 40
1
 10
72.509274
 20
78.807287
 30
0.0
 10
72.434274
 20
78.806547
 30
0.0
 10
72.070838
 20
78.800297
 30
0.0
 10
72.002328
 20
78.799537
 30
0.0
  0
SPLINE
  5
179
100
AcDbEntity
  8
0
 62
7
100
AcDbSpline
 70
8
 71
3
 72
8
 73
4
 74
0
 40
0
 40
0
 40
0
 40
0
 40
1
 40
1
 40
1
 40
1
 10
72.002328
 20
78.799537
 30
0.0
 10
65.427493
 20
78.721642
 30
0.0
 10
58.417297
 20
78.058571
 30
0.0
 10
52.206952
 20
77.025576
 30
0.0
  0
SPLINE
  5
17a
100
AcDbEntity
  8
0
 62
7
100
AcDbSpline
 70
8
 71
3
 72
8
 73
4
 74
0
 40
0
 40
0
 40
0
 40
0
 40
1
 40
1
 40
1
 40
1
 10
52.206952
 20
77.025576
 30
0.0
 10
51.880995
 20
76.971358
 30
0.0
 10
51.736942
 20
77.711920
 30
0.0
 10
51.366374
 20
77.806604
 30
0.0
  0
SPLINE
  5
17b
100
AcDbEntity
  8
0
 62
7
100
AcDbSpline
 70
8
 71
3
 72
8
 73
4
 74
0
 40
0
 40
0
 40
0
 40
0
 40
1
 40
1
 40
1
 40
1
 10
51.366374
 20
77.806604
 30
0.0
 10
50.770201
 20
77.958931
 30
0.0
 10
49.979459
 20
77.807460
 30
0.0
 10
49.464669
 20
77.507611
 30
0.0
  0
SPLINE
  5
17c
100
AcDbEntity
  8
0
 62
7
100
AcDbSpline
 70
8
 71
3
 72
8
 73
4
 74
0
 40
0
 40
0
 40
0
 40
0
 40
1
 40
1
 40
1
 40
1
 10
49.464669
 20
77.507611
 30
0.0
 10
49.098125
 20
77.294110
 30
0.0
 10
49.377549
 20
76.527236
 30
0.0
 10
48.808379
 20
76.417326
 30
0.0
  0
SPLINE
  5
17d
100
AcDbEntity
  8
0
 62
7
100
AcDbSpline
 70
8
 71
3
 72
8
 73
4
 74
0
 40
0
 40
0
 40
0
 40
0
 40
1
 40
1
 40
1
 40
1
 10
48.808379
 20
76.417326
 30
0.0
 10
43.097361
 20
75.314503
 30
0.0
 10
37.723568
 20
73.884123
 30
0.0
 10
31.921051
 20
72.064030
 30
0.0
  0
SPLINE
  5
17e
100
AcDbEntity
  8
0
 62
7
100
AcDbSpline
 70
8
 71
3
 72
8
 73
4
 74
0
 40
0
 40
0
 40
0
 40
0
 40
1
 40
1
 40
1
 40
1
 10
31.921051
 20
72.064030
 30
0.0
 10
28.091128
 20
70.826356
 30
0.0
 10
24.255466
 20
69.399697
 30
0.0
 10
20.799765
 20
67.406434
 30
0.0
  0
SPLINE
  5
17f
100
AcDbEntity
  8
0
 62
7
100
AcDbSpline
 70
8
 71
3
 72
8
 73
4
 74
0
 40
0
 40
0
 40
0
 40
0
 40
1
 40
1
 40
1
 40
1
 10
20.799765
 20
67.406434
 30
0.0
 10
19.377732
 20
66.574773
 30
0.0
 10
18.511152
 20
65.999019
 30
0.0
 10
17.194300
 20
64.996244
 30
0.0
  0
LWPOLYLINE
  5
180
100
AcDbEntity
  8
0
 62
7
100
AcDbPolyline
 90
14
 70
0
 10
108.097797
 20
25.159913
 30
0.0
 10
107.083907
 20
25.428113
 30
0.0
 10
103.853097
 20
26.244601
 30
0.0
 10
100.629007
 20
27.001661
 30
0.0
 10
97.398196
 20
27.698776
 30
0.0
 10
94.167902
 20
28.318893
 30
0.0
 10
90.943292
 20
28.849093
 30
0.0
 10
87.712998
 20
29.284209
 30
0.0
 10
84.482188
 20
29.612354
 30
0.0
 10
81.258094
 20
29.814926
 30
0.0
 10
78.027284
 20
29.886236
 30
0.0
 10
74.796990
 20
29.886236
 30
0.0
 10
71.572380
 20
29.886236
 30
0.0
 10
68.342094
 20
29.814869
 30
0.0
  0
SPLINE
  5
181
100
AcDbEntity
  8
0
 62
7
100
AcDbSpline
 70
8
 71
3
 72
8
 73
4
 74
0
 40
0
 40
0
 40
0
 40
0
 40
1
 40
1
 40
1
 40
1
 10
14.041521
 20
62.384000
 30
0.0
 10
9.965102
 20
58.752571
 30
0.0
 10
7.027272
 20
54.623750
 30
0.0
 10
5.228622
 20
49.433885
 30
0.0
  0
SPLINE
  5
182
100
AcDbEntity
  8
0
 62
7
100
AcDbSpline
 70
8
 71
3
 72
8
 73
4
 74
0
 40
0
 40
0
 40
0
 40
0
 40
1
 40
1
 40
1
 40
1
 10
5.228622
 20
49.433885
 30
0.0
 10
3.794316
 20
45.279219
 30
0.0
 10
3.304008
 20
40.445881
 30
0.0
 10
4.527889
 20
36.085345
 30
0.0
  0
LWPOLYLINE
  5
183
100
AcDbEntity
  8
0
 62
7
100
AcDbPolyline
 90
2
 70
0
 10
17.194300
 20
64.996244
 30
0.0
 10
14.041521
 20
62.384000
 30
0.0
  0
SPLINE
  5
184
100
AcDbEntity
  8
0
 62
7
100
AcDbSpline
 70
8
 71
3
 72
8
 73
4
 74
0
 40
0
 40
0
 40
0
 40
0
 40
1
 40
1
 40
1
 40
1
 10
7.712191
 20
30.083653
 30
0.0
 10
8.970723
 20
28.496447
 30
0.0
 10
10.410250
 20
27.051420
 30
0.0
 10
12.027174
 20
25.840501
 30
0.0
  0
SPLINE
  5
185
100
AcDbEntity
  8
0
 62
7
100
AcDbSpline
 70
8
 71
3
 72
8
 73
4
 74
0
 40
0
 40
0
 40
0
 40
0
 40
1
 40
1
 40
1
 40
1
 10
12.027174
 20
25.840501
 30
0.0
 10
15.177572
 20
23.787561
 30
0.0
 10
19.186120
 20
23.446004
 30
0.0
 10
22.762954
 20
24.069550
 30
0.0
  0
SPLINE
  5
186
100
AcDbEntity
  8
0
 62
7
100
AcDbSpline
 70
8
 71
3
 72
8
 73
4
 74
0
 40
0
 40
0
 40
0
 40
0
 40
1
 40
1
 40
1
 40
1
 10
22.762954
 20
24.069550
 30
0.0
 10
27.236437
 20
24.815058
 30
0.0
 10
35.899103
 20
27.480711
 30
0.0
 10
35.899103
 20
27.480711
 30
0.0
  0
SPLINE
  5
187
100
AcDbEntity
  8
0
 62
7
100
AcDbSpline
 70
8
 71
3
 72
8
 73
4
 74
0
 40
0
 40
0
 40
0
 40
0
 40
1
 40
1
 40
1
 40
1
 10
35.899103
 20
27.480711
 30
0.0
 10
35.899103
 20
27.480711
 30
0.0
 10
38.598879
 20
28.232542
 30
0.0
 10
40.005313
 20
28.601573
 30
0.0
  0
SPLINE
  5
188
100
AcDbEntity
  8
0
 62
7
100
AcDbSpline
 70
8
 71
3
 72
8
 73
4
 74
0
 40
0
 40
0
 40
0
 40
0
 40
1
 40
1
 40
1
 40
1
 10
40.005313
 20
28.601573
 30
0.0
 10
44.251041
 20
29.715598
 30
0.0
 10
48.638410
 20
30.752156
 30
0.0
 10
52.949227
 20
31.579686
 30
0.0
  0
SPLINE
  5
189
100
AcDbEntity
  8
0
 62
7
100
AcDbSpline
 70
8
 71
3
 72
8
 73
4
 74
0
 40
0
 40
0
 40
0
 40
0
 40
1
 40
1
 40
1
 40
1
 10
52.949227
 20
31.579686
 30
0.0
 10
58.688037
 20
32.681344
 30
0.0
 10
64.485928
 20
33.425170
 30
0.0
 10
70.346099
 20
33.533572
 30
0.0
  0
SPLINE
  5
18a
100
AcDbEntity
  8
0
 62
7
100
AcDbSpline
 70
8
 71
3
 72
8
 73
4
 74
0
 40
0
 40
0
 40
0
 40
0
 40
1
 40
1
 40
1
 40
1
 10
70.346099
 20
33.533572
 30
0.0
 10
78.534845
 20
33.734221
 30
0.0
 10
86.779609
 20
33.459912
 30
0.0
 10
94.844863
 20
31.934703
 30
0.0
  0
SPLINE
  5
18b
100
AcDbEntity
  8
0
 62
7
100
AcDbSpline
 70
8
 71
3
 72
8
 73
4
 74
0
 40
0
 40
0
 40
0
 40
0
 40
1
 40
1
 40
1
 40
1
 10
94.844863
 20
31.934703
 30
0.0
 10
100.014037
 20
31.002244
 30
0.0
 10
104.619667
 20
29.896389
 30
0.0
 10
109.693567
 20
28.555064
 30
0.0
  0
SPLINE
  5
18c
100
AcDbEntity
  8
0
 62
7
100
AcDbSpline
 70
8
 71
3
 72
8
 73
4
 74
0
 40
0
 40
0
 40
0
 40
0
 40
1
 40
1
 40
1
 40
1
 10
109.693567
 20
28.555064
 30
0.0
 10
109.938007
 20
28.490444
 30
0.0
 10
110.642697
 20
28.317836
 30
0.0
 10
110.885747
 20
28.248106
 30
0.0
  0
SPLINE
  5
18d
100
AcDbEntity
  8
0
 62
7
100
AcDbSpline
 70
8
 71
3
 72
8
 73
4
 74
0
 40
0
 40
0
 40
0
 40
0
 40
1
 40
1
 40
1
 40
1
 10
110.885747
 20
28.248106
 30
0.0
 10
112.262818
 20
27.853036
 30
0.0
 10
114.833418
 20
27.168728
 30
0.0
 10
115.423458
 20
26.996503
 30
0.0
  0
SPLINE
  5
18e
100
AcDbEntity
  8
0
 62
7
100
AcDbSpline
 70
8
 71
3
 72
8
 73
4
 74
0
 40
0
 40
0
 40
0
 40
0
 40
1
 40
1
 40
1
 40
1
 10
115.423458
 20
26.996503
 30
0.0
 10
118.725468
 20
26.032690
 30
0.0
 10
122.064288
 20
25.199636
 30
0.0
 10
125.400108
 20
24.368240
 30
0.0
  0
SPLINE
  5
18f
100
AcDbEntity
  8
0
 62
7
100
AcDbSpline
 70
8
 71
3
 72
8
 73
4
 74
0
 40
0
 40
0
 40
0
 40
0
 40
1
 40
1
 40
1
 40
1
 10
125.400108
 20
24.368240
 30
0.0
 10
129.291629
 20
23.408288
 30
0.0
 10
133.640099
 20
23.504581
 30
0.0
 10
137.152359
 20
25.617259
 30
0.0
  0
SPLINE
  5
190
100
AcDbEntity
  8
0
 62
7
100
AcDbSpline
 70
8
 71
3
 72
8
 73
4
 74
0
 40
0
 40
0
 40
0
 40
0
 40
1
 40
1
 40
1
 40
1
 10
137.152359
 20
25.617259
 30
0.0
 10
139.280189
 20
26.848165
 30
0.0
 10
140.853829
 20
28.795995
 30
0.0
 10
142.381500
 20
30.675865
 30
0.0
  0
SPLINE
  5
191
100
AcDbEntity
  8
0
 62
7
100
AcDbSpline
 70
8
 71
3
 72
8
 73
4
 74
0
 40
0
 40
0
 40
0
 40
0
 40
1
 40
1
 40
1
 40
1
 10
142.381500
 20
30.675865
 30
0.0
 10
144.225830
 20
33.057426
 30
0.0
 10
145.408160
 20
35.938745
 30
0.0
 10
145.662440
 20
38.947196
 30
0.0
  0
SPLINE
  5
192
100
AcDbEntity
  8
0
 62
7
100
AcDbSpline
 70
8
 71
3
 72
8
 73
4
 74
0
 40
0
 40
0
 40
0
 40
0
 40
1
 40
1
 40
1
 40
1
 10
145.662440
 20
38.947196
 30
0.0
 10
146.433040
 20
45.960892
 30
0.0
 10
143.699520
 20
52.990219
 30
0.0
 10
139.357399
 20
58.415259
 30
0.0
  0
SPLINE
  5
193
100
AcDbEntity
  8
0
 62
7
100
AcDbSpline
 70
8
 71
3
 72
8
 73
4
 74
0
 40
0
 40
0
 40
0
 40
0
 40
1
 40
1
 40
1
 40
1
 10
139.357399
 20
58.415259
 30
0.0
 10
136.878199
 20
61.531500
 30
0.0
 10
133.897949
 20
64.192114
 30
0.0
 10
130.548109
 20
66.314519
 30
0.0
  0
SPLINE
  5
194
100
AcDbEntity
  8
0
 62
7
100
AcDbSpline
 70
8
 71
3
 72
8
 73
4
 74
0
 40
0
 40
0
 40
0
 40
0
 40
1
 40
1
 40
1
 40
1
 10
130.548109
 20
66.314519
 30
0.0
 10
130.033159
 20
66.640780
 30
0.0
 10
127.596739
 20
68.010588
 30
0.0
 10
126.403148
 20
68.708172
 30
0.0
  0
SPLINE
  5
195
100
AcDbEntity
  8
0
 62
7
100
AcDbSpline
 70
8
 71
3
 72
8
 73
4
 74
0
 40
0
 40
0
 40
0
 40
0
 40
1
 40
1
 40
1
 40
1
 10
126.403148
 20
68.708172
 30
0.0
 10
124.308038
 20
69.941545
 30
0.0
 10
122.425548
 20
70.509288
 30
0.0
 10
120.124458
 20
71.263055
 30
0.0
  0
SPLINE
  5
196
100
AcDbEntity
  8
0
 62
7
100
AcDbSpline
 70
8
 71
3
 72
8
 73
4
 74
0
 40
0
 40
0
 40
0
 40
0
 40
1
 40
1
 40
1
 40
1
 10
120.124458
 20
71.263055
 30
0.0
 10
110.527977
 20
74.559429
 30
0.0
 10
100.573177
 20
76.700006
 30
0.0
 10
90.535565
 20
77.891065
 30
0.0
  0
SPLINE
  5
197
100
AcDbEntity
  8
0
 62
7
100
AcDbSpline
 70
8
 71
3
 72
8
 73
4
 74
0
 40
0
 40
0
 40
0
 40
0
 40
1
 40
1
 40
1
 40
1
 10
90.535565
 20
77.891065
 30
0.0
 10
85.922873
 20
78.435485
 30
0.0
 10
81.355414
 20
78.713495
 30
0.0
 10
76.724004
 20
78.781450
 30
0.0
  0
SPLINE
  5
198
100
AcDbEntity
  8
0
 62
7
100
AcDbSpline
 70
8
 71
3
 72
8
 73
4
 74
0
 40
0
 40
0
 40
0
 40
0
 40
1
 40
1
 40
1
 40
1
 10
76.724004
 20
78.781450
 30
0.0
 10
75.265505
 20
78.796015
 30
0.0
 10
73.823329
 20
78.800408
 30
0.0
 10
72.509274
 20
78.807288
 30
0.0
  0
LWPOLYLINE
  5
199
100
AcDbEntity
  8
0
 62
7
100
AcDbPolyline
 90
18
 70
0
 10
4.527889
 20
36.085345
 30
0.0
 10
4.301030
 20
35.808876
 30
0.0
 10
4.039030
 20
35.320017
 30
0.0
 10
3.961515
 20
35.164988
 30
0.0
 10
3.747058
 20
34.474074
 30
0.0
 10
3.675228
 20
33.752671
 30
0.0
 10
3.747058
 20
33.031268
 30
0.0
 10
3.961515
 20
32.334153
 30
0.0
 10
4.039030
 20
32.185325
 30
0.0
 10
4.301030
 20
31.696466
 30
0.0
 10
4.759917
 20
31.136293
 30
0.0
 10
5.159375
 20
30.808148
 30
0.0
 10
5.320606
 20
30.671205
 30
0.0
 10
5.963977
 20
30.331174
 30
0.0
 10
6.399093
 20
30.200433
 30
0.0
 10
6.655408
 20
30.122923
 30
0.0
 10
7.376811
 20
30.051093
 30
0.0
 10
7.712191
 20
30.083653
 30
0.0
  0
LWPOLYLINE
  5
19a
100
AcDbEntity
  8
0
 62
7
100
AcDbPolyline
 90
1
 70
1
 10
72.509274
 20
78.807288
 30
0.0
  0
SPLINE
  5
19b
100
AcDbEntity
  8
0
 62
7
100
AcDbSpline
 70
8
 71
3
 72
8
 73
4
 74
0
 40
0
 40
0
 40
0
 40
0
 40
1
 40
1
 40
1
 40
1
 10
114.810148
 20
23.339301
 30
0.0
 10
115.030858
 20
23.224128
 30
0.0
 10
115.259788
 20
23.118598
 30
0.0
 10
115.465398
 20
22.987384
 30
0.0
  0
SPLINE
  5
19c
100
AcDbEntity
  8
0
 62
7
100
AcDbSpline
 70
8
 71
3
 72
8
 73
4
 74
0
 40
0
 40
0
 40
0
 40
0
 40
1
 40
1
 40
1
 40
1
 10
115.465398
 20
22.987384
 30
0.0
 10
115.554398
 20
22.930574
 30
0.0
 10
115.628278
 20
22.860136
 30
0.0
 10
115.714478
 20
22.800316
 30
0.0
  0
LWPOLYLINE
  5
19d
100
AcDbEntity
  8
0
 62
7
100
AcDbPolyline
 90
61
 70
0
 10
74.796990
 20
82.521274
 30
0.0
 10
78.027284
 20
82.521274
 30
0.0
 10
81.329408
 20
82.449960
 30
0.0
 10
84.887848
 20
82.229302
 30
0.0
 10
88.648859
 20
81.877902
 30
0.0
 10
89.113430
 20
81.824159
 30
0.0
 10
92.534926
 20
81.412814
 30
0.0
 10
96.492307
 20
80.840756
 30
0.0
 10
100.420237
 20
80.184982
 30
0.0
 10
104.252557
 20
79.457895
 30
0.0
 10
107.900397
 20
78.677064
 30
0.0
 10
108.639367
 20
78.498263
 30
0.0
 10
111.291917
 20
77.860576
 30
0.0
 10
114.361498
 20
77.014116
 30
0.0
 10
117.156678
 20
76.155770
 30
0.0
 10
119.773058
 20
75.285539
 30
0.0
 10
120.542008
 20
75.017339
 30
0.0
 10
120.953348
 20
74.874195
 30
0.0
 10
122.282468
 20
74.415308
 30
0.0
 10
124.773788
 20
73.545077
 30
0.0
 10
126.574198
 20
72.806104
 30
0.0
 10
128.409739
 20
71.947758
 30
0.0
 10
130.305229
 20
70.881157
 30
0.0
 10
132.278019
 20
69.635190
 30
0.0
 10
132.284019
 20
69.635190
 30
0.0
 10
134.346419
 20
68.234759
 30
0.0
 10
136.384539
 20
66.690666
 30
0.0
 10
138.321889
 20
65.015833
 30
0.0
 10
140.139869
 20
63.215943
 30
0.0
 10
141.838469
 20
61.308566
 30
0.0
 10
143.387730
 20
59.300419
 30
0.0
 10
144.782480
 20
57.208041
 30
0.0
 10
146.016510
 20
55.044348
 30
0.0
 10
147.077430
 20
52.809343
 30
0.0
 10
147.959540
 20
50.532478
 30
0.0
 10
148.644770
 20
48.214273
 30
0.0
 10
149.145520
 20
45.925524
 30
0.0
 10
149.145520
 20
45.919324
 30
0.0
 10
149.443690
 20
43.666232
 30
0.0
 10
149.544980
 20
41.407455
 30
0.0
 10
149.443690
 20
39.166248
 30
0.0
 10
149.145520
 20
36.955012
 30
0.0
 10
148.644770
 20
34.803722
 30
0.0
 10
147.959540
 20
32.723229
 30
0.0
 10
147.512540
 20
31.746028
 30
0.0
 10
146.016510
 20
29.284163
 30
0.0
 10
144.782480
 20
27.734386
 30
0.0
 10
143.387730
 20
26.095727
 30
0.0
 10
141.838469
 20
24.492207
 30
0.0
 10
140.139869
 20
22.996174
 30
0.0
 10
138.321889
 20
21.893398
 30
0.0
 10
136.384539
 20
21.106883
 30
0.0
 10
134.346419
 20
20.528624
 30
0.0
 10
132.224589
 20
20.176707
 30
0.0
 10
130.037119
 20
20.045966
 30
0.0
 10
127.795919
 20
20.141046
 30
0.0
 10
125.519048
 20
20.457305
 30
0.0
 10
123.224098
 20
20.987505
 30
0.0
 10
119.993808
 20
21.887709
 30
0.0
 10
116.769198
 20
22.793598
 30
0.0
 10
114.810148
 20
23.339301
 30
0.0
  0
SPLINE
  5
19e
100
AcDbEntity
  8
0
 62
7
100
AcDbSpline
 70
8
 71
3
 72
8
 73
4
 74
0
 40
0
 40
0
 40
0
 40
0
 40
1
 40
1
 40
1
 40
1
 10
117.877138
 20
20.151898
 30
0.0
 10
118.084568
 20
19.637851
 30
0.0
 10
118.266378
 20
19.116639
 30
0.0
 10
118.414058
 20
18.590236
 30
0.0
  0
SPLINE
  5
19f
100
AcDbEntity
  8
0
 62
7
100
AcDbSpline
 70
8
 71
3
 72
8
 73
4
 74
0
 40
0
 40
0
 40
0
 40
0
 40
1
 40
1
 40
1
 40
1
 10
118.414058
 20
18.590236
 30
0.0
 10
118.456758
 20
18.438296
 30
0.0
 10
118.471058
 20
18.282607
 30
0.0
 10
118.501358
 20
18.128765
 30
0.0
  0
SPLINE
  5
1a0
100
AcDbEntity
  8
0
 62
7
100
AcDbSpline
 70
8
 71
3
 72
8
 73
4
 74
0
 40
0
 40
0
 40
0
 40
0
 40
1
 40
1
 40
1
 40
1
 10
118.501358
 20
18.128765
 30
0.0
 10
118.542258
 20
17.920370
 30
0.0
 10
118.582358
 20
17.711139
 30
0.0
 10
118.628998
 20
17.503480
 30
0.0
  0
SPLINE
  5
1a1
100
AcDbEntity
  8
0
 62
7
100
AcDbSpline
 70
8
 71
3
 72
8
 73
4
 74
0
 40
0
 40
0
 40
0
 40
0
 40
1
 40
1
 40
1
 40
1
 10
118.628998
 20
17.503480
 30
0.0
 10
118.665898
 20
17.338563
 30
0.0
 10
118.706198
 20
17.174436
 30
0.0
 10
118.749408
 20
17.010487
 30
0.0
  0
SPLINE
  5
1a2
100
AcDbEntity
  8
0
 62
7
100
AcDbSpline
 70
8
 71
3
 72
8
 73
4
 74
0
 40
0
 40
0
 40
0
 40
0
 40
1
 40
1
 40
1
 40
1
 10
118.749408
 20
17.010487
 30
0.0
 10
118.786608
 20
16.868339
 30
0.0
 10
118.826908
 20
16.726958
 30
0.0
 10
118.869298
 20
16.585707
 30
0.0
  0
SPLINE
  5
1a3
100
AcDbEntity
  8
0
 62
7
100
AcDbSpline
 70
8
 71
3
 72
8
 73
4
 74
0
 40
0
 40
0
 40
0
 40
0
 40
1
 40
1
 40
1
 40
1
 10
118.869298
 20
16.585707
 30
0.0
 10
118.911398
 20
16.445335
 30
0.0
 10
118.954998
 20
16.304827
 30
0.0
 10
119.002628
 20
16.165578
 30
0.0
  0
SPLINE
  5
1a4
100
AcDbEntity
  8
0
 62
7
100
AcDbSpline
 70
8
 71
3
 72
8
 73
4
 74
0
 40
0
 40
0
 40
0
 40
0
 40
1
 40
1
 40
1
 40
1
 10
119.002628
 20
16.165578
 30
0.0
 10
119.056728
 20
16.007387
 30
0.0
 10
119.109538
 20
15.848962
 30
0.0
 10
119.175738
 20
15.693772
 30
0.0
  0
SPLINE
  5
1a5
100
AcDbEntity
  8
0
 62
7
100
AcDbSpline
 70
8
 71
3
 72
8
 73
4
 74
0
 40
0
 40
0
 40
0
 40
0
 40
1
 40
1
 40
1
 40
1
 10
119.175738
 20
15.693772
 30
0.0
 10
119.246338
 20
15.528557
 30
0.0
 10
119.320198
 20
15.362723
 30
0.0
 10
119.414998
 20
15.205429
 30
0.0
  0
SPLINE
  5
1a6
100
AcDbEntity
  8
0
 62
7
100
AcDbSpline
 70
8
 71
3
 72
8
 73
4
 74
0
 40
0
 40
0
 40
0
 40
0
 40
1
 40
1
 40
1
 40
1
 10
119.414998
 20
15.205429
 30
0.0
 10
119.512598
 20
15.043647
 30
0.0
 10
119.618168
 20
14.883614
 30
0.0
 10
119.752968
 20
14.739825
 30
0.0
  0
SPLINE
  5
1a7
100
AcDbEntity
  8
0
 62
7
100
AcDbSpline
 70
8
 71
3
 72
8
 73
4
 74
0
 40
0
 40
0
 40
0
 40
0
 40
1
 40
1
 40
1
 40
1
 10
119.752968
 20
14.739825
 30
0.0
 10
119.911948
 20
14.570268
 30
0.0
 10
120.098978
 20
14.415558
 30
0.0
 10
120.301768
 20
14.278871
 30
0.0
  0
SPLINE
  5
1a8
100
AcDbEntity
  8
0
 62
7
100
AcDbSpline
 70
8
 71
3
 72
8
 73
4
 74
0
 40
0
 40
0
 40
0
 40
0
 40
1
 40
1
 40
1
 40
1
 10
120.301768
 20
14.278871
 30
0.0
 10
120.561228
 20
14.103983
 30
0.0
 10
120.846058
 20
13.950766
 30
0.0
 10
121.147198
 20
13.825152
 30
0.0
  0
SPLINE
  5
1a9
100
AcDbEntity
  8
0
 62
7
100
AcDbSpline
 70
8
 71
3
 72
8
 73
4
 74
0
 40
0
 40
0
 40
0
 40
0
 40
1
 40
1
 40
1
 40
1
 10
121.147198
 20
13.825152
 30
0.0
 10
121.513208
 20
13.672475
 30
0.0
 10
121.902288
 20
13.549668
 30
0.0
 10
122.302168
 20
13.466518
 30
0.0
  0
SPLINE
  5
1aa
100
AcDbEntity
  8
0
 62
7
100
AcDbSpline
 70
8
 71
3
 72
8
 73
4
 74
0
 40
0
 40
0
 40
0
 40
0
 40
1
 40
1
 40
1
 40
1
 10
122.302168
 20
13.466518
 30
0.0
 10
122.763908
 20
13.370538
 30
0.0
 10
123.244028
 20
13.335578
 30
0.0
 10
123.720168
 20
13.308388
 30
0.0
  0
SPLINE
  5
1ab
100
AcDbEntity
  8
0
 62
7
100
AcDbSpline
 70
8
 71
3
 72
8
 73
4
 74
0
 40
0
 40
0
 40
0
 40
0
 40
1
 40
1
 40
1
 40
1
 10
123.720168
 20
13.308388
 30
0.0
 10
124.248418
 20
13.278088
 30
0.0
 10
124.779138
 20
13.294388
 30
0.0
 10
125.308698
 20
13.303188
 30
0.0
  0
SPLINE
  5
1ac
100
AcDbEntity
  8
0
 62
7
100
AcDbSpline
 70
8
 71
3
 72
8
 73
4
 74
0
 40
0
 40
0
 40
0
 40
0
 40
1
 40
1
 40
1
 40
1
 10
125.308698
 20
13.303188
 30
0.0
 10
125.860728
 20
13.312888
 30
0.0
 10
126.411908
 20
13.354878
 30
0.0
 10
126.963898
 20
13.366748
 30
0.0
  0
SPLINE
  5
1ad
100
AcDbEntity
  8
0
 62
7
100
AcDbSpline
 70
8
 71
3
 72
8
 73
4
 74
0
 40
0
 40
0
 40
0
 40
0
 40
1
 40
1
 40
1
 40
1
 10
126.963898
 20
13.366748
 30
0.0
 10
127.499989
 20
13.377548
 30
0.0
 10
128.037859
 20
13.403648
 30
0.0
 10
128.572579
 20
13.371948
 30
0.0
  0
SPLINE
  5
1ae
100
AcDbEntity
  8
0
 62
7
100
AcDbSpline
 70
8
 71
3
 72
8
 73
4
 74
0
 40
0
 40
0
 40
0
 40
0
 40
1
 40
1
 40
1
 40
1
 10
128.572579
 20
13.371948
 30
0.0
 10
129.062909
 20
13.342878
 30
0.0
 10
129.554909
 20
13.294628
 30
0.0
 10
130.029859
 20
13.193664
 30
0.0
  0
SPLINE
  5
1af
100
AcDbEntity
  8
0
 62
7
100
AcDbSpline
 70
8
 71
3
 72
8
 73
4
 74
0
 40
0
 40
0
 40
0
 40
0
 40
1
 40
1
 40
1
 40
1
 10
130.029859
 20
13.193664
 30
0.0
 10
130.181639
 20
13.161394
 30
0.0
 10
130.320119
 20
13.098904
 30
0.0
 10
130.469629
 20
13.058272
 30
0.0
  0
LWPOLYLINE
  5
1b0
100
AcDbEntity
  8
0
 62
7
100
AcDbPolyline
 90
2
 70
0
 10
115.714478
 20
22.800316
 30
0.0
 10
117.877138
 20
20.151898
 30
0.0
  0
SPLINE
  5
1b1
100
AcDbEntity
  8
0
 62
7
100
AcDbSpline
 70
8
 71
3
 72
8
 73
4
 74
0
 40
0
 40
0
 40
0
 40
0
 40
1
 40
1
 40
1
 40
1
 10
132.814699
 20
10.186612
 30
0.0
 10
132.645489
 20
9.055161
 30
0.0
 10
131.597719
 20
8.441499
 30
0.0
 10
131.597719
 20
8.441499
 30
0.0
  0
SPLINE
  5
1b2
100
AcDbEntity
  8
0
 62
7
100
AcDbSpline
 70
8
 71
3
 72
8
 73
4
 74
0
 40
0
 40
0
 40
0
 40
0
 40
1
 40
1
 40
1
 40
1
 10
131.597719
 20
8.441499
 30
0.0
 10
131.553219
 20
8.419429
 30
0.0
 10
131.516319
 20
8.390479
 30
0.0
 10
131.470599
 20
8.371219
 30
0.0
  0
SPLINE
  5
1b3
100
AcDbEntity
  8
0
 62
7
100
AcDbSpline
 70
8
 71
3
 72
8
 73
4
 74
0
 40
0
 40
0
 40
0
 40
0
 40
1
 40
1
 40
1
 40
1
 10
131.470599
 20
8.371219
 30
0.0
 10
131.227039
 20
8.268342
 30
0.0
 10
130.963049
 20
8.196447
 30
0.0
 10
130.699589
 20
8.131957
 30
0.0
  0
SPLINE
  5
1b4
100
AcDbEntity
  8
0
 62
7
100
AcDbSpline
 70
8
 71
3
 72
8
 73
4
 74
0
 40
0
 40
0
 40
0
 40
0
 40
1
 40
1
 40
1
 40
1
 10
130.699589
 20
8.131957
 30
0.0
 10
130.382949
 20
8.054457
 30
0.0
 10
130.059759
 20
7.991234
 30
0.0
 10
129.731689
 20
7.955224
 30
0.0
  0
SPLINE
  5
1b5
100
AcDbEntity
  8
0
 62
7
100
AcDbSpline
 70
8
 71
3
 72
8
 73
4
 74
0
 40
0
 40
0
 40
0
 40
0
 40
1
 40
1
 40
1
 40
1
 10
129.731689
 20
7.955224
 30
0.0
 10
129.341519
 20
7.912354
 30
0.0
 10
128.944859
 20
7.897844
 30
0.0
 10
128.551399
 20
7.909754
 30
0.0
  0
SPLINE
  5
1b6
100
AcDbEntity
  8
0
 62
7
100
AcDbSpline
 70
8
 71
3
 72
8
 73
4
 74
0
 40
0
 40
0
 40
0
 40
0
 40
1
 40
1
 40
1
 40
1
 10
128.551399
 20
7.909754
 30
0.0
 10
128.090779
 20
7.923694
 30
0.0
 10
127.632339
 20
7.979124
 30
0.0
 10
127.179389
 20
8.046696
 30
0.0
  0
SPLINE
  5
1b7
100
AcDbEntity
  8
0
 62
7
100
AcDbSpline
 70
8
 71
3
 72
8
 73
4
 74
0
 40
0
 40
0
 40
0
 40
0
 40
1
 40
1
 40
1
 40
1
 10
127.179389
 20
8.046696
 30
0.0
 10
126.698038
 20
8.118456
 30
0.0
 10
126.222448
 20
8.215139
 30
0.0
 10
125.754668
 20
8.330400
 30
0.0
  0
SPLINE
  5
1b8
100
AcDbEntity
  8
0
 62
7
100
AcDbSpline
 70
8
 71
3
 72
8
 73
4
 74
0
 40
0
 40
0
 40
0
 40
0
 40
1
 40
1
 40
1
 40
1
 10
125.754668
 20
8.330400
 30
0.0
 10
125.306398
 20
8.440846
 30
0.0
 10
124.866558
 20
8.575205
 30
0.0
 10
124.434338
 20
8.720557
 30
0.0
  0
SPLINE
  5
1b9
100
AcDbEntity
  8
0
 62
7
100
AcDbSpline
 70
8
 71
3
 72
8
 73
4
 74
0
 40
0
 40
0
 40
0
 40
0
 40
1
 40
1
 40
1
 40
1
 10
124.434338
 20
8.720557
 30
0.0
 10
124.027958
 20
8.857205
 30
0.0
 10
123.631738
 20
9.012405
 30
0.0
 10
123.239578
 20
9.173243
 30
0.0
  0
SPLINE
  5
1ba
100
AcDbEntity
  8
0
 62
7
100
AcDbSpline
 70
8
 71
3
 72
8
 73
4
 74
0
 40
0
 40
0
 40
0
 40
0
 40
1
 40
1
 40
1
 40
1
 10
123.239578
 20
9.173243
 30
0.0
 10
122.868018
 20
9.325638
 30
0.0
 10
122.507318
 20
9.494188
 30
0.0
 10
122.143518
 20
9.657967
 30
0.0
  0
SPLINE
  5
1bb
100
AcDbEntity
  8
0
 62
7
100
AcDbSpline
 70
8
 71
3
 72
8
 73
4
 74
0
 40
0
 40
0
 40
0
 40
0
 40
1
 40
1
 40
1
 40
1
 10
122.143518
 20
9.657967
 30
0.0
 10
121.785388
 20
9.819191
 30
0.0
 10
121.434088
 20
9.989695
 30
0.0
 10
121.073818
 20
10.147860
 30
0.0
  0
SPLINE
  5
1bc
100
AcDbEntity
  8
0
 62
7
100
AcDbSpline
 70
8
 71
3
 72
8
 73
4
 74
0
 40
0
 40
0
 40
0
 40
0
 40
1
 40
1
 40
1
 40
1
 10
121.073818
 20
10.147860
 30
0.0
 10
120.705528
 20
10.309549
 30
0.0
 10
120.330338
 20
10.461198
 30
0.0
 10
119.958118
 20
10.617082
 30
0.0
  0
SPLINE
  5
1bd
100
AcDbEntity
  8
0
 62
7
100
AcDbSpline
 70
8
 71
3
 72
8
 73
4
 74
0
 40
0
 40
0
 40
0
 40
0
 40
1
 40
1
 40
1
 40
1
 10
119.958118
 20
10.617082
 30
0.0
 10
119.575418
 20
10.777313
 30
0.0
 10
119.189038
 20
10.932215
 30
0.0
 10
118.808838
 20
11.096123
 30
0.0
  0
SPLINE
  5
1be
100
AcDbEntity
  8
0
 62
7
100
AcDbSpline
 70
8
 71
3
 72
8
 73
4
 74
0
 40
0
 40
0
 40
0
 40
0
 40
1
 40
1
 40
1
 40
1
 10
118.808838
 20
11.096123
 30
0.0
 10
118.427428
 20
11.260553
 30
0.0
 10
118.042558
 20
11.421261
 30
0.0
 10
117.672988
 20
11.602035
 30
0.0
  0
SPLINE
  5
1bf
100
AcDbEntity
  8
0
 62
7
100
AcDbSpline
 70
8
 71
3
 72
8
 73
4
 74
0
 40
0
 40
0
 40
0
 40
0
 40
1
 40
1
 40
1
 40
1
 10
117.672988
 20
11.602035
 30
0.0
 10
117.322618
 20
11.773415
 30
0.0
 10
116.973718
 20
11.948638
 30
0.0
 10
116.649278
 20
12.149805
 30
0.0
  0
SPLINE
  5
1c0
100
AcDbEntity
  8
0
 62
7
100
AcDbSpline
 70
8
 71
3
 72
8
 73
4
 74
0
 40
0
 40
0
 40
0
 40
0
 40
1
 40
1
 40
1
 40
1
 10
116.649278
 20
12.149805
 30
0.0
 10
116.359688
 20
12.329350
 30
0.0
 10
116.077258
 20
12.520057
 30
0.0
 10
115.829688
 20
12.735816
 30
0.0
  0
SPLINE
  5
1c1
100
AcDbEntity
  8
0
 62
7
100
AcDbSpline
 70
8
 71
3
 72
8
 73
4
 74
0
 40
0
 40
0
 40
0
 40
0
 40
1
 40
1
 40
1
 40
1
 10
115.829688
 20
12.735816
 30
0.0
 10
115.608308
 20
12.928742
 30
0.0
 10
115.401638
 20
13.135947
 30
0.0
 10
115.240578
 20
13.363684
 30
0.0
  0
SPLINE
  5
1c2
100
AcDbEntity
  8
0
 62
7
100
AcDbSpline
 70
8
 71
3
 72
8
 73
4
 74
0
 40
0
 40
0
 40
0
 40
0
 40
1
 40
1
 40
1
 40
1
 10
115.240578
 20
13.363684
 30
0.0
 10
115.093048
 20
13.572311
 30
0.0
 10
114.985418
 20
13.799518
 30
0.0
 10
114.902618
 20
14.029794
 30
0.0
  0
SPLINE
  5
1c3
100
AcDbEntity
  8
0
 62
7
100
AcDbSpline
 70
8
 71
3
 72
8
 73
4
 74
0
 40
0
 40
0
 40
0
 40
0
 40
1
 40
1
 40
1
 40
1
 10
114.902618
 20
14.029794
 30
0.0
 10
114.820418
 20
14.258548
 30
0.0
 10
114.779598
 20
14.496431
 30
0.0
 10
114.748098
 20
14.733110
 30
0.0
  0
SPLINE
  5
1c4
100
AcDbEntity
  8
0
 62
7
100
AcDbSpline
 70
8
 71
3
 72
8
 73
4
 74
0
 40
0
 40
0
 40
0
 40
0
 40
1
 40
1
 40
1
 40
1
 10
114.748098
 20
14.733110
 30
0.0
 10
114.714998
 20
14.978725
 30
0.0
 10
114.715998
 20
15.226104
 30
0.0
 10
114.712998
 20
15.473116
 30
0.0
  0
SPLINE
  5
1c5
100
AcDbEntity
  8
0
 62
7
100
AcDbSpline
 70
8
 71
3
 72
8
 73
4
 74
0
 40
0
 40
0
 40
0
 40
0
 40
1
 40
1
 40
1
 40
1
 10
114.712998
 20
15.473116
 30
0.0
 10
114.708998
 20
15.730533
 30
0.0
 10
114.729098
 20
15.988256
 30
0.0
 10
114.730098
 20
16.245679
 30
0.0
  0
SPLINE
  5
1c6
100
AcDbEntity
  8
0
 62
7
100
AcDbSpline
 70
8
 71
3
 72
8
 73
4
 74
0
 40
0
 40
0
 40
0
 40
0
 40
1
 40
1
 40
1
 40
1
 10
114.730098
 20
16.245679
 30
0.0
 10
114.730498
 20
16.510059
 30
0.0
 10
114.735098
 20
16.774841
 30
0.0
 10
114.720098
 20
17.038912
 30
0.0
  0
SPLINE
  5
1c7
100
AcDbEntity
  8
0
 62
7
100
AcDbSpline
 70
8
 71
3
 72
8
 73
4
 74
0
 40
0
 40
0
 40
0
 40
0
 40
1
 40
1
 40
1
 40
1
 10
114.720098
 20
17.038912
 30
0.0
 10
114.705098
 20
17.296847
 30
0.0
 10
114.683698
 20
17.554798
 30
0.0
 10
114.638498
 20
17.810441
 30
0.0
  0
SPLINE
  5
1c8
100
AcDbEntity
  8
0
 62
7
100
AcDbSpline
 70
8
 71
3
 72
8
 73
4
 74
0
 40
0
 40
0
 40
0
 40
0
 40
1
 40
1
 40
1
 40
1
 10
114.638498
 20
17.810441
 30
0.0
 10
114.595398
 20
18.054181
 30
0.0
 10
114.542298
 20
18.298152
 30
0.0
 10
114.458148
 20
18.534945
 30
0.0
  0
SPLINE
  5
1c9
100
AcDbEntity
  8
0
 62
7
100
AcDbSpline
 70
8
 71
3
 72
8
 73
4
 74
0
 40
0
 40
0
 40
0
 40
0
 40
1
 40
1
 40
1
 40
1
 10
114.458148
 20
18.534945
 30
0.0
 10
114.378448
 20
18.759251
 30
0.0
 10
114.277468
 20
18.979369
 30
0.0
 10
114.152738
 20
19.190202
 30
0.0
  0
SPLINE
  5
1ca
100
AcDbEntity
  8
0
 62
7
100
AcDbSpline
 70
8
 71
3
 72
8
 73
4
 74
0
 40
0
 40
0
 40
0
 40
0
 40
1
 40
1
 40
1
 40
1
 10
114.152738
 20
19.190202
 30
0.0
 10
114.030708
 20
19.396555
 30
0.0
 10
113.894808
 20
19.600423
 30
0.0
 10
113.722278
 20
19.782414
 30
0.0
  0
SPLINE
  5
1cb
100
AcDbEntity
  8
0
 62
7
100
AcDbSpline
 70
8
 71
3
 72
8
 73
4
 74
0
 40
0
 40
0
 40
0
 40
0
 40
1
 40
1
 40
1
 40
1
 10
113.722278
 20
19.782414
 30
0.0
 10
113.536958
 20
19.977922
 30
0.0
 10
113.318718
 20
20.156166
 30
0.0
 10
113.080458
 20
20.311064
 30
0.0
  0
SPLINE
  5
1cc
100
AcDbEntity
  8
0
 62
7
100
AcDbSpline
 70
8
 71
3
 72
8
 73
4
 74
0
 40
0
 40
0
 40
0
 40
0
 40
1
 40
1
 40
1
 40
1
 10
113.080458
 20
20.311064
 30
0.0
 10
112.809588
 20
20.487193
 30
0.0
 10
112.510568
 20
20.638269
 30
0.0
 10
112.195757
 20
20.759615
 30
0.0
  0
SPLINE
  5
1cd
100
AcDbEntity
  8
0
 62
7
100
AcDbSpline
 70
8
 71
3
 72
8
 73
4
 74
0
 40
0
 40
0
 40
0
 40
0
 40
1
 40
1
 40
1
 40
1
 10
112.195757
 20
20.759615
 30
0.0
 10
111.862477
 20
20.888091
 30
0.0
 10
111.509317
 20
20.991967
 30
0.0
 10
111.146207
 20
21.050037
 30
0.0
  0
SPLINE
  5
1ce
100
AcDbEntity
  8
0
 62
7
100
AcDbSpline
 70
8
 71
3
 72
8
 73
4
 74
0
 40
0
 40
0
 40
0
 40
0
 40
1
 40
1
 40
1
 40
1
 10
111.146207
 20
21.050037
 30
0.0
 10
110.785697
 20
21.107597
 30
0.0
 10
110.412337
 20
21.119537
 30
0.0
 10
110.044977
 20
21.104297
 30
0.0
  0
SPLINE
  5
1cf
100
AcDbEntity
  8
0
 62
7
100
AcDbSpline
 70
8
 71
3
 72
8
 73
4
 74
0
 40
0
 40
0
 40
0
 40
0
 40
1
 40
1
 40
1
 40
1
 10
110.044977
 20
21.104297
 30
0.0
 10
109.675827
 20
21.088997
 30
0.0
 10
109.306857
 20
21.038567
 30
0.0
 10
108.950987
 20
20.958570
 30
0.0
  0
SPLINE
  5
1d0
100
AcDbEntity
  8
0
 62
7
100
AcDbSpline
 70
8
 71
3
 72
8
 73
4
 74
0
 40
0
 40
0
 40
0
 40
0
 40
1
 40
1
 40
1
 40
1
 10
108.950987
 20
20.958570
 30
0.0
 10
108.609147
 20
20.881730
 30
0.0
 10
108.281697
 20
20.766032
 30
0.0
 10
107.963457
 20
20.640243
 30
0.0
  0
SPLINE
  5
1d1
100
AcDbEntity
  8
0
 62
7
100
AcDbSpline
 70
8
 71
3
 72
8
 73
4
 74
0
 40
0
 40
0
 40
0
 40
0
 40
1
 40
1
 40
1
 40
1
 10
107.963457
 20
20.640243
 30
0.0
 10
107.657027
 20
20.519123
 30
0.0
 10
107.362937
 20
20.376339
 30
0.0
 10
107.080817
 20
20.222181
 30
0.0
  0
SPLINE
  5
1d2
100
AcDbEntity
  8
0
 62
7
100
AcDbSpline
 70
8
 71
3
 72
8
 73
4
 74
0
 40
0
 40
0
 40
0
 40
0
 40
1
 40
1
 40
1
 40
1
 10
107.080817
 20
20.222181
 30
0.0
 10
106.788737
 20
20.062610
 30
0.0
 10
106.505567
 20
19.890939
 30
0.0
 10
106.245727
 20
19.699215
 30
0.0
  0
SPLINE
  5
1d3
100
AcDbEntity
  8
0
 62
7
100
AcDbSpline
 70
8
 71
3
 72
8
 73
4
 74
0
 40
0
 40
0
 40
0
 40
0
 40
1
 40
1
 40
1
 40
1
 10
106.245727
 20
19.699215
 30
0.0
 10
105.957997
 20
19.486875
 30
0.0
 10
105.692297
 20
19.254465
 30
0.0
 10
105.449907
 20
19.008818
 30
0.0
  0
SPLINE
  5
1d4
100
AcDbEntity
  8
0
 62
7
100
AcDbSpline
 70
8
 71
3
 72
8
 73
4
 74
0
 40
0
 40
0
 40
0
 40
0
 40
1
 40
1
 40
1
 40
1
 10
105.449907
 20
19.008818
 30
0.0
 10
105.167877
 20
18.723059
 30
0.0
 10
104.932287
 20
18.410014
 30
0.0
 10
104.688197
 20
18.102930
 30
0.0
  0
SPLINE
  5
1d5
100
AcDbEntity
  8
0
 62
7
100
AcDbSpline
 70
8
 71
3
 72
8
 73
4
 74
0
 40
0
 40
0
 40
0
 40
0
 40
1
 40
1
 40
1
 40
1
 10
104.688197
 20
18.102930
 30
0.0
 10
104.432727
 20
17.781558
 30
0.0
 10
104.206087
 20
17.445900
 30
0.0
 10
103.953357
 20
17.123145
 30
0.0
  0
SPLINE
  5
1d6
100
AcDbEntity
  8
0
 62
7
100
AcDbSpline
 70
8
 71
3
 72
8
 73
4
 74
0
 40
0
 40
0
 40
0
 40
0
 40
1
 40
1
 40
1
 40
1
 10
103.953357
 20
17.123145
 30
0.0
 10
103.719627
 20
16.824637
 30
0.0
 10
103.467887
 20
16.535333
 30
0.0
 10
103.230927
 20
16.238444
 30
0.0
  0
SPLINE
  5
1d7
100
AcDbEntity
  8
0
 62
7
100
AcDbSpline
 70
8
 71
3
 72
8
 73
4
 74
0
 40
0
 40
0
 40
0
 40
0
 40
1
 40
1
 40
1
 40
1
 10
103.230927
 20
16.238444
 30
0.0
 10
103.206327
 20
16.207664
 30
0.0
 10
102.037867
 20
15.214200
 30
0.0
 10
101.572107
 20
14.936198
 30
0.0
  0
SPLINE
  5
1d8
100
AcDbEntity
  8
0
 62
7
100
AcDbSpline
 70
8
 71
3
 72
8
 73
4
 74
0
 40
0
 40
0
 40
0
 40
0
 40
1
 40
1
 40
1
 40
1
 10
101.572107
 20
14.936198
 30
0.0
 10
101.106367
 20
14.658200
 30
0.0
 10
99.909168
 20
14.340369
 30
0.0
 10
99.909168
 20
14.340369
 30
0.0
  0
SPLINE
  5
1d9
100
AcDbEntity
  8
0
 62
7
100
AcDbSpline
 70
8
 71
3
 72
8
 73
4
 74
0
 40
0
 40
0
 40
0
 40
0
 40
1
 40
1
 40
1
 40
1
 10
99.909168
 20
14.340369
 30
0.0
 10
99.632917
 20
14.313379
 30
0.0
 10
99.355068
 20
14.292559
 30
0.0
 10
99.077178
 20
14.280939
 30
0.0
  0
SPLINE
  5
1da
100
AcDbEntity
  8
0
 62
7
100
AcDbSpline
 70
8
 71
3
 72
8
 73
4
 74
0
 40
0
 40
0
 40
0
 40
0
 40
1
 40
1
 40
1
 40
1
 10
99.077178
 20
14.280939
 30
0.0
 10
98.712803
 20
14.265269
 30
0.0
 10
98.347497
 20
14.263669
 30
0.0
 10
97.982671
 20
14.266469
 30
0.0
  0
SPLINE
  5
1db
100
AcDbEntity
  8
0
 62
7
100
AcDbSpline
 70
8
 71
3
 72
8
 73
4
 74
0
 40
0
 40
0
 40
0
 40
0
 40
1
 40
1
 40
1
 40
1
 10
97.982671
 20
14.266469
 30
0.0
 10
97.496615
 20
14.270469
 30
0.0
 10
97.010900
 20
14.283479
 30
0.0
 10
96.525911
 20
14.308839
 30
0.0
  0
SPLINE
  5
1dc
100
AcDbEntity
  8
0
 62
7
100
AcDbSpline
 70
8
 71
3
 72
8
 73
4
 74
0
 40
0
 40
0
 40
0
 40
0
 40
1
 40
1
 40
1
 40
1
 10
96.525911
 20
14.308839
 30
0.0
 10
95.992646
 20
14.336699
 30
0.0
 10
95.459917
 20
14.377449
 30
0.0
 10
94.929626
 20
14.429762
 30
0.0
  0
SPLINE
  5
1dd
100
AcDbEntity
  8
0
 62
7
100
AcDbSpline
 70
8
 71
3
 72
8
 73
4
 74
0
 40
0
 40
0
 40
0
 40
0
 40
1
 40
1
 40
1
 40
1
 10
94.929626
 20
14.429762
 30
0.0
 10
94.410862
 20
14.480972
 30
0.0
 10
93.892493
 20
14.539828
 30
0.0
 10
93.379333
 20
14.618898
 30
0.0
  0
SPLINE
  5
1de
100
AcDbEntity
  8
0
 62
7
100
AcDbSpline
 70
8
 71
3
 72
8
 73
4
 74
0
 40
0
 40
0
 40
0
 40
0
 40
1
 40
1
 40
1
 40
1
 10
93.379333
 20
14.618898
 30
0.0
 10
92.887006
 20
14.694768
 30
0.0
 10
92.397123
 20
14.781683
 30
0.0
 10
91.915340
 20
14.892266
 30
0.0
  0
SPLINE
  5
1df
100
AcDbEntity
  8
0
 62
7
100
AcDbSpline
 70
8
 71
3
 72
8
 73
4
 74
0
 40
0
 40
0
 40
0
 40
0
 40
1
 40
1
 40
1
 40
1
 10
91.915340
 20
14.892266
 30
0.0
 10
91.459374
 20
14.996926
 30
0.0
 10
91.008562
 20
15.118620
 30
0.0
 10
90.568652
 20
15.260202
 30
0.0
  0
SPLINE
  5
1e0
100
AcDbEntity
  8
0
 62
7
100
AcDbSpline
 70
8
 71
3
 72
8
 73
4
 74
0
 40
0
 40
0
 40
0
 40
0
 40
1
 40
1
 40
1
 40
1
 10
90.568652
 20
15.260202
 30
0.0
 10
90.206058
 20
15.376908
 30
0.0
 10
89.844340
 20
15.500354
 30
0.0
 10
89.505668
 20
15.656044
 30
0.0
  0
SPLINE
  5
1e1
100
AcDbEntity
  8
0
 62
7
100
AcDbSpline
 70
8
 71
3
 72
8
 73
4
 74
0
 40
0
 40
0
 40
0
 40
0
 40
1
 40
1
 40
1
 40
1
 10
89.505668
 20
15.656044
 30
0.0
 10
89.277698
 20
15.760864
 30
0.0
 10
89.051477
 20
15.873497
 30
0.0
 10
88.858679
 20
16.016229
 30
0.0
  0
SPLINE
  5
1e2
100
AcDbEntity
  8
0
 62
7
100
AcDbSpline
 70
8
 71
3
 72
8
 73
4
 74
0
 40
0
 40
0
 40
0
 40
0
 40
1
 40
1
 40
1
 40
1
 10
88.858679
 20
16.016229
 30
0.0
 10
88.707676
 20
16.128012
 30
0.0
 10
88.584474
 20
16.262883
 30
0.0
 10
88.468522
 20
16.398634
 30
0.0
  0
SPLINE
  5
1e3
100
AcDbEntity
  8
0
 62
7
100
AcDbSpline
 70
8
 71
3
 72
8
 73
4
 74
0
 40
0
 40
0
 40
0
 40
0
 40
1
 40
1
 40
1
 40
1
 10
88.468522
 20
16.398634
 30
0.0
 10
88.346847
 20
16.541087
 30
0.0
 10
88.245432
 20
16.694330
 30
0.0
 10
88.150712
 20
16.849253
 30
0.0
  0
SPLINE
  5
1e4
100
AcDbEntity
  8
0
 62
7
100
AcDbSpline
 70
8
 71
3
 72
8
 73
4
 74
0
 40
0
 40
0
 40
0
 40
0
 40
1
 40
1
 40
1
 40
1
 10
88.150712
 20
16.849253
 30
0.0
 10
88.054952
 20
17.005824
 30
0.0
 10
87.970364
 20
17.167005
 30
0.0
 10
87.898014
 20
17.331394
 30
0.0
  0
SPLINE
  5
1e5
100
AcDbEntity
  8
0
 62
7
100
AcDbSpline
 70
8
 71
3
 72
8
 73
4
 74
0
 40
0
 40
0
 40
0
 40
0
 40
1
 40
1
 40
1
 40
1
 10
87.898014
 20
17.331394
 30
0.0
 10
87.826284
 20
17.494496
 30
0.0
 10
87.773050
 20
17.662847
 30
0.0
 10
87.718180
 20
17.830071
 30
0.0
  0
SPLINE
  5
1e6
100
AcDbEntity
  8
0
 62
7
100
AcDbSpline
 70
8
 71
3
 72
8
 73
4
 74
0
 40
0
 40
0
 40
0
 40
0
 40
1
 40
1
 40
1
 40
1
 10
87.718180
 20
17.830071
 30
0.0
 10
87.652090
 20
18.031754
 30
0.0
 10
87.600126
 20
18.236255
 30
0.0
 10
87.538346
 20
18.438820
 30
0.0
  0
SPLINE
  5
1e7
100
AcDbEntity
  8
0
 62
7
100
AcDbSpline
 70
8
 71
3
 72
8
 73
4
 74
0
 40
0
 40
0
 40
0
 40
0
 40
1
 40
1
 40
1
 40
1
 10
87.538346
 20
18.438820
 30
0.0
 10
87.456156
 20
18.708609
 30
0.0
 10
87.371941
 20
18.977672
 30
0.0
 10
87.285131
 20
19.246522
 30
0.0
  0
SPLINE
  5
1e8
100
AcDbEntity
  8
0
 62
7
100
AcDbSpline
 70
8
 71
3
 72
8
 73
4
 74
0
 40
0
 40
0
 40
0
 40
0
 40
1
 40
1
 40
1
 40
1
 10
87.285131
 20
19.246522
 30
0.0
 10
87.190071
 20
19.540878
 30
0.0
 10
87.096848
 20
19.835891
 30
0.0
 10
86.992126
 20
20.128122
 30
0.0
  0
SPLINE
  5
1e9
100
AcDbEntity
  8
0
 62
7
100
AcDbSpline
 70
8
 71
3
 72
8
 73
4
 74
0
 40
0
 40
0
 40
0
 40
0
 40
1
 40
1
 40
1
 40
1
 10
86.992126
 20
20.128122
 30
0.0
 10
86.892446
 20
20.405992
 30
0.0
 10
86.791322
 20
20.683900
 30
0.0
 10
86.672766
 20
20.957012
 30
0.0
  0
SPLINE
  5
1ea
100
AcDbEntity
  8
0
 62
7
100
AcDbSpline
 70
8
 71
3
 72
8
 73
4
 74
0
 40
0
 40
0
 40
0
 40
0
 40
1
 40
1
 40
1
 40
1
 10
86.672766
 20
20.957012
 30
0.0
 10
86.552143
 20
21.235002
 30
0.0
 10
86.425272
 20
21.511821
 30
0.0
 10
86.274340
 20
21.780218
 30
0.0
  0
SPLINE
  5
1eb
100
AcDbEntity
  8
0
 62
7
100
AcDbSpline
 70
8
 71
3
 72
8
 73
4
 74
0
 40
0
 40
0
 40
0
 40
0
 40
1
 40
1
 40
1
 40
1
 10
86.274340
 20
21.780218
 30
0.0
 10
86.120111
 20
22.054464
 30
0.0
 10
85.948109
 20
22.322400
 30
0.0
 10
85.757576
 20
22.581720
 30
0.0
  0
SPLINE
  5
1ec
100
AcDbEntity
  8
0
 62
7
100
AcDbSpline
 70
8
 71
3
 72
8
 73
4
 74
0
 40
0
 40
0
 40
0
 40
0
 40
1
 40
1
 40
1
 40
1
 10
85.757576
 20
22.581720
 30
0.0
 10
85.567717
 20
22.840124
 30
0.0
 10
85.358935
 20
23.090660
 30
0.0
 10
85.134875
 20
23.331029
 30
0.0
  0
SPLINE
  5
1ed
100
AcDbEntity
  8
0
 62
7
100
AcDbSpline
 70
8
 71
3
 72
8
 73
4
 74
0
 40
0
 40
0
 40
0
 40
0
 40
1
 40
1
 40
1
 40
1
 10
85.134875
 20
23.331029
 30
0.0
 10
84.912582
 20
23.569501
 30
0.0
 10
84.676734
 20
23.800865
 30
0.0
 10
84.420707
 20
24.016775
 30
0.0
  0
SPLINE
  5
1ee
100
AcDbEntity
  8
0
 62
7
100
AcDbSpline
 70
8
 71
3
 72
8
 73
4
 74
0
 40
0
 40
0
 40
0
 40
0
 40
1
 40
1
 40
1
 40
1
 10
84.420707
 20
24.016775
 30
0.0
 10
84.189181
 20
24.212016
 30
0.0
 10
83.947880
 20
24.402277
 30
0.0
 10
83.680700
 20
24.566095
 30
0.0
  0
SPLINE
  5
1ef
100
AcDbEntity
  8
0
 62
7
100
AcDbSpline
 70
8
 71
3
 72
8
 73
4
 74
0
 40
0
 40
0
 40
0
 40
0
 40
1
 40
1
 40
1
 40
1
 10
83.680700
 20
24.566095
 30
0.0
 10
83.460070
 20
24.701382
 30
0.0
 10
83.226167
 20
24.826946
 30
0.0
 10
82.973767
 20
24.920596
 30
0.0
  0
SPLINE
  5
1f0
100
AcDbEntity
  8
0
 62
7
100
AcDbSpline
 70
8
 71
3
 72
8
 73
4
 74
0
 40
0
 40
0
 40
0
 40
0
 40
1
 40
1
 40
1
 40
1
 10
82.973767
 20
24.920596
 30
0.0
 10
82.735140
 20
25.009166
 30
0.0
 10
82.479328
 20
25.070285
 30
0.0
 10
82.221357
 20
25.112315
 30
0.0
  0
SPLINE
  5
1f1
100
AcDbEntity
  8
0
 62
7
100
AcDbSpline
 70
8
 71
3
 72
8
 73
4
 74
0
 40
0
 40
0
 40
0
 40
0
 40
1
 40
1
 40
1
 40
1
 10
82.221357
 20
25.112315
 30
0.0
 10
81.914220
 20
25.162355
 30
0.0
 10
81.598254
 20
25.171935
 30
0.0
 10
81.284980
 20
25.182595
 30
0.0
  0
SPLINE
  5
1f2
100
AcDbEntity
  8
0
 62
7
100
AcDbSpline
 70
8
 71
3
 72
8
 73
4
 74
0
 40
0
 40
0
 40
0
 40
0
 40
1
 40
1
 40
1
 40
1
 10
81.284980
 20
25.182595
 30
0.0
 10
80.839267
 20
25.197925
 30
0.0
 10
80.392503
 20
25.184295
 30
0.0
 10
79.946560
 20
25.172795
 30
0.0
  0
SPLINE
  5
1f3
100
AcDbEntity
  8
0
 62
7
100
AcDbSpline
 70
8
 71
3
 72
8
 73
4
 74
0
 40
0
 40
0
 40
0
 40
0
 40
1
 40
1
 40
1
 40
1
 10
79.946560
 20
25.172795
 30
0.0
 10
79.335099
 20
25.157315
 30
0.0
 10
78.723028
 20
25.140775
 30
0.0
 10
78.114114
 20
25.093215
 30
0.0
  0
SPLINE
  5
1f4
100
AcDbEntity
  8
0
 62
7
100
AcDbSpline
 70
8
 71
3
 72
8
 73
4
 74
0
 40
0
 40
0
 40
0
 40
0
 40
1
 40
1
 40
1
 40
1
 10
78.114114
 20
25.093215
 30
0.0
 10
77.456105
 20
25.041795
 30
0.0
 10
76.794085
 20
24.990614
 30
0.0
 10
76.149893
 20
24.871523
 30
0.0
  0
SPLINE
  5
1f5
100
AcDbEntity
  8
0
 62
7
100
AcDbSpline
 70
8
 71
3
 72
8
 73
4
 74
0
 40
0
 40
0
 40
0
 40
0
 40
1
 40
1
 40
1
 40
1
 10
76.149893
 20
24.871523
 30
0.0
 10
75.583033
 20
24.766721
 30
0.0
 10
75.022364
 20
24.628125
 30
0.0
 10
74.490046
 20
24.440542
 30
0.0
  0
SPLINE
  5
1f6
100
AcDbEntity
  8
0
 62
7
100
AcDbSpline
 70
8
 71
3
 72
8
 73
4
 74
0
 40
0
 40
0
 40
0
 40
0
 40
1
 40
1
 40
1
 40
1
 10
74.490046
 20
24.440542
 30
0.0
 10
74.060507
 20
24.289185
 30
0.0
 10
73.645064
 20
24.105879
 30
0.0
 10
73.265831
 20
23.885020
 30
0.0
  0
SPLINE
  5
1f7
100
AcDbEntity
  8
0
 62
7
100
AcDbSpline
 70
8
 71
3
 72
8
 73
4
 74
0
 40
0
 40
0
 40
0
 40
0
 40
1
 40
1
 40
1
 40
1
 10
73.265831
 20
23.885020
 30
0.0
 10
72.981823
 20
23.719615
 30
0.0
 10
72.721879
 20
23.525221
 30
0.0
 10
72.489134
 20
23.315029
 30
0.0
  0
SPLINE
  5
1f8
100
AcDbEntity
  8
0
 62
7
100
AcDbSpline
 70
8
 71
3
 72
8
 73
4
 74
0
 40
0
 40
0
 40
0
 40
0
 40
1
 40
1
 40
1
 40
1
 10
72.489134
 20
23.315029
 30
0.0
 10
72.292113
 20
23.137077
 30
0.0
 10
72.134407
 20
22.933229
 30
0.0
 10
71.970303
 20
22.735219
 30
0.0
  0
SPLINE
  5
1f9
100
AcDbEntity
  8
0
 62
7
100
AcDbSpline
 70
8
 71
3
 72
8
 73
4
 74
0
 40
0
 40
0
 40
0
 40
0
 40
1
 40
1
 40
1
 40
1
 10
71.970303
 20
22.735219
 30
0.0
 10
71.808170
 20
22.539628
 30
0.0
 10
71.658555
 20
22.337453
 30
0.0
 10
71.510900
 20
22.134738
 30
0.0
  0
SPLINE
  5
1fa
100
AcDbEntity
  8
0
 62
7
100
AcDbSpline
 70
8
 71
3
 72
8
 73
4
 74
0
 40
0
 40
0
 40
0
 40
0
 40
1
 40
1
 40
1
 40
1
 10
71.510900
 20
22.134738
 30
0.0
 10
71.363173
 20
21.931913
 30
0.0
 10
71.218447
 20
21.727574
 30
0.0
 10
71.084569
 20
21.518755
 30
0.0
  0
SPLINE
  5
1fb
100
AcDbEntity
  8
0
 62
7
100
AcDbSpline
 70
8
 71
3
 72
8
 73
4
 74
0
 40
0
 40
0
 40
0
 40
0
 40
1
 40
1
 40
1
 40
1
 10
71.084569
 20
21.518755
 30
0.0
 10
70.951668
 20
21.311491
 30
0.0
 10
70.831364
 20
21.099819
 30
0.0
 10
70.710948
 20
20.887786
 30
0.0
  0
SPLINE
  5
1fc
100
AcDbEntity
  8
0
 62
7
100
AcDbSpline
 70
8
 71
3
 72
8
 73
4
 74
0
 40
0
 40
0
 40
0
 40
0
 40
1
 40
1
 40
1
 40
1
 10
70.710948
 20
20.887786
 30
0.0
 10
70.584268
 20
20.664801
 30
0.0
 10
70.464418
 20
20.439098
 30
0.0
 10
70.344046
 20
20.213925
 30
0.0
  0
SPLINE
  5
1fd
100
AcDbEntity
  8
0
 62
7
100
AcDbSpline
 70
8
 71
3
 72
8
 73
4
 74
0
 40
0
 40
0
 40
0
 40
0
 40
1
 40
1
 40
1
 40
1
 10
70.344046
 20
20.213925
 30
0.0
 10
70.213110
 20
19.969068
 30
0.0
 10
70.088325
 20
19.722255
 30
0.0
 10
69.956989
 20
19.477536
 30
0.0
  0
SPLINE
  5
1fe
100
AcDbEntity
  8
0
 62
7
100
AcDbSpline
 70
8
 71
3
 72
8
 73
4
 74
0
 40
0
 40
0
 40
0
 40
0
 40
1
 40
1
 40
1
 40
1
 10
69.956989
 20
19.477536
 30
0.0
 10
69.821936
 20
19.225831
 30
0.0
 10
69.683337
 20
18.975055
 30
0.0
 10
69.544611
 20
18.724610
 30
0.0
  0
SPLINE
  5
1ff
100
AcDbEntity
  8
0
 62
7
100
AcDbSpline
 70
8
 71
3
 72
8
 73
4
 74
0
 40
0
 40
0
 40
0
 40
0
 40
1
 40
1
 40
1
 40
1
 10
69.544611
 20
18.724610
 30
0.0
 10
69.401580
 20
18.466352
 30
0.0
 10
69.268726
 20
18.204220
 30
0.0
 10
69.112080
 20
17.951014
 30
0.0
  0
SPLINE
  5
200
100
AcDbEntity
  8
0
 62
7
100
AcDbSpline
 70
8
 71
3
 72
8
 73
4
 74
0
 40
0
 40
0
 40
0
 40
0
 40
1
 40
1
 40
1
 40
1
 10
69.112080
 20
17.951014
 30
0.0
 10
69.037860
 20
17.831053
 30
0.0
 10
68.299394
 20
16.996150
 30
0.0
 10
67.955561
 20
16.726800
 30
0.0
  0
SPLINE
  5
201
100
AcDbEntity
  8
0
 62
7
100
AcDbSpline
 70
8
 71
3
 72
8
 73
4
 74
0
 40
0
 40
0
 40
0
 40
0
 40
1
 40
1
 40
1
 40
1
 10
67.955561
 20
16.726800
 30
0.0
 10
67.611729
 20
16.457446
 30
0.0
 10
66.632568
 20
15.802261
 30
0.0
 10
66.368577
 20
15.689137
 30
0.0
  0
SPLINE
  5
202
100
AcDbEntity
  8
0
 62
7
100
AcDbSpline
 70
8
 71
3
 72
8
 73
4
 74
0
 40
0
 40
0
 40
0
 40
0
 40
1
 40
1
 40
1
 40
1
 10
66.368577
 20
15.689137
 30
0.0
 10
66.104584
 20
15.576013
 30
0.0
 10
65.493206
 20
15.359606
 30
0.0
 10
65.336082
 20
15.333086
 30
0.0
  0
SPLINE
  5
203
100
AcDbEntity
  8
0
 62
7
100
AcDbSpline
 70
8
 71
3
 72
8
 73
4
 74
0
 40
0
 40
0
 40
0
 40
0
 40
1
 40
1
 40
1
 40
1
 10
65.336082
 20
15.333086
 30
0.0
 10
65.024242
 20
15.280476
 30
0.0
 10
64.708194
 20
15.246856
 30
0.0
 10
64.394020
 20
15.203895
 30
0.0
  0
SPLINE
  5
204
100
AcDbEntity
  8
0
 62
7
100
AcDbSpline
 70
8
 71
3
 72
8
 73
4
 74
0
 40
0
 40
0
 40
0
 40
0
 40
1
 40
1
 40
1
 40
1
 10
64.394020
 20
15.203895
 30
0.0
 10
63.985472
 20
15.148055
 30
0.0
 10
63.578474
 20
15.084370
 30
0.0
 10
63.168255
 20
15.036980
 30
0.0
  0
SPLINE
  5
205
100
AcDbEntity
  8
0
 62
7
100
AcDbSpline
 70
8
 71
3
 72
8
 73
4
 74
0
 40
0
 40
0
 40
0
 40
0
 40
1
 40
1
 40
1
 40
1
 10
63.168255
 20
15.036980
 30
0.0
 10
62.673367
 20
14.979840
 30
0.0
 10
62.177384
 20
14.926360
 30
0.0
 10
61.678941
 20
14.894870
 30
0.0
  0
SPLINE
  5
206
100
AcDbEntity
  8
0
 62
7
100
AcDbSpline
 70
8
 71
3
 72
8
 73
4
 74
0
 40
0
 40
0
 40
0
 40
0
 40
1
 40
1
 40
1
 40
1
 10
61.678941
 20
14.894870
 30
0.0
 10
61.119847
 20
14.859480
 30
0.0
 10
60.557970
 20
14.831560
 30
0.0
 10
59.997389
 20
14.842160
 30
0.0
  0
SPLINE
  5
207
100
AcDbEntity
  8
0
 62
7
100
AcDbSpline
 70
8
 71
3
 72
8
 73
4
 74
0
 40
0
 40
0
 40
0
 40
0
 40
1
 40
1
 40
1
 40
1
 10
59.997389
 20
14.842160
 30
0.0
 10
59.419369
 20
14.853120
 30
0.0
 10
57.881239
 20
15.169272
 30
0.0
 10
57.881239
 20
15.169272
 30
0.0
  0
LWPOLYLINE
  5
208
100
AcDbEntity
  8
0
 62
7
100
AcDbPolyline
 90
2
 70
0
 10
130.469629
 20
13.058272
 30
0.0
 10
132.814699
 20
10.186612
 30
0.0
  0
SPLINE
  5
209
100
AcDbEntity
  8
0
 62
7
100
AcDbSpline
 70
8
 71
3
 72
8
 73
4
 74
0
 40
0
 40
0
 40
0
 40
0
 40
1
 40
1
 40
1
 40
1
 10
54.299546
 20
17.211525
 30
0.0
 10
54.299546
 20
17.211525
 30
0.0
 10
53.737480
 20
18.382702
 30
0.0
 10
53.488226
 20
19.274448
 30
0.0
  0
SPLINE
  5
20a
100
AcDbEntity
  8
0
 62
7
100
AcDbSpline
 70
8
 71
3
 72
8
 73
4
 74
0
 40
0
 40
0
 40
0
 40
0
 40
1
 40
1
 40
1
 40
1
 10
53.488226
 20
19.274448
 30
0.0
 10
53.386289
 20
19.639300
 30
0.0
 10
53.344191
 20
20.013654
 30
0.0
 10
53.267051
 20
20.382390
 30
0.0
  0
SPLINE
  5
20b
100
AcDbEntity
  8
0
 62
7
100
AcDbSpline
 70
8
 71
3
 72
8
 73
4
 74
0
 40
0
 40
0
 40
0
 40
0
 40
1
 40
1
 40
1
 40
1
 10
53.267051
 20
20.382390
 30
0.0
 10
53.198561
 20
20.709956
 30
0.0
 10
53.133504
 20
21.037463
 30
0.0
 10
53.052594
 20
21.363209
 30
0.0
  0
SPLINE
  5
20c
100
AcDbEntity
  8
0
 62
7
100
AcDbSpline
 70
8
 71
3
 72
8
 73
4
 74
0
 40
0
 40
0
 40
0
 40
0
 40
1
 40
1
 40
1
 40
1
 10
53.052594
 20
21.363209
 30
0.0
 10
52.984874
 20
21.635667
 30
0.0
 10
52.916644
 20
21.908975
 30
0.0
 10
52.825734
 20
22.177113
 30
0.0
  0
SPLINE
  5
20d
100
AcDbEntity
  8
0
 62
7
100
AcDbSpline
 70
8
 71
3
 72
8
 73
4
 74
0
 40
0
 40
0
 40
0
 40
0
 40
1
 40
1
 40
1
 40
1
 10
52.825734
 20
22.177113
 30
0.0
 10
52.759144
 20
22.373774
 30
0.0
 10
52.702495
 20
22.574895
 30
0.0
 10
52.593190
 20
22.758991
 30
0.0
  0
SPLINE
  5
20e
100
AcDbEntity
  8
0
 62
7
100
AcDbSpline
 70
8
 71
3
 72
8
 73
4
 74
0
 40
0
 40
0
 40
0
 40
0
 40
1
 40
1
 40
1
 40
1
 10
52.593190
 20
22.758991
 30
0.0
 10
52.527270
 20
22.869998
 30
0.0
 10
52.452397
 20
22.983302
 30
0.0
 10
52.341525
 20
23.068532
 30
0.0
  0
SPLINE
  5
20f
100
AcDbEntity
  8
0
 62
7
100
AcDbSpline
 70
8
 71
3
 72
8
 73
4
 74
0
 40
0
 40
0
 40
0
 40
0
 40
1
 40
1
 40
1
 40
1
 10
52.341525
 20
23.068532
 30
0.0
 10
52.262135
 20
23.129642
 30
0.0
 10
52.158733
 20
23.169065
 30
0.0
 10
52.057305
 20
23.203925
 30
0.0
  0
SPLINE
  5
210
100
AcDbEntity
  8
0
 62
7
100
AcDbSpline
 70
8
 71
3
 72
8
 73
4
 74
0
 40
0
 40
0
 40
0
 40
0
 40
1
 40
1
 40
1
 40
1
 10
52.057305
 20
23.203925
 30
0.0
 10
51.954523
 20
23.239165
 30
0.0
 10
51.844069
 20
23.258745
 30
0.0
 10
51.734327
 20
23.276275
 30
0.0
  0
SPLINE
  5
211
100
AcDbEntity
  8
0
 62
7
100
AcDbSpline
 70
8
 71
3
 72
8
 73
4
 74
0
 40
0
 40
0
 40
0
 40
0
 40
1
 40
1
 40
1
 40
1
 10
51.734327
 20
23.276275
 30
0.0
 10
51.614909
 20
23.295365
 30
0.0
 10
51.492820
 20
23.306815
 30
0.0
 10
51.371042
 20
23.311415
 30
0.0
  0
SPLINE
  5
212
100
AcDbEntity
  8
0
 62
7
100
AcDbSpline
 70
8
 71
3
 72
8
 73
4
 74
0
 40
0
 40
0
 40
0
 40
0
 40
1
 40
1
 40
1
 40
1
 10
51.371042
 20
23.311415
 30
0.0
 10
51.226092
 20
23.316515
 30
0.0
 10
51.080528
 20
23.309015
 30
0.0
 10
50.935926
 20
23.299525
 30
0.0
  0
SPLINE
  5
213
100
AcDbEntity
  8
0
 62
7
100
AcDbSpline
 70
8
 71
3
 72
8
 73
4
 74
0
 40
0
 40
0
 40
0
 40
0
 40
1
 40
1
 40
1
 40
1
 10
50.935926
 20
23.299525
 30
0.0
 10
50.739268
 20
23.285965
 30
0.0
 10
50.544522
 20
23.261395
 30
0.0
 10
50.349915
 20
23.234935
 30
0.0
  0
SPLINE
  5
214
100
AcDbEntity
  8
0
 62
7
100
AcDbSpline
 70
8
 71
3
 72
8
 73
4
 74
0
 40
0
 40
0
 40
0
 40
0
 40
1
 40
1
 40
1
 40
1
 10
50.349915
 20
23.234935
 30
0.0
 10
50.082624
 20
23.198565
 30
0.0
 10
49.818523
 20
23.147955
 30
0.0
 10
49.552548
 20
23.105743
 30
0.0
  0
SPLINE
  5
215
100
AcDbEntity
  8
0
 62
7
100
AcDbSpline
 70
8
 71
3
 72
8
 73
4
 74
0
 40
0
 40
0
 40
0
 40
0
 40
1
 40
1
 40
1
 40
1
 10
49.552548
 20
23.105743
 30
0.0
 10
49.243055
 20
23.056593
 30
0.0
 10
48.933406
 20
23.006003
 30
0.0
 10
48.622889
 20
22.961049
 30
0.0
  0
SPLINE
  5
216
100
AcDbEntity
  8
0
 62
7
100
AcDbSpline
 70
8
 71
3
 72
8
 73
4
 74
0
 40
0
 40
0
 40
0
 40
0
 40
1
 40
1
 40
1
 40
1
 10
48.622889
 20
22.961049
 30
0.0
 10
48.300738
 20
22.914399
 30
0.0
 10
47.978165
 20
22.871259
 30
0.0
 10
47.654473
 20
22.831858
 30
0.0
  0
SPLINE
  5
217
100
AcDbEntity
  8
0
 62
7
100
AcDbSpline
 70
8
 71
3
 72
8
 73
4
 74
0
 40
0
 40
0
 40
0
 40
0
 40
1
 40
1
 40
1
 40
1
 10
47.654473
 20
22.831858
 30
0.0
 10
47.325650
 20
22.791888
 30
0.0
 10
46.995918
 20
22.755938
 30
0.0
 10
46.665902
 20
22.722821
 30
0.0
  0
SPLINE
  5
218
100
AcDbEntity
  8
0
 62
7
100
AcDbSpline
 70
8
 71
3
 72
8
 73
4
 74
0
 40
0
 40
0
 40
0
 40
0
 40
1
 40
1
 40
1
 40
1
 10
46.665902
 20
22.722821
 30
0.0
 10
46.328021
 20
22.688881
 30
0.0
 10
45.987904
 20
22.667381
 30
0.0
 10
45.650461
 20
22.630841
 30
0.0
  0
SPLINE
  5
219
100
AcDbEntity
  8
0
 62
7
100
AcDbSpline
 70
8
 71
3
 72
8
 73
4
 74
0
 40
0
 40
0
 40
0
 40
0
 40
1
 40
1
 40
1
 40
1
 10
45.650461
 20
22.630841
 30
0.0
 10
45.319933
 20
22.595031
 30
0.0
 10
44.989579
 20
22.558301
 30
0.0
 10
44.662407
 20
22.506301
 30
0.0
  0
SPLINE
  5
21a
100
AcDbEntity
  8
0
 62
7
100
AcDbSpline
 70
8
 71
3
 72
8
 73
4
 74
0
 40
0
 40
0
 40
0
 40
0
 40
1
 40
1
 40
1
 40
1
 10
44.662407
 20
22.506301
 30
0.0
 10
44.354423
 20
22.457381
 30
0.0
 10
44.046706
 20
22.402276
 30
0.0
 10
43.746184
 20
22.329566
 30
0.0
  0
SPLINE
  5
21b
100
AcDbEntity
  8
0
 62
7
100
AcDbSpline
 70
8
 71
3
 72
8
 73
4
 74
0
 40
0
 40
0
 40
0
 40
0
 40
1
 40
1
 40
1
 40
1
 10
43.746184
 20
22.329566
 30
0.0
 10
43.475329
 20
22.263986
 30
0.0
 10
43.206380
 20
22.190459
 30
0.0
 10
42.949333
 20
22.095989
 30
0.0
  0
SPLINE
  5
21c
100
AcDbEntity
  8
0
 62
7
100
AcDbSpline
 70
8
 71
3
 72
8
 73
4
 74
0
 40
0
 40
0
 40
0
 40
0
 40
1
 40
1
 40
1
 40
1
 10
42.949333
 20
22.095989
 30
0.0
 10
42.748231
 20
22.022049
 30
0.0
 10
42.555484
 20
21.933703
 30
0.0
 10
42.370557
 20
21.836573
 30
0.0
  0
SPLINE
  5
21d
100
AcDbEntity
  8
0
 62
7
100
AcDbSpline
 70
8
 71
3
 72
8
 73
4
 74
0
 40
0
 40
0
 40
0
 40
0
 40
1
 40
1
 40
1
 40
1
 10
42.370557
 20
21.836573
 30
0.0
 10
42.206765
 20
21.750533
 30
0.0
 10
42.054003
 20
21.651029
 30
0.0
 10
41.902886
 20
21.551319
 30
0.0
  0
SPLINE
  5
21e
100
AcDbEntity
  8
0
 62
7
100
AcDbSpline
 70
8
 71
3
 72
8
 73
4
 74
0
 40
0
 40
0
 40
0
 40
0
 40
1
 40
1
 40
1
 40
1
 10
41.902886
 20
21.551319
 30
0.0
 10
41.742090
 20
21.445243
 30
0.0
 10
41.583561
 20
21.336901
 30
0.0
 10
41.436247
 20
21.219040
 30
0.0
  0
SPLINE
  5
21f
100
AcDbEntity
  8
0
 62
7
100
AcDbSpline
 70
8
 71
3
 72
8
 73
4
 74
0
 40
0
 40
0
 40
0
 40
0
 40
1
 40
1
 40
1
 40
1
 10
41.436247
 20
21.219040
 30
0.0
 10
41.282401
 20
21.095916
 30
0.0
 10
41.129813
 20
20.969749
 30
0.0
 10
41.002165
 20
20.828883
 30
0.0
  0
SPLINE
  5
220
100
AcDbEntity
  8
0
 62
7
100
AcDbSpline
 70
8
 71
3
 72
8
 73
4
 74
0
 40
0
 40
0
 40
0
 40
0
 40
1
 40
1
 40
1
 40
1
 10
41.002165
 20
20.828883
 30
0.0
 10
40.869450
 20
20.682450
 30
0.0
 10
40.761650
 20
20.522029
 30
0.0
 10
40.661101
 20
20.360178
 30
0.0
  0
SPLINE
  5
221
100
AcDbEntity
  8
0
 62
7
100
AcDbSpline
 70
8
 71
3
 72
8
 73
4
 74
0
 40
0
 40
0
 40
0
 40
0
 40
1
 40
1
 40
1
 40
1
 10
40.661101
 20
20.360178
 30
0.0
 10
40.557493
 20
20.193373
 30
0.0
 10
40.469794
 20
20.019992
 30
0.0
 10
40.392384
 20
19.844447
 30
0.0
  0
SPLINE
  5
222
100
AcDbEntity
  8
0
 62
7
100
AcDbSpline
 70
8
 71
3
 72
8
 73
4
 74
0
 40
0
 40
0
 40
0
 40
0
 40
1
 40
1
 40
1
 40
1
 10
40.392384
 20
19.844447
 30
0.0
 10
40.309544
 20
19.656711
 30
0.0
 10
40.236944
 20
19.465642
 30
0.0
 10
40.183094
 20
19.271355
 30
0.0
  0
SPLINE
  5
223
100
AcDbEntity
  8
0
 62
7
100
AcDbSpline
 70
8
 71
3
 72
8
 73
4
 74
0
 40
0
 40
0
 40
0
 40
0
 40
1
 40
1
 40
1
 40
1
 10
40.183094
 20
19.271355
 30
0.0
 10
40.118304
 20
19.037689
 30
0.0
 10
40.073975
 20
18.800124
 30
0.0
 10
40.047185
 20
18.561838
 30
0.0
  0
SPLINE
  5
224
100
AcDbEntity
  8
0
 62
7
100
AcDbSpline
 70
8
 71
3
 72
8
 73
4
 74
0
 40
0
 40
0
 40
0
 40
0
 40
1
 40
1
 40
1
 40
1
 10
40.047185
 20
18.561838
 30
0.0
 10
40.014325
 20
18.265210
 30
0.0
 10
40.020725
 20
17.966629
 30
0.0
 10
40.017725
 20
17.668869
 30
0.0
  0
SPLINE
  5
225
100
AcDbEntity
  8
0
 62
7
100
AcDbSpline
 70
8
 71
3
 72
8
 73
4
 74
0
 40
0
 40
0
 40
0
 40
0
 40
1
 40
1
 40
1
 40
1
 10
40.017725
 20
17.668869
 30
0.0
 10
40.014425
 20
17.344970
 30
0.0
 10
40.027425
 20
17.021270
 30
0.0
 10
40.027525
 20
16.697352
 30
0.0
  0
SPLINE
  5
226
100
AcDbEntity
  8
0
 62
7
100
AcDbSpline
 70
8
 71
3
 72
8
 73
4
 74
0
 40
0
 40
0
 40
0
 40
0
 40
1
 40
1
 40
1
 40
1
 10
40.027525
 20
16.697352
 30
0.0
 10
40.028025
 20
16.390944
 30
0.0
 10
40.027955
 20
16.084349
 30
0.0
 10
40.017725
 20
15.778028
 30
0.0
  0
SPLINE
  5
227
100
AcDbEntity
  8
0
 62
7
100
AcDbSpline
 70
8
 71
3
 72
8
 73
4
 74
0
 40
0
 40
0
 40
0
 40
0
 40
1
 40
1
 40
1
 40
1
 10
40.017725
 20
15.778028
 30
0.0
 10
40.009025
 20
15.513444
 30
0.0
 10
39.999905
 20
15.248670
 30
0.0
 10
39.973795
 20
14.984795
 30
0.0
  0
SPLINE
  5
228
100
AcDbEntity
  8
0
 62
7
100
AcDbSpline
 70
8
 71
3
 72
8
 73
4
 74
0
 40
0
 40
0
 40
0
 40
0
 40
1
 40
1
 40
1
 40
1
 10
39.973795
 20
14.984795
 30
0.0
 10
39.957235
 20
14.816757
 30
0.0
 10
39.917975
 20
14.574612
 30
0.0
 10
39.740218
 20
14.054103
 30
0.0
  0
SPLINE
  5
229
100
AcDbEntity
  8
0
 62
7
100
AcDbSpline
 70
8
 71
3
 72
8
 73
4
 74
0
 40
0
 40
0
 40
0
 40
0
 40
1
 40
1
 40
1
 40
1
 10
39.740218
 20
14.054103
 30
0.0
 10
39.562461
 20
13.533589
 30
0.0
 10
38.407936
 20
12.176130
 30
0.0
 10
38.109827
 20
11.967925
 30
0.0
  0
SPLINE
  5
22a
100
AcDbEntity
  8
0
 62
7
100
AcDbSpline
 70
8
 71
3
 72
8
 73
4
 74
0
 40
0
 40
0
 40
0
 40
0
 40
1
 40
1
 40
1
 40
1
 10
38.109827
 20
11.967925
 30
0.0
 10
37.811716
 20
11.759721
 30
0.0
 10
37.066695
 20
11.395522
 30
0.0
 10
36.880960
 20
11.318352
 30
0.0
  0
SPLINE
  5
22b
100
AcDbEntity
  8
0
 62
7
100
AcDbSpline
 70
8
 71
3
 72
8
 73
4
 74
0
 40
0
 40
0
 40
0
 40
0
 40
1
 40
1
 40
1
 40
1
 10
36.880960
 20
11.318352
 30
0.0
 10
36.416010
 20
11.125164
 30
0.0
 10
35.926091
 20
10.969704
 30
0.0
 10
35.431953
 20
10.830010
 30
0.0
  0
SPLINE
  5
22c
100
AcDbEntity
  8
0
 62
7
100
AcDbSpline
 70
8
 71
3
 72
8
 73
4
 74
0
 40
0
 40
0
 40
0
 40
0
 40
1
 40
1
 40
1
 40
1
 10
35.431953
 20
10.830010
 30
0.0
 10
34.895403
 20
10.678331
 30
0.0
 10
34.347169
 20
10.551535
 30
0.0
 10
33.791743
 20
10.452255
 30
0.0
  0
SPLINE
  5
22d
100
AcDbEntity
  8
0
 62
7
100
AcDbSpline
 70
8
 71
3
 72
8
 73
4
 74
0
 40
0
 40
0
 40
0
 40
0
 40
1
 40
1
 40
1
 40
1
 10
33.791743
 20
10.452255
 30
0.0
 10
33.222892
 20
10.350598
 30
0.0
 10
32.644830
 20
10.279923
 30
0.0
 10
32.065233
 20
10.230563
 30
0.0
  0
SPLINE
  5
22e
100
AcDbEntity
  8
0
 62
7
100
AcDbSpline
 70
8
 71
3
 72
8
 73
4
 74
0
 40
0
 40
0
 40
0
 40
0
 40
1
 40
1
 40
1
 40
1
 10
32.065233
 20
10.230563
 30
0.0
 10
31.489715
 20
10.181513
 30
0.0
 10
30.909661
 20
10.158063
 30
0.0
 10
30.330972
 20
10.156663
 30
0.0
  0
SPLINE
  5
22f
100
AcDbEntity
  8
0
 62
7
100
AcDbSpline
 70
8
 71
3
 72
8
 73
4
 74
0
 40
0
 40
0
 40
0
 40
0
 40
1
 40
1
 40
1
 40
1
 10
30.330972
 20
10.156663
 30
0.0
 10
29.778594
 20
10.155263
 30
0.0
 10
29.225737
 20
10.174553
 30
0.0
 10
28.676293
 20
10.219193
 30
0.0
  0
SPLINE
  5
230
100
AcDbEntity
  8
0
 62
7
100
AcDbSpline
 70
8
 71
3
 72
8
 73
4
 74
0
 40
0
 40
0
 40
0
 40
0
 40
1
 40
1
 40
1
 40
1
 10
28.676293
 20
10.219193
 30
0.0
 10
28.195800
 20
10.258213
 30
0.0
 10
27.715719
 20
10.311303
 30
0.0
 10
27.245372
 20
10.398510
 30
0.0
  0
SPLINE
  5
231
100
AcDbEntity
  8
0
 62
7
100
AcDbSpline
 70
8
 71
3
 72
8
 73
4
 74
0
 40
0
 40
0
 40
0
 40
0
 40
1
 40
1
 40
1
 40
1
 10
27.245372
 20
10.398510
 30
0.0
 10
26.868418
 20
10.468380
 30
0.0
 10
26.501092
 20
10.578755
 30
0.0
 10
26.136396
 20
10.672395
 30
0.0
  0
SPLINE
  5
232
100
AcDbEntity
  8
0
 62
7
100
AcDbSpline
 70
8
 71
3
 72
8
 73
4
 74
0
 40
0
 40
0
 40
0
 40
0
 40
1
 40
1
 40
1
 40
1
 10
26.136396
 20
10.672395
 30
0.0
 10
25.845765
 20
10.747015
 30
0.0
 10
25.142008
 20
10.970106
 30
0.0
 10
24.893578
 20
11.157120
 30
0.0
  0
SPLINE
  5
233
100
AcDbEntity
  8
0
 62
7
100
AcDbSpline
 70
8
 71
3
 72
8
 73
4
 74
0
 40
0
 40
0
 40
0
 40
0
 40
1
 40
1
 40
1
 40
1
 10
24.893578
 20
11.157120
 30
0.0
 10
24.051133
 20
11.790766
 30
0.0
 10
22.504996
 20
12.935334
 30
0.0
 10
21.695839
 20
13.601415
 30
0.0
  0
SPLINE
  5
234
100
AcDbEntity
  8
0
 62
7
100
AcDbSpline
 70
8
 71
3
 72
8
 73
4
 74
0
 40
0
 40
0
 40
0
 40
0
 40
1
 40
1
 40
1
 40
1
 10
21.695839
 20
13.601415
 30
0.0
 10
21.640159
 20
13.654215
 30
0.0
 10
21.536380
 20
13.817027
 30
0.0
 10
21.488100
 20
13.874267
 30
0.0
  0
SPLINE
  5
235
100
AcDbEntity
  8
0
 62
7
100
AcDbSpline
 70
8
 71
3
 72
8
 73
4
 74
0
 40
0
 40
0
 40
0
 40
0
 40
1
 40
1
 40
1
 40
1
 10
21.488100
 20
13.874267
 30
0.0
 10
21.358197
 20
14.049581
 30
0.0
 10
21.202320
 20
14.335977
 30
0.0
 10
21.040065
 20
14.557946
 30
0.0
  0
SPLINE
  5
236
100
AcDbEntity
  8
0
 62
7
100
AcDbSpline
 70
8
 71
3
 72
8
 73
4
 74
0
 40
0
 40
0
 40
0
 40
0
 40
1
 40
1
 40
1
 40
1
 10
21.040065
 20
14.557946
 30
0.0
 10
20.889226
 20
14.764290
 30
0.0
 10
20.741350
 20
14.973077
 30
0.0
 10
20.609084
 20
15.187365
 30
0.0
  0
SPLINE
  5
237
100
AcDbEntity
  8
0
 62
7
100
AcDbSpline
 70
8
 71
3
 72
8
 73
4
 74
0
 40
0
 40
0
 40
0
 40
0
 40
1
 40
1
 40
1
 40
1
 10
20.609084
 20
15.187365
 30
0.0
 10
20.475848
 20
15.403238
 30
0.0
 10
20.349584
 20
15.622159
 30
0.0
 10
20.244765
 20
15.847790
 30
0.0
  0
SPLINE
  5
238
100
AcDbEntity
  8
0
 62
7
100
AcDbSpline
 70
8
 71
3
 72
8
 73
4
 74
0
 40
0
 40
0
 40
0
 40
0
 40
1
 40
1
 40
1
 40
1
 10
20.244765
 20
15.847790
 30
0.0
 10
20.133354
 20
16.087676
 30
0.0
 10
20.038216
 20
16.332485
 30
0.0
 10
19.965196
 20
16.581595
 30
0.0
  0
SPLINE
  5
239
100
AcDbEntity
  8
0
 62
7
100
AcDbSpline
 70
8
 71
3
 72
8
 73
4
 74
0
 40
0
 40
0
 40
0
 40
0
 40
1
 40
1
 40
1
 40
1
 10
19.965196
 20
16.581595
 30
0.0
 10
19.890826
 20
16.835461
 30
0.0
 10
19.829592
 20
17.093658
 30
0.0
 10
19.804482
 20
17.353641
 30
0.0
  0
SPLINE
  5
23a
100
AcDbEntity
  8
0
 62
7
100
AcDbSpline
 70
8
 71
3
 72
8
 73
4
 74
0
 40
0
 40
0
 40
0
 40
0
 40
1
 40
1
 40
1
 40
1
 10
19.804482
 20
17.353641
 30
0.0
 10
19.780452
 20
17.603271
 30
0.0
 10
19.788812
 20
17.854929
 30
0.0
 10
19.814812
 20
18.104499
 30
0.0
  0
SPLINE
  5
23b
100
AcDbEntity
  8
0
 62
7
100
AcDbSpline
 70
8
 71
3
 72
8
 73
4
 74
0
 40
0
 40
0
 40
0
 40
0
 40
1
 40
1
 40
1
 40
1
 10
19.814812
 20
18.104499
 30
0.0
 10
19.840402
 20
18.350082
 30
0.0
 10
19.889842
 20
18.594690
 30
0.0
 10
19.957439
 20
18.835204
 30
0.0
  0
SPLINE
  5
23c
100
AcDbEntity
  8
0
 62
7
100
AcDbSpline
 70
8
 71
3
 72
8
 73
4
 74
0
 40
0
 40
0
 40
0
 40
0
 40
1
 40
1
 40
1
 40
1
 10
19.957439
 20
18.835204
 30
0.0
 10
20.023129
 20
19.068802
 30
0.0
 10
20.106007
 20
19.300076
 30
0.0
 10
20.212204
 20
19.524051
 30
0.0
  0
SPLINE
  5
23d
100
AcDbEntity
  8
0
 62
7
100
AcDbSpline
 70
8
 71
3
 72
8
 73
4
 74
0
 40
0
 40
0
 40
0
 40
0
 40
1
 40
1
 40
1
 40
1
 10
20.212204
 20
19.524051
 30
0.0
 10
20.270604
 20
19.647169
 30
0.0
 10
20.333554
 20
19.775521
 30
0.0
 10
20.421494
 20
19.882169
 30
0.0
  0
SPLINE
  5
23e
100
AcDbEntity
  8
0
 62
7
100
AcDbSpline
 70
8
 71
3
 72
8
 73
4
 74
0
 40
0
 40
0
 40
0
 40
0
 40
1
 40
1
 40
1
 40
1
 10
20.421494
 20
19.882169
 30
0.0
 10
20.487754
 20
19.962519
 30
0.0
 10
20.556998
 20
20.016531
 30
0.0
 10
20.623548
 20
20.090941
 30
0.0
  0
LWPOLYLINE
  5
23f
100
AcDbEntity
  8
0
 62
7
100
AcDbPolyline
 90
2
 70
0
 10
57.881239
 20
15.169272
 30
0.0
 10
54.299546
 20
17.211525
 30
0.0
  0
LWPOLYLINE
  5
240
100
AcDbEntity
  8
0
 62
7
100
AcDbPolyline
 90
55
 70
0
 10
20.623548
 20
20.090941
 30
0.0
 10
19.563148
 20
20.045981
 30
0.0
 10
17.369483
 20
20.176722
 30
0.0
 10
15.247649
 20
20.528639
 30
0.0
 10
13.215215
 20
21.106898
 30
0.0
 10
11.278382
 20
21.893413
 30
0.0
 10
9.454204
 20
22.996189
 30
0.0
 10
7.761801
 20
24.492222
 30
0.0
 10
6.212024
 20
26.095742
 30
0.0
 10
4.811076
 20
27.734401
 30
0.0
 10
3.577560
 20
29.284178
 30
0.0
 10
2.087728
 20
31.746043
 30
0.0
 10
1.640210
 20
32.717560
 30
0.0
 10
1.640210
 20
32.723260
 30
0.0
 10
0.949296
 20
34.803237
 30
0.0
 10
0.454236
 20
36.955043
 30
0.0
 10
0.156580
 20
39.166279
 30
0.0
 10
0.054777
 20
41.407486
 30
0.0
 10
0.156580
 20
43.666263
 30
0.0
 10
0.454236
 20
45.919355
 30
0.0
 10
0.454236
 20
45.925055
 30
0.0
 10
0.949296
 20
48.213805
 30
0.0
 10
1.640210
 20
50.532526
 30
0.0
 10
2.522327
 20
52.809391
 30
0.0
 10
3.577560
 20
55.044396
 30
0.0
 10
4.811076
 20
57.208089
 30
0.0
 10
6.212024
 20
59.299951
 30
0.0
 10
7.761801
 20
61.308614
 30
0.0
 10
9.454204
 20
63.215991
 30
0.0
 10
11.278382
 20
65.015881
 30
0.0
 10
13.215215
 20
66.690714
 30
0.0
 10
15.247649
 20
68.234807
 30
0.0
 10
17.315740
 20
69.635238
 30
0.0
 10
19.294947
 20
70.881157
 30
0.0
 10
21.189922
 20
71.947758
 30
0.0
 10
23.025987
 20
72.806104
 30
0.0
 10
24.825877
 20
73.545077
 30
0.0
 10
27.311513
 20
74.415308
 30
0.0
 10
29.826605
 20
75.285539
 30
0.0
 10
32.437299
 20
76.155770
 30
0.0
 10
35.238678
 20
77.014116
 30
0.0
 10
38.308259
 20
77.860576
 30
0.0
 10
40.370149
 20
78.355119
 30
0.0
 10
40.775809
 20
78.456405
 30
0.0
 10
41.693582
 20
78.677064
 30
0.0
 10
45.347106
 20
79.457895
 30
0.0
 10
49.179430
 20
80.184982
 30
0.0
 10
53.107357
 20
80.840756
 30
0.0
 10
57.065255
 20
81.412814
 30
0.0
 10
59.627889
 20
81.716672
 30
0.0
 10
60.945121
 20
81.877902
 30
0.0
 10
64.706132
 20
82.229302
 30
0.0
 10
68.270256
 20
82.449960
 30
0.0
 10
71.572380
 20
82.521274
 30
0.0
 10
74.796990
 20
82.521274
 30
0.0
  0
ENDSEC
  0
SECTION
  2
OBJECTS
  0
DICTIONARY
  5
C
330
0
100
AcDbDictionary
  3
ACAD_GROUP
350
D
  3
ACAD_MLINESTYLE
350
17
  0
DICTIONARY
  5
D
330
C
100
AcDbDictionary
  0
DICTIONARY
  5
1A
330
C
100
AcDbDictionary
  0
DICTIONARY
  5
17
330
C
100
AcDbDictionary
  3
STANDARD
350
18
  0
DICTIONARY
  5
19
330
C
100
AcDbDictionary
  0
ENDSEC
  0
EOF
