%TF.GenerationSoftware,KiCad,Pcbnew,9.0.3*%
%TF.CreationDate,2025-09-09T18:34:34-04:00*%
%TF.ProjectId,Swadge-HW,53776164-6765-42d4-9857-2e6b69636164,rev?*%
%TF.SameCoordinates,Original*%
%TF.FileFunction,Soldermask,Top*%
%TF.FilePolarity,Negative*%
%FSLAX46Y46*%
G04 Gerber Fmt 4.6, Leading zero omitted, Abs format (unit mm)*
G04 Created by KiCad (PCBNEW 9.0.3) date 2025-09-09 18:34:34*
%MOMM*%
%LPD*%
G01*
G04 APERTURE LIST*
G04 Aperture macros list*
%AMRoundRect*
0 Rectangle with rounded corners*
0 $1 Rounding radius*
0 $2 $3 $4 $5 $6 $7 $8 $9 X,Y pos of 4 corners*
0 Add a 4 corners polygon primitive as box body*
4,1,4,$2,$3,$4,$5,$6,$7,$8,$9,$2,$3,0*
0 Add four circle primitives for the rounded corners*
1,1,$1+$1,$2,$3*
1,1,$1+$1,$4,$5*
1,1,$1+$1,$6,$7*
1,1,$1+$1,$8,$9*
0 Add four rect primitives between the rounded corners*
20,1,$1+$1,$2,$3,$4,$5,0*
20,1,$1+$1,$4,$5,$6,$7,0*
20,1,$1+$1,$6,$7,$8,$9,0*
20,1,$1+$1,$8,$9,$2,$3,0*%
%AMHorizOval*
0 Thick line with rounded ends*
0 $1 width*
0 $2 $3 position (X,Y) of the first rounded end (center of the circle)*
0 $4 $5 position (X,Y) of the second rounded end (center of the circle)*
0 Add line between two ends*
20,1,$1,$2,$3,$4,$5,0*
0 Add two circle primitives to create the rounded ends*
1,1,$1,$2,$3*
1,1,$1,$4,$5*%
%AMRotRect*
0 Rectangle, with rotation*
0 The origin of the aperture is its center*
0 $1 length*
0 $2 width*
0 $3 Rotation angle, in degrees counterclockwise*
0 Add horizontal line*
21,1,$1,$2,0,0,$3*%
%AMFreePoly0*
4,1,72,1.468680,1.357160,1.687374,1.282083,1.890727,1.172033,2.073194,1.030013,2.229797,0.859898,2.356263,0.666326,2.449144,0.454579,2.505906,0.230432,2.525000,0.000000,2.505906,-0.230432,2.449144,-0.454579,2.356263,-0.666326,2.229797,-0.859898,2.073194,-1.030013,1.890727,-1.172033,1.687374,-1.282083,1.468680,-1.357160,1.240611,-1.395218,1.009389,-1.395218,0.781320,-1.357160,
0.562626,-1.282083,0.359273,-1.172033,0.176806,-1.030013,0.020203,-0.859898,-0.106263,-0.666326,-0.199144,-0.454579,-0.255906,-0.230432,-0.275000,0.000000,-0.267597,0.089339,0.275000,0.089339,0.275000,-0.089339,0.312149,-0.264111,0.384824,-0.427341,0.489847,-0.571894,0.622631,-0.691452,0.777370,-0.780791,0.947302,-0.836005,1.125000,-0.854682,1.302698,-0.836005,1.472630,-0.780791,
1.627369,-0.691452,1.760153,-0.571894,1.865176,-0.427341,1.937851,-0.264111,1.975000,-0.089339,1.975000,0.089339,1.937851,0.264111,1.865176,0.427341,1.760153,0.571894,1.627369,0.691452,1.472630,0.780791,1.302698,0.836005,1.125000,0.854682,0.947302,0.836005,0.777370,0.780791,0.622631,0.691452,0.489847,0.571894,0.384824,0.427341,0.312149,0.264111,0.275000,0.089339,
-0.267597,0.089339,-0.255906,0.230432,-0.199144,0.454579,-0.106263,0.666326,0.020203,0.859898,0.176806,1.030013,0.359273,1.172033,0.562626,1.282083,0.781320,1.357160,1.009389,1.395218,1.240611,1.395218,1.468680,1.357160,1.468680,1.357160,$1*%
G04 Aperture macros list end*
%ADD10C,0.100000*%
%ADD11C,0.150000*%
%ADD12C,0.300000*%
%ADD13C,0.400000*%
%ADD14C,0.000000*%
%ADD15RoundRect,0.218750X-0.332287X-0.055689X0.002858X-0.336909X0.332287X0.055689X-0.002858X0.336909X0*%
%ADD16RoundRect,0.218750X0.026517X-0.335876X0.335876X-0.026517X-0.026517X0.335876X-0.335876X0.026517X0*%
%ADD17RotRect,2.300000X2.400000X300.000000*%
%ADD18RoundRect,0.218750X0.256250X-0.218750X0.256250X0.218750X-0.256250X0.218750X-0.256250X-0.218750X0*%
%ADD19RoundRect,0.218750X0.055689X-0.332287X0.336909X0.002858X-0.055689X0.332287X-0.336909X-0.002858X0*%
%ADD20RotRect,1.000000X0.550000X310.000000*%
%ADD21RotRect,0.550000X1.200000X310.000000*%
%ADD22RotRect,0.700000X1.200000X310.000000*%
%ADD23RotRect,0.450000X1.200000X310.000000*%
%ADD24RotRect,1.000000X0.550000X50.000000*%
%ADD25RotRect,0.550000X1.200000X50.000000*%
%ADD26RotRect,0.700000X1.200000X50.000000*%
%ADD27RotRect,0.450000X1.200000X50.000000*%
%ADD28RoundRect,0.218750X0.218750X0.256250X-0.218750X0.256250X-0.218750X-0.256250X0.218750X-0.256250X0*%
%ADD29C,3.200000*%
%ADD30RotRect,1.500000X1.100000X315.000000*%
%ADD31R,1.500000X1.100000*%
%ADD32FreePoly0,0.000000*%
%ADD33C,1.100000*%
%ADD34R,1.700000X1.700000*%
%ADD35O,1.700000X1.700000*%
%ADD36RotRect,1.000000X0.550000X212.000000*%
%ADD37RotRect,0.550000X1.200000X212.000000*%
%ADD38RotRect,0.700000X1.200000X212.000000*%
%ADD39RotRect,0.450000X1.200000X212.000000*%
%ADD40RotRect,1.500000X1.100000X45.000000*%
%ADD41RotRect,1.000000X0.550000X253.000000*%
%ADD42RotRect,0.550000X1.200000X253.000000*%
%ADD43RotRect,0.700000X1.200000X253.000000*%
%ADD44RotRect,0.450000X1.200000X253.000000*%
%ADD45RotRect,1.500000X1.100000X225.000000*%
%ADD46RotRect,1.500000X1.100000X135.000000*%
%ADD47C,1.524000*%
%ADD48RoundRect,0.218750X0.117915X0.315613X-0.293200X0.165979X-0.117915X-0.315613X0.293200X-0.165979X0*%
%ADD49RotRect,1.000000X0.550000X107.000000*%
%ADD50RotRect,0.550000X1.200000X107.000000*%
%ADD51RotRect,0.700000X1.200000X107.000000*%
%ADD52RotRect,0.450000X1.200000X107.000000*%
%ADD53RoundRect,0.050000X0.375000X0.050000X-0.375000X0.050000X-0.375000X-0.050000X0.375000X-0.050000X0*%
%ADD54RoundRect,0.050000X0.050000X0.375000X-0.050000X0.375000X-0.050000X-0.375000X0.050000X-0.375000X0*%
%ADD55R,1.650000X1.650000*%
%ADD56RotRect,1.000000X0.550000X148.000000*%
%ADD57RotRect,0.550000X1.200000X148.000000*%
%ADD58RotRect,0.700000X1.200000X148.000000*%
%ADD59RotRect,0.450000X1.200000X148.000000*%
%ADD60C,0.650000*%
%ADD61HorizOval,1.000000X-0.212132X-0.212132X0.212132X0.212132X0*%
%ADD62HorizOval,1.000000X-0.388909X-0.388909X0.388909X0.388909X0*%
%ADD63C,1.530000*%
%ADD64C,1.300000*%
%ADD65HorizOval,1.200000X-0.200000X-0.346410X0.200000X0.346410X0*%
%ADD66C,1.200000*%
%ADD67HorizOval,1.200000X-0.317208X-0.147916X0.317208X0.147916X0*%
%ADD68HorizOval,1.200000X-0.147916X0.317208X0.147916X-0.317208X0*%
G04 APERTURE END LIST*
D10*
D11*
X177002200Y-166007200D02*
X285002200Y-166007200D01*
X285002200Y-198007200D01*
X177002200Y-198007200D01*
X177002200Y-166007200D01*
D10*
D11*
X10000000Y-10000000D02*
X287002200Y-10000000D01*
X287002200Y-200007200D01*
X10000000Y-200007200D01*
X10000000Y-10000000D01*
D10*
D11*
X12000000Y-12000000D02*
X285002200Y-12000000D01*
X285002200Y-198007200D01*
X12000000Y-198007200D01*
X12000000Y-12000000D01*
D10*
D11*
X60000000Y-12000000D02*
X60000000Y-10000000D01*
D10*
D11*
X110000000Y-12000000D02*
X110000000Y-10000000D01*
D10*
D11*
X160000000Y-12000000D02*
X160000000Y-10000000D01*
D10*
D11*
X210000000Y-12000000D02*
X210000000Y-10000000D01*
D10*
D11*
X260000000Y-12000000D02*
X260000000Y-10000000D01*
D10*
D11*
X36089160Y-11593604D02*
X35346303Y-11593604D01*
X35717731Y-11593604D02*
X35717731Y-10293604D01*
X35717731Y-10293604D02*
X35593922Y-10479319D01*
X35593922Y-10479319D02*
X35470112Y-10603128D01*
X35470112Y-10603128D02*
X35346303Y-10665033D01*
D10*
D11*
X85346303Y-10417414D02*
X85408207Y-10355509D01*
X85408207Y-10355509D02*
X85532017Y-10293604D01*
X85532017Y-10293604D02*
X85841541Y-10293604D01*
X85841541Y-10293604D02*
X85965350Y-10355509D01*
X85965350Y-10355509D02*
X86027255Y-10417414D01*
X86027255Y-10417414D02*
X86089160Y-10541223D01*
X86089160Y-10541223D02*
X86089160Y-10665033D01*
X86089160Y-10665033D02*
X86027255Y-10850747D01*
X86027255Y-10850747D02*
X85284398Y-11593604D01*
X85284398Y-11593604D02*
X86089160Y-11593604D01*
D10*
D11*
X135284398Y-10293604D02*
X136089160Y-10293604D01*
X136089160Y-10293604D02*
X135655826Y-10788842D01*
X135655826Y-10788842D02*
X135841541Y-10788842D01*
X135841541Y-10788842D02*
X135965350Y-10850747D01*
X135965350Y-10850747D02*
X136027255Y-10912652D01*
X136027255Y-10912652D02*
X136089160Y-11036461D01*
X136089160Y-11036461D02*
X136089160Y-11345985D01*
X136089160Y-11345985D02*
X136027255Y-11469795D01*
X136027255Y-11469795D02*
X135965350Y-11531700D01*
X135965350Y-11531700D02*
X135841541Y-11593604D01*
X135841541Y-11593604D02*
X135470112Y-11593604D01*
X135470112Y-11593604D02*
X135346303Y-11531700D01*
X135346303Y-11531700D02*
X135284398Y-11469795D01*
D10*
D11*
X185965350Y-10726938D02*
X185965350Y-11593604D01*
X185655826Y-10231700D02*
X185346303Y-11160271D01*
X185346303Y-11160271D02*
X186151064Y-11160271D01*
D10*
D11*
X236027255Y-10293604D02*
X235408207Y-10293604D01*
X235408207Y-10293604D02*
X235346303Y-10912652D01*
X235346303Y-10912652D02*
X235408207Y-10850747D01*
X235408207Y-10850747D02*
X235532017Y-10788842D01*
X235532017Y-10788842D02*
X235841541Y-10788842D01*
X235841541Y-10788842D02*
X235965350Y-10850747D01*
X235965350Y-10850747D02*
X236027255Y-10912652D01*
X236027255Y-10912652D02*
X236089160Y-11036461D01*
X236089160Y-11036461D02*
X236089160Y-11345985D01*
X236089160Y-11345985D02*
X236027255Y-11469795D01*
X236027255Y-11469795D02*
X235965350Y-11531700D01*
X235965350Y-11531700D02*
X235841541Y-11593604D01*
X235841541Y-11593604D02*
X235532017Y-11593604D01*
X235532017Y-11593604D02*
X235408207Y-11531700D01*
X235408207Y-11531700D02*
X235346303Y-11469795D01*
D10*
D11*
X285965350Y-10293604D02*
X285717731Y-10293604D01*
X285717731Y-10293604D02*
X285593922Y-10355509D01*
X285593922Y-10355509D02*
X285532017Y-10417414D01*
X285532017Y-10417414D02*
X285408207Y-10603128D01*
X285408207Y-10603128D02*
X285346303Y-10850747D01*
X285346303Y-10850747D02*
X285346303Y-11345985D01*
X285346303Y-11345985D02*
X285408207Y-11469795D01*
X285408207Y-11469795D02*
X285470112Y-11531700D01*
X285470112Y-11531700D02*
X285593922Y-11593604D01*
X285593922Y-11593604D02*
X285841541Y-11593604D01*
X285841541Y-11593604D02*
X285965350Y-11531700D01*
X285965350Y-11531700D02*
X286027255Y-11469795D01*
X286027255Y-11469795D02*
X286089160Y-11345985D01*
X286089160Y-11345985D02*
X286089160Y-11036461D01*
X286089160Y-11036461D02*
X286027255Y-10912652D01*
X286027255Y-10912652D02*
X285965350Y-10850747D01*
X285965350Y-10850747D02*
X285841541Y-10788842D01*
X285841541Y-10788842D02*
X285593922Y-10788842D01*
X285593922Y-10788842D02*
X285470112Y-10850747D01*
X285470112Y-10850747D02*
X285408207Y-10912652D01*
X285408207Y-10912652D02*
X285346303Y-11036461D01*
D10*
D11*
X60000000Y-198007200D02*
X60000000Y-200007200D01*
D10*
D11*
X110000000Y-198007200D02*
X110000000Y-200007200D01*
D10*
D11*
X160000000Y-198007200D02*
X160000000Y-200007200D01*
D10*
D11*
X210000000Y-198007200D02*
X210000000Y-200007200D01*
D10*
D11*
X260000000Y-198007200D02*
X260000000Y-200007200D01*
D10*
D11*
X36089160Y-199600804D02*
X35346303Y-199600804D01*
X35717731Y-199600804D02*
X35717731Y-198300804D01*
X35717731Y-198300804D02*
X35593922Y-198486519D01*
X35593922Y-198486519D02*
X35470112Y-198610328D01*
X35470112Y-198610328D02*
X35346303Y-198672233D01*
D10*
D11*
X85346303Y-198424614D02*
X85408207Y-198362709D01*
X85408207Y-198362709D02*
X85532017Y-198300804D01*
X85532017Y-198300804D02*
X85841541Y-198300804D01*
X85841541Y-198300804D02*
X85965350Y-198362709D01*
X85965350Y-198362709D02*
X86027255Y-198424614D01*
X86027255Y-198424614D02*
X86089160Y-198548423D01*
X86089160Y-198548423D02*
X86089160Y-198672233D01*
X86089160Y-198672233D02*
X86027255Y-198857947D01*
X86027255Y-198857947D02*
X85284398Y-199600804D01*
X85284398Y-199600804D02*
X86089160Y-199600804D01*
D10*
D11*
X135284398Y-198300804D02*
X136089160Y-198300804D01*
X136089160Y-198300804D02*
X135655826Y-198796042D01*
X135655826Y-198796042D02*
X135841541Y-198796042D01*
X135841541Y-198796042D02*
X135965350Y-198857947D01*
X135965350Y-198857947D02*
X136027255Y-198919852D01*
X136027255Y-198919852D02*
X136089160Y-199043661D01*
X136089160Y-199043661D02*
X136089160Y-199353185D01*
X136089160Y-199353185D02*
X136027255Y-199476995D01*
X136027255Y-199476995D02*
X135965350Y-199538900D01*
X135965350Y-199538900D02*
X135841541Y-199600804D01*
X135841541Y-199600804D02*
X135470112Y-199600804D01*
X135470112Y-199600804D02*
X135346303Y-199538900D01*
X135346303Y-199538900D02*
X135284398Y-199476995D01*
D10*
D11*
X185965350Y-198734138D02*
X185965350Y-199600804D01*
X185655826Y-198238900D02*
X185346303Y-199167471D01*
X185346303Y-199167471D02*
X186151064Y-199167471D01*
D10*
D11*
X236027255Y-198300804D02*
X235408207Y-198300804D01*
X235408207Y-198300804D02*
X235346303Y-198919852D01*
X235346303Y-198919852D02*
X235408207Y-198857947D01*
X235408207Y-198857947D02*
X235532017Y-198796042D01*
X235532017Y-198796042D02*
X235841541Y-198796042D01*
X235841541Y-198796042D02*
X235965350Y-198857947D01*
X235965350Y-198857947D02*
X236027255Y-198919852D01*
X236027255Y-198919852D02*
X236089160Y-199043661D01*
X236089160Y-199043661D02*
X236089160Y-199353185D01*
X236089160Y-199353185D02*
X236027255Y-199476995D01*
X236027255Y-199476995D02*
X235965350Y-199538900D01*
X235965350Y-199538900D02*
X235841541Y-199600804D01*
X235841541Y-199600804D02*
X235532017Y-199600804D01*
X235532017Y-199600804D02*
X235408207Y-199538900D01*
X235408207Y-199538900D02*
X235346303Y-199476995D01*
D10*
D11*
X285965350Y-198300804D02*
X285717731Y-198300804D01*
X285717731Y-198300804D02*
X285593922Y-198362709D01*
X285593922Y-198362709D02*
X285532017Y-198424614D01*
X285532017Y-198424614D02*
X285408207Y-198610328D01*
X285408207Y-198610328D02*
X285346303Y-198857947D01*
X285346303Y-198857947D02*
X285346303Y-199353185D01*
X285346303Y-199353185D02*
X285408207Y-199476995D01*
X285408207Y-199476995D02*
X285470112Y-199538900D01*
X285470112Y-199538900D02*
X285593922Y-199600804D01*
X285593922Y-199600804D02*
X285841541Y-199600804D01*
X285841541Y-199600804D02*
X285965350Y-199538900D01*
X285965350Y-199538900D02*
X286027255Y-199476995D01*
X286027255Y-199476995D02*
X286089160Y-199353185D01*
X286089160Y-199353185D02*
X286089160Y-199043661D01*
X286089160Y-199043661D02*
X286027255Y-198919852D01*
X286027255Y-198919852D02*
X285965350Y-198857947D01*
X285965350Y-198857947D02*
X285841541Y-198796042D01*
X285841541Y-198796042D02*
X285593922Y-198796042D01*
X285593922Y-198796042D02*
X285470112Y-198857947D01*
X285470112Y-198857947D02*
X285408207Y-198919852D01*
X285408207Y-198919852D02*
X285346303Y-199043661D01*
D10*
D11*
X10000000Y-60000000D02*
X12000000Y-60000000D01*
D10*
D11*
X10000000Y-110000000D02*
X12000000Y-110000000D01*
D10*
D11*
X10000000Y-160000000D02*
X12000000Y-160000000D01*
D10*
D11*
X10690476Y-35222176D02*
X11309523Y-35222176D01*
X10566666Y-35593604D02*
X10999999Y-34293604D01*
X10999999Y-34293604D02*
X11433333Y-35593604D01*
D10*
D11*
X11092857Y-84912652D02*
X11278571Y-84974557D01*
X11278571Y-84974557D02*
X11340476Y-85036461D01*
X11340476Y-85036461D02*
X11402380Y-85160271D01*
X11402380Y-85160271D02*
X11402380Y-85345985D01*
X11402380Y-85345985D02*
X11340476Y-85469795D01*
X11340476Y-85469795D02*
X11278571Y-85531700D01*
X11278571Y-85531700D02*
X11154761Y-85593604D01*
X11154761Y-85593604D02*
X10659523Y-85593604D01*
X10659523Y-85593604D02*
X10659523Y-84293604D01*
X10659523Y-84293604D02*
X11092857Y-84293604D01*
X11092857Y-84293604D02*
X11216666Y-84355509D01*
X11216666Y-84355509D02*
X11278571Y-84417414D01*
X11278571Y-84417414D02*
X11340476Y-84541223D01*
X11340476Y-84541223D02*
X11340476Y-84665033D01*
X11340476Y-84665033D02*
X11278571Y-84788842D01*
X11278571Y-84788842D02*
X11216666Y-84850747D01*
X11216666Y-84850747D02*
X11092857Y-84912652D01*
X11092857Y-84912652D02*
X10659523Y-84912652D01*
D10*
D11*
X11402380Y-135469795D02*
X11340476Y-135531700D01*
X11340476Y-135531700D02*
X11154761Y-135593604D01*
X11154761Y-135593604D02*
X11030952Y-135593604D01*
X11030952Y-135593604D02*
X10845238Y-135531700D01*
X10845238Y-135531700D02*
X10721428Y-135407890D01*
X10721428Y-135407890D02*
X10659523Y-135284080D01*
X10659523Y-135284080D02*
X10597619Y-135036461D01*
X10597619Y-135036461D02*
X10597619Y-134850747D01*
X10597619Y-134850747D02*
X10659523Y-134603128D01*
X10659523Y-134603128D02*
X10721428Y-134479319D01*
X10721428Y-134479319D02*
X10845238Y-134355509D01*
X10845238Y-134355509D02*
X11030952Y-134293604D01*
X11030952Y-134293604D02*
X11154761Y-134293604D01*
X11154761Y-134293604D02*
X11340476Y-134355509D01*
X11340476Y-134355509D02*
X11402380Y-134417414D01*
D10*
D11*
X10659523Y-185593604D02*
X10659523Y-184293604D01*
X10659523Y-184293604D02*
X10969047Y-184293604D01*
X10969047Y-184293604D02*
X11154761Y-184355509D01*
X11154761Y-184355509D02*
X11278571Y-184479319D01*
X11278571Y-184479319D02*
X11340476Y-184603128D01*
X11340476Y-184603128D02*
X11402380Y-184850747D01*
X11402380Y-184850747D02*
X11402380Y-185036461D01*
X11402380Y-185036461D02*
X11340476Y-185284080D01*
X11340476Y-185284080D02*
X11278571Y-185407890D01*
X11278571Y-185407890D02*
X11154761Y-185531700D01*
X11154761Y-185531700D02*
X10969047Y-185593604D01*
X10969047Y-185593604D02*
X10659523Y-185593604D01*
D10*
D11*
X287002200Y-60000000D02*
X285002200Y-60000000D01*
D10*
D11*
X287002200Y-110000000D02*
X285002200Y-110000000D01*
D10*
D11*
X287002200Y-160000000D02*
X285002200Y-160000000D01*
D10*
D11*
X285692676Y-35222176D02*
X286311723Y-35222176D01*
X285568866Y-35593604D02*
X286002199Y-34293604D01*
X286002199Y-34293604D02*
X286435533Y-35593604D01*
D10*
D11*
X286095057Y-84912652D02*
X286280771Y-84974557D01*
X286280771Y-84974557D02*
X286342676Y-85036461D01*
X286342676Y-85036461D02*
X286404580Y-85160271D01*
X286404580Y-85160271D02*
X286404580Y-85345985D01*
X286404580Y-85345985D02*
X286342676Y-85469795D01*
X286342676Y-85469795D02*
X286280771Y-85531700D01*
X286280771Y-85531700D02*
X286156961Y-85593604D01*
X286156961Y-85593604D02*
X285661723Y-85593604D01*
X285661723Y-85593604D02*
X285661723Y-84293604D01*
X285661723Y-84293604D02*
X286095057Y-84293604D01*
X286095057Y-84293604D02*
X286218866Y-84355509D01*
X286218866Y-84355509D02*
X286280771Y-84417414D01*
X286280771Y-84417414D02*
X286342676Y-84541223D01*
X286342676Y-84541223D02*
X286342676Y-84665033D01*
X286342676Y-84665033D02*
X286280771Y-84788842D01*
X286280771Y-84788842D02*
X286218866Y-84850747D01*
X286218866Y-84850747D02*
X286095057Y-84912652D01*
X286095057Y-84912652D02*
X285661723Y-84912652D01*
D10*
D11*
X286404580Y-135469795D02*
X286342676Y-135531700D01*
X286342676Y-135531700D02*
X286156961Y-135593604D01*
X286156961Y-135593604D02*
X286033152Y-135593604D01*
X286033152Y-135593604D02*
X285847438Y-135531700D01*
X285847438Y-135531700D02*
X285723628Y-135407890D01*
X285723628Y-135407890D02*
X285661723Y-135284080D01*
X285661723Y-135284080D02*
X285599819Y-135036461D01*
X285599819Y-135036461D02*
X285599819Y-134850747D01*
X285599819Y-134850747D02*
X285661723Y-134603128D01*
X285661723Y-134603128D02*
X285723628Y-134479319D01*
X285723628Y-134479319D02*
X285847438Y-134355509D01*
X285847438Y-134355509D02*
X286033152Y-134293604D01*
X286033152Y-134293604D02*
X286156961Y-134293604D01*
X286156961Y-134293604D02*
X286342676Y-134355509D01*
X286342676Y-134355509D02*
X286404580Y-134417414D01*
D10*
D11*
X285661723Y-185593604D02*
X285661723Y-184293604D01*
X285661723Y-184293604D02*
X285971247Y-184293604D01*
X285971247Y-184293604D02*
X286156961Y-184355509D01*
X286156961Y-184355509D02*
X286280771Y-184479319D01*
X286280771Y-184479319D02*
X286342676Y-184603128D01*
X286342676Y-184603128D02*
X286404580Y-184850747D01*
X286404580Y-184850747D02*
X286404580Y-185036461D01*
X286404580Y-185036461D02*
X286342676Y-185284080D01*
X286342676Y-185284080D02*
X286280771Y-185407890D01*
X286280771Y-185407890D02*
X286156961Y-185531700D01*
X286156961Y-185531700D02*
X285971247Y-185593604D01*
X285971247Y-185593604D02*
X285661723Y-185593604D01*
D10*
D11*
X200458026Y-193793328D02*
X200458026Y-192293328D01*
X200458026Y-192293328D02*
X200815169Y-192293328D01*
X200815169Y-192293328D02*
X201029455Y-192364757D01*
X201029455Y-192364757D02*
X201172312Y-192507614D01*
X201172312Y-192507614D02*
X201243741Y-192650471D01*
X201243741Y-192650471D02*
X201315169Y-192936185D01*
X201315169Y-192936185D02*
X201315169Y-193150471D01*
X201315169Y-193150471D02*
X201243741Y-193436185D01*
X201243741Y-193436185D02*
X201172312Y-193579042D01*
X201172312Y-193579042D02*
X201029455Y-193721900D01*
X201029455Y-193721900D02*
X200815169Y-193793328D01*
X200815169Y-193793328D02*
X200458026Y-193793328D01*
X202600884Y-193793328D02*
X202600884Y-193007614D01*
X202600884Y-193007614D02*
X202529455Y-192864757D01*
X202529455Y-192864757D02*
X202386598Y-192793328D01*
X202386598Y-192793328D02*
X202100884Y-192793328D01*
X202100884Y-192793328D02*
X201958026Y-192864757D01*
X202600884Y-193721900D02*
X202458026Y-193793328D01*
X202458026Y-193793328D02*
X202100884Y-193793328D01*
X202100884Y-193793328D02*
X201958026Y-193721900D01*
X201958026Y-193721900D02*
X201886598Y-193579042D01*
X201886598Y-193579042D02*
X201886598Y-193436185D01*
X201886598Y-193436185D02*
X201958026Y-193293328D01*
X201958026Y-193293328D02*
X202100884Y-193221900D01*
X202100884Y-193221900D02*
X202458026Y-193221900D01*
X202458026Y-193221900D02*
X202600884Y-193150471D01*
X203100884Y-192793328D02*
X203672312Y-192793328D01*
X203315169Y-192293328D02*
X203315169Y-193579042D01*
X203315169Y-193579042D02*
X203386598Y-193721900D01*
X203386598Y-193721900D02*
X203529455Y-193793328D01*
X203529455Y-193793328D02*
X203672312Y-193793328D01*
X204743741Y-193721900D02*
X204600884Y-193793328D01*
X204600884Y-193793328D02*
X204315170Y-193793328D01*
X204315170Y-193793328D02*
X204172312Y-193721900D01*
X204172312Y-193721900D02*
X204100884Y-193579042D01*
X204100884Y-193579042D02*
X204100884Y-193007614D01*
X204100884Y-193007614D02*
X204172312Y-192864757D01*
X204172312Y-192864757D02*
X204315170Y-192793328D01*
X204315170Y-192793328D02*
X204600884Y-192793328D01*
X204600884Y-192793328D02*
X204743741Y-192864757D01*
X204743741Y-192864757D02*
X204815170Y-193007614D01*
X204815170Y-193007614D02*
X204815170Y-193150471D01*
X204815170Y-193150471D02*
X204100884Y-193293328D01*
X205458026Y-193650471D02*
X205529455Y-193721900D01*
X205529455Y-193721900D02*
X205458026Y-193793328D01*
X205458026Y-193793328D02*
X205386598Y-193721900D01*
X205386598Y-193721900D02*
X205458026Y-193650471D01*
X205458026Y-193650471D02*
X205458026Y-193793328D01*
X205458026Y-192864757D02*
X205529455Y-192936185D01*
X205529455Y-192936185D02*
X205458026Y-193007614D01*
X205458026Y-193007614D02*
X205386598Y-192936185D01*
X205386598Y-192936185D02*
X205458026Y-192864757D01*
X205458026Y-192864757D02*
X205458026Y-193007614D01*
D10*
D11*
X177002200Y-194507200D02*
X285002200Y-194507200D01*
D10*
D11*
X178458026Y-196593328D02*
X178458026Y-195093328D01*
X179315169Y-196593328D02*
X178672312Y-195736185D01*
X179315169Y-195093328D02*
X178458026Y-195950471D01*
X179958026Y-196593328D02*
X179958026Y-195593328D01*
X179958026Y-195093328D02*
X179886598Y-195164757D01*
X179886598Y-195164757D02*
X179958026Y-195236185D01*
X179958026Y-195236185D02*
X180029455Y-195164757D01*
X180029455Y-195164757D02*
X179958026Y-195093328D01*
X179958026Y-195093328D02*
X179958026Y-195236185D01*
X181529455Y-196450471D02*
X181458027Y-196521900D01*
X181458027Y-196521900D02*
X181243741Y-196593328D01*
X181243741Y-196593328D02*
X181100884Y-196593328D01*
X181100884Y-196593328D02*
X180886598Y-196521900D01*
X180886598Y-196521900D02*
X180743741Y-196379042D01*
X180743741Y-196379042D02*
X180672312Y-196236185D01*
X180672312Y-196236185D02*
X180600884Y-195950471D01*
X180600884Y-195950471D02*
X180600884Y-195736185D01*
X180600884Y-195736185D02*
X180672312Y-195450471D01*
X180672312Y-195450471D02*
X180743741Y-195307614D01*
X180743741Y-195307614D02*
X180886598Y-195164757D01*
X180886598Y-195164757D02*
X181100884Y-195093328D01*
X181100884Y-195093328D02*
X181243741Y-195093328D01*
X181243741Y-195093328D02*
X181458027Y-195164757D01*
X181458027Y-195164757D02*
X181529455Y-195236185D01*
X182815170Y-196593328D02*
X182815170Y-195807614D01*
X182815170Y-195807614D02*
X182743741Y-195664757D01*
X182743741Y-195664757D02*
X182600884Y-195593328D01*
X182600884Y-195593328D02*
X182315170Y-195593328D01*
X182315170Y-195593328D02*
X182172312Y-195664757D01*
X182815170Y-196521900D02*
X182672312Y-196593328D01*
X182672312Y-196593328D02*
X182315170Y-196593328D01*
X182315170Y-196593328D02*
X182172312Y-196521900D01*
X182172312Y-196521900D02*
X182100884Y-196379042D01*
X182100884Y-196379042D02*
X182100884Y-196236185D01*
X182100884Y-196236185D02*
X182172312Y-196093328D01*
X182172312Y-196093328D02*
X182315170Y-196021900D01*
X182315170Y-196021900D02*
X182672312Y-196021900D01*
X182672312Y-196021900D02*
X182815170Y-195950471D01*
X184172313Y-196593328D02*
X184172313Y-195093328D01*
X184172313Y-196521900D02*
X184029455Y-196593328D01*
X184029455Y-196593328D02*
X183743741Y-196593328D01*
X183743741Y-196593328D02*
X183600884Y-196521900D01*
X183600884Y-196521900D02*
X183529455Y-196450471D01*
X183529455Y-196450471D02*
X183458027Y-196307614D01*
X183458027Y-196307614D02*
X183458027Y-195879042D01*
X183458027Y-195879042D02*
X183529455Y-195736185D01*
X183529455Y-195736185D02*
X183600884Y-195664757D01*
X183600884Y-195664757D02*
X183743741Y-195593328D01*
X183743741Y-195593328D02*
X184029455Y-195593328D01*
X184029455Y-195593328D02*
X184172313Y-195664757D01*
X186029455Y-195807614D02*
X186529455Y-195807614D01*
X186743741Y-196593328D02*
X186029455Y-196593328D01*
X186029455Y-196593328D02*
X186029455Y-195093328D01*
X186029455Y-195093328D02*
X186743741Y-195093328D01*
X187386598Y-196450471D02*
X187458027Y-196521900D01*
X187458027Y-196521900D02*
X187386598Y-196593328D01*
X187386598Y-196593328D02*
X187315170Y-196521900D01*
X187315170Y-196521900D02*
X187386598Y-196450471D01*
X187386598Y-196450471D02*
X187386598Y-196593328D01*
X188100884Y-196593328D02*
X188100884Y-195093328D01*
X188100884Y-195093328D02*
X188458027Y-195093328D01*
X188458027Y-195093328D02*
X188672313Y-195164757D01*
X188672313Y-195164757D02*
X188815170Y-195307614D01*
X188815170Y-195307614D02*
X188886599Y-195450471D01*
X188886599Y-195450471D02*
X188958027Y-195736185D01*
X188958027Y-195736185D02*
X188958027Y-195950471D01*
X188958027Y-195950471D02*
X188886599Y-196236185D01*
X188886599Y-196236185D02*
X188815170Y-196379042D01*
X188815170Y-196379042D02*
X188672313Y-196521900D01*
X188672313Y-196521900D02*
X188458027Y-196593328D01*
X188458027Y-196593328D02*
X188100884Y-196593328D01*
X189600884Y-196450471D02*
X189672313Y-196521900D01*
X189672313Y-196521900D02*
X189600884Y-196593328D01*
X189600884Y-196593328D02*
X189529456Y-196521900D01*
X189529456Y-196521900D02*
X189600884Y-196450471D01*
X189600884Y-196450471D02*
X189600884Y-196593328D01*
X190243742Y-196164757D02*
X190958028Y-196164757D01*
X190100885Y-196593328D02*
X190600885Y-195093328D01*
X190600885Y-195093328D02*
X191100885Y-196593328D01*
X191600884Y-196450471D02*
X191672313Y-196521900D01*
X191672313Y-196521900D02*
X191600884Y-196593328D01*
X191600884Y-196593328D02*
X191529456Y-196521900D01*
X191529456Y-196521900D02*
X191600884Y-196450471D01*
X191600884Y-196450471D02*
X191600884Y-196593328D01*
X193529456Y-196593328D02*
X193815170Y-196593328D01*
X193815170Y-196593328D02*
X193958027Y-196521900D01*
X193958027Y-196521900D02*
X194029456Y-196450471D01*
X194029456Y-196450471D02*
X194172313Y-196236185D01*
X194172313Y-196236185D02*
X194243742Y-195950471D01*
X194243742Y-195950471D02*
X194243742Y-195379042D01*
X194243742Y-195379042D02*
X194172313Y-195236185D01*
X194172313Y-195236185D02*
X194100885Y-195164757D01*
X194100885Y-195164757D02*
X193958027Y-195093328D01*
X193958027Y-195093328D02*
X193672313Y-195093328D01*
X193672313Y-195093328D02*
X193529456Y-195164757D01*
X193529456Y-195164757D02*
X193458027Y-195236185D01*
X193458027Y-195236185D02*
X193386599Y-195379042D01*
X193386599Y-195379042D02*
X193386599Y-195736185D01*
X193386599Y-195736185D02*
X193458027Y-195879042D01*
X193458027Y-195879042D02*
X193529456Y-195950471D01*
X193529456Y-195950471D02*
X193672313Y-196021900D01*
X193672313Y-196021900D02*
X193958027Y-196021900D01*
X193958027Y-196021900D02*
X194100885Y-195950471D01*
X194100885Y-195950471D02*
X194172313Y-195879042D01*
X194172313Y-195879042D02*
X194243742Y-195736185D01*
X194886598Y-196450471D02*
X194958027Y-196521900D01*
X194958027Y-196521900D02*
X194886598Y-196593328D01*
X194886598Y-196593328D02*
X194815170Y-196521900D01*
X194815170Y-196521900D02*
X194886598Y-196450471D01*
X194886598Y-196450471D02*
X194886598Y-196593328D01*
X195886599Y-195093328D02*
X196029456Y-195093328D01*
X196029456Y-195093328D02*
X196172313Y-195164757D01*
X196172313Y-195164757D02*
X196243742Y-195236185D01*
X196243742Y-195236185D02*
X196315170Y-195379042D01*
X196315170Y-195379042D02*
X196386599Y-195664757D01*
X196386599Y-195664757D02*
X196386599Y-196021900D01*
X196386599Y-196021900D02*
X196315170Y-196307614D01*
X196315170Y-196307614D02*
X196243742Y-196450471D01*
X196243742Y-196450471D02*
X196172313Y-196521900D01*
X196172313Y-196521900D02*
X196029456Y-196593328D01*
X196029456Y-196593328D02*
X195886599Y-196593328D01*
X195886599Y-196593328D02*
X195743742Y-196521900D01*
X195743742Y-196521900D02*
X195672313Y-196450471D01*
X195672313Y-196450471D02*
X195600884Y-196307614D01*
X195600884Y-196307614D02*
X195529456Y-196021900D01*
X195529456Y-196021900D02*
X195529456Y-195664757D01*
X195529456Y-195664757D02*
X195600884Y-195379042D01*
X195600884Y-195379042D02*
X195672313Y-195236185D01*
X195672313Y-195236185D02*
X195743742Y-195164757D01*
X195743742Y-195164757D02*
X195886599Y-195093328D01*
X197029455Y-196450471D02*
X197100884Y-196521900D01*
X197100884Y-196521900D02*
X197029455Y-196593328D01*
X197029455Y-196593328D02*
X196958027Y-196521900D01*
X196958027Y-196521900D02*
X197029455Y-196450471D01*
X197029455Y-196450471D02*
X197029455Y-196593328D01*
X197600884Y-195093328D02*
X198529456Y-195093328D01*
X198529456Y-195093328D02*
X198029456Y-195664757D01*
X198029456Y-195664757D02*
X198243741Y-195664757D01*
X198243741Y-195664757D02*
X198386599Y-195736185D01*
X198386599Y-195736185D02*
X198458027Y-195807614D01*
X198458027Y-195807614D02*
X198529456Y-195950471D01*
X198529456Y-195950471D02*
X198529456Y-196307614D01*
X198529456Y-196307614D02*
X198458027Y-196450471D01*
X198458027Y-196450471D02*
X198386599Y-196521900D01*
X198386599Y-196521900D02*
X198243741Y-196593328D01*
X198243741Y-196593328D02*
X197815170Y-196593328D01*
X197815170Y-196593328D02*
X197672313Y-196521900D01*
X197672313Y-196521900D02*
X197600884Y-196450471D01*
D10*
D11*
X177002200Y-191507200D02*
X285002200Y-191507200D01*
D10*
D12*
X264413853Y-193785528D02*
X263913853Y-193071242D01*
X263556710Y-193785528D02*
X263556710Y-192285528D01*
X263556710Y-192285528D02*
X264128139Y-192285528D01*
X264128139Y-192285528D02*
X264270996Y-192356957D01*
X264270996Y-192356957D02*
X264342425Y-192428385D01*
X264342425Y-192428385D02*
X264413853Y-192571242D01*
X264413853Y-192571242D02*
X264413853Y-192785528D01*
X264413853Y-192785528D02*
X264342425Y-192928385D01*
X264342425Y-192928385D02*
X264270996Y-192999814D01*
X264270996Y-192999814D02*
X264128139Y-193071242D01*
X264128139Y-193071242D02*
X263556710Y-193071242D01*
X265628139Y-193714100D02*
X265485282Y-193785528D01*
X265485282Y-193785528D02*
X265199568Y-193785528D01*
X265199568Y-193785528D02*
X265056710Y-193714100D01*
X265056710Y-193714100D02*
X264985282Y-193571242D01*
X264985282Y-193571242D02*
X264985282Y-192999814D01*
X264985282Y-192999814D02*
X265056710Y-192856957D01*
X265056710Y-192856957D02*
X265199568Y-192785528D01*
X265199568Y-192785528D02*
X265485282Y-192785528D01*
X265485282Y-192785528D02*
X265628139Y-192856957D01*
X265628139Y-192856957D02*
X265699568Y-192999814D01*
X265699568Y-192999814D02*
X265699568Y-193142671D01*
X265699568Y-193142671D02*
X264985282Y-193285528D01*
X266199567Y-192785528D02*
X266556710Y-193785528D01*
X266556710Y-193785528D02*
X266913853Y-192785528D01*
X267485281Y-193642671D02*
X267556710Y-193714100D01*
X267556710Y-193714100D02*
X267485281Y-193785528D01*
X267485281Y-193785528D02*
X267413853Y-193714100D01*
X267413853Y-193714100D02*
X267485281Y-193642671D01*
X267485281Y-193642671D02*
X267485281Y-193785528D01*
X267485281Y-192856957D02*
X267556710Y-192928385D01*
X267556710Y-192928385D02*
X267485281Y-192999814D01*
X267485281Y-192999814D02*
X267413853Y-192928385D01*
X267413853Y-192928385D02*
X267485281Y-192856957D01*
X267485281Y-192856957D02*
X267485281Y-192999814D01*
D10*
D11*
X178386598Y-193721900D02*
X178600884Y-193793328D01*
X178600884Y-193793328D02*
X178958026Y-193793328D01*
X178958026Y-193793328D02*
X179100884Y-193721900D01*
X179100884Y-193721900D02*
X179172312Y-193650471D01*
X179172312Y-193650471D02*
X179243741Y-193507614D01*
X179243741Y-193507614D02*
X179243741Y-193364757D01*
X179243741Y-193364757D02*
X179172312Y-193221900D01*
X179172312Y-193221900D02*
X179100884Y-193150471D01*
X179100884Y-193150471D02*
X178958026Y-193079042D01*
X178958026Y-193079042D02*
X178672312Y-193007614D01*
X178672312Y-193007614D02*
X178529455Y-192936185D01*
X178529455Y-192936185D02*
X178458026Y-192864757D01*
X178458026Y-192864757D02*
X178386598Y-192721900D01*
X178386598Y-192721900D02*
X178386598Y-192579042D01*
X178386598Y-192579042D02*
X178458026Y-192436185D01*
X178458026Y-192436185D02*
X178529455Y-192364757D01*
X178529455Y-192364757D02*
X178672312Y-192293328D01*
X178672312Y-192293328D02*
X179029455Y-192293328D01*
X179029455Y-192293328D02*
X179243741Y-192364757D01*
X179886597Y-193793328D02*
X179886597Y-192793328D01*
X179886597Y-192293328D02*
X179815169Y-192364757D01*
X179815169Y-192364757D02*
X179886597Y-192436185D01*
X179886597Y-192436185D02*
X179958026Y-192364757D01*
X179958026Y-192364757D02*
X179886597Y-192293328D01*
X179886597Y-192293328D02*
X179886597Y-192436185D01*
X180458026Y-192793328D02*
X181243741Y-192793328D01*
X181243741Y-192793328D02*
X180458026Y-193793328D01*
X180458026Y-193793328D02*
X181243741Y-193793328D01*
X182386598Y-193721900D02*
X182243741Y-193793328D01*
X182243741Y-193793328D02*
X181958027Y-193793328D01*
X181958027Y-193793328D02*
X181815169Y-193721900D01*
X181815169Y-193721900D02*
X181743741Y-193579042D01*
X181743741Y-193579042D02*
X181743741Y-193007614D01*
X181743741Y-193007614D02*
X181815169Y-192864757D01*
X181815169Y-192864757D02*
X181958027Y-192793328D01*
X181958027Y-192793328D02*
X182243741Y-192793328D01*
X182243741Y-192793328D02*
X182386598Y-192864757D01*
X182386598Y-192864757D02*
X182458027Y-193007614D01*
X182458027Y-193007614D02*
X182458027Y-193150471D01*
X182458027Y-193150471D02*
X181743741Y-193293328D01*
X183100883Y-193650471D02*
X183172312Y-193721900D01*
X183172312Y-193721900D02*
X183100883Y-193793328D01*
X183100883Y-193793328D02*
X183029455Y-193721900D01*
X183029455Y-193721900D02*
X183100883Y-193650471D01*
X183100883Y-193650471D02*
X183100883Y-193793328D01*
X183100883Y-192864757D02*
X183172312Y-192936185D01*
X183172312Y-192936185D02*
X183100883Y-193007614D01*
X183100883Y-193007614D02*
X183029455Y-192936185D01*
X183029455Y-192936185D02*
X183100883Y-192864757D01*
X183100883Y-192864757D02*
X183100883Y-193007614D01*
X184886598Y-193364757D02*
X185600884Y-193364757D01*
X184743741Y-193793328D02*
X185243741Y-192293328D01*
X185243741Y-192293328D02*
X185743741Y-193793328D01*
X186886598Y-192793328D02*
X186886598Y-193793328D01*
X186529455Y-192221900D02*
X186172312Y-193293328D01*
X186172312Y-193293328D02*
X187100883Y-193293328D01*
D10*
D11*
X263458026Y-196593328D02*
X263458026Y-195093328D01*
X264815170Y-196593328D02*
X264815170Y-195093328D01*
X264815170Y-196521900D02*
X264672312Y-196593328D01*
X264672312Y-196593328D02*
X264386598Y-196593328D01*
X264386598Y-196593328D02*
X264243741Y-196521900D01*
X264243741Y-196521900D02*
X264172312Y-196450471D01*
X264172312Y-196450471D02*
X264100884Y-196307614D01*
X264100884Y-196307614D02*
X264100884Y-195879042D01*
X264100884Y-195879042D02*
X264172312Y-195736185D01*
X264172312Y-195736185D02*
X264243741Y-195664757D01*
X264243741Y-195664757D02*
X264386598Y-195593328D01*
X264386598Y-195593328D02*
X264672312Y-195593328D01*
X264672312Y-195593328D02*
X264815170Y-195664757D01*
X265529455Y-196450471D02*
X265600884Y-196521900D01*
X265600884Y-196521900D02*
X265529455Y-196593328D01*
X265529455Y-196593328D02*
X265458027Y-196521900D01*
X265458027Y-196521900D02*
X265529455Y-196450471D01*
X265529455Y-196450471D02*
X265529455Y-196593328D01*
X265529455Y-195664757D02*
X265600884Y-195736185D01*
X265600884Y-195736185D02*
X265529455Y-195807614D01*
X265529455Y-195807614D02*
X265458027Y-195736185D01*
X265458027Y-195736185D02*
X265529455Y-195664757D01*
X265529455Y-195664757D02*
X265529455Y-195807614D01*
X268029456Y-195593328D02*
X268029456Y-196593328D01*
X267672313Y-195021900D02*
X267315170Y-196093328D01*
X267315170Y-196093328D02*
X268243741Y-196093328D01*
X269886598Y-195021900D02*
X268600884Y-196950471D01*
X271100884Y-195093328D02*
X270386598Y-195093328D01*
X270386598Y-195093328D02*
X270315170Y-195807614D01*
X270315170Y-195807614D02*
X270386598Y-195736185D01*
X270386598Y-195736185D02*
X270529456Y-195664757D01*
X270529456Y-195664757D02*
X270886598Y-195664757D01*
X270886598Y-195664757D02*
X271029456Y-195736185D01*
X271029456Y-195736185D02*
X271100884Y-195807614D01*
X271100884Y-195807614D02*
X271172313Y-195950471D01*
X271172313Y-195950471D02*
X271172313Y-196307614D01*
X271172313Y-196307614D02*
X271100884Y-196450471D01*
X271100884Y-196450471D02*
X271029456Y-196521900D01*
X271029456Y-196521900D02*
X270886598Y-196593328D01*
X270886598Y-196593328D02*
X270529456Y-196593328D01*
X270529456Y-196593328D02*
X270386598Y-196521900D01*
X270386598Y-196521900D02*
X270315170Y-196450471D01*
D10*
D11*
X177002200Y-187507200D02*
X285002200Y-187507200D01*
D10*
D13*
X178693928Y-188211638D02*
X179836785Y-188211638D01*
X179015357Y-190211638D02*
X179265357Y-188211638D01*
X180253452Y-190211638D02*
X180420119Y-188878304D01*
X180503452Y-188211638D02*
X180396309Y-188306876D01*
X180396309Y-188306876D02*
X180479643Y-188402114D01*
X180479643Y-188402114D02*
X180586786Y-188306876D01*
X180586786Y-188306876D02*
X180503452Y-188211638D01*
X180503452Y-188211638D02*
X180479643Y-188402114D01*
X181086786Y-188878304D02*
X181848690Y-188878304D01*
X181455833Y-188211638D02*
X181241548Y-189925923D01*
X181241548Y-189925923D02*
X181312976Y-190116400D01*
X181312976Y-190116400D02*
X181491548Y-190211638D01*
X181491548Y-190211638D02*
X181682024Y-190211638D01*
X182634405Y-190211638D02*
X182455833Y-190116400D01*
X182455833Y-190116400D02*
X182384405Y-189925923D01*
X182384405Y-189925923D02*
X182598690Y-188211638D01*
X184170119Y-190116400D02*
X183967738Y-190211638D01*
X183967738Y-190211638D02*
X183586785Y-190211638D01*
X183586785Y-190211638D02*
X183408214Y-190116400D01*
X183408214Y-190116400D02*
X183336785Y-189925923D01*
X183336785Y-189925923D02*
X183432024Y-189164019D01*
X183432024Y-189164019D02*
X183551071Y-188973542D01*
X183551071Y-188973542D02*
X183753452Y-188878304D01*
X183753452Y-188878304D02*
X184134404Y-188878304D01*
X184134404Y-188878304D02*
X184312976Y-188973542D01*
X184312976Y-188973542D02*
X184384404Y-189164019D01*
X184384404Y-189164019D02*
X184360595Y-189354495D01*
X184360595Y-189354495D02*
X183384404Y-189544971D01*
X185134405Y-190021161D02*
X185217738Y-190116400D01*
X185217738Y-190116400D02*
X185110595Y-190211638D01*
X185110595Y-190211638D02*
X185027262Y-190116400D01*
X185027262Y-190116400D02*
X185134405Y-190021161D01*
X185134405Y-190021161D02*
X185110595Y-190211638D01*
X185265357Y-188973542D02*
X185348690Y-189068780D01*
X185348690Y-189068780D02*
X185241548Y-189164019D01*
X185241548Y-189164019D02*
X185158214Y-189068780D01*
X185158214Y-189068780D02*
X185265357Y-188973542D01*
X185265357Y-188973542D02*
X185241548Y-189164019D01*
D10*
D11*
X178958026Y-185607614D02*
X178458026Y-185607614D01*
X178458026Y-186393328D02*
X178458026Y-184893328D01*
X178458026Y-184893328D02*
X179172312Y-184893328D01*
X179743740Y-186393328D02*
X179743740Y-185393328D01*
X179743740Y-184893328D02*
X179672312Y-184964757D01*
X179672312Y-184964757D02*
X179743740Y-185036185D01*
X179743740Y-185036185D02*
X179815169Y-184964757D01*
X179815169Y-184964757D02*
X179743740Y-184893328D01*
X179743740Y-184893328D02*
X179743740Y-185036185D01*
X180672312Y-186393328D02*
X180529455Y-186321900D01*
X180529455Y-186321900D02*
X180458026Y-186179042D01*
X180458026Y-186179042D02*
X180458026Y-184893328D01*
X181815169Y-186321900D02*
X181672312Y-186393328D01*
X181672312Y-186393328D02*
X181386598Y-186393328D01*
X181386598Y-186393328D02*
X181243740Y-186321900D01*
X181243740Y-186321900D02*
X181172312Y-186179042D01*
X181172312Y-186179042D02*
X181172312Y-185607614D01*
X181172312Y-185607614D02*
X181243740Y-185464757D01*
X181243740Y-185464757D02*
X181386598Y-185393328D01*
X181386598Y-185393328D02*
X181672312Y-185393328D01*
X181672312Y-185393328D02*
X181815169Y-185464757D01*
X181815169Y-185464757D02*
X181886598Y-185607614D01*
X181886598Y-185607614D02*
X181886598Y-185750471D01*
X181886598Y-185750471D02*
X181172312Y-185893328D01*
X182529454Y-186250471D02*
X182600883Y-186321900D01*
X182600883Y-186321900D02*
X182529454Y-186393328D01*
X182529454Y-186393328D02*
X182458026Y-186321900D01*
X182458026Y-186321900D02*
X182529454Y-186250471D01*
X182529454Y-186250471D02*
X182529454Y-186393328D01*
X182529454Y-185464757D02*
X182600883Y-185536185D01*
X182600883Y-185536185D02*
X182529454Y-185607614D01*
X182529454Y-185607614D02*
X182458026Y-185536185D01*
X182458026Y-185536185D02*
X182529454Y-185464757D01*
X182529454Y-185464757D02*
X182529454Y-185607614D01*
X184315169Y-186321900D02*
X184529455Y-186393328D01*
X184529455Y-186393328D02*
X184886597Y-186393328D01*
X184886597Y-186393328D02*
X185029455Y-186321900D01*
X185029455Y-186321900D02*
X185100883Y-186250471D01*
X185100883Y-186250471D02*
X185172312Y-186107614D01*
X185172312Y-186107614D02*
X185172312Y-185964757D01*
X185172312Y-185964757D02*
X185100883Y-185821900D01*
X185100883Y-185821900D02*
X185029455Y-185750471D01*
X185029455Y-185750471D02*
X184886597Y-185679042D01*
X184886597Y-185679042D02*
X184600883Y-185607614D01*
X184600883Y-185607614D02*
X184458026Y-185536185D01*
X184458026Y-185536185D02*
X184386597Y-185464757D01*
X184386597Y-185464757D02*
X184315169Y-185321900D01*
X184315169Y-185321900D02*
X184315169Y-185179042D01*
X184315169Y-185179042D02*
X184386597Y-185036185D01*
X184386597Y-185036185D02*
X184458026Y-184964757D01*
X184458026Y-184964757D02*
X184600883Y-184893328D01*
X184600883Y-184893328D02*
X184958026Y-184893328D01*
X184958026Y-184893328D02*
X185172312Y-184964757D01*
X185672311Y-185393328D02*
X185958026Y-186393328D01*
X185958026Y-186393328D02*
X186243740Y-185679042D01*
X186243740Y-185679042D02*
X186529454Y-186393328D01*
X186529454Y-186393328D02*
X186815168Y-185393328D01*
X188029455Y-186393328D02*
X188029455Y-185607614D01*
X188029455Y-185607614D02*
X187958026Y-185464757D01*
X187958026Y-185464757D02*
X187815169Y-185393328D01*
X187815169Y-185393328D02*
X187529455Y-185393328D01*
X187529455Y-185393328D02*
X187386597Y-185464757D01*
X188029455Y-186321900D02*
X187886597Y-186393328D01*
X187886597Y-186393328D02*
X187529455Y-186393328D01*
X187529455Y-186393328D02*
X187386597Y-186321900D01*
X187386597Y-186321900D02*
X187315169Y-186179042D01*
X187315169Y-186179042D02*
X187315169Y-186036185D01*
X187315169Y-186036185D02*
X187386597Y-185893328D01*
X187386597Y-185893328D02*
X187529455Y-185821900D01*
X187529455Y-185821900D02*
X187886597Y-185821900D01*
X187886597Y-185821900D02*
X188029455Y-185750471D01*
X189386598Y-186393328D02*
X189386598Y-184893328D01*
X189386598Y-186321900D02*
X189243740Y-186393328D01*
X189243740Y-186393328D02*
X188958026Y-186393328D01*
X188958026Y-186393328D02*
X188815169Y-186321900D01*
X188815169Y-186321900D02*
X188743740Y-186250471D01*
X188743740Y-186250471D02*
X188672312Y-186107614D01*
X188672312Y-186107614D02*
X188672312Y-185679042D01*
X188672312Y-185679042D02*
X188743740Y-185536185D01*
X188743740Y-185536185D02*
X188815169Y-185464757D01*
X188815169Y-185464757D02*
X188958026Y-185393328D01*
X188958026Y-185393328D02*
X189243740Y-185393328D01*
X189243740Y-185393328D02*
X189386598Y-185464757D01*
X190743741Y-185393328D02*
X190743741Y-186607614D01*
X190743741Y-186607614D02*
X190672312Y-186750471D01*
X190672312Y-186750471D02*
X190600883Y-186821900D01*
X190600883Y-186821900D02*
X190458026Y-186893328D01*
X190458026Y-186893328D02*
X190243741Y-186893328D01*
X190243741Y-186893328D02*
X190100883Y-186821900D01*
X190743741Y-186321900D02*
X190600883Y-186393328D01*
X190600883Y-186393328D02*
X190315169Y-186393328D01*
X190315169Y-186393328D02*
X190172312Y-186321900D01*
X190172312Y-186321900D02*
X190100883Y-186250471D01*
X190100883Y-186250471D02*
X190029455Y-186107614D01*
X190029455Y-186107614D02*
X190029455Y-185679042D01*
X190029455Y-185679042D02*
X190100883Y-185536185D01*
X190100883Y-185536185D02*
X190172312Y-185464757D01*
X190172312Y-185464757D02*
X190315169Y-185393328D01*
X190315169Y-185393328D02*
X190600883Y-185393328D01*
X190600883Y-185393328D02*
X190743741Y-185464757D01*
X192029455Y-186321900D02*
X191886598Y-186393328D01*
X191886598Y-186393328D02*
X191600884Y-186393328D01*
X191600884Y-186393328D02*
X191458026Y-186321900D01*
X191458026Y-186321900D02*
X191386598Y-186179042D01*
X191386598Y-186179042D02*
X191386598Y-185607614D01*
X191386598Y-185607614D02*
X191458026Y-185464757D01*
X191458026Y-185464757D02*
X191600884Y-185393328D01*
X191600884Y-185393328D02*
X191886598Y-185393328D01*
X191886598Y-185393328D02*
X192029455Y-185464757D01*
X192029455Y-185464757D02*
X192100884Y-185607614D01*
X192100884Y-185607614D02*
X192100884Y-185750471D01*
X192100884Y-185750471D02*
X191386598Y-185893328D01*
X192743740Y-185821900D02*
X193886598Y-185821900D01*
X194600883Y-186393328D02*
X194600883Y-184893328D01*
X194600883Y-185607614D02*
X195458026Y-185607614D01*
X195458026Y-186393328D02*
X195458026Y-184893328D01*
X196029455Y-184893328D02*
X196386598Y-186393328D01*
X196386598Y-186393328D02*
X196672312Y-185321900D01*
X196672312Y-185321900D02*
X196958027Y-186393328D01*
X196958027Y-186393328D02*
X197315170Y-184893328D01*
X197886598Y-186250471D02*
X197958027Y-186321900D01*
X197958027Y-186321900D02*
X197886598Y-186393328D01*
X197886598Y-186393328D02*
X197815170Y-186321900D01*
X197815170Y-186321900D02*
X197886598Y-186250471D01*
X197886598Y-186250471D02*
X197886598Y-186393328D01*
X198600884Y-186393328D02*
X198600884Y-184893328D01*
X198743742Y-185821900D02*
X199172313Y-186393328D01*
X199172313Y-185393328D02*
X198600884Y-185964757D01*
X199815170Y-186393328D02*
X199815170Y-185393328D01*
X199815170Y-184893328D02*
X199743742Y-184964757D01*
X199743742Y-184964757D02*
X199815170Y-185036185D01*
X199815170Y-185036185D02*
X199886599Y-184964757D01*
X199886599Y-184964757D02*
X199815170Y-184893328D01*
X199815170Y-184893328D02*
X199815170Y-185036185D01*
X201172314Y-186321900D02*
X201029456Y-186393328D01*
X201029456Y-186393328D02*
X200743742Y-186393328D01*
X200743742Y-186393328D02*
X200600885Y-186321900D01*
X200600885Y-186321900D02*
X200529456Y-186250471D01*
X200529456Y-186250471D02*
X200458028Y-186107614D01*
X200458028Y-186107614D02*
X200458028Y-185679042D01*
X200458028Y-185679042D02*
X200529456Y-185536185D01*
X200529456Y-185536185D02*
X200600885Y-185464757D01*
X200600885Y-185464757D02*
X200743742Y-185393328D01*
X200743742Y-185393328D02*
X201029456Y-185393328D01*
X201029456Y-185393328D02*
X201172314Y-185464757D01*
X202458028Y-186393328D02*
X202458028Y-185607614D01*
X202458028Y-185607614D02*
X202386599Y-185464757D01*
X202386599Y-185464757D02*
X202243742Y-185393328D01*
X202243742Y-185393328D02*
X201958028Y-185393328D01*
X201958028Y-185393328D02*
X201815170Y-185464757D01*
X202458028Y-186321900D02*
X202315170Y-186393328D01*
X202315170Y-186393328D02*
X201958028Y-186393328D01*
X201958028Y-186393328D02*
X201815170Y-186321900D01*
X201815170Y-186321900D02*
X201743742Y-186179042D01*
X201743742Y-186179042D02*
X201743742Y-186036185D01*
X201743742Y-186036185D02*
X201815170Y-185893328D01*
X201815170Y-185893328D02*
X201958028Y-185821900D01*
X201958028Y-185821900D02*
X202315170Y-185821900D01*
X202315170Y-185821900D02*
X202458028Y-185750471D01*
X203815171Y-186393328D02*
X203815171Y-184893328D01*
X203815171Y-186321900D02*
X203672313Y-186393328D01*
X203672313Y-186393328D02*
X203386599Y-186393328D01*
X203386599Y-186393328D02*
X203243742Y-186321900D01*
X203243742Y-186321900D02*
X203172313Y-186250471D01*
X203172313Y-186250471D02*
X203100885Y-186107614D01*
X203100885Y-186107614D02*
X203100885Y-185679042D01*
X203100885Y-185679042D02*
X203172313Y-185536185D01*
X203172313Y-185536185D02*
X203243742Y-185464757D01*
X203243742Y-185464757D02*
X203386599Y-185393328D01*
X203386599Y-185393328D02*
X203672313Y-185393328D01*
X203672313Y-185393328D02*
X203815171Y-185464757D01*
X204172314Y-186536185D02*
X205315171Y-186536185D01*
X205672313Y-185393328D02*
X205672313Y-186893328D01*
X205672313Y-185464757D02*
X205815171Y-185393328D01*
X205815171Y-185393328D02*
X206100885Y-185393328D01*
X206100885Y-185393328D02*
X206243742Y-185464757D01*
X206243742Y-185464757D02*
X206315171Y-185536185D01*
X206315171Y-185536185D02*
X206386599Y-185679042D01*
X206386599Y-185679042D02*
X206386599Y-186107614D01*
X206386599Y-186107614D02*
X206315171Y-186250471D01*
X206315171Y-186250471D02*
X206243742Y-186321900D01*
X206243742Y-186321900D02*
X206100885Y-186393328D01*
X206100885Y-186393328D02*
X205815171Y-186393328D01*
X205815171Y-186393328D02*
X205672313Y-186321900D01*
X207672314Y-186321900D02*
X207529456Y-186393328D01*
X207529456Y-186393328D02*
X207243742Y-186393328D01*
X207243742Y-186393328D02*
X207100885Y-186321900D01*
X207100885Y-186321900D02*
X207029456Y-186250471D01*
X207029456Y-186250471D02*
X206958028Y-186107614D01*
X206958028Y-186107614D02*
X206958028Y-185679042D01*
X206958028Y-185679042D02*
X207029456Y-185536185D01*
X207029456Y-185536185D02*
X207100885Y-185464757D01*
X207100885Y-185464757D02*
X207243742Y-185393328D01*
X207243742Y-185393328D02*
X207529456Y-185393328D01*
X207529456Y-185393328D02*
X207672314Y-185464757D01*
X208315170Y-186393328D02*
X208315170Y-184893328D01*
X208315170Y-185464757D02*
X208458028Y-185393328D01*
X208458028Y-185393328D02*
X208743742Y-185393328D01*
X208743742Y-185393328D02*
X208886599Y-185464757D01*
X208886599Y-185464757D02*
X208958028Y-185536185D01*
X208958028Y-185536185D02*
X209029456Y-185679042D01*
X209029456Y-185679042D02*
X209029456Y-186107614D01*
X209029456Y-186107614D02*
X208958028Y-186250471D01*
X208958028Y-186250471D02*
X208886599Y-186321900D01*
X208886599Y-186321900D02*
X208743742Y-186393328D01*
X208743742Y-186393328D02*
X208458028Y-186393328D01*
X208458028Y-186393328D02*
X208315170Y-186321900D01*
D10*
D11*
X177002200Y-181507200D02*
X285002200Y-181507200D01*
D10*
D11*
X178386598Y-183621900D02*
X178600884Y-183693328D01*
X178600884Y-183693328D02*
X178958026Y-183693328D01*
X178958026Y-183693328D02*
X179100884Y-183621900D01*
X179100884Y-183621900D02*
X179172312Y-183550471D01*
X179172312Y-183550471D02*
X179243741Y-183407614D01*
X179243741Y-183407614D02*
X179243741Y-183264757D01*
X179243741Y-183264757D02*
X179172312Y-183121900D01*
X179172312Y-183121900D02*
X179100884Y-183050471D01*
X179100884Y-183050471D02*
X178958026Y-182979042D01*
X178958026Y-182979042D02*
X178672312Y-182907614D01*
X178672312Y-182907614D02*
X178529455Y-182836185D01*
X178529455Y-182836185D02*
X178458026Y-182764757D01*
X178458026Y-182764757D02*
X178386598Y-182621900D01*
X178386598Y-182621900D02*
X178386598Y-182479042D01*
X178386598Y-182479042D02*
X178458026Y-182336185D01*
X178458026Y-182336185D02*
X178529455Y-182264757D01*
X178529455Y-182264757D02*
X178672312Y-182193328D01*
X178672312Y-182193328D02*
X179029455Y-182193328D01*
X179029455Y-182193328D02*
X179243741Y-182264757D01*
X179886597Y-183693328D02*
X179886597Y-182193328D01*
X180529455Y-183693328D02*
X180529455Y-182907614D01*
X180529455Y-182907614D02*
X180458026Y-182764757D01*
X180458026Y-182764757D02*
X180315169Y-182693328D01*
X180315169Y-182693328D02*
X180100883Y-182693328D01*
X180100883Y-182693328D02*
X179958026Y-182764757D01*
X179958026Y-182764757D02*
X179886597Y-182836185D01*
X181815169Y-183621900D02*
X181672312Y-183693328D01*
X181672312Y-183693328D02*
X181386598Y-183693328D01*
X181386598Y-183693328D02*
X181243740Y-183621900D01*
X181243740Y-183621900D02*
X181172312Y-183479042D01*
X181172312Y-183479042D02*
X181172312Y-182907614D01*
X181172312Y-182907614D02*
X181243740Y-182764757D01*
X181243740Y-182764757D02*
X181386598Y-182693328D01*
X181386598Y-182693328D02*
X181672312Y-182693328D01*
X181672312Y-182693328D02*
X181815169Y-182764757D01*
X181815169Y-182764757D02*
X181886598Y-182907614D01*
X181886598Y-182907614D02*
X181886598Y-183050471D01*
X181886598Y-183050471D02*
X181172312Y-183193328D01*
X183100883Y-183621900D02*
X182958026Y-183693328D01*
X182958026Y-183693328D02*
X182672312Y-183693328D01*
X182672312Y-183693328D02*
X182529454Y-183621900D01*
X182529454Y-183621900D02*
X182458026Y-183479042D01*
X182458026Y-183479042D02*
X182458026Y-182907614D01*
X182458026Y-182907614D02*
X182529454Y-182764757D01*
X182529454Y-182764757D02*
X182672312Y-182693328D01*
X182672312Y-182693328D02*
X182958026Y-182693328D01*
X182958026Y-182693328D02*
X183100883Y-182764757D01*
X183100883Y-182764757D02*
X183172312Y-182907614D01*
X183172312Y-182907614D02*
X183172312Y-183050471D01*
X183172312Y-183050471D02*
X182458026Y-183193328D01*
X183600883Y-182693328D02*
X184172311Y-182693328D01*
X183815168Y-182193328D02*
X183815168Y-183479042D01*
X183815168Y-183479042D02*
X183886597Y-183621900D01*
X183886597Y-183621900D02*
X184029454Y-183693328D01*
X184029454Y-183693328D02*
X184172311Y-183693328D01*
X184672311Y-183550471D02*
X184743740Y-183621900D01*
X184743740Y-183621900D02*
X184672311Y-183693328D01*
X184672311Y-183693328D02*
X184600883Y-183621900D01*
X184600883Y-183621900D02*
X184672311Y-183550471D01*
X184672311Y-183550471D02*
X184672311Y-183693328D01*
X184672311Y-182764757D02*
X184743740Y-182836185D01*
X184743740Y-182836185D02*
X184672311Y-182907614D01*
X184672311Y-182907614D02*
X184600883Y-182836185D01*
X184600883Y-182836185D02*
X184672311Y-182764757D01*
X184672311Y-182764757D02*
X184672311Y-182907614D01*
D10*
D11*
X197002200Y-191507200D02*
X197002200Y-194507200D01*
D10*
D11*
X261002200Y-191507200D02*
X261002200Y-198007200D01*
D14*
%TO.C,N1*%
G36*
X148253779Y-144922144D02*
G01*
X148031527Y-145647104D01*
X147594966Y-145662973D01*
X148174403Y-144882456D01*
X148253779Y-144922144D01*
G37*
G36*
X153743700Y-148411851D02*
G01*
X153743700Y-148417153D01*
X153344171Y-148438309D01*
X153463236Y-148144624D01*
X153862764Y-148123467D01*
X153743700Y-148411851D01*
G37*
G36*
X150777712Y-148575898D02*
G01*
X150378191Y-148597047D01*
X150759188Y-147657784D01*
X150796236Y-147565186D01*
X151026422Y-147551957D01*
X151195757Y-147544015D01*
X150777712Y-148575898D01*
G37*
G36*
X87860127Y-120260865D02*
G01*
X87924185Y-120264344D01*
X87988102Y-120270162D01*
X88051761Y-120278230D01*
X88115041Y-120288461D01*
X88155693Y-120297179D01*
X88209790Y-120311060D01*
X88349380Y-120352406D01*
X88515932Y-120408683D01*
X88603732Y-120441228D01*
X88691569Y-120476076D01*
X88777207Y-120512748D01*
X88858412Y-120550768D01*
X88932948Y-120589660D01*
X88998582Y-120628945D01*
X89027362Y-120648586D01*
X89053078Y-120668148D01*
X89075452Y-120687569D01*
X89094202Y-120706790D01*
X89109051Y-120725753D01*
X89119719Y-120744396D01*
X89125926Y-120762661D01*
X89127394Y-120780488D01*
X89130934Y-120780488D01*
X89097164Y-120821139D01*
X89047772Y-120875224D01*
X88910975Y-121014716D01*
X88738255Y-121181005D01*
X88547326Y-121356130D01*
X88355899Y-121522129D01*
X88265534Y-121596094D01*
X88181686Y-121661043D01*
X88106571Y-121714729D01*
X88042401Y-121754909D01*
X88015112Y-121769232D01*
X87991391Y-121779337D01*
X87971512Y-121784942D01*
X87955754Y-121785768D01*
X87123925Y-120433595D01*
X87180361Y-120402139D01*
X87238087Y-120374078D01*
X87296986Y-120349326D01*
X87356936Y-120327793D01*
X87417821Y-120309392D01*
X87479519Y-120294034D01*
X87541912Y-120281631D01*
X87604881Y-120272096D01*
X87668306Y-120265340D01*
X87732068Y-120261275D01*
X87796048Y-120259813D01*
X87860127Y-120260865D01*
G37*
G36*
X158308237Y-144101854D02*
G01*
X159834879Y-144101854D01*
X158009257Y-144818879D01*
X157953699Y-144953820D01*
X158112452Y-144953820D01*
X158123034Y-145273950D01*
X158194468Y-145189286D01*
X158961764Y-145189286D01*
X158972346Y-145480333D01*
X158973677Y-145479012D01*
X158974343Y-145478351D01*
X158975008Y-145477685D01*
X159165507Y-145477685D01*
X158392924Y-147356240D01*
X154612025Y-147356240D01*
X154466509Y-147716066D01*
X154183405Y-147731942D01*
X154355379Y-147991227D01*
X154104021Y-148605066D01*
X153670100Y-148922570D01*
X152998057Y-148949037D01*
X153379061Y-149173928D01*
X152064082Y-149245370D01*
X151341761Y-149285043D01*
X150153788Y-149348542D01*
X150365160Y-149165994D01*
X150606242Y-149165994D01*
X151373530Y-149123666D01*
X151296793Y-149052224D01*
X152077319Y-148366967D01*
X152236071Y-148994027D01*
X152058802Y-149086625D01*
X152849902Y-149044297D01*
X152849239Y-149044289D01*
X152848579Y-149044284D01*
X152847262Y-149044282D01*
X152704386Y-148962258D01*
X152591678Y-148557443D01*
X153024531Y-148557443D01*
X153180636Y-148792924D01*
X153614558Y-148769120D01*
X153974390Y-148504541D01*
X154016718Y-148396051D01*
X154175471Y-148007119D01*
X154019373Y-147771638D01*
X153606623Y-147792794D01*
X153762720Y-147406511D01*
X154162249Y-147385339D01*
X154085512Y-147575845D01*
X154358034Y-147559976D01*
X154476434Y-147267930D01*
X154398165Y-147149858D01*
X154815768Y-147149858D01*
X158255350Y-147149858D01*
X158861246Y-145678773D01*
X158030451Y-145678773D01*
X157966959Y-145678773D01*
X155805308Y-145678773D01*
X155434893Y-145678773D01*
X155360812Y-145853410D01*
X155167658Y-146313783D01*
X154815768Y-147149858D01*
X154398165Y-147149858D01*
X154320994Y-147033441D01*
X153887072Y-147057260D01*
X153527239Y-147321839D01*
X153024531Y-148557443D01*
X152591678Y-148557443D01*
X152445086Y-148030923D01*
X153699213Y-146919671D01*
X152934557Y-146962014D01*
X153037752Y-147046678D01*
X152347193Y-147668443D01*
X152209612Y-147094300D01*
X152241358Y-147078431D01*
X152400111Y-146991113D01*
X151593134Y-147036103D01*
X151720141Y-147118127D01*
X151762476Y-147266290D01*
X151966204Y-147988595D01*
X150606242Y-149165994D01*
X150365160Y-149165994D01*
X150444834Y-149097184D01*
X150132624Y-149113061D01*
X149950060Y-148837899D01*
X149830996Y-149128930D01*
X148645663Y-149192430D01*
X148715472Y-149020463D01*
X148883814Y-149020463D01*
X149722544Y-148975488D01*
X149827829Y-148716188D01*
X150061190Y-148716188D01*
X150217295Y-148951669D01*
X150648569Y-148927865D01*
X151008402Y-148663278D01*
X151138048Y-148340478D01*
X151225352Y-148126168D01*
X151508463Y-147427667D01*
X151474062Y-147377397D01*
X151352358Y-147192186D01*
X150921084Y-147216005D01*
X150561259Y-147480584D01*
X150436900Y-147787492D01*
X150061190Y-148716188D01*
X149827829Y-148716188D01*
X149865427Y-148623590D01*
X149308284Y-148652492D01*
X149426195Y-148361650D01*
X149780741Y-148343126D01*
X150069132Y-148131463D01*
X150167033Y-147893350D01*
X150349589Y-147443559D01*
X150225237Y-147253045D01*
X149799265Y-147276864D01*
X149510866Y-147488534D01*
X149378573Y-147813966D01*
X149648447Y-147798089D01*
X149725176Y-147607598D01*
X150016222Y-147591722D01*
X149852183Y-147993875D01*
X149497645Y-148012399D01*
X149209246Y-148224061D01*
X149188082Y-148274331D01*
X148883814Y-149020463D01*
X148715472Y-149020463D01*
X148862620Y-148657983D01*
X146780352Y-146967294D01*
X146796221Y-146967294D01*
X147383601Y-146935540D01*
X148719744Y-146858804D01*
X149648432Y-146808534D01*
X150714701Y-146752984D01*
X152725535Y-146647142D01*
X154855433Y-146533372D01*
X155096201Y-145959230D01*
X155259443Y-145570298D01*
X156450884Y-145570298D01*
X156456179Y-145570298D01*
X157932551Y-145570298D01*
X158130999Y-145570298D01*
X158133639Y-145570298D01*
X158773936Y-145570298D01*
X158765993Y-145387735D01*
X158287096Y-145387735D01*
X158130999Y-145570298D01*
X157932551Y-145570298D01*
X157916674Y-145152253D01*
X157824068Y-145152253D01*
X157146738Y-145152253D01*
X156924486Y-145152253D01*
X156813364Y-145152253D01*
X156641383Y-145350694D01*
X156450884Y-145570298D01*
X155259443Y-145570298D01*
X155481544Y-145041131D01*
X157130862Y-145041131D01*
X157432490Y-145041131D01*
X157699725Y-145041131D01*
X157752642Y-144914125D01*
X158091311Y-144096574D01*
X158451144Y-143231378D01*
X157884928Y-143231378D01*
X157525095Y-144096574D01*
X157130862Y-145041131D01*
X155481544Y-145041131D01*
X155490427Y-145019967D01*
X155617434Y-144718331D01*
X155924349Y-144718331D01*
X156620203Y-144101854D01*
X157300188Y-144101854D01*
X157744685Y-143035592D01*
X158750094Y-143035592D01*
X158308237Y-144101854D01*
G37*
G36*
X150801699Y-143964357D02*
G01*
X150904895Y-143750040D01*
X156577555Y-143750040D01*
X156185969Y-144096651D01*
X155672679Y-144554384D01*
X155394870Y-144554384D01*
X154651393Y-146372072D01*
X153757098Y-146419695D01*
X153871594Y-146144518D01*
X154140742Y-146144518D01*
X154471469Y-146125994D01*
X155220233Y-144303011D01*
X155572131Y-144303011D01*
X155799662Y-144096628D01*
X155905497Y-144004030D01*
X154675189Y-144004030D01*
X154635501Y-144096628D01*
X154632869Y-144096651D01*
X154542910Y-144308313D01*
X154905391Y-144308313D01*
X154140742Y-146144518D01*
X153871594Y-146144518D01*
X153907916Y-146057222D01*
X153397273Y-146438219D01*
X150783183Y-146575792D01*
X150911924Y-146297983D01*
X151185359Y-146297983D01*
X152442126Y-146231836D01*
X152407363Y-145964601D01*
X152606158Y-145964601D01*
X152754329Y-146215959D01*
X153296717Y-146186861D01*
X153667132Y-145911684D01*
X153989924Y-145147036D01*
X153847049Y-144903620D01*
X153405192Y-144914202D01*
X153622149Y-144416780D01*
X153987277Y-144411501D01*
X153884089Y-144649614D01*
X154201587Y-144644335D01*
X154370929Y-144247461D01*
X154286258Y-144096651D01*
X154233340Y-144004030D01*
X153722697Y-144004030D01*
X153587756Y-144096651D01*
X153593058Y-144096651D01*
X153362872Y-144255388D01*
X153040080Y-144982996D01*
X153185595Y-145231707D01*
X153632747Y-145218477D01*
X153410495Y-145734415D01*
X153042720Y-145750292D01*
X153169726Y-145459261D01*
X152823123Y-145472483D01*
X152606158Y-145964601D01*
X152407363Y-145964601D01*
X152399791Y-145906389D01*
X151722461Y-145938135D01*
X152026728Y-145271395D01*
X152569125Y-145255526D01*
X152714640Y-144932726D01*
X152177539Y-144945948D01*
X152457995Y-144329485D01*
X153103579Y-144324182D01*
X153331118Y-144101946D01*
X153423724Y-144009333D01*
X152246325Y-144009333D01*
X152203990Y-144101946D01*
X152205317Y-144099290D01*
X152206645Y-144096651D01*
X151185359Y-146297983D01*
X150911924Y-146297983D01*
X151235621Y-145599481D01*
X150960452Y-145607424D01*
X150492144Y-146589014D01*
X147415034Y-146761003D01*
X147568492Y-146268885D01*
X147473246Y-146274164D01*
X147097529Y-146779528D01*
X147094888Y-146778195D01*
X147092242Y-146776880D01*
X144327342Y-146930323D01*
X144576052Y-146403803D01*
X144060115Y-146940920D01*
X142819217Y-147007067D01*
X143089953Y-146716013D01*
X143435710Y-146716013D01*
X143949000Y-146689562D01*
X145041728Y-145551859D01*
X145285151Y-145300501D01*
X145359233Y-145350771D01*
X145203135Y-145681497D01*
X144742762Y-146655161D01*
X145279864Y-146631342D01*
X145713786Y-146096895D01*
X146298510Y-145377222D01*
X146375239Y-145422213D01*
X145996890Y-146327082D01*
X145885760Y-146594316D01*
X146303798Y-146575792D01*
X146309085Y-146575792D01*
X146317739Y-146554621D01*
X146510173Y-146554621D01*
X146957324Y-146530802D01*
X147333033Y-146025453D01*
X147912471Y-146001635D01*
X147759013Y-146488474D01*
X148208812Y-146464655D01*
X148323959Y-146088953D01*
X148433688Y-146088953D01*
X148650653Y-146435556D01*
X149314761Y-146398508D01*
X149365968Y-146364130D01*
X149920649Y-146364130D01*
X150322810Y-146342958D01*
X150793772Y-145358713D01*
X151333522Y-145342844D01*
X151492274Y-145006815D01*
X150957820Y-145020044D01*
X151283259Y-144337427D01*
X151931491Y-144332132D01*
X152039973Y-144099298D01*
X152082309Y-144009348D01*
X151063662Y-144009348D01*
X151018679Y-144099298D01*
X151018664Y-144096651D01*
X149920649Y-146364130D01*
X149365968Y-146364130D01*
X149878321Y-146020159D01*
X150362506Y-145030619D01*
X149507899Y-145051790D01*
X149804232Y-145393099D01*
X149552874Y-145901110D01*
X148936396Y-145927561D01*
X149378253Y-145054438D01*
X149679889Y-144459124D01*
X150272548Y-144453844D01*
X150076762Y-144848070D01*
X150460406Y-144840128D01*
X150714404Y-144316255D01*
X150582118Y-144099298D01*
X150515971Y-143988161D01*
X149896846Y-143988161D01*
X149714282Y-144099298D01*
X149341220Y-144329485D01*
X148438990Y-146088953D01*
X148433688Y-146088953D01*
X148323959Y-146088953D01*
X148933764Y-144099283D01*
X148962863Y-144006685D01*
X148431048Y-144006685D01*
X148362254Y-144099283D01*
X146510173Y-146554621D01*
X146317739Y-146554621D01*
X147322436Y-144096651D01*
X147356837Y-144009333D01*
X146949374Y-144009333D01*
X146877940Y-144096651D01*
X145877818Y-145295198D01*
X145801081Y-145247576D01*
X146293208Y-144096651D01*
X146330249Y-144009333D01*
X145364520Y-144009333D01*
X145449191Y-144096651D01*
X145668795Y-144316240D01*
X144745402Y-145308428D01*
X143435710Y-146716013D01*
X143089953Y-146716013D01*
X144546946Y-145149683D01*
X145316882Y-144324182D01*
X145091990Y-144096651D01*
X144753321Y-143755342D01*
X146719172Y-143755342D01*
X146597468Y-144038446D01*
X146835589Y-143755342D01*
X147740466Y-143755342D01*
X147600238Y-144096651D01*
X147071070Y-145390467D01*
X148047389Y-144096651D01*
X148309321Y-143750040D01*
X149312091Y-143750040D01*
X149206263Y-144096651D01*
X149200976Y-144115168D01*
X149230075Y-144096651D01*
X149822741Y-143728876D01*
X150658824Y-143728876D01*
X150801699Y-143964357D01*
G37*
G36*
X93581659Y-127310354D02*
G01*
X93608654Y-127313129D01*
X93634956Y-127317838D01*
X93660418Y-127324525D01*
X93684898Y-127333235D01*
X93708249Y-127344014D01*
X93730329Y-127356908D01*
X93750991Y-127371961D01*
X93770092Y-127389219D01*
X93787487Y-127408727D01*
X93803032Y-127430531D01*
X93816582Y-127454676D01*
X93827992Y-127481208D01*
X93837119Y-127510172D01*
X93843817Y-127541613D01*
X93847941Y-127575576D01*
X93849348Y-127612108D01*
X93848429Y-127639138D01*
X93845725Y-127664543D01*
X93841319Y-127688418D01*
X93835293Y-127710860D01*
X93827730Y-127731964D01*
X93818712Y-127751826D01*
X93808321Y-127770542D01*
X93796640Y-127788209D01*
X93783750Y-127804921D01*
X93769735Y-127820776D01*
X93754676Y-127835868D01*
X93738657Y-127850294D01*
X93704062Y-127877530D01*
X93666611Y-127903253D01*
X93501407Y-128006349D01*
X93459549Y-128036012D01*
X93418784Y-128068764D01*
X93399018Y-128086539D01*
X93379773Y-128105374D01*
X93361130Y-128125365D01*
X93343172Y-128146608D01*
X93309455Y-128191653D01*
X93279678Y-128236511D01*
X93253386Y-128281161D01*
X93230123Y-128325584D01*
X93209431Y-128369758D01*
X93190854Y-128413662D01*
X93173937Y-128457276D01*
X93158223Y-128500579D01*
X93128578Y-128586169D01*
X93098269Y-128670267D01*
X93081725Y-128711705D01*
X93063646Y-128752707D01*
X93043576Y-128793253D01*
X93021059Y-128833322D01*
X93012891Y-128845722D01*
X93003707Y-128857730D01*
X92993591Y-128869393D01*
X92982627Y-128880755D01*
X92970898Y-128891860D01*
X92958488Y-128902753D01*
X92931958Y-128924082D01*
X92815314Y-129009865D01*
X92786866Y-129033217D01*
X92773209Y-129045424D01*
X92760041Y-129058046D01*
X92747446Y-129071127D01*
X92735508Y-129084711D01*
X92724310Y-129098843D01*
X92713935Y-129113569D01*
X92704468Y-129128932D01*
X92695992Y-129144978D01*
X92688591Y-129161751D01*
X92682348Y-129179296D01*
X92677347Y-129197657D01*
X92673671Y-129216880D01*
X92671404Y-129237009D01*
X92670630Y-129258088D01*
X92674713Y-129264227D01*
X92680895Y-129268128D01*
X92689036Y-129269917D01*
X92698995Y-129269721D01*
X92710632Y-129267666D01*
X92723805Y-129263878D01*
X92738374Y-129258485D01*
X92754199Y-129251612D01*
X92789052Y-129233932D01*
X92827240Y-129211850D01*
X92867636Y-129186377D01*
X92909116Y-129158524D01*
X92950554Y-129129302D01*
X92990826Y-129099723D01*
X93063369Y-129043536D01*
X93117743Y-128998053D01*
X93135304Y-128981852D01*
X93144947Y-128971361D01*
X93157433Y-128954474D01*
X93169050Y-128937016D01*
X93189927Y-128900509D01*
X93208087Y-128862083D01*
X93224038Y-128821981D01*
X93238289Y-128780449D01*
X93251346Y-128737728D01*
X93275917Y-128649700D01*
X93301815Y-128559845D01*
X93316532Y-128514842D01*
X93333105Y-128470114D01*
X93352043Y-128425904D01*
X93373854Y-128382456D01*
X93399045Y-128340014D01*
X93413067Y-128319247D01*
X93428125Y-128298822D01*
X93440478Y-128283882D01*
X93453608Y-128269560D01*
X93467464Y-128255807D01*
X93481995Y-128242578D01*
X93497147Y-128229827D01*
X93512870Y-128217505D01*
X93529112Y-128205567D01*
X93545820Y-128193966D01*
X93562943Y-128182656D01*
X93580429Y-128171589D01*
X93616282Y-128149999D01*
X93690062Y-128107690D01*
X93702201Y-128101481D01*
X93715328Y-128096102D01*
X93729354Y-128091511D01*
X93744187Y-128087667D01*
X93759739Y-128084527D01*
X93775919Y-128082052D01*
X93792637Y-128080199D01*
X93809803Y-128078926D01*
X93845118Y-128077958D01*
X93881143Y-128078814D01*
X93917158Y-128081164D01*
X93952442Y-128084676D01*
X93986274Y-128089017D01*
X94017933Y-128093857D01*
X94071851Y-128103701D01*
X94121904Y-128114763D01*
X94121904Y-128323594D01*
X94121989Y-128336495D01*
X94121583Y-128349303D01*
X94120693Y-128362009D01*
X94119326Y-128374606D01*
X94117491Y-128387083D01*
X94115193Y-128399432D01*
X94112441Y-128411643D01*
X94109240Y-128423708D01*
X94105599Y-128435617D01*
X94101524Y-128447361D01*
X94097022Y-128458932D01*
X94092101Y-128470319D01*
X94086768Y-128481515D01*
X94081030Y-128492510D01*
X94074894Y-128503295D01*
X94068367Y-128513861D01*
X94061457Y-128524199D01*
X94054170Y-128534299D01*
X94046513Y-128544153D01*
X94038494Y-128553752D01*
X94030120Y-128563087D01*
X94021398Y-128572148D01*
X94012334Y-128580926D01*
X94002937Y-128589413D01*
X93993214Y-128597599D01*
X93983171Y-128605476D01*
X93972815Y-128613034D01*
X93962155Y-128620263D01*
X93951196Y-128627156D01*
X93939946Y-128633703D01*
X93928412Y-128639895D01*
X93916601Y-128645723D01*
X93882114Y-128663319D01*
X93847778Y-128682809D01*
X93813742Y-128704010D01*
X93780157Y-128726740D01*
X93747174Y-128750820D01*
X93714942Y-128776065D01*
X93683613Y-128802297D01*
X93653336Y-128829332D01*
X93624263Y-128856989D01*
X93596542Y-128885087D01*
X93570326Y-128913444D01*
X93545763Y-128941879D01*
X93523005Y-128970211D01*
X93502201Y-128998256D01*
X93483503Y-129025836D01*
X93467060Y-129052766D01*
X93434459Y-129110331D01*
X93408842Y-129159034D01*
X93388981Y-129200053D01*
X93373646Y-129234565D01*
X93351640Y-129288774D01*
X93342512Y-129310826D01*
X93332995Y-129331079D01*
X93321860Y-129350709D01*
X93307879Y-129370894D01*
X93289821Y-129392811D01*
X93266460Y-129417637D01*
X93236565Y-129446548D01*
X93198908Y-129480722D01*
X93152260Y-129521336D01*
X93095392Y-129569566D01*
X93078326Y-129584430D01*
X93062312Y-129599127D01*
X93047366Y-129613612D01*
X93033503Y-129627842D01*
X93020740Y-129641774D01*
X93009092Y-129655364D01*
X92998574Y-129668569D01*
X92989202Y-129681346D01*
X92980991Y-129693651D01*
X92973958Y-129705441D01*
X92968117Y-129716671D01*
X92963484Y-129727300D01*
X92960075Y-129737283D01*
X92957905Y-129746577D01*
X92956989Y-129755139D01*
X92957345Y-129762925D01*
X92958986Y-129769891D01*
X92961928Y-129775995D01*
X92966188Y-129781193D01*
X92971780Y-129785441D01*
X92978720Y-129788696D01*
X92987024Y-129790915D01*
X92996707Y-129792054D01*
X93007785Y-129792070D01*
X93020274Y-129790920D01*
X93034188Y-129788559D01*
X93049544Y-129784945D01*
X93066357Y-129780034D01*
X93084642Y-129773783D01*
X93104415Y-129766148D01*
X93125693Y-129757086D01*
X93148489Y-129746553D01*
X93190448Y-129724593D01*
X93229511Y-129700624D01*
X93265873Y-129674796D01*
X93299728Y-129647255D01*
X93331270Y-129618152D01*
X93360694Y-129587633D01*
X93388195Y-129555848D01*
X93413966Y-129522945D01*
X93438202Y-129489072D01*
X93461098Y-129454378D01*
X93503647Y-129383121D01*
X93581216Y-129237282D01*
X93619347Y-129165076D01*
X93659117Y-129094928D01*
X93702081Y-129028026D01*
X93725247Y-128996163D01*
X93749794Y-128965557D01*
X93775918Y-128936356D01*
X93803813Y-128908709D01*
X93833673Y-128882763D01*
X93865692Y-128858668D01*
X93900066Y-128836572D01*
X93936988Y-128816623D01*
X93976653Y-128798970D01*
X94019255Y-128783761D01*
X94060644Y-128772945D01*
X94099864Y-128766890D01*
X94136925Y-128765357D01*
X94171835Y-128768109D01*
X94204604Y-128774909D01*
X94235240Y-128785518D01*
X94263753Y-128799698D01*
X94290152Y-128817212D01*
X94314446Y-128837821D01*
X94336644Y-128861288D01*
X94356754Y-128887375D01*
X94374787Y-128915844D01*
X94390751Y-128946457D01*
X94404655Y-128978976D01*
X94416508Y-129013164D01*
X94426320Y-129048783D01*
X94434099Y-129085594D01*
X94439855Y-129123360D01*
X94443596Y-129161842D01*
X94445332Y-129200804D01*
X94445072Y-129240007D01*
X94442824Y-129279213D01*
X94438598Y-129318185D01*
X94432404Y-129356684D01*
X94424249Y-129394473D01*
X94414144Y-129431314D01*
X94402096Y-129466969D01*
X94388116Y-129501200D01*
X94372212Y-129533769D01*
X94354394Y-129564438D01*
X94334670Y-129592970D01*
X94313049Y-129619127D01*
X94258537Y-129563934D01*
X94206432Y-129516909D01*
X94156634Y-129477674D01*
X94109040Y-129445850D01*
X94063548Y-129421059D01*
X94020057Y-129402925D01*
X93978466Y-129391069D01*
X93938671Y-129385112D01*
X93900572Y-129384678D01*
X93864067Y-129389388D01*
X93829054Y-129398865D01*
X93795431Y-129412731D01*
X93763097Y-129430607D01*
X93731949Y-129452116D01*
X93701886Y-129476880D01*
X93672807Y-129504521D01*
X93617191Y-129566923D01*
X93564287Y-129636299D01*
X93463357Y-129783882D01*
X93413704Y-129856042D01*
X93363506Y-129923085D01*
X93311950Y-129981987D01*
X93285408Y-130007441D01*
X93258221Y-130029725D01*
X93234882Y-130045337D01*
X93208192Y-130059753D01*
X93178426Y-130073127D01*
X93145863Y-130085613D01*
X93073455Y-130108527D01*
X92993186Y-130129721D01*
X92817943Y-130171839D01*
X92727408Y-130195211D01*
X92637889Y-130221756D01*
X92551605Y-130252699D01*
X92510370Y-130270201D01*
X92470776Y-130289261D01*
X92433100Y-130310033D01*
X92397621Y-130332668D01*
X92364615Y-130357321D01*
X92334359Y-130384143D01*
X92307132Y-130413288D01*
X92283210Y-130444909D01*
X92262871Y-130479159D01*
X92246392Y-130516190D01*
X92234051Y-130556156D01*
X92226125Y-130599210D01*
X92222892Y-130645504D01*
X92224629Y-130695192D01*
X92251907Y-130679174D01*
X92278097Y-130661781D01*
X92303354Y-130643217D01*
X92327833Y-130623683D01*
X92351689Y-130603381D01*
X92375079Y-130582514D01*
X92421082Y-130539893D01*
X92467084Y-130497436D01*
X92490474Y-130476775D01*
X92514331Y-130456762D01*
X92538810Y-130437598D01*
X92564066Y-130419488D01*
X92590256Y-130402631D01*
X92617535Y-130387231D01*
X92654743Y-130370416D01*
X92698008Y-130354420D01*
X92746333Y-130339149D01*
X92798723Y-130324512D01*
X92911717Y-130296761D01*
X93029024Y-130270421D01*
X93142682Y-130244745D01*
X93244725Y-130218986D01*
X93288902Y-130205842D01*
X93327189Y-130192397D01*
X93358591Y-130178558D01*
X93371398Y-130171462D01*
X93382111Y-130164232D01*
X93395245Y-130152992D01*
X93408125Y-130139937D01*
X93420786Y-130125203D01*
X93433263Y-130108923D01*
X93457810Y-130072268D01*
X93482051Y-130031049D01*
X93581661Y-129842118D01*
X93608651Y-129794263D01*
X93637045Y-129748316D01*
X93667130Y-129705355D01*
X93682895Y-129685332D01*
X93699190Y-129666460D01*
X93716051Y-129648874D01*
X93733511Y-129632708D01*
X93751609Y-129618098D01*
X93770378Y-129605178D01*
X93789856Y-129594084D01*
X93810076Y-129584949D01*
X93831076Y-129577909D01*
X93852890Y-129573099D01*
X93918720Y-129565196D01*
X93977038Y-129565091D01*
X94028153Y-129572347D01*
X94072372Y-129586525D01*
X94110004Y-129607190D01*
X94141356Y-129633905D01*
X94166736Y-129666233D01*
X94186452Y-129703736D01*
X94200812Y-129745979D01*
X94210123Y-129792524D01*
X94214694Y-129842934D01*
X94214832Y-129896774D01*
X94210845Y-129953604D01*
X94203042Y-130012990D01*
X94177216Y-130137679D01*
X94139817Y-130267346D01*
X94093307Y-130398496D01*
X94040150Y-130527634D01*
X93982809Y-130651265D01*
X93923746Y-130765895D01*
X93865425Y-130868029D01*
X93810308Y-130954172D01*
X93760859Y-131020830D01*
X93661525Y-131129631D01*
X93555835Y-131222772D01*
X93444550Y-131300789D01*
X93328428Y-131364219D01*
X93208228Y-131413600D01*
X93084708Y-131449470D01*
X92958629Y-131472365D01*
X92830748Y-131482823D01*
X92701825Y-131481381D01*
X92572619Y-131468576D01*
X92443888Y-131444946D01*
X92316393Y-131411029D01*
X92190891Y-131367360D01*
X92068141Y-131314478D01*
X91948903Y-131252921D01*
X91833936Y-131183224D01*
X91723998Y-131105926D01*
X91619849Y-131021564D01*
X91522247Y-130930675D01*
X91431952Y-130833797D01*
X91349722Y-130731467D01*
X91276317Y-130624221D01*
X91212495Y-130512599D01*
X91159015Y-130397135D01*
X91116637Y-130278369D01*
X91086119Y-130156838D01*
X91068220Y-130033078D01*
X91063699Y-129907627D01*
X91073316Y-129781022D01*
X91097829Y-129653801D01*
X91137996Y-129526501D01*
X91194578Y-129399659D01*
X91199839Y-129389847D01*
X91205639Y-129380312D01*
X91211935Y-129371044D01*
X91218685Y-129362028D01*
X91225848Y-129353254D01*
X91233381Y-129344708D01*
X91241241Y-129336379D01*
X91249388Y-129328254D01*
X91266370Y-129312567D01*
X91283990Y-129297549D01*
X91301910Y-129283102D01*
X91319795Y-129269126D01*
X91354106Y-129242198D01*
X91369859Y-129229047D01*
X91384228Y-129215975D01*
X91390788Y-129209438D01*
X91396876Y-129202883D01*
X91402449Y-129196299D01*
X91407465Y-129189672D01*
X91411882Y-129182991D01*
X91415659Y-129176244D01*
X91418752Y-129169417D01*
X91421120Y-129162500D01*
X91423089Y-129148992D01*
X91421896Y-129131224D01*
X91411233Y-129084035D01*
X91391549Y-129023190D01*
X91365259Y-128950943D01*
X91302525Y-128781266D01*
X91270915Y-128688346D01*
X91242364Y-128593047D01*
X91219288Y-128497624D01*
X91210559Y-128450571D01*
X91204104Y-128404332D01*
X91200227Y-128359190D01*
X91199229Y-128315427D01*
X91201411Y-128273324D01*
X91207077Y-128233164D01*
X91216528Y-128195228D01*
X91230066Y-128159798D01*
X91247993Y-128127157D01*
X91270611Y-128097586D01*
X91298223Y-128071367D01*
X91331130Y-128048782D01*
X91369634Y-128030113D01*
X91414038Y-128015642D01*
X91459105Y-128006784D01*
X91502048Y-128003892D01*
X91542857Y-128006648D01*
X91581524Y-128014734D01*
X91618038Y-128027832D01*
X91652392Y-128045622D01*
X91684576Y-128067788D01*
X91714580Y-128094010D01*
X91742397Y-128123971D01*
X91768016Y-128157351D01*
X91791429Y-128193834D01*
X91812627Y-128233101D01*
X91831601Y-128274833D01*
X91848341Y-128318713D01*
X91862838Y-128364421D01*
X91875084Y-128411641D01*
X91892784Y-128509339D01*
X91901369Y-128609261D01*
X91900766Y-128708862D01*
X91890902Y-128805596D01*
X91882475Y-128852092D01*
X91871705Y-128896917D01*
X91858584Y-128939751D01*
X91843102Y-128980278D01*
X91825251Y-129018178D01*
X91805021Y-129053134D01*
X91782404Y-129084827D01*
X91757389Y-129112939D01*
X91768009Y-129112939D01*
X91776314Y-129115046D01*
X91784626Y-129116725D01*
X91792935Y-129117983D01*
X91801228Y-129118826D01*
X91809492Y-129119262D01*
X91817716Y-129119298D01*
X91825886Y-129118941D01*
X91833991Y-129118198D01*
X91842018Y-129117077D01*
X91849955Y-129115585D01*
X91857789Y-129113728D01*
X91865509Y-129111514D01*
X91873102Y-129108950D01*
X91880555Y-129106043D01*
X91887857Y-129102800D01*
X91894995Y-129099228D01*
X91901956Y-129095335D01*
X91908729Y-129091128D01*
X91915301Y-129086613D01*
X91921660Y-129081798D01*
X91927793Y-129076690D01*
X91933689Y-129071297D01*
X91939334Y-129065624D01*
X91944716Y-129059680D01*
X91949824Y-129053472D01*
X91954645Y-129047006D01*
X91959166Y-129040290D01*
X91963376Y-129033331D01*
X91967262Y-129026135D01*
X91970811Y-129018711D01*
X91974011Y-129011066D01*
X91976851Y-129003206D01*
X91981552Y-129001217D01*
X91987005Y-128999865D01*
X91993170Y-128999099D01*
X92000011Y-128998873D01*
X92015568Y-128999840D01*
X92033376Y-129002379D01*
X92121094Y-129020467D01*
X92145642Y-129025028D01*
X92170636Y-129028826D01*
X92195775Y-129031474D01*
X92220759Y-129032581D01*
X92245287Y-129031760D01*
X92257285Y-129030504D01*
X92269057Y-129028621D01*
X92280564Y-129026060D01*
X92291770Y-129022775D01*
X92302635Y-129018715D01*
X92313124Y-129013833D01*
X92325084Y-129005224D01*
X92346750Y-128986940D01*
X92413561Y-128926779D01*
X92502275Y-128844219D01*
X92601607Y-128750127D01*
X92786999Y-128570820D01*
X92850493Y-128507341D01*
X92870003Y-128486899D01*
X92879475Y-128475801D01*
X92894905Y-128450495D01*
X92908753Y-128424384D01*
X92921139Y-128397514D01*
X92932182Y-128369929D01*
X92950717Y-128312798D01*
X92965311Y-128253355D01*
X92976919Y-128191961D01*
X92986494Y-128128981D01*
X93003362Y-127999712D01*
X93012564Y-127934150D01*
X93023550Y-127868453D01*
X93037273Y-127802984D01*
X93054688Y-127738106D01*
X93076749Y-127674183D01*
X93089820Y-127642693D01*
X93104410Y-127611577D01*
X93120638Y-127580882D01*
X93138625Y-127550652D01*
X93158488Y-127520932D01*
X93180348Y-127491769D01*
X93173267Y-127491769D01*
X93191713Y-127469792D01*
X93211776Y-127449021D01*
X93233314Y-127429503D01*
X93256180Y-127411282D01*
X93280232Y-127394404D01*
X93305324Y-127378914D01*
X93331311Y-127364858D01*
X93358050Y-127352281D01*
X93385395Y-127341228D01*
X93413203Y-127331745D01*
X93441328Y-127323878D01*
X93469626Y-127317670D01*
X93497953Y-127313169D01*
X93526164Y-127310419D01*
X93554114Y-127309465D01*
X93581659Y-127310354D01*
G37*
G36*
X85659043Y-118944028D02*
G01*
X86371614Y-118972296D01*
X86733153Y-118997388D01*
X87094722Y-119031467D01*
X87453720Y-119075791D01*
X87807543Y-119131621D01*
X88153588Y-119200218D01*
X88489253Y-119282840D01*
X88811934Y-119380748D01*
X89119029Y-119495201D01*
X89407934Y-119627461D01*
X89676047Y-119778787D01*
X89752049Y-119829903D01*
X89821012Y-119883619D01*
X89883299Y-119939815D01*
X89939278Y-119998374D01*
X89989311Y-120059178D01*
X90033765Y-120122110D01*
X90073003Y-120187050D01*
X90107392Y-120253882D01*
X90137296Y-120322487D01*
X90163079Y-120392747D01*
X90185107Y-120464545D01*
X90203745Y-120537762D01*
X90232309Y-120687982D01*
X90251690Y-120842465D01*
X90295770Y-121484141D01*
X90313026Y-121645778D01*
X90338613Y-121806016D01*
X90375453Y-121963910D01*
X90399004Y-122041683D01*
X90426463Y-122118516D01*
X90443476Y-122159530D01*
X90461930Y-122199647D01*
X90481734Y-122238923D01*
X90502794Y-122277417D01*
X90548315Y-122352283D01*
X90597751Y-122424702D01*
X90650359Y-122495130D01*
X90705400Y-122564023D01*
X90819811Y-122699028D01*
X90935052Y-122833370D01*
X90991130Y-122901433D01*
X91045191Y-122970698D01*
X91096493Y-123041623D01*
X91144295Y-123114663D01*
X91187857Y-123190275D01*
X91207815Y-123229188D01*
X91226435Y-123268915D01*
X91223023Y-123291564D01*
X91215611Y-123318201D01*
X91189786Y-123382456D01*
X91150968Y-123459726D01*
X91101162Y-123548056D01*
X90976616Y-123750076D01*
X90832200Y-123972877D01*
X90683968Y-124200821D01*
X90547973Y-124418271D01*
X90489581Y-124518174D01*
X90440268Y-124609588D01*
X90402041Y-124690560D01*
X90376906Y-124759134D01*
X90368553Y-124793340D01*
X90363267Y-124826333D01*
X90360835Y-124858208D01*
X90361046Y-124889058D01*
X90363689Y-124918977D01*
X90368553Y-124948059D01*
X90375425Y-124976399D01*
X90384096Y-125004090D01*
X90394353Y-125031226D01*
X90405986Y-125057902D01*
X90432532Y-125110246D01*
X90492831Y-125213539D01*
X90523204Y-125265991D01*
X90551471Y-125319984D01*
X90564287Y-125347792D01*
X90575943Y-125376268D01*
X90586228Y-125405504D01*
X90594930Y-125435595D01*
X90601837Y-125466635D01*
X90606740Y-125498718D01*
X90609425Y-125531938D01*
X90609683Y-125566388D01*
X90607301Y-125602164D01*
X90602069Y-125639358D01*
X90593776Y-125678064D01*
X90582209Y-125718377D01*
X90543202Y-125828270D01*
X90494650Y-125944935D01*
X90437708Y-126067427D01*
X90373533Y-126194803D01*
X90228108Y-126460433D01*
X90067626Y-126734276D01*
X89738490Y-127276403D01*
X89588336Y-127529588D01*
X89460126Y-127760789D01*
X89350492Y-127981046D01*
X89204935Y-128288370D01*
X88854837Y-129034635D01*
X88674685Y-129408784D01*
X88507393Y-129740416D01*
X88432381Y-129880165D01*
X88365156Y-129997136D01*
X88307244Y-130087280D01*
X88260168Y-130146547D01*
X88263708Y-130146547D01*
X88258246Y-130151653D01*
X88252489Y-130156369D01*
X88246453Y-130160719D01*
X88240154Y-130164728D01*
X88226834Y-130171823D01*
X88212659Y-130177850D01*
X88197758Y-130183005D01*
X88182261Y-130187486D01*
X88149996Y-130195216D01*
X88116901Y-130202613D01*
X88100367Y-130206680D01*
X88084014Y-130211256D01*
X88067972Y-130216536D01*
X88052371Y-130222719D01*
X88037340Y-130230001D01*
X88030079Y-130234116D01*
X88023009Y-130238580D01*
X87828824Y-130372366D01*
X87731005Y-130438989D01*
X87632315Y-130504493D01*
X87532464Y-130568172D01*
X87431161Y-130629322D01*
X87328116Y-130687237D01*
X87275849Y-130714761D01*
X87223038Y-130741212D01*
X86541701Y-130611843D01*
X86200804Y-130544776D01*
X85860696Y-130473520D01*
X85522081Y-130396125D01*
X85185665Y-130310643D01*
X84852152Y-130215122D01*
X84522248Y-130107614D01*
X84288628Y-129804688D01*
X84049699Y-129500105D01*
X83928243Y-129349163D01*
X83805459Y-129200170D01*
X83681349Y-129053916D01*
X83555910Y-128911188D01*
X83450148Y-128800418D01*
X83300499Y-128652189D01*
X82935579Y-128296618D01*
X82753326Y-128115906D01*
X82593224Y-127950999D01*
X82526638Y-127878632D01*
X82471782Y-127815210D01*
X82430717Y-127762397D01*
X82405509Y-127721856D01*
X82400574Y-127711083D01*
X82396353Y-127700003D01*
X82389836Y-127676941D01*
X82385528Y-127652707D01*
X82382999Y-127627338D01*
X82381817Y-127600869D01*
X82381554Y-127573337D01*
X82382058Y-127515229D01*
X82381966Y-127484725D01*
X82381069Y-127453303D01*
X82378939Y-127421000D01*
X82375144Y-127387852D01*
X82369255Y-127353894D01*
X82360840Y-127319164D01*
X82349470Y-127283697D01*
X82342542Y-127265698D01*
X82334714Y-127247529D01*
X82312595Y-127206146D01*
X82282870Y-127159519D01*
X82246726Y-127108464D01*
X82205349Y-127053795D01*
X82111651Y-126936868D01*
X82011274Y-126815253D01*
X81913718Y-126695462D01*
X81868967Y-126638285D01*
X81828482Y-126584008D01*
X81793452Y-126533443D01*
X81765065Y-126487404D01*
X81744507Y-126446707D01*
X81737535Y-126428615D01*
X81732966Y-126412164D01*
X81730292Y-126394909D01*
X81728831Y-126373997D01*
X81728470Y-126349923D01*
X81729094Y-126323179D01*
X81732841Y-126263650D01*
X81739160Y-126199350D01*
X81747138Y-126134220D01*
X81755863Y-126072202D01*
X81771902Y-125973260D01*
X81825143Y-125712192D01*
X81884564Y-125451705D01*
X82009505Y-124930814D01*
X82014886Y-124907104D01*
X82311113Y-124907104D01*
X82311727Y-124922408D01*
X82313700Y-124936924D01*
X82315191Y-124943763D01*
X82317016Y-124950258D01*
X82319207Y-124955525D01*
X82323058Y-124961989D01*
X82335322Y-124978231D01*
X82352979Y-124998434D01*
X82375199Y-125022049D01*
X82430009Y-125077316D01*
X82493116Y-125139634D01*
X82557881Y-125204606D01*
X82588812Y-125236714D01*
X82617669Y-125267837D01*
X82643622Y-125297425D01*
X82665841Y-125324928D01*
X82683498Y-125349798D01*
X82690356Y-125361073D01*
X82695763Y-125371484D01*
X82706838Y-125402741D01*
X82714346Y-125441714D01*
X82719656Y-125540575D01*
X82713682Y-125663599D01*
X82698418Y-125806316D01*
X82675852Y-125964256D01*
X82647977Y-126132950D01*
X82584263Y-126484722D01*
X82523203Y-126825873D01*
X82498646Y-126981293D01*
X82480727Y-127120649D01*
X82471435Y-127239472D01*
X82472762Y-127333293D01*
X82478030Y-127369431D01*
X82486700Y-127397642D01*
X82499020Y-127417367D01*
X82515239Y-127428048D01*
X82527710Y-127424004D01*
X82539266Y-127419831D01*
X82549946Y-127415525D01*
X82559789Y-127411083D01*
X82568833Y-127406502D01*
X82577117Y-127401776D01*
X82584681Y-127396902D01*
X82591563Y-127391877D01*
X82597802Y-127386696D01*
X82603437Y-127381356D01*
X82608507Y-127375852D01*
X82613050Y-127370181D01*
X82617106Y-127364339D01*
X82620714Y-127358321D01*
X82623911Y-127352125D01*
X82626739Y-127345746D01*
X82631436Y-127332425D01*
X82635118Y-127318325D01*
X82638094Y-127303416D01*
X82640676Y-127287668D01*
X82645903Y-127253527D01*
X82649169Y-127235073D01*
X82653286Y-127215654D01*
X82653287Y-127215654D01*
X82660532Y-127182021D01*
X83902801Y-127182021D01*
X83906714Y-127359863D01*
X83914194Y-127537538D01*
X83924827Y-127714881D01*
X83938197Y-127891725D01*
X83955286Y-127899655D01*
X83971411Y-127908158D01*
X83986627Y-127917207D01*
X84000986Y-127926774D01*
X84014541Y-127936831D01*
X84027345Y-127947350D01*
X84039452Y-127958303D01*
X84050915Y-127969662D01*
X84072120Y-127993487D01*
X84091387Y-128018604D01*
X84109139Y-128044788D01*
X84125802Y-128071818D01*
X84190070Y-128183926D01*
X84207666Y-128211836D01*
X84226725Y-128239253D01*
X84247672Y-128265955D01*
X84258985Y-128278968D01*
X84270930Y-128291719D01*
X84358753Y-128375718D01*
X84456826Y-128456475D01*
X84563953Y-128533987D01*
X84678935Y-128608248D01*
X84800575Y-128679252D01*
X84927675Y-128746994D01*
X85059037Y-128811470D01*
X85193463Y-128872674D01*
X85329756Y-128930601D01*
X85466718Y-128985247D01*
X85737858Y-129084670D01*
X85997300Y-129170903D01*
X86235462Y-129243905D01*
X85286823Y-129254518D01*
X85264820Y-129260676D01*
X85233078Y-129272093D01*
X85193227Y-129288134D01*
X85146895Y-129308168D01*
X85041299Y-129357682D01*
X84985291Y-129385898D01*
X84929314Y-129415575D01*
X84874997Y-129446082D01*
X84823967Y-129476786D01*
X84777852Y-129507054D01*
X84738281Y-129536254D01*
X84706882Y-129563753D01*
X84694755Y-129576666D01*
X84685282Y-129588918D01*
X84678666Y-129600427D01*
X84675110Y-129611116D01*
X84674819Y-129620906D01*
X84677995Y-129629716D01*
X84686274Y-129641578D01*
X84695157Y-129651346D01*
X84704603Y-129659128D01*
X84714574Y-129665027D01*
X84725030Y-129669151D01*
X84735931Y-129671604D01*
X84747237Y-129672493D01*
X84758910Y-129671923D01*
X84770910Y-129669999D01*
X84783197Y-129666827D01*
X84795731Y-129662514D01*
X84808473Y-129657164D01*
X84821384Y-129650883D01*
X84834424Y-129643777D01*
X84860732Y-129627512D01*
X84887082Y-129609215D01*
X84913157Y-129589730D01*
X84963217Y-129550579D01*
X84986570Y-129532604D01*
X85008383Y-129516821D01*
X85028340Y-129504077D01*
X85037523Y-129499109D01*
X85046124Y-129495218D01*
X85118445Y-129469539D01*
X85191963Y-129448075D01*
X85266550Y-129430563D01*
X85342076Y-129416738D01*
X85418410Y-129406335D01*
X85495424Y-129399089D01*
X85572987Y-129394737D01*
X85650970Y-129393013D01*
X85729243Y-129393654D01*
X85807677Y-129396394D01*
X85964509Y-129407116D01*
X86120429Y-129423062D01*
X86274399Y-129442117D01*
X86565761Y-129491180D01*
X86782125Y-129531286D01*
X87015081Y-129577073D01*
X87241732Y-129625017D01*
X87439181Y-129671590D01*
X87519799Y-129693261D01*
X87584530Y-129713267D01*
X87630512Y-129731168D01*
X87645577Y-129739191D01*
X87654882Y-129746522D01*
X87662863Y-129756107D01*
X87669618Y-129766240D01*
X87675247Y-129776867D01*
X87679853Y-129787937D01*
X87683535Y-129799396D01*
X87686396Y-129811191D01*
X87688536Y-129823268D01*
X87690057Y-129835574D01*
X87691643Y-129860663D01*
X87691965Y-129886031D01*
X87692048Y-129935907D01*
X87693427Y-129959564D01*
X87694805Y-129970886D01*
X87696776Y-129981800D01*
X87699443Y-129992252D01*
X87702905Y-130002190D01*
X87707264Y-130011560D01*
X87712622Y-130020309D01*
X87719079Y-130028384D01*
X87726736Y-130035732D01*
X87735694Y-130042299D01*
X87746055Y-130048033D01*
X87757920Y-130052880D01*
X87771390Y-130056788D01*
X87786565Y-130059702D01*
X87803548Y-130061571D01*
X87803547Y-130061555D01*
X87823107Y-130006233D01*
X87838741Y-129954971D01*
X87850588Y-129907597D01*
X87858785Y-129863941D01*
X87863472Y-129823832D01*
X87864788Y-129787099D01*
X87862870Y-129753569D01*
X87857859Y-129723073D01*
X87849891Y-129695440D01*
X87839107Y-129670497D01*
X87825645Y-129648074D01*
X87809644Y-129628000D01*
X87791242Y-129610104D01*
X87770578Y-129594215D01*
X87747790Y-129580161D01*
X87723018Y-129567771D01*
X87696400Y-129556875D01*
X87668075Y-129547301D01*
X87606858Y-129531435D01*
X87540477Y-129518805D01*
X87470041Y-129508042D01*
X87321442Y-129486639D01*
X87245499Y-129473263D01*
X87169940Y-129456277D01*
X87142148Y-129450974D01*
X87108881Y-129445048D01*
X87091283Y-129441553D01*
X87073623Y-129437545D01*
X87056336Y-129432904D01*
X87039857Y-129427512D01*
X87032058Y-129424496D01*
X87024624Y-129421248D01*
X87017609Y-129417752D01*
X87011070Y-129413994D01*
X87005059Y-129409958D01*
X86999631Y-129405630D01*
X86994842Y-129400995D01*
X86990744Y-129396038D01*
X86987393Y-129390744D01*
X86984843Y-129385098D01*
X86983149Y-129379085D01*
X86982365Y-129372690D01*
X86982545Y-129365899D01*
X86983744Y-129358696D01*
X86986016Y-129351067D01*
X86989416Y-129342996D01*
X87050789Y-129354222D01*
X87123496Y-129363773D01*
X87205682Y-129371301D01*
X87295490Y-129376460D01*
X87391063Y-129378901D01*
X87490547Y-129378278D01*
X87592083Y-129374244D01*
X87693817Y-129366450D01*
X87793891Y-129354549D01*
X87890450Y-129338195D01*
X87981637Y-129317039D01*
X88065595Y-129290735D01*
X88104284Y-129275543D01*
X88140470Y-129258934D01*
X88173921Y-129240865D01*
X88204404Y-129221291D01*
X88231688Y-129200169D01*
X88255541Y-129177456D01*
X88275731Y-129153109D01*
X88292026Y-129127084D01*
X88295341Y-129119661D01*
X88298015Y-129111994D01*
X88300092Y-129104090D01*
X88301614Y-129095955D01*
X88303170Y-129079013D01*
X88303031Y-129061215D01*
X88301544Y-129042608D01*
X88299055Y-129023239D01*
X88292467Y-128982400D01*
X88286044Y-128939072D01*
X88283764Y-128916592D01*
X88282567Y-128893629D01*
X88282801Y-128870231D01*
X88284814Y-128846444D01*
X88286595Y-128834419D01*
X88288952Y-128822315D01*
X88291927Y-128810137D01*
X88295564Y-128797891D01*
X88334701Y-128684495D01*
X88382342Y-128566365D01*
X88437366Y-128444076D01*
X88498654Y-128318205D01*
X88635541Y-128058017D01*
X88784043Y-127790405D01*
X88935199Y-127519972D01*
X89080051Y-127251323D01*
X89147312Y-127119106D01*
X89209637Y-126989062D01*
X89265905Y-126861766D01*
X89314998Y-126737794D01*
X89340716Y-126666952D01*
X89372739Y-126573918D01*
X89407085Y-126466697D01*
X89439772Y-126353295D01*
X89454249Y-126296778D01*
X89466817Y-126241718D01*
X89476980Y-126189116D01*
X89484239Y-126139972D01*
X89488097Y-126095287D01*
X89488056Y-126056062D01*
X89486417Y-126038810D01*
X89483617Y-126023298D01*
X89479594Y-126009651D01*
X89474284Y-125997995D01*
X89467087Y-125989426D01*
X89451546Y-125974893D01*
X89399895Y-125931298D01*
X89328251Y-125873930D01*
X89245531Y-125809509D01*
X89160655Y-125744755D01*
X89082540Y-125686389D01*
X89020104Y-125641131D01*
X88982267Y-125615701D01*
X88820744Y-125528732D01*
X88624723Y-125442436D01*
X88398951Y-125357904D01*
X88148171Y-125276224D01*
X87877127Y-125198484D01*
X87590565Y-125125774D01*
X87293227Y-125059182D01*
X86989860Y-124999797D01*
X86685206Y-124948709D01*
X86384011Y-124907005D01*
X86091019Y-124875775D01*
X85810974Y-124856108D01*
X85548621Y-124849092D01*
X85308704Y-124855817D01*
X85095967Y-124877370D01*
X84915155Y-124914842D01*
X84751078Y-124966362D01*
X84677091Y-124993520D01*
X84608203Y-125021693D01*
X84544213Y-125050941D01*
X84484918Y-125081326D01*
X84430117Y-125112911D01*
X84379609Y-125145756D01*
X84333192Y-125179923D01*
X84290665Y-125215474D01*
X84251825Y-125252470D01*
X84216472Y-125290973D01*
X84184404Y-125331044D01*
X84155418Y-125372746D01*
X84129315Y-125416139D01*
X84105891Y-125461285D01*
X84084946Y-125508246D01*
X84066278Y-125557083D01*
X84034966Y-125660633D01*
X84010343Y-125772428D01*
X83990796Y-125892959D01*
X83974712Y-126022720D01*
X83960480Y-126162203D01*
X83931118Y-126472307D01*
X83916614Y-126649156D01*
X83907336Y-126826502D01*
X83902870Y-127004179D01*
X83902801Y-127182021D01*
X82660532Y-127182021D01*
X82686880Y-127059704D01*
X82720496Y-126884185D01*
X83326866Y-126884185D01*
X83328339Y-126954297D01*
X83331387Y-126982716D01*
X83336149Y-127006034D01*
X83342752Y-127023748D01*
X83351326Y-127035351D01*
X83362001Y-127040338D01*
X83374904Y-127038203D01*
X83390165Y-127028441D01*
X83407913Y-127010546D01*
X83428277Y-126984013D01*
X83451386Y-126948336D01*
X83506354Y-126847528D01*
X83586053Y-126244786D01*
X83631481Y-125943953D01*
X83682012Y-125644032D01*
X83738682Y-125345438D01*
X83802527Y-125048586D01*
X83874586Y-124753892D01*
X83955319Y-124463843D01*
X86335755Y-124463843D01*
X86337511Y-124493205D01*
X86342691Y-124523568D01*
X86351477Y-124554973D01*
X86364049Y-124587458D01*
X86380589Y-124621065D01*
X88338041Y-125208642D01*
X88348031Y-125207845D01*
X88357441Y-125206779D01*
X88366290Y-125205448D01*
X88374600Y-125203853D01*
X88382391Y-125201997D01*
X88389685Y-125199880D01*
X88396502Y-125197505D01*
X88402862Y-125194874D01*
X88408787Y-125191989D01*
X88414297Y-125188852D01*
X88419413Y-125185464D01*
X88424156Y-125181829D01*
X88428546Y-125177947D01*
X88432604Y-125173820D01*
X88436351Y-125169451D01*
X88439808Y-125164842D01*
X88442995Y-125159994D01*
X88445933Y-125154910D01*
X88448644Y-125149591D01*
X88451146Y-125144039D01*
X88455612Y-125132245D01*
X88459498Y-125119544D01*
X88462968Y-125105951D01*
X88466190Y-125091481D01*
X88472550Y-125059976D01*
X88475411Y-125042398D01*
X88477394Y-125024842D01*
X88478554Y-125007308D01*
X88478945Y-124989796D01*
X88477645Y-124954844D01*
X88473933Y-124919990D01*
X88468251Y-124885240D01*
X88461039Y-124850599D01*
X88443790Y-124781665D01*
X88425712Y-124713230D01*
X88417463Y-124679212D01*
X88410329Y-124645334D01*
X88404751Y-124611602D01*
X88401169Y-124578021D01*
X88400024Y-124544595D01*
X88400503Y-124527943D01*
X88401756Y-124511331D01*
X88428048Y-124534385D01*
X88441088Y-124545277D01*
X88454133Y-124555740D01*
X88467240Y-124565767D01*
X88480466Y-124575353D01*
X88493869Y-124584494D01*
X88507505Y-124593184D01*
X88521432Y-124601417D01*
X88535705Y-124609189D01*
X88550383Y-124616495D01*
X88565523Y-124623328D01*
X88581181Y-124629684D01*
X88597415Y-124635558D01*
X88614281Y-124640944D01*
X88631837Y-124645837D01*
X88744250Y-124672636D01*
X88882050Y-124701592D01*
X89036773Y-124731211D01*
X89199959Y-124760000D01*
X89363144Y-124786466D01*
X89517868Y-124809115D01*
X89655667Y-124826455D01*
X89768080Y-124836992D01*
X89822758Y-124838455D01*
X89875319Y-124836300D01*
X89925802Y-124830662D01*
X89974247Y-124821676D01*
X90020692Y-124809478D01*
X90065179Y-124794203D01*
X90107745Y-124775987D01*
X90148432Y-124754965D01*
X90187277Y-124731272D01*
X90224322Y-124705045D01*
X90259605Y-124676419D01*
X90293165Y-124645528D01*
X90325043Y-124612509D01*
X90355279Y-124577497D01*
X90383910Y-124540627D01*
X90410978Y-124502035D01*
X90460580Y-124420228D01*
X90504400Y-124333158D01*
X90542755Y-124241908D01*
X90575961Y-124147564D01*
X90604335Y-124051209D01*
X90628192Y-123953925D01*
X90647850Y-123856798D01*
X90663624Y-123760911D01*
X90667164Y-123760911D01*
X90676598Y-123682958D01*
X90681119Y-123609002D01*
X90680898Y-123538976D01*
X90676103Y-123472813D01*
X90666903Y-123410446D01*
X90653467Y-123351807D01*
X90635965Y-123296828D01*
X90614566Y-123245443D01*
X90589438Y-123197583D01*
X90560752Y-123153182D01*
X90528676Y-123112172D01*
X90493380Y-123074485D01*
X90455031Y-123040055D01*
X90413801Y-123008814D01*
X90369858Y-122980694D01*
X90323370Y-122955628D01*
X90274508Y-122933548D01*
X90223440Y-122914388D01*
X90170336Y-122898080D01*
X90115365Y-122884556D01*
X90058695Y-122873749D01*
X90000496Y-122865592D01*
X89880189Y-122856956D01*
X89755796Y-122858111D01*
X89628670Y-122868515D01*
X89500165Y-122887631D01*
X89371634Y-122914918D01*
X89295020Y-122935708D01*
X89222814Y-122959448D01*
X89154528Y-122985936D01*
X89089674Y-123014970D01*
X89027766Y-123046347D01*
X88968315Y-123079866D01*
X88910835Y-123115324D01*
X88854838Y-123152519D01*
X88401756Y-123488344D01*
X88396378Y-123294983D01*
X88395674Y-123209386D01*
X88397221Y-123130120D01*
X88401713Y-123056391D01*
X88405281Y-123021355D01*
X88409845Y-122987407D01*
X88415493Y-122954445D01*
X88422312Y-122922373D01*
X88430388Y-122891090D01*
X88439808Y-122860497D01*
X88450659Y-122830495D01*
X88463028Y-122800985D01*
X88477002Y-122771868D01*
X88492668Y-122743044D01*
X88510112Y-122714415D01*
X88529422Y-122685880D01*
X88550684Y-122657342D01*
X88573984Y-122628701D01*
X88599411Y-122599857D01*
X88627050Y-122570712D01*
X88656989Y-122541167D01*
X88689315Y-122511121D01*
X88724114Y-122480477D01*
X88761473Y-122449134D01*
X88844218Y-122383958D01*
X88874329Y-122363697D01*
X88912047Y-122341663D01*
X88956100Y-122318239D01*
X89005220Y-122293809D01*
X89113575Y-122243466D01*
X89226949Y-122193703D01*
X89428103Y-122108198D01*
X89495558Y-122078596D01*
X89516559Y-122068425D01*
X89527381Y-122061853D01*
X89531230Y-122058131D01*
X89534822Y-122054272D01*
X89538169Y-122050282D01*
X89541284Y-122046167D01*
X89544178Y-122041937D01*
X89546864Y-122037596D01*
X89551661Y-122028615D01*
X89555773Y-122019282D01*
X89559300Y-122009652D01*
X89562340Y-121999784D01*
X89564990Y-121989735D01*
X89569518Y-121969319D01*
X89573673Y-121948862D01*
X89575857Y-121938760D01*
X89578243Y-121928819D01*
X89580930Y-121919095D01*
X89584016Y-121909646D01*
X89487088Y-121938685D01*
X89390321Y-121971378D01*
X89294041Y-122007733D01*
X89198575Y-122047752D01*
X89104250Y-122091443D01*
X89011393Y-122138809D01*
X88920329Y-122189857D01*
X88831386Y-122244592D01*
X88744891Y-122303018D01*
X88661170Y-122365142D01*
X88580549Y-122430967D01*
X88503356Y-122500501D01*
X88429917Y-122573746D01*
X88360559Y-122650710D01*
X88295608Y-122731397D01*
X88235391Y-122815812D01*
X88247075Y-122955262D01*
X88253538Y-123094825D01*
X88255697Y-123234451D01*
X88254471Y-123374087D01*
X88234062Y-123931700D01*
X88227405Y-124209221D01*
X88228175Y-124347479D01*
X88232901Y-124485332D01*
X88242501Y-124622729D01*
X88257894Y-124759618D01*
X88279995Y-124895946D01*
X88309724Y-125031663D01*
X88191950Y-125013525D01*
X88076028Y-124987786D01*
X87961650Y-124955638D01*
X87848512Y-124918274D01*
X87736307Y-124876888D01*
X87624730Y-124832670D01*
X87402234Y-124740513D01*
X87178576Y-124651344D01*
X87065547Y-124610862D01*
X86951309Y-124574704D01*
X86835558Y-124544063D01*
X86717987Y-124520133D01*
X86598289Y-124504104D01*
X86537548Y-124499426D01*
X86476160Y-124497171D01*
X86472709Y-124487382D01*
X86472195Y-124476645D01*
X86474442Y-124465029D01*
X86479278Y-124452604D01*
X86486528Y-124439437D01*
X86496017Y-124425597D01*
X86507571Y-124411154D01*
X86521015Y-124396175D01*
X86552878Y-124364886D01*
X86590212Y-124332281D01*
X86631621Y-124298908D01*
X86675711Y-124265317D01*
X86766353Y-124199681D01*
X86850981Y-124139770D01*
X86918436Y-124089978D01*
X86942237Y-124070252D01*
X86957560Y-124054704D01*
X86965990Y-124042923D01*
X86973896Y-124030307D01*
X86977593Y-124023762D01*
X86981087Y-124017100D01*
X86984354Y-124010351D01*
X86987370Y-124003545D01*
X86990112Y-123996714D01*
X86992554Y-123989887D01*
X86994674Y-123983095D01*
X86996448Y-123976368D01*
X86997850Y-123969738D01*
X86998858Y-123963233D01*
X86999447Y-123956886D01*
X86999593Y-123950726D01*
X86999273Y-123944784D01*
X86998462Y-123939090D01*
X86997136Y-123933674D01*
X86995272Y-123928568D01*
X86992845Y-123923801D01*
X86989832Y-123919405D01*
X86986208Y-123915409D01*
X86981950Y-123911844D01*
X86977033Y-123908741D01*
X86971434Y-123906129D01*
X86965128Y-123904040D01*
X86958092Y-123902504D01*
X86950301Y-123901551D01*
X86941732Y-123901212D01*
X86932361Y-123901518D01*
X86922163Y-123902498D01*
X86875987Y-123937479D01*
X86824704Y-123972283D01*
X86712602Y-124042649D01*
X86654676Y-124078854D01*
X86597430Y-124116168D01*
X86542310Y-124154913D01*
X86490762Y-124195411D01*
X86466780Y-124216418D01*
X86444233Y-124237983D01*
X86423303Y-124260147D01*
X86404171Y-124282950D01*
X86387016Y-124306433D01*
X86372020Y-124330635D01*
X86359364Y-124355596D01*
X86349229Y-124381358D01*
X86341795Y-124407959D01*
X86337244Y-124435441D01*
X86335755Y-124463843D01*
X83955319Y-124463843D01*
X83955896Y-124461770D01*
X84020130Y-124433573D01*
X84085330Y-124409730D01*
X84151379Y-124389786D01*
X84218165Y-124373285D01*
X84285573Y-124359770D01*
X84353490Y-124348785D01*
X84421800Y-124339874D01*
X84490390Y-124332580D01*
X84765270Y-124310457D01*
X84901424Y-124297240D01*
X84968781Y-124288496D01*
X85035504Y-124277719D01*
X85043998Y-124276621D01*
X85052225Y-124275944D01*
X85067887Y-124275630D01*
X85082512Y-124276333D01*
X85096121Y-124277606D01*
X85120374Y-124280080D01*
X85131058Y-124280389D01*
X85136049Y-124280116D01*
X85140810Y-124279484D01*
X85145342Y-124278438D01*
X85149648Y-124276921D01*
X85153732Y-124274877D01*
X85157595Y-124272252D01*
X85161241Y-124268989D01*
X85164671Y-124265032D01*
X85167889Y-124260327D01*
X85170897Y-124254816D01*
X85173697Y-124248445D01*
X85176293Y-124241157D01*
X85178686Y-124232897D01*
X85180880Y-124223610D01*
X85182876Y-124213238D01*
X85184678Y-124201728D01*
X85186289Y-124189022D01*
X85187710Y-124175065D01*
X85127757Y-124162291D01*
X85054197Y-124153177D01*
X84969190Y-124147735D01*
X84874890Y-124145974D01*
X84773455Y-124147904D01*
X84667043Y-124153537D01*
X84557811Y-124162882D01*
X84447914Y-124175950D01*
X84339511Y-124192752D01*
X84234758Y-124213297D01*
X84135812Y-124237596D01*
X84044831Y-124265660D01*
X83963971Y-124297498D01*
X83928010Y-124314836D01*
X83895389Y-124333121D01*
X83866377Y-124352356D01*
X83841243Y-124372540D01*
X83820257Y-124393676D01*
X83803689Y-124415765D01*
X83776765Y-124467079D01*
X83749238Y-124537075D01*
X83721339Y-124623279D01*
X83693295Y-124723218D01*
X83637683Y-124954409D01*
X83584228Y-125210862D01*
X83534755Y-125472790D01*
X83491089Y-125720408D01*
X83428481Y-126093568D01*
X83378428Y-126399533D01*
X83350144Y-126604034D01*
X83338800Y-126705009D01*
X83330697Y-126799740D01*
X83326866Y-126884185D01*
X82720496Y-126884185D01*
X82726902Y-126850740D01*
X82769827Y-126606765D01*
X82812131Y-126345782D01*
X82850286Y-126085793D01*
X82880767Y-125844801D01*
X82900049Y-125640810D01*
X82904388Y-125558316D01*
X82904605Y-125491823D01*
X82903265Y-125477638D01*
X82899979Y-125461716D01*
X82894857Y-125444185D01*
X82888006Y-125425174D01*
X82869551Y-125383229D01*
X82845481Y-125336912D01*
X82816662Y-125287256D01*
X82783958Y-125235291D01*
X82748237Y-125182051D01*
X82710364Y-125128567D01*
X82671206Y-125075871D01*
X82631627Y-125024996D01*
X82592494Y-124976972D01*
X82554673Y-124932832D01*
X82519030Y-124893608D01*
X82486430Y-124860332D01*
X82457740Y-124834036D01*
X82433826Y-124815751D01*
X82424399Y-124810029D01*
X82415364Y-124805439D01*
X82406720Y-124801933D01*
X82398463Y-124799461D01*
X82390593Y-124797975D01*
X82383108Y-124797424D01*
X82376004Y-124797760D01*
X82369282Y-124798934D01*
X82362937Y-124800896D01*
X82356970Y-124803596D01*
X82351376Y-124806987D01*
X82346156Y-124811017D01*
X82341306Y-124815639D01*
X82336825Y-124820803D01*
X82332711Y-124826459D01*
X82328962Y-124832559D01*
X82325576Y-124839053D01*
X82322551Y-124845891D01*
X82319885Y-124853026D01*
X82317576Y-124860406D01*
X82314021Y-124875709D01*
X82311872Y-124891407D01*
X82311113Y-124907104D01*
X82014886Y-124907104D01*
X82068801Y-124669581D01*
X82121835Y-124407269D01*
X82165493Y-124143463D01*
X82182835Y-124010870D01*
X82196666Y-123877748D01*
X82568335Y-123860063D01*
X82656827Y-123764490D01*
X82899451Y-121952119D01*
X83116986Y-121952119D01*
X83152384Y-122139718D01*
X83888641Y-121994592D01*
X83881295Y-122009503D01*
X83873226Y-122023734D01*
X83864476Y-122037331D01*
X83855090Y-122050340D01*
X83845109Y-122062807D01*
X83834578Y-122074778D01*
X83823541Y-122086299D01*
X83812040Y-122097416D01*
X83787821Y-122118623D01*
X83762270Y-122138767D01*
X83735733Y-122158215D01*
X83708559Y-122177336D01*
X83653687Y-122216070D01*
X83626684Y-122236420D01*
X83600432Y-122257915D01*
X83575280Y-122280924D01*
X83563225Y-122293112D01*
X83551575Y-122305816D01*
X83540373Y-122319082D01*
X83529663Y-122332958D01*
X83519489Y-122347487D01*
X83509894Y-122362718D01*
X83483178Y-122411580D01*
X83456618Y-122468386D01*
X83430950Y-122531870D01*
X83406910Y-122600767D01*
X83385235Y-122673812D01*
X83366660Y-122749740D01*
X83351922Y-122827285D01*
X83341758Y-122905183D01*
X83336903Y-122982168D01*
X83336696Y-123019923D01*
X83338094Y-123056976D01*
X83341186Y-123093168D01*
X83346067Y-123128340D01*
X83352827Y-123162336D01*
X83361558Y-123194997D01*
X83372353Y-123226164D01*
X83385304Y-123255680D01*
X83400503Y-123283386D01*
X83418041Y-123309124D01*
X83438012Y-123332737D01*
X83460506Y-123354065D01*
X83485616Y-123372952D01*
X83513434Y-123389238D01*
X83578863Y-123419434D01*
X83647451Y-123445290D01*
X83718787Y-123467278D01*
X83792461Y-123485868D01*
X83868064Y-123501534D01*
X83945186Y-123514747D01*
X84102350Y-123535701D01*
X84416885Y-123568937D01*
X84567703Y-123588769D01*
X84640065Y-123601140D01*
X84709850Y-123615777D01*
X84854253Y-123656632D01*
X85049386Y-123718932D01*
X85276625Y-123791933D01*
X85517345Y-123864893D01*
X85636940Y-123898000D01*
X85752921Y-123927067D01*
X85862961Y-123950752D01*
X85964729Y-123967712D01*
X86055900Y-123976604D01*
X86096783Y-123977604D01*
X86134144Y-123976084D01*
X86167691Y-123971875D01*
X86197134Y-123964809D01*
X86222180Y-123954720D01*
X86242540Y-123941438D01*
X86259154Y-123926741D01*
X86274523Y-123911218D01*
X86288711Y-123894914D01*
X86301782Y-123877876D01*
X86313797Y-123860148D01*
X86324820Y-123841776D01*
X86334914Y-123822805D01*
X86344141Y-123803281D01*
X86360246Y-123762753D01*
X86373640Y-123720556D01*
X86384825Y-123677052D01*
X86394305Y-123632604D01*
X86425221Y-123452634D01*
X86433715Y-123408912D01*
X86443521Y-123366423D01*
X86455142Y-123325532D01*
X86469080Y-123286600D01*
X86471637Y-123285317D01*
X86474647Y-123284759D01*
X86478085Y-123284885D01*
X86481925Y-123285652D01*
X86486145Y-123287017D01*
X86490718Y-123288939D01*
X86500827Y-123294286D01*
X86512056Y-123301354D01*
X86524208Y-123309806D01*
X86550493Y-123329516D01*
X86578105Y-123350720D01*
X86591917Y-123361039D01*
X86605469Y-123370721D01*
X86618565Y-123379428D01*
X86631008Y-123386824D01*
X86642600Y-123392571D01*
X86648016Y-123394722D01*
X86653145Y-123396333D01*
X86673898Y-123399314D01*
X86696886Y-123397169D01*
X86721935Y-123390187D01*
X86748876Y-123378655D01*
X86777535Y-123362861D01*
X86807741Y-123343093D01*
X86872108Y-123292785D01*
X86940603Y-123230034D01*
X87011850Y-123157141D01*
X87084477Y-123076408D01*
X87157109Y-122990138D01*
X87228372Y-122900633D01*
X87296893Y-122810195D01*
X87361296Y-122721126D01*
X87420208Y-122635727D01*
X87472255Y-122556302D01*
X87516063Y-122485152D01*
X87550258Y-122424579D01*
X87573465Y-122376886D01*
X86115110Y-120890214D01*
X86047856Y-121021188D01*
X86134597Y-121099562D01*
X86218626Y-121182762D01*
X86300467Y-121269893D01*
X86380644Y-121360056D01*
X86695179Y-121733102D01*
X86774889Y-121824977D01*
X86856076Y-121914503D01*
X86939265Y-122000784D01*
X87024980Y-122082922D01*
X87113743Y-122160021D01*
X87206078Y-122231184D01*
X87253749Y-122264259D01*
X87302510Y-122295514D01*
X87352426Y-122324836D01*
X87403562Y-122352113D01*
X86720400Y-123237039D01*
X86675399Y-123204891D01*
X86630642Y-123170293D01*
X86541756Y-123094490D01*
X86453533Y-123011105D01*
X86365766Y-122921618D01*
X86278248Y-122827506D01*
X86190772Y-122730246D01*
X86015115Y-122532195D01*
X85926518Y-122434360D01*
X85837134Y-122339288D01*
X85746754Y-122248458D01*
X85655172Y-122163346D01*
X85562179Y-122085432D01*
X85515088Y-122049635D01*
X85467568Y-122016192D01*
X85419591Y-121985287D01*
X85371132Y-121957104D01*
X85322165Y-121931829D01*
X85272663Y-121909646D01*
X85151313Y-121865829D01*
X85025286Y-121832045D01*
X84895214Y-121807459D01*
X84761730Y-121791236D01*
X84625468Y-121782542D01*
X84487058Y-121780542D01*
X84347135Y-121784401D01*
X84206330Y-121793285D01*
X84065276Y-121806358D01*
X83924605Y-121822785D01*
X83646946Y-121862364D01*
X83124066Y-121945047D01*
X83116986Y-121952119D01*
X82899451Y-121952119D01*
X82950622Y-121569879D01*
X83924039Y-120819452D01*
X83922845Y-120805886D01*
X83915812Y-120780772D01*
X83887425Y-120701815D01*
X83795725Y-120470353D01*
X83745187Y-120341493D01*
X83722919Y-120281389D01*
X86398287Y-120281389D01*
X87456657Y-122065385D01*
X87480749Y-122092737D01*
X87505869Y-122118397D01*
X87531966Y-122142391D01*
X87558991Y-122164750D01*
X87586891Y-122185501D01*
X87615617Y-122204673D01*
X87645118Y-122222295D01*
X87675344Y-122238395D01*
X87706244Y-122253001D01*
X87737768Y-122266143D01*
X87802483Y-122288146D01*
X87869086Y-122304631D01*
X87937171Y-122315828D01*
X88006336Y-122321963D01*
X88076174Y-122323267D01*
X88146282Y-122319965D01*
X88216255Y-122312288D01*
X88285688Y-122300462D01*
X88354178Y-122284717D01*
X88421320Y-122265280D01*
X88486710Y-122242380D01*
X88510263Y-122208160D01*
X88536340Y-122173874D01*
X88595382Y-122105167D01*
X88662461Y-122036387D01*
X88736203Y-121967664D01*
X88815233Y-121899129D01*
X88898178Y-121830909D01*
X89070317Y-121695938D01*
X89241626Y-121563788D01*
X89323534Y-121499094D01*
X89401113Y-121435495D01*
X89472988Y-121373119D01*
X89537785Y-121312096D01*
X89594131Y-121252555D01*
X89640651Y-121194627D01*
X89659945Y-121164111D01*
X89675453Y-121131730D01*
X89687332Y-121097630D01*
X89695737Y-121061958D01*
X89700824Y-121024860D01*
X89702747Y-120986482D01*
X89701663Y-120946972D01*
X89697728Y-120906475D01*
X89691096Y-120865138D01*
X89681924Y-120823107D01*
X89670366Y-120780530D01*
X89656579Y-120737552D01*
X89640717Y-120694320D01*
X89622938Y-120650980D01*
X89582245Y-120564564D01*
X89535745Y-120479475D01*
X89484682Y-120396886D01*
X89430300Y-120317968D01*
X89373845Y-120243892D01*
X89316560Y-120175832D01*
X89259690Y-120114958D01*
X89204479Y-120062442D01*
X89152171Y-120019456D01*
X89096725Y-119979806D01*
X89038127Y-119941850D01*
X88976708Y-119905627D01*
X88912800Y-119871172D01*
X88846735Y-119838521D01*
X88778845Y-119807711D01*
X88709461Y-119778778D01*
X88638916Y-119751758D01*
X88567541Y-119726688D01*
X88495669Y-119703603D01*
X88423630Y-119682541D01*
X88351758Y-119663538D01*
X88280383Y-119646629D01*
X88209838Y-119631851D01*
X88140454Y-119619241D01*
X88072564Y-119608835D01*
X88069025Y-119608835D01*
X87961013Y-119597645D01*
X87848714Y-119594471D01*
X87733147Y-119599117D01*
X87615336Y-119611385D01*
X87496300Y-119631077D01*
X87377063Y-119657998D01*
X87258644Y-119691950D01*
X87142067Y-119732735D01*
X87028351Y-119780157D01*
X86918520Y-119834019D01*
X86813593Y-119894124D01*
X86714593Y-119960274D01*
X86667634Y-119995554D01*
X86622541Y-120032272D01*
X86579439Y-120070403D01*
X86538458Y-120109922D01*
X86499724Y-120150805D01*
X86463366Y-120193027D01*
X86429511Y-120236563D01*
X86398287Y-120281389D01*
X83722919Y-120281389D01*
X83700042Y-120219643D01*
X83681488Y-120165041D01*
X83666678Y-120116625D01*
X83656409Y-120075871D01*
X83651482Y-120044259D01*
X83650950Y-120014057D01*
X83653246Y-119983207D01*
X83658231Y-119951747D01*
X83665765Y-119919713D01*
X83675710Y-119887142D01*
X83687928Y-119854072D01*
X83702279Y-119820539D01*
X83718625Y-119786580D01*
X83756748Y-119717532D01*
X83801186Y-119647225D01*
X83850830Y-119575953D01*
X83904570Y-119504012D01*
X84019900Y-119359307D01*
X84138301Y-119215474D01*
X84250893Y-119074877D01*
X84302238Y-119006532D01*
X84348802Y-118939882D01*
X84977831Y-118936583D01*
X85659043Y-118944028D01*
G37*
%TD*%
D15*
%TO.C,R4*%
X173894780Y-46685963D03*
X175101298Y-47698355D03*
%TD*%
D16*
%TO.C,D40*%
X136388038Y-104874039D03*
X137501732Y-103760345D03*
%TD*%
%TO.C,D72*%
X171150155Y-98885511D03*
X172263849Y-97771817D03*
%TD*%
%TO.C,D58*%
X142388038Y-110874039D03*
X143501732Y-109760345D03*
%TD*%
%TO.C,D79*%
X165150155Y-98885511D03*
X166263849Y-97771817D03*
%TD*%
%TO.C,D23*%
X130388038Y-101874039D03*
X131501732Y-100760345D03*
%TD*%
D17*
%TO.C,SW7*%
X208919873Y-103988184D03*
X201769873Y-91604020D03*
X213250001Y-101488184D03*
X206099999Y-89104020D03*
%TD*%
D16*
%TO.C,D34*%
X133388038Y-110874039D03*
X134501732Y-109760345D03*
%TD*%
%TO.C,D64*%
X168150155Y-98885511D03*
X169263849Y-97771817D03*
%TD*%
%TO.C,R28*%
X211664886Y-79429006D03*
X212778580Y-78315312D03*
%TD*%
%TO.C,D39*%
X136388038Y-101874039D03*
X137501732Y-100760345D03*
%TD*%
%TO.C,D71*%
X162150155Y-98885511D03*
X163263849Y-97771817D03*
%TD*%
D18*
%TO.C,R32*%
X148944885Y-109717192D03*
X148944885Y-108142190D03*
%TD*%
D16*
%TO.C,D77*%
X165150155Y-95885511D03*
X166263849Y-94771817D03*
%TD*%
%TO.C,D45*%
X139388038Y-95874039D03*
X140501732Y-94760345D03*
%TD*%
D19*
%TO.C,C4*%
X175038689Y-42520451D03*
X176051081Y-41313933D03*
%TD*%
D16*
%TO.C,D18*%
X127388038Y-110874039D03*
X128501732Y-109760345D03*
%TD*%
%TO.C,D76*%
X171150155Y-104885511D03*
X172263849Y-103771817D03*
%TD*%
%TO.C,D61*%
X159150155Y-95885511D03*
X160263849Y-94771817D03*
%TD*%
%TO.C,D22*%
X130388038Y-98874039D03*
X131501732Y-97760345D03*
%TD*%
%TO.C,D65*%
X159150155Y-101885511D03*
X160263849Y-100771817D03*
%TD*%
D20*
%TO.C,D6*%
X124070851Y-43361246D03*
D21*
X124158025Y-43581815D03*
D22*
X124881161Y-44443615D03*
D23*
X125540018Y-45228811D03*
D21*
X126182805Y-45994855D03*
D20*
X126384886Y-46119006D03*
%TD*%
D16*
%TO.C,D48*%
X139388038Y-104874039D03*
X140501732Y-103760345D03*
%TD*%
%TO.C,D14*%
X127388038Y-98874039D03*
X128501732Y-97760345D03*
%TD*%
%TO.C,D55*%
X142388038Y-101874039D03*
X143501732Y-100760345D03*
%TD*%
%TO.C,D27*%
X162150155Y-107885511D03*
X163263849Y-106771817D03*
%TD*%
%TO.C,D54*%
X142388038Y-98874039D03*
X143501732Y-97760345D03*
%TD*%
%TO.C,D29*%
X133388038Y-95874039D03*
X134501732Y-94760345D03*
%TD*%
D24*
%TO.C,D1*%
X176040812Y-46010153D03*
D25*
X176242893Y-45886002D03*
D26*
X176966029Y-45024202D03*
D27*
X177624886Y-44239006D03*
D25*
X178267673Y-43472962D03*
D24*
X178354847Y-43252393D03*
%TD*%
D28*
%TO.C,C5*%
X172932386Y-91359006D03*
X171357386Y-91359006D03*
%TD*%
D16*
%TO.C,D44*%
X168150155Y-110885511D03*
X169263849Y-109771817D03*
%TD*%
%TO.C,D46*%
X139388038Y-98874039D03*
X140501732Y-97760345D03*
%TD*%
D29*
%TO.C,REF\u002A\u002A*%
X151239771Y-36842192D03*
%TD*%
D16*
%TO.C,D50*%
X139388038Y-110874039D03*
X140501732Y-109760345D03*
%TD*%
%TO.C,D16*%
X127388038Y-104874039D03*
X128501732Y-103760345D03*
%TD*%
%TO.C,D38*%
X136388038Y-99074039D03*
X137501732Y-97960345D03*
%TD*%
D29*
%TO.C,REF\u002A\u002A*%
X108844885Y-131817192D03*
%TD*%
D17*
%TO.C,SW8*%
X220351408Y-97388183D03*
X213201408Y-85004019D03*
X224681536Y-94888183D03*
X217531534Y-82504019D03*
%TD*%
D30*
%TO.C,SW2*%
X95829356Y-94119683D03*
X101486210Y-99776537D03*
X92647376Y-97301663D03*
X98304230Y-102958517D03*
%TD*%
D31*
%TO.C,SW6*%
X108250000Y-120125000D03*
X100250000Y-120125000D03*
X108250000Y-115625000D03*
X100250000Y-115625000D03*
%TD*%
D16*
%TO.C,D20*%
X159150155Y-110885511D03*
X160263849Y-109771817D03*
%TD*%
%TO.C,D57*%
X142388038Y-107874039D03*
X143501732Y-106760345D03*
%TD*%
%TO.C,D13*%
X127388038Y-95874039D03*
X128501732Y-94760345D03*
%TD*%
D32*
%TO.C,MK1*%
X123819886Y-91559006D03*
D33*
X124944886Y-91559006D03*
%TD*%
D29*
%TO.C,REF\u002A\u002A*%
X193844885Y-131817192D03*
%TD*%
D16*
%TO.C,D75*%
X162150155Y-104885511D03*
X163263849Y-103771817D03*
%TD*%
%TO.C,D84*%
X174150155Y-104885511D03*
X175263849Y-103771817D03*
%TD*%
%TO.C,D36*%
X165150155Y-110885511D03*
X166263849Y-109771817D03*
%TD*%
%TO.C,R27*%
X209002962Y-82128694D03*
X210116656Y-81015000D03*
%TD*%
D18*
%TO.C,R30*%
X148944885Y-106517192D03*
X148944885Y-104942190D03*
%TD*%
D16*
%TO.C,D68*%
X168150155Y-104885511D03*
X169263849Y-103771817D03*
%TD*%
%TO.C,D80*%
X174150155Y-98885511D03*
X175263849Y-97771817D03*
%TD*%
%TO.C,D52*%
X171150155Y-110885511D03*
X172263849Y-109771817D03*
%TD*%
D34*
%TO.C,J1*%
X175144885Y-30717192D03*
D35*
X175144885Y-33257192D03*
X177684885Y-30717192D03*
X177684885Y-33257192D03*
X180224885Y-30717192D03*
X180224885Y-33257192D03*
%TD*%
D16*
%TO.C,D83*%
X165150155Y-104885511D03*
X166263849Y-103771817D03*
%TD*%
%TO.C,D56*%
X142388038Y-104874039D03*
X143501732Y-103760345D03*
%TD*%
%TO.C,D33*%
X133388038Y-107874039D03*
X134501732Y-106760345D03*
%TD*%
%TO.C,D74*%
X171150155Y-101885511D03*
X172263849Y-100771817D03*
%TD*%
%TO.C,D67*%
X159150155Y-104885511D03*
X160263849Y-103771817D03*
%TD*%
%TO.C,D53*%
X142388038Y-95874039D03*
X143501732Y-94760345D03*
%TD*%
%TO.C,D81*%
X165150155Y-101885511D03*
X166263849Y-100771817D03*
%TD*%
%TO.C,D62*%
X168150155Y-95885511D03*
X169263849Y-94771817D03*
%TD*%
%TO.C,D25*%
X130388038Y-107874039D03*
X131501732Y-106760345D03*
%TD*%
%TO.C,D60*%
X174150155Y-110885511D03*
X175263849Y-109771817D03*
%TD*%
%TO.C,D19*%
X159150155Y-107885511D03*
X160263849Y-106771817D03*
%TD*%
%TO.C,D28*%
X162150155Y-110885511D03*
X163263849Y-109771817D03*
%TD*%
D36*
%TO.C,D3*%
X172985365Y-86441233D03*
D37*
X172754810Y-86496861D03*
D38*
X171800756Y-87093020D03*
D39*
X170931505Y-87636188D03*
D37*
X170083458Y-88166107D03*
D36*
X169932391Y-88348942D03*
%TD*%
D31*
%TO.C,SW5*%
X108250001Y-127245000D03*
X100250001Y-127245000D03*
X108250001Y-122745000D03*
X100250001Y-122745000D03*
%TD*%
D16*
%TO.C,D63*%
X159150155Y-98885511D03*
X160263849Y-97771817D03*
%TD*%
%TO.C,D26*%
X130388038Y-110874039D03*
X131501732Y-109760345D03*
%TD*%
%TO.C,D37*%
X136388038Y-95874039D03*
X137501732Y-94760345D03*
%TD*%
%TO.C,D31*%
X133388038Y-101874039D03*
X134501732Y-100760345D03*
%TD*%
D40*
%TO.C,SW1*%
X86925468Y-94054629D03*
X92582322Y-88397775D03*
X90107448Y-97236609D03*
X95764302Y-91579755D03*
%TD*%
D16*
%TO.C,D15*%
X127388038Y-101874039D03*
X128501732Y-100760345D03*
%TD*%
%TO.C,D24*%
X130388038Y-104874039D03*
X131501732Y-103760345D03*
%TD*%
%TO.C,D82*%
X174150155Y-101885511D03*
X175263849Y-100771817D03*
%TD*%
%TO.C,D32*%
X133388038Y-104874039D03*
X134501732Y-103760345D03*
%TD*%
D41*
%TO.C,D2*%
X197620080Y-103428911D03*
D42*
X197482574Y-103622152D03*
D43*
X197153656Y-104697995D03*
D44*
X196853974Y-105678207D03*
D42*
X196561602Y-106634512D03*
D41*
X196567541Y-106871608D03*
%TD*%
D16*
%TO.C,D51*%
X171150155Y-107885511D03*
X172263849Y-106771817D03*
%TD*%
%TO.C,D17*%
X127388038Y-107874039D03*
X128501732Y-106760345D03*
%TD*%
D45*
%TO.C,SW4*%
X95719754Y-103068119D03*
X90062900Y-108724973D03*
X92537774Y-99886139D03*
X86880920Y-105542993D03*
%TD*%
D46*
%TO.C,SW3*%
X86815866Y-103003065D03*
X81159012Y-97346211D03*
X89997846Y-99821085D03*
X84340992Y-94164231D03*
%TD*%
D16*
%TO.C,D42*%
X136388038Y-110874039D03*
X137501732Y-109760345D03*
%TD*%
%TO.C,D59*%
X174150155Y-107885511D03*
X175263849Y-106771817D03*
%TD*%
%TO.C,D69*%
X162150155Y-95885511D03*
X163263849Y-94771817D03*
%TD*%
%TO.C,D43*%
X168150155Y-107885511D03*
X169263849Y-106771817D03*
%TD*%
%TO.C,D21*%
X130388038Y-95874039D03*
X131501732Y-94760345D03*
%TD*%
D47*
%TO.C,U9*%
X146344885Y-61017192D03*
X156344885Y-61017192D03*
%TD*%
D16*
%TO.C,D35*%
X165150155Y-107885511D03*
X166263849Y-106771817D03*
%TD*%
%TO.C,D66*%
X168150155Y-101885511D03*
X169263849Y-100771817D03*
%TD*%
D48*
%TO.C,C17*%
X103134481Y-106326342D03*
X101654465Y-106865024D03*
%TD*%
D16*
%TO.C,D41*%
X136388038Y-107874039D03*
X137501732Y-106760345D03*
%TD*%
%TO.C,D73*%
X162150155Y-101885511D03*
X163263849Y-100771817D03*
%TD*%
%TO.C,D47*%
X139388038Y-101874039D03*
X140501732Y-100760345D03*
%TD*%
D49*
%TO.C,D5*%
X105707865Y-106751945D03*
D50*
X105713804Y-106514849D03*
D51*
X105384886Y-105439006D03*
D52*
X105085205Y-104458794D03*
D50*
X104792834Y-103502489D03*
D49*
X104655327Y-103309248D03*
%TD*%
D16*
%TO.C,D78*%
X174150155Y-95885511D03*
X175263849Y-94771817D03*
%TD*%
D53*
%TO.C,U11*%
X154754885Y-108587192D03*
X154754885Y-108187192D03*
X154754885Y-107787192D03*
X154754885Y-107387192D03*
X154754885Y-106987192D03*
D54*
X154104885Y-106337192D03*
X153704885Y-106337192D03*
X153304885Y-106337192D03*
X152904885Y-106337192D03*
X152504885Y-106337192D03*
D53*
X151854885Y-106987192D03*
X151854885Y-107387192D03*
X151854885Y-107787192D03*
X151854885Y-108187192D03*
X151854885Y-108587192D03*
D54*
X152504885Y-109237192D03*
X152904885Y-109237192D03*
X153304885Y-109237192D03*
X153704885Y-109237192D03*
X154104885Y-109237192D03*
D55*
X153304885Y-107787192D03*
%TD*%
D16*
%TO.C,D30*%
X133388038Y-99074039D03*
X134501732Y-97960345D03*
%TD*%
D56*
%TO.C,D4*%
X131699149Y-87929501D03*
D57*
X131548082Y-87746666D03*
D58*
X130594028Y-87150507D03*
D59*
X129724777Y-86607339D03*
D57*
X128876730Y-86077420D03*
D56*
X128646175Y-86021792D03*
%TD*%
D16*
%TO.C,D70*%
X171150155Y-95885511D03*
X172263849Y-94771817D03*
%TD*%
%TO.C,D49*%
X139388038Y-107874039D03*
X140501732Y-106760345D03*
%TD*%
D60*
%TO.C,P1*%
X218530705Y-74981286D03*
X222617782Y-79068363D03*
D61*
X220100482Y-71389184D03*
D62*
X217144775Y-74344890D03*
D61*
X226209884Y-77498586D03*
D62*
X223254178Y-80454293D03*
%TD*%
D63*
%TO.C,BT2*%
X177139885Y-49787274D03*
X125149885Y-49787274D03*
%TD*%
%TO.C,BT1*%
X118644885Y-70200790D03*
X118644885Y-122190790D03*
%TD*%
%TO.C,BT3*%
X183644885Y-122190790D03*
X183644885Y-70200790D03*
%TD*%
D64*
%TO.C,SW9*%
X211597049Y-67083221D03*
X213329100Y-68083221D03*
X215061151Y-69083221D03*
D65*
X209735095Y-66008221D03*
X216923105Y-70158221D03*
%TD*%
D66*
%TO.C,J2*%
X130097563Y-29129108D03*
X129041017Y-26863338D03*
X127679115Y-35773738D03*
X121034485Y-33355290D03*
X119977939Y-31089521D03*
D67*
X125566024Y-31242199D03*
D68*
X123147576Y-37886829D03*
X125413346Y-36830284D03*
X129944885Y-34717192D03*
X132210654Y-33660647D03*
%TD*%
M02*
