<?xml version="1.0" encoding="UTF-8" standalone="no"?>
<!-- Created with Inkscape (http://www.inkscape.org/) -->

<svg
   width="11.283173mm"
   height="10.927658mm"
   viewBox="0 0 11.283173 10.927658"
   version="1.1"
   id="svg1"
   inkscape:version="1.4.2 (ebf0e940d0, 2025-05-08)"
   sodipodi:docname="kd.svg"
   xmlns:inkscape="http://www.inkscape.org/namespaces/inkscape"
   xmlns:sodipodi="http://sodipodi.sourceforge.net/DTD/sodipodi-0.dtd"
   xmlns="http://www.w3.org/2000/svg"
   xmlns:svg="http://www.w3.org/2000/svg">
  <sodipodi:namedview
     id="namedview1"
     pagecolor="#ffffff"
     bordercolor="#000000"
     borderopacity="0.25"
     inkscape:showpageshadow="2"
     inkscape:pageopacity="0.0"
     inkscape:pagecheckerboard="0"
     inkscape:deskcolor="#d1d1d1"
     inkscape:document-units="mm"
     inkscape:zoom="4.5657194"
     inkscape:cx="0.9856059"
     inkscape:cy="37.234001"
     inkscape:window-width="1854"
     inkscape:window-height="1131"
     inkscape:window-x="0"
     inkscape:window-y="0"
     inkscape:window-maximized="1"
     inkscape:current-layer="layer1" />
  <defs
     id="defs1" />
  <g
     inkscape:label="Layer 1"
     inkscape:groupmode="layer"
     id="layer1"
     transform="translate(-89.693757,-89.164581)">
    <path
       id="path6-5"
       style="baseline-shift:baseline;display:inline;overflow:visible;vector-effect:none;fill:#1a1a1a;stroke-width:0.0307779;stroke-miterlimit:8;enable-background:accumulate;stop-color:#000000"
       d="m 95.04841,89.175456 -0.101396,0.0062 0.0062,0.101444 c 0.01045,0.170103 0.02093,0.340169 0.03138,0.510273 -0.143232,0.01167 -0.285827,0.02938 -0.427633,0.05298 -0.03129,-0.167555 -0.06261,-0.335108 -0.09391,-0.502658 l -0.01865,-0.09986 -0.09986,0.01863 c -0.233863,0.04371 -0.464966,0.10196 -0.691605,0.174215 l -0.09676,0.03083 0.03084,0.0968 c 0.06172,0.193683 0.123473,0.387284 0.185211,0.580927 l 0.193593,-0.06168 c -0.05114,-0.160401 -0.102256,-0.320776 -0.153379,-0.481148 0.154951,-0.04629 0.311756,-0.08577 0.470152,-0.118395 0.03092,0.165478 0.0618,0.330914 0.09269,0.496387 l 0.01868,0.09992 0.09987,-0.01868 c 0.199731,-0.03733 0.40173,-0.06231 0.604459,-0.0748 l 0.101396,-0.0063 -0.0062,-0.101351 c -0.01035,-0.168029 -0.02061,-0.336079 -0.03093,-0.504103 0.159837,-0.0069 0.319778,-0.0069 0.479618,0 -0.01035,0.168029 -0.02066,0.33605 -0.03102,0.504055 l -0.0062,0.101399 0.101399,0.0063 c 0.202756,0.01249 0.404797,0.03747 0.604459,0.0748 l 0.09982,0.01868 0.01871,-0.09992 c 0.03092,-0.165489 0.06179,-0.330914 0.0927,-0.496387 0.158408,0.03262 0.315238,0.0721 0.470196,0.118395 -0.05113,0.160385 -0.102245,0.320752 -0.153382,0.481148 l 0.193554,0.06168 c 0.06174,-0.193656 0.123468,-0.387265 0.185211,-0.580927 l 0.03088,-0.0968 -0.09676,-0.03083 c -0.226645,-0.07225 -0.45784,-0.130503 -0.6917,-0.174215 l -0.09982,-0.01863 -0.01871,0.09986 c -0.03131,0.167558 -0.06252,0.335116 -0.09382,0.502658 -0.141764,-0.0236 -0.284356,-0.04131 -0.427591,-0.05298 0.01048,-0.170112 0.0209,-0.340188 0.03138,-0.510273 l 0.0062,-0.101444 -0.101399,-0.0062 c -0.235646,-0.0145 -0.472194,-0.0145 -0.707837,0 z m 0.299861,1.015593 c -0.512303,-1.93e-4 -1.025163,0.08698 -1.508102,0.259244 -0.483068,0.171773 -0.935781,0.427701 -1.332724,0.751887 -0.397502,0.323726 -0.737743,0.7165 -1.005449,1.153647 -0.100671,0.189979 -0.187169,0.386715 -0.258024,0.587957 -0.105611,-0.0091 -0.347525,-0.01296 -0.666319,0.08728 -0.216678,0.06812 -0.439242,0.188039 -0.607211,0.394814 -0.167965,0.206772 -0.276685,0.497943 -0.276685,0.888947 0,1.31224 1.446086,2.082387 1.561079,2.141553 0.06901,0.191762 0.152066,0.379402 0.248015,0.560954 0.0551,0.09077 0.113443,0.179567 0.174842,0.266186 -0.08382,0.06267 -0.202748,0.165497 -0.362622,0.333627 -0.374629,0.393978 -0.727972,0.969542 -0.599414,1.661083 l 5.29e-4,0.0031 0.103154,0.398153 0.0303,0.01868 c 0,0 0.48545,0.299794 1.205627,0.376469 0.09002,0.01 0.183835,0.0156 0.280974,0.0172 0.678304,0.011 1.51756,-0.197303 2.344394,-0.958427 0.220916,0.0329 0.444285,0.04945 0.667533,0.04937 0.223218,7.2e-5 0.446526,-0.01646 0.66744,-0.04937 0.826834,0.761124 1.666182,0.969407 2.344486,0.958427 0.09714,-0.002 0.19095,-0.008 0.280975,-0.0172 0.720174,-0.07667 1.205579,-0.376469 1.205579,-0.376469 l 0.03035,-0.01868 0.103108,-0.398153 5.29e-4,-0.0031 c 0.128565,-0.691541 -0.224737,-1.267105 -0.599363,-1.661083 -0.158623,-0.166812 -0.278609,-0.268894 -0.364204,-0.33115 0.06217,-0.08728 0.121348,-0.176731 0.177321,-0.268123 0.09921,-0.187228 0.184637,-0.381014 0.254913,-0.57921 0.246374,-0.133739 1.527628,-0.888651 1.527628,-2.123837 0,-0.391004 -0.10877,-0.682175 -0.27673,-0.888947 -0.16796,-0.206775 -0.39053,-0.326689 -0.60721,-0.394814 -0.317327,-0.09977 -0.542628,-0.09347 -0.640527,-0.08296 -0.07111,-0.202464 -0.157898,-0.400492 -0.258971,-0.591746 -0.265988,-0.438216 -0.607462,-0.830212 -1.004594,-1.154184 -0.396946,-0.324186 -0.849672,-0.580114 -1.33277,-0.751887 -0.482909,-0.172268 -0.995709,-0.259427 -1.508011,-0.259244 z m 0,0.203202 c 0.489622,-1.93e-4 0.978955,0.08305 1.439894,0.247476 0.461089,0.163922 0.893331,0.408265 1.2724,0.717891 0.379277,0.309385 0.705418,0.683834 0.959371,1.102204 0.280664,0.402455 0.493104,0.856962 0.633269,1.33944 -0.02663,-0.220284 -0.0725,-0.439095 -0.136067,-0.653828 0.09922,-0.0048 0.276813,0.0027 0.515052,0.0775 0.18973,0.05965 0.37362,0.160578 0.51046,0.329033 0.13684,0.168455 0.23124,0.406802 0.23124,0.76086 0,1.005292 -0.923454,1.644869 -1.232545,1.830784 0.05153,-0.188756 0.08919,-0.380413 0.11186,-0.573172 -0.141766,0.482142 -0.354017,0.936257 -0.634129,1.338897 -0.252227,0.419447 -0.579633,0.793113 -0.958511,1.102744 -0.379101,0.309631 -0.811311,0.553969 -1.2724,0.717897 -0.460939,0.164414 -0.950272,0.247671 -1.439894,0.247517 -0.48962,1.96e-4 -0.978998,-0.0831 -1.439937,-0.247517 -0.461089,-0.163928 -0.893331,-0.408266 -1.2724,-0.717897 -0.37928,-0.309383 -0.705461,-0.683831 -0.959416,-1.102201 -0.280636,-0.402455 -0.493088,-0.856959 -0.633225,-1.33944 0.02413,0.199649 0.06411,0.398079 0.118711,0.593368 -0.323223,-0.195456 -1.265047,-0.850805 -1.265047,-1.85098 0,-0.354058 0.0944,-0.592405 0.231241,-0.76086 0.136842,-0.168455 0.320685,-0.269383 0.51041,-0.329033 0.242054,-0.0761 0.433586,-0.08475 0.540533,-0.08102 -0.06393,0.215842 -0.109799,0.435859 -0.135848,0.657344 0.141738,-0.48214 0.354016,-0.93626 0.63413,-1.338903 0.252195,-0.419441 0.579633,-0.793112 0.958511,-1.102741 0.379098,-0.309626 0.811311,-0.553969 1.2724,-0.717891 0.460968,-0.164423 0.950317,-0.247629 1.439937,-0.247476 z m 0.968031,0.325472 c -0.321369,-0.02426 -0.648841,0.04184 -0.951259,0.04184 -0.40549,0 -0.84863,-0.102278 -1.264645,0.03277 -0.439489,0.142684 -0.697167,0.550552 -1.002067,0.772448 -0.330124,0.240228 -0.65413,0.466841 -0.906981,0.814242 v 9.5e-5 c -0.23272,0.319776 -0.537851,0.632714 -0.675016,1.055222 -0.12019,0.370126 -0.327184,0.797581 -0.327184,1.250484 0,0.458441 0.243335,0.875088 0.361627,1.239354 0.12114,0.373128 0.136443,0.875969 0.401619,1.240342 0.138748,0.190627 0.347986,0.299681 0.554956,0.39364 0.206954,0.09395 0.415388,0.174376 0.564605,0.282956 0.34885,0.25391 0.73248,0.330067 1.119426,0.455723 h 9e-5 c 0.390543,0.126794 0.746159,0.168979 1.173572,0.168979 0.207217,0 0.406138,0.01085 0.603787,0.0053 0.197644,-0.0056 0.394002,-0.0276 0.596159,-0.09323 0.412523,-0.133961 0.71755,-0.366337 1.044176,-0.604099 v 9.2e-5 c 0.318818,-0.232002 0.707562,-0.396047 0.968661,-0.754824 0.260403,-0.35782 0.28031,-0.782236 0.402791,-1.159412 0.05438,-0.167497 0.180112,-0.343906 0.298873,-0.53381 0.118761,-0.18991 0.232413,-0.398106 0.232413,-0.64098 0,-0.42477 -0.0227,-0.898504 -0.152345,-1.297784 -0.140163,-0.431705 -0.51277,-0.752687 -0.740886,-1.066133 -0.268912,-0.369549 -0.719698,-0.47547 -1.027898,-0.69977 -0.146754,-0.10681 -0.277678,-0.275714 -0.422677,-0.440754 -0.145,-0.165036 -0.307473,-0.329059 -0.533541,-0.402473 h -9.5e-5 c -0.104619,-0.03397 -0.211042,-0.0521 -0.318167,-0.06019 z m -0.01535,0.20541 c 0.09485,0.006 0.185459,0.02037 0.27074,0.04806 0.167526,0.05441 0.305152,0.1855 0.443775,0.343279 0.138621,0.157781 0.27487,0.33933 0.455724,0.470961 0.353652,0.257378 0.770472,0.362738 0.983175,0.655047 0.248767,0.34182 0.59648,0.653844 0.711899,1.009322 h -4.5e-5 c 0.116964,0.36027 0.142467,0.818012 0.142467,1.235025 0,0.178019 -0.0879,0.351639 -0.201485,0.53327 -0.113583,0.181631 -0.250963,0.366485 -0.319879,0.57876 -0.133162,0.41007 -0.157329,0.805159 -0.373803,1.102609 -0.220522,0.303019 -0.580898,0.460383 -0.923936,0.710004 v 9e-5 c -0.328578,0.239181 -0.612645,0.453334 -0.987366,0.575021 -0.177631,0.05765 -0.355076,0.07724 -0.541523,0.08233 -0.186462,0.0051 -0.381963,-0.0043 -0.595667,-0.0043 -0.414308,0 -0.741905,-0.03926 -1.110903,-0.159059 -0.400295,-0.130007 -0.756149,-0.203719 -1.062568,-0.42675 -0.181677,-0.132212 -0.401461,-0.213482 -0.600173,-0.303691 -0.198724,-0.09021 -0.372613,-0.187907 -0.474708,-0.328179 -0.211698,-0.290893 -0.238186,-0.769421 -0.372631,-1.183537 -0.128363,-0.395282 -0.351753,-0.793247 -0.351753,-1.176589 0,-0.388884 0.190841,-0.798255 0.31731,-1.18773 0.118411,-0.364739 0.40187,-0.662924 0.646027,-0.998416 0.228831,-0.314394 0.530527,-0.528217 0.862259,-0.769607 0.350369,-0.254989 0.597411,-0.630557 0.945166,-0.743458 0.343596,-0.111545 0.765746,-0.02281 1.201978,-0.02281 0.328951,0 0.651375,-0.0576 0.935924,-0.03968 z m -1.937361,0.551124 a 0.10159908,0.10159908 0 0 0 -0.0949,0.06109 0.10159908,0.10159908 0 0 0 0.0527,0.133633 l 0.566812,0.246076 a 0.10159908,0.10159908 0 0 0 0.133633,-0.05275 0.10159908,0.10159908 0 0 0 -0.0527,-0.133634 l -0.566815,-0.246033 a 0.10159908,0.10159908 0 0 0 -0.03873,-0.0084 z m 1.667843,0.04567 a 0.10159908,0.10159908 0 0 0 -0.0881,0.05063 0.10159908,0.10159908 0 0 0 0.03693,0.138864 l 0.534529,0.30996 a 0.10159908,0.10159908 0 0 0 0.138864,-0.03693 0.10159908,0.10159908 0 0 0 -0.03692,-0.138861 l -0.53453,-0.309959 a 0.10159908,0.10159908 0 0 0 -0.05077,-0.01373 z m -2.713778,0.694991 c -0.107707,0.0045 -0.213977,0.02273 -0.305814,0.05536 -0.119298,0.04238 -0.191878,0.09752 -0.245985,0.155819 -0.173067,0.186576 -0.197459,0.381074 -0.202568,0.576551 -0.0021,0.142899 0.02101,0.285096 0.09504,0.425196 0.05651,0.106987 0.128968,0.212587 0.333674,0.294362 0.238622,0.09532 0.595601,0.08606 0.80563,-0.01947 0.15608,-0.07843 0.231121,-0.169982 0.279349,-0.265147 0.130869,-0.258326 0.132033,-0.518224 0.04382,-0.778174 -0.04257,-0.125513 -0.11177,-0.24955 -0.312936,-0.354597 -0.127232,-0.06646 -0.3107,-0.09734 -0.490214,-0.0899 z m 4.096771,0.133181 c -0.107709,0.0044 -0.214011,0.02273 -0.305858,0.05537 -0.119298,0.04238 -0.191863,0.09752 -0.245941,0.155813 -0.173099,0.186579 -0.197461,0.381079 -0.20257,0.576551 -0.0021,0.142904 0.02109,0.285096 0.09509,0.425201 0.05651,0.106987 0.128892,0.212585 0.333629,0.294365 0.238625,0.09532 0.595617,0.08606 0.805678,-0.0195 0.156045,-0.07839 0.231118,-0.169981 0.279349,-0.265144 0.130866,-0.258323 0.131972,-0.518224 0.04382,-0.778177 -0.0426,-0.125513 -0.111847,-0.249518 -0.312983,-0.354597 -0.127249,-0.06646 -0.310701,-0.09734 -0.490215,-0.0899 z m -2.043086,0.0395 a 0.10159908,0.10159908 0 0 0 -0.05095,0.01318 0.10159908,0.10159908 0 0 0 -0.03841,0.138409 l 0.304056,0.537914 a 0.10159908,0.10159908 0 0 0 0.06127,0.04792 0.10159908,0.10159908 0 0 0 0.07718,-0.0095 0.10159908,0.10159908 0 0 0 0.03846,-0.138502 l -0.304104,-0.537868 a 0.10159908,0.10159908 0 0 0 -0.08751,-0.05158 z m -1.832226,0.05924 c 0.05823,2.04e-4 0.09494,0.01815 0.119657,0.0422 0.03222,0.03133 0.03842,0.06512 0.04048,0.09883 -0.0021,0.03472 -0.0085,0.06858 -0.04152,0.09973 -0.02514,0.02376 -0.06085,0.04121 -0.120963,0.04094 -0.06014,-2.07e-4 -0.09796,-0.01789 -0.119382,-0.04207 -0.05774,-0.06497 -0.0563,-0.13107 -0.0011,-0.19626 0.02156,-0.02553 0.06209,-0.04365 0.122899,-0.04337 z m -0.434893,0.12286 c 0.116496,5.29e-4 0.189976,0.03632 0.239403,0.0844 0.06451,0.06267 0.07682,0.130262 0.08097,0.197699 -0.0041,0.06946 -0.01707,0.137163 -0.08305,0.199454 -0.05032,0.04749 -0.121679,0.08234 -0.24193,0.08179 -0.120311,-5.29e-4 -0.195911,-0.03575 -0.238815,-0.08404 -0.115422,-0.129974 -0.112607,-0.262136 -0.0024,-0.392512 0.04318,-0.05106 0.124198,-0.08734 0.245804,-0.08679 z m 4.531619,0.01035 c 0.05823,2.01e-4 0.095,0.01815 0.119745,0.0422 0.03223,0.03133 0.03838,0.06513 0.04044,0.09883 -0.0021,0.03472 -0.0085,0.06858 -0.04153,0.09973 -0.02514,0.02376 -0.0608,0.04117 -0.120915,0.04089 -0.06017,-2.04e-4 -0.09798,-0.01786 -0.119433,-0.04202 -0.0577,-0.06497 -0.05631,-0.13107 -0.0011,-0.196258 0.02156,-0.02553 0.06208,-0.04364 0.122899,-0.04337 z m -0.434803,0.122856 c 0.116467,5.3e-4 0.189902,0.03633 0.239358,0.0844 0.06448,0.06269 0.07685,0.130265 0.08098,0.197699 -0.0041,0.06947 -0.01709,0.137163 -0.08305,0.199459 -0.05032,0.04749 -0.121727,0.08234 -0.241975,0.08178 -0.120282,-5.3e-4 -0.195868,-0.03575 -0.238773,-0.08404 -0.115416,-0.129974 -0.112617,-0.262101 -0.0024,-0.392509 0.04321,-0.05106 0.124291,-0.08734 0.245896,-0.08679 z m -1.834203,0.96451 c -0.39315,0 -0.756774,0.03274 -1.037733,0.179263 -0.280964,0.146521 -0.464968,0.423815 -0.464968,0.838179 0,0.828765 0.673931,1.502785 1.502701,1.502785 0.82876,0 1.50278,-0.674018 1.50278,-1.502785 0,-0.414367 -0.184044,-0.691658 -0.465007,-0.838179 -0.280969,-0.146526 -0.644634,-0.179263 -1.037773,-0.179263 z m 0,0.2032 c 0.380709,0 0.717656,0.03828 0.943814,0.156223 0.226155,0.117941 0.355814,0.298561 0.355814,0.658019 0,0.718952 -0.580681,1.299585 -1.299628,1.299585 -0.718952,0 -1.299543,-0.580628 -1.299543,-1.299585 0,-0.359463 0.129616,-0.540078 0.355766,-0.658019 0.226148,-0.117938 0.56306,-0.156223 0.943777,-0.156223 z m 2.900249,0.0047 a 0.10159908,0.10159908 0 0 0 -0.08066,0.03959 0.10159908,0.10159908 0 0 0 0.01852,0.14247 l 0.489538,0.377002 a 0.10159908,0.10159908 0 0 0 0.07511,0.02019 0.10159908,0.10159908 0 0 0 0.06745,-0.03873 0.10159908,0.10159908 0 0 0 -0.0186,-0.142513 l -0.48958,-0.376915 a 0.10159908,0.10159908 0 0 0 -0.06181,-0.02111 z m -5.270797,0.299096 a 0.10159908,0.10159908 0 0 0 -0.02606,0.005 0.10159908,0.10159908 0 0 0 -0.06438,0.12845 l 0.195038,0.586383 a 0.10159908,0.10159908 0 0 0 0.128447,0.06429 0.10159908,0.10159908 0 0 0 0.06438,-0.128447 l -0.194996,-0.586291 a 0.10159908,0.10159908 0 0 0 -0.102433,-0.06939 z m 4.474451,0.348644 a 0.10159908,0.10159908 0 0 0 -0.03846,0.0098 0.10159908,0.10159908 0 0 0 -0.04784,0.135485 l 0.266547,0.557435 a 0.10159908,0.10159908 0 0 0 0.135437,0.04788 0.10159908,0.10159908 0 0 0 0.04783,-0.13553 l -0.266449,-0.557437 a 0.10159908,0.10159908 0 0 0 -0.09707,-0.05762 z m -5.378545,0.02381 a 0.10159908,0.10159908 0 0 0 -0.102256,0.08661 l -0.09089,0.61118 a 0.10159908,0.10159908 0 0 0 0.08553,0.115416 0.10159908,0.10159908 0 0 0 0.115416,-0.08553 l 0.09099,-0.611132 a 0.10159908,0.10159908 0 0 0 -0.08557,-0.115464 0.10159908,0.10159908 0 0 0 -0.0132,-7.94e-4 z m 0.65509,0.619744 a 0.10159908,0.10159908 0 0 0 -0.06033,0.02506 0.10159908,0.10159908 0 0 0 -0.0092,0.143369 l 0.408025,0.464021 a 0.10159908,0.10159908 0 0 0 0.143415,0.0092 0.10159908,0.10159908 0 0 0 0.0092,-0.14337 l -0.408069,-0.464021 a 0.10159908,0.10159908 0 0 0 -0.08305,-0.03426 z m 4.540546,0.517937 a 0.10159908,0.10159908 0 0 0 -0.09671,0.07715 l -0.1486,0.599816 a 0.10159908,0.10159908 0 0 0 0.07425,0.123036 0.10159908,0.10159908 0 0 0 0.12304,-0.07421 l 0.148558,-0.599771 a 0.10159908,0.10159908 0 0 0 -0.07421,-0.123039 0.10159908,0.10159908 0 0 0 -0.02633,-0.003 z m 1.134123,0.08197 a 0.10159908,0.10159908 0 0 0 -0.08277,0.03507 l -0.403473,0.467944 a 0.10159908,0.10159908 0 0 0 0.01056,0.143283 0.10159908,0.10159908 0 0 0 0.143327,-0.01056 l 0.403476,-0.467971 a 0.10159908,0.10159908 0 0 0 -0.01056,-0.143285 0.10159908,0.10159908 0 0 0 -0.06055,-0.02447 z m -5.804693,0.357979 a 0.10159908,0.10159908 0 0 0 -0.02633,0.0033 0.10159908,0.10159908 0 0 0 -0.07304,0.123762 l 0.154416,0.598326 a 0.10159908,0.10159908 0 0 0 0.123714,0.07295 0.10159908,0.10159908 0 0 0 0.07304,-0.123759 l -0.154376,-0.598236 a 0.10159908,0.10159908 0 0 0 -0.09743,-0.07629 z m 0.813607,0.327271 a 0.10159908,0.10159908 0 0 0 -0.103336,0.08526 0.10159908,0.10159908 0 0 0 0.08404,0.116544 l 0.610004,0.09887 a 0.10159908,0.10159908 0 0 0 0.116502,-0.08404 0.10159908,0.10159908 0 0 0 -0.08404,-0.116498 l -0.609912,-0.09888 a 0.10159908,0.10159908 0 0 0 -0.01326,-0.0011 z m 3.051693,0.261451 a 0.10159908,0.10159908 0 0 0 -0.08012,0.04067 l -0.370555,0.494495 a 0.10159908,0.10159908 0 0 0 0.0204,0.142248 0.10159908,0.10159908 0 0 0 0.07534,0.01924 0.10159908,0.10159908 0 0 0 0.0669,-0.03968 l 0.37047,-0.494453 a 0.10159908,0.10159908 0 0 0 -0.02037,-0.14224 0.10159908,0.10159908 0 0 0 -0.06208,-0.02029 z m 0.928849,0.38413 a 0.10159908,0.10159908 0 0 0 -0.03828,0.01029 L 96.819171,97.3834 a 0.10159908,0.10159908 0 0 0 -0.04603,0.136118 0.10159908,0.10159908 0 0 0 0.05847,0.05121 0.10159908,0.10159908 0 0 0 0.07759,-0.0052 l 0.553966,-0.273757 a 0.10159908,0.10159908 0 0 0 0.04603,-0.136019 0.10159908,0.10159908 0 0 0 -0.09779,-0.0564 z m -2.761702,0.04305 a 0.10159908,0.10159908 0 0 0 -0.02614,0.0047 l -0.588859,0.18737 a 0.10159908,0.10159908 0 0 0 -0.06601,0.127596 0.10159908,0.10159908 0 0 0 0.127638,0.066 l 0.588814,-0.187283 a 0.10159908,0.10159908 0 0 0 0.06605,-0.127638 0.10159908,0.10159908 0 0 0 -0.101489,-0.07074 z m -2.866575,0.283859 c 0.211777,0.275124 0.455265,0.52579 0.724294,0.745259 0.396949,0.324189 0.849707,0.580115 1.33277,0.751888 0.201432,0.07186 0.408037,0.128931 0.617669,0.171011 -0.873514,0.754591 -1.73034,0.873204 -2.383753,0.803648 -0.618027,-0.0658 -1.027985,-0.291841 -1.101391,-0.334534 l -0.08269,-0.318979 c -0.113966,-0.616125 0.200049,-1.133269 0.553649,-1.50513 0.1524,-0.160266 0.262966,-0.256029 0.33945,-0.313163 z m 7.128353,0.0024 c 0.07833,0.05673 0.190019,0.151775 0.341255,0.310824 0.353615,0.37187 0.667652,0.889066 0.553648,1.505218 l -0.0826,0.318889 c -0.07334,0.04266 -0.483344,0.268732 -1.101434,0.334531 -0.653413,0.06956 -1.510197,-0.04904 -2.383708,-0.803643 0.209621,-0.04208 0.416208,-0.09916 0.617622,-0.171013 0.483095,-0.17177 0.935823,-0.427699 1.332767,-0.751885 0.268534,-0.218678 0.510905,-0.468839 0.722447,-0.742921 z m -3.856193,0.238641 a 0.10159908,0.10159908 0 0 0 -0.0972,0.09215 0.10159908,0.10159908 0 0 0 0.0918,0.110548 l 0.615233,0.05685 a 0.10159908,0.10159908 0 0 0 0.110551,-0.09179 0.10159908,0.10159908 0 0 0 -0.0918,-0.11055 l -0.615326,-0.05685 a 0.10159908,0.10159908 0 0 0 -0.01326,-2.65e-4 z m -3.491278,0.263927 c 0,0 -0.392721,0.310383 -0.431191,0.803423 0,0 0.337373,-0.511257 0.706035,-0.620824 z m 7.568435,0 -0.27479,0.182599 c 0.368628,0.109567 0.70599,0.620824 0.70599,0.620824 -0.03847,-0.49304 -0.4312,-0.803423 -0.4312,-0.803423 z" />
  </g>
</svg>
