<?xml version="1.0" encoding="UTF-8" standalone="no"?>
<!-- Created with Inkscape (http://www.inkscape.org/) -->

<svg
   width="8.5422735mm"
   height="8.5748367mm"
   viewBox="0 0 8.5422735 8.5748367"
   version="1.1"
   id="svg1"
   inkscape:version="1.4.2 (ebf0e940d0, 2025-05-08)"
   sodipodi:docname="doom.svg"
   xmlns:inkscape="http://www.inkscape.org/namespaces/inkscape"
   xmlns:sodipodi="http://sodipodi.sourceforge.net/DTD/sodipodi-0.dtd"
   xmlns="http://www.w3.org/2000/svg"
   xmlns:svg="http://www.w3.org/2000/svg">
  <sodipodi:namedview
     id="namedview1"
     pagecolor="#ffffff"
     bordercolor="#000000"
     borderopacity="0.25"
     inkscape:showpageshadow="2"
     inkscape:pageopacity="0.0"
     inkscape:pagecheckerboard="0"
     inkscape:deskcolor="#d1d1d1"
     inkscape:document-units="mm"
     inkscape:zoom="6.4569023"
     inkscape:cx="10.608802"
     inkscape:cy="7.1241592"
     inkscape:window-width="1854"
     inkscape:window-height="1131"
     inkscape:window-x="0"
     inkscape:window-y="0"
     inkscape:window-maximized="1"
     inkscape:current-layer="layer1" />
  <defs
     id="defs1" />
  <g
     inkscape:label="Layer 1"
     inkscape:groupmode="layer"
     id="layer1"
     transform="translate(-110.59583,-197.37917)">
    <path
       style="fill:#000000;stroke-width:0.110977"
       d="m 114.80505,205.92146 c 0.009,-0.0245 0.0264,-0.1226 0.0378,-0.21798 0.0114,-0.0954 0.0461,-0.21552 0.0774,-0.26694 0.0517,-0.0854 0.0529,-0.10236 0.0138,-0.19591 -0.059,-0.14099 -0.16647,-0.20686 -0.2976,-0.18227 -0.0569,0.0111 -0.27692,0.11797 -0.48907,0.23847 l -0.38569,0.21907 -0.52897,-0.0736 c -0.29091,-0.0406 -0.53595,-0.0806 -0.54448,-0.0892 -0.009,-0.009 0.0723,-0.10435 0.17978,-0.21289 0.21987,-0.22217 0.30081,-0.37467 0.25822,-0.48665 -0.0449,-0.11828 -0.14284,-0.16585 -0.34129,-0.16585 -0.0989,0 -0.32136,-0.009 -0.49447,-0.0193 l -0.31473,-0.0192 -0.41413,-0.32575 c -0.22777,-0.17918 -0.41016,-0.33898 -0.40529,-0.35512 0.0142,-0.0473 0.35717,-0.16048 0.48767,-0.16103 0.22005,-8.4e-4 0.32917,-0.2409 0.18999,-0.41785 -0.0316,-0.04 -0.24225,-0.18324 -0.46818,-0.31803 l -0.4108,-0.24512 -0.18856,-0.50073 c -0.1037,-0.27539 -0.18006,-0.50414 -0.16968,-0.50832 0.0101,-0.004 0.15536,0.0384 0.32215,0.0945 0.2754,0.0928 0.31177,0.0986 0.39562,0.0636 0.23037,-0.0964 0.21869,-0.21369 -0.0763,-0.76709 l -0.21911,-0.41107 0.0637,-0.53537 c 0.0352,-0.29444 0.0702,-0.54189 0.0781,-0.54987 0.0234,-0.0234 0.40738,0.30769 0.40738,0.35129 0,0.0749 0.0907,0.13202 0.20956,0.13202 0.27857,0 0.31896,-0.0904 0.31896,-0.71441 v -0.48243 l 0.31037,-0.40726 c 0.17071,-0.22398 0.32012,-0.41083 0.33202,-0.41516 0.0467,-0.0171 0.16099,0.3283 0.15375,0.46477 -0.007,0.12132 0.003,0.14522 0.0851,0.21423 0.11129,0.0936 0.1652,0.0964 0.32925,0.0166 0.1105,-0.0537 0.1447,-0.097 0.28455,-0.3597 0.28065,-0.52725 0.23967,-0.48731 0.69701,-0.67913 0.22365,-0.0937 0.45067,-0.18925 0.50454,-0.21211 l 0.0979,-0.0415 -0.0206,0.19962 c -0.0134,0.12939 -0.0474,0.24805 -0.097,0.3372 -0.074,0.13336 -0.0748,0.14065 -0.0281,0.23869 0.0468,0.0983 0.0539,0.10146 0.24757,0.11381 l 0.19938,0.0128 0.36256,-0.23016 0.36256,-0.23015 0.54241,0.0703 c 0.29832,0.0388 0.55025,0.0782 0.55986,0.0878 0.0298,0.0298 -0.27837,0.36253 -0.37152,0.40111 -0.0632,0.0263 -0.0976,0.0678 -0.12108,0.14616 -0.0444,0.1479 -0.007,0.21117 0.18465,0.30626 0.14427,0.0719 0.17856,0.0764 0.5951,0.0768 l 0.44202,4.3e-4 0.3964,0.30945 c 0.21803,0.17021 0.39986,0.3191 0.4041,0.33087 0.004,0.0117 -0.0654,0.0573 -0.15481,0.10103 -0.11467,0.0562 -0.20833,0.0796 -0.31822,0.0796 -0.12482,0 -0.16841,0.0135 -0.21958,0.068 -0.0863,0.0918 -0.0804,0.18823 0.0216,0.34909 0.0741,0.11681 0.13426,0.16074 0.44893,0.32766 l 0.36338,0.19278 0.21908,0.51958 c 0.12049,0.28577 0.22297,0.52916 0.22771,0.54086 0.0159,0.0389 -0.47319,-0.0903 -0.57154,-0.15117 -0.15914,-0.0984 -0.36202,0.0122 -0.36202,0.19719 0,0.13667 0.0363,0.21805 0.27002,0.60564 l 0.20782,0.3446 -0.0667,0.5216 c -0.0367,0.28688 -0.0759,0.53899 -0.087,0.56025 -0.025,0.0474 -0.33955,-0.19797 -0.36779,-0.28694 -0.0281,-0.0883 -0.18645,-0.20682 -0.27649,-0.20682 -0.098,0 -0.19891,0.10028 -0.23912,0.23754 -0.0161,0.0551 -0.0275,0.30493 -0.0252,0.55525 l 0.004,0.45513 -0.31915,0.41647 c -0.17555,0.22907 -0.32578,0.417 -0.33385,0.41763 -0.008,8.6e-4 -0.0521,-0.0828 -0.0979,-0.1853 -0.0589,-0.13187 -0.0806,-0.22294 -0.0743,-0.311 0.008,-0.10825 -0.003,-0.13366 -0.0782,-0.1943 -0.0482,-0.0386 -0.12668,-0.0698 -0.17534,-0.0699 -0.16433,-6e-5 -0.25348,0.0891 -0.46667,0.46704 -0.11139,0.19733 -0.22364,0.38369 -0.24959,0.41411 -0.0389,0.0457 -0.25522,0.13952 -0.99923,0.43358 -0.0283,0.0113 -0.0363,0.002 -0.0246,-0.028 z m 0.28842,-1.48228 c 0.0245,-0.0644 0.017,-0.097 -0.0436,-0.18831 -0.0918,-0.13887 -0.0598,-0.17429 0.18168,-0.20024 0.14577,-0.0156 0.1697,-0.0269 0.17783,-0.0842 0.008,-0.0529 -0.006,-0.0661 -0.0619,-0.0661 -0.0658,0 -0.0728,-0.0142 -0.0903,-0.18223 -0.0207,-0.1985 -0.0476,-0.24658 -0.12181,-0.21807 -0.041,0.0157 -0.0453,0.0472 -0.028,0.20943 l 0.0204,0.19087 h -0.13556 c -0.10904,0 -0.13577,-0.0101 -0.13667,-0.0513 -0.003,-0.11293 -0.0352,-0.28775 -0.0583,-0.3122 -0.0136,-0.0143 -0.0469,-0.0173 -0.0742,-0.007 -0.0409,0.0156 -0.0474,0.0495 -0.0368,0.19475 0.0111,0.1505 0.007,0.17575 -0.037,0.17575 -0.0273,0 -0.0661,0.0199 -0.0863,0.044 -0.0571,0.0688 0.0151,0.13213 0.15041,0.13213 0.10558,0 0.11385,0.007 0.11385,0.0835 0,0.0462 0.0263,0.10727 0.0588,0.13669 0.0324,0.0292 0.0588,0.082 0.0588,0.11712 0,0.12645 0.10337,0.14403 0.1485,0.0252 z m -1.35479,-0.45179 c 0.18339,-0.0867 0.19189,-0.088 0.31683,-0.0454 0.0707,0.0241 0.14438,0.037 0.16392,0.0287 0.0437,-0.0186 0.27568,-0.30523 0.30163,-0.37285 0.0124,-0.0323 8.6e-4,-0.0562 -0.0336,-0.0694 -0.0394,-0.0152 -0.0865,0.0185 -0.1893,0.13502 l -0.1368,0.15516 -0.0901,-0.0465 c -0.0718,-0.0371 -0.10302,-0.0856 -0.15383,-0.23805 -0.0476,-0.14299 -0.0774,-0.19144 -0.11759,-0.19144 -0.0749,0 -0.0862,0.054 -0.0394,0.18809 0.022,0.0631 0.0353,0.11941 0.0295,0.12517 -0.007,0.007 -0.0554,-0.008 -0.11037,-0.03 -0.19363,-0.0787 -0.25178,0.0501 -0.0632,0.14023 l 0.11005,0.0525 -0.13947,0.0709 c -0.1293,0.0658 -0.16788,0.11968 -0.11989,0.16766 0.0336,0.0336 0.0773,0.0224 0.27163,-0.0695 z m -0.72551,-0.37199 c 0.1095,-0.10781 0.14807,-0.13041 0.17572,-0.10268 0.12437,0.12435 0.37012,-0.0754 0.28603,-0.2324 -0.0255,-0.0477 -0.0152,-0.0763 0.0589,-0.1604 0.0495,-0.0563 0.09,-0.11553 0.09,-0.13162 0,-0.0724 -0.0958,-0.0546 -0.21191,0.0398 -0.0977,0.0793 -0.13622,0.0955 -0.1726,0.0718 -0.071,-0.046 -0.20275,-0.003 -0.20275,0.0669 0,0.0387 0.0197,0.0582 0.0588,0.0582 0.0739,0 0.0748,0.0352 0.003,0.10007 -0.0366,0.0332 -0.0626,0.0397 -0.0752,0.0192 -0.0296,-0.0479 -0.17995,-0.0371 -0.22403,0.016 -0.0333,0.04 -0.0311,0.0533 0.0154,0.0871 0.03,0.022 0.0658,0.0328 0.0796,0.0245 0.057,-0.0352 0.019,0.0356 -0.0664,0.12355 -0.0919,0.095 -0.0934,0.15807 -0.004,0.15807 0.0267,0 0.11177,-0.0621 0.18894,-0.13819 z m 3.51005,-0.0169 c 0.0437,-0.0338 0.049,-0.18628 0.008,-0.21206 -0.0556,-0.0344 -0.0288,-0.0607 0.11977,-0.11833 0.17299,-0.067 0.26195,-0.14063 0.26195,-0.21652 0,-0.0827 -0.11373,-0.20836 -0.18844,-0.20836 -0.0939,0 -0.17446,0.098 -0.15667,0.19117 0.0123,0.064 -0.002,0.0844 -0.0936,0.13099 -0.14728,0.0752 -0.29546,0.21822 -0.29431,0.28423 0.003,0.15961 0.21275,0.2505 0.34408,0.14888 z m -3.9152,-0.55491 c 0.0246,-0.0352 0.0607,-0.13471 0.08,-0.22121 0.0214,-0.0958 0.0458,-0.14672 0.0622,-0.13027 0.0165,0.0165 0.007,0.0916 -0.0251,0.19223 -0.0627,0.19906 -0.0358,0.25175 0.095,0.18563 0.0463,-0.0234 0.10112,-0.0365 0.1218,-0.0291 0.0207,0.008 0.0562,-0.002 0.0791,-0.0208 0.0454,-0.0376 0.0288,-0.11782 -0.0244,-0.11853 -0.0814,-9.8e-4 -0.11399,-0.0489 -0.0785,-0.1153 0.0307,-0.0575 0.0541,-0.0634 0.2159,-0.0552 0.16496,0.009 0.18141,0.004 0.18141,-0.0494 0,-0.0435 -0.0287,-0.0658 -0.11117,-0.0862 -0.0854,-0.0211 -0.10636,-0.0381 -0.0905,-0.0735 0.0114,-0.0252 0.0216,-0.0855 0.0231,-0.13402 0.002,-0.0682 -0.0101,-0.0881 -0.0538,-0.0881 -0.0367,0 -0.0662,0.0307 -0.0847,0.0881 -0.0434,0.13453 -0.0792,0.16614 -0.16693,0.1469 -0.14834,-0.0326 -0.22839,0.0257 -0.28028,0.20428 -0.0261,0.0894 -0.0539,0.16266 -0.0621,0.16266 -0.008,0 -0.0126,-0.0496 -0.009,-0.11016 0.008,-0.16981 0.004,-0.18352 -0.0582,-0.18352 -0.0874,0 -0.13413,0.19959 -0.0781,0.3336 0.0682,0.16346 0.18945,0.20989 0.26524,0.10169 z m 4.89151,-0.13159 c 0,-0.0233 -0.0496,-0.0629 -0.11017,-0.088 -0.0607,-0.0251 -0.15318,-0.0633 -0.20584,-0.0853 l -0.0957,-0.0396 0.0491,-0.12617 c 0.0269,-0.0693 0.0528,-0.13078 0.0571,-0.13641 0.006,-0.007 0.0563,0.007 0.11538,0.0252 0.0761,0.0251 0.11659,0.0264 0.13874,0.004 0.0479,-0.0479 -0.0197,-0.11049 -0.17798,-0.16471 -0.13271,-0.0454 -0.13944,-0.0449 -0.18674,0.013 -0.027,0.033 -0.0546,0.0764 -0.0612,0.0964 -0.009,0.027 -0.0579,0.02 -0.19117,-0.0278 -0.1514,-0.0543 -0.18419,-0.0579 -0.21287,-0.0233 -0.0488,0.059 -0.0207,0.0866 0.16395,0.16166 0.16036,0.065 0.16401,0.0691 0.14656,0.16204 -0.0179,0.0949 -0.0169,0.0957 0.19576,0.18287 0.11749,0.0482 0.23346,0.0939 0.25768,0.10146 0.0629,0.0199 0.11744,-0.007 0.11744,-0.0554 z m -2.21217,-0.46853 c 0.5236,-0.24808 0.65711,-0.94745 0.26394,-1.38264 -0.15594,-0.1726 -0.34388,-0.25495 -0.61178,-0.26802 -0.19173,-0.009 -0.2491,-2.3e-4 -0.38171,0.0608 -0.22247,0.10224 -0.33071,0.20468 -0.4333,0.40999 -0.0752,0.15034 -0.0898,0.21412 -0.0898,0.39053 0,0.65537 0.65897,1.07067 1.25265,0.78943 z m -2.28033,-0.94129 c 0,-0.0269 -0.0219,-0.0733 -0.0486,-0.10269 -0.0451,-0.0499 -0.0451,-0.0574 0,-0.10736 0.0752,-0.0828 0.0582,-0.16963 -0.0552,-0.283 -0.12492,-0.12492 -0.23769,-0.13559 -0.35614,-0.0337 -0.0694,0.0598 -0.0757,0.0769 -0.0427,0.11668 0.0353,0.0424 0.0467,0.0425 0.12763,8.5e-4 0.0841,-0.0435 0.0923,-0.0425 0.1512,0.0172 0.0613,0.0622 0.0614,0.0638 0.006,0.10547 -0.0944,0.0701 -0.15185,0.0497 -0.33431,-0.11915 -0.0959,-0.0888 -0.19579,-0.16149 -0.2219,-0.16149 -0.0668,0 -0.0591,0.0866 0.0149,0.16529 l 0.0623,0.0663 -0.0817,0.0702 c -0.13093,0.11264 -0.0308,0.18679 0.13107,0.0972 0.062,-0.0344 0.083,-0.0324 0.16152,0.0155 0.0497,0.0302 0.1243,0.0551 0.1659,0.0552 0.0426,6e-5 0.1057,0.0322 0.14459,0.0736 0.0791,0.0841 0.17618,0.0975 0.17618,0.0243 z m 3.93354,-0.14139 c 0.0866,-0.0306 0.14003,-0.035 0.17794,-0.0148 0.0744,0.0398 0.24434,0.0365 0.28636,-0.007 0.0514,-0.0512 -0.012,-0.11227 -0.11652,-0.11227 -0.0725,0 -0.0851,-0.01 -0.0772,-0.0649 0.008,-0.0512 0.0465,-0.0763 0.18555,-0.1185 0.20176,-0.0612 0.28021,-0.12063 0.22822,-0.17264 -0.0251,-0.0251 -0.0669,-0.0252 -0.16589,-2.2e-4 -0.0728,0.0183 -0.13811,0.0334 -0.14517,0.0334 -0.007,0 -0.0294,-0.0402 -0.0497,-0.0892 -0.0445,-0.10727 -0.1086,-0.1457 -0.2436,-0.1457 -0.1057,0 -0.19613,0.0667 -0.1386,0.10224 0.0509,0.0315 0.0112,0.0636 -0.12855,0.10269 -0.13469,0.0377 -0.17564,0.0814 -0.13615,0.14533 0.0175,0.0283 0.07,0.0224 0.2341,-0.0264 0.11635,-0.0347 0.22258,-0.0589 0.23606,-0.0538 0.0135,0.006 0.006,0.0573 -0.0184,0.11599 -0.0345,0.0858 -0.07,0.11688 -0.18058,0.158 -0.16771,0.0623 -0.19459,0.085 -0.17183,0.14428 0.022,0.0573 0.0668,0.0578 0.22399,0.002 z m -3.71875,-0.57047 c 0.0154,-0.0154 0.0197,-0.049 0.009,-0.0751 -0.0146,-0.0381 -0.0451,-0.0435 -0.16077,-0.0282 -0.13135,0.0174 -0.14773,0.0125 -0.20604,-0.0616 -0.0349,-0.0444 -0.0633,-0.0938 -0.0633,-0.1105 0,-0.0383 0.21614,-0.24035 0.36042,-0.33708 0.094,-0.063 0.12185,-0.0693 0.18352,-0.0411 0.076,0.0347 0.0897,0.0794 0.0456,0.14917 -0.0633,0.10028 0.0684,0.16764 0.14584,0.0745 0.0208,-0.0251 0.0378,-0.0865 0.0378,-0.13674 0,-0.11161 -0.1491,-0.2581 -0.26271,-0.2581 -0.0462,0 -0.10783,-0.0342 -0.15814,-0.0881 -0.0641,-0.0685 -0.10748,-0.0881 -0.19612,-0.0881 -0.18934,0 -0.30465,0.11891 -0.19974,0.206 0.0364,0.0301 0.0544,0.0281 0.0977,-0.0112 0.0687,-0.0621 0.14801,-0.0614 0.17218,0.002 0.0137,0.0358 -0.0265,0.0912 -0.14432,0.19819 -0.0898,0.0816 -0.17932,0.17968 -0.19883,0.21772 -0.078,0.15202 0.0568,0.38795 0.25192,0.44138 0.0875,0.024 0.23579,-0.004 0.28515,-0.0529 z m 3.70646,-0.30946 c 0.14414,-0.14412 0.0511,-0.33428 -0.14551,-0.2974 l -0.10257,0.0193 -0.0454,-0.15276 c -0.0711,-0.23955 -0.16535,-0.30843 -0.31348,-0.22916 -0.17995,0.0964 -0.0728,0.36788 0.12104,0.30639 0.0422,-0.0134 0.0588,-0.006 0.0588,0.0288 0,0.12707 0.20427,0.39693 0.30045,0.39693 0.0299,0 0.0869,-0.0325 0.12662,-0.072 z m -2.8258,-0.47642 c 0.402,-0.18729 0.44755,-0.21862 0.4204,-0.2894 -0.0189,-0.0488 -0.0529,-0.0483 -0.1791,0.004 -0.0543,0.0222 -0.0539,0.0184 0.007,-0.059 0.0464,-0.059 0.0597,-0.10458 0.0466,-0.15982 -0.0295,-0.12426 -0.10703,-0.23871 -0.16179,-0.23871 -0.077,0 -0.0937,0.0533 -0.042,0.13239 0.0985,0.15021 0.036,0.24391 -0.12509,0.18776 -0.0672,-0.0234 -0.10437,-0.0728 -0.17549,-0.23398 -0.0894,-0.20243 -0.15729,-0.2688 -0.21546,-0.21064 -0.0206,0.0206 -0.0113,0.073 0.0298,0.16557 l 0.0599,0.13541 -0.0703,-0.0176 c -0.0985,-0.0246 -0.22013,0.0999 -0.22013,0.22542 0,0.11995 0.10492,0.29107 0.17859,0.29107 0.0681,0 0.0747,-0.0819 0.0133,-0.16322 -0.0486,-0.0644 -0.058,-0.1483 -0.0191,-0.17236 0.0634,-0.0391 0.21289,0.0521 0.27075,0.16551 0.0328,0.0644 0.0556,0.12079 0.0502,0.12535 -0.006,0.006 -0.0789,0.0431 -0.16355,0.0857 -0.14232,0.0715 -0.18374,0.12515 -0.13459,0.17431 0.0338,0.0338 0.063,0.0237 0.42989,-0.14719 z m 0.006,-0.21623 c -0.009,-0.0154 0.009,-0.028 0.043,-0.028 0.0709,0 0.0781,0.0164 0.0173,0.0396 -0.0237,0.009 -0.0509,0.004 -0.0605,-0.0116 z m 1.87598,0.24996 c -0.002,-0.0318 -0.0136,-0.0997 -0.0252,-0.15084 -0.0191,-0.084 -0.012,-0.0977 0.0713,-0.14089 0.14302,-0.0739 0.16679,-0.15722 0.0926,-0.32479 -0.0616,-0.13925 -0.0558,-0.22586 0.008,-0.1205 0.0738,0.12186 0.1281,0.17372 0.16063,0.15362 0.11814,-0.073 -0.0829,-0.36998 -0.2507,-0.36998 -0.094,0 -0.15598,0.0462 -0.15491,0.11598 3.2e-4,0.0251 0.0323,0.1222 0.0707,0.21592 0.0389,0.0944 0.0552,0.16544 0.0366,0.15925 -0.0184,-0.007 -0.0604,-0.0817 -0.0934,-0.16815 -0.0329,-0.0863 -0.0733,-0.16146 -0.0895,-0.16688 -0.0429,-0.0143 -0.25509,0.24926 -0.23148,0.28746 0.0112,0.0181 0.0566,0.0247 0.10381,0.0154 0.0633,-0.0128 0.0913,-0.003 0.11363,0.0388 0.0242,0.045 0.0134,0.0692 -0.058,0.12926 -0.0482,0.0406 -0.11295,0.0817 -0.14385,0.0916 -0.0735,0.0233 -0.0978,0.0907 -0.0477,0.13236 0.0297,0.0246 0.0657,0.0222 0.14253,-0.009 0.10124,-0.0424 0.10302,-0.0418 0.12237,0.0351 0.0111,0.0429 0.0338,0.0953 0.0511,0.11616 0.0456,0.0549 0.12585,0.0292 0.1211,-0.0387 z m -0.56854,-0.28832 c 0,-0.0379 -0.0377,-0.12103 -0.0837,-0.18462 l -0.0837,-0.11564 0.0985,-0.11388 c 0.14394,-0.16652 0.1238,-0.33611 -0.0241,-0.20233 -0.0473,0.0427 -0.0537,0.043 -0.0537,0.003 0,-0.0685 -0.197,-0.22782 -0.28189,-0.22782 -0.0957,0 -0.17846,0.0449 -0.21769,0.11821 -0.0264,0.0494 -0.0101,0.0805 0.10704,0.20583 0.10447,0.11181 0.12987,0.15592 0.10414,0.18166 -0.0257,0.0257 -0.066,4.2e-4 -0.16593,-0.10369 -0.1597,-0.16668 -0.22101,-0.17738 -0.22101,-0.0386 0,0.0546 -0.009,0.1404 -0.0184,0.19087 -0.0159,0.0792 -0.01,0.0917 0.0426,0.0917 0.0336,0 0.073,-0.0215 0.0878,-0.0479 0.0241,-0.0429 0.036,-0.0412 0.11694,0.0188 0.0719,0.0532 0.11311,0.063 0.20425,0.0484 0.10938,-0.0175 0.118,-0.0129 0.2069,0.11339 0.10213,0.14489 0.1821,0.17239 0.1821,0.0627 z m -0.37778,-0.5501 c -0.11038,-0.12842 -0.0617,-0.16545 0.0548,-0.0415 0.0379,0.0404 0.0881,0.0734 0.1115,0.0734 0.0345,0 0.0356,0.009 0.007,0.044 -0.0497,0.0599 -0.0591,0.0559 -0.17225,-0.0759 z"
       id="path1821" />
  </g>
</svg>
