<?xml version="1.0" encoding="UTF-8" standalone="no"?>
<!-- Created with Inkscape (http://www.inkscape.org/) -->

<svg
   width="11.50485mm"
   height="11.504596mm"
   viewBox="0 0 11.50485 11.504596"
   version="1.1"
   id="svg1"
   inkscape:version="1.4.2 (ebf0e940d0, 2025-05-08)"
   sodipodi:docname="mw.svg"
   xmlns:inkscape="http://www.inkscape.org/namespaces/inkscape"
   xmlns:sodipodi="http://sodipodi.sourceforge.net/DTD/sodipodi-0.dtd"
   xmlns="http://www.w3.org/2000/svg"
   xmlns:svg="http://www.w3.org/2000/svg">
  <sodipodi:namedview
     id="namedview1"
     pagecolor="#ffffff"
     bordercolor="#000000"
     borderopacity="0.25"
     inkscape:showpageshadow="2"
     inkscape:pageopacity="0.0"
     inkscape:pagecheckerboard="0"
     inkscape:deskcolor="#d1d1d1"
     inkscape:document-units="mm"
     inkscape:zoom="0.80711279"
     inkscape:cx="133.1908"
     inkscape:cy="99.118736"
     inkscape:window-width="1854"
     inkscape:window-height="1131"
     inkscape:window-x="0"
     inkscape:window-y="0"
     inkscape:window-maximized="1"
     inkscape:current-layer="layer1" />
  <defs
     id="defs1" />
  <g
     inkscape:label="Layer 1"
     inkscape:groupmode="layer"
     id="layer1"
     transform="translate(-60.854185,-77.787408)">
    <path
       style="fill:#000000;stroke-width:0.0105614"
       d="m 64.868245,88.843999 c -0.04584,-0.05274 -0.10981,-0.133276 -0.142166,-0.178961 -0.03234,-0.04569 -0.08626,-0.130186 -0.119793,-0.187775 -0.03354,-0.0576 -0.08945,-0.163573 -0.124262,-0.235519 -0.0348,-0.07194 -0.08299,-0.181089 -0.107068,-0.242541 -0.0241,-0.06146 -0.05793,-0.162697 -0.07521,-0.224986 -0.0173,-0.06228 -0.03555,-0.144824 -0.04062,-0.183425 -0.0051,-0.03859 -0.0079,-0.09172 -0.0062,-0.118054 l 0.0028,-0.04788 -0.190608,-0.205108 c -0.104844,-0.112797 -0.20456,-0.222726 -0.221591,-0.244284 -0.01704,-0.02154 -0.05052,-0.07208 -0.07441,-0.112287 -0.02389,-0.04021 -0.0666,-0.123875 -0.0949,-0.185933 -0.02831,-0.06206 -0.07256,-0.176014 -0.09837,-0.253233 -0.02577,-0.07721 -0.08121,-0.26712 -0.12314,-0.422023 -0.04193,-0.154901 -0.0979,-0.370877 -0.124373,-0.479949 -0.02649,-0.109072 -0.05518,-0.23101 -0.06379,-0.270981 -0.0086,-0.03997 -0.03754,-0.115213 -0.0643,-0.167209 -0.02677,-0.05199 -0.08074,-0.143094 -0.119976,-0.202446 -0.03924,-0.05934 -0.125402,-0.178173 -0.191494,-0.264051 -0.06609,-0.08589 -0.223944,-0.280898 -0.350788,-0.433364 -0.126846,-0.152458 -0.295952,-0.365818 -0.375811,-0.474117 -0.07985,-0.1083 -0.244523,-0.336828 -0.36593,-0.507836 -0.121409,-0.171006 -0.243048,-0.342374 -0.270324,-0.380826 -0.02729,-0.03844 -0.171268,-0.242919 -0.319995,-0.454382 l -0.270412,-0.384479 -0.02569,-0.108897 c -0.0141,-0.05989 -0.0321,-0.154742 -0.03998,-0.210783 -0.0079,-0.05604 -0.01487,-0.15135 -0.01558,-0.211799 -7.93e-4,-0.06046 0.0045,-0.147783 0.01148,-0.194062 0.007,-0.04628 0.02567,-0.12338 0.04153,-0.171336 0.01585,-0.04795 0.04983,-0.121489 0.07555,-0.163425 0.02572,-0.04194 0.06387,-0.09341 0.08478,-0.114387 0.03006,-0.03024 0.04855,-0.03976 0.08847,-0.04595 0.02775,-0.0043 0.06216,-0.0068 0.07648,-0.0056 0.02381,0.0021 0.0554,0.03392 0.370612,0.373854 l 0.344562,0.371575 7.94e-4,0.119735 c 2.11e-4,0.06586 0.0061,0.131884 0.01288,0.14673 0.0068,0.01484 0.174569,0.199914 0.372883,0.411263 0.198307,0.211352 0.508531,0.542126 0.689371,0.735057 0.180846,0.192935 0.402572,0.429017 0.492718,0.524635 l 0.163904,0.173852 0.104474,0.02098 c 0.05746,0.01154 0.117467,0.02684 0.13335,0.03396 0.0159,0.0071 0.03806,0.02217 0.0493,0.0334 0.01122,0.01122 0.02043,0.02694 0.02043,0.03494 0,0.008 0.02006,0.04135 0.04459,0.07416 0.02569,0.03438 0.196829,0.211183 0.403894,0.417264 0.197602,0.19671 0.453205,0.447365 0.56796,0.557059 l 0.208645,0.199443 0.02585,-0.157123 0.02585,-0.157123 -0.03871,-0.03871 c -0.03791,-0.0379 -0.03858,-0.04037 -0.03238,-0.118261 0.0035,-0.04375 0.01791,-0.190593 0.03213,-0.326321 l 0.02582,-0.246777 -0.03819,-0.03878 -0.03818,-0.03878 0.03041,-0.120044 c 0.01672,-0.06603 0.02799,-0.127701 0.02506,-0.137057 -0.0028,-0.0094 -0.02824,-0.04458 -0.05615,-0.07827 -0.02792,-0.03368 -0.06424,-0.08139 -0.08071,-0.105992 -0.01646,-0.02458 -0.03514,-0.05634 -0.04148,-0.07055 -0.0063,-0.01421 -0.008,-0.06271 -0.0037,-0.107823 0.0043,-0.04511 0.0024,-0.09046 -0.0038,-0.100783 -0.0064,-0.01032 -0.05848,-0.09287 -0.115777,-0.183446 -0.0573,-0.09057 -0.131466,-0.207954 -0.164825,-0.260852 -0.03336,-0.0529 -0.08987,-0.142579 -0.125581,-0.199279 -0.03571,-0.05671 -0.0929,-0.147386 -0.127085,-0.20151 -0.03417,-0.05413 -0.129019,-0.206298 -0.210746,-0.338156 -0.08173,-0.131857 -0.182099,-0.295531 -0.223044,-0.363722 -0.05968,-0.09939 -0.07472,-0.132848 -0.07582,-0.168725 -7.94e-4,-0.02463 0.0048,-0.06019 0.01236,-0.07906 0.01037,-0.02588 0.0569,-0.07748 0.189719,-0.210302 0.132469,-0.132469 0.184603,-0.179512 0.210844,-0.190293 0.01916,-0.0079 0.05738,-0.01215 0.08491,-0.0095 0.03933,0.0038 0.07631,0.02077 0.172662,0.07937 0.06744,0.041 0.201541,0.123333 0.298013,0.182944 0.09647,0.05961 0.41043,0.256463 0.69769,0.437451 0.287261,0.180989 0.530916,0.334439 0.541454,0.341006 0.01053,0.0066 0.05281,0.008 0.09395,0.0031 0.04113,-0.0048 0.08935,-0.0043 0.107143,0.0013 0.01778,0.0055 0.07664,0.04412 0.13077,0.0858 0.05414,0.04169 0.107111,0.08171 0.117748,0.08892 0.01336,0.0091 0.05807,0.0035 0.14483,-0.01789 l 0.125505,-0.03101 0.03596,0.03567 c 0.02719,0.02701 0.04411,0.03559 0.06938,0.03543 0.01839,-1.16e-4 0.162102,-0.01344 0.319405,-0.02964 0.174852,-0.01799 0.294486,-0.02453 0.307827,-0.01683 0.01198,0.007 0.03375,0.02442 0.04829,0.03888 0.02522,0.02508 0.03378,0.02508 0.183608,2.64e-4 l 0.15712,-0.02585 -0.218168,-0.227256 c -0.119991,-0.124994 -0.369027,-0.378851 -0.553399,-0.564147 -0.184389,-0.185282 -0.363503,-0.358679 -0.398071,-0.385294 -0.03455,-0.02662 -0.06957,-0.0484 -0.07781,-0.04839 -0.0082,0 -0.02418,-0.0092 -0.03541,-0.02043 -0.01122,-0.01122 -0.02627,-0.03343 -0.0334,-0.04929 -0.0071,-0.0159 -0.02241,-0.07587 -0.03396,-0.133305 l -0.02098,-0.104426 -0.173937,-0.163872 c -0.09567,-0.09013 -0.279718,-0.263094 -0.408982,-0.384382 -0.129284,-0.121271 -0.456899,-0.428815 -0.728038,-0.683429 -0.27114,-0.254609 -0.505156,-0.470921 -0.520023,-0.480695 -0.01736,-0.0114 -0.07252,-0.01831 -0.153927,-0.01924 l -0.126886,-0.0013 -0.290227,-0.268489 c -0.159623,-0.147677 -0.327469,-0.305612 -0.372985,-0.350977 -0.08079,-0.08049 -0.08278,-0.08337 -0.08114,-0.121939 7.94e-4,-0.02172 0.0043,-0.05333 0.0077,-0.07027 0.0037,-0.01852 0.02111,-0.04576 0.04371,-0.06831 0.02066,-0.02066 0.0719,-0.05853 0.113847,-0.08424 0.04194,-0.02572 0.115475,-0.05971 0.163428,-0.07555 0.04795,-0.01582 0.12505,-0.03452 0.171331,-0.04153 0.04628,-0.007 0.133607,-0.01217 0.194061,-0.01146 0.06045,7.93e-4 0.155761,0.0077 0.211802,0.01558 0.05604,0.0079 0.150215,0.02572 0.20928,0.03963 0.10667,0.02511 0.108426,0.02604 0.260982,0.132654 0.08448,0.05905 0.198964,0.139279 0.254416,0.178297 0.05546,0.03902 0.236884,0.166765 0.403177,0.283885 0.166299,0.117115 0.433406,0.307052 0.593574,0.422079 0.160171,0.115025 0.343308,0.247793 0.406967,0.295035 0.06365,0.04725 0.159686,0.122602 0.213397,0.167473 0.05371,0.04486 0.193651,0.160988 0.31098,0.258043 0.117335,0.09705 0.278831,0.225329 0.358894,0.285054 0.08006,0.05972 0.185812,0.134797 0.235003,0.166817 0.04919,0.03203 0.130175,0.07889 0.179965,0.104129 0.05922,0.03003 0.132162,0.0552 0.210981,0.07281 0.06625,0.01479 0.187926,0.04345 0.270391,0.06367 0.08246,0.02022 0.274291,0.07036 0.426283,0.111414 0.151996,0.04106 0.337183,0.09485 0.411531,0.119536 0.07435,0.02469 0.170098,0.06 0.212783,0.07847 0.04268,0.01849 0.119644,0.05539 0.171021,0.08206 0.05138,0.02666 0.120663,0.06828 0.153972,0.09247 0.03329,0.02421 0.154715,0.131313 0.26979,0.238038 l 0.20923,0.194046 0.04766,-0.0028 c 0.02619,-0.0013 0.07923,0.0013 0.117832,0.0063 0.03859,0.0051 0.120981,0.02349 0.183081,0.04096 0.0621,0.01746 0.158978,0.04954 0.215279,0.07128 0.0563,0.02175 0.152659,0.06317 0.214122,0.09207 0.06146,0.0289 0.163073,0.08087 0.2258,0.115493 0.06273,0.03462 0.15684,0.09267 0.209137,0.129011 0.0523,0.03634 0.15739,0.120446 0.23354,0.186907 0.07614,0.06647 0.183579,0.16982 0.238713,0.22969 0.05514,0.05987 0.109836,0.126153 0.121544,0.147307 0.01172,0.02114 0.02185,0.053 0.02257,0.07078 7.94e-4,0.01778 -0.0068,0.0404 -0.01667,0.05027 -0.0099,0.0099 -0.03662,0.01791 -0.05947,0.01791 -0.0315,0 -0.0525,-0.0088 -0.08696,-0.03626 -0.02498,-0.01992 -0.082,-0.06841 -0.12668,-0.107709 -0.06513,-0.05727 -0.08435,-0.06976 -0.09694,-0.0629 -0.0086,0.0047 -0.08951,0.05511 -0.179729,0.112019 -0.09022,0.05691 -0.164033,0.1074 -0.164036,0.112197 0,0.0048 0.0173,0.02943 0.03842,0.05472 l 0.03843,0.04599 -0.09152,0.132455 -0.09152,0.132459 -0.07048,7.94e-4 c -0.06798,2.64e-4 -0.07202,-0.0011 -0.113704,-0.04269 -0.03304,-0.03304 -0.04581,-0.04063 -0.0542,-0.03224 -0.006,0.006 -0.0084,0.02852 -0.0051,0.04994 0.0044,0.02964 -7.5e-5,0.04488 -0.01887,0.0637 l -0.02474,0.02474 0.09141,0.09156 c 0.05029,0.05034 0.302794,0.312946 0.561128,0.583552 0.302019,0.316341 0.476893,0.505333 0.489829,0.529322 0.01106,0.02053 0.01958,0.04825 0.01892,0.06163 -7.94e-4,0.01492 -0.03385,0.06838 -0.08582,0.138527 -0.04654,0.06283 -0.09765,0.123151 -0.113591,0.134052 -0.01595,0.0109 -0.04783,0.02265 -0.07088,0.02614 -0.02304,0.0035 -0.06104,0.01487 -0.08443,0.02532 l -0.04252,0.01902 -0.138879,-0.07312 c -0.07639,-0.04022 -0.207516,-0.105307 -0.291399,-0.144643 -0.08389,-0.03934 -0.167936,-0.07627 -0.186777,-0.08208 l -0.03424,-0.01056 0.03643,0.05319 c 0.02003,0.02926 0.04086,0.06758 0.04629,0.08516 0.0055,0.01757 0.01529,0.102933 0.02188,0.189664 0.0088,0.115448 0.0072,0.168804 -0.0057,0.199133 -0.01225,0.02859 -0.042,0.06567 -0.09602,0.119697 l -0.07827,0.07826 -0.02785,-0.02817 C 71.191904,84.77123 71.04807,84.617641 70.8876,84.445405 70.72713,84.273178 70.505756,84.037508 70.395663,83.921689 l -0.200173,-0.210566 -0.132226,0.0878 c -0.08846,0.05874 -0.13797,0.086 -0.149587,0.08238 -0.0096,-0.0031 -0.03385,-0.01725 -0.05405,-0.03168 -0.03203,-0.02291 -0.04423,-0.02445 -0.09602,-0.01214 l -0.05933,0.01413 -0.215474,-0.215474 -0.215474,-0.215479 -0.170019,0.06522 c -0.09351,0.03587 -0.373263,0.142758 -0.621665,0.237519 l -0.451649,0.172291 -0.07292,0.150503 -0.07292,0.150503 0.03922,0.16792 0.03923,0.167929 -0.181798,0.181795 -0.181795,0.181798 -0.167542,-0.03957 -0.167542,-0.03957 -0.150574,0.07295 -0.15058,0.07296 -0.172291,0.451649 c -0.09476,0.248404 -0.201642,0.528154 -0.237514,0.621665 l -0.06522,0.170019 0.215476,0.215474 0.215474,0.215474 -0.01434,0.06032 c -0.0099,0.04153 -0.0095,0.06548 0.0013,0.0769 0.0086,0.0092 0.02334,0.0322 0.03262,0.05129 l 0.01688,0.03473 -0.0882,0.134405 -0.08819,0.134398 0.06446,0.06179 c 0.03546,0.03399 0.228976,0.216533 0.430007,0.405707 0.201027,0.189175 0.420645,0.394677 0.488026,0.456684 l 0.122508,0.112737 -0.07922,0.07922 c -0.05412,0.05411 -0.09205,0.08472 -0.119703,0.09656 -0.02838,0.01215 -0.08509,0.01439 -0.189807,0.0074 -0.08213,-0.0054 -0.170407,-0.01595 -0.196173,-0.02339 -0.02574,-0.0074 -0.06913,-0.03097 -0.09637,-0.05233 l -0.04953,-0.03881 0.01032,0.03322 c 0.0056,0.01828 0.04017,0.09746 0.07666,0.175975 0.03649,0.07852 0.102584,0.211952 0.146878,0.296508 l 0.08054,0.153736 -0.01913,0.04277 c -0.01053,0.02355 -0.02196,0.06161 -0.02543,0.08466 -0.0035,0.02305 -0.01527,0.05494 -0.02614,0.07087 -0.0109,0.01595 -0.07122,0.06705 -0.134051,0.113594 -0.07015,0.05195 -0.123603,0.08508 -0.138528,0.08582 -0.01336,7.93e-4 -0.04107,-0.0078 -0.06155,-0.01887 -0.02273,-0.01225 -0.157443,-0.134694 -0.346099,-0.314582 -0.169873,-0.161983 -0.432974,-0.414038 -0.5847,-0.560101 l -0.275838,-0.265595 -0.02368,0.02368 c -0.01765,0.01765 -0.03357,0.02217 -0.06263,0.01783 -0.02143,-0.0031 -0.04391,-7.94e-4 -0.04995,0.0051 -0.0084,0.0084 -7.93e-4,0.02114 0.03224,0.0542 0.04168,0.04169 0.04327,0.04566 0.04268,0.113702 l -7.93e-4,0.07048 -0.132456,0.09152 -0.132453,0.09152 -0.04322,-0.03863 c -0.02371,-0.02133 -0.04832,-0.03866 -0.05456,-0.03868 -0.0062,-3.2e-5 -0.05797,0.07387 -0.114964,0.164227 -0.057,0.09036 -0.107498,0.171386 -0.112223,0.18007 -0.007,0.01288 0.0065,0.03276 0.0736,0.108641 0.04521,0.05108 0.09449,0.110656 0.109529,0.1324 0.01778,0.02574 0.02638,0.05236 0.02455,0.07625 -0.0013,0.02021 -0.01042,0.04434 -0.01971,0.05366 -0.0093,0.0093 -0.0315,0.01638 -0.04928,0.01569 -0.01778,-7.94e-4 -0.04969,-0.0108 -0.07091,-0.02246 -0.02122,-0.01164 -0.101931,-0.08216 -0.179351,-0.156716 -0.07748,-0.0745 -0.178189,-0.178787 -0.22411,-0.231441 z m 0.432734,0.326245 c 0.02074,0.01225 0.03834,0.01614 0.0418,0.0093 0.0031,-0.0065 -0.01003,-0.03227 -0.02964,-0.0572 -0.01958,-0.02495 -0.08403,-0.09439 -0.14319,-0.154355 -0.05911,-0.06001 -0.14982,-0.144047 -0.201445,-0.186889 -0.05163,-0.04284 -0.108252,-0.08704 -0.125826,-0.09822 l -0.03196,-0.02032 0.0209,0.0314 c 0.01148,0.01725 0.07013,0.08633 0.13031,0.153475 0.06018,0.06715 0.153027,0.162499 0.206336,0.211875 0.05329,0.04939 0.113032,0.09931 0.132738,0.110938 z m -0.417486,-0.483386 c 0.03651,0.02511 0.08202,0.06025 0.101139,0.07809 0.02283,0.02135 0.0062,-0.0056 -0.04842,-0.07854 -0.04574,-0.06105 -0.0866,-0.117658 -0.09078,-0.125797 -0.0042,-0.0081 0.01241,0.0089 0.03689,0.03779 0.0245,0.02891 0.08704,0.100769 0.139049,0.159658 0.05201,0.05889 0.09606,0.107082 0.09792,0.107087 0.0019,0 0.05698,-0.08379 0.122502,-0.186185 0.06552,-0.102406 0.129321,-0.202662 0.14178,-0.2228 0.01246,-0.02013 0.02487,-0.03661 0.02757,-0.03661 0.0028,0 0.03087,0.02193 0.06256,0.0487 0.03171,0.02677 0.05798,0.04836 0.05842,0.04794 2.65e-4,-2.65e-4 0.04208,-0.02863 0.09253,-0.06266 0.05045,-0.03406 0.09497,-0.06514 0.09893,-0.0691 0.0045,-0.0045 -0.11703,-0.13064 -0.328062,-0.340331 -0.184401,-0.183213 -0.324411,-0.31709 -0.311155,-0.297487 0.01365,0.02021 -0.0122,-0.0041 -0.05965,-0.05611 -0.07062,-0.07735 -0.08547,-0.09003 -0.09472,-0.08078 -0.006,0.006 -0.0038,0.02894 0.0051,0.05093 0.01021,0.02543 0.05062,0.07868 0.111183,0.146468 l 0.09513,0.106508 -0.07241,-0.06202 c -0.03983,-0.0341 -0.08436,-0.08031 -0.09897,-0.102666 -0.01463,-0.02236 -0.03547,-0.0603 -0.04637,-0.08432 -0.01693,-0.03739 -0.01675,-0.04675 0.0019,-0.06507 l 0.0214,-0.0214 0.165455,0.165452 c 0.164677,0.164679 0.165394,0.165391 0.166854,0.13717 0.0013,-0.02722 -0.0099,-0.03979 -0.303522,-0.337312 -0.232921,-0.236018 -0.191939,-0.196852 0.173474,0.165852 0.451043,0.447707 0.479026,0.473961 0.488966,0.459277 0.0099,-0.01463 -0.02304,-0.04969 -0.534316,-0.568315 -0.540829,-0.548629 -0.545181,-0.553312 -0.587427,-0.629666 -0.02339,-0.04232 -0.05314,-0.110961 -0.06608,-0.152548 -0.01294,-0.04158 -0.02344,-0.10973 -0.02334,-0.151439 1.64e-4,-0.06302 0.01897,-0.134271 0.111334,-0.421672 0.06112,-0.190204 0.111405,-0.348221 0.111741,-0.351139 2.12e-4,-0.0028 -0.03101,-0.04273 -0.06963,-0.08847 -0.03863,-0.04574 -0.197942,-0.234389 -0.354028,-0.419219 -0.156088,-0.18483 -0.298712,-0.358106 -0.31695,-0.385048 -0.01826,-0.02694 -0.05315,-0.08598 -0.07756,-0.131189 -0.02442,-0.04521 -0.06245,-0.128608 -0.0845,-0.185322 -0.02207,-0.05672 -0.05163,-0.149889 -0.06574,-0.20705 -0.0141,-0.05716 -0.0315,-0.153034 -0.0386,-0.213045 l -0.01294,-0.109106 -0.09773,-0.09774 c -0.05375,-0.05376 -0.217149,-0.227009 -0.363107,-0.384997 -0.145962,-0.157994 -0.402936,-0.435356 -0.571066,-0.616358 -0.168137,-0.180999 -0.314462,-0.340487 -0.325189,-0.354401 -0.01074,-0.01392 0.04126,0.03828 0.115457,0.116049 0.07421,0.07776 0.232365,0.245588 0.351448,0.372951 0.119084,0.127362 0.334307,0.359352 0.478285,0.515519 0.143984,0.15616 0.295008,0.317159 0.335613,0.357767 l 0.07384,0.07384 0.0024,-0.113379 c 0.0013,-0.06236 0.005,-0.139452 0.0081,-0.17131 l 0.0058,-0.05792 -0.555918,-0.571762 c -0.305763,-0.314457 -0.622216,-0.643241 -0.70325,-0.730617 l -0.147327,-0.158856 0.21029,0.207915 c 0.115605,0.114411 0.418624,0.423026 0.673296,0.685887 0.254662,0.262879 0.476031,0.493514 0.491924,0.512532 0.0159,0.01902 0.03175,0.03175 0.03504,0.02845 0.0035,-0.0035 0.0072,-0.02238 0.0087,-0.04226 l 0.0024,-0.03612 -0.545526,-0.582152 c -0.300032,-0.320193 -0.691872,-0.738261 -0.870741,-0.92906 -0.204909,-0.218578 -0.331602,-0.359863 -0.342468,-0.381934 -0.0097,-0.01974 -0.01791,-0.08645 -0.01881,-0.152956 l -0.0013,-0.117922 -0.325655,-0.351091 -0.325654,-0.351089 -0.03535,-0.0011 c -0.01942,-7.93e-4 -0.04142,0.005 -0.04884,0.01238 -0.008,0.008 -0.0081,0.02178 -1.85e-4,0.03378 0.0073,0.01117 0.13898,0.153395 0.292592,0.316058 0.153609,0.162661 0.297908,0.319559 0.320667,0.34866 0.0394,0.05039 0.04131,0.05704 0.04009,0.139152 -7.94e-4,0.04742 -0.0035,0.07488 -0.0059,0.061 -0.0024,-0.01389 -0.0054,-0.05131 -0.0065,-0.08319 l -0.0019,-0.05795 -0.100153,-0.116419 c -0.05509,-0.06402 -0.199607,-0.221967 -0.321159,-0.350967 -0.121553,-0.129 -0.226111,-0.244009 -0.232379,-0.25555 -0.01069,-0.01974 -0.0131,-0.01884 -0.03994,0.01532 -0.01572,0.02 -0.04351,0.06114 -0.06177,0.09146 -0.01823,0.03031 -0.04418,0.08842 -0.05759,0.129112 -0.01341,0.04069 -0.03006,0.111466 -0.03699,0.157263 -0.0069,0.0458 -0.01228,0.12886 -0.01191,0.184586 2.64e-4,0.05573 0.0053,0.135681 0.0109,0.177673 0.0056,0.042 0.0186,0.118428 0.02876,0.169858 0.01019,0.05143 0.02368,0.109593 0.02996,0.129254 0.0063,0.01968 0.03594,0.07067 0.06586,0.113374 0.02993,0.04269 0.237898,0.337735 0.462167,0.655645 0.224266,0.317916 0.452784,0.640543 0.507812,0.71695 0.05503,0.07641 0.155897,0.214148 0.224155,0.30608 0.06826,0.09194 0.145589,0.192712 0.171844,0.223962 0.02625,0.03126 0.142335,0.171307 0.257942,0.311251 0.115613,0.139943 0.250092,0.307919 0.298842,0.373287 0.04875,0.06536 0.122862,0.17018 0.164687,0.232929 0.04183,0.06274 0.09453,0.151447 0.117126,0.197117 0.02259,0.04567 0.04633,0.09954 0.05275,0.119697 0.0064,0.02016 0.02162,0.08202 0.03371,0.137454 0.01215,0.05543 0.03865,0.168214 0.05893,0.250624 0.02027,0.08241 0.07119,0.276812 0.113151,0.432014 0.04196,0.155202 0.100505,0.352057 0.130112,0.437457 0.02961,0.0854 0.07992,0.20842 0.111813,0.273373 0.03189,0.06495 0.08071,0.150553 0.108497,0.190233 0.02778,0.03966 0.122299,0.148209 0.210032,0.241196 0.08774,0.09299 0.182205,0.196803 0.20992,0.230704 0.02771,0.03388 0.180391,0.187036 0.339347,0.340243 0.158893,0.153266 0.327626,0.308835 0.374944,0.345726 0.08179,0.06375 0.08691,0.06619 0.103648,0.04945 0.01741,-0.01741 0.01656,-0.01865 -0.0613,-0.09653 l -0.07891,-0.07891 0.0227,-0.01796 c 0.01849,-0.01463 0.02985,-0.01402 0.06121,0.0031 l 0.03851,0.02122 -0.01699,-0.02782 c -0.0093,-0.01529 -0.02405,-0.0409 -0.03273,-0.05688 -0.01508,-0.02785 -0.01479,-0.02782 0.0064,0.0011 0.0122,0.01656 0.04384,0.05885 0.07033,0.09398 0.02648,0.03512 0.04816,0.06665 0.04818,0.07006 1.6e-5,0.0035 -0.01683,-0.01 -0.03743,-0.02978 -0.02064,-0.01974 -0.04838,-0.04186 -0.06173,-0.04905 -0.0208,-0.01119 -0.01971,-0.007 0.0076,0.02971 0.01754,0.02355 0.03385,0.04754 0.03625,0.05337 0.0024,0.0058 -0.01979,-0.01741 -0.04922,-0.0516 -0.04595,-0.05339 -0.05523,-0.06053 -0.06539,-0.05037 -0.01003,0.01003 -1.01e-4,0.02357 0.06573,0.0894 l 0.07757,0.07756 -0.02058,0.02796 c -0.0113,0.0154 -0.02349,0.0281 -0.02705,0.02824 -0.0036,1.62e-4 -0.04511,-0.02978 -0.09229,-0.0665 -0.04718,-0.03672 -0.216644,-0.192992 -0.376552,-0.347305 -0.179195,-0.172881 -0.293548,-0.27776 -0.298011,-0.273293 -0.004,0.004 -0.0066,0.03059 -0.0057,0.05912 7.94e-4,0.02852 0.0062,0.07727 0.01193,0.108305 0.0057,0.03105 0.01945,0.08909 0.03041,0.129016 0.01101,0.03992 0.03857,0.121232 0.06127,0.180684 0.0227,0.05945 0.05469,0.138361 0.0711,0.17535 0.0164,0.03698 0.0452,0.09892 0.06399,0.137646 0.01876,0.03871 0.06632,0.125611 0.10563,0.193093 0.03931,0.06748 0.07833,0.132636 0.08672,0.144791 0.0084,0.01217 0.02694,0.03055 0.04108,0.04107 0.01429,0.01037 0.05583,0.03939 0.09233,0.06449 z m -0.06009,-0.166756 c 0.0075,0.0031 0.0137,0.0099 0.0137,0.01492 1.9e-5,0.0049 -0.0062,0.0024 -0.0137,-0.0059 -0.0084,-0.009 -0.0084,-0.01259 0,-0.009 z m 0.379632,-0.402977 c 0.01135,0.0031 0.02376,0.0024 0.02754,-0.0013 0.0038,-0.0038 0.0024,-0.02111 -0.0024,-0.03854 -0.0052,-0.01744 -0.0064,-0.02894 -0.0028,-0.02564 0.0038,0.0031 0.01225,0.02162 0.01913,0.04063 0.0083,0.02318 0.04248,0.06607 0.103556,0.130206 l 0.09107,0.09563 -0.09978,-0.09654 c -0.08065,-0.07797 -0.102748,-0.09521 -0.115273,-0.08963 -0.0085,0.0038 -0.02135,7.93e-4 -0.02859,-0.0066 -0.0123,-0.01291 -0.01204,-0.01323 0.0075,-0.0081 z m 0.05644,-0.0752 c 0.0131,0.0074 0.03017,0.0091 0.03794,0.0039 0.0091,-0.0061 0.0087,-0.01897 -0.0013,-0.03603 -0.0084,-0.01455 -0.0094,-0.02376 -0.0021,-0.02043 0.0072,0.0035 0.01625,0.02114 0.02011,0.03959 0.0052,0.02508 0.02827,0.05733 0.09173,0.128106 l 0.08474,0.09457 -0.09597,-0.09358 c -0.05453,-0.05304 -0.10118,-0.09236 -0.108046,-0.09074 -0.0066,0.0013 -0.02077,-0.0065 -0.03143,-0.01799 l -0.01937,-0.02082 z M 65.12182,87.802522 c 0.01106,0.0074 0.02617,0.02257 0.03361,0.03361 0.0075,0.01101 -0.0013,0.0049 -0.02003,-0.01357 -0.0185,-0.0185 -0.02455,-0.02754 -0.01357,-0.02003 z m -2.990709,-5.261499 c 0.02511,0.02215 0.06375,0.06078 0.08588,0.08589 0.02215,0.02511 0.0019,0.007 -0.04564,-0.04025 -0.04723,-0.04723 -0.06536,-0.06775 -0.04024,-0.04564 z M 61.955605,82.3506 c 0.02307,0.02003 0.05837,0.05533 0.07841,0.07841 0.02006,0.02307 0.0013,0.0067 -0.04195,-0.03646 -0.04313,-0.04313 -0.05958,-0.06196 -0.03646,-0.04195 z m -0.231609,-0.246349 c 0.01498,0.01172 0.03683,0.03357 0.04854,0.04854 0.01167,0.015 -7.93e-4,0.0055 -0.02729,-0.02127 -0.02669,-0.02669 -0.03628,-0.03896 -0.02125,-0.02729 z m -0.130953,-0.145364 c 0.0091,0.0053 0.02085,0.01709 0.02614,0.02614 0.0053,0.0091 -0.0021,0.0048 -0.01648,-0.0097 -0.01439,-0.01439 -0.01871,-0.02183 -0.0097,-0.01648 z m 4.13158,6.366853 c -0.0028,-0.03048 -0.01508,-0.04447 -0.216119,-0.245485 -0.212696,-0.212696 -0.213138,-0.213138 -0.214588,-0.184716 -0.0013,0.02722 0.0079,0.03776 0.216117,0.245485 0.217371,0.216773 0.217564,0.216969 0.21459,0.184716 z m -0.0475,-0.208489 c 0.01466,-0.01466 0.03273,-0.01926 0.05997,-0.01516 0.03192,0.0048 0.04433,2.64e-4 0.06861,-0.02381 l 0.02964,-0.02964 -0.06231,-0.06231 c -0.04286,-0.04286 -0.08052,-0.0712 -0.12066,-0.09079 -0.03252,-0.0159 -0.0778,-0.04792 -0.102283,-0.07241 -0.03784,-0.03784 -0.04568,-0.05295 -0.05661,-0.108884 l -0.01267,-0.06496 -0.340421,-0.34042 -0.340418,-0.340421 -0.01834,-0.108032 -0.01833,-0.108035 0.161684,-0.383434 c 0.08893,-0.210892 0.16015,-0.384971 0.158276,-0.386845 -0.0019,-0.0019 -0.02961,-0.01863 -0.06163,-0.03724 l -0.05823,-0.03385 -0.06873,-0.182856 -0.06873,-0.182862 -0.443698,-0.439856 -0.443696,-0.439857 0.0508,0.09856 c 0.02795,0.05421 0.07966,0.144098 0.114935,0.199755 0.03527,0.05566 0.110804,0.16496 0.167849,0.242893 0.05704,0.07794 0.15762,0.205415 0.223512,0.283287 0.06589,0.07786 0.15871,0.185068 0.206269,0.23822 0.04756,0.05316 0.08564,0.100201 0.08461,0.104563 -0.0011,0.0043 -0.03368,-0.02859 -0.07259,-0.07318 -0.03888,-0.04463 -0.125791,-0.14366 -0.193143,-0.220069 -0.06735,-0.07641 -0.172855,-0.206145 -0.234464,-0.288304 -0.06161,-0.08216 -0.141806,-0.196326 -0.178233,-0.253701 -0.03642,-0.05739 -0.09169,-0.153344 -0.122802,-0.213262 -0.03111,-0.05992 -0.114046,-0.216133 -0.18429,-0.347152 -0.07025,-0.131016 -0.132874,-0.243144 -0.139165,-0.249174 -0.0071,-0.0065 -0.01013,0.0081 -0.008,0.03784 0.0019,0.02683 0.01413,0.102 0.02715,0.167018 0.01302,0.06502 0.03884,0.163545 0.05738,0.21894 0.01852,0.0554 0.04938,0.133787 0.06854,0.174205 0.01916,0.04042 0.05465,0.10687 0.07886,0.147685 0.02479,0.04181 0.110456,0.15341 0.196175,0.255611 0.08369,0.09977 0.24765,0.294267 0.364363,0.432218 0.116713,0.137946 0.213697,0.257048 0.215517,0.264679 0.0019,0.0076 -0.03448,0.13064 -0.08071,0.273375 -0.04621,0.142732 -0.09609,0.301204 -0.11085,0.352161 -0.01476,0.05096 -0.02726,0.124621 -0.02775,0.163676 -7.94e-4,0.04223 0.01011,0.102389 0.02627,0.1484 0.01495,0.04255 0.04336,0.104703 0.06313,0.138091 0.01979,0.0334 0.05356,0.08362 0.07508,0.111622 0.02154,0.02799 0.266387,0.279014 0.544144,0.557813 l 0.505066,0.506849 z m -0.02162,-0.242416 0.04683,0.02304 0.09935,-0.09935 0.09934,-0.09935 -0.0117,-0.252177 -0.01169,-0.25218 -0.03985,-0.03985 c -0.03105,-0.03104 -0.04241,-0.03729 -0.05143,-0.02827 -0.0064,0.0064 -0.02519,0.005 -0.0418,-0.0031 -0.02011,-0.0097 -0.03526,-0.0096 -0.04525,2.65e-4 -0.009,0.009 -0.01484,0.06964 -0.01445,0.152095 2.12e-4,0.07539 -7.93e-4,0.125193 -0.0024,0.110694 -0.0019,-0.01453 -0.0061,-0.06087 -0.0099,-0.103042 -0.0038,-0.04217 -0.0113,-0.07667 -0.01667,-0.07668 -0.0054,0 -0.01709,0.0073 -0.02604,0.01622 -0.01143,0.01143 -0.01236,0.04982 -0.0031,0.130006 0.0072,0.06258 0.01169,0.115286 0.0098,0.117128 -0.0019,0.0019 -0.01127,-0.0417 -0.02096,-0.09676 -0.0097,-0.05506 -0.0208,-0.103293 -0.02469,-0.107193 -0.0039,-0.0039 -0.02016,-0.0031 -0.03609,0.0019 -0.02463,0.0075 -0.02898,0.01199 -0.02883,0.03003 9e-5,0.01172 0.01011,0.06844 0.02228,0.126111 0.01217,0.05766 0.0196,0.102484 0.01659,0.0996 -0.0028,-0.0028 -0.01601,-0.04595 -0.02877,-0.0957 -0.01278,-0.04974 -0.02635,-0.09356 -0.03013,-0.09736 -0.0038,-0.0038 -0.0096,0.0042 -0.01283,0.01778 -0.0031,0.0136 0.0013,0.06294 0.0099,0.109668 0.0087,0.04673 0.01452,0.08632 0.01283,0.08799 -0.0019,0.0019 -0.0081,-0.01712 -0.01423,-0.04175 -0.0062,-0.02463 -0.01606,-0.07244 -0.02199,-0.106238 -0.0072,-0.04154 -0.01371,-0.05687 -0.01992,-0.04729 -0.0051,0.0078 0.0059,0.09621 0.02432,0.196488 0.01842,0.100271 0.03568,0.182316 0.03837,0.182316 0.0028,0 0.0393,-0.02484 0.08138,-0.05517 0.04207,-0.03034 0.07808,-0.06081 0.08005,-0.06769 0.0024,-0.0084 0.0038,-0.0074 0.0042,0.0031 2.65e-4,0.01077 -0.01752,0.02957 -0.0584,0.06108 -0.03248,0.02506 -0.07008,0.05632 -0.08356,0.06953 l -0.02455,0.02397 0.04348,0.04348 c 0.02392,0.02392 0.06456,0.05383 0.09031,0.06652 z m 0.927516,0.860012 c 0.191267,0.182507 0.349303,0.331848 0.351184,0.331888 0.0019,0 0.04035,-0.03234 0.08549,-0.07191 l 0.08206,-0.07196 -0.03318,-0.02519 c -0.01828,-0.01386 -0.239663,-0.222985 -0.492009,-0.46473 -0.423458,-0.405675 -0.466093,-0.448786 -0.553201,-0.559543 -0.05191,-0.066 -0.100328,-0.12582 -0.107575,-0.132948 -0.01172,-0.01172 -0.02254,-0.0036 -0.103883,0.07774 l -0.09068,0.09067 0.257019,0.247073 c 0.141351,0.135901 0.413506,0.396409 0.604768,0.578919 z m 0.495583,0.466249 0.04003,0.02392 0.09522,-0.07014 c 0.05236,-0.03858 0.09521,-0.07365 0.09521,-0.07795 0,-0.0043 -0.0249,-0.02487 -0.05535,-0.04573 -0.03045,-0.02085 -0.07174,-0.04714 -0.09178,-0.0584 l -0.03643,-0.02048 -0.07208,0.08006 c -0.03965,0.04403 -0.07283,0.08099 -0.07375,0.08212 -7.94e-4,0.0011 0.01193,0.01569 0.02859,0.03235 0.01667,0.01667 0.04831,0.04107 0.07033,0.05422 z m -0.202774,-0.515109 c 0.125989,0.119081 0.231923,0.2165 0.235384,0.216503 0.0035,0 0.03164,-0.07159 0.06257,-0.159084 l 0.05627,-0.159088 -0.0315,-0.06364 c -0.01733,-0.03501 -0.04434,-0.09115 -0.06001,-0.124767 -0.01569,-0.0336 -0.04601,-0.111871 -0.06742,-0.173892 -0.02141,-0.06202 -0.03611,-0.119099 -0.03266,-0.126838 0.005,-0.01127 -0.01344,-0.03213 -0.09284,-0.104998 -0.06776,-0.06217 -0.106142,-0.09143 -0.121361,-0.09253 -0.01225,-7.94e-4 -0.07655,-0.0078 -0.142923,-0.01527 -0.105505,-0.01193 -0.126579,-0.01807 -0.167553,-0.04902 -0.02577,-0.01947 -0.148211,-0.132337 -0.272076,-0.250809 -0.123865,-0.118478 -0.248483,-0.231093 -0.276921,-0.250272 l -0.05173,-0.03483 -0.0013,0.05075 c -7.93e-4,0.02789 0.0013,0.119946 0.0051,0.204515 l 0.0066,0.153768 0.08918,0.116427 c 0.07712,0.100706 0.126008,0.152244 0.361813,0.381495 0.149934,0.145798 0.375732,0.362484 0.501724,0.481565 z m 0.365318,0.306712 c 0.0482,0.03252 0.09147,0.05915 0.09616,0.05915 0.0047,0 0.01267,-0.02122 0.01767,-0.04714 0.0051,-0.02593 0.0141,-0.06223 0.02021,-0.08067 0.0099,-0.03006 0.0039,-0.04707 -0.05756,-0.164306 -0.03774,-0.07192 -0.07024,-0.130837 -0.07223,-0.130922 -0.0019,-1.45e-4 -0.02704,0.06489 -0.05569,0.144394 -0.02866,0.0795 -0.04851,0.148101 -0.04413,0.152445 0.0044,0.0043 0.04738,0.03452 0.09558,0.06705 z m -2.041271,-2.180724 c 0.0069,-0.01156 0.02437,-0.03718 0.03872,-0.05698 0.02519,-0.03466 0.02508,-0.03819 -0.0021,-0.09682 -0.01558,-0.03346 -0.02577,-0.06084 -0.02265,-0.06084 0.0031,0 0.01855,0.02209 0.03427,0.04911 0.0249,0.04275 0.03003,0.04769 0.0396,0.03812 0.006,-0.006 0.03048,-0.03824 0.05439,-0.07157 0.04151,-0.05792 0.04606,-0.06152 0.102542,-0.08087 0.03252,-0.01117 0.06687,-0.01929 0.07637,-0.0181 0.0095,0.0013 0.05138,0.01844 0.09306,0.03836 0.04601,0.02199 0.118431,0.06973 0.184325,0.121492 0.05969,0.04689 0.11062,0.08525 0.11316,0.08525 0.0024,1.48e-4 -0.0159,-0.02508 -0.04095,-0.05575 l -0.04559,-0.05575 0.01741,-0.06776 c 0.0096,-0.03726 0.04918,-0.187214 0.08801,-0.333211 0.03884,-0.146002 0.113761,-0.440743 0.166503,-0.654984 0.05274,-0.214244 0.113313,-0.456128 0.134606,-0.537522 0.0213,-0.08139 0.04291,-0.163954 0.04804,-0.183465 0.0051,-0.0195 0.03389,-0.06746 0.06387,-0.106542 0.02999,-0.03908 0.06396,-0.08049 0.07549,-0.09202 0.01238,-0.01238 0.02908,-0.01839 0.0408,-0.01466 0.0109,0.0035 0.03853,0.02122 0.06137,0.03945 l 0.04152,0.03315 -0.05099,-0.02743 c -0.03413,-0.01839 -0.05491,-0.02344 -0.06285,-0.01529 -0.0065,0.0067 -0.01712,0.03375 -0.02357,0.06016 -0.0065,0.02641 -0.01984,0.07687 -0.02978,0.112101 -0.0099,0.03524 -0.02381,0.08522 -0.0308,0.111101 -0.007,0.02585 -0.03171,0.118756 -0.05497,0.20641 -0.02326,0.08765 -0.05965,0.224348 -0.08089,0.303784 -0.02127,0.07943 -0.04412,0.164086 -0.05085,0.188126 -0.0067,0.02402 -0.02775,0.10273 -0.0467,0.174869 -0.01895,0.07214 -0.037,0.138107 -0.04012,0.14659 -0.0031,0.0084 -0.02421,0.0876 -0.04687,0.175828 -0.02265,0.08823 -0.04942,0.189185 -0.05943,0.224359 -0.01,0.03517 -0.025,0.09072 -0.03336,0.12346 -0.0084,0.03273 -0.02328,0.08858 -0.03322,0.124103 l -0.01807,0.06459 0.09594,0.128979 c 0.05277,0.07094 0.09838,0.128982 0.101349,0.128985 0.0028,0 0.03594,-0.04934 0.07326,-0.109641 l 0.06785,-0.109641 -0.03466,-0.05473 c -0.01905,-0.0301 -0.04576,-0.07381 -0.05933,-0.09713 l -0.02466,-0.04239 0.0686,-0.214731 c 0.03773,-0.118102 0.11689,-0.36472 0.175905,-0.548042 0.05901,-0.183324 0.118409,-0.369255 0.131991,-0.413181 0.01357,-0.04392 0.07412,-0.232066 0.134532,-0.418102 0.06041,-0.186029 0.110149,-0.343184 0.110525,-0.349229 2.64e-4,-0.006 -0.04953,-0.05433 -0.110869,-0.107326 -0.06135,-0.05299 -0.216159,-0.19001 -0.343992,-0.304517 -0.127839,-0.114498 -0.233916,-0.208274 -0.235726,-0.208388 -0.0019,0 -0.03694,0.174043 -0.07806,0.387024 -0.04113,0.212979 -0.09496,0.4914 -0.119621,0.618707 -0.02466,0.12731 -0.06214,0.321726 -0.08326,0.432033 -0.02111,0.11031 -0.06529,0.339773 -0.09813,0.509905 -0.03283,0.170143 -0.06299,0.312621 -0.06698,0.316619 -0.004,0.004 -0.01691,0.0021 -0.02866,-0.0038 -0.0118,-0.0061 -0.0518,-0.01209 -0.08898,-0.01336 -0.04278,-0.0013 -0.09477,0.0078 -0.141605,0.02506 l -0.07401,0.02733 -0.09015,0.178247 -0.09015,0.178242 0.03849,0.08591 c 0.02114,0.04725 0.04281,0.09073 0.04808,0.09661 0.0064,0.0073 0.01368,0.0039 0.0222,-0.01027 z m 1.516502,1.049747 0.140658,0.01371 0.04927,0.04927 c 0.02708,0.02708 0.05111,0.04742 0.05337,0.04518 0.0021,-0.0021 0.0028,-0.02146 0.0019,-0.04271 -0.0024,-0.03621 -0.008,-0.04423 -0.09212,-0.128744 l -0.0896,-0.0902 -0.07412,7.94e-4 -0.07412,7.93e-4 -0.05284,-0.05283 -0.05284,-0.05284 7.94e-4,-0.0712 7.94e-4,-0.07121 -0.05605,-0.04148 -0.05606,-0.04149 -0.0282,0.03269 c -0.02564,0.02971 -0.02646,0.03514 -0.0087,0.05971 0.01185,0.01635 0.01799,0.04464 0.01561,0.07161 l -0.004,0.04458 0.0848,0.0848 c 0.07953,0.07953 0.08492,0.0873 0.08732,0.124191 0.0013,0.02167 0.0052,0.04225 0.0084,0.04573 0.0031,0.0037 0.06917,0.01251 0.146534,0.02003 z M 65.01866,85.92478 c 0.02421,0.01175 0.04989,0.0241 0.05708,0.02747 0.01021,0.0048 0.01569,-0.0019 0.0249,-0.03087 0.0065,-0.02032 0.02185,-0.07737 0.0341,-0.126732 0.01225,-0.04936 0.02103,-0.09568 0.01958,-0.102923 -0.0013,-0.0072 -0.01326,-0.02803 -0.02617,-0.04617 -0.01651,-0.02323 -0.02652,-0.06641 -0.03374,-0.14578 l -0.01032,-0.112784 -0.107551,0.103381 c -0.0592,0.05681 -0.107601,0.108791 -0.107545,0.115522 0,0.0067 0.02347,0.0758 0.05218,0.153612 0.02869,0.07781 0.05248,0.142023 0.05283,0.142685 1.5e-4,7.93e-4 0.02045,0.01085 0.04466,0.02257 z m 0.454134,0.284692 c 0.04834,2.06e-4 0.09406,0.0036 0.101573,0.0075 0.01042,0.0055 0.01529,0.0019 0.02043,-0.01529 0.0037,-0.0123 0.04364,-0.21404 0.08876,-0.448228 0.04511,-0.234188 0.137573,-0.712052 0.20546,-1.061921 0.06788,-0.349867 0.126849,-0.660569 0.131037,-0.690449 0.0054,-0.03863 -0.0019,-0.08403 -0.02426,-0.157152 l -0.03189,-0.102827 -0.170879,-0.170882 c -0.163923,-0.163922 -0.170826,-0.172016 -0.16864,-0.19976 0.0013,-0.0159 -0.0076,-0.05529 -0.01958,-0.08757 -0.01968,-0.05294 -0.02582,-0.06097 -0.06273,-0.08197 -0.02252,-0.01281 -0.05722,-0.04057 -0.07715,-0.06172 -0.01992,-0.02111 -0.126965,-0.142632 -0.23785,-0.269981 -0.110881,-0.127347 -0.334433,-0.384363 -0.496789,-0.571143 -0.162354,-0.186777 -0.307137,-0.351171 -0.321744,-0.365315 -0.0263,-0.0254 -0.02625,-0.02506 -0.0038,0.04112 0.0173,0.05078 0.10619,0.198795 0.369861,0.615924 0.343082,0.542758 0.347054,0.549608 0.344609,0.594646 -0.0013,0.02506 -0.004,0.06839 -0.0058,0.0963 -0.0031,0.04689 7.93e-4,0.0562 0.0508,0.122684 0.02978,0.03957 0.07525,0.09771 0.101094,0.129178 l 0.04698,0.05723 -0.03196,0.128598 -0.03196,0.128596 0.03513,0.03513 c 0.03354,0.03354 0.03484,0.03874 0.02884,0.11471 -0.0035,0.04376 -0.01767,0.187513 -0.03154,0.319447 -0.02463,0.233833 -0.02453,0.240575 0.0028,0.267941 0.01543,0.01543 0.03301,0.03905 0.03902,0.05248 0.0065,0.01455 -0.0041,0.11698 -0.02646,0.253587 -0.02058,0.126053 -0.04093,0.270386 -0.0452,0.320741 -0.0075,0.08861 -0.0064,0.094 0.03563,0.167629 0.02389,0.04184 0.0459,0.08724 0.04893,0.100878 0.0031,0.01365 0.0013,0.04669 -0.0037,0.07343 -0.0075,0.03957 -0.02053,0.06191 -0.07003,0.120015 l -0.06083,0.0714 -0.0076,-0.02527 c -0.0072,-0.02397 -0.0081,-0.02389 -0.01572,0.0013 -0.0044,0.01466 -0.01942,0.07075 -0.03333,0.12464 l -0.02522,0.09799 0.13294,0.13294 0.13294,0.13294 z m 0.04726,-0.660556 c 0.01757,-0.107699 0.06028,-0.35904 0.09491,-0.558533 0.03462,-0.199496 0.07879,-0.444344 0.09814,-0.544111 0.01937,-0.09977 0.03417,-0.165594 0.03294,-0.146288 -0.0013,0.01929 -0.02334,0.161878 -0.04912,0.31682 -0.0258,0.154935 -0.0689,0.404196 -0.09581,0.553916 -0.0269,0.149712 -0.06058,0.334473 -0.07484,0.410578 -0.01423,0.0761 -0.02764,0.145047 -0.02975,0.15321 -0.0021,0.0082 -0.0049,0.01378 -0.0061,0.01251 -0.0013,-0.0013 0.01207,-0.09043 0.02964,-0.198125 z m 0.187778,-1.853587 c -0.0024,-0.01445 0.0046,-0.01106 0.0302,0.01434 0.01842,0.01841 0.07469,0.06393 0.124875,0.101288 0.05019,0.03736 0.104846,0.08361 0.121465,0.102793 0.02754,0.03178 0.02307,0.03013 -0.05049,-0.01884 -0.04438,-0.02954 -0.112639,-0.08228 -0.151683,-0.117166 -0.04328,-0.03869 -0.07233,-0.07084 -0.07438,-0.08245 z m 1.768268,4.491699 c 0.05584,0.0086 0.06645,0.0065 0.09054,-0.01775 0.01498,-0.01511 0.0382,-0.0427 0.05155,-0.06132 l 0.02426,-0.03385 -0.458602,-0.451096 c -0.307814,-0.30275 -0.463791,-0.451104 -0.474411,-0.451096 -0.01117,0 -0.02884,0.02053 -0.05984,0.06922 l -0.04402,0.06921 0.233915,0.233921 c 0.217104,0.217101 0.235223,0.2373 0.251706,0.281244 0.01582,0.04212 0.03448,0.06407 0.169712,0.199583 l 0.151797,0.152395 z m -2.638366,-2.874795 0.107651,-0.107651 -0.04981,-0.05848 c -0.0274,-0.03216 -0.12881,-0.144147 -0.225377,-0.248843 -0.09656,-0.104696 -0.289838,-0.311338 -0.429504,-0.459195 -0.139665,-0.147854 -0.285334,-0.304093 -0.323717,-0.347183 -0.04513,-0.05067 -0.09644,-0.123386 -0.145198,-0.205801 -0.04148,-0.0701 -0.07987,-0.135761 -0.08532,-0.145923 -0.0092,-0.01704 -0.01042,-0.0154 -0.01659,0.02135 -0.0064,0.03817 -0.0043,0.04228 0.04919,0.09868 l 0.05588,0.05886 -0.05718,-0.052 -0.05718,-0.052 -0.0062,0.08556 c -0.0035,0.04705 -0.006,0.124791 -0.0058,0.172754 2.65e-4,0.06926 0.0053,0.09206 0.02402,0.110787 0.01299,0.01299 0.05546,0.08226 0.09445,0.153977 0.03897,0.07172 0.07418,0.133789 0.07825,0.137943 0.0041,0.0041 0.0028,-0.0113 -0.0031,-0.03434 -0.0057,-0.02304 -0.01429,-0.06989 -0.01902,-0.104116 -0.0047,-0.03424 -0.0056,-0.08645 -0.0019,-0.116054 0.0063,-0.05108 0.0068,-0.04981 0.0088,0.02468 0.0013,0.04318 0.0074,0.104942 0.01376,0.137247 0.0063,0.03231 0.02426,0.09485 0.03983,0.138986 l 0.02824,0.08026 0.409088,0.409085 0.409083,0.409088 z m 2.828435,2.903585 c 0.04707,0.0089 0.05642,0.0068 0.082,-0.01881 0.01884,-0.01884 0.02548,-0.03227 0.01913,-0.03865 -0.0054,-0.0054 -0.02122,-0.01138 -0.03523,-0.01331 -0.014,-0.0019 -0.03315,-0.01098 -0.0425,-0.02011 -0.01582,-0.01527 -0.02043,-0.0132 -0.06222,0.02863 -0.03466,0.03466 -0.04158,0.04599 -0.02975,0.04868 0.0085,0.0019 0.03936,0.008 0.06858,0.01357 z m -2.50685,-2.56798 c 0.0019,-0.0019 0.0075,-0.01968 0.0123,-0.03942 0.0048,-0.01974 0.0069,-0.06445 0.0047,-0.09939 -0.0031,-0.04988 -0.01122,-0.0729 -0.03747,-0.107172 -0.01839,-0.024 -0.03524,-0.04183 -0.03749,-0.03958 -0.0021,0.0021 0.0019,0.05687 0.0092,0.121443 0.0073,0.06457 0.01831,0.125812 0.0245,0.136086 0.0061,0.01032 0.01331,0.02162 0.01593,0.02516 0.0028,0.0035 0.0063,0.0049 0.0083,0.0028 z m 1.098227,1.06426 c 0.0013,-0.0047 0.0113,-0.03238 0.02178,-0.06163 0.014,-0.03904 0.02978,-0.06255 0.05943,-0.08853 l 0.04038,-0.03538 -0.02985,-0.05228 c -0.0164,-0.02877 -0.0301,-0.05328 -0.03041,-0.05449 -2.11e-4,-0.0013 0.02257,-0.04216 0.05084,-0.09099 0.02827,-0.04884 0.05,-0.09468 0.0483,-0.10187 -0.0019,-0.0072 0.0094,-0.0484 0.02455,-0.09158 l 0.02764,-0.0785 -0.05803,-0.03641 c -0.03192,-0.02003 -0.06389,-0.03917 -0.07107,-0.04254 -0.0089,-0.0042 -0.04208,0.08418 -0.104883,0.279442 l -0.09185,0.28557 0.04604,0.07812 c 0.02532,0.04296 0.05018,0.08294 0.05524,0.08884 0.005,0.0059 0.01045,0.0069 0.01193,0.0021 z m 0.162846,-0.708499 c 0.03055,0.01979 0.05609,0.02979 0.0617,0.02418 0.0053,-0.0053 0.0086,-0.01368 0.0074,-0.01871 -0.0013,-0.005 -0.03083,-0.02743 -0.0659,-0.04985 -0.03504,-0.02241 -0.06609,-0.04089 -0.06895,-0.0411 -0.0028,-1.93e-4 -0.0086,0.0071 -0.01262,0.01627 -0.0044,0.0099 -7.94e-4,0.02048 0.0094,0.02606 0.0093,0.0052 0.04027,0.02458 0.06896,0.04314 z m 0.07626,-0.02175 c 0.0031,2.11e-4 0.04217,-0.09545 0.08713,-0.21285 0.04497,-0.117406 0.129677,-0.371612 0.188243,-0.564912 0.09174,-0.302813 0.104399,-0.354909 0.09144,-0.37647 -0.0082,-0.01378 -0.01561,-0.03622 -0.0163,-0.04987 -7.94e-4,-0.01368 0.005,-0.03115 0.01273,-0.03887 0.0077,-0.0077 0.04043,-0.0227 0.07271,-0.03326 0.03227,-0.01056 0.08376,-0.02175 0.114406,-0.02479 0.03066,-0.0031 0.06137,-0.01119 0.06827,-0.0181 0.0069,-0.0069 0.02979,-0.0196 0.05089,-0.02827 0.02109,-0.0087 0.03835,-0.01791 0.03834,-0.02066 0,-0.0028 -0.03905,-0.0323 -0.08678,-0.06581 l -0.08676,-0.06092 -0.130911,0.05219 -0.130905,0.05218 -0.127712,0.398658 c -0.07025,0.219266 -0.127997,0.399846 -0.128341,0.401296 -2.12e-4,0.0013 0.02764,0.01773 0.06218,0.03615 0.03455,0.01841 0.06367,0.03434 0.06472,0.03533 0.0011,0.0011 -0.0013,0.005 -0.0052,0.0089 -0.0039,0.0039 -0.03291,-0.0074 -0.06446,-0.02516 -0.03154,-0.0177 -0.05973,-0.02989 -0.06259,-0.02701 -0.0028,0.0028 -0.02236,0.0598 -0.04328,0.12651 -0.02093,0.06672 -0.03743,0.12186 -0.03665,0.122532 7.93e-4,7.93e-4 0.02939,0.01585 0.0636,0.03375 0.0342,0.01789 0.06592,0.03623 0.07049,0.04079 0.0052,0.0052 0.0031,0.0081 -0.0053,0.0078 -0.0075,-2.09e-4 -0.03803,-0.01312 -0.06783,-0.02852 -0.02978,-0.0154 -0.0581,-0.02904 -0.06288,-0.03034 -0.0048,-0.0013 -0.01569,0.01881 -0.02421,0.04474 -0.0086,0.02593 -0.01569,0.04843 -0.01582,0.05002 -1.5e-4,0.0019 0.02291,0.01635 0.05127,0.03277 0.02834,0.01646 0.05413,0.03238 0.05726,0.0354 0.0031,0.0031 0.0028,0.0085 -0.0011,0.0122 -0.0037,0.0037 -0.02757,-0.006 -0.05302,-0.02167 -0.02548,-0.01561 -0.04949,-0.02519 -0.0534,-0.0213 -0.0039,0.0039 -0.01172,0.02156 -0.01733,0.03927 l -0.01024,0.03217 0.066,0.04277 c 0.0363,0.02349 0.06841,0.04304 0.07135,0.04339 z m 0.323638,-0.835414 c 0.0076,-0.01908 0.03105,-0.07917 0.05202,-0.13358 l 0.03813,-0.09893 0.16891,-0.08238 0.168913,-0.08237 0.064,0.01267 c 0.0352,0.007 0.06401,0.01087 0.06401,0.0088 0,-0.0021 -0.01805,-0.01463 -0.04011,-0.02775 -0.03055,-0.01818 -0.04478,-0.03315 -0.05977,-0.0629 -0.01736,-0.03445 -0.02286,-0.0392 -0.04689,-0.04039 -0.01497,-7.94e-4 -0.0396,0.0042 -0.05475,0.01109 -0.01516,0.0069 -0.0381,0.01926 -0.05101,0.02757 -0.01291,0.0083 -0.04713,0.01778 -0.07604,0.02103 -0.02891,0.0031 -0.07707,0.01389 -0.107019,0.02365 -0.02996,0.0098 -0.06059,0.02596 -0.06811,0.03602 -0.0098,0.01304 -0.0077,0.02891 0.0072,0.0553 0.0199,0.03536 0.0186,0.04429 -0.02943,0.19875 -0.02764,0.08896 -0.04885,0.163177 -0.04709,0.164933 0.0019,0.0019 0.0094,-0.01241 0.01709,-0.03147 z m -0.555461,-1.007396 c 0.09851,0.08633 0.247031,0.220469 0.330049,0.298103 l 0.150942,0.141145 0.09666,-0.03924 c 0.05316,-0.02156 0.112847,-0.04586 0.132635,-0.05396 l 0.03598,-0.01474 -0.238869,-0.228979 c -0.135467,-0.129868 -0.247915,-0.243864 -0.259778,-0.26335 -0.01765,-0.02901 -0.02529,-0.03417 -0.04916,-0.03298 -0.01553,7.94e-4 -0.04203,-0.0028 -0.05887,-0.0084 -0.02225,-0.0071 -0.06129,-0.04041 -0.142404,-0.121528 l -0.111781,-0.111779 -0.03948,0.0093 c -0.02172,0.0051 -0.05598,0.0088 -0.07614,0.0082 -0.02537,-7.93e-4 -0.03817,0.0042 -0.0416,0.01633 -0.0028,0.0096 0.0089,0.06325 0.02593,0.119224 0.01722,0.05671 0.03882,0.107037 0.04882,0.113681 0.0099,0.0066 0.09854,0.08255 0.197054,0.168881 z m -0.688914,-0.943557 c 0.02817,0.01574 0.06172,0.02577 0.07714,0.02305 0.015,-0.0028 0.02824,-0.0089 0.02943,-0.01381 0.0013,-0.005 -0.02381,-0.01807 -0.05556,-0.02915 -0.04963,-0.01733 -0.06332,-0.02712 -0.09801,-0.06999 -0.02217,-0.0274 -0.06254,-0.07972 -0.08968,-0.116245 -0.03311,-0.04455 -0.0461,-0.06965 -0.03945,-0.0763 0.0055,-0.0055 0.0028,-0.01714 -0.0061,-0.02596 -0.0088,-0.0088 -0.213149,-0.229619 -0.454041,-0.49067 -0.240893,-0.261051 -0.471641,-0.511556 -0.512757,-0.556696 l -0.07477,-0.08207 0.0028,0.03816 c 0.0013,0.02186 0.01455,0.05348 0.03052,0.07402 0.01532,0.01971 0.120237,0.141798 0.23313,0.271245 0.112892,0.129447 0.319408,0.366538 0.458936,0.526852 0.139528,0.160316 0.287758,0.331337 0.329408,0.380052 0.04165,0.04871 0.08555,0.09556 0.09753,0.104111 0.01199,0.0085 0.04424,0.02806 0.07167,0.0434 z m -0.295627,-0.343323 0.0024,-0.03864 0.0024,0.03783 c 0.0019,0.03083 0.0085,0.04227 0.03529,0.06179 0.02326,0.01693 0.02656,0.02156 0.01119,0.0158 -0.01193,-0.0045 -0.02891,-0.0149 -0.03773,-0.02315 -0.0088,-0.0083 -0.01495,-0.03238 -0.0136,-0.05362 z M 64.35598,81.89565 C 64.34908,81.87382 64.32567,81.83432 64.304,81.80791 64.28233,81.7815 64.26458,81.76268 64.26457,81.7661 c 0,0.0035 0.02013,0.03946 0.04473,0.08007 0.02458,0.04062 0.048,0.07731 0.05198,0.08153 0.004,0.0042 0.0019,-0.01019 -0.0053,-0.03203 z m -0.02884,-0.126233 c -0.0036,-0.03604 -0.01283,-0.04887 -0.117398,-0.163407 -0.06241,-0.06837 -0.117623,-0.124293 -0.122745,-0.124232 -0.0051,0 -0.0011,0.0081 0.0088,0.01812 0.0099,0.01 0.02953,0.04015 0.0437,0.06707 0.01413,0.02694 0.05163,0.08019 0.08327,0.118369 0.03164,0.03817 0.06896,0.08152 0.08292,0.09632 l 0.0254,0.02687 z m 1.111999,1.099725 c 0.007,-0.01143 0.02077,-0.03825 0.03048,-0.05959 0.0097,-0.02133 0.01757,-0.04484 0.01741,-0.05222 -1.67e-4,-0.0074 -0.02495,-0.05262 -0.05507,-0.100534 -0.03013,-0.04791 -0.07026,-0.108601 -0.08918,-0.134858 -0.01894,-0.02627 -0.180445,-0.217606 -0.358939,-0.425209 -0.178503,-0.207597 -0.336743,-0.395499 -0.351655,-0.417552 l -0.02712,-0.0401 0.03858,0.0368 c 0.02119,0.02027 0.114163,0.125569 0.206561,0.234048 0.0924,0.108482 0.235063,0.274685 0.317034,0.369332 0.08197,0.09465 0.163893,0.190844 0.182033,0.213778 l 0.03297,0.04169 0.10954,-0.109543 0.109543,-0.10954 -0.04163,-0.03305 c -0.02291,-0.0182 -0.0956,-0.0799 -0.161558,-0.137165 -0.06596,-0.05726 -0.233687,-0.20139 -0.372721,-0.320297 -0.139033,-0.118901 -0.267972,-0.231373 -0.286528,-0.249928 -0.01855,-0.01855 -0.02922,-0.03375 -0.02371,-0.03375 0.0055,0 0.04694,0.03192 0.09208,0.07097 0.04514,0.03904 0.228642,0.196609 0.407778,0.35017 0.179144,0.153565 0.34725,0.294635 0.373584,0.313484 0.0263,0.01884 0.0867,0.0591 0.134154,0.08944 0.04746,0.03034 0.09264,0.05518 0.100428,0.05518 0.0078,0 0.03161,-0.008 0.05295,-0.01767 0.02133,-0.0097 0.0488,-0.02389 0.06101,-0.03143 l 0.0222,-0.01376 -0.112371,-0.102661 c -0.0618,-0.05647 -0.300577,-0.277408 -0.530612,-0.490979 -0.230034,-0.213567 -0.444579,-0.410697 -0.476781,-0.438052 l -0.05855,-0.04973 -0.219078,0.219075 -0.219077,0.219075 0.04246,0.05089 c 0.02336,0.02799 0.186563,0.205885 0.362685,0.395322 0.176125,0.189439 0.369827,0.399012 0.430448,0.465717 0.06063,0.0667 0.14119,0.153278 0.179038,0.192378 0.0678,0.07018 0.069,0.07079 0.0816,0.0503 z m -0.532876,-0.643203 c -0.0013,-0.03941 7.94e-4,-0.07474 0.0044,-0.0785 0.0038,-0.0038 0.0078,0.02297 0.0089,0.05947 0.0011,0.03648 0.0075,0.07755 0.01421,0.09127 0.0067,0.01371 0.01585,0.02495 0.02035,0.02495 0.0045,0 0.01185,-0.01852 0.0164,-0.04117 l 0.0083,-0.04117 -0.0013,0.04797 c -7.93e-4,0.02638 -0.0065,0.04919 -0.01278,0.05069 -0.0063,0.0013 -0.02151,-0.0073 -0.03378,-0.01958 -0.01622,-0.01622 -0.02294,-0.04182 -0.02466,-0.09393 z m 0.19272,0.244052 c 0,-0.0098 0.0028,-0.02061 0.006,-0.02389 0.0031,-0.0031 0.01101,-7.93e-4 0.01714,0.0052 0.0062,0.0062 0.01347,0.0089 0.01624,0.0061 0.0028,-0.0028 0.0039,-0.02572 0.0024,-0.05099 l -0.0024,-0.04594 0.0079,0.03825 c 0.0043,0.02103 0.0071,0.04726 0.006,0.05828 -0.0013,0.01611 -0.0058,0.01894 -0.02188,0.01439 -0.01789,-0.0051 -0.01876,-0.0031 -0.0081,0.01733 0.0088,0.01699 0.01805,0.02186 0.03546,0.0186 0.01294,-0.0024 0.0359,-0.0047 0.05101,-0.0051 0.01725,-2.65e-4 0.02551,-0.0048 0.0222,-0.01193 -0.0028,-0.0062 -0.0064,-0.02286 -0.0078,-0.03703 -0.0019,-0.01709 0.0013,-0.01249 0.0092,0.0136 0.0065,0.02164 0.0091,0.04452 0.006,0.05085 -0.0031,0.0063 -0.01442,0.0071 -0.025,0.0013 -0.01056,-0.0055 -0.02961,-0.0038 -0.04226,0.0038 -0.01863,0.01117 -0.02772,0.0091 -0.04753,-0.01069 -0.01347,-0.01347 -0.02447,-0.03255 -0.02447,-0.04243 z M 64.664632,81.9748 c -0.0013,-0.03599 -0.0047,-0.08294 -0.0077,-0.104341 l -0.0054,-0.03891 0.01378,0.04598 c 0.0076,0.02529 0.01445,0.07383 0.01529,0.107876 0.0011,0.04274 0.0063,0.0619 0.01701,0.0619 0.0085,0 0.01876,-0.0073 0.02278,-0.01635 0.004,-0.009 0.0028,-0.03829 -0.0028,-0.06508 -0.0055,-0.02676 -0.0081,-0.05054 -0.0058,-0.05278 0.0021,-0.0021 0.0058,0.0024 0.0079,0.01085 0.0021,0.0082 0.0086,0.03529 0.01442,0.06028 0.0084,0.03604 0.006,0.05003 -0.01172,0.06774 -0.0182,0.0182 -0.02537,0.01918 -0.03894,0.0053 -0.0092,-0.0093 -0.01767,-0.04634 -0.01894,-0.08241 z m 0.272391,-0.384527 c 0.02135,0.0028 0.06933,0.0067 0.106588,0.0083 0.03999,0.0019 0.07222,0.0096 0.07868,0.01905 0.0066,0.0096 0.0041,0.02474 -0.0062,0.03766 -0.01241,0.01569 -0.02572,0.01979 -0.04848,0.01487 -0.01725,-0.0037 -0.0452,-0.0097 -0.06211,-0.01333 -0.01691,-0.0037 -0.02869,-0.0086 -0.02625,-0.01109 0.0024,-0.0024 0.02641,-2.9e-5 0.05319,0.0055 0.0268,0.0054 0.05608,0.0066 0.06508,0.0024 0.009,-0.004 0.0163,-0.01365 0.01638,-0.02133 0,-0.0088 -0.02323,-0.01521 -0.06171,-0.0172 -0.03396,-0.0019 -0.08249,-0.0093 -0.107879,-0.01672 l -0.04616,-0.01357 z m 0.583557,0.565541 c 0.01378,0.0019 0.03017,0.0056 0.03638,0.0085 0.0071,0.0031 0.01154,-0.0049 0.01193,-0.0222 2.64e-4,-0.01508 0.0028,-0.03806 0.0051,-0.05101 0.0031,-0.01741 -0.0013,-0.02666 -0.01855,-0.03545 -0.02056,-0.01064 -0.02238,-0.0098 -0.01733,0.0081 0.0046,0.01611 0.0019,0.02035 -0.01439,0.02188 -0.01101,0.0011 -0.03725,-0.0019 -0.05828,-0.006 l -0.03824,-0.0079 0.04594,0.0024 c 0.02527,0.0013 0.04821,2.65e-4 0.051,-0.0024 0.0028,-0.0028 1.3e-5,-0.01011 -0.0061,-0.01624 -0.0062,-0.0062 -0.008,-0.01445 -0.004,-0.01842 0.004,-0.004 0.0172,-0.0042 0.0294,-2.65e-4 0.0122,0.0037 0.03073,0.01527 0.04119,0.02574 0.014,0.014 0.01537,0.02511 0.0052,0.04204 -0.0076,0.01267 -0.0094,0.03143 -0.0041,0.04172 0.0053,0.01032 0.0071,0.0213 0.0039,0.02453 -0.0031,0.0031 -0.01672,0.005 -0.0301,0.004 -0.01336,-0.0011 -0.03322,-0.0064 -0.04412,-0.01188 -0.01926,-0.0098 -0.01908,-0.0099 0.0053,-0.0068 z m -0.305911,-0.312317 c 0.0035,-0.0035 0.03848,-0.0052 0.07789,-0.0039 0.05211,0.0019 0.07772,0.0085 0.09393,0.02466 0.01225,0.01225 0.02109,0.02733 0.01966,0.0335 -0.0013,0.0062 -0.02098,0.01185 -0.04336,0.01267 l -0.04071,0.0013 0.03385,-0.0085 c 0.01863,-0.0047 0.03385,-0.01164 0.03385,-0.01543 0,-0.0038 -0.0099,-0.01288 -0.02217,-0.02011 -0.01217,-0.0073 -0.05297,-0.01431 -0.09066,-0.01569 -0.03769,-0.0013 -0.06572,-0.0052 -0.06229,-0.0087 z m 1.639451,2.444137 c 0.0867,0.0866 0.164587,0.15899 0.173059,0.16088 0.0084,0.0019 0.07222,-0.03329 0.141676,-0.0782 0.06946,-0.04489 0.139816,-0.09517 0.156353,-0.11171 0.01654,-0.01651 0.06671,-0.08675 0.111495,-0.156017 0.04479,-0.06927 0.08143,-0.129656 0.08143,-0.134189 0,-0.0045 -0.09922,-0.112117 -0.220475,-0.239093 -0.141266,-0.147907 -0.234558,-0.239533 -0.259694,-0.25499 l -0.03922,-0.02413 -0.0035,0.03972 c -0.0019,0.02186 -0.01553,0.05613 -0.03038,0.07617 -0.01484,0.02003 -0.100582,0.107876 -0.190545,0.195191 l -0.163592,0.158737 -0.04797,0.0065 -0.04796,0.0065 0.01617,0.02537 c 0.0089,0.01392 0.0182,0.03007 0.02064,0.03583 0.0024,0.0057 0.03605,0.03873 0.07455,0.07336 0.03858,0.03455 0.1411,0.133689 0.227825,0.220263 z m 0.326305,0.280918 c 0.08215,0.05707 0.10232,0.07495 0.110247,0.09774 0.0053,0.01532 0.01897,0.03543 0.03027,0.04466 0.0113,0.0092 0.05325,0.03115 0.09316,0.04873 0.03992,0.01757 0.09595,0.03717 0.1245,0.04353 l 0.05191,0.01156 0.145029,-0.145024 0.145021,-0.145026 -0.0063,-0.03772 c -0.0035,-0.02074 -0.01601,-0.06368 -0.02782,-0.09541 -0.01183,-0.03175 -0.03522,-0.08088 -0.05201,-0.109228 -0.02656,-0.04477 -0.03417,-0.05228 -0.05816,-0.05727 -0.02458,-0.0051 -0.03646,-0.01834 -0.107841,-0.119933 -0.04413,-0.0628 -0.08318,-0.114176 -0.08679,-0.114184 -0.0036,0 -0.04183,0.055 -0.08495,0.122206 -0.04311,0.06721 -0.0957,0.139515 -0.116854,0.160679 -0.02114,0.02114 -0.08516,0.06842 -0.142205,0.105037 -0.05704,0.03662 -0.11307,0.07234 -0.124497,0.0794 -0.01582,0.0098 -0.01754,0.01606 -0.007,0.02662 0.0076,0.0076 0.05902,0.0452 0.114313,0.08363 z m -2.632948,-3.08846 0.220692,-0.220689 -0.137544,-0.127571 c -0.120581,-0.111855 -0.141145,-0.127654 -0.166756,-0.12823 -0.02764,-7.94e-4 -0.03896,0.0091 -0.211191,0.181316 -0.167499,0.1675 -0.182165,0.18425 -0.183446,0.211473 -0.0013,0.02585 0.0085,0.04004 0.07923,0.114941 0.04435,0.04703 0.102658,0.108855 0.1295,0.137459 l 0.04882,0.052 z m 0.155803,-0.308684 c 0.08377,0.07523 0.09962,0.08578 0.13363,0.08902 l 0.03859,0.0037 -0.07954,-0.06983 c -0.04374,-0.03841 -0.119039,-0.09417 -0.167328,-0.123928 -0.07899,-0.04867 -0.08441,-0.0506 -0.0541,-0.01918 0.01855,0.01916 0.07647,0.07331 0.128747,0.120258 z m 3.049135,3.041605 c 0.02405,0.01127 0.03875,0.02574 0.05675,0.05585 0.01333,0.02238 0.02598,0.04069 0.0281,0.04071 0.0021,0 -0.0019,-0.0288 -0.0088,-0.06401 l -0.01267,-0.06401 0.08237,-0.16891 0.08237,-0.16891 0.09893,-0.03812 c 0.05441,-0.02098 0.115316,-0.04527 0.135347,-0.05399 0.02003,-0.0087 0.02782,-0.01442 0.01725,-0.01259 -0.01053,0.0019 -0.08715,0.02432 -0.170256,0.05005 -0.117618,0.03642 -0.154451,0.04345 -0.16618,0.03171 -0.0083,-0.0083 -0.02506,-0.0181 -0.03723,-0.02178 -0.0122,-0.0037 -0.02891,0 -0.0371,0.0082 -0.0082,0.0082 -0.02273,0.03883 -0.03224,0.06806 -0.0095,0.02922 -0.01992,0.07632 -0.02312,0.104664 -0.0031,0.02834 -0.0099,0.05861 -0.01487,0.06727 -0.005,0.0087 -0.01585,0.02638 -0.02413,0.03935 -0.0083,0.01299 -0.01699,0.03957 -0.01929,0.05911 -0.0024,0.01953 -2.65e-4,0.03925 0.004,0.04379 0.0045,0.0046 0.02286,0.01511 0.04072,0.02347 z M 65.054816,81.49552 c 0.07001,0.06554 0.303741,0.281766 0.519416,0.480502 0.308288,0.284078 0.396013,0.360823 0.410245,0.358968 0.01053,-0.0013 0.05631,0.02609 0.109069,0.06541 0.05003,0.03728 0.100105,0.07691 0.111265,0.08807 0.01117,0.01116 0.02537,0.03642 0.03157,0.05612 0.0062,0.01971 0.01421,0.04436 0.01775,0.05479 0.0036,0.01045 0.0109,0.01791 0.01635,0.01664 0.0054,-0.0013 0.01193,-0.01431 0.01453,-0.02877 0.0024,-0.01455 -0.0061,-0.04765 -0.01916,-0.07356 -0.0131,-0.02593 -0.03301,-0.05811 -0.04421,-0.07155 -0.0113,-0.01336 -0.07371,-0.07192 -0.139025,-0.129821 -0.113019,-0.100393 -0.117692,-0.103515 -0.09851,-0.06579 l 0.02016,0.0396 -0.02424,-0.03263 c -0.01958,-0.02635 -0.03153,-0.03304 -0.06206,-0.03501 l -0.03783,-0.0024 0.03865,-0.0024 0.03864,-0.0024 -0.02561,-0.02553 c -0.0141,-0.01408 -0.177403,-0.157477 -0.362944,-0.318725 -0.185532,-0.161261 -0.400765,-0.349303 -0.478272,-0.417894 -0.07752,-0.06858 -0.156165,-0.133588 -0.174781,-0.144444 -0.01863,-0.01087 -0.04738,-0.01905 -0.06392,-0.01823 l -0.03007,0.0013 0.05286,0.04422 c 0.02908,0.02432 0.110127,0.09786 0.180136,0.163396 z m 2.634178,2.630247 c 0.0041,-0.01029 0.01773,-0.03656 0.03024,-0.05842 0.01249,-0.02186 0.02532,-0.06308 0.02841,-0.09159 0.0031,-0.02852 0.01423,-0.07809 0.02474,-0.11016 0.01053,-0.03206 0.0254,-0.06462 0.03312,-0.07234 0.0077,-0.0077 0.02521,-0.01347 0.03888,-0.01273 0.01368,7.94e-4 0.03611,0.0081 0.04987,0.0163 0.02156,0.01294 0.07366,2.12e-4 0.376473,-0.09144 0.193296,-0.05856 0.447505,-0.143275 0.564909,-0.18824 0.117406,-0.04497 0.213381,-0.08437 0.213275,-0.08756 -1.05e-4,-0.0031 -0.01968,-0.03528 -0.04352,-0.07131 l -0.04333,-0.06552 -0.03203,0.01021 c -0.01762,0.0056 -0.03524,0.01336 -0.03914,0.0173 -0.0039,0.0039 0.0057,0.02792 0.0213,0.05339 0.01561,0.02548 0.02537,0.04933 0.02167,0.05302 -0.0037,0.0037 -0.0092,0.0042 -0.01225,0.0011 -0.0031,-0.0031 -0.01894,-0.02891 -0.0354,-0.05726 -0.01646,-0.02835 -0.03119,-0.05143 -0.03277,-0.05127 -0.0019,1.48e-4 -0.02445,0.0074 -0.0508,0.01611 l -0.0479,0.01579 0.01207,0.02687 c 0.0066,0.01479 0.02318,0.04547 0.03677,0.0682 0.01357,0.02273 0.02175,0.04428 0.0181,0.0479 -0.0036,0.0036 -0.0091,0.004 -0.01214,7.94e-4 -0.0031,-0.0031 -0.02074,-0.03417 -0.03927,-0.06902 -0.01852,-0.03487 -0.03431,-0.06399 -0.03498,-0.06475 -7.94e-4,-7.94e-4 -0.05585,0.01574 -0.122571,0.03669 -0.06672,0.02093 -0.123647,0.04042 -0.126513,0.04328 -0.0028,0.0028 0.0093,0.03105 0.02701,0.06259 0.01773,0.03153 0.02904,0.06057 0.02516,0.06447 -0.0039,0.0039 -0.008,0.0062 -0.0089,0.0052 -0.0011,-0.0011 -0.01688,-0.03017 -0.03533,-0.06472 -0.01841,-0.03455 -0.03469,-0.06252 -0.03615,-0.06217 -0.0013,2.12e-4 -0.182033,0.0581 -0.401296,0.128339 l -0.398658,0.127717 -0.05221,0.130879 -0.05221,0.130884 0.05461,0.07915 c 0.03003,0.04353 0.05881,0.08407 0.06394,0.09009 0.0063,0.0075 0.01172,0.0049 0.0168,-0.0078 z m -0.394017,-0.429795 0.242355,0.247656 0.01453,-0.03556 c 0.008,-0.01953 0.03252,-0.07974 0.05448,-0.133747 l 0.03994,-0.09819 -0.0555,-0.05553 c -0.03052,-0.03052 -0.154644,-0.165187 -0.275817,-0.299225 -0.121172,-0.134035 -0.234591,-0.263033 -0.252043,-0.286658 -0.02961,-0.04009 -0.03888,-0.04538 -0.139141,-0.07925 -0.05908,-0.01995 -0.114163,-0.03329 -0.122394,-0.02964 -0.0083,0.0037 -0.01445,0.0227 -0.01381,0.04273 7.94e-4,0.01982 -0.0031,0.05383 -0.0082,0.07555 l -0.0093,0.03948 0.111779,0.111781 c 0.08112,0.08112 0.114464,0.120177 0.121531,0.142407 0.0054,0.01683 0.0091,0.04417 0.0083,0.06073 -0.0011,0.02185 0.0043,0.0328 0.01976,0.03995 0.0117,0.0054 0.130313,0.12129 0.263607,0.257503 z m -2.333414,-2.405925 c 0.02228,0.0065 0.03715,0.0084 0.03311,0.0042 -0.004,-0.0042 -0.03719,-0.02479 -0.0737,-0.04579 -0.06626,-0.03813 -0.06631,-0.03814 -0.03311,-0.0042 0.01953,0.01982 0.05002,0.03888 0.0737,0.04579 z m 0.403111,0.373571 c 0.125209,0.108918 0.356542,0.310007 0.514089,0.446847 0.157543,0.136848 0.305458,0.267861 0.328699,0.291147 0.02326,0.02328 0.05145,0.05859 0.06268,0.07846 0.01754,0.03105 0.02845,0.0391 0.07737,0.0573 0.03133,0.01164 0.06978,0.02119 0.08548,0.02119 0.02635,0 0.04146,0.01288 0.197916,0.168611 l 0.169447,0.168553 0.114615,0.03322 0.114615,0.03322 0.688769,-0.132721 c 0.378819,-0.07299 0.874477,-0.168425 1.10146,-0.212071 0.226981,-0.04365 0.425797,-0.08312 0.441809,-0.08772 0.02484,-0.0071 0.02806,-0.01037 0.02199,-0.02199 -0.0039,-0.0075 -0.0073,-0.05318 -0.0075,-0.101529 l -2.65e-4,-0.0879 -0.132506,-0.132503 -0.1325,-0.132504 -0.115801,0.02982 c -0.06369,0.0164 -0.12021,0.03111 -0.1256,0.03273 -0.0054,0.0013 0.0019,0.0064 0.01601,0.01069 l 0.02577,0.0078 -0.0714,0.06083 c -0.05811,0.0495 -0.08045,0.06255 -0.120017,0.07003 -0.02673,0.0051 -0.05978,0.0067 -0.07343,0.0037 -0.01365,-0.0031 -0.05904,-0.02506 -0.100875,-0.04893 -0.07366,-0.04203 -0.07899,-0.04316 -0.167561,-0.03556 -0.05032,0.0043 -0.186668,0.02357 -0.302998,0.04279 -0.116332,0.01924 -0.225806,0.03576 -0.243273,0.03678 -0.02516,0.0013 -0.03975,-0.0061 -0.0702,-0.03659 l -0.03844,-0.03844 -0.199078,0.0209 c -0.109492,0.01151 -0.252991,0.02593 -0.318891,0.0321 l -0.119817,0.01119 -0.03556,-0.03556 -0.03557,-0.03556 -0.128569,0.03199 -0.128566,0.03199 -0.05771,-0.04684 c -0.03175,-0.02574 -0.08995,-0.07133 -0.129349,-0.101262 -0.06641,-0.05046 -0.07533,-0.05419 -0.122381,-0.0511 -0.02792,0.0019 -0.07131,0.0045 -0.09645,0.0059 -0.04206,0.0024 -0.05739,-0.0048 -0.191908,-0.09016 -0.0804,-0.05104 -0.189486,-0.120063 -0.242403,-0.153403 -0.05291,-0.03336 -0.143634,-0.09049 -0.201591,-0.127005 -0.05795,-0.03651 -0.150747,-0.09495 -0.206195,-0.129866 -0.05546,-0.0349 -0.145976,-0.09209 -0.201163,-0.12706 -0.05519,-0.03498 -0.130651,-0.07378 -0.167693,-0.08622 l -0.06735,-0.02262 0.08221,0.07462 c 0.04521,0.04105 0.184647,0.16374 0.309848,0.272661 z m 1.531676,1.156827 c -0.01934,-0.02585 -0.06078,-0.07748 -0.0921,-0.114731 -0.04275,-0.05085 -0.05185,-0.06629 -0.03645,-0.06195 0.0122,0.0035 0.04594,0.03519 0.08347,0.07856 0.03462,0.04003 0.08695,0.109283 0.11624,0.153926 l 0.05328,0.08115 -0.04466,-0.04496 C 66.95158,82.8877 66.91568,82.8463 66.89636,82.82045 Z m 0.597688,-0.170402 c 0.08945,-0.01736 0.296956,-0.05516 0.461122,-0.08405 0.164166,-0.02887 0.419404,-0.07274 0.567195,-0.09746 0.147793,-0.02474 0.27545,-0.04493 0.283683,-0.04491 0.01,3.1e-5 0.0092,0.0019 -0.0024,0.0051 -0.0096,0.0028 -0.07964,0.01669 -0.155739,0.03097 -0.0761,0.01423 -0.260861,0.04794 -0.410575,0.07485 -0.149717,0.02691 -0.398981,0.07002 -0.553918,0.0958 -0.15494,0.02577 -0.297522,0.04788 -0.316857,0.04908 -0.01934,0.0013 0.03803,-0.01198 0.127492,-0.02933 z m 0.440767,0.941125 c 0.145836,-0.04721 0.351867,-0.113392 0.45784,-0.147074 0.105971,-0.03368 0.332518,-0.106222 0.503434,-0.161221 0.170915,-0.05499 0.402246,-0.129122 0.514067,-0.164735 l 0.203308,-0.06475 0.09775,0.05885 0.09775,0.05885 0.10922,-0.0675 c 0.06006,-0.03713 0.10922,-0.0696 0.10922,-0.07217 0,-0.0028 -0.05515,-0.04678 -0.122537,-0.09826 -0.06741,-0.05147 -0.124277,-0.09521 -0.126394,-0.09721 -0.0021,-0.0021 -0.015,2.09e-4 -0.02866,0.0051 -0.01365,0.0048 -0.07799,0.02273 -0.142989,0.03986 -0.065,0.01714 -0.134377,0.03515 -0.154176,0.04 -0.01979,0.0048 -0.05673,0.01498 -0.08207,0.02249 -0.02535,0.0075 -0.123365,0.03385 -0.217832,0.05849 -0.09446,0.02466 -0.196043,0.05159 -0.225731,0.05985 -0.02968,0.0083 -0.116848,0.03199 -0.193699,0.05274 -0.07685,0.02074 -0.206116,0.05534 -0.287266,0.07688 -0.08115,0.02154 -0.224216,0.05995 -0.317924,0.08535 -0.09371,0.0254 -0.186597,0.05014 -0.20642,0.05496 -0.01984,0.0048 -0.06543,0.01781 -0.101348,0.0289 -0.03592,0.01109 -0.06817,0.02302 -0.07169,0.02652 -0.0035,0.0035 0.0091,0.0329 0.028,0.06535 l 0.03438,0.05897 -0.04004,-0.04742 c -0.02204,-0.02606 -0.04301,-0.05718 -0.04662,-0.06913 -0.004,-0.01341 0.0013,-0.02975 0.01439,-0.04268 0.01151,-0.01151 0.053,-0.04543 0.09215,-0.07535 0.06163,-0.0471 0.08547,-0.05819 0.177475,-0.08255 0.05845,-0.01548 0.151577,-0.03998 0.206933,-0.05445 0.05535,-0.01445 0.241218,-0.06049 0.413025,-0.102267 0.171813,-0.04177 0.450631,-0.112461 0.619594,-0.157086 0.168965,-0.04462 0.342932,-0.09029 0.386593,-0.101492 l 0.07939,-0.02037 0.05874,0.04581 0.05874,0.04581 -0.06915,-0.08768 c -0.03804,-0.04822 -0.08474,-0.112427 -0.103759,-0.14269 -0.01905,-0.03027 -0.04526,-0.08262 -0.05829,-0.11634 -0.02066,-0.05352 -0.02122,-0.06894 -0.0041,-0.121161 0.01897,-0.05798 0.02156,-0.0613 0.08424,-0.107399 0.03555,-0.02617 0.06865,-0.05161 0.07353,-0.05656 0.0066,-0.0067 -0.0039,-0.0159 -0.04051,-0.03574 -0.02715,-0.01474 -0.0494,-0.02968 -0.04939,-0.03326 0,-0.0036 0.02708,0.0058 0.06021,0.02096 l 0.0602,0.02743 0.05431,-0.03727 c 0.02989,-0.02048 0.0543,-0.03986 0.05431,-0.043 0,-0.0031 -0.04201,-0.0254 -0.09335,-0.04941 l -0.09335,-0.04369 -0.178218,0.09018 -0.17821,0.09018 -0.02733,0.07401 c -0.0173,0.04683 -0.02649,0.09882 -0.02506,0.141605 0.0013,0.03718 0.0072,0.07722 0.01333,0.08898 0.0061,0.01177 0.0077,0.02477 0.0036,0.02887 -0.0041,0.0041 -0.121235,0.02936 -0.260263,0.05613 -0.139025,0.02677 -0.337328,0.06491 -0.440669,0.08479 -0.103344,0.0199 -0.387985,0.07466 -0.632537,0.12174 -0.244554,0.04707 -0.554506,0.106794 -0.688774,0.132707 l -0.244133,0.04712 0.05692,0.06714 c 0.03133,0.03692 0.158916,0.180121 0.283583,0.318207 0.124661,0.138091 0.226658,0.254294 0.226653,0.258236 0,0.0039 0.01225,0.01741 0.02722,0.02992 0.02684,0.02244 0.03101,0.02154 0.292378,-0.06307 z m 1.159616,-0.175747 c 0.0059,-0.0059 -0.0068,-0.03527 -0.03241,-0.07528 -0.02313,-0.03611 -0.04632,-0.06669 -0.05157,-0.06792 -0.0053,-0.0013 -0.01397,0.0021 -0.01939,0.0076 -0.0062,0.0062 0.006,0.03357 0.03346,0.07483 0.02381,0.03573 0.04713,0.06619 0.05181,0.06768 0.0047,0.0013 0.01283,-0.0019 0.0181,-0.0069 z m 0.109707,-0.04107 c 0.04504,-0.01656 0.08491,-0.02712 0.0886,-0.02344 0.0037,0.0037 0.02922,-0.0061 0.05673,-0.02167 0.02754,-0.01561 0.0702,-0.04014 0.09485,-0.05451 0.02466,-0.01434 0.04883,-0.02209 0.0537,-0.01725 0.0049,0.0049 0.0315,0.02114 0.05919,0.03614 0.04465,0.02421 0.05104,0.02484 0.05687,0.0056 0.0036,-0.01193 0.01799,-0.03311 0.03192,-0.04706 0.01397,-0.01397 0.05001,-0.03347 0.08015,-0.04332 0.03013,-0.0099 0.05479,-0.02016 0.05479,-0.02283 0,-0.0028 -0.03857,-0.02813 -0.0857,-0.05658 l -0.08571,-0.05168 -0.285586,0.09183 c -0.195667,0.06292 -0.283681,0.09595 -0.279514,0.10491 0.0035,0.0072 0.02143,0.03805 0.04021,0.06856 0.01881,0.03052 0.03494,0.05681 0.03588,0.05845 0.0011,0.0019 0.03858,-0.01058 0.08361,-0.02715 z m -4.93658,-4.862935 0.325485,0.301831 0.117978,0.0013 c 0.06648,7.94e-4 0.133281,0.009 0.153029,0.01873 0.02273,0.01119 0.197549,0.169614 0.497515,0.45093 0.254352,0.23854 0.672465,0.630338 0.929137,0.870664 l 0.466678,0.436957 0.03602,-0.0024 c 0.01982,-0.0013 0.03836,-0.0047 0.04122,-0.0076 0.0028,-0.0028 -0.09352,-0.09971 -0.214109,-0.215305 -0.120642,-0.115552 -0.446352,-0.433401 -0.723789,-0.706363 -0.325401,-0.320133 -0.453123,-0.449525 -0.359878,-0.364528 0.0795,0.07247 0.409895,0.390301 0.734202,0.706271 l 0.589659,0.574501 0.06589,-0.0057 c 0.03625,-0.0031 0.114356,-0.007 0.173588,-0.0084 l 0.107691,-0.0028 -0.161539,-0.152125 c -0.08885,-0.08366 -0.259025,-0.242827 -0.378174,-0.353695 -0.119161,-0.110852 -0.35977,-0.33401 -0.534686,-0.495906 -0.174914,-0.161896 -0.330356,-0.308911 -0.345403,-0.326723 -0.01508,-0.01778 0.128254,0.111098 0.318447,0.286467 0.190193,0.175366 0.427889,0.394716 0.528222,0.487436 0.100319,0.09273 0.275209,0.256781 0.388631,0.364578 l 0.206219,0.195998 0.102473,0.01095 c 0.05636,0.006 0.150529,0.02281 0.209261,0.03728 0.05873,0.0145 0.153181,0.0444 0.209894,0.06645 0.05672,0.02207 0.14015,0.06003 0.18542,0.0844 0.04527,0.02434 0.104056,0.05952 0.130641,0.07812 0.02659,0.0186 0.13961,0.110569 0.251179,0.204375 0.111559,0.09381 0.300874,0.252875 0.420699,0.353478 0.119832,0.100592 0.219834,0.182636 0.222242,0.182303 0.0024,-2.12e-4 0.160004,-0.05062 0.35021,-0.111747 0.290931,-0.09349 0.35818,-0.111162 0.423593,-0.111334 0.04559,-1.19e-4 0.110257,0.0108 0.156297,0.02638 0.0432,0.01463 0.110887,0.04445 0.150429,0.06628 0.06987,0.03858 0.08746,0.05502 0.624816,0.58438 0.518708,0.510997 0.553884,0.544031 0.568502,0.534132 0.01469,-0.01 -0.01159,-0.03791 -0.459277,-0.488968 -0.36272,-0.3654 -0.401867,-0.406392 -0.165851,-0.173474 0.297529,0.293597 0.310065,0.304882 0.337307,0.303527 0.02817,-0.0013 0.02754,-0.0021 -0.13715,-0.166872 l -0.165457,-0.165455 0.02141,-0.02141 c 0.01831,-0.01831 0.02771,-0.01855 0.06518,-0.0019 0.0241,0.01085 0.07528,0.04042 0.113753,0.06576 0.03848,0.02532 0.07241,0.05189 0.07543,0.05899 0.0031,0.0071 -0.0055,0.0037 -0.01892,-0.0075 -0.01336,-0.0113 0.0021,0.01003 0.03487,0.0473 l 0.05924,0.06772 -0.118107,-0.105034 c -0.06658,-0.05922 -0.133406,-0.111311 -0.153157,-0.119428 -0.01926,-0.0079 -0.04048,-0.009 -0.04711,-0.0024 -0.01066,0.01066 -0.0011,0.02214 0.08352,0.09945 0.0534,0.04881 0.08145,0.07844 0.06356,0.06713 -0.01762,-0.01117 0.114562,0.127217 0.293727,0.307457 0.204915,0.206105 0.328409,0.325043 0.332952,0.3205 0.004,-0.004 0.03504,-0.04848 0.0691,-0.09892 0.03402,-0.05046 0.06224,-0.0921 0.06266,-0.09254 2.65e-4,-2.65e-4 -0.02114,-0.02673 -0.04795,-0.05842 -0.02676,-0.03171 -0.0487,-0.05984 -0.0487,-0.06255 0,-0.0028 0.0164,-0.01519 0.03659,-0.02761 0.02014,-0.01246 0.120388,-0.07611 0.222803,-0.141425 0.102409,-0.06531 0.1862,-0.120515 0.186203,-0.122666 0,-0.0021 -0.05001,-0.04792 -0.111255,-0.101576 -0.06119,-0.05371 -0.131905,-0.113975 -0.157144,-0.133914 -0.02527,-0.01992 -0.04207,-0.03641 -0.03744,-0.03655 0.0047,-1.64e-4 0.05564,0.03622 0.113282,0.08089 0.05764,0.04466 0.10913,0.08358 0.114403,0.08649 0.0053,0.0028 -0.01421,-0.02294 -0.04333,-0.05741 -0.02912,-0.03448 -0.07095,-0.09132 -0.09297,-0.12632 -0.03908,-0.06211 -0.04243,-0.06509 -0.140121,-0.125079 -0.05504,-0.03382 -0.144018,-0.08473 -0.19772,-0.113175 -0.0537,-0.02845 -0.156388,-0.07699 -0.228188,-0.107876 -0.0718,-0.03087 -0.179821,-0.07256 -0.240037,-0.09261 -0.06022,-0.02003 -0.146744,-0.04442 -0.192286,-0.05416 -0.04554,-0.0097 -0.107313,-0.01839 -0.137272,-0.01926 -0.02996,-7.94e-4 -0.05778,0.0019 -0.06181,0.0058 -0.0046,0.0046 0.09884,0.117252 0.277082,0.301688 0.15644,0.161888 0.312769,0.331229 0.347403,0.376314 0.03462,0.04509 0.06286,0.08496 0.06271,0.08862 -1.51e-4,0.0037 -0.01283,0.0159 -0.02817,0.02729 l -0.02796,0.02058 -0.07757,-0.07757 c -0.06548,-0.06548 -0.0794,-0.07574 -0.08928,-0.06585 -0.01003,0.01003 -0.0021,0.02011 0.05383,0.06939 0.03606,0.03171 0.0592,0.05395 0.05146,0.04936 -0.0078,-0.0046 -0.03329,-0.02273 -0.05663,-0.04046 -0.03308,-0.02511 -0.04051,-0.02757 -0.03357,-0.01122 0.0049,0.01154 0.02687,0.03997 0.04882,0.0632 0.03024,0.03203 0.03403,0.03909 0.01561,0.02919 -0.01336,-0.0072 -0.04808,-0.03294 -0.07713,-0.05729 -0.04554,-0.03813 -0.04813,-0.04173 -0.01873,-0.02609 l 0.03413,0.01812 -0.02109,-0.03867 c -0.01693,-0.03111 -0.01762,-0.04304 -0.0035,-0.06095 l 0.01754,-0.02228 0.07891,0.07891 c 0.07794,0.07794 0.07921,0.07861 0.09653,0.06129 0.0167,-0.01669 0.01423,-0.02193 -0.04621,-0.09941 -0.0351,-0.04499 -0.190328,-0.214069 -0.344919,-0.375751 -0.167561,-0.175241 -0.307972,-0.315328 -0.347715,-0.346818 -0.03661,-0.02911 -0.135652,-0.118259 -0.220062,-0.198144 -0.08443,-0.07987 -0.183809,-0.168683 -0.220869,-0.197342 -0.03706,-0.02866 -0.128815,-0.08302 -0.20392,-0.120785 -0.0751,-0.03777 -0.205412,-0.09229 -0.289581,-0.121164 -0.08417,-0.02887 -0.2985,-0.09186 -0.476295,-0.139975 -0.177792,-0.04811 -0.424336,-0.110749 -0.547875,-0.139186 -0.123537,-0.02845 -0.252929,-0.06367 -0.287536,-0.07829 -0.03462,-0.01463 -0.117568,-0.05936 -0.184357,-0.09943 -0.06678,-0.04007 -0.190733,-0.124534 -0.275423,-0.187708 -0.0847,-0.06317 -0.226041,-0.173877 -0.314108,-0.246002 -0.08806,-0.07213 -0.227671,-0.187923 -0.31024,-0.257329 -0.08257,-0.0694 -0.215596,-0.174982 -0.295611,-0.234624 -0.08001,-0.05964 -0.286634,-0.209241 -0.45916,-0.332452 -0.172522,-0.123214 -0.357132,-0.254502 -0.410242,-0.291756 -0.0531,-0.03726 -0.279937,-0.1969 -0.504068,-0.354756 L 65.02467,77.933121 64.931,77.909861 c -0.05152,-0.01281 -0.143666,-0.03038 -0.20478,-0.0391 -0.06111,-0.0087 -0.15649,-0.01614 -0.211963,-0.01654 -0.05547,-2.65e-4 -0.138327,0.005 -0.184123,0.01188 -0.0458,0.007 -0.116565,0.02357 -0.157263,0.03699 -0.04069,0.01341 -0.09879,0.03933 -0.129106,0.05759 -0.03031,0.01828 -0.07147,0.04606 -0.09146,0.06176 -0.0342,0.02687 -0.0351,0.02922 -0.01532,0.03994 0.01156,0.0062 0.126473,0.1109 0.25537,0.232558 0.128908,0.121645 0.286867,0.266139 0.351034,0.321088 l 0.116657,0.09992 0.05773,0.0021 c 0.03175,0.0011 0.07259,0.004 0.09074,0.0063 0.01818,0.0024 -0.0092,0.005 -0.06075,0.0058 -0.08532,0.0013 -0.09784,-0.0019 -0.139044,-0.03273 -0.0249,-0.01881 -0.185449,-0.166214 -0.356788,-0.327575 -0.180176,-0.169693 -0.31859,-0.294198 -0.328285,-0.295296 -0.0092,-0.0011 -0.02035,0.0019 -0.02469,0.006 -0.0043,0.0043 -0.0084,0.02302 -0.009,0.04146 -7.93e-4,0.02289 0.0074,0.04203 0.02561,0.06028 0.01466,0.01468 0.173125,0.162578 0.352142,0.32858 z m 0.76844,0.01942 c 0.01302,0.0096 0.0315,0.02806 0.04107,0.04107 0.0096,0.01302 -0.0011,0.0052 -0.02365,-0.01741 -0.0226,-0.02259 -0.03048,-0.03318 -0.01741,-0.02365 z m 0.13457,0.119346 c 0.02103,0.01799 0.05297,0.0499 0.07094,0.07095 0.01799,0.02106 7.94e-4,0.0063 -0.03827,-0.03266 -0.03902,-0.03902 -0.05379,-0.05617 -0.03266,-0.03827 z m 0.20556,0.19064 c 0.01916,0.01601 0.046,0.0429 0.05969,0.0598 0.01368,0.01691 -0.0019,0.0038 -0.0348,-0.02905 -0.03283,-0.03287 -0.04403,-0.04672 -0.02487,-0.03073 z m 0.231362,0.216326 c 0.02715,0.02418 0.06917,0.06619 0.09335,0.09335 0.02416,0.02715 0.0021,0.0073 -0.04933,-0.04402 -0.05134,-0.05134 -0.07115,-0.07354 -0.04402,-0.04933 z m 5.272294,3.002494 c 0.01109,0.0075 0.02445,0.02101 0.02971,0.03003 0.0053,0.009 -0.0038,0.0028 -0.02014,-0.01365 -0.01635,-0.01654 -0.02066,-0.02389 -0.0096,-0.01638 z m 0.189687,0.168606 c 0.01741,0.0096 0.03626,0.01228 0.04251,0.006 0.0062,-0.0062 0.0067,-0.02183 0.0013,-0.0348 l -0.01003,-0.02357 0.0168,0.01593 c 0.0093,0.0087 0.01553,0.02133 0.014,0.02796 -0.0013,0.0066 0.03094,0.0468 0.07222,0.08922 l 0.07506,0.07715 -0.07995,-0.067 c -0.04717,-0.03951 -0.09107,-0.06895 -0.107053,-0.07177 -0.01492,-0.0028 -0.03361,-0.01191 -0.04158,-0.02056 -0.0094,-0.01032 -0.0035,-0.0098 0.0168,0.0013 z m 0.07127,-0.0638 c 0.0154,0.0071 0.0329,0.0082 0.03886,0.0021 0.006,-0.006 0.0063,-0.02143 7.93e-4,-0.03438 l -0.01003,-0.02357 0.01746,0.01659 c 0.0097,0.0091 0.01442,0.02355 0.01058,0.03207 -0.0055,0.01236 0.01035,0.03339 0.07844,0.104055 l 0.08535,0.08854 -0.08737,-0.08259 c -0.06099,-0.05765 -0.09541,-0.084 -0.113956,-0.08727 -0.01463,-0.0024 -0.03143,-0.01011 -0.0374,-0.01667 -0.006,-0.0066 0.0019,-0.0061 0.01722,0.0011 z m -4.185005,-1.457114 0.131612,0.07749 0.316437,0.295949 c 0.174045,0.162759 0.427638,0.39982 0.563546,0.526786 0.135906,0.12697 0.259744,0.240059 0.275193,0.251309 l 0.0281,0.02045 0.107947,-0.10795 0.10795,-0.10795 -0.410932,-0.41093 -0.41093,-0.410927 -0.08108,-0.02683 c -0.04459,-0.01476 -0.106518,-0.03164 -0.137615,-0.03751 -0.03108,-0.0059 -0.09172,-0.01193 -0.134718,-0.01344 -0.05557,-0.0019 -0.0666,-0.0046 -0.03814,-0.0092 0.02204,-0.0035 0.06644,-0.004 0.09871,-0.0011 0.03227,0.0028 0.08522,0.01119 0.117665,0.01844 0.03245,0.0072 0.05515,0.0094 0.05045,0.0047 -0.0047,-0.0047 -0.04287,-0.02666 -0.08481,-0.04881 -0.04195,-0.02215 -0.100603,-0.05392 -0.130358,-0.07062 -0.02975,-0.01667 -0.06383,-0.04009 -0.07573,-0.05199 -0.0173,-0.01733 -0.04756,-0.02143 -0.151376,-0.02069 -0.07136,2.65e-4 -0.149368,0.0028 -0.173352,0.0053 l -0.0436,0.0043 0.0595,0.06453 0.0595,0.06453 -0.06636,-0.06332 c -0.06483,-0.06185 -0.06727,-0.06316 -0.106185,-0.05662 -0.03677,0.0062 -0.03842,0.0074 -0.02143,0.01667 0.01013,0.0055 0.07764,0.04483 0.150027,0.08746 z m 1.627947,1.402287 c 0.03987,0.0021 0.08376,7.93e-4 0.09754,-0.0028 0.01378,-0.0038 0.02722,-0.0088 0.02989,-0.01122 0.0028,-0.0024 -0.0061,-0.01183 -0.01953,-0.02101 -0.01339,-0.0092 -0.08151,-0.02344 -0.151345,-0.03161 l -0.126981,-0.01492 0.04897,0.03885 c 0.0427,0.03385 0.05829,0.03935 0.121465,0.04283 z m 0.0092,-0.08165 c 0.06427,0.0054 0.09219,0.01368 0.123362,0.03671 0.04,0.02957 0.04103,0.02961 0.148939,0.0019 0.05977,-0.01532 0.120166,-0.03157 0.134229,-0.03606 0.02291,-0.0073 0.02423,-0.01119 0.01294,-0.03721 -0.007,-0.01601 -0.01908,-0.04102 -0.02701,-0.05565 -0.0113,-0.02096 -0.03476,-0.03469 -0.110082,-0.06443 -0.05265,-0.0208 -0.12138,-0.04621 -0.152731,-0.05647 l -0.05702,-0.01865 -0.109461,0.109464 -0.109461,0.109463 0.03161,0.0021 c 0.01741,0.0011 0.06898,0.0051 0.114675,0.0089 z m 2.669749,2.654265 c 0.02408,-0.02434 0.02666,-0.03543 0.01918,-0.08163 -0.0048,-0.0294 -0.01037,-0.06059 -0.01257,-0.06929 -0.0031,-0.01246 -0.01423,-0.0054 -0.0528,0.03308 -0.04835,0.04836 -0.04862,0.04921 -0.02849,0.06957 0.01127,0.01138 0.0222,0.02894 0.02439,0.0391 0.0021,0.01013 0.0081,0.0227 0.01318,0.02789 0.0057,0.0059 0.01961,-0.0011 0.03706,-0.01873 z m -0.08757,-0.13072 c 0.02164,-0.01646 0.05041,-0.04091 0.06386,-0.05436 0.02064,-0.02064 0.02294,-0.03434 0.01476,-0.08771 l -0.0097,-0.06324 -0.152244,-0.15195 c -0.135517,-0.135216 -0.157464,-0.153885 -0.199586,-0.169715 -0.04393,-0.01648 -0.06414,-0.03459 -0.280784,-0.25124 l -0.23346,-0.233455 -0.0397,0.02379 c -0.02186,0.01307 -0.0572,0.03483 -0.07859,0.04837 l -0.03888,0.02458 0.145806,0.147593 c 0.08024,0.08113 0.203914,0.210471 0.274989,0.287263 0.07108,0.07679 0.211336,0.222949 0.311709,0.324782 l 0.182478,0.185158 z M 67.448176,80.7058 c 0.101578,0.05559 0.249621,0.13381 0.32898,0.17382 0.07936,0.04001 0.199874,0.107691 0.267816,0.150395 0.06794,0.04271 0.190723,0.128071 0.272852,0.189709 0.08212,0.06163 0.198035,0.153746 0.257572,0.2047 0.05953,0.05096 0.134824,0.120171 0.167293,0.153831 0.05307,0.05486 0.04888,0.05224 -0.04031,-0.02617 -0.05463,-0.04806 -0.140013,-0.120629 -0.18972,-0.161282 -0.04971,-0.04065 -0.142576,-0.113154 -0.206375,-0.161105 -0.0638,-0.04795 -0.172442,-0.124145 -0.241424,-0.169317 -0.06899,-0.04517 -0.172053,-0.106082 -0.229042,-0.13535 l -0.103616,-0.05321 0.440558,0.444423 0.440562,0.444413 0.181814,0.06785 c 0.178814,0.06673 0.182229,0.06854 0.207465,0.109905 0.0141,0.02315 0.03066,0.0511 0.0368,0.06214 0.01024,0.01844 0.04196,0.0071 0.395353,-0.141938 l 0.38422,-0.162013 0.108035,0.01834 0.108032,0.01834 0.340421,0.340421 0.340423,0.34042 0.06495,0.01267 c 0.05594,0.0109 0.07105,0.01876 0.108887,0.05661 0.02447,0.02447 0.05654,0.06976 0.07241,0.102282 0.01958,0.04014 0.04793,0.0778 0.09079,0.120661 l 0.06231,0.06231 0.02964,-0.02964 c 0.02445,-0.02445 0.02859,-0.03667 0.02365,-0.06963 -0.0048,-0.03178 -0.0011,-0.04365 0.0181,-0.0579 l 0.0241,-0.01791 -0.541136,-0.53554 c -0.530611,-0.525132 -0.542684,-0.536459 -0.621035,-0.582239 -0.04396,-0.02569 -0.115113,-0.05902 -0.158142,-0.0741 -0.05136,-0.01799 -0.104719,-0.02666 -0.155339,-0.02521 -0.04788,0.0013 -0.131234,0.01884 -0.219898,0.0461 -0.07853,0.02413 -0.236784,0.07426 -0.351674,0.111344 l -0.208886,0.06743 -0.197942,-0.165663 c -0.108866,-0.09112 -0.307666,-0.257879 -0.44177,-0.370576 -0.178173,-0.149727 -0.26666,-0.218091 -0.32862,-0.253886 -0.04663,-0.02694 -0.114861,-0.0626 -0.15162,-0.07925 -0.03675,-0.01662 -0.112307,-0.04527 -0.167888,-0.06362 -0.05558,-0.01834 -0.151445,-0.04347 -0.213016,-0.05584 -0.06158,-0.01236 -0.134049,-0.02389 -0.161047,-0.02564 -0.02701,-0.0019 -0.04463,0.0013 -0.03918,0.0073 0.0055,0.0058 0.09302,0.056 0.194604,0.111591 z m 1.371142,0.938469 c 0.0075,0.0048 0.03034,0.02334 0.0507,0.04123 0.02032,0.01791 0.0329,0.0335 0.02792,0.03466 -0.005,0.0013 -0.02782,-0.01736 -0.05069,-0.04123 -0.02294,-0.02381 -0.03547,-0.03945 -0.02792,-0.03466 z m 1.903367,1.86703 0.05132,0.05132 0.0021,0.07682 0.0021,0.07682 0.0885,0.0879 c 0.08279,0.0822 0.09086,0.08818 0.127042,0.09042 0.02127,0.0013 0.04046,7.93e-4 0.04271,-0.0019 0.0021,-0.0021 -0.01807,-0.02627 -0.04517,-0.05336 l -0.04926,-0.04927 -0.01371,-0.140657 c -0.0075,-0.07736 -0.01595,-0.142923 -0.01873,-0.14569 -0.0028,-0.0028 -0.02344,-0.0066 -0.04589,-0.0085 -0.03833,-0.0031 -0.04611,-0.0088 -0.125508,-0.08816 l -0.08465,-0.08465 -0.04458,0.004 c -0.02697,0.0024 -0.05526,-0.0038 -0.07161,-0.01561 -0.02458,-0.01783 -0.02996,-0.01701 -0.05991,0.0088 l -0.03291,0.02841 0.03995,0.05415 0.03995,0.05415 0.07345,0.0019 c 0.07315,0.0019 0.07366,0.0019 0.124769,0.05302 z m 0.45991,0.464939 c 0.02387,0.0019 0.08764,0.01982 0.141753,0.03964 0.05411,0.01982 0.149693,0.06104 0.212402,0.0916 l 0.114006,0.05556 0.159055,-0.05604 c 0.08748,-0.03083 0.159792,-0.05678 0.160697,-0.05768 7.94e-4,-7.94e-4 -0.0223,-0.02978 -0.05161,-0.06415 -0.02929,-0.03438 -0.241271,-0.25759 -0.471091,-0.496019 -0.399383,-0.414367 -0.423561,-0.43792 -0.547275,-0.53325 l -0.129429,-0.09974 -0.144954,-0.0068 c -0.07972,-0.0037 -0.171302,-0.0063 -0.203507,-0.0057 l -0.05855,0.0011 0.01042,0.02469 c 0.0057,0.01357 0.121769,0.141848 0.257881,0.285041 0.136107,0.1432 0.259604,0.276106 0.274439,0.295346 0.02167,0.02813 0.0301,0.06418 0.0429,0.184065 l 0.01593,0.14908 0.06325,0.06825 c 0.03483,0.0375 0.07384,0.08021 0.08677,0.09485 0.01677,0.01884 0.0361,0.02764 0.06689,0.0302 z m -0.669502,-1.153769 0.252423,0.0122 0.09948,-0.09948 0.09949,-0.09949 -0.02304,-0.04683 c -0.01267,-0.02577 -0.04261,-0.0664 -0.06652,-0.09032 l -0.04348,-0.04348 -0.02397,0.02455 c -0.01318,0.01349 -0.04451,0.05109 -0.06954,0.08356 -0.0315,0.0409 -0.0503,0.05885 -0.06108,0.05841 -0.01048,-2.64e-4 -0.01151,-0.0019 -0.0031,-0.0042 0.0069,-0.0019 0.03737,-0.03796 0.06768,-0.08005 0.03035,-0.04207 0.05518,-0.07871 0.05517,-0.08143 0,-0.0028 -0.08217,-0.01984 -0.182605,-0.03808 -0.100433,-0.0182 -0.188296,-0.0295 -0.195249,-0.02508 -0.0069,0.0045 0.03375,0.01752 0.09043,0.02905 0.05669,0.01159 0.113361,0.02418 0.125936,0.02803 0.01259,0.0039 0.01855,0.0072 0.01336,0.0074 -0.0052,2.09e-4 -0.05357,-0.0075 -0.107429,-0.01714 -0.05386,-0.0097 -0.109884,-0.01542 -0.124494,-0.01288 -0.01463,0.0024 -0.02416,0.0071 -0.02125,0.01 0.0028,0.0028 0.03979,0.01516 0.08195,0.02719 0.04215,0.01204 0.08907,0.02461 0.104261,0.02786 0.01519,0.0031 0.02588,0.0077 0.02379,0.0098 -0.0021,0.0021 -0.05618,-0.0074 -0.120171,-0.02103 -0.06399,-0.01368 -0.122182,-0.02349 -0.129315,-0.02183 -0.0071,0.0019 -0.01669,0.0155 -0.02132,0.03063 -0.0046,0.01516 -0.0052,0.03076 -0.0013,0.03466 0.0039,0.0039 0.05214,0.015 0.107196,0.02469 0.05505,0.0097 0.09859,0.0191 0.09675,0.02093 -0.0019,0.0019 -0.05455,-0.0024 -0.117129,-0.0098 -0.08018,-0.0093 -0.118573,-0.0084 -0.130003,0.0031 -0.0089,0.0089 -0.01619,0.02064 -0.01619,0.02603 0,0.0054 0.03452,0.01288 0.07668,0.01669 0.04217,0.0038 0.08864,0.0083 0.103267,0.01011 0.01463,0.0019 -0.03518,0.0028 -0.110675,0.0024 -0.08414,-2.65e-4 -0.143174,0.0051 -0.152538,0.01445 -0.01013,0.01013 -0.01045,0.02167 -7.94e-4,0.03445 0.0079,0.01058 0.01019,0.03006 0.005,0.04336 -0.008,0.02048 -0.0037,0.02992 0.02827,0.06187 l 0.03769,0.03769 z m 1.386496,1.466898 c 0.04935,0.02736 0.06131,0.02929 0.101449,0.01627 0.025,-0.0081 0.0618,-0.0172 0.08171,-0.02021 0.02196,-0.0031 0.03588,-0.01066 0.03538,-0.01865 -2.65e-4,-0.0073 -0.02964,-0.05386 -0.06488,-0.103457 -0.03522,-0.04961 -0.06631,-0.09017 -0.06907,-0.09013 -0.0028,0 -0.06851,0.02259 -0.146098,0.05016 -0.07759,0.02757 -0.14233,0.05136 -0.143857,0.05289 -0.0013,0.0013 0.03147,0.02064 0.07332,0.04244 0.04185,0.02183 0.101275,0.05362 0.132041,0.07069 z m 0.267967,-0.06882 c 0.01106,-0.01569 0.04344,-0.06 0.07204,-0.09852 l 0.052,-0.07002 -0.02058,-0.03301 c -0.01132,-0.01812 -0.03908,-0.04814 -0.06167,-0.06661 l -0.04108,-0.03361 -0.07468,0.07468 -0.07468,0.07468 0.0473,0.07219 c 0.02604,0.03969 0.05496,0.0804 0.0643,0.09045 0.01527,0.01648 0.01902,0.0154 0.03706,-0.01024 z m -1.232458,-1.268124 c 0.106987,0.08495 0.162904,0.140184 0.565446,0.55866 0.245687,0.255423 0.456184,0.477832 0.46776,0.494265 l 0.02103,0.02985 0.07203,-0.08212 c 0.03962,-0.04516 0.07197,-0.08365 0.07192,-0.0855 0,-0.0019 -0.224914,-0.238969 -0.499679,-0.526923 -0.274762,-0.287956 -0.535731,-0.559649 -0.579916,-0.603771 l -0.08033,-0.08023 -0.08962,0.08962 c -0.07438,0.07438 -0.08772,0.09151 -0.07849,0.10074 0.0061,0.0061 0.06455,0.05353 0.129847,0.105394 z m 0.463418,-0.292531 c 0.02487,-1.6e-5 0.01579,-0.01035 -0.190884,-0.217033 -0.209558,-0.209558 -0.218093,-0.2169 -0.24629,-0.215556 l -0.02929,0.0013 0.22016,0.215575 c 0.197717,0.193609 0.222826,0.215561 0.24629,0.215553 z m 0.790413,-0.413414 c 0.02495,0.01958 0.05038,0.03308 0.05654,0.02999 0.0061,-0.0031 0.0076,-0.0141 0.0031,-0.02445 -0.0043,-0.01035 -0.04045,-0.05689 -0.08016,-0.103446 -0.04096,-0.04802 -0.139912,-0.146164 -0.228679,-0.226889 -0.08607,-0.07824 -0.169363,-0.149531 -0.185074,-0.158453 -0.02677,-0.01519 -0.02635,-0.01323 0.0066,0.03073 0.01937,0.02582 0.05797,0.07459 0.08578,0.10839 0.02782,0.03378 0.105907,0.117014 0.173503,0.184965 0.06762,0.06792 0.14333,0.139546 0.168264,0.159152 z"
       id="path9-8" />
  </g>
</svg>
