<?xml version="1.0" encoding="UTF-8" standalone="no"?>
<!-- Created with Inkscape (http://www.inkscape.org/) -->

<svg
   width="10.814mm"
   height="12.362515mm"
   viewBox="0 0 10.814 12.362515"
   version="1.1"
   id="svg1"
   inkscape:version="1.4.2 (ebf0e940d0, 2025-05-08)"
   sodipodi:docname="lb.svg"
   xmlns:inkscape="http://www.inkscape.org/namespaces/inkscape"
   xmlns:sodipodi="http://sodipodi.sourceforge.net/DTD/sodipodi-0.dtd"
   xmlns="http://www.w3.org/2000/svg"
   xmlns:svg="http://www.w3.org/2000/svg">
  <sodipodi:namedview
     id="namedview1"
     pagecolor="#ffffff"
     bordercolor="#000000"
     borderopacity="0.25"
     inkscape:showpageshadow="2"
     inkscape:pageopacity="0.0"
     inkscape:pagecheckerboard="0"
     inkscape:deskcolor="#d1d1d1"
     inkscape:document-units="mm"
     inkscape:zoom="0.80711279"
     inkscape:cx="-67.524639"
     inkscape:cy="73.100068"
     inkscape:window-width="1854"
     inkscape:window-height="1131"
     inkscape:window-x="0"
     inkscape:window-y="0"
     inkscape:window-maximized="1"
     inkscape:current-layer="layer1" />
  <defs
     id="defs1" />
  <g
     inkscape:label="Layer 1"
     inkscape:groupmode="layer"
     id="layer1"
     transform="translate(-122.76668,-129.11651)">
    <path
       style="fill:#000000;stroke-width:0.027274"
       d="m 127.62694,141.43646 c -0.0337,-0.0236 -0.0963,-0.11257 -0.13916,-0.19774 -0.0429,-0.0852 -0.12964,-0.27656 -0.19284,-0.42532 -0.0632,-0.14876 -0.14338,-0.31558 -0.17819,-0.37073 -0.0348,-0.0551 -0.12565,-0.17152 -0.20187,-0.25862 -0.0762,-0.0871 -0.15035,-0.20099 -0.16473,-0.25309 -0.0188,-0.0679 -0.0159,-0.12465 0.0103,-0.20049 0.0201,-0.0582 0.0275,-0.10577 0.0166,-0.10577 -0.0109,0 -0.0396,0.0218 -0.0637,0.0484 -0.0241,0.0266 -0.0523,0.10142 -0.0627,0.16618 -0.0103,0.0648 -0.0472,0.15144 -0.0819,0.19265 -0.0347,0.0412 -0.1576,0.12291 -0.27316,0.18156 -0.18123,0.092 -0.23485,0.10666 -0.38991,0.10666 -0.16878,0 -0.19149,-0.008 -0.37072,-0.12776 -0.105,-0.0703 -0.27683,-0.20611 -0.38183,-0.30188 -0.10501,-0.0958 -0.21311,-0.18239 -0.24023,-0.19247 -0.0271,-0.0101 -0.12687,-0.0737 -0.22166,-0.14132 -0.14159,-0.10104 -0.19375,-0.12298 -0.29233,-0.12298 -0.066,0 -0.22399,-0.0129 -0.3511,-0.0286 -0.12711,-0.0157 -0.35999,-0.0722 -0.51749,-0.12552 -0.15751,-0.0533 -0.37441,-0.13742 -0.48199,-0.18688 -0.1428,-0.0656 -0.20723,-0.11238 -0.23865,-0.17314 -0.0316,-0.0611 -0.043,-0.16343 -0.043,-0.38451 v -0.30129 l 0.0984,-0.10892 c 0.0541,-0.0599 0.21061,-0.19275 0.34775,-0.29521 0.13714,-0.10247 0.37207,-0.27659 0.52208,-0.38695 0.15001,-0.11036 0.44289,-0.36723 0.65084,-0.57082 0.20795,-0.2036 0.50994,-0.52972 0.67108,-0.72473 0.16114,-0.19501 0.42544,-0.53867 0.58734,-0.76368 0.1619,-0.22501 0.34164,-0.48603 0.39943,-0.58005 0.0578,-0.094 0.10507,-0.18048 0.10507,-0.19213 0,-0.0116 -0.10739,-0.0723 -0.23865,-0.13482 -0.13125,-0.0625 -0.36752,-0.1681 -0.52503,-0.23465 -0.1575,-0.0666 -0.43365,-0.16447 -0.61366,-0.21757 -0.18001,-0.0531 -0.41934,-0.1148 -0.53185,-0.13711 -0.1125,-0.0223 -0.289,-0.0492 -0.3922,-0.0598 -0.14841,-0.0152 -0.20383,-0.0342 -0.26495,-0.0907 -0.0432,-0.0399 -0.10757,-0.15348 -0.14591,-0.25736 -0.0377,-0.10226 -0.0886,-0.2923 -0.11293,-0.42232 -0.0244,-0.13002 -0.0389,-0.30154 -0.0323,-0.38116 0.007,-0.0865 0.034,-0.17422 0.0666,-0.21792 0.03,-0.0402 0.13945,-0.12462 0.24313,-0.18748 0.10367,-0.0629 0.34804,-0.17848 0.54306,-0.25692 0.28439,-0.11441 0.41123,-0.14978 0.64093,-0.17871 0.15752,-0.0198 0.42899,-0.0365 0.60328,-0.037 0.1743,-5.3e-4 0.4259,0.018 0.55912,0.0412 0.13322,0.0231 0.32022,0.0661 0.41556,0.0955 0.0953,0.0294 0.18432,0.0534 0.19774,0.0534 0.0134,0 0.0244,-0.0407 0.0244,-0.0905 0,-0.0497 -0.0129,-0.16327 -0.0287,-0.25228 -0.0158,-0.089 -0.0529,-0.23548 -0.0824,-0.32548 -0.0296,-0.09 -0.0773,-0.1943 -0.1061,-0.23177 l -0.0523,-0.0681 -0.17207,0.0476 c -0.0946,0.0262 -0.28253,0.0783 -0.41753,0.11576 -0.13501,0.0375 -0.31423,0.0682 -0.39826,0.0682 -0.11335,0 -0.17672,-0.0159 -0.24547,-0.0616 -0.051,-0.034 -0.11722,-0.11065 -0.14722,-0.17046 -0.0357,-0.0712 -0.0542,-0.16165 -0.0537,-0.26197 8e-4,-0.12051 0.0224,-0.19673 0.10158,-0.35695 0.078,-0.15784 0.15228,-0.25325 0.32979,-0.42367 0.16482,-0.15823 0.28574,-0.24719 0.43093,-0.31703 0.111,-0.0534 0.30585,-0.122 0.43299,-0.15248 0.12781,-0.0306 0.32479,-0.0555 0.44057,-0.0556 0.11517,0 0.3023,0.0127 0.41584,0.0285 0.11355,0.0158 0.276,0.0526 0.36102,0.0819 0.085,0.0292 0.15713,0.0501 0.16026,0.0463 0.003,-0.004 0.0263,-0.0475 0.0516,-0.0972 0.0253,-0.0496 0.0903,-0.13943 0.14461,-0.19951 0.0543,-0.0601 0.13643,-0.12903 0.18256,-0.15323 0.0548,-0.0287 0.14737,-0.0432 0.26695,-0.0417 0.1007,10e-4 0.24798,0.0238 0.32729,0.0501 0.0793,0.0263 0.26694,0.11443 0.41695,0.19586 0.15001,0.0814 0.36053,0.21485 0.46783,0.29651 0.10729,0.0816 0.27922,0.23705 0.38205,0.34533 0.10284,0.10829 0.24377,0.2828 0.31318,0.38781 0.0694,0.105 0.17509,0.2891 0.23484,0.40911 0.0598,0.12001 0.14091,0.31222 0.18035,0.42714 0.0394,0.11493 0.0955,0.3113 0.12459,0.43639 0.0291,0.12509 0.0604,0.30107 0.0696,0.39108 0.009,0.09 0.0233,0.20967 0.0314,0.26592 l 0.0147,0.10228 h 0.14404 c 0.0792,0 0.25304,0.0188 0.38626,0.0418 0.13322,0.023 0.34188,0.072 0.46368,0.10889 0.12181,0.0369 0.35084,0.12056 0.50897,0.1859 0.15812,0.0653 0.39553,0.1907 0.52756,0.27855 0.13204,0.0879 0.32923,0.24442 0.4382,0.34793 0.12799,0.12158 0.22485,0.2427 0.27363,0.34215 0.0666,0.13588 0.0755,0.18491 0.0756,0.41787 0,0.22373 -0.008,0.27564 -0.0562,0.34092 -0.031,0.0424 -0.0985,0.0975 -0.15001,0.12243 -0.0847,0.041 -0.14934,0.0425 -0.66977,0.0154 -0.51323,-0.0267 -0.60826,-0.0248 -0.8711,0.0181 -0.20319,0.0331 -0.40378,0.0905 -0.64444,0.18424 -0.19218,0.0749 -0.34942,0.14289 -0.34942,0.1511 0,0.008 0.0363,0.0562 0.0806,0.10672 0.0443,0.0505 0.0953,0.14081 0.11323,0.20072 0.0247,0.0825 0.0253,0.15347 0.002,0.2924 -0.0241,0.14525 -0.057,0.22237 -0.15796,0.37016 -0.0713,0.10441 -0.19683,0.24 -0.2847,0.30761 -0.0864,0.0665 -0.27928,0.18065 -0.42855,0.25364 -0.14928,0.073 -0.35248,0.15467 -0.45156,0.1815 -0.15871,0.043 -0.18883,0.0621 -0.25318,0.16094 -0.0402,0.0617 -0.11433,0.16333 -0.16479,0.22586 -0.0505,0.0625 -0.0918,0.12058 -0.0918,0.129 0,0.008 0.0496,0.0406 0.11023,0.0715 0.0606,0.0309 0.15669,0.1027 0.21348,0.15949 0.0568,0.0568 0.13001,0.15852 0.16271,0.22608 0.0327,0.0676 0.0758,0.24053 0.0957,0.38437 0.0199,0.14385 0.0276,0.27787 0.0171,0.29782 -0.0105,0.0199 -0.0272,0.10811 -0.037,0.19591 -0.01,0.0878 -0.0528,0.24977 -0.0956,0.35993 -0.0428,0.11016 -0.14567,0.30234 -0.22866,0.42706 -0.083,0.12473 -0.24044,0.31562 -0.34989,0.4242 -0.10945,0.10859 -0.21359,0.19743 -0.23141,0.19743 -0.0178,0 -0.0577,0.0215 -0.0886,0.0477 l -0.0562,0.0477 0.0666,0.34093 c 0.0366,0.18751 0.0667,0.39962 0.0668,0.47135 0,0.0717 -0.0172,0.172 -0.0384,0.22282 -0.0213,0.0508 -0.0634,0.10565 -0.0937,0.12186 -0.0303,0.0162 -0.10189,0.0292 -0.15913,0.0289 -0.0572,-2.3e-4 -0.15641,-0.0244 -0.22038,-0.0534 l -0.1163,-0.0528 -0.0653,0.10338 c -0.0359,0.0568 -0.10416,0.13611 -0.1517,0.17612 -0.0636,0.0535 -0.11669,0.0727 -0.20103,0.0727 -0.063,0 -0.14212,-0.0193 -0.17579,-0.0429 z m 0.351,-0.62404 c 0.0739,-0.1568 0.1357,-0.30101 0.13719,-0.32047 0.002,-0.0195 0.0126,-0.005 0.0246,0.0328 0.012,0.0375 0.0231,0.10582 0.0246,0.15181 0.002,0.0744 0.0186,0.0902 0.14643,0.14319 0.0791,0.0328 0.15882,0.0596 0.17728,0.0596 0.0185,0 0.0333,-0.0154 0.033,-0.0341 -2.3e-4,-0.0188 -0.0292,-0.18811 -0.0643,-0.37634 -0.0351,-0.18824 -0.0777,-0.36842 -0.0949,-0.40039 -0.0171,-0.032 -0.0578,-0.0621 -0.0904,-0.0669 -0.0326,-0.005 -0.0639,-0.0226 -0.0694,-0.0395 -0.006,-0.0169 0.0916,-0.0897 0.21605,-0.16168 0.15438,-0.0893 0.30432,-0.20944 0.47226,-0.37831 0.17173,-0.17268 0.27604,-0.3051 0.34529,-0.43834 0.0546,-0.10501 0.12014,-0.26327 0.14568,-0.35169 0.0339,-0.11747 0.0433,-0.22766 0.0349,-0.40911 -0.008,-0.16661 -0.0278,-0.27977 -0.0607,-0.34381 -0.027,-0.0525 -0.0812,-0.12966 -0.1203,-0.17147 -0.0478,-0.0511 -0.14581,-0.0993 -0.29856,-0.14692 l -0.22741,-0.0709 -0.31882,0.31255 c -0.17535,0.1719 -0.53047,0.47524 -0.78915,0.67409 -0.46707,0.35904 -0.47065,0.3626 -0.51396,0.51159 -0.0427,0.14686 -0.0422,0.15272 0.0216,0.27741 0.0435,0.085 0.12369,0.17174 0.24122,0.26089 0.0968,0.0734 0.17601,0.15321 0.17601,0.17729 0,0.0326 -0.0209,0.0413 -0.0818,0.0341 -0.045,-0.005 -0.11496,-0.0268 -0.15547,-0.0477 -0.0405,-0.021 -0.0794,-0.0381 -0.0864,-0.0381 -0.007,0 -0.0397,0.0436 -0.0726,0.0969 l -0.0599,0.0969 0.1094,0.12975 c 0.0602,0.0714 0.15839,0.20552 0.21825,0.29814 0.0599,0.0926 0.17464,0.31581 0.25507,0.49599 0.0804,0.18018 0.15628,0.32767 0.16858,0.32776 0.0123,9e-5 0.0829,-0.12812 0.15682,-0.28491 z m -1.82245,-0.90789 c 0.11966,-0.0527 0.15683,-0.0828 0.15682,-0.12673 0,-0.0317 -0.0243,-0.2066 -0.054,-0.38865 -0.0297,-0.18205 -0.086,-0.43219 -0.12504,-0.55586 -0.0391,-0.12367 -0.11154,-0.31223 -0.16106,-0.41903 -0.0495,-0.1068 -0.10719,-0.21646 -0.12817,-0.24369 -0.035,-0.0454 -0.0517,-0.0275 -0.20086,0.21474 -0.0895,0.14533 -0.18921,0.28181 -0.22159,0.30329 -0.0324,0.0215 -0.0815,0.0396 -0.1091,0.0403 -0.0276,7.9e-4 -0.1465,-0.008 -0.26419,-0.0193 -0.16927,-0.0163 -0.21883,-0.0127 -0.23721,0.017 -0.0128,0.0207 -0.0147,0.044 -0.004,0.052 0.0105,0.008 0.0736,0.12482 0.14036,0.25982 0.10233,0.207 0.16431,0.28851 0.39548,0.52006 0.15077,0.15103 0.33469,0.31376 0.40872,0.36162 0.09,0.0582 0.15324,0.0815 0.19091,0.0703 0.031,-0.009 0.12691,-0.0478 0.21316,-0.0858 z m 0.45211,-0.60595 c 0.097,-0.0767 0.16206,-0.15978 0.22481,-0.28725 0.0859,-0.17456 0.0884,-0.18926 0.0909,-0.55347 0.001,-0.20578 -0.003,-0.47847 -0.011,-0.60598 -0.008,-0.14255 -0.003,-0.23547 0.0136,-0.24129 0.015,-0.005 0.0432,0.0374 0.0626,0.0947 0.0195,0.0573 0.0485,0.27631 0.0645,0.48676 0.016,0.21045 0.0329,0.3868 0.0375,0.39189 0.005,0.005 0.0922,-0.0399 0.19464,-0.1 0.10241,-0.0601 0.27212,-0.16986 0.37713,-0.24397 0.105,-0.0741 0.30751,-0.23878 0.45002,-0.36594 0.14251,-0.12715 0.34956,-0.33675 0.46012,-0.46577 0.11056,-0.12902 0.29181,-0.35383 0.40278,-0.49957 0.11097,-0.14574 0.19671,-0.27004 0.19052,-0.27622 -0.006,-0.006 -0.0862,0.004 -0.17777,0.0231 -0.12174,0.0251 -0.17464,0.0263 -0.19671,0.004 -0.0221,-0.0221 -0.0129,-0.0412 0.0341,-0.0713 0.0354,-0.0226 0.24225,-0.0915 0.45976,-0.15312 0.26355,-0.0747 0.50864,-0.16738 0.73472,-0.27795 0.26401,-0.12911 0.3711,-0.19853 0.4828,-0.31294 0.0789,-0.0809 0.15468,-0.18736 0.16829,-0.23665 0.0136,-0.0493 0.0191,-0.12816 0.0122,-0.17525 -0.007,-0.0471 -0.0359,-0.1107 -0.0644,-0.14132 -0.0285,-0.0306 -0.10399,-0.0699 -0.16769,-0.0872 -0.0712,-0.0193 -0.19982,-0.0249 -0.33399,-0.0145 -0.12001,0.009 -0.26005,0.0247 -0.31119,0.0342 -0.0803,0.0149 -0.0905,0.0109 -0.075,-0.0296 0.0127,-0.0333 -0.0511,-0.009 -0.22067,0.0826 -0.13125,0.0712 -0.32455,0.18753 -0.42955,0.25854 -0.10501,0.071 -0.32994,0.24695 -0.49986,0.39098 -0.16991,0.14403 -0.31792,0.26187 -0.32889,0.26187 -0.011,0 -0.0426,-0.0166 -0.0703,-0.0368 -0.0352,-0.0258 -0.0542,-0.0831 -0.0631,-0.19092 -0.007,-0.0847 -0.0239,-0.15409 -0.0374,-0.15409 -0.0136,0 -0.0949,0.0353 -0.18073,0.0784 -0.0858,0.0431 -0.19593,0.0871 -0.24468,0.0976 -0.0653,0.0141 -0.0884,0.01 -0.0878,-0.0171 5.3e-4,-0.0199 0.12626,-0.10722 0.27956,-0.19394 0.15332,-0.0867 0.35396,-0.22173 0.44589,-0.30001 0.0919,-0.0783 0.22533,-0.20985 0.29645,-0.29235 0.0711,-0.0825 0.15299,-0.2022 0.18192,-0.26598 0.0361,-0.0796 0.0528,-0.1778 0.0532,-0.3134 7.9e-4,-0.1797 -0.006,-0.20298 -0.071,-0.25905 -0.0427,-0.0367 -0.10687,-0.0614 -0.15875,-0.061 -0.0479,2.3e-4 -0.15462,0.0292 -0.23713,0.0642 -0.0825,0.035 -0.41388,0.18271 -0.7364,0.32835 -0.32251,0.14564 -0.63816,0.27875 -0.70143,0.29579 -0.0633,0.017 -0.12331,0.0227 -0.13341,0.0126 -0.0101,-0.0101 0.009,-0.0409 0.0435,-0.0685 0.0446,-0.0361 0.0567,-0.0663 0.0436,-0.1078 -0.0101,-0.0317 -0.0614,-0.0831 -0.11412,-0.11422 -0.0527,-0.0311 -0.11209,-0.0565 -0.13199,-0.0565 -0.0199,0 -0.18155,0.21172 -0.35922,0.47048 -0.17768,0.25876 -0.45096,0.64231 -0.60729,0.85232 -0.15633,0.21001 -0.38588,0.49843 -0.51011,0.64094 -0.12422,0.14251 -0.34637,0.3771 -0.49366,0.52132 -0.1473,0.14422 -0.34931,0.33011 -0.44892,0.41308 -0.0996,0.083 -0.27757,0.21515 -0.39547,0.29373 -0.1179,0.0786 -0.25426,0.18045 -0.30301,0.22639 -0.0638,0.0601 -0.0886,0.10777 -0.0886,0.16996 0,0.0475 -0.0243,0.11733 -0.054,0.15509 -0.0297,0.0378 -0.0663,0.101 -0.0813,0.14053 -0.0244,0.0642 -0.0155,0.0837 0.0834,0.1826 0.0676,0.0676 0.10467,0.12648 0.0952,0.15116 -0.0109,0.0284 0.022,0.057 0.1107,0.0963 0.0694,0.0307 0.21966,0.0725 0.33387,0.0929 0.11422,0.0204 0.28438,0.0375 0.37813,0.038 0.0938,5.3e-4 0.17046,-0.002 0.17045,-0.006 -1e-5,-0.004 -0.0246,-0.0714 -0.0546,-0.1503 -0.0396,-0.1042 -0.0544,-0.20875 -0.0541,-0.38184 2.3e-4,-0.13109 0.0189,-0.31705 0.0416,-0.41323 0.0226,-0.0962 0.0781,-0.25213 0.12315,-0.34654 0.0451,-0.0944 0.15003,-0.25716 0.23327,-0.36163 0.0832,-0.10448 0.23833,-0.25927 0.34465,-0.34397 0.10632,-0.0847 0.25104,-0.18327 0.32161,-0.21903 0.0706,-0.0358 0.20879,-0.0798 0.30715,-0.098 0.13153,-0.0242 0.22465,-0.0254 0.3519,-0.004 0.0952,0.0158 0.21877,0.0478 0.27469,0.0711 0.0597,0.0249 0.10165,0.0612 0.10165,0.088 0,0.0355 -0.0164,0.0418 -0.075,0.0286 -0.0412,-0.009 -0.14864,-0.0299 -0.23865,-0.0458 -0.09,-0.0159 -0.23115,-0.0217 -0.31365,-0.0129 -0.0924,0.01 -0.22855,0.055 -0.35453,0.11764 -0.15109,0.0751 -0.26571,0.16219 -0.43872,0.33346 -0.188,0.18609 -0.25674,0.27757 -0.34839,0.46366 -0.0736,0.1495 -0.12959,0.31416 -0.15759,0.46366 -0.0269,0.14386 -0.0372,0.29146 -0.0271,0.38899 0.009,0.0864 0.0408,0.20498 0.0706,0.26343 0.0298,0.0584 0.10876,0.16566 0.17543,0.23827 0.0667,0.0726 0.12917,0.12406 0.13888,0.11435 0.01,-0.01 -0.0187,-0.0833 -0.0632,-0.16361 -0.0445,-0.0803 -0.10135,-0.21815 -0.12634,-0.3064 -0.0337,-0.119 -0.0375,-0.16834 -0.0147,-0.19092 0.02,-0.0198 0.14215,-0.028 0.34957,-0.0233 l 0.31881,0.007 0.13389,-0.21171 c 0.0736,-0.11643 0.1632,-0.25834 0.19902,-0.31533 0.0358,-0.057 0.0836,-0.11071 0.10615,-0.11936 0.0228,-0.009 0.0704,0.0119 0.10722,0.0465 0.0364,0.0342 0.12088,0.16805 0.1877,0.29743 0.0668,0.12938 0.15201,0.32693 0.18931,0.43901 0.0373,0.11207 0.0889,0.31116 0.11466,0.44242 0.0258,0.13126 0.0563,0.23865 0.0679,0.23865 0.0116,0 0.0825,-0.0486 0.15763,-0.10792 z m 1.98211,-3.58841 c 0.12001,-0.0925 0.31024,-0.22997 0.42275,-0.30553 0.1125,-0.0756 0.25954,-0.16507 0.32675,-0.1989 0.0672,-0.0338 0.19678,-0.13654 0.28793,-0.22823 0.0911,-0.0917 0.20487,-0.22408 0.25273,-0.29422 0.0478,-0.0701 0.1345,-0.22355 0.19254,-0.34093 0.0581,-0.11737 0.13147,-0.29317 0.16317,-0.39068 0.0317,-0.0975 0.0753,-0.26319 0.0969,-0.3682 0.0216,-0.105 0.0542,-0.35873 0.0725,-0.56384 0.0261,-0.29263 0.0261,-0.43944 2.3e-4,-0.68186 -0.0182,-0.16991 -0.0558,-0.41938 -0.0835,-0.55439 -0.0277,-0.13501 -0.0836,-0.33752 -0.12413,-0.45003 -0.0405,-0.1125 -0.1168,-0.29046 -0.16945,-0.39547 -0.0527,-0.105 -0.14528,-0.26456 -0.20582,-0.35456 -0.0605,-0.09 -0.20923,-0.26602 -0.3304,-0.39115 -0.12119,-0.12513 -0.32569,-0.29813 -0.45447,-0.38445 -0.12877,-0.0863 -0.30138,-0.18983 -0.38356,-0.23004 -0.0822,-0.0402 -0.22401,-0.087 -0.31517,-0.10393 -0.1479,-0.0275 -0.17536,-0.0252 -0.25501,0.0213 -0.0545,0.0318 -0.12425,0.11591 -0.17896,0.21563 -0.0493,0.0899 -0.14371,0.35374 -0.20973,0.58625 -0.066,0.23251 -0.12835,0.50866 -0.13853,0.61367 -0.0158,0.16325 -0.009,0.22006 0.05,0.39201 0.0377,0.1106 0.094,0.29194 0.1252,0.40298 0.0312,0.11104 0.049,0.22591 0.0397,0.25527 -0.0117,0.0368 -0.0692,0.0688 -0.18571,0.10307 l -0.16878,0.0497 -0.0323,0.35308 c -0.0178,0.19419 -0.0502,0.4083 -0.0722,0.47581 -0.0219,0.0675 -0.0719,0.20721 -0.11103,0.31045 l -0.0712,0.18772 0.22515,0.21071 c 0.12383,0.1159 0.30367,0.31678 0.39964,0.44641 0.096,0.12963 0.18596,0.23569 0.19998,0.23569 0.014,0 0.11347,-0.0399 0.22099,-0.0886 0.16649,-0.0755 0.22676,-0.0886 0.40625,-0.0886 0.19184,0 0.21727,0.007 0.28333,0.0726 0.0529,0.0529 0.0761,0.10886 0.0854,0.20632 0.007,0.0736 -0.002,0.20314 -0.0192,0.28797 -0.0176,0.0848 -0.0699,0.23005 -0.11621,0.32271 -0.0517,0.10341 -0.17318,0.26239 -0.31463,0.41163 -0.18441,0.19459 -0.22724,0.25509 -0.21444,0.30284 0.009,0.0328 0.0162,0.0819 0.0164,0.10902 2.3e-4,0.032 0.0124,0.0422 0.0345,0.0292 0.0188,-0.0111 0.13228,-0.0958 0.25228,-0.1883 z m -0.70913,-3.17966 c -0.09,-0.0608 -0.1974,-0.14253 -0.23865,-0.18164 -0.0413,-0.0391 -0.075,-0.086 -0.075,-0.10421 0,-0.0182 0.0608,-0.0477 0.13502,-0.0655 0.0743,-0.0178 0.14729,-0.0472 0.16228,-0.0652 0.015,-0.0181 0.0347,-0.24712 0.0438,-0.50899 0.009,-0.26188 0.0233,-0.49906 0.0315,-0.52708 0.0124,-0.0424 0.0335,-0.0484 0.12601,-0.036 0.0631,0.008 0.37129,0.14486 0.71308,0.31556 0.3311,0.16537 0.67155,0.3454 0.75657,0.40008 0.11871,0.0764 0.19146,0.10257 0.31365,0.11297 0.0875,0.007 0.16881,0.0227 0.18069,0.034 0.0119,0.0112 0.006,0.0336 -0.0137,0.0497 -0.0194,0.0161 -0.35437,0.14517 -0.74438,0.28681 -0.39,0.14165 -0.81955,0.28997 -0.95456,0.32959 -0.13501,0.0396 -0.2516,0.0717 -0.2591,0.0713 -0.008,-5.3e-4 -0.0873,-0.0505 -0.17728,-0.11127 z m 1.44795,-1.41743 c -0.0388,-0.0461 -0.072,-0.11059 -0.0736,-0.14319 -0.002,-0.0326 -8e-4,-0.09 0.002,-0.12746 0.003,-0.0375 0.0163,-0.11257 0.0304,-0.16681 0.014,-0.0542 0.0578,-0.13095 0.0973,-0.17047 0.0489,-0.0489 0.10089,-0.0718 0.16294,-0.0718 0.069,0 0.10287,0.018 0.13947,0.0738 0.0353,0.0539 0.0479,0.12574 0.0466,0.26592 -0.001,0.12505 -0.0179,0.22274 -0.048,0.27991 -0.0254,0.0483 -0.0699,0.10048 -0.0987,0.11592 -0.0289,0.0154 -0.0829,0.0281 -0.12003,0.0281 -0.042,0 -0.0943,-0.0318 -0.13816,-0.0839 z m 1.4828,3.42655 c 0.17579,-0.0658 0.46583,-0.15395 0.64454,-0.19598 0.2964,-0.0697 0.37157,-0.0765 0.85675,-0.0774 0.29252,-5.3e-4 0.62697,0.0101 0.74323,0.0235 l 0.21137,0.0244 -8e-4,-0.16083 c -2.3e-4,-0.0966 -0.0205,-0.20438 -0.0505,-0.26993 -0.0274,-0.06 -0.10386,-0.16288 -0.16986,-0.22862 -0.066,-0.0657 -0.19205,-0.16845 -0.2801,-0.22825 -0.0881,-0.0598 -0.28443,-0.16763 -0.43639,-0.23962 -0.15196,-0.072 -0.40637,-0.17491 -0.56536,-0.2287 -0.15899,-0.0538 -0.41673,-0.11815 -0.57276,-0.14302 -0.15603,-0.0249 -0.36346,-0.0463 -0.46097,-0.0476 l -0.17728,-0.002 -0.0203,0.24547 c -0.0112,0.135 -0.0306,0.32271 -0.0432,0.41712 -0.0202,0.15115 -0.0177,0.16965 0.0203,0.15487 0.0238,-0.009 0.14756,-0.0417 0.27506,-0.0722 0.18947,-0.0453 0.29164,-0.0531 0.55912,-0.0423 0.21234,0.009 0.37331,0.0297 0.45832,0.0605 0.0721,0.026 0.12711,0.0513 0.12231,0.0561 -0.005,0.005 -0.10672,-0.004 -0.22649,-0.0193 -0.11977,-0.0154 -0.32089,-0.0205 -0.44693,-0.0113 -0.12603,0.009 -0.32768,0.0418 -0.44809,0.0726 -0.12042,0.0307 -0.25142,0.0727 -0.29112,0.0932 -0.061,0.0315 -0.0831,0.0787 -0.14273,0.305 -0.0388,0.14723 -0.10758,0.34746 -0.15283,0.44497 -0.0452,0.0975 -0.11401,0.22861 -0.15282,0.29135 l -0.0706,0.11407 0.24914,-0.10806 c 0.13702,-0.0594 0.39296,-0.16186 0.56875,-0.22762 z m -3.35308,0.0664 c 0.17978,-0.0901 0.32687,-0.17754 0.32687,-0.19428 0,-0.0167 -0.0576,-0.11108 -0.12792,-0.20968 -0.0704,-0.0986 -0.22152,-0.27198 -0.33594,-0.3853 -0.11441,-0.11332 -0.30246,-0.27131 -0.41789,-0.35109 -0.11543,-0.0798 -0.29257,-0.18274 -0.39364,-0.22882 -0.10108,-0.0461 -0.34333,-0.12522 -0.53834,-0.17589 l -0.35456,-0.0921 0.23183,0.0138 c 0.1275,0.008 0.29951,0.0314 0.38224,0.053 0.0827,0.0216 0.21847,0.0647 0.30165,0.0958 0.0832,0.0311 0.22201,0.0992 0.30849,0.15127 l 0.15723,0.0947 0.0787,-0.17356 c 0.0433,-0.0955 0.0909,-0.24908 0.10573,-0.34138 0.0149,-0.0923 0.0195,-0.18739 0.0103,-0.2113 -0.009,-0.0239 -0.11598,-0.0893 -0.23733,-0.14538 -0.12135,-0.056 -0.33724,-0.13921 -0.47975,-0.18482 -0.1425,-0.0456 -0.36342,-0.10333 -0.49093,-0.12827 -0.12751,-0.0249 -0.38924,-0.0523 -0.58162,-0.0609 -0.23025,-0.0102 -0.41667,-0.004 -0.54548,0.0193 -0.10763,0.0192 -0.28775,0.0655 -0.40025,0.10299 -0.11251,0.0375 -0.32115,0.12657 -0.46366,0.19791 -0.14251,0.0713 -0.2883,0.15337 -0.32398,0.18229 l -0.0649,0.0526 0.0619,0.28459 c 0.0341,0.15652 0.084,0.33609 0.11097,0.39903 0.0426,0.0995 0.0626,0.11653 0.15296,0.13042 0.0572,0.009 0.24425,0.0408 0.41578,0.0712 0.17152,0.0304 0.44483,0.0982 0.60734,0.15073 0.16252,0.0525 0.41308,0.14447 0.55681,0.20429 0.14373,0.0598 0.44113,0.19914 0.6609,0.3096 0.21976,0.11047 0.51617,0.27514 0.65867,0.36593 0.14251,0.0908 0.2685,0.16557 0.27999,0.16617 0.0115,7.9e-4 0.16796,-0.0727 0.34774,-0.16278 z m -0.19134,-2.3554 c 0,-0.0952 0.015,-0.18947 0.0341,-0.21353 0.0188,-0.0237 0.0985,-0.0579 0.17729,-0.0761 0.0935,-0.0216 0.14319,-0.0471 0.14319,-0.0735 0,-0.0223 -0.0241,-0.13456 -0.0535,-0.24957 -0.0294,-0.115 -0.0785,-0.28159 -0.1091,-0.37019 -0.0306,-0.0886 -0.0554,-0.22361 -0.0553,-0.30002 2.3e-4,-0.0764 0.0321,-0.26165 0.0709,-0.41166 0.0388,-0.15001 0.0841,-0.3265 0.10055,-0.39221 0.0277,-0.11036 0.0252,-0.12333 -0.0327,-0.1702 -0.0345,-0.0279 -0.14286,-0.0755 -0.2409,-0.10579 -0.098,-0.0303 -0.27769,-0.0662 -0.39922,-0.0798 -0.12154,-0.0136 -0.29478,-0.0194 -0.38499,-0.0128 -0.0902,0.007 -0.24962,0.0374 -0.35425,0.0685 -0.10463,0.0311 -0.24995,0.0869 -0.32293,0.12386 -0.073,0.037 -0.18683,0.11713 -0.25298,0.1781 -0.0662,0.061 -0.12023,0.11851 -0.1202,0.12785 0,0.009 0.10325,0.0174 0.22934,0.0179 0.21147,7.9e-4 0.24549,0.009 0.4382,0.10697 0.15129,0.0768 0.25249,0.15358 0.3668,0.27833 0.0868,0.0948 0.19601,0.24978 0.24264,0.3445 0.0466,0.0947 0.10409,0.25134 0.12768,0.34805 0.0236,0.0967 0.0504,0.34612 0.0597,0.55424 l 0.0168,0.37841 0.139,0.0617 c 0.0765,0.034 0.14822,0.0563 0.15947,0.0496 0.0112,-0.007 0.0204,-0.0889 0.0204,-0.18265 z m -1.40747,-1.46395 c 0.25634,-0.0853 0.33639,-0.12271 0.3251,-0.15214 -0.008,-0.0215 -0.0718,-0.0725 -0.14134,-0.11332 -0.11415,-0.0671 -0.15198,-0.0743 -0.39159,-0.0743 -0.2501,0 -0.26934,0.004 -0.3371,0.0718 -0.0494,0.0493 -0.0763,0.11076 -0.0859,0.19647 -0.008,0.0686 -0.006,0.14534 0.004,0.17058 0.0145,0.0377 0.0418,0.0431 0.15241,0.03 0.0741,-0.009 0.28782,-0.0669 0.47487,-0.12905 z"
       id="path10-8" />
  </g>
</svg>
