<?xml version="1.0" encoding="UTF-8" standalone="no"?>
<!-- Created with Inkscape (http://www.inkscape.org/) -->

<svg
   width="11.581598mm"
   height="13.100595mm"
   viewBox="0 0 11.581598 13.100595"
   version="1.1"
   id="svg1"
   inkscape:version="1.4.2 (ebf0e940d0, 2025-05-08)"
   sodipodi:docname="pg.svg"
   xmlns:inkscape="http://www.inkscape.org/namespaces/inkscape"
   xmlns:sodipodi="http://sodipodi.sourceforge.net/DTD/sodipodi-0.dtd"
   xmlns="http://www.w3.org/2000/svg"
   xmlns:svg="http://www.w3.org/2000/svg">
  <sodipodi:namedview
     id="namedview1"
     pagecolor="#ffffff"
     bordercolor="#000000"
     borderopacity="0.25"
     inkscape:showpageshadow="2"
     inkscape:pageopacity="0.0"
     inkscape:pagecheckerboard="0"
     inkscape:deskcolor="#d1d1d1"
     inkscape:document-units="mm"
     inkscape:zoom="0.80711279"
     inkscape:cx="125.7569"
     inkscape:cy="-201.95442"
     inkscape:window-width="1854"
     inkscape:window-height="1131"
     inkscape:window-x="0"
     inkscape:window-y="0"
     inkscape:window-maximized="1"
     inkscape:current-layer="layer1" />
  <defs
     id="defs1" />
  <g
     inkscape:label="Layer 1"
     inkscape:groupmode="layer"
     id="layer1"
     transform="translate(-71.702086,-201.87728)">
    <path
       style="fill:#000000;stroke-width:0.014888"
       d="m 73.484928,214.97058 c -0.02755,-0.0287 -0.0096,-0.12301 0.03684,-0.19395 0.133861,-0.20431 0.664501,-0.67554 1.085102,-0.96361 0.326419,-0.22355 0.533156,-0.34304 0.932325,-0.53891 0.06675,-0.0328 0.121761,-0.0638 0.12224,-0.069 5.29e-4,-0.005 -0.0477,-0.0485 -0.107071,-0.0962 -0.05936,-0.0477 -0.125688,-0.10535 -0.147386,-0.12819 l -0.03945,-0.0415 -0.109432,0.0517 c -0.292296,0.13819 -0.769773,0.1977 -1.260565,0.1571 -0.220628,-0.0183 -0.542576,-0.0941 -0.822071,-0.19363 -0.471638,-0.16799 -0.846883,-0.41365 -1.320771,-0.86467 -0.126767,-0.12065 -0.152603,-0.15273 -0.152603,-0.1895 0,-0.0917 0.05134,-0.094 0.230767,-0.0102 0.05732,0.0268 0.167859,0.0678 0.245652,0.0911 0.133794,0.0402 0.155509,0.0424 0.401973,0.0405 0.391846,-0.003 0.680805,-0.0658 0.990055,-0.21544 0.117504,-0.0568 0.182534,-0.0978 0.170125,-0.10721 -0.0035,-0.003 -0.05995,-0.0374 -0.12546,-0.0772 -0.203187,-0.12349 -0.230765,-0.14969 -0.230765,-0.21923 v -0.0602 l 0.11538,0.01 c 0.268197,0.0225 0.654867,-0.0978 0.919337,-0.28617 0.07826,-0.0557 0.30843,-0.27229 0.299209,-0.28151 -0.003,-0.003 -0.06813,0.0123 -0.144846,0.0341 -0.169852,0.0481 -0.439534,0.0685 -0.460817,0.0349 -0.03069,-0.0485 -0.01437,-0.0971 0.04964,-0.14799 0.25069,-0.19919 0.49806,-0.64031 0.608298,-1.08478 0.05396,-0.21757 0.05523,-0.27389 0.0051,-0.22618 -0.0217,0.0206 -0.295018,0.16042 -0.453342,0.23185 -0.357846,0.16144 -0.918422,0.30455 -1.195578,0.30526 h -0.1162 l 0.0046,-0.0692 c 0.0033,-0.0503 0.01257,-0.0737 0.03383,-0.0856 0.08249,-0.0462 0.262456,-0.16183 0.329089,-0.21143 0.159515,-0.11872 0.468233,-0.59234 0.610425,-0.93646 0.101984,-0.24683 0.199898,-0.65923 0.199898,-0.84196 0,-0.10394 -0.0011,-0.10662 -0.0335,-0.0968 -0.319635,0.0966 -0.946973,0.12565 -1.291537,0.0598 -0.341146,-0.0652 -0.71719,-0.21047 -0.867227,-0.33492 -0.04913,-0.0408 -0.05583,-0.0542 -0.05583,-0.11222 0,-0.0658 1.19e-4,-0.0659 0.05368,-0.0659 0.130654,0 0.356124,-0.0867 0.550371,-0.2116 0.105108,-0.0676 0.35116,-0.26737 0.393446,-0.31946 0.01228,-0.0151 0.05554,-0.0666 0.09613,-0.11448 l 0.0738,-0.087 -0.0042,-0.17485 c -0.0033,-0.13654 0.0026,-0.20347 0.02681,-0.3054 0.03123,-0.13148 0.124606,-0.33307 0.190622,-0.41154 l 0.03517,-0.0418 -0.04617,-0.1378 c -0.0254,-0.0758 -0.05255,-0.18832 -0.06036,-0.25006 -0.02582,-0.20424 -0.02368,-0.19952 -0.125818,-0.27669 -0.176784,-0.13353 -0.403042,-0.38576 -0.569251,-0.63459 -0.106794,-0.15988 -0.122946,-0.19537 -0.122946,-0.27017 0,-0.0647 0.0011,-0.0661 0.07072,-0.0927 0.03889,-0.0149 0.154462,-0.0683 0.256818,-0.11887 0.102354,-0.0506 0.243049,-0.11705 0.31265,-0.14777 0.0696,-0.0307 0.220946,-0.10172 0.336328,-0.15781 0.205891,-0.10012 0.211151,-0.10388 0.283898,-0.20359 0.04077,-0.0559 0.113321,-0.1478 0.161235,-0.20429 l 0.08711,-0.10268 -0.02721,-0.0459 c -0.06766,-0.11397 -0.183346,-0.33212 -0.193689,-0.36523 -0.0063,-0.0201 -0.03732,-0.0857 -0.069,-0.14587 -0.06272,-0.11908 -0.07405,-0.19315 -0.03154,-0.20619 0.01431,-0.004 0.07295,-0.0277 0.13027,-0.0517 0.421159,-0.17638 1.061503,-0.28173 1.713066,-0.28181 0.345535,-2e-5 0.515932,0.0175 0.862317,0.0888 0.191175,0.0393 0.455374,0.11407 0.575413,0.16279 0.01939,0.008 0.08549,0.0325 0.146899,0.0547 0.532683,0.19282 1.173393,0.55308 1.607976,0.90413 0.15743,0.12718 0.52101,0.48764 0.52101,0.51656 0,0.0104 0.04656,0.0123 0.140631,0.006 0.132916,-0.009 0.145148,-0.008 0.222938,0.0304 0.118804,0.0581 0.193977,0.15301 0.263398,0.33244 0.02777,0.0718 0.05763,0.34754 0.05776,0.53339 1.19e-4,0.17668 -0.02678,0.41068 -0.06576,0.57209 -0.03783,0.15662 -0.06564,0.30606 -0.08311,0.44664 -0.0367,0.29515 -0.118226,0.68393 -0.172426,0.82223 -0.01852,0.0473 -0.0313,0.0859 -0.02841,0.0859 0.0029,0 0.06115,-0.0553 0.129443,-0.12283 0.184311,-0.18232 0.364648,-0.27761 0.527303,-0.27866 0.101471,0 0.14573,0.0344 0.169752,0.13457 0.04625,0.19279 -0.06438,0.43086 -0.264745,0.5697 -0.04866,0.0337 -0.06257,0.0555 -0.08346,0.13061 -0.0453,0.16292 -0.126955,0.30046 -0.273129,0.46006 l -0.07516,0.0821 0.05168,0.037 c 0.02842,0.0204 0.07286,0.0543 0.09874,0.0754 0.02588,0.0211 0.07794,0.0593 0.115689,0.0849 l 0.06862,0.0465 0.03755,-0.0402 c 0.0342,-0.0366 0.0382,-0.0548 0.04496,-0.20399 0.01238,-0.27384 0.12215,-0.52617 0.298966,-0.68734 0.130791,-0.11921 0.198318,-0.14497 0.382008,-0.14574 h 0.156324 l 0.05105,-0.10397 c 0.03975,-0.081 0.08753,-0.14061 0.215876,-0.26953 0.14033,-0.14095 0.17811,-0.17048 0.254159,-0.1987 0.134472,-0.0499 0.230793,-0.064 0.312314,-0.0457 0.216014,0.0484 0.33464,0.16319 0.377042,0.36483 0.01752,0.0834 0.0013,0.40717 -0.02349,0.46898 -0.03887,0.0968 -0.09752,0.21415 -0.159113,0.31835 -0.03715,0.0628 -0.06755,0.11792 -0.06755,0.12241 0,0.004 0.02426,-0.0242 0.0539,-0.0637 0.137773,-0.18368 0.337573,-0.33335 0.563956,-0.42244 0.167929,-0.0661 0.501986,-0.0959 0.586214,-0.0524 0.05951,0.0308 0.149182,0.13516 0.184721,0.21502 0.03803,0.0855 0.05116,0.27298 0.02674,0.3821 -0.0098,0.0436 -0.04433,0.1204 -0.07683,0.17068 -0.06161,0.0953 -0.234252,0.27525 -0.318392,0.33185 -0.02684,0.0181 -0.08948,0.0613 -0.139205,0.0961 -0.04973,0.0348 -0.138944,0.0876 -0.19826,0.1174 l -0.107853,0.0541 0.06627,0.0337 c 0.09011,0.0458 0.145315,0.10362 0.188778,0.19773 0.03364,0.0729 0.03608,0.093 0.03068,0.2531 -0.0047,0.14058 -0.01191,0.18544 -0.03735,0.23388 -0.03547,0.0675 -0.161401,0.19169 -0.210036,0.20712 -0.02873,0.009 -0.03192,0.0204 -0.03091,0.10976 7.94e-4,0.0632 -0.01048,0.1362 -0.03059,0.19971 -0.03576,0.1129 -0.07043,0.14721 -0.217619,0.21536 -0.08518,0.0394 -0.09794,0.041 -0.334214,0.0414 -0.235948,0 -0.249026,-0.002 -0.331044,-0.0396 -0.04696,-0.022 -0.109117,-0.0581 -0.138118,-0.0802 -0.029,-0.0221 -0.05491,-0.0376 -0.05757,-0.0344 -0.0027,0.003 -0.01281,0.0383 -0.02254,0.0781 -0.0531,0.21694 -0.261898,0.50019 -0.449159,0.60928 -0.150003,0.0874 -0.230561,0.10747 -0.430813,0.10738 -0.158935,-1.5e-4 -0.199141,-0.005 -0.275429,-0.0346 -0.126989,-0.0491 -0.176681,-0.0821 -0.32241,-0.21402 -0.116578,-0.10553 -0.310333,-0.33686 -0.310333,-0.37048 0,-0.007 -0.02847,-0.0136 -0.06327,-0.0138 -0.0348,0 -0.108273,-0.0156 -0.163269,-0.0345 l -0.1,-0.0341 -0.0091,0.068 c -0.03598,0.26765 -0.174646,0.55212 -0.382347,0.78439 -0.07796,0.0872 -0.08265,0.0972 -0.108318,0.23076 -0.02577,0.13408 -0.11345,0.48309 -0.220255,0.8766 -0.07538,0.27772 -0.07361,0.26798 -0.04874,0.26798 0.03099,0 0.474792,0.1531 0.581702,0.20066 0.146318,0.0651 0.43928,0.21424 0.485469,0.24712 0.06052,0.0431 0.06523,0.0822 0.02888,0.24002 -0.0312,0.13544 -0.131069,0.45985 -0.17091,0.55521 l -0.02003,0.048 0.08395,0.0502 c 0.306715,0.18345 0.653954,0.45061 1.004522,0.7729 0.110151,0.10127 0.453247,0.48258 0.541631,0.60196 0.03596,0.0486 0.08884,0.13024 0.117515,0.18152 0.04447,0.0795 0.05147,0.10485 0.04761,0.17223 l -0.0045,0.079 -0.267984,0.0149 c -0.279924,0.0155 -2.311625,0.0151 -2.972686,0 l -0.382172,-0.009 -0.0049,0.0347 c -0.004,0.0285 -0.01696,0.0367 -0.07191,0.0456 -0.09228,0.0149 -3.920278,0.0326 -3.934158,0.0181 z m 2.993009,-0.0887 c 0.477261,-0.003 0.874213,-0.0102 0.882119,-0.0151 0.0079,-0.005 0.01437,-0.0549 0.01437,-0.11114 0,-0.0562 0.0063,-0.15133 0.01408,-0.21128 0.0077,-0.06 0.01823,-0.17266 0.02334,-0.25045 0.01474,-0.22506 0.06959,-0.65533 0.155662,-1.22083 0.04252,-0.27935 0.07147,-0.49592 0.08955,-0.66995 0.0089,-0.086 0.02331,-0.20992 0.03198,-0.27544 0.0087,-0.0655 0.01344,-0.15241 0.01061,-0.19313 -0.0051,-0.0733 -0.006,-0.0745 -0.087,-0.11569 -0.09247,-0.047 -0.261593,-0.0676 -0.406667,-0.0495 l -0.08399,0.0104 -0.0301,0.10106 c -0.01656,0.0556 -0.0301,0.10431 -0.0301,0.10827 0,0.004 0.03947,0.0192 0.0877,0.0338 0.04823,0.0145 0.10682,0.0418 0.130191,0.0604 0.04137,0.033 0.04178,0.0347 0.01545,0.0638 -0.06665,0.0736 -0.372382,0.15689 -0.962858,0.26219 -0.194181,0.0346 -0.374388,0.0324 -0.44509,-0.005 -0.04114,-0.022 -0.04011,-0.0769 0.0021,-0.11599 0.08198,-0.0759 0.36112,-0.1856 0.617948,-0.24285 l 0.152696,-0.0341 0.01458,-0.0542 c 0.008,-0.0298 0.01894,-0.0759 0.02426,-0.10252 0.0092,-0.0461 0.0078,-0.048 -0.02957,-0.0401 -0.02159,0.004 -0.05766,0.0118 -0.08018,0.0162 -0.08087,0.0158 -0.25169,0.0714 -0.375923,0.12226 -0.178575,0.0731 -0.542329,0.25689 -0.668136,0.33753 -0.154633,0.0991 -0.330039,0.23127 -0.339421,0.25571 -0.02162,0.0564 0.270037,0.35983 0.575511,0.59881 0.108948,0.0852 0.294172,0.17506 0.432046,0.20953 0.07573,0.0189 0.11321,0.0357 0.116475,0.052 0.0035,0.0177 -0.0065,0.0241 -0.03763,0.0241 -0.06316,0 -0.26737,-0.0699 -0.369293,-0.12647 -0.07949,-0.0441 -0.09343,-0.0475 -0.125081,-0.0306 -0.02283,0.0123 -0.02867,0.0214 -0.01625,0.0255 0.01868,0.006 0.03092,0.0376 0.141558,0.36227 0.0279,0.0819 0.0744,0.21588 0.103343,0.29778 0.05591,0.15818 0.06438,0.21796 0.03427,0.24194 -0.0343,0.0273 -0.297791,0.12456 -0.317275,0.11709 -0.01058,-0.004 -0.03246,-0.0363 -0.04861,-0.0716 -0.01614,-0.0353 -0.08531,-0.1819 -0.153689,-0.32581 -0.06839,-0.14391 -0.133339,-0.28309 -0.144343,-0.30927 -0.01101,-0.0262 -0.03985,-0.0579 -0.06411,-0.0704 -0.04239,-0.0219 -0.04796,-0.0207 -0.143759,0.032 -0.112435,0.0618 -0.221319,0.12692 -0.305655,0.18281 -0.05118,0.0339 -0.05406,0.039 -0.0277,0.0487 0.01667,0.006 0.03918,0.0387 0.05197,0.0753 0.04831,0.13786 0.08904,0.26172 0.114618,0.34861 0.01468,0.0499 0.03649,0.1102 0.04846,0.134 0.01196,0.0238 0.02979,0.0762 0.03962,0.11636 0.01439,0.0589 0.01408,0.0768 -0.0016,0.0918 -0.02914,0.0281 -0.307266,0.14302 -0.332928,0.13758 -0.02064,-0.004 -0.173722,-0.31141 -0.250483,-0.50237 -0.02715,-0.0675 -0.04147,-0.0847 -0.07966,-0.0957 -0.0413,-0.0117 -0.05467,-0.007 -0.118322,0.0432 -0.03947,0.0311 -0.08184,0.0671 -0.09414,0.08 -0.0123,0.0129 -0.04873,0.0432 -0.08094,0.0673 -0.140706,0.10529 -0.559195,0.53636 -0.559195,0.57601 0,0.007 0.389607,0.0123 0.865791,0.0125 0.476187,0 0.869786,0.004 0.874673,0.009 0.0049,0.005 0.06918,0.005 0.142872,0 0.0737,-0.005 0.524478,-0.0123 1.001737,-0.0156 z m 4.290955,-0.0867 c 0.12692,-0.007 0.239323,-0.0151 0.249782,-0.0183 0.04721,-0.0149 -0.108249,-0.24633 -0.357322,-0.53203 l -0.174535,-0.20022 -0.07818,-0.007 c -0.043,-0.004 -0.10337,-0.004 -0.134159,0 -0.06014,0.008 -0.09575,0.0415 -0.272323,0.25536 -0.04913,0.0595 -0.101637,0.12269 -0.116678,0.14041 -0.01503,0.0177 -0.05779,0.078 -0.095,0.13391 -0.03721,0.0559 -0.0762,0.10499 -0.08664,0.109 -0.01926,0.007 -0.114226,-0.0464 -0.174739,-0.0989 -0.01823,-0.0159 -0.04622,-0.0383 -0.06221,-0.05 -0.02885,-0.0211 -0.02885,-0.0217 0,-0.0862 0.06672,-0.14904 0.337008,-0.47237 0.520116,-0.62217 0.05937,-0.0486 0.0861,-0.0607 0.13399,-0.0607 h 0.05983 l -0.06616,-0.0571 c -0.06866,-0.0592 -0.122629,-0.0725 -0.397126,-0.0978 l -0.0762,-0.007 -0.191789,0.22484 c -0.105481,0.12366 -0.249081,0.28572 -0.319108,0.36011 -0.07003,0.0744 -0.138565,0.15162 -0.15231,0.17163 -0.02445,0.0356 -0.02604,0.0359 -0.07367,0.0117 -0.07712,-0.0391 -0.212014,-0.1197 -0.256882,-0.15347 -0.05092,-0.0383 -0.04743,-0.0515 0.05835,-0.21996 0.142843,-0.22752 0.539498,-0.70386 0.598434,-0.71865 0.03295,-0.008 0.153866,0.002 0.243713,0.0188 0.03644,0.007 0.0366,0.007 0.0075,-0.0168 -0.03432,-0.0277 -0.297739,-0.18641 -0.309449,-0.18641 -0.0043,0 -0.02548,0.0301 -0.04708,0.067 -0.02159,0.0368 -0.04528,0.067 -0.05265,0.067 -0.03265,0 -0.02885,-0.0358 0.01151,-0.1081 0.0795,-0.14254 0.209965,-0.51243 0.263165,-0.74615 0.02188,-0.0962 0.02172,-0.10364 -0.003,-0.12275 -0.04588,-0.0355 -0.425706,-0.22538 -0.533273,-0.26657 -0.167912,-0.0643 -0.495871,-0.17078 -0.525952,-0.17078 -0.01842,0 -0.03062,0.0138 -0.03609,0.0409 -0.0046,0.0225 -0.01249,0.0519 -0.01767,0.0652 -0.0075,0.0193 0.0099,0.0305 0.08456,0.0546 0.236183,0.0761 0.639135,0.24414 0.693269,0.28905 0.01627,0.0134 0.0164,0.0188 5.29e-4,0.0288 -0.02712,0.0171 -0.299185,0.0154 -0.406403,-0.002 -0.04913,-0.008 -0.122827,-0.0183 -0.163769,-0.0222 -0.167626,-0.0162 -0.396089,-0.0683 -0.531479,-0.1213 -0.0996,-0.039 -0.189187,-0.10598 -0.200152,-0.14965 -0.0131,-0.0522 0.03721,-0.0936 0.113692,-0.0936 0.04566,0 0.05785,-0.006 0.06514,-0.0335 0.02275,-0.0849 0.02167,-0.0856 -0.142418,-0.0856 h -0.151799 l 0.04758,0.0491 c 0.03134,0.0323 0.04758,0.0639 0.04758,0.0923 0,0.13028 -0.08736,0.83276 -0.191624,1.5409 -0.07209,0.48959 -0.147326,1.27491 -0.124347,1.29788 0.01304,0.013 0.338376,0.0359 0.650952,0.0457 0.29832,0.009 2.466205,0.002 2.6724,-0.009 z m -1.987553,-1.50893 c -0.193638,-0.0272 -0.513503,-0.0984 -0.729512,-0.16242 -0.09995,-0.0296 -0.314515,-0.14381 -0.305205,-0.16244 0.01106,-0.0221 0.05265,-0.0121 0.115877,0.0277 0.06696,0.0423 0.243314,0.10759 0.367896,0.13626 0.04918,0.0113 0.129616,0.0309 0.178744,0.0434 0.124151,0.0318 0.3991,0.0719 0.506193,0.0738 0.06876,0.002 0.08933,0.007 0.08933,0.024 0,0.0171 -0.02064,0.0228 -0.08933,0.0241 -0.04913,0.002 -0.109426,-0.002 -0.133993,-0.004 z m -3.777832,1.27533 c 0.0348,-0.0153 0.06323,-0.0332 0.06317,-0.0399 -5.8e-5,-0.006 -0.0377,-0.11919 -0.08366,-0.25021 -0.04595,-0.131 -0.09416,-0.27504 -0.107124,-0.32009 -0.01296,-0.045 -0.03059,-0.0868 -0.03917,-0.0928 -0.04135,-0.029 -0.102504,-0.008 -0.223096,0.0781 -0.141346,0.10045 -0.152951,0.11267 -0.116126,0.1223 0.01595,0.004 0.04234,0.0492 0.06865,0.11709 0.02352,0.0607 0.08334,0.19179 0.132959,0.29138 l 0.09022,0.1811 0.07545,-0.0296 c 0.0415,-0.0162 0.103923,-0.0421 0.138726,-0.0574 z m 4.745556,-0.0334 c 0.07669,-0.11843 0.41501,-0.52531 0.446966,-0.53757 0.01344,-0.005 0.0688,-0.009 0.123018,-0.009 h 0.09858 l -0.05885,-0.0608 c -0.07026,-0.0726 -0.116866,-0.0988 -0.198612,-0.11189 -0.05552,-0.009 -0.06735,-0.005 -0.131514,0.048 -0.104696,0.0857 -0.223628,0.20755 -0.325194,0.33315 -0.09516,0.1177 -0.208222,0.29453 -0.196075,0.30668 0.02037,0.0204 0.166373,0.12498 0.173659,0.12442 0.0047,0 0.03527,-0.042 0.06803,-0.0926 z m -0.71941,-0.3199 c 0.102296,-0.10424 0.492644,-0.55628 0.546701,-0.63313 0.01934,-0.0275 0.03167,-0.0289 0.171212,-0.0194 0.08271,0.006 0.166936,0.0143 0.187174,0.0193 0.03323,0.008 0.03179,0.005 -0.0149,-0.0349 -0.02843,-0.0242 -0.06601,-0.0538 -0.08351,-0.0657 -0.01752,-0.0119 -0.05647,-0.0413 -0.08659,-0.0652 -0.06321,-0.0502 -0.199493,-0.082 -0.350554,-0.0819 h -0.09677 l -0.114916,0.12966 c -0.178073,0.20094 -0.375476,0.46015 -0.449485,0.5902 l -0.0672,0.11811 0.03245,0.0233 c 0.05519,0.0397 0.196347,0.11919 0.212461,0.11965 0.0084,0 0.05967,-0.0448 0.113921,-0.10004 z m -3.06587,-0.025 c 0.08057,-0.0343 0.08119,-0.03 -0.06133,-0.4328 -0.08491,-0.23999 -0.138194,-0.37908 -0.155421,-0.4057 -0.02138,-0.0331 -0.07164,-0.0201 -0.229661,0.059 -0.129718,0.065 -0.151088,0.0804 -0.131247,0.0949 0.01304,0.01 0.04961,0.0768 0.08127,0.14945 0.07588,0.17414 0.268058,0.57395 0.286822,0.59668 0.0149,0.0181 0.04029,0.0106 0.209571,-0.0615 z m -1.29898,-1.14003 c 0.285018,-0.0472 0.503238,-0.11745 0.63731,-0.2053 l 0.03438,-0.0225 -0.05814,-0.061 c -0.03198,-0.0335 -0.08036,-0.0928 -0.107506,-0.13158 -0.04894,-0.07 -0.04912,-0.0709 -0.02088,-0.10229 0.04278,-0.0476 0.22284,-0.18039 0.369736,-0.27261 0.29477,-0.18506 0.751316,-0.38961 1.001879,-0.44888 0.217681,-0.0515 0.208476,-0.0479 0.216628,-0.085 0.04338,-0.1976 0.08554,-0.44433 0.08533,-0.49935 -1.6e-5,-0.006 -0.02355,0.0289 -0.05226,0.0765 -0.157258,0.26079 -0.374761,0.48853 -0.556147,0.58233 -0.144348,0.0746 -0.470545,0.10643 -0.637106,0.0621 -0.112426,-0.0299 -0.23954,-0.0917 -0.31343,-0.15223 -0.05019,-0.0411 -0.06936,-0.0493 -0.08497,-0.0364 -0.01109,0.009 -0.08541,0.0333 -0.165177,0.0535 -0.119002,0.0302 -0.181242,0.0368 -0.346924,0.0368 -0.111049,0 -0.242507,-0.007 -0.292129,-0.0164 -0.218631,-0.0399 -0.389877,-0.0768 -0.412772,-0.0891 -0.01815,-0.01 -0.04607,0.002 -0.104216,0.0409 -0.150405,0.10255 -0.404088,0.21221 -0.614863,0.26575 -0.236384,0.0601 -0.426802,0.0818 -0.713015,0.0815 -0.225872,0 -0.337193,-0.0186 -0.497329,-0.082 -0.05126,-0.0203 -0.0976,-0.0369 -0.102968,-0.0369 -0.02167,0 0.359968,0.33995 0.456716,0.40683 0.243609,0.16837 0.380672,0.25161 0.543412,0.33001 0.181154,0.0872 0.464793,0.19242 0.617852,0.22908 0.154654,0.0371 0.381185,0.0803 0.481028,0.0918 0.131921,0.0153 0.504791,0.006 0.635574,-0.0156 z m 2.158008,-0.77186 0.09601,-0.0246 0.05515,-0.17123 c 0.03033,-0.0942 0.07617,-0.23484 0.10187,-0.31264 0.0574,-0.17379 0.06137,-0.19089 0.12777,-0.55085 0.02945,-0.15967 0.05984,-0.32248 0.06752,-0.36176 0.0077,-0.0393 0.01405,-0.11301 0.01416,-0.16378 1.85e-4,-0.11949 0.01193,-0.16213 0.04266,-0.15574 0.01326,0.003 0.02299,0.0177 0.02162,0.0331 -0.0013,0.0154 -0.0047,0.0688 -0.0075,0.11854 l -0.0049,0.0904 0.156324,-0.004 c 0.139554,-0.003 0.420822,-0.0491 0.47316,-0.0772 0.01241,-0.007 -0.0032,-0.0214 -0.04466,-0.0421 -0.161771,-0.081 -0.375597,-0.38979 -0.466407,-0.67359 -0.03367,-0.10524 -0.04172,-0.16211 -0.0478,-0.33777 -0.01439,-0.41648 0.07834,-0.77139 0.279468,-1.06946 0.115147,-0.17063 0.322109,-0.31778 0.515554,-0.36656 l 0.07231,-0.0182 -0.07444,-0.0193 c -0.08984,-0.0233 -0.192686,-0.0249 -0.312648,-0.005 -0.170444,0.0286 -0.298495,0.0459 -0.439197,0.0591 -0.115885,0.011 -0.166984,0.0246 -0.282872,0.0756 l -0.141435,0.0623 -0.133993,-0.0335 c -0.07943,-0.0198 -0.201671,-0.0365 -0.30021,-0.0409 -0.152461,-0.007 -0.175871,-0.004 -0.282871,0.0327 -0.179181,0.0616 -0.291436,0.13169 -0.420505,0.26267 -0.182965,0.1857 -0.255101,0.35219 -0.255654,0.59007 -2.64e-4,0.14112 0.0075,0.1949 0.04902,0.33908 0.04801,0.16651 0.184637,0.41161 0.241626,0.43348 0.01114,0.004 0.05442,-0.0168 0.09615,-0.0467 l 0.07589,-0.0545 -0.05306,-0.0619 c -0.02918,-0.034 -0.07609,-0.1088 -0.104233,-0.1661 -0.08524,-0.17361 -0.09669,-0.4233 -0.02948,-0.64294 0.04485,-0.14654 0.208666,-0.30921 0.357007,-0.35448 0.169678,-0.0518 0.618871,-0.002 0.618871,0.0693 0,0.0106 -0.02045,0.013 -0.0588,0.007 -0.05681,-0.009 -0.06038,-0.007 -0.105571,0.0586 -0.05603,0.0814 -0.13339,0.2479 -0.13339,0.28704 0,0.0233 0.0145,0.0294 0.08654,0.0359 0.149952,0.0136 0.295931,0.10872 0.360201,0.23469 0.05875,0.11517 0.0551,0.32192 -0.0094,0.53068 -0.02032,0.0658 -0.02146,0.10414 -0.0079,0.26799 0.02289,0.27653 -0.01138,0.6864 -0.07031,0.84142 -0.01961,0.0515 -0.05865,0.2514 -0.08241,0.42171 -0.02024,0.14514 -0.139663,0.63424 -0.201303,0.8245 -0.01693,0.0522 -0.03077,0.0975 -0.03077,0.10049 0,0.0127 0.103476,0 0.192789,-0.022 z m 1.374085,-0.17721 c 0.01196,-0.0307 0.04338,-0.14961 0.06982,-0.26425 0.02643,-0.11463 0.06396,-0.26203 0.08339,-0.32753 0.03032,-0.10224 0.06924,-0.24764 0.163362,-0.61041 0.03325,-0.12815 0.09931,-0.44152 0.09414,-0.44659 -0.0054,-0.005 -0.257953,0.15727 -0.297305,0.19136 -0.01341,0.0116 -0.03581,0.0738 -0.04976,0.13818 -0.01394,0.0644 -0.03204,0.14384 -0.0402,0.17659 -0.0082,0.0328 -0.03747,0.16675 -0.06513,0.29777 -0.02766,0.131 -0.06705,0.30854 -0.08751,0.39454 -0.05903,0.24797 -0.09946,0.43513 -0.0947,0.43833 0.02294,0.0154 0.158763,0.067 0.177704,0.0674 0.01469,0 0.03313,-0.0218 0.04619,-0.0554 z m -2.202974,-0.20665 c 0.150572,-0.0342 0.220181,-0.0674 0.334902,-0.15975 0.116953,-0.0941 0.165991,-0.14523 0.266033,-0.2775 0.216336,-0.286 0.324577,-0.54443 0.355425,-0.84861 0.01344,-0.13255 0.0098,-0.53936 -0.0049,-0.5541 -0.0066,-0.007 -0.03501,0.0207 -0.06317,0.0607 -0.08424,0.11954 -0.298987,0.34453 -0.328848,0.34453 -0.01516,0 -0.02755,-0.006 -0.02755,-0.0136 0,-0.007 0.05413,-0.0706 0.120282,-0.14032 0.219035,-0.2307 0.286967,-0.34155 0.34276,-0.55933 0.07183,-0.28035 0.0073,-0.48507 -0.184285,-0.58466 -0.10537,-0.0548 -0.36445,-0.0408 -0.516964,0.0279 -0.165682,0.0746 -0.266227,0.1281 -0.309663,0.16465 -0.04521,0.038 -0.04834,0.0462 -0.03934,0.10248 l 0.0098,0.0612 0.0989,-0.0579 c 0.109905,-0.0643 0.23954,-0.11698 0.288102,-0.11698 0.01749,0 0.04402,0.011 0.05899,0.0246 0.103608,0.0938 -0.112747,0.42652 -0.402569,0.61915 -0.09993,0.0664 -0.247832,0.12793 -0.337074,0.14015 -0.05588,0.008 -0.06962,0.004 -0.102894,-0.0296 -0.02111,-0.0211 -0.03841,-0.0549 -0.03841,-0.0751 0,-0.063 0.05363,-0.163 0.123848,-0.23096 0.05195,-0.0503 0.06429,-0.0708 0.05369,-0.0893 -0.0076,-0.0132 -0.02029,-0.0425 -0.02828,-0.065 -0.008,-0.0225 -0.02265,-0.041 -0.0326,-0.041 -0.03625,0 -0.162563,0.15775 -0.219882,0.27464 -0.11538,0.23525 -0.134887,0.4118 -0.06155,0.55707 0.09332,0.18486 0.271528,0.28489 0.50759,0.28489 0.166285,0 0.2712,-0.0277 0.458001,-0.12091 0.146839,-0.0733 0.189971,-0.0825 0.158938,-0.0338 -0.02955,0.0463 -0.243083,0.14432 -0.387442,0.1778 -0.06297,0.0145 -0.15606,0.0219 -0.252971,0.0199 -0.167209,-0.004 -0.179843,0 -0.272778,0.093 -0.08759,0.0869 -0.120996,0.18294 -0.120996,0.34804 0,0.11423 0.0077,0.16649 0.03789,0.25636 0.04241,0.12632 0.03066,0.17802 -0.02111,0.0929 -0.04611,-0.0758 -0.06809,-0.18674 -0.0685,-0.34559 l -2.65e-4,-0.14511 h -0.05642 c -0.12509,-1.5e-4 -0.228928,0.0968 -0.260057,0.24277 -0.02979,0.13968 0.02818,0.26751 0.187595,0.4137 0.05699,0.0523 0.140229,0.10997 0.195882,0.13581 0.149434,0.0694 0.360603,0.0877 0.540051,0.0469 z m -1.114809,-0.10936 c 0.09919,-0.0162 0.229301,-0.0528 0.260829,-0.0733 0.01728,-0.0112 0.01421,-0.0218 -0.01733,-0.0593 -0.0711,-0.0845 -0.118562,-0.20192 -0.117504,-0.29071 0.0016,-0.13784 0.0747,-0.26728 0.181639,-0.32184 0.03512,-0.0179 0.05869,-0.0406 0.05869,-0.0564 0,-0.0433 0.0771,-0.14906 0.12232,-0.16778 0.03204,-0.0132 0.04588,-0.0329 0.05844,-0.0827 0.009,-0.0359 0.02236,-0.069 0.02957,-0.0734 0.0072,-0.004 -0.0061,-0.0242 -0.02947,-0.0439 -0.02342,-0.0197 -0.06798,-0.0727 -0.09903,-0.11779 l -0.05646,-0.082 -0.04754,0.0418 c -0.02614,0.0229 -0.09725,0.0727 -0.158004,0.11058 -0.0941,0.0587 -0.118666,0.0831 -0.165846,0.16513 -0.0978,0.17005 -0.31813,0.38068 -0.524928,0.50184 -0.196345,0.11504 -0.462016,0.19565 -0.715402,0.21707 l -0.11145,0.01 0.115665,0.0746 c 0.199919,0.12899 0.436351,0.20895 0.729231,0.24662 0.141399,0.0183 0.382363,0.0193 0.48658,0.002 z m 2.988702,-0.2107 c 0.08712,-0.0913 0.172683,-0.19281 0.190124,-0.22549 0.01744,-0.0327 0.04532,-0.12049 0.06195,-0.19516 0.05382,-0.24162 0.08941,-0.40277 0.09854,-0.44616 l 0.0089,-0.0424 -0.04772,0.0247 c -0.04602,0.0238 -0.183809,0.0587 -0.418135,0.10578 -0.06141,0.0123 -0.182835,0.0265 -0.269827,0.0316 l -0.158165,0.009 -0.06909,0.35388 c -0.038,0.19464 -0.07904,0.38209 -0.09121,0.41658 -0.04212,0.11937 -0.04526,0.11697 0.160261,0.12226 0.100306,0.003 0.225925,0.006 0.279148,0.008 l 0.09677,0.003 z m 0.08724,0.10614 c 0,-0.008 -0.003,-0.0149 -0.0066,-0.0149 -0.0036,0 -0.01071,0.007 -0.01577,0.0149 -0.0051,0.008 -0.0021,0.0149 0.0066,0.0149 0.0087,0 0.01577,-0.007 0.01577,-0.0149 z m -2.5404,-0.70455 c 0.0048,-0.019 0.0254,-0.0592 0.04583,-0.0893 0.02891,-0.0426 0.03213,-0.0547 0.01453,-0.0547 -0.05768,0 -0.142922,0.0682 -0.161488,0.12921 -0.0083,0.0272 -0.0031,0.0335 0.03174,0.0387 0.02289,0.003 0.04591,0.007 0.05116,0.009 0.0053,0.002 0.01344,-0.0134 0.01823,-0.0324 z m -0.84582,-0.25431 c 0.288888,-0.0811 0.493086,-0.18253 0.639379,-0.31775 0.04212,-0.0389 0.04439,-0.0468 0.03983,-0.13815 -0.0097,-0.19377 0.122314,-0.5003 0.283726,-0.65889 l 0.08763,-0.0861 -0.02506,-0.12232 c -0.05788,-0.28257 0.0021,-0.56203 0.161986,-0.75583 0.155038,-0.1878 0.279096,-0.27559 0.516385,-0.36533 0.100957,-0.0382 0.128066,-0.042 0.282871,-0.0401 0.124756,0.002 0.20969,0.0117 0.313021,0.0375 l 0.141811,0.0354 0.07407,-0.0324 0.07407,-0.0324 -0.05955,-0.009 c -0.03275,-0.005 -0.0964,-0.013 -0.141436,-0.0181 -0.07212,-0.008 -0.406609,-0.0823 -0.573188,-0.12704 -0.08693,-0.0234 -0.418711,-0.18864 -0.473824,-0.23603 -0.02598,-0.0224 -0.08076,-0.063 -0.121697,-0.0904 -0.04094,-0.0273 -0.1675,-0.14275 -0.281242,-0.25645 l -0.206798,-0.20675 -0.03885,0.0371 c -0.02138,0.0204 -0.09441,0.0677 -0.162324,0.10524 -0.218861,0.12087 -0.419722,0.17409 -0.653296,0.17313 h -0.153734 l -1.48e-4,0.11509 c -1.35e-4,0.10358 -0.04498,0.41121 -0.0884,0.60639 -0.02725,0.12251 -0.134004,0.40776 -0.206135,0.55085 -0.120665,0.23937 -0.368014,0.60945 -0.480853,0.71944 -0.02791,0.0272 -0.114115,0.0892 -0.191559,0.1377 -0.163946,0.10277 -0.157593,0.10541 0.122921,0.0514 0.391866,-0.0754 0.652912,-0.16598 1.031835,-0.35791 0.293788,-0.14879 0.495776,-0.27292 0.73252,-0.45014 0.334333,-0.25027 0.587954,-0.51993 0.681821,-0.72496 0.03622,-0.0791 0.06963,-0.11327 0.09045,-0.0925 0.01514,0.0151 -0.05556,0.1616 -0.12687,0.26285 -0.0791,0.1123 -0.399595,0.43634 -0.499676,0.50521 -0.03765,0.0259 -0.08528,0.0627 -0.105844,0.0817 -0.02056,0.0191 -0.104302,0.0799 -0.186082,0.13523 l -0.148693,0.10058 -1.32e-4,0.0985 c -5.29e-4,0.38108 -0.267507,1.01186 -0.559533,1.32206 l -0.105587,0.11215 0.06837,-0.009 c 0.0376,-0.005 0.149125,-0.0319 0.247827,-0.0596 z m 1.000824,0.0424 c 0.04501,-0.0315 0.04159,-0.047 -0.01304,-0.059 -0.0502,-0.011 -0.0643,-0.002 -0.07974,0.0487 -0.0085,0.0281 -0.0045,0.0335 0.02479,0.0335 0.01921,0 0.0498,-0.0104 0.068,-0.0232 z m 2.669058,-0.16029 c 0.126717,-0.0553 0.353047,-0.20498 0.429639,-0.28408 l 0.05079,-0.0525 -0.05823,0.0168 c -0.0942,0.0272 -0.383998,0.0217 -0.512315,-0.01 -0.152255,-0.0372 -0.390859,-0.11539 -0.497314,-0.16286 -0.04834,-0.0216 -0.09184,-0.0353 -0.09665,-0.0304 -0.01529,0.0153 0.103529,0.22318 0.193632,0.33874 0.105209,0.13493 0.242176,0.23361 0.323869,0.23333 0.02977,-1.5e-4 0.104738,-0.0223 0.166584,-0.0493 z m 0.362014,-0.36856 c 0.150325,-0.0214 0.212251,-0.0639 0.29564,-0.20305 0.08697,-0.14512 0.196667,-0.42108 0.167386,-0.42108 -0.0047,0 -0.0279,0.0101 -0.05164,0.0223 -0.257847,0.13335 -0.981622,0.065 -1.40426,-0.13262 -0.08042,-0.0376 -0.150005,-0.0684 -0.154646,-0.0684 -0.01807,0 0.0097,0.35548 0.03543,0.45349 l 0.02721,0.10362 0.09677,0.049 c 0.142002,0.0719 0.493668,0.1822 0.646846,0.20295 0.138125,0.0187 0.169984,0.0181 0.341254,-0.006 z m 2.1106,-0.18915 c 0.06851,-0.0327 0.158522,-0.0898 0.200032,-0.12689 0.139052,-0.12435 0.274889,-0.3571 0.316511,-0.54235 l 0.01389,-0.0619 -0.143394,-0.0314 c -0.07886,-0.0173 -0.170558,-0.0411 -0.203769,-0.0531 -0.192773,-0.0692 -0.605184,-0.40851 -0.496483,-0.40851 0.009,0 0.06071,0.0407 0.114959,0.0904 0.1221,0.11187 0.267891,0.20986 0.375206,0.25215 0.08331,0.0328 0.32295,0.0886 0.382699,0.089 0.02943,0 0.03151,-0.004 0.0186,-0.038 -0.02225,-0.0585 -0.01741,-0.12117 0.01405,-0.182 0.02791,-0.054 0.03869,-0.0654 0.125182,-0.13277 l 0.04209,-0.0328 -0.04953,-0.0207 c -0.215567,-0.0903 -0.254577,-0.30331 -0.08578,-0.46833 0.07576,-0.0741 0.332652,-0.17754 0.620329,-0.24984 0.229589,-0.0577 0.275727,-0.0749 0.439195,-0.16358 0.277741,-0.1507 0.423243,-0.25312 0.562679,-0.39607 0.229171,-0.23493 0.280633,-0.40964 0.18062,-0.6132 -0.03457,-0.0704 -0.06865,-0.11512 -0.111659,-0.1466 -0.05905,-0.0432 -0.06669,-0.0449 -0.166111,-0.0361 -0.165733,0.0147 -0.35048,0.0721 -0.487265,0.15164 -0.173836,0.10109 -0.250489,0.16955 -0.392925,0.35091 -0.130799,0.16656 -0.187216,0.21858 -0.312274,0.28795 -0.08101,0.0449 -0.125127,0.0428 -0.125127,-0.006 0,-0.0162 0.0402,-0.0938 0.08933,-0.17258 0.04913,-0.0788 0.08933,-0.1465 0.08933,-0.15049 0,-0.004 0.02453,-0.0455 0.05449,-0.0922 0.02997,-0.0467 0.09435,-0.16405 0.14306,-0.26077 l 0.08857,-0.1759 0.0021,-0.18142 c 0.0021,-0.17415 2.65e-4,-0.18495 -0.04257,-0.26927 -0.03679,-0.0724 -0.06018,-0.0973 -0.132691,-0.14143 -0.07753,-0.0472 -0.09973,-0.0536 -0.1861,-0.0536 -0.133688,0 -0.209743,0.0402 -0.377126,0.19922 -0.137136,0.1303 -0.258466,0.29612 -0.274191,0.37474 -0.0069,0.0346 0.0011,0.0543 0.03967,0.0983 0.07904,0.09 0.0949,0.14322 0.09472,0.31776 -1.48e-4,0.13447 -0.0056,0.16934 -0.03897,0.24951 -0.04646,0.11155 -0.161687,0.28877 -0.215027,0.33075 -0.03276,0.0258 -0.108762,0.0426 -0.108762,0.0241 0,-0.003 0.04195,-0.0486 0.09322,-0.1005 0.300064,-0.30396 0.292772,-0.7909 -0.01312,-0.87654 -0.193826,-0.0543 -0.413827,0.0739 -0.56306,0.32803 -0.09851,0.16776 -0.116919,0.23687 -0.120274,0.45167 -0.003,0.19073 -0.0031,0.1912 -0.04396,0.21802 -0.0703,0.0461 -0.16505,0.17584 -0.198972,0.27244 -0.08909,0.25368 0.0094,0.55005 0.261099,0.78547 0.09749,0.0912 0.114802,0.14127 0.03205,0.0927 -0.04069,-0.0239 -0.16092,-0.14387 -0.22401,-0.22357 -0.0371,-0.0469 -0.120272,-0.0578 -0.192336,-0.0253 -0.07057,0.0318 -0.223414,0.19058 -0.26851,0.2789 -0.06544,0.12815 -0.05094,0.38162 0.03198,0.55881 0.07537,0.16107 0.144973,0.25446 0.310711,0.41687 0.128169,0.12562 0.178604,0.16413 0.276595,0.21119 0.139568,0.067 0.170146,0.0734 0.322826,0.0672 0.09632,-0.004 0.132652,-0.0136 0.23821,-0.064 z m -0.09132,-1.3334 c 0,-0.011 0.01442,-0.0328 0.03205,-0.0484 0.111641,-0.0988 0.19194,-0.30952 0.190622,-0.50027 -5.29e-4,-0.0849 -0.0063,-0.12366 -0.03764,-0.25388 -0.0073,-0.0304 -0.0043,-0.0409 0.01183,-0.0409 0.0389,0 0.06054,0.0789 0.06736,0.24564 0.01048,0.25614 -0.03683,0.40564 -0.180155,0.56934 -0.04381,0.05 -0.08407,0.0637 -0.08407,0.0285 z m -1.818442,0.9275 c 0.05207,-0.008 0.136851,-0.0345 0.188405,-0.0579 l 0.09374,-0.0425 0.01077,-0.11493 c 0.02024,-0.21592 -0.03256,-0.57321 -0.0827,-0.55969 -0.01212,0.003 -0.05533,0.0151 -0.09605,0.0261 -0.145671,0.0396 -0.453146,0.0574 -0.663683,0.0383 -0.177924,-0.0162 -0.512072,-0.0939 -0.597964,-0.1392 -0.03249,-0.0172 -0.05422,0.0229 -0.106135,0.19546 -0.06029,0.20042 -0.09029,0.36925 -0.06997,0.39373 0.0094,0.0114 0.08543,0.0504 0.168932,0.0868 0.32513,0.14175 0.857967,0.22197 1.154657,0.17383 z m 0.716727,-0.16861 c 0,-0.003 -0.01344,-0.0359 -0.02986,-0.0731 -0.0164,-0.0371 -0.03405,-0.10757 -0.03917,-0.15656 l -0.0093,-0.089 -0.07045,-0.009 c -0.03875,-0.005 -0.10319,-0.026 -0.143208,-0.0463 -0.04002,-0.0203 -0.07531,-0.0369 -0.07841,-0.037 -0.0031,0 -0.0011,0.0619 0.005,0.13765 0.01413,0.18289 0.03258,0.20357 0.223954,0.25109 0.107548,0.0267 0.141438,0.0321 0.141438,0.0225 z m 2.59447,-0.0383 c 0.119941,-0.0461 0.16982,-0.0925 0.196792,-0.18335 0.02851,-0.096 0.02928,-0.21066 0.0016,-0.23835 -0.06601,-0.066 -0.448,-0.13892 -0.669269,-0.12776 -0.123131,0.006 -0.176122,0.0339 -0.258868,0.13523 -0.08251,0.10105 -0.06024,0.21182 0.06496,0.32293 0.124576,0.11056 0.206745,0.13566 0.422621,0.12904 0.116822,-0.004 0.17802,-0.013 0.242163,-0.0377 z m -5.981494,-0.22769 c 0.138123,-0.0688 0.241544,-0.10621 0.338704,-0.12249 0.04462,-0.007 0.05591,-0.016 0.05623,-0.0422 5.29e-4,-0.0465 0.07541,-0.21626 0.130831,-0.29681 0.05723,-0.0832 0.05321,-0.086 -0.138679,-0.0967 -0.171704,-0.01 -0.268369,0.0173 -0.379642,0.10537 -0.13915,0.11017 -0.222316,0.2987 -0.223062,0.50566 l -1.86e-4,0.0717 0.04094,-0.029 c 0.02252,-0.0158 0.101237,-0.059 0.174934,-0.0957 z m 3.258884,-0.18382 c 0.005,-0.013 0.009,-0.0453 0.009,-0.0718 0,-0.16332 0.213916,-0.42922 0.38132,-0.47399 l 0.06212,-0.0166 -0.02326,-0.0606 c -0.0163,-0.0425 -0.0236,-0.1163 -0.02445,-0.24671 -0.0013,-0.20373 0.01207,-0.26331 0.08288,-0.36955 0.0236,-0.0354 0.03977,-0.0694 0.03594,-0.0756 -0.0038,-0.006 -0.07781,-0.0632 -0.164393,-0.12677 l -0.157435,-0.11552 -0.129866,0.10203 c -0.07142,0.0561 -0.165033,0.12761 -0.208023,0.15889 l -0.07816,0.0569 -1.75e-4,0.15878 c -1.85e-4,0.16791 -0.03453,0.3398 -0.107579,0.53841 l -0.03559,0.0968 0.04846,0.10682 c 0.02665,0.0588 0.05296,0.13083 0.05846,0.16018 0.01381,0.0737 0.05302,0.11829 0.143619,0.16345 0.09074,0.0452 0.09524,0.0459 0.10709,0.0149 z m 3.071529,-0.1579 c 0.05083,-0.0365 0.08583,-0.0789 0.121335,-0.14708 0.04594,-0.0882 0.04938,-0.10412 0.04335,-0.20099 -0.0075,-0.12074 -0.06288,-0.2412 -0.134212,-0.29198 -0.105347,-0.075 -0.302033,-0.10899 -0.41951,-0.0725 -0.02514,0.008 -0.106016,0.0318 -0.179713,0.0534 -0.120838,0.0353 -0.284186,0.10015 -0.423251,0.16804 -0.02808,0.0136 -0.0809,0.0531 -0.117385,0.0876 -0.06266,0.0592 -0.0658,0.066 -0.05675,0.12262 0.01312,0.0822 0.04875,0.1514 0.09613,0.18692 0.03465,0.026 0.07206,0.031 0.29282,0.0395 0.260993,0.01 0.408887,0.0347 0.518832,0.0867 0.08815,0.0417 0.169479,0.0316 0.258347,-0.0322 z m -3.800808,0.011 c 0.02532,-0.004 0.0855,-0.0112 0.133765,-0.016 0.112631,-0.0114 0.202573,-0.047 0.202573,-0.0801 0,-0.0525 -0.108333,-0.20615 -0.21954,-0.31137 -0.07869,-0.0745 -0.150871,-0.12635 -0.227061,-0.16327 -0.0994,-0.0482 -0.124809,-0.0542 -0.230804,-0.0546 -0.109884,0 -0.128897,0.004 -0.245652,0.0612 -0.0696,0.034 -0.16083,0.0923 -0.202732,0.1297 -0.08684,0.0775 -0.222403,0.267 -0.20784,0.29056 0.02418,0.0392 0.399367,0.13319 0.619006,0.15517 0.063,0.006 0.31425,-0.002 0.378285,-0.0112 z m 0.305043,-0.4318 c 0.08261,-0.22077 0.113049,-0.35584 0.113115,-0.50187 2.9e-5,-0.0792 -0.0042,-0.14813 -0.0093,-0.15329 -0.0051,-0.005 -0.04397,0.011 -0.08626,0.036 -0.0423,0.0249 -0.08066,0.0453 -0.08525,0.0453 -0.0046,0 -0.04282,0.0177 -0.08495,0.0394 -0.04213,0.0217 -0.19249,0.0773 -0.334135,0.12368 l -0.257532,0.0842 0.130985,0.0393 c 0.164248,0.0493 0.368403,0.16921 0.479388,0.28149 0.04584,0.0464 0.08789,0.0849 0.09345,0.0856 0.0056,0 0.02376,-0.0353 0.04049,-0.08 z m -1.430202,-0.27633 c 0.07643,-0.008 0.156826,-0.0177 0.178657,-0.0214 0.02183,-0.004 0.123439,-0.0209 0.225793,-0.0382 0.102354,-0.0173 0.230251,-0.0408 0.284213,-0.0521 0.302019,-0.0635 0.731146,-0.24751 0.951491,-0.40791 0.31078,-0.22626 0.545545,-0.46095 0.636167,-0.63599 0.05382,-0.10396 0.09964,-0.22742 0.08853,-0.23852 -0.0021,-0.002 -0.03431,0.005 -0.07134,0.0162 -0.08329,0.0251 -0.281926,0.0447 -0.322394,0.0318 -0.01648,-0.005 -0.03806,-0.029 -0.04792,-0.0528 -0.02056,-0.0496 -0.0019,-0.12713 0.04759,-0.19765 l 0.02872,-0.0409 h -0.07258 c -0.140163,0 -0.591871,0.103 -0.651513,0.14857 -0.0082,0.006 -0.07449,0.0331 -0.147339,0.0597 -0.07285,0.0266 -0.200144,0.0783 -0.282874,0.11489 -0.549346,0.243 -0.63709,0.27615 -0.879932,0.33235 -0.320985,0.0743 -0.35242,0.0781 -0.677408,0.0812 -0.338693,0.003 -0.428371,0.0177 -0.509698,0.0816 -0.08849,0.0696 -0.110017,0.21731 -0.05368,0.36834 0.02389,0.0641 0.0573,0.11139 0.13027,0.18447 0.147931,0.14818 0.32049,0.22292 0.626658,0.27139 0.07607,0.0121 0.384201,0.009 0.518607,-0.005 z m -0.258067,-0.32722 c -0.1636,-0.0441 -0.254955,-0.0826 -0.338529,-0.14261 -0.06557,-0.0471 -0.09353,-0.0572 -0.183666,-0.066 -0.105031,-0.0102 -0.140322,-0.0209 -0.140322,-0.0424 0,-0.006 0.07926,-0.0106 0.176134,-0.0102 0.17336,0 0.17736,0 0.254084,-0.0477 0.08689,-0.0539 0.105752,-0.0586 0.105752,-0.0263 0,0.0286 -0.09828,0.0935 -0.16029,0.10596 -0.06226,0.0125 -0.0607,0.027 0.0077,0.0718 0.12682,0.0831 0.453099,0.15957 0.55757,0.13074 0.06844,-0.0189 0.107548,0.002 0.06488,0.0344 -0.04065,0.031 -0.214127,0.0271 -0.343299,-0.008 z m -0.83571,0.17208 c -0.259543,-0.1748 -0.356153,-0.50963 -0.193752,-0.67152 0.06006,-0.0599 0.19753,-0.11103 0.327663,-0.12195 0.08429,-0.007 0.09712,-0.0113 0.07323,-0.0249 -0.06913,-0.0389 -0.17259,-0.13825 -0.232032,-0.22275 -0.09219,-0.13106 -0.124095,-0.18987 -0.203851,-0.37565 -0.09295,-0.21651 -0.13403,-0.39351 -0.13403,-0.57749 0,-0.26696 0.07918,-0.44763 0.259911,-0.59302 0.132464,-0.10656 0.218422,-0.13484 0.432382,-0.14221 0.202645,-0.007 0.344395,0.02 0.527452,0.10033 0.05656,0.0248 0.107064,0.0451 0.112231,0.0451 0.0052,0 0.06769,0.0349 0.138938,0.0775 0.169019,0.10112 0.419775,0.28803 0.605714,0.45149 0.152262,0.13383 0.237127,0.18473 0.309025,0.18531 0.03285,0 0.05089,-0.0149 0.09266,-0.0778 0.06059,-0.0913 0.188611,-0.4002 0.221853,-0.5353 0.0127,-0.0516 0.05692,-0.22102 0.0983,-0.37659 0.04138,-0.15558 0.09181,-0.35393 0.112051,-0.44076 0.08295,-0.35584 0.189317,-0.58081 0.309017,-0.65359 0.042,-0.0255 0.05063,-0.0261 0.0993,-0.006 0.06279,0.0256 0.09965,0.0673 0.153715,0.17387 0.07651,0.15074 0.145237,0.46104 0.145237,0.6557 0,0.0576 0.0033,0.10149 0.0073,0.0975 0.02691,-0.0269 0.05663,-0.28212 0.05607,-0.48157 -0.0011,-0.3482 -0.05352,-0.54329 -0.184656,-0.68554 -0.133178,-0.1445 -0.293978,-0.14168 -0.468148,0.008 -0.130612,0.11235 -0.281377,0.36437 -0.316757,0.52949 -0.02808,0.13104 -0.03177,0.14046 -0.05504,0.14046 -0.02612,0 -0.02609,-0.025 1.03e-4,-0.14721 0.03841,-0.17912 0.193402,-0.44047 0.332586,-0.56078 0.04963,-0.0429 0.05304,-0.0506 0.03748,-0.0848 -0.02365,-0.0519 -0.413517,-0.45053 -0.495715,-0.50685 -0.03685,-0.0252 -0.09714,-0.0706 -0.133993,-0.10069 -0.24438,-0.19986 -0.924113,-0.59816 -1.205929,-0.70664 -0.0696,-0.0268 -0.170095,-0.0658 -0.223321,-0.0867 -0.334931,-0.13158 -0.504103,-0.18199 -0.811398,-0.24186 -0.106447,-0.0207 -0.237091,-0.0464 -0.290314,-0.0571 -0.219112,-0.044 -0.790403,-0.0274 -1.258038,0.0364 -0.196327,0.0268 -0.69705,0.13821 -0.729515,0.16228 -0.0082,0.006 -0.05843,0.0263 -0.111659,0.045 -0.05322,0.0187 -0.101558,0.0383 -0.107405,0.0437 -0.0245,0.0224 0.09888,0.29328 0.285715,0.62716 0.05728,0.10235 0.155472,0.29999 0.218213,0.43919 0.10406,0.23089 0.172503,0.37611 0.262795,0.5576 0.03253,0.0654 0.03437,0.0665 0.137191,0.0839 0.12527,0.0211 0.207756,0.0527 0.329735,0.12606 0.213804,0.12862 0.448931,0.34709 0.624848,0.58061 0.108312,0.14378 0.139686,0.19354 0.139686,0.22158 0,0.0332 -0.0394,0.0138 -0.06631,-0.0325 -0.04762,-0.0821 -0.254709,-0.34241 -0.330631,-0.41557 -0.03962,-0.0382 -0.120486,-0.10872 -0.179708,-0.15674 -0.334669,-0.27138 -0.660752,-0.35315 -0.717039,-0.1798 -0.02424,0.0747 -0.06112,0.26138 -0.06112,0.3094 v 0.0429 l 0.05163,-0.0216 c 0.08018,-0.0335 0.22562,-0.027 0.357108,0.0158 0.139065,0.0454 0.185274,0.0686 0.289089,0.14529 0.185377,0.13691 0.463439,0.4603 0.463439,0.53899 0,0.0445 -0.02723,0.0212 -0.09096,-0.0778 -0.03557,-0.0553 -0.14032,-0.17573 -0.232765,-0.26769 -0.142396,-0.14164 -0.186825,-0.17623 -0.290661,-0.22631 -0.20198,-0.0974 -0.367572,-0.11839 -0.493942,-0.0625 -0.05171,0.0229 -0.06798,0.0382 -0.06849,0.0643 -2.64e-4,0.0189 -0.0034,0.0679 -0.0067,0.10878 -0.0061,0.0741 0.02178,0.32115 0.05211,0.46263 l 0.0159,0.0742 0.08508,0.0175 c 0.277159,0.0574 0.389054,0.11256 0.596291,0.29407 0.178261,0.15613 0.299091,0.32408 0.380707,0.52915 0.160057,0.40219 0.123195,0.85817 -0.08949,1.10698 -0.06292,0.0736 -0.06184,0.0757 0.14147,0.27721 0.298212,0.29554 0.606555,0.49662 0.879888,0.57384 0.101007,0.0285 0.102804,0.0259 0.02035,-0.0296 z m -0.617305,-1.55299 c -0.05001,-0.13142 -0.06129,-0.23611 -0.05415,-0.50248 0.0068,-0.2533 0.0099,-0.27599 0.056,-0.41437 0.02685,-0.0805 0.07341,-0.18436 0.103465,-0.23077 0.119438,-0.18441 0.325347,-0.32106 0.563777,-0.37417 0.280178,-0.0624 0.444441,-0.0528 0.634431,0.0371 0.09476,0.0448 0.124825,0.0749 0.09982,0.0999 -0.01291,0.0129 -0.02799,0.009 -0.06125,-0.0155 -0.115684,-0.0855 -0.298069,-0.12472 -0.489336,-0.10516 -0.376542,0.0385 -0.642239,0.21105 -0.763765,0.49591 -0.07992,0.18736 -0.09217,0.26054 -0.09233,0.55174 -1.33e-4,0.22914 0.0044,0.283 0.03097,0.37167 0.01712,0.0571 0.02788,0.10896 0.02392,0.11539 -0.01439,0.0233 -0.0363,0.0108 -0.05155,-0.0293 z m -2.175354,1.23155 c 0.151466,-0.016 0.499793,-0.0885 0.486982,-0.10132 -0.0041,-0.004 -0.05181,-0.023 -0.10604,-0.0419 -0.220176,-0.077 -0.454768,-0.23825 -0.584623,-0.40185 -0.06163,-0.0777 -0.168508,-0.28226 -0.226372,-0.43336 -0.01961,-0.0512 -0.03988,-0.0931 -0.04508,-0.0931 -0.0052,0 -0.03499,0.0318 -0.06622,0.0707 -0.227449,0.28334 -0.643869,0.56201 -0.932474,0.62403 l -0.118036,0.0254 0.05682,0.0353 c 0.105963,0.0658 0.309494,0.16328 0.406689,0.19483 0.13957,0.0453 0.408614,0.10782 0.521078,0.12118 0.145613,0.0173 0.444484,0.0173 0.607274,1.5e-4 z m 1.194224,-0.19119 c 0.165534,-0.0476 0.347673,-0.15863 0.463063,-0.28216 0.123587,-0.13231 0.185904,-0.25351 0.216231,-0.4206 0.06754,-0.37211 -0.06003,-0.79444 -0.32583,-1.07867 -0.201086,-0.21502 -0.424574,-0.34919 -0.666358,-0.39999 -0.248317,-0.0522 -0.619366,0.003 -0.839152,0.12394 -0.272638,0.15049 -0.486336,0.49879 -0.484754,0.79008 l 5.29e-4,0.11165 0.02416,-0.0596 c 0.03005,-0.0741 0.123085,-0.21313 0.169921,-0.25397 0.204483,-0.17826 0.491382,-0.27061 0.796624,-0.25644 0.364151,0.017 0.74024,0.25221 0.898302,0.56204 0.0874,0.17132 0.108477,0.25338 0.109117,0.42479 5.29e-4,0.13925 -0.0054,0.18216 -0.03989,0.28659 -0.06402,0.19414 -0.200941,0.3529 -0.386088,0.44771 -0.07711,0.0395 -0.06114,0.0406 0.06405,0.005 z m -0.449721,-0.35223 0.197956,-0.1898 -0.04908,-0.0421 c -0.02699,-0.0232 -0.07382,-0.0597 -0.104058,-0.0812 -0.05191,-0.0369 -0.0569,-0.0378 -0.08933,-0.0151 -0.05049,0.0353 -0.353994,0.33656 -0.381773,0.37894 -0.02341,0.0357 -0.0223,0.0377 0.06406,0.11497 l 0.08788,0.0786 0.03819,-0.0272 c 0.02101,-0.0149 0.127272,-0.11259 0.236145,-0.21697 z m 2.883866,0.0364 c 0.344763,-0.0664 0.565743,-0.13971 0.937945,-0.31106 0.433142,-0.19939 0.81515,-0.33347 1.055098,-0.3703 0.05624,-0.009 0.104029,-0.0177 0.106182,-0.0201 0.0021,-0.002 0.03173,-0.0886 0.06571,-0.19155 0.06669,-0.20192 0.107455,-0.38591 0.135025,-0.60939 0.0096,-0.0778 0.02782,-0.20509 0.0405,-0.28288 0.01445,-0.0887 0.02296,-0.23585 0.02283,-0.39452 -1.8e-4,-0.21675 -0.0057,-0.27769 -0.0384,-0.42432 -0.05769,-0.25867 -0.108132,-0.38258 -0.184592,-0.45346 -0.05554,-0.0515 -0.08075,-0.0478 -0.142941,0.021 -0.101896,0.1128 -0.147799,0.24351 -0.298225,0.8493 -0.05389,0.217 -0.111059,0.43975 -0.127053,0.49502 -0.02819,0.0974 -0.02823,0.10051 -0.0016,0.10051 0.06356,0 0.119769,0.13804 0.146838,0.36066 0.02373,0.19522 -0.03026,0.32595 -0.115742,0.28021 -0.04417,-0.0236 -0.103288,-0.1781 -0.117327,-0.30649 l -0.01294,-0.11852 -0.04002,0.0893 c -0.08214,0.18335 -0.163417,0.29574 -0.225071,0.3112 -0.0561,0.0142 -0.169714,-0.0501 -0.310692,-0.17543 -0.609253,-0.5418 -1.087641,-0.7634 -1.498478,-0.6941 -0.138546,0.0234 -0.210114,0.0539 -0.308057,0.13152 -0.14155,0.11214 -0.216932,0.2648 -0.237532,0.48104 -0.02948,0.3094 0.210378,0.90606 0.44864,1.11609 0.07285,0.0642 0.199697,0.14212 0.247521,0.15205 0.06122,0.0127 0.297418,-0.006 0.452218,-0.0358 z m -0.33878,-0.67242 c -0.11584,-0.15973 -0.178202,-0.50886 -0.109596,-0.61358 0.03216,-0.0491 0.113578,-0.0523 0.156522,-0.006 0.0648,0.0696 0.139549,0.43804 0.115073,0.56721 -0.02077,0.10958 -0.101629,0.13583 -0.161999,0.0526 z m 0.06099,-0.34466 c 0.01762,-0.0362 0.01588,-0.0525 -0.01487,-0.13898 -0.04014,-0.11282 -0.07675,-0.14659 -0.11017,-0.10158 -0.04239,0.0571 -0.01754,0.20367 0.0452,0.26638 0.03302,0.033 0.05459,0.026 0.07986,-0.0258 z m -3.147161,0.66025 0.07209,-0.0752 -0.03437,-0.0241 c -0.01889,-0.0132 -0.08837,-0.0732 -0.154382,-0.1332 -0.06601,-0.06 -0.12445,-0.10915 -0.129863,-0.10915 -0.02154,0 -0.117528,0.12102 -0.117528,0.14816 0,0.0181 0.05218,0.0743 0.137713,0.14855 0.07574,0.0658 0.141433,0.11974 0.145979,0.11988 0.0046,1.5e-4 0.04071,-0.0336 0.08036,-0.0749 z m 6.178786,-0.47535 c 0.0473,-0.0292 0.0843,-0.10749 0.06157,-0.13022 -0.01691,-0.017 -0.131511,0.0471 -0.164613,0.0919 -0.06293,0.0853 -0.06302,0.0882 -0.0024,0.0784 0.03027,-0.005 0.07773,-0.0229 0.105471,-0.0401 z m -1.140873,-0.46995 c 0.0095,-0.0209 0.01728,-0.0542 0.01728,-0.0742 0,-0.0514 -0.04532,-0.15818 -0.06445,-0.15181 -0.04219,0.014 -0.04926,0.19422 -0.0095,0.24213 0.02537,0.0306 0.03687,0.0273 0.05668,-0.0162 z m -5.629598,-1.20535 c 0.0016,-0.10233 0.01378,-0.23797 0.02683,-0.3014 0.05448,-0.26512 0.176633,-0.616 0.269915,-0.77532 0.02074,-0.0354 0.03493,-0.0672 0.03151,-0.0707 -0.0034,-0.003 -0.06933,0.0246 -0.146468,0.0622 -0.07714,0.0377 -0.207246,0.0983 -0.289129,0.13473 -0.210878,0.0939 -0.61782,0.29388 -0.617839,0.30368 -8e-6,0.004 0.04703,0.0805 0.104521,0.16882 0.106034,0.1629 0.170791,0.24647 0.304885,0.39348 0.0741,0.0812 0.286811,0.27072 0.303755,0.27059 0.0049,0 0.01029,-0.0838 0.01201,-0.18615 z"
       id="path1746"
       sodipodi:nodetypes="ssssssscsssssssssssscsssssssssscssssssssssssscssscssssssssssscssssccsssssssssssssscsssscssscsssccssssssssssssssssscsssssssssssssscssssscssssssssscssssscsscssssssssssssssscssssssssscssssssssssssssssssssssssssssssssssssscssscsscssssssssssccsscssssssssssssssssssssssssssssscssssscccsssssssccssssssssscssssscssssssscssssssccsscssccsssssssssscsssssscssssssssscsssssssssscsssssssscssssssscsssscsssssssscsssssssssssssssssssssssssssssscssssssssssssscsssssssssssssssssssssssccsssccssssssssssscssssscssssssscssscsssscssssssssssssscssscssssscccsssssscssccssssssssssssssccscsccssssssscssssscsssscssscsssssscssssssssscsssssssssssssssscssssssscssssssssssssssssssssssssssssscsssssssssssscsscsssssssssssssssssscsssssscssssscsscsscsssssssssssssssssssssssssssssscssssscssssssssssssssscsssssssssssssssscsssssscssssssssssssssssssssssssssscsssssssssssssssssssssssscssssssssssscssssssccsssssssssssssscssssssscsssccssssssscssssssssscssssscssssssssssssssssssscsssssssssssssssssssscssssscsssssssssssssssssssscs" />
  </g>
</svg>
